<?xml version="1.0" encoding="UTF-8"?>
<svg height="100%" width="100%" xmlns="http://www.w3.org/2000/svg">
	<defs>
		<font horiz-adv-x="577" id="web">
			<font-face alphabetic="0" ascent="920" descent="-298" font-family="" panose-1="2 0 5 6 3 0 0 2 0 4"/>
			<missing-glyph d="M54 752H405V-90H54ZM85 722V-60H373V722Z" horiz-adv-x="459"/>
			<glyph d="" horiz-adv-x="255" unicode=" "/>
			<glyph d="M33 667H247L222 248H60ZM141 202Q163 202 182 193T215 170T238 136T247 95Q247 74 238 54T215 20T182 -2T141 -11Q119 -11 100 -2T66 20T43 54T35 95Q35 117 43 136T66 170T100 193T141 202Z" horiz-adv-x="280" unicode="!"/>
			<glyph d="M126 677Q145 677 161 670T190 650T210 621T218 585Q218 580 215 567T209 537T200 497T190 453Q178 401 163 339H89Q73 401 61 453Q56 475 51 497T42 537T36 567T34 585Q34 604 41 621T61 650T90 670T126 677ZM344 677Q363 677 379 670T408 650T428 621T435 585Q435 580 432 567T426 537T417 497T407 453Q395 401 380 339H307Q291 401 279 453Q274 475 269 497T260 537T254 567T252 585Q252 604 259 621T278 650T308 670T344 677Z" horiz-adv-x="469" unicode="&quot;"/>
			<glyph d="M268 667H395L342 507H420L473 667H600L546 507H634L601 399H510L466 267H557L523 158H429L377 0H250L303 158H224L172 0H45L98 158H12L47 267H135L178 399H91L125 507H215ZM305 399L262 267H339L383 399Z" horiz-adv-x="646" unicode="#"/>
			<glyph d="M262 768H390V672Q450 664 502 642T600 584L492 441Q448 474 396 490T296 507Q266 507 255 498T245 477Q245 461 272 453T341 437T430 418T520 383T588 321T616 220Q616 123 556 64T390 -8V-100H262V-8Q181 0 122 26T18 94L123 244Q161 208 215 183T338 158Q367 158 389 166T412 194Q412 210 384 217T315 232T226 250T136 285T67 349T40 456Q40 494 54 530T96 595T165 645T262 673Z" horiz-adv-x="635" unicode="$"/>
			<glyph d="M198 677Q239 677 272 664T329 628T365 574T378 508Q378 473 365 442T329 389T272 354T198 341Q157 341 124 354T68 389T32 442T20 508Q20 543 32 574T68 628T124 664T198 677ZM557 667H655L228 0H131ZM585 324Q626 324 659 311T715 275T751 221T764 155Q764 120 751 89T715 36T659 1T585 -12Q544 -12 511 1T455 36T419 89T407 155Q407 190 419 221T455 275T511 311T585 324ZM198 571Q175 571 158 556T142 508Q142 476 158 461T198 447Q222 447 239 461T256 508Q256 542 239 556T198 571ZM585 218Q561 218 544 203T528 155Q528 122 544 108T585 94Q609 94 626 108T643 155Q643 189 626 203T585 218Z" horiz-adv-x="784" unicode="%"/>
			<glyph d="M328 677Q366 677 402 667T465 637T510 590T527 526Q527 487 513 459T478 410T427 375T369 347Q379 333 388 321T407 298L443 252Q459 277 471 303T492 358L631 292Q611 252 588 214T536 141Q567 106 598 71T664 0H442L411 32Q374 11 333 0T245 -12Q196 -12 153 0T79 38T30 100T12 189Q12 226 23 255T54 306T98 345T152 376Q135 411 125 445T115 512Q115 546 130 576T174 628T241 664T328 677ZM220 263Q200 238 200 207Q200 172 221 149T272 126Q296 126 319 136Q288 172 269 197Q245 227 220 263ZM337 552Q317 552 304 539T291 507Q291 479 310 441Q339 455 357 472T376 515Q376 531 365 541T337 552Z" horiz-adv-x="652" unicode="&amp;"/>
			<glyph d="M126 677Q145 677 161 670T190 650T210 621T218 585Q218 580 215 567T209 537T200 497T190 453Q178 401 163 339H89Q73 401 61 453Q56 475 51 497T42 537T36 567T34 585Q34 604 41 621T61 650T90 670T126 677Z" horiz-adv-x="252" unicode="'"/>
			<glyph d="M214 685L328 598Q301 554 282 512T252 427T235 338T230 243Q230 193 235 148T252 60T282 -25T328 -110L214 -199Q174 -163 141 -112T85 -3T49 119T37 243Q37 303 49 366T85 489T141 598T214 685Z" horiz-adv-x="346" unicode="("/>
			<glyph d="M132 685Q172 649 204 598T260 489T296 366T309 243Q309 183 296 119T260 -3T204 -112T132 -199L18 -110Q45 -67 63 -25T93 60T110 148T116 243Q116 293 110 338T93 427T63 512T18 598Z" horiz-adv-x="347" unicode=")"/>
			<glyph d="M141 677H222L217 572L305 628L346 558L253 510L346 462L305 392L217 448L222 343H141L145 448L57 392L17 462L109 510L17 558L57 628L145 572Z" horiz-adv-x="363" unicode="*"/>
			<glyph d="M197 575H313V390H481V285H313V92H197V285H29V390H197Z" horiz-adv-x="510" unicode="+"/>
			<glyph d="M138 202Q161 202 182 193T219 168T244 128T254 73Q254 7 221 -49T129 -147L56 -88Q68 -83 82 -72T108 -49T131 -21T147 8Q137 4 121 4Q85 4 59 29T34 97Q34 119 42 138T65 171T98 193T138 202Z" horiz-adv-x="281" unicode=","/>
			<glyph d="M30 317H270V167H30Z" horiz-adv-x="300" unicode="-"/>
			<glyph d="M141 202Q163 202 182 193T216 170T239 136T248 95Q248 73 239 53T216 19T182 -3T141 -12Q119 -12 99 -3T65 19T42 53T34 95Q34 117 42 136T65 170T99 193T141 202Z" horiz-adv-x="283" unicode="."/>
			<glyph d="M237 687H362L125 -20H0Z" horiz-adv-x="362" unicode="/"/>
			<glyph d="M314 677Q389 677 444 648T536 572T591 463T610 333Q610 265 591 202T536 92T444 16T314 -12Q239 -12 183 16T91 92T36 202T18 333Q18 401 36 463T91 572T183 648T314 677ZM314 499Q266 499 243 458T221 333Q221 248 243 207T314 166Q362 166 384 207T407 333Q407 418 384 458T314 499Z" horiz-adv-x="628" unicode="0"/>
			<glyph d="M255 667H429V0H227V410L114 298L0 417Z" horiz-adv-x="483" unicode="1"/>
			<glyph d="M294 677Q359 677 411 660T501 612T559 539T580 447Q580 413 569 381T534 316T469 249T369 176H586V0H41V157Q117 211 171 250T263 317T322 364T356 397T371 423T375 447Q375 471 352 485T298 499Q244 499 202 480T122 430L12 564Q41 595 75 616T147 651T221 671T294 677Z" horiz-adv-x="613" unicode="2"/>
			<glyph d="M301 677Q370 677 422 663T509 625T561 567T579 492Q579 465 568 440T537 396T491 363T432 344Q460 341 488 329T538 297T575 250T590 188Q590 143 569 106T510 43T418 2T300 -12Q200 -12 127 17T12 92L111 230Q130 213 154 201T202 181T249 169T292 166Q342 166 365 179T389 211Q389 220 385 226T371 237T339 244T286 247Q275 247 260 247Q245 247 230 246T204 245T189 245V424Q194 424 206 423T233 423Q248 423 262 423Q277 423 286 423Q334 423 356 431T378 456Q378 479 350 489T279 499Q236 499 193 484T116 441L21 567Q66 616 134 646T301 677Z" horiz-adv-x="617" unicode="3"/>
			<glyph d="M261 667H541V283H618V107H541V0H339V107H18V262ZM339 493L213 283H339Z" horiz-adv-x="636" unicode="4"/>
			<glyph d="M52 667H562V491H254V397Q278 420 314 434T393 448Q436 448 475 432T543 388T590 320T608 230Q608 175 588 130T529 53T436 5T311 -12Q221 -12 151 12T32 82L140 224Q175 195 220 180T309 166Q360 166 381 183T403 221Q403 244 382 260T315 276Q277 276 247 265T191 230L52 262Z" horiz-adv-x="626" unicode="5"/>
			<glyph d="M368 677Q425 677 480 661T576 619L491 463Q462 483 433 491T368 499Q343 499 317 492T270 471T235 435T222 383V381Q248 414 289 431T377 449Q422 449 464 434T540 392T593 322T613 228Q613 174 592 129T534 53T446 5T336 -12Q254 -12 194 14T95 87T37 196T18 332Q18 416 43 480T115 588T226 654T368 677ZM315 278Q289 278 265 272T221 251Q222 234 228 218T247 191T278 173T323 166Q361 166 384 182T408 220Q408 236 399 247T376 265T346 275T315 278Z" horiz-adv-x="625" unicode="6"/>
			<glyph d="M18 667H563V527L341 0H120L331 491H18Z" horiz-adv-x="575" unicode="7"/>
			<glyph d="M315 677Q366 677 417 667T509 636T575 581T601 498Q601 439 569 402T484 344Q541 320 576 276T612 178Q612 127 586 91T519 32T423 -1T315 -12Q259 -12 206 -1T111 32T43 91T18 178Q18 232 53 276T145 344Q92 366 60 402T29 498Q29 547 54 581T120 636T212 667T315 677ZM315 513Q277 513 255 500T234 468Q234 452 259 439T315 422Q346 427 370 439T395 468Q395 488 374 500T315 513ZM315 253Q299 251 282 246T253 234T231 219T223 201Q223 180 247 166T315 152Q357 152 382 166T407 201Q407 211 398 219T376 234T347 246T315 253Z" horiz-adv-x="630" unicode="8"/>
			<glyph d="M289 678Q371 678 431 651T530 579T588 470T607 334Q607 250 581 186T509 78T399 11T257 -11Q200 -11 144 4T49 47L134 203Q163 183 191 175T257 167Q289 167 315 176T361 200T392 237T403 282V285Q377 252 335 234T248 217Q203 217 160 231T85 274T32 343T12 438Q12 492 33 536T91 612T179 661T289 678ZM301 500Q263 500 240 483T217 446Q217 430 226 419T248 401T278 391T310 388Q336 388 360 393T404 415Q401 449 377 474T301 500Z" horiz-adv-x="625" unicode="9"/>
			<glyph d="M141 490Q163 490 182 481T216 458T239 424T248 383Q248 361 239 341T216 307T182 284T141 276Q119 276 99 284T65 307T42 341T34 383Q34 405 42 424T65 458T99 481T141 490ZM141 202Q163 202 182 193T216 170T239 136T248 95Q248 73 239 53T216 19T182 -3T141 -12Q119 -12 99 -3T65 19T42 53T34 95Q34 117 42 136T65 170T99 193T141 202Z" horiz-adv-x="266" unicode=":"/>
			<glyph d="M141 490Q163 490 182 481T216 458T239 425T248 384Q248 362 239 342T216 308T182 284T141 276Q119 276 99 284T65 308T42 342T34 384Q34 406 42 425T65 458T99 481T141 490ZM138 203Q161 203 182 194T219 169T244 129T254 74Q254 8 221 -48T129 -146L56 -87Q68 -82 82 -71T108 -48T131 -20T147 9Q137 5 121 5Q85 5 59 30T34 98Q34 120 42 139T65 172T98 194T138 203Z" horiz-adv-x="281" unicode=";"/>
			<glyph d="M481 580V455L147 334L481 215V90L29 270V400Z" horiz-adv-x="510" unicode="&lt;"/>
			<glyph d="M29 478H481V373H29ZM29 295H481V190H29Z" horiz-adv-x="510" unicode="="/>
			<glyph d="M29 580L481 400V270L29 90V215L363 334L29 455Z" horiz-adv-x="510" unicode="&gt;"/>
			<glyph d="M222 677Q324 677 383 634T442 516Q442 463 420 432T371 379T322 340T300 297Q300 284 303 274T311 260L153 224Q141 241 133 265T126 319Q126 360 143 385T182 427T220 455T238 478Q238 487 230 493T199 499Q179 499 155 488T112 457L0 586Q44 633 103 655T222 677ZM228 202Q250 202 269 193T303 170T326 136T335 95Q335 73 326 53T303 19T269 -3T228 -12Q206 -12 186 -3T152 19T129 53T121 95Q121 117 129 136T152 170T186 193T228 202Z" horiz-adv-x="450" unicode="?"/>
			<glyph d="M432 638Q505 638 563 614T662 549T725 455T747 343Q747 276 725 227T669 146T597 100T524 85Q476 85 452 105T421 151L419 158Q393 120 358 102T290 85Q252 85 223 98T174 135T143 191T133 259Q133 307 151 350T199 425T268 477T350 497Q392 497 423 482T472 441L481 485H639L593 268Q592 264 591 254T590 241Q590 220 597 211T618 203Q633 203 647 212T672 239T690 283T697 343Q697 400 678 446T625 526T540 576T428 594Q358 594 295 566T184 490T108 380T80 247Q80 189 101 139T158 52T246 -6T357 -27Q405 -27 450 -13T536 27L560 -7Q513 -37 460 -53T352 -70Q284 -70 226 -46T125 20T59 120T35 244Q35 323 68 394T155 520T282 606T432 638ZM393 373Q370 373 352 364T321 342T301 310T295 273Q295 244 312 226T358 209Q386 209 403 222T432 250L451 345Q444 355 430 364T393 373Z" horiz-adv-x="783" unicode="@"/>
			<glyph d="M228 667H482L728 0H499L475 78H235L211 0H-18ZM355 469L289 254H421Z" horiz-adv-x="710" unicode="A"/>
			<glyph d="M54 667H459Q511 667 548 651T610 611T645 556T657 497Q657 434 624 394T543 344Q570 340 593 326T633 290T660 241T670 181Q670 146 658 113T621 55T560 15T473 0H54ZM256 499V421H412Q428 421 440 432T452 461Q452 478 440 488T412 499ZM256 253V168H418Q440 168 452 179T465 210Q465 228 452 240T418 253Z" horiz-adv-x="697" unicode="B"/>
			<glyph d="M385 678Q451 678 500 660T587 615T648 553T688 484L514 403Q508 422 495 440T466 471T428 492T385 500Q349 500 319 487T267 451T234 398T223 333Q223 298 234 267T267 214T319 179T385 166Q407 166 428 174T466 195T495 225T514 263L688 183Q673 150 648 115T587 52T501 6T385 -12Q307 -12 239 13T123 83T46 192T18 333Q18 410 46 473T123 582T239 653T385 678Z" horiz-adv-x="697" unicode="C"/>
			<glyph d="M54 667H352Q431 667 498 645T614 580T690 476T718 334Q718 254 690 192T614 87T498 22T353 0H54ZM256 491V176H352Q390 176 420 189T470 223T502 273T513 334Q513 368 503 396T473 446T423 479T353 491Z" horiz-adv-x="736" unicode="D"/>
			<glyph d="M54 667H560V491H256V425H553V249H256V176H560V0H54Z" horiz-adv-x="596" unicode="E"/>
			<glyph d="M54 667H560V491H256V425H553V249H256V0H54Z" horiz-adv-x="592" unicode="F"/>
			<glyph d="M385 678Q445 678 492 663T575 623T636 567T678 504L508 417Q501 432 489 447T462 474T426 493T385 500Q349 500 319 487T267 451T234 398T223 333Q223 298 234 267T267 214T319 179T385 166Q414 166 443 175T489 196V220H365V396H690V123Q634 61 559 24T385 -12Q309 -12 242 12T126 80T47 189T18 333Q18 413 47 477T126 585T242 654T385 678Z" horiz-adv-x="726" unicode="G"/>
			<glyph d="M54 667H256V431H495V667H697V0H495V255H256V0H54Z" horiz-adv-x="751" unicode="H"/>
			<glyph d="M54 667H256V0H54Z" horiz-adv-x="310" unicode="I"/>
			<glyph d="M242 667H444V238Q444 174 425 127T373 49T291 3T186 -12Q137 -12 88 0T0 42L82 196Q99 185 120 175T168 166Q201 166 221 186T242 241Z" horiz-adv-x="498" unicode="J"/>
			<glyph d="M54 667H256V417L431 667H678L426 357L689 0H443L293 235L256 185V0H54Z" horiz-adv-x="671" unicode="K"/>
			<glyph d="M54 667H256V176H509V0H54Z" horiz-adv-x="536" unicode="L"/>
			<glyph d="M54 667H333L450 347L567 667H846V0H644V401L495 0H405L256 401V0H54Z" horiz-adv-x="900" unicode="M"/>
			<glyph d="M54 667H262L494 351V667H696V0H502L256 338V0H54Z" horiz-adv-x="750" unicode="N"/>
			<glyph d="M383 678Q460 678 527 653T643 582T720 473T748 333Q748 256 720 192T643 83T527 13T383 -12Q306 -12 239 13T123 83T46 192T18 333Q18 410 46 473T123 582T239 653T383 678ZM383 500Q347 500 317 487T267 451T234 398T223 333Q223 298 234 267T267 214T317 179T383 166Q419 166 448 179T499 214T531 267T543 333Q543 368 531 398T499 451T448 487T383 500Z" horiz-adv-x="766" unicode="O"/>
			<glyph d="M54 667H410Q468 667 513 649T588 599T634 526T650 438Q650 391 634 350T588 277T513 228T410 210H256V0H54ZM256 491V386H384Q410 386 427 399T445 438Q445 465 427 478T384 491Z" horiz-adv-x="662" unicode="P"/>
			<glyph d="M383 678Q460 678 527 653T643 582T720 473T748 333Q748 265 726 208T665 107L701 62L561 -50L514 8Q451 -12 383 -12Q306 -12 239 13T123 83T46 192T18 333Q18 410 46 473T123 582T239 653T383 678ZM383 500Q347 500 317 487T267 451T234 398T223 333Q223 298 234 267T267 214T317 179T383 166H389L343 224L483 336L533 272Q543 299 543 333Q543 368 531 398T499 451T448 487T383 500Z" horiz-adv-x="766" unicode="Q"/>
			<glyph d="M54 667H410Q468 667 513 649T588 599T634 526T650 438Q650 395 638 361T609 303T571 262T530 236L651 0H421L329 210H256V0H54ZM256 491V386H379Q405 386 425 398T445 439Q445 466 425 478T379 491Z" horiz-adv-x="678" unicode="R"/>
			<glyph d="M302 677Q384 677 456 654T585 584L477 441Q433 474 381 490T281 507Q251 507 240 498T230 477Q230 461 257 453T326 437T415 418T505 383T573 321T601 220Q601 165 581 122T524 49T433 3T313 -12Q206 -12 131 17T3 94L108 244Q146 208 200 183T323 158Q352 158 374 166T397 194Q397 210 369 217T300 232T211 250T121 285T52 349T25 456Q25 498 42 538T95 609T181 658T302 677Z" horiz-adv-x="613" unicode="S"/>
			<glyph d="M18 667H577V491H399V0H197V491H18Z" horiz-adv-x="595" unicode="T"/>
			<glyph d="M54 667H259V281Q259 233 290 199T384 166Q446 166 477 199T508 281V667H713V275Q713 213 693 160T632 69T530 9T384 -12Q300 -12 237 9T134 69T74 159T54 274Z" horiz-adv-x="767" unicode="U"/>
			<glyph d="M-18 667H211L355 218L499 667H728L482 0H228Z" horiz-adv-x="710" unicode="V"/>
			<glyph d="M-12 667H214L300 259L401 667H553L654 259L739 667H966L775 0H563L477 378L391 0H179Z" horiz-adv-x="954" unicode="W"/>
			<glyph d="M-3 667H234L342 477L448 667H687L479 343L702 0H464L342 204L220 0H-18L205 342Z" horiz-adv-x="684" unicode="X"/>
			<glyph d="M-18 667H209L333 442L455 667H682L434 265V0H232V265Z" horiz-adv-x="664" unicode="Y"/>
			<glyph d="M36 667H557V508L302 176H564V0H36V160L290 491H36Z" horiz-adv-x="600" unicode="Z"/>
			<glyph d="M54 678H299V564H179V-76H299V-190H54Z" horiz-adv-x="317" unicode="["/>
			<glyph d="M0 687H125L362 -20H237Z" horiz-adv-x="362" unicode="\"/>
			<glyph d="M18 678H263V-190H18V-76H138V564H18Z" horiz-adv-x="317" unicode="]"/>
			<glyph d="M162 667H291L431 333H305L225 548L146 333H19Z" horiz-adv-x="450" unicode="^"/>
			<glyph d="M-3 -40H567V-154H-3Z" horiz-adv-x="564" unicode="_"/>
			<glyph d="M0 700H155L275 556H155Z" horiz-adv-x="275" unicode="`"/>
			<glyph d="M272 495Q317 495 359 486T435 454T489 391T509 292V0H329V46Q309 20 268 4T183 -12Q156 -12 126 -2T73 26T33 76T17 147Q17 192 33 221T73 269T126 294T183 301Q231 301 270 287T329 248V298Q329 324 306 341T239 358Q205 358 169 345T105 311L44 422Q93 461 155 478T272 495ZM258 184Q235 184 215 175T195 144Q195 133 200 125T215 113T235 107T258 105Q279 105 299 111T329 131V158Q320 171 299 177T258 184Z" horiz-adv-x="559" unicode="a"/>
			<glyph d="M305 336Q287 336 265 327T230 303V179Q243 163 265 155T305 147Q342 147 368 171T395 242Q395 287 368 311T305 336ZM50 667H230V432Q259 467 294 481T366 495Q411 495 449 478T517 428T562 349T579 242Q579 180 562 132T516 53T448 4T366 -12Q329 -12 295 2T230 51V0H50Z" horiz-adv-x="596" unicode="b"/>
			<glyph d="M288 495Q329 495 362 486T421 465T465 435T493 404L377 295Q366 312 345 324T296 336Q258 336 229 312T201 242Q201 195 229 171T296 147Q325 147 345 159T377 189L493 79Q483 64 465 48T421 18T362 -3T288 -12Q231 -12 181 6T95 57T38 137T17 242Q17 299 38 346T95 426T181 477T288 495Z" horiz-adv-x="502" unicode="c"/>
			<glyph d="M366 667H546V0H366V51Q335 16 301 2T230 -12Q186 -12 147 4T80 53T34 132T17 242Q17 302 33 349T79 428T146 478T230 495Q267 495 302 481T366 432ZM291 336Q254 336 227 311T201 242Q201 197 227 172T291 147Q309 147 331 155T366 180V304Q353 320 331 328T291 336Z" horiz-adv-x="596" unicode="d"/>
			<glyph d="M280 495Q333 495 379 476T458 423T511 337T531 223V186H203Q211 163 236 144T307 125Q317 125 332 127T364 134T394 145T418 159L492 48Q474 33 449 21T398 2T342 -8T286 -12Q229 -12 180 5T95 55T38 135T17 242Q17 294 36 340T90 421T173 475T280 495ZM280 358Q259 358 245 352T222 337T208 318T201 300H360Q358 308 353 318T340 337T316 352T280 358Z" horiz-adv-x="543" unicode="e"/>
			<glyph d="M271 677Q313 677 354 664T422 625L357 525Q341 544 313 544Q296 544 281 533T267 505V483H365V327H267V0H87V327H7V483H87V505Q87 543 100 574T138 629T197 664T271 677Z" horiz-adv-x="371" unicode="f"/>
			<glyph d="M229 495Q267 495 301 481T365 432V483H545V52Q545 0 531 -39T496 -105T444 -150T382 -178T316 -192T253 -196Q190 -196 135 -179T33 -124L109 4Q137 -24 175 -36T253 -49Q269 -49 288 -45T325 -30T353 0T365 52V78Q334 43 300 28T229 13Q185 13 146 27T79 71T34 146T17 254Q17 314 33 359T78 435T145 480T229 495ZM291 336Q254 336 227 317T201 254Q201 210 227 191T291 172Q308 172 330 180T365 203V305Q352 320 330 328T291 336Z" horiz-adv-x="595" unicode="g"/>
			<glyph d="M51 667H231V428Q252 452 292 473T397 495Q439 495 469 483T519 451T548 403T558 345V0H378V269Q378 307 359 321T308 336Q277 336 259 323T231 298V0H51Z" horiz-adv-x="608" unicode="h"/>
			<glyph d="M140 720Q161 720 179 712T211 690T233 658T241 619Q241 598 233 579T211 547T179 526T140 518Q119 518 100 526T68 547T47 579T39 619Q39 640 47 658T68 690T100 712T140 720ZM50 483H230V0H50Z" horiz-adv-x="280" unicode="i"/>
			<glyph d="M140 720Q161 720 179 712T211 690T233 658T241 619Q241 598 233 579T211 547T179 526T140 518Q119 518 100 526T68 547T47 579T39 619Q39 640 47 658T68 690T100 712T140 720ZM50 483H230V21Q230 -26 218 -65T182 -134T119 -179T29 -196Q2 -196 -17 -194T-51 -188T-78 -178T-106 -163L-63 -30Q-48 -41 -36 -45T-3 -49Q22 -49 36 -31T50 21Z" horiz-adv-x="280" unicode="j"/>
			<glyph d="M50 667H230V311L341 483H558L392 263L569 0H348L265 156L230 109V0H50Z" horiz-adv-x="557" unicode="k"/>
			<glyph d="M50 667H230V0H50Z" horiz-adv-x="280" unicode="l"/>
			<glyph d="M390 495Q441 495 476 475T529 410Q539 426 556 441T594 468T642 487T698 495Q765 495 806 460T847 350V0H667V282Q667 304 654 320T612 336Q582 336 564 322T538 298V0H358V282Q358 304 346 320T303 336Q274 336 256 322T230 298V0H50V483H230V428Q238 438 253 450T288 472T335 488T390 495Z" horiz-adv-x="897" unicode="m"/>
			<glyph d="M396 495Q438 495 468 483T518 450T547 402T557 343V0H377V267Q377 305 358 320T307 336Q276 336 258 323T230 298V0H50V483H230V428Q251 452 291 473T396 495Z" horiz-adv-x="607" unicode="n"/>
			<glyph d="M288 495Q352 495 403 474T488 419T541 338T560 242Q560 191 541 145T488 64T403 8T288 -12Q224 -12 173 8T88 64T35 145T17 242Q17 293 35 338T88 419T173 474T288 495ZM288 336Q246 336 224 309T202 242Q202 201 224 174T288 147Q330 147 352 174T375 242Q375 282 352 309T288 336Z" unicode="o"/>
			<glyph d="M366 495Q411 495 449 478T516 430T561 351T578 242Q578 180 561 132T516 53T449 4T366 -12Q328 -12 294 2T230 51V-184H50V483H230V432Q259 467 293 481T366 495ZM304 336Q287 336 265 327T230 303V180Q242 165 264 156T304 147Q340 147 367 171T394 242Q394 287 367 311T304 336Z" horiz-adv-x="595" unicode="p"/>
			<glyph d="M291 336Q255 336 228 311T201 242Q201 196 228 171T291 147Q308 147 330 156T365 180V303Q352 319 330 327T291 336ZM229 495Q267 495 301 481T365 432V483H545V-184H365V51Q335 16 301 2T229 -12Q184 -12 145 4T77 53T33 132T17 242Q17 304 33 351T77 430T145 478T229 495Z" horiz-adv-x="595" unicode="q"/>
			<glyph d="M378 497V325Q363 330 337 330Q308 330 276 322T230 296V0H50V483H230V430Q241 443 258 455T294 476T335 491T378 497Z" horiz-adv-x="390" unicode="r"/>
			<glyph d="M245 495Q306 495 359 478T454 433L388 316Q365 335 326 350T246 366Q226 366 213 359T201 345Q201 335 221 331T272 322T338 310T404 284T454 235T475 154Q475 118 459 87T414 35T342 0T246 -12Q213 -12 179 -6T113 9T55 32T9 62L81 183Q95 172 116 161T162 141T210 127T255 122Q283 122 293 128T303 143Q303 154 282 158T232 167T166 179T100 203T49 250T29 330Q29 363 43 392T84 445T152 481T245 495Z" horiz-adv-x="490" unicode="s"/>
			<glyph d="M87 615H267V483H365V327H267V192Q267 173 278 160T307 147Q319 147 329 150T343 156L375 20Q361 7 330 -2T253 -12Q172 -12 129 26T87 140V327H7V483H87Z" horiz-adv-x="382" unicode="t"/>
			<glyph d="M50 483H230V215Q230 178 248 162T300 147Q330 147 347 159T376 185V483H556V0H376V54Q365 42 350 30T314 9T268 -6T210 -12Q168 -12 137 0T87 32T59 79T50 138Z" horiz-adv-x="606" unicode="u"/>
			<glyph d="M-15 483H175L267 207L360 483H550L363 0H172Z" horiz-adv-x="535" unicode="v"/>
			<glyph d="M-12 483H173L237 217L322 483H483L567 217L631 483H817L677 0H481L402 270L324 0H128Z" horiz-adv-x="805" unicode="w"/>
			<glyph d="M-2 483H195L260 370L325 483H522L374 248L533 0H336L261 128L184 0H-12L146 248Z" horiz-adv-x="521" unicode="x"/>
			<glyph d="M-15 483H175L267 207L360 483H550L340 -60Q324 -102 301 -128T249 -169T187 -189T115 -196Q110 -196 101 -195T81 -194T61 -191T45 -188L70 -28Q78 -33 88 -35T108 -37Q162 -37 171 -18L175 -8Z" horiz-adv-x="535" unicode="y"/>
			<glyph d="M33 483H449V357L275 156H453V0H33V132L203 327H33Z" horiz-adv-x="486" unicode="z"/>
			<glyph d="M239 678H299V564H239Q214 564 196 545T179 494V335Q179 303 168 279T133 244Q158 233 168 209T179 153V-5Q179 -37 196 -56T239 -76H299V-190H239Q203 -190 169 -177T110 -141T69 -84T54 -6V133Q54 161 41 179T2 197V291Q28 291 41 309T54 355V493Q54 536 69 570T110 629T169 665T239 678Z" horiz-adv-x="316" unicode="{"/>
			<glyph d="M54 687H168V-20H54Z" horiz-adv-x="222" unicode="|"/>
			<glyph d="M17 678H77Q113 678 146 665T205 629T246 570T262 493V355Q262 327 275 309T314 291V197Q288 197 275 179T262 133V-6Q262 -50 246 -84T205 -141T146 -177T77 -190H17V-76H77Q102 -76 119 -56T137 -5V153Q137 185 147 209T183 244Q158 255 147 279T137 335V494Q137 527 119 545T77 564H17Z" horiz-adv-x="316" unicode="}"/>
			<glyph d="M185 667Q219 667 240 655T274 625T294 585T306 546T317 516T334 504Q346 504 353 520T365 561T372 614T377 667L493 653Q490 609 482 564T457 483T410 424T334 401Q300 401 279 413T245 443T225 482T212 521T201 551T185 563Q173 563 165 546T153 505T146 452T143 401L25 414Q28 458 36 503T61 584T108 644T185 667Z" horiz-adv-x="518" unicode="~"/>
			<glyph d="" horiz-adv-x="255" unicode=" "/>
			<glyph d="M58 235H220L247 -184H33ZM139 495Q161 495 180 486T213 463T236 429T245 389Q245 367 236 347T213 313T180 290T139 282Q117 282 98 290T64 313T41 347T33 389Q33 410 41 429T64 463T98 486T139 495Z" horiz-adv-x="280" unicode="¡"/>
			<glyph d="M229 565H355V488Q409 477 443 452T493 404L377 295Q366 312 345 324T296 336Q258 336 229 312T201 242Q201 195 229 171T296 147Q325 147 345 159T377 189L493 79Q477 56 443 31T355 -5V-100H229V-7Q183 1 144 22T77 75T33 150T17 242Q17 291 33 333T77 407T144 460T229 490Z" horiz-adv-x="502" unicode="¢"/>
			<glyph d="M303 677Q402 677 466 646T566 547L406 455Q395 487 374 501T329 515Q299 515 281 497T263 456Q263 434 270 416T285 379H419V270H310Q308 247 294 222T259 185Q270 189 282 190T302 191Q322 191 336 187T362 178T387 170T416 166Q446 166 464 175T492 199L569 40Q549 18 510 3T409 -12Q377 -12 351 -5T303 9T262 23T226 30Q200 30 170 20T112 -7L46 125Q61 133 76 143T103 165T123 191T131 221Q131 234 128 246T121 270H26V379H64Q54 398 48 418T42 460Q42 514 66 554T129 622T214 663T303 677Z" horiz-adv-x="581" unicode="£"/>
			<glyph d="M125 638L200 562Q227 573 258 579T324 586Q359 586 390 579T448 562L524 638L628 534L560 465Q577 436 586 402T596 333Q596 260 559 200L628 134L524 30L447 103Q421 92 390 85T324 79Q288 79 257 85T199 104L125 30L20 134L88 202Q53 261 53 333Q53 406 89 465L20 534ZM324 427Q279 427 255 400T232 333Q232 292 255 265T324 238Q369 238 393 265T417 333Q417 373 393 400T324 427Z" horiz-adv-x="648" unicode="¤"/>
			<glyph d="M-18 667H209L333 442L455 667H682L499 370H641V265H434V212H641V107H434V0H232V107H25V212H232V265H25V370H166Z" horiz-adv-x="664" unicode="¥"/>
			<glyph d="M54 296H168V-20H54ZM54 687H168V371H54Z" horiz-adv-x="222" unicode="¦"/>
			<glyph d="M244 677Q325 677 374 657T453 612L388 507Q362 527 325 541T253 555Q201 555 201 528Q201 514 221 507T272 494T338 481T404 456T454 411T475 336Q475 297 455 262T400 208Q431 193 453 164T475 85Q475 46 457 15T409 -37T336 -70T246 -81Q168 -81 109 -57T12 -1L81 111Q94 99 113 86T154 64T199 47T246 41Q272 41 287 47T303 68Q303 85 282 93T232 107T166 122T100 148T49 194T29 273Q29 297 37 317T58 352T84 377T109 394Q67 414 48 448T29 524Q29 557 45 585T91 634T159 665T244 677ZM244 351Q218 346 209 333T201 303Q201 276 221 264T264 249Q284 257 291 269T298 298Q298 320 283 333T244 351Z" horiz-adv-x="500" unicode="§"/>
			<glyph d="M267 707Q305 707 331 681T357 618Q357 580 331 554T267 529Q230 529 204 554T178 618Q178 656 204 681T267 707ZM51 707Q89 707 114 681T140 618Q140 580 114 554T51 529Q13 529 -12 554T-38 618Q-38 656 -12 681T51 707Z" horiz-adv-x="318" unicode="¨"/>
			<glyph d="M389 679Q461 679 523 652T633 578T707 468T734 334Q734 263 707 200T633 90T523 16T389 -11Q318 -11 255 16T145 90T71 200T44 334Q44 406 71 468T145 578T255 652T389 679ZM389 637Q327 637 271 613T175 548T110 452T86 334Q86 272 110 216T175 120T271 55T389 31Q452 31 507 55T603 120T668 216T692 334Q692 397 668 452T603 548T507 613T389 637ZM397 543Q444 543 482 524T547 475L510 438Q490 464 461 480T397 496Q365 496 337 484T288 450T256 399T244 335Q244 300 256 270T288 218T337 184T397 172Q433 172 462 188T511 231L549 195Q522 163 483 144T397 125Q354 125 316 140T250 184T205 250T189 335Q189 381 205 419T250 484T316 527T397 543Z" horiz-adv-x="778" unicode="©"/>
			<glyph d="M191 648Q221 648 250 642T301 620T338 578T352 509V326H225V355Q217 344 193 331T129 318Q110 318 90 324T55 343T30 375T20 421Q20 448 30 467T55 498T90 515T129 521Q170 521 193 509T225 488V512Q225 530 211 542T168 555Q146 555 123 545T82 519L38 601Q71 626 113 637T191 648ZM183 447Q170 447 157 442T145 421Q145 404 157 399T183 395Q195 395 207 400T225 414V429Q220 437 207 442T183 447Z" horiz-adv-x="392" unicode="ª"/>
			<glyph d="M425 420H585L425 243L585 63H425L265 243ZM190 420H350L190 243L350 63H190L30 243Z" horiz-adv-x="615" unicode="«"/>
			<glyph d="M29 478H481V190H373V373H29Z" horiz-adv-x="527" unicode="¬"/>
			<glyph d="M30 317H270V167H30Z" horiz-adv-x="300" unicode="­"/>
			<glyph d="M247 677Q291 677 330 660T397 615T442 548T459 465Q459 421 442 382T397 315T330 269T247 253Q203 253 164 269T97 315T51 382T35 465Q35 509 51 548T97 615T164 660T247 677ZM247 642Q210 642 178 628T122 591T84 534T70 465Q70 429 84 396T122 340T178 302T247 288Q284 288 316 302T372 340T410 396T424 465Q424 502 410 534T372 591T316 628T247 642ZM165 586H264Q295 586 320 566T346 512Q346 492 338 478T320 455T299 443T284 440L349 343H304L241 439H202V343H165ZM202 555V471H264Q280 471 294 482T308 512Q308 532 294 543T264 555Z" horiz-adv-x="494" unicode="®"/>
			<glyph d="M0 648H363V551H0Z" horiz-adv-x="363" unicode="¯"/>
			<glyph d="M165 677Q196 677 223 665T270 633T302 586T314 528Q314 497 302 470T270 423T223 391T165 380Q134 380 107 391T60 423T28 470T17 528Q17 559 28 586T60 633T107 665T165 677ZM165 587Q141 587 124 569T108 528Q108 504 124 487T165 471Q189 471 206 487T224 528Q224 552 206 569T165 587Z" horiz-adv-x="331" unicode="°"/>
			<glyph d="M197 618H313V433H481V328H313V135H197V328H29V433H197ZM29 105H481V0H29Z" horiz-adv-x="510" unicode="±"/>
			<glyph d="M197 827Q281 827 328 791T376 696Q376 677 369 659T346 621T302 578T232 525H380V421H42V516Q114 566 154 595T215 642T239 667T244 685Q244 702 231 712T194 723Q178 723 162 718T132 707T106 691T88 675L22 759Q59 797 107 812T197 827Z" horiz-adv-x="407" unicode="²"/>
			<glyph d="M203 827Q292 827 334 795T376 716Q376 685 352 659T287 627Q304 625 321 618T352 600T374 571T383 534Q383 507 370 485T333 447T275 423T202 414Q140 414 94 431T23 476L85 563Q111 538 143 528T197 518Q226 518 239 525T252 544Q252 564 232 568T179 572Q165 572 150 572Q135 572 130 571V673Q137 672 152 672Q167 672 178 672Q216 672 230 677T245 698Q245 712 229 717T188 723Q162 723 135 713T86 684L28 761Q56 790 98 808T203 827Z" horiz-adv-x="407" unicode="³"/>
			<glyph d="M120 700H275L120 556H0Z" horiz-adv-x="275" unicode="´"/>
			<glyph d="M50 483H230V215Q230 178 248 162T300 147Q330 147 347 159T376 185V483H556V178Q556 162 566 154T590 147Q600 147 609 150L620 -2Q605 -7 583 -9T542 -12Q482 -12 443 9T386 75Q370 37 340 12T269 -12Q257 -12 246 -9T230 -4V-184H50Z" horiz-adv-x="620" unicode="µ"/>
			<glyph d="M199 667H427V-100H347V587H279V-100H199V323Q163 323 132 336T77 373T40 428T27 495Q27 531 40 562T77 616T132 653T199 667Z" horiz-adv-x="449" unicode="¶"/>
			<glyph d="M141 351Q163 351 182 342T215 319T238 285T247 244Q247 223 238 203T215 169T182 146T141 138Q119 138 100 146T66 169T43 203T35 244Q35 266 43 285T66 319T100 342T141 351Z" horiz-adv-x="283" unicode="·"/>
			<glyph d="M80 11H160L135 -47Q150 -38 169 -38Q196 -38 216 -58T237 -111Q237 -154 202 -177T119 -200Q79 -200 48 -190T0 -166L31 -102Q51 -116 72 -124T114 -132Q130 -132 143 -126T156 -108Q156 -91 135 -91Q119 -91 109 -103L50 -69Z" horiz-adv-x="237" unicode="¸"/>
			<glyph d="M163 821H276V421H144V654L74 585L0 663Z" horiz-adv-x="336" unicode="¹"/>
			<glyph d="M202 648Q245 648 279 634T337 598T372 545T385 483Q385 450 372 420T337 368T279 331T202 318Q159 318 125 331T68 368T32 420T20 483Q20 516 32 545T68 598T125 634T202 648ZM202 546Q178 546 164 531T151 483Q151 449 164 433T202 418Q227 418 241 433T255 483Q255 517 241 531T202 546Z" horiz-adv-x="405" unicode="º"/>
			<glyph d="M30 420H190L350 243L190 63H30L190 243ZM265 420H425L585 243L425 63H265L425 243Z" horiz-adv-x="615" unicode="»"/>
			<glyph d="M163 667H276V267H144V500L74 431L0 509ZM652 400H837V173H884V71H837V0H706V71H509V158ZM706 291L638 173H706ZM594 667H692L265 0H168Z" horiz-adv-x="897" unicode="¼"/>
			<glyph d="M163 667H276V267H144V500L74 431L0 509ZM717 406Q801 406 848 370T896 275Q896 256 889 238T866 200T822 157T752 104H900V0H562V95Q634 145 674 174T735 221T759 246T764 264Q764 281 751 291T714 302Q698 302 682 297T652 286T626 270T608 254L542 338Q579 376 627 391T717 406ZM594 667H692L265 0H168Z" horiz-adv-x="927" unicode="½"/>
			<glyph d="M719 400H904V173H951V71H904V0H773V71H576V158ZM773 291L705 173H773ZM661 667H759L332 0H235ZM203 673Q292 673 334 641T376 562Q376 531 352 505T287 473Q304 471 321 464T352 446T374 417T383 380Q383 353 370 331T333 293T275 269T202 260Q140 260 94 277T23 322L85 409Q111 384 143 374T197 364Q226 364 239 371T252 390Q252 410 232 414T179 418Q165 418 150 418Q135 418 130 417V519Q137 518 152 518Q167 518 178 518Q216 518 230 523T245 544Q245 558 229 563T188 569Q162 569 135 559T86 530L28 607Q56 636 98 654T203 673Z" horiz-adv-x="964" unicode="¾"/>
			<glyph d="M297 259Q309 242 316 218T324 164Q324 123 306 97T268 55T229 28T212 5Q212 -4 220 -10T251 -16Q271 -16 295 -5T338 26L450 -103Q406 -150 346 -172T228 -194Q126 -194 67 -151T8 -33Q8 2 18 27T45 71T79 104T113 130T139 156T150 186Q150 199 146 208T139 223ZM222 495Q244 495 263 486T297 463T320 429T329 388Q329 366 320 346T297 312T263 289T222 281Q200 281 180 289T146 312T123 346T115 388Q115 410 123 429T146 463T180 486T222 495Z" horiz-adv-x="401" unicode="¿"/>
			<glyph d="M228 667H482L728 0H499L475 78H235L211 0H-18ZM355 469L289 254H421ZM147 867H302L422 723H302Z" horiz-adv-x="710" unicode="À"/>
			<glyph d="M228 667H482L728 0H499L475 78H235L211 0H-18ZM355 469L289 254H421ZM405 867H560L405 723H285Z" horiz-adv-x="710" unicode="Á"/>
			<glyph d="M277 867H433L524 723H419L355 796L294 723H189ZM228 667H482L728 0H499L475 78H235L211 0H-18ZM355 469L289 254H421Z" horiz-adv-x="710" unicode="Â"/>
			<glyph d="M228 667H482L728 0H499L475 78H235L211 0H-18ZM355 469L289 254H421ZM303 861Q326 861 342 854T371 839T393 824T413 818Q423 818 430 827T437 855H526Q526 786 496 753T408 721Q385 721 368 727T340 742T318 757T298 764Q288 764 281 755T274 727H185Q185 796 215 828T303 861Z" horiz-adv-x="710" unicode="Ã"/>
			<glyph d="M463 874Q501 874 527 848T553 785Q553 747 527 721T463 696Q426 696 400 721T374 785Q374 823 400 848T463 874ZM247 874Q285 874 310 848T336 785Q336 747 310 721T247 696Q209 696 183 721T158 785Q158 823 183 848T247 874ZM228 667H482L728 0H499L475 78H235L211 0H-18ZM355 469L289 254H421Z" horiz-adv-x="710" unicode="Ä"/>
			<glyph d="M228 667H482L728 0H499L475 78H235L211 0H-18ZM355 469L289 254H421ZM356 910Q379 910 399 901T434 877T457 841T466 798Q466 775 457 754T434 719T399 695T356 686Q333 686 312 695T277 719T253 754T244 798Q244 821 253 841T277 877T312 901T356 910ZM356 833Q342 833 331 822T321 798Q321 784 331 773T356 763Q370 763 380 773T390 798Q390 812 380 822T356 833Z" horiz-adv-x="710" unicode="Å"/>
			<glyph d="M370 667H959V491H655V425H952V249H655V176H959V0H453V78H246L205 0H-25ZM453 469L340 254H453Z" horiz-adv-x="989" unicode="Æ"/>
			<glyph d="M385 678Q451 678 500 660T587 615T648 553T688 484L514 403Q508 422 495 440T466 471T428 492T385 500Q349 500 319 487T267 451T234 398T223 333Q223 298 234 267T267 214T319 179T385 166Q407 166 428 174T466 195T495 225T514 263L688 183Q674 151 651 118T594 57T514 11T408 -11L395 -43Q410 -34 429 -34Q456 -34 476 -54T497 -107Q497 -150 462 -173T379 -196Q339 -196 308 -186T260 -162L291 -98Q311 -112 332 -120T374 -128Q390 -128 403 -122T416 -104Q416 -87 395 -87Q379 -87 369 -99L310 -65L331 -8Q263 0 205 28T106 100T41 204T18 333Q18 410 46 473T123 582T239 653T385 678Z" horiz-adv-x="697" unicode="Ç"/>
			<glyph d="M54 667H560V491H256V425H553V249H256V176H560V0H54ZM96 867H251L371 723H251Z" horiz-adv-x="596" unicode="È"/>
			<glyph d="M359 867H514L359 723H239ZM54 667H560V491H256V425H553V249H256V176H560V0H54Z" horiz-adv-x="596" unicode="É"/>
			<glyph d="M228 867H384L475 723H370L306 796L245 723H140ZM54 667H560V491H256V425H553V249H256V176H560V0H54Z" horiz-adv-x="596" unicode="Ê"/>
			<glyph d="M418 874Q456 874 482 848T508 785Q508 747 482 721T418 696Q381 696 355 721T329 785Q329 823 355 848T418 874ZM202 874Q240 874 265 848T291 785Q291 747 265 721T202 696Q164 696 138 721T113 785Q113 823 138 848T202 874ZM54 667H560V491H256V425H553V249H256V176H560V0H54Z" horiz-adv-x="596" unicode="Ë"/>
			<glyph d="M54 667H256V0H54ZM-49 867H106L226 723H106Z" horiz-adv-x="310" unicode="Ì"/>
			<glyph d="M54 667H256V0H54ZM207 867H362L207 723H87Z" horiz-adv-x="310" unicode="Í"/>
			<glyph d="M75 867H231L322 723H217L153 796L92 723H-13ZM54 667H256V0H54Z" horiz-adv-x="310" unicode="Î"/>
			<glyph d="M264 874Q302 874 328 848T354 785Q354 747 328 721T264 696Q227 696 201 721T175 785Q175 823 201 848T264 874ZM48 874Q86 874 111 848T137 785Q137 747 111 721T48 696Q10 696 -15 721T-41 785Q-41 823 -15 848T48 874ZM54 667H256V0H54Z" horiz-adv-x="310" unicode="Ï"/>
			<glyph d="M75 667H373Q452 667 519 645T635 580T711 476T739 334Q739 254 711 192T635 87T519 22T374 0H75V254H7V413H75ZM277 491V413H406V254H277V176H373Q411 176 441 189T491 223T523 273T534 334Q534 368 524 396T494 446T444 479T374 491Z" horiz-adv-x="757" unicode="Ð"/>
			<glyph d="M321 861Q344 861 360 854T389 839T411 824T431 818Q441 818 448 827T455 855H544Q544 786 514 753T426 721Q403 721 386 727T358 742T336 757T316 764Q306 764 299 755T292 727H203Q203 796 233 828T321 861ZM54 667H262L494 351V667H696V0H502L256 338V0H54Z" horiz-adv-x="750" unicode="Ñ"/>
			<glyph d="M177 867H332L452 723H332ZM383 678Q460 678 527 653T643 582T720 473T748 333Q748 256 720 192T643 83T527 13T383 -12Q306 -12 239 13T123 83T46 192T18 333Q18 410 46 473T123 582T239 653T383 678ZM383 500Q347 500 317 487T267 451T234 398T223 333Q223 298 234 267T267 214T317 179T383 166Q419 166 448 179T499 214T531 267T543 333Q543 368 531 398T499 451T448 487T383 500Z" horiz-adv-x="766" unicode="Ò"/>
			<glyph d="M432 867H587L432 723H312ZM383 678Q460 678 527 653T643 582T720 473T748 333Q748 256 720 192T643 83T527 13T383 -12Q306 -12 239 13T123 83T46 192T18 333Q18 410 46 473T123 582T239 653T383 678ZM383 500Q347 500 317 487T267 451T234 398T223 333Q223 298 234 267T267 214T317 179T383 166Q419 166 448 179T499 214T531 267T543 333Q543 368 531 398T499 451T448 487T383 500Z" horiz-adv-x="766" unicode="Ó"/>
			<glyph d="M307 867H463L554 723H449L385 796L324 723H219ZM383 678Q460 678 527 653T643 582T720 473T748 333Q748 256 720 192T643 83T527 13T383 -12Q306 -12 239 13T123 83T46 192T18 333Q18 410 46 473T123 582T239 653T383 678ZM383 500Q347 500 317 487T267 451T234 398T223 333Q223 298 234 267T267 214T317 179T383 166Q419 166 448 179T499 214T531 267T543 333Q543 368 531 398T499 451T448 487T383 500Z" horiz-adv-x="766" unicode="Ô"/>
			<glyph d="M383 678Q460 678 527 653T643 582T720 473T748 333Q748 256 720 192T643 83T527 13T383 -12Q306 -12 239 13T123 83T46 192T18 333Q18 410 46 473T123 582T239 653T383 678ZM383 500Q347 500 317 487T267 451T234 398T223 333Q223 298 234 267T267 214T317 179T383 166Q419 166 448 179T499 214T531 267T543 333Q543 368 531 398T499 451T448 487T383 500ZM331 861Q354 861 370 854T399 839T421 824T441 818Q451 818 458 827T465 855H554Q554 786 524 753T436 721Q413 721 396 727T368 742T346 757T326 764Q316 764 309 755T302 727H213Q213 796 243 828T331 861Z" horiz-adv-x="766" unicode="Õ"/>
			<glyph d="M494 874Q532 874 558 848T584 785Q584 747 558 721T494 696Q457 696 431 721T405 785Q405 823 431 848T494 874ZM278 874Q316 874 341 848T367 785Q367 747 341 721T278 696Q240 696 214 721T189 785Q189 823 214 848T278 874ZM383 678Q460 678 527 653T643 582T720 473T748 333Q748 256 720 192T643 83T527 13T383 -12Q306 -12 239 13T123 83T46 192T18 333Q18 410 46 473T123 582T239 653T383 678ZM383 500Q347 500 317 487T267 451T234 398T223 333Q223 298 234 267T267 214T317 179T383 166Q419 166 448 179T499 214T531 267T543 333Q543 368 531 398T499 451T448 487T383 500Z" horiz-adv-x="766" unicode="Ö"/>
			<glyph d="M122 542L255 408L389 542L463 468L330 334L463 200L389 126L255 260L122 126L47 200L181 334L47 468Z" horiz-adv-x="510" unicode="×"/>
			<glyph d="M383 678Q432 678 476 667T561 638L586 667H724L648 577Q695 532 721 470T748 333Q748 256 720 192T643 83T527 13T383 -12Q273 -12 187 37L156 0H18L105 102Q63 147 40 205T18 333Q18 410 46 473T123 582T239 653T383 678ZM518 425L311 182Q345 166 383 166Q419 166 448 179T499 214T531 267T543 333Q543 384 518 425ZM383 500Q347 500 317 487T267 451T234 398T223 333Q223 291 238 258L436 491Q412 500 383 500Z" horiz-adv-x="766" unicode="Ø"/>
			<glyph d="M54 667H259V281Q259 233 290 199T384 166Q446 166 477 199T508 281V667H713V275Q713 213 693 160T632 69T530 9T384 -12Q300 -12 237 9T134 69T74 159T54 274ZM177 867H332L452 723H332Z" horiz-adv-x="767" unicode="Ù"/>
			<glyph d="M435 867H590L435 723H315ZM54 667H259V281Q259 233 290 199T384 166Q446 166 477 199T508 281V667H713V275Q713 213 693 160T632 69T530 9T384 -12Q300 -12 237 9T134 69T74 159T54 274Z" horiz-adv-x="767" unicode="Ú"/>
			<glyph d="M312 867H468L559 723H454L390 796L329 723H224ZM54 667H259V281Q259 233 290 199T384 166Q446 166 477 199T508 281V667H713V275Q713 213 693 160T632 69T530 9T384 -12Q300 -12 237 9T134 69T74 159T54 274Z" horiz-adv-x="767" unicode="Û"/>
			<glyph d="M495 874Q533 874 559 848T585 785Q585 747 559 721T495 696Q458 696 432 721T406 785Q406 823 432 848T495 874ZM279 874Q317 874 342 848T368 785Q368 747 342 721T279 696Q241 696 215 721T190 785Q190 823 215 848T279 874ZM54 667H259V281Q259 233 290 199T384 166Q446 166 477 199T508 281V667H713V275Q713 213 693 160T632 69T530 9T384 -12Q300 -12 237 9T134 69T74 159T54 274Z" horiz-adv-x="767" unicode="Ü"/>
			<glyph d="M-18 667H209L333 442L455 667H682L434 265V0H232V265ZM383 867H538L383 723H263Z" horiz-adv-x="664" unicode="Ý"/>
			<glyph d="M54 667H256V571H410Q468 571 513 552T588 502T634 429T650 341Q650 294 634 252T588 180T513 132T410 114H256V0H54ZM256 395V290H379Q405 290 425 303T445 342Q445 368 425 381T379 395Z" horiz-adv-x="662" unicode="Þ"/>
			<glyph d="M318 677Q363 677 406 665T482 633T535 582T555 514Q555 471 537 443T498 398T459 367T442 340Q442 331 459 328T503 321T559 309T615 283T658 235T676 154Q676 116 659 85T614 32T545 0T460 -12Q392 -12 342 7T253 60L322 183Q332 171 347 159T382 140T421 127T460 122Q482 122 493 128T504 143Q504 154 486 159T443 169T387 183T331 208T287 255T270 332Q270 369 285 394T320 437T354 465T370 486Q370 503 353 510T314 518Q277 518 254 500T231 451V0H51V451Q51 496 68 537T120 609T203 658T318 677Z" horiz-adv-x="688" unicode="ß"/>
			<glyph d="M272 495Q317 495 359 486T435 454T489 391T509 292V0H329V46Q309 20 268 4T183 -12Q156 -12 126 -2T73 26T33 76T17 147Q17 192 33 221T73 269T126 294T183 301Q231 301 270 287T329 248V298Q329 324 306 341T239 358Q205 358 169 345T105 311L44 422Q93 461 155 478T272 495ZM258 184Q235 184 215 175T195 144Q195 133 200 125T215 113T235 107T258 105Q279 105 299 111T329 131V158Q320 171 299 177T258 184ZM66 700H221L341 556H221Z" horiz-adv-x="559" unicode="à"/>
			<glyph d="M272 495Q317 495 359 486T435 454T489 391T509 292V0H329V46Q309 20 268 4T183 -12Q156 -12 126 -2T73 26T33 76T17 147Q17 192 33 221T73 269T126 294T183 301Q231 301 270 287T329 248V298Q329 324 306 341T239 358Q205 358 169 345T105 311L44 422Q93 461 155 478T272 495ZM258 184Q235 184 215 175T195 144Q195 133 200 125T215 113T235 107T258 105Q279 105 299 111T329 131V158Q320 171 299 177T258 184ZM323 700H478L323 556H203Z" horiz-adv-x="559" unicode="á"/>
			<glyph d="M272 495Q317 495 359 486T435 454T489 391T509 292V0H329V46Q309 20 268 4T183 -12Q156 -12 126 -2T73 26T33 76T17 147Q17 192 33 221T73 269T126 294T183 301Q231 301 270 287T329 248V298Q329 324 306 341T239 358Q205 358 169 345T105 311L44 422Q93 461 155 478T272 495ZM258 184Q235 184 215 175T195 144Q195 133 200 125T215 113T235 107T258 105Q279 105 299 111T329 131V158Q320 171 299 177T258 184ZM199 700H355L446 556H341L277 629L216 556H111Z" horiz-adv-x="559" unicode="â"/>
			<glyph d="M272 495Q317 495 359 486T435 454T489 391T509 292V0H329V46Q309 20 268 4T183 -12Q156 -12 126 -2T73 26T33 76T17 147Q17 192 33 221T73 269T126 294T183 301Q231 301 270 287T329 248V298Q329 324 306 341T239 358Q205 358 169 345T105 311L44 422Q93 461 155 478T272 495ZM258 184Q235 184 215 175T195 144Q195 133 200 125T215 113T235 107T258 105Q279 105 299 111T329 131V158Q320 171 299 177T258 184ZM223 694Q246 694 262 687T291 672T313 657T333 651Q343 651 350 660T357 688H446Q446 619 416 586T328 554Q305 554 288 560T260 575T238 590T218 597Q208 597 201 588T194 560H105Q105 629 135 661T223 694Z" horiz-adv-x="559" unicode="ã"/>
			<glyph d="M272 495Q317 495 359 486T435 454T489 391T509 292V0H329V46Q309 20 268 4T183 -12Q156 -12 126 -2T73 26T33 76T17 147Q17 192 33 221T73 269T126 294T183 301Q231 301 270 287T329 248V298Q329 324 306 341T239 358Q205 358 169 345T105 311L44 422Q93 461 155 478T272 495ZM258 184Q235 184 215 175T195 144Q195 133 200 125T215 113T235 107T258 105Q279 105 299 111T329 131V158Q320 171 299 177T258 184ZM381 707Q419 707 445 681T471 618Q471 580 445 554T381 529Q344 529 318 554T292 618Q292 656 318 681T381 707ZM165 707Q203 707 228 681T254 618Q254 580 228 554T165 529Q127 529 101 554T76 618Q76 656 101 681T165 707Z" horiz-adv-x="559" unicode="ä"/>
			<glyph d="M272 495Q317 495 359 486T435 454T489 391T509 292V0H329V46Q309 20 268 4T183 -12Q156 -12 126 -2T73 26T33 76T17 147Q17 192 33 221T73 269T126 294T183 301Q231 301 270 287T329 248V298Q329 324 306 341T239 358Q205 358 169 345T105 311L44 422Q93 461 155 478T272 495ZM258 184Q235 184 215 175T195 144Q195 133 200 125T215 113T235 107T258 105Q279 105 299 111T329 131V158Q320 171 299 177T258 184ZM277 743Q300 743 320 734T355 710T378 674T387 631Q387 608 378 587T355 552T320 528T277 519Q254 519 233 528T198 552T174 587T165 631Q165 654 174 674T198 710T233 734T277 743ZM277 666Q263 666 252 655T242 631Q242 617 252 606T277 596Q291 596 301 606T311 631Q311 645 301 655T277 666Z" horiz-adv-x="559" unicode="å"/>
			<glyph d="M272 495Q331 495 367 479T428 436Q455 460 495 477T598 495Q647 495 691 476T768 423T820 337T839 223V186H520Q530 166 554 147T624 129Q651 129 678 138T722 163L800 48Q782 33 758 21T707 2T654 -8T603 -12Q550 -12 507 3T428 53Q395 25 344 6T230 -12Q186 -12 147 -3T80 25T34 73T17 144Q17 184 30 214T67 263T121 291T186 301Q232 301 274 287T338 249V298Q338 323 314 340T244 357Q209 357 172 345T105 310L44 422Q93 461 155 478T272 495ZM592 358Q573 358 560 352T538 337T525 319T518 300H668Q666 308 661 318T648 337T626 352T592 358ZM262 184Q238 184 216 175T195 149Q195 140 200 133T214 123T232 117T251 115Q288 115 313 127T338 154V157Q328 170 306 177T262 184Z" horiz-adv-x="851" unicode="æ"/>
			<glyph d="M288 495Q329 495 362 486T421 465T465 435T493 404L377 295Q366 312 345 324T296 336Q258 336 229 312T201 242Q201 195 229 171T296 147Q325 147 345 159T377 189L493 79Q475 52 433 25T324 -10L309 -45Q324 -36 343 -36Q370 -36 390 -56T411 -109Q411 -152 376 -175T293 -198Q253 -198 222 -188T174 -164L205 -100Q225 -114 246 -122T288 -130Q304 -130 317 -124T330 -106Q330 -89 309 -89Q293 -89 283 -101L224 -67L245 -9Q195 -3 153 17T81 70T34 145T17 242Q17 299 38 346T95 426T181 477T288 495Z" horiz-adv-x="502" unicode="ç"/>
			<glyph d="M280 495Q333 495 379 476T458 423T511 337T531 223V186H203Q211 163 236 144T307 125Q317 125 332 127T364 134T394 145T418 159L492 48Q474 33 449 21T398 2T342 -8T286 -12Q229 -12 180 5T95 55T38 135T17 242Q17 294 36 340T90 421T173 475T280 495ZM280 358Q259 358 245 352T222 337T208 318T201 300H360Q358 308 353 318T340 337T316 352T280 358ZM72 700H227L347 556H227Z" horiz-adv-x="543" unicode="è"/>
			<glyph d="M329 700H484L329 556H209ZM280 495Q333 495 379 476T458 423T511 337T531 223V186H203Q211 163 236 144T307 125Q317 125 332 127T364 134T394 145T418 159L492 48Q474 33 449 21T398 2T342 -8T286 -12Q229 -12 180 5T95 55T38 135T17 242Q17 294 36 340T90 421T173 475T280 495ZM280 358Q259 358 245 352T222 337T208 318T201 300H360Q358 308 353 318T340 337T316 352T280 358Z" horiz-adv-x="543" unicode="é"/>
			<glyph d="M201 700H357L448 556H343L279 629L218 556H113ZM280 495Q333 495 379 476T458 423T511 337T531 223V186H203Q211 163 236 144T307 125Q317 125 332 127T364 134T394 145T418 159L492 48Q474 33 449 21T398 2T342 -8T286 -12Q229 -12 180 5T95 55T38 135T17 242Q17 294 36 340T90 421T173 475T280 495ZM280 358Q259 358 245 352T222 337T208 318T201 300H360Q358 308 353 318T340 337T316 352T280 358Z" horiz-adv-x="543" unicode="ê"/>
			<glyph d="M389 707Q427 707 453 681T479 618Q479 580 453 554T389 529Q352 529 326 554T300 618Q300 656 326 681T389 707ZM173 707Q211 707 236 681T262 618Q262 580 236 554T173 529Q135 529 109 554T84 618Q84 656 109 681T173 707ZM280 495Q333 495 379 476T458 423T511 337T531 223V186H203Q211 163 236 144T307 125Q317 125 332 127T364 134T394 145T418 159L492 48Q474 33 449 21T398 2T342 -8T286 -12Q229 -12 180 5T95 55T38 135T17 242Q17 294 36 340T90 421T173 475T280 495ZM280 358Q259 358 245 352T222 337T208 318T201 300H360Q358 308 353 318T340 337T316 352T280 358Z" horiz-adv-x="543" unicode="ë"/>
			<glyph d="M50 483H230V0H50ZM-64 700H91L211 556H91Z" horiz-adv-x="280" unicode="ì"/>
			<glyph d="M191 700H346L191 556H71ZM50 483H230V0H50Z" horiz-adv-x="280" unicode="í"/>
			<glyph d="M62 700H218L309 556H204L140 629L79 556H-26ZM50 483H230V0H50Z" horiz-adv-x="280" unicode="î"/>
			<glyph d="M249 707Q287 707 313 681T339 618Q339 580 313 554T249 529Q212 529 186 554T160 618Q160 656 186 681T249 707ZM33 707Q71 707 96 681T122 618Q122 580 96 554T33 529Q-5 529 -30 554T-56 618Q-56 656 -30 681T33 707ZM50 483H230V0H50Z" horiz-adv-x="280" unicode="ï"/>
			<glyph d="M198 731Q236 708 269 686T332 641L431 684L464 609L403 582Q481 509 520 430T560 258Q560 196 541 146T488 61T403 7T288 -12Q227 -12 177 4T91 51T36 122T17 215Q17 266 33 307T78 379T145 425T225 441Q282 441 321 415T387 345Q374 386 331 427T233 506L84 440L52 518L149 560L102 588ZM288 283Q246 283 224 264T202 215Q202 185 224 166T288 147Q330 147 352 166T375 215Q375 245 352 264T288 283Z" unicode="ð"/>
			<glyph d="M396 495Q438 495 468 483T518 450T547 402T557 343V0H377V267Q377 305 358 320T307 336Q276 336 258 323T230 298V0H50V483H230V428Q251 452 291 473T396 495ZM252 694Q275 694 291 687T320 672T342 657T362 651Q372 651 379 660T386 688H475Q475 619 445 586T357 554Q334 554 317 560T289 575T267 590T247 597Q237 597 230 588T223 560H134Q134 629 164 661T252 694Z" horiz-adv-x="607" unicode="ñ"/>
			<glyph d="M288 495Q352 495 403 474T488 419T541 338T560 242Q560 191 541 145T488 64T403 8T288 -12Q224 -12 173 8T88 64T35 145T17 242Q17 293 35 338T88 419T173 474T288 495ZM288 336Q246 336 224 309T202 242Q202 201 224 174T288 147Q330 147 352 174T375 242Q375 282 352 309T288 336ZM82 700H237L357 556H237Z" unicode="ò"/>
			<glyph d="M338 700H493L338 556H218ZM288 495Q352 495 403 474T488 419T541 338T560 242Q560 191 541 145T488 64T403 8T288 -12Q224 -12 173 8T88 64T35 145T17 242Q17 293 35 338T88 419T173 474T288 495ZM288 336Q246 336 224 309T202 242Q202 201 224 174T288 147Q330 147 352 174T375 242Q375 282 352 309T288 336Z" unicode="ó"/>
			<glyph d="M210 700H366L457 556H352L288 629L227 556H122ZM288 495Q352 495 403 474T488 419T541 338T560 242Q560 191 541 145T488 64T403 8T288 -12Q224 -12 173 8T88 64T35 145T17 242Q17 293 35 338T88 419T173 474T288 495ZM288 336Q246 336 224 309T202 242Q202 201 224 174T288 147Q330 147 352 174T375 242Q375 282 352 309T288 336Z" unicode="ô"/>
			<glyph d="M288 495Q352 495 403 474T488 419T541 338T560 242Q560 191 541 145T488 64T403 8T288 -12Q224 -12 173 8T88 64T35 145T17 242Q17 293 35 338T88 419T173 474T288 495ZM288 336Q246 336 224 309T202 242Q202 201 224 174T288 147Q330 147 352 174T375 242Q375 282 352 309T288 336ZM236 694Q259 694 275 687T304 672T326 657T346 651Q356 651 363 660T370 688H459Q459 619 429 586T341 554Q318 554 301 560T273 575T251 590T231 597Q221 597 214 588T207 560H118Q118 629 148 661T236 694Z" unicode="õ"/>
			<glyph d="M396 707Q434 707 460 681T486 618Q486 580 460 554T396 529Q359 529 333 554T307 618Q307 656 333 681T396 707ZM180 707Q218 707 243 681T269 618Q269 580 243 554T180 529Q142 529 116 554T91 618Q91 656 116 681T180 707ZM288 495Q352 495 403 474T488 419T541 338T560 242Q560 191 541 145T488 64T403 8T288 -12Q224 -12 173 8T88 64T35 145T17 242Q17 293 35 338T88 419T173 474T288 495ZM288 336Q246 336 224 309T202 242Q202 201 224 174T288 147Q330 147 352 174T375 242Q375 282 352 309T288 336Z" unicode="ö"/>
			<glyph d="M255 580Q287 580 309 558T331 505Q331 473 309 450T255 428Q223 428 201 450T179 505Q179 537 201 558T255 580ZM29 390H482V285H29ZM255 246Q287 246 309 224T331 170Q331 138 309 116T255 94Q223 94 201 116T179 170Q179 202 201 224T255 246Z" horiz-adv-x="511" unicode="÷"/>
			<glyph d="M288 495Q331 495 367 486T434 460L455 483H560L495 412Q527 377 543 333T560 242Q560 191 541 145T488 64T403 8T288 -12Q244 -12 207 -2T141 24L119 0H17L81 71Q49 106 33 150T17 242Q17 293 35 338T88 419T173 474T288 495ZM370 275L257 152Q272 147 288 147Q330 147 352 174T375 242Q375 258 370 275ZM288 336Q246 336 224 309T202 242Q202 222 206 209L317 332Q305 336 288 336Z" unicode="ø"/>
			<glyph d="M50 483H230V215Q230 178 248 162T300 147Q330 147 347 159T376 185V483H556V0H376V54Q365 42 350 30T314 9T268 -6T210 -12Q168 -12 137 0T87 32T59 79T50 138ZM97 700H252L372 556H252Z" horiz-adv-x="606" unicode="ù"/>
			<glyph d="M353 700H508L353 556H233ZM50 483H230V215Q230 178 248 162T300 147Q330 147 347 159T376 185V483H556V0H376V54Q365 42 350 30T314 9T268 -6T210 -12Q168 -12 137 0T87 32T59 79T50 138Z" horiz-adv-x="606" unicode="ú"/>
			<glyph d="M226 700H382L473 556H368L304 629L243 556H138ZM50 483H230V215Q230 178 248 162T300 147Q330 147 347 159T376 185V483H556V0H376V54Q365 42 350 30T314 9T268 -6T210 -12Q168 -12 137 0T87 32T59 79T50 138Z" horiz-adv-x="606" unicode="û"/>
			<glyph d="M413 707Q451 707 477 681T503 618Q503 580 477 554T413 529Q376 529 350 554T324 618Q324 656 350 681T413 707ZM197 707Q235 707 260 681T286 618Q286 580 260 554T197 529Q159 529 133 554T108 618Q108 656 133 681T197 707ZM50 483H230V215Q230 178 248 162T300 147Q330 147 347 159T376 185V483H556V0H376V54Q365 42 350 30T314 9T268 -6T210 -12Q168 -12 137 0T87 32T59 79T50 138Z" horiz-adv-x="606" unicode="ü"/>
			<glyph d="M-15 483H175L267 207L360 483H550L340 -60Q324 -102 301 -128T249 -169T187 -189T115 -196Q110 -196 101 -195T81 -194T61 -191T45 -188L70 -28Q78 -33 88 -35T108 -37Q162 -37 171 -18L175 -8ZM317 700H472L317 556H197Z" horiz-adv-x="535" unicode="ý"/>
			<glyph d="M50 667H230V432Q259 467 293 481T366 495Q411 495 449 478T516 430T561 351T578 242Q578 180 561 132T516 53T449 4T366 -12Q328 -12 294 2T230 51V-184H50ZM304 336Q287 336 265 327T230 303V180Q242 165 264 156T304 147Q340 147 367 171T394 242Q394 287 367 311T304 336Z" horiz-adv-x="595" unicode="þ"/>
			<glyph d="M-15 483H175L267 207L360 483H550L340 -60Q324 -102 301 -128T249 -169T187 -189T115 -196Q110 -196 101 -195T81 -194T61 -191T45 -188L70 -28Q78 -33 88 -35T108 -37Q162 -37 171 -18L175 -8ZM375 707Q413 707 439 681T465 618Q465 580 439 554T375 529Q338 529 312 554T286 618Q286 656 312 681T375 707ZM159 707Q197 707 222 681T248 618Q248 580 222 554T159 529Q121 529 95 554T70 618Q70 656 95 681T159 707Z" horiz-adv-x="535" unicode="ÿ"/>
			<glyph d="M228 667H482L728 0H499L475 78H235L211 0H-18ZM355 469L289 254H421ZM173 815H536V718H173Z" horiz-adv-x="710" unicode="Ā"/>
			<glyph d="M272 495Q317 495 359 486T435 454T489 391T509 292V0H329V46Q309 20 268 4T183 -12Q156 -12 126 -2T73 26T33 76T17 147Q17 192 33 221T73 269T126 294T183 301Q231 301 270 287T329 248V298Q329 324 306 341T239 358Q205 358 169 345T105 311L44 422Q93 461 155 478T272 495ZM258 184Q235 184 215 175T195 144Q195 133 200 125T215 113T235 107T258 105Q279 105 299 111T329 131V158Q320 171 299 177T258 184ZM94 648H457V551H94Z" horiz-adv-x="559" unicode="ā"/>
			<glyph d="M228 667H482L728 0H499L475 78H235L211 0H-18ZM355 469L289 254H421ZM255 841Q272 818 297 803T355 788Q418 788 455 841L530 779Q500 738 454 714T355 691Q301 691 255 714T179 779Z" horiz-adv-x="710" unicode="Ă"/>
			<glyph d="M272 495Q317 495 359 486T435 454T489 391T509 292V0H329V46Q309 20 268 4T183 -12Q156 -12 126 -2T73 26T33 76T17 147Q17 192 33 221T73 269T126 294T183 301Q231 301 270 287T329 248V298Q329 324 306 341T239 358Q205 358 169 345T105 311L44 422Q93 461 155 478T272 495ZM258 184Q235 184 215 175T195 144Q195 133 200 125T215 113T235 107T258 105Q279 105 299 111T329 131V158Q320 171 299 177T258 184ZM176 674Q193 651 218 636T276 621Q339 621 376 674L451 612Q421 571 375 547T276 524Q222 524 176 547T100 612Z" horiz-adv-x="559" unicode="ă"/>
			<glyph d="M228 667H482L728 0Q691 -19 677 -40T663 -84Q663 -104 673 -111T692 -118Q706 -118 714 -109T727 -90L793 -133Q776 -158 751 -172T692 -186Q671 -186 651 -180T615 -164T591 -135T582 -92Q582 -39 621 0H499L475 78H235L211 0H-18ZM355 469L289 254H421Z" horiz-adv-x="710" unicode="Ą"/>
			<glyph d="M272 495Q317 495 359 486T435 454T489 391T509 292V0Q472 -19 458 -40T444 -84Q444 -104 454 -111T473 -118Q487 -118 495 -109T508 -90L574 -133Q557 -158 532 -172T473 -186Q452 -186 432 -180T396 -164T372 -135T363 -92Q363 -39 402 0H329V46Q309 20 268 4T183 -12Q156 -12 126 -2T73 26T33 76T17 147Q17 192 33 221T73 269T126 294T183 301Q231 301 270 287T329 248V298Q329 324 306 341T239 358Q205 358 169 345T105 311L44 422Q93 461 155 478T272 495ZM258 184Q235 184 215 175T195 144Q195 133 200 125T215 113T235 107T258 105Q279 105 299 111T329 131V158Q320 171 299 177T258 184Z" horiz-adv-x="559" unicode="ą"/>
			<glyph d="M434 867H589L434 723H314ZM385 678Q451 678 500 660T587 615T648 553T688 484L514 403Q508 422 495 440T466 471T428 492T385 500Q349 500 319 487T267 451T234 398T223 333Q223 298 234 267T267 214T319 179T385 166Q407 166 428 174T466 195T495 225T514 263L688 183Q673 150 648 115T587 52T501 6T385 -12Q307 -12 239 13T123 83T46 192T18 333Q18 410 46 473T123 582T239 653T385 678Z" horiz-adv-x="697" unicode="Ć"/>
			<glyph d="M340 700H495L340 556H220ZM288 495Q329 495 362 486T421 465T465 435T493 404L377 295Q366 312 345 324T296 336Q258 336 229 312T201 242Q201 195 229 171T296 147Q325 147 345 159T377 189L493 79Q483 64 465 48T421 18T362 -3T288 -12Q231 -12 181 6T95 57T38 137T17 242Q17 299 38 346T95 426T181 477T288 495Z" horiz-adv-x="502" unicode="ć"/>
			<glyph d="M304 867H460L551 723H446L382 796L321 723H216ZM385 678Q451 678 500 660T587 615T648 553T688 484L514 403Q508 422 495 440T466 471T428 492T385 500Q349 500 319 487T267 451T234 398T223 333Q223 298 234 267T267 214T319 179T385 166Q407 166 428 174T466 195T495 225T514 263L688 183Q673 150 648 115T587 52T501 6T385 -12Q307 -12 239 13T123 83T46 192T18 333Q18 410 46 473T123 582T239 653T385 678Z" horiz-adv-x="697" unicode="Ĉ"/>
			<glyph d="M219 700H375L466 556H361L297 629L236 556H131ZM288 495Q329 495 362 486T421 465T465 435T493 404L377 295Q366 312 345 324T296 336Q258 336 229 312T201 242Q201 195 229 171T296 147Q325 147 345 159T377 189L493 79Q483 64 465 48T421 18T362 -3T288 -12Q231 -12 181 6T95 57T38 137T17 242Q17 299 38 346T95 426T181 477T288 495Z" horiz-adv-x="502" unicode="ĉ"/>
			<glyph d="M385 678Q451 678 500 660T587 615T648 553T688 484L514 403Q508 422 495 440T466 471T428 492T385 500Q349 500 319 487T267 451T234 398T223 333Q223 298 234 267T267 214T319 179T385 166Q407 166 428 174T466 195T495 225T514 263L688 183Q673 150 648 115T587 52T501 6T385 -12Q307 -12 239 13T123 83T46 192T18 333Q18 410 46 473T123 582T239 653T385 678ZM387 875Q405 875 421 868T449 849T468 820T475 786Q475 768 468 751T449 723T421 704T387 697Q350 697 324 723T298 786Q298 823 324 849T387 875Z" horiz-adv-x="697" unicode="Ċ"/>
			<glyph d="M288 495Q329 495 362 486T421 465T465 435T493 404L377 295Q366 312 345 324T296 336Q258 336 229 312T201 242Q201 195 229 171T296 147Q325 147 345 159T377 189L493 79Q483 64 465 48T421 18T362 -3T288 -12Q231 -12 181 6T95 57T38 137T17 242Q17 299 38 346T95 426T181 477T288 495ZM287 708Q305 708 321 701T349 682T368 653T375 619Q375 601 368 584T349 556T321 537T287 530Q250 530 224 556T198 619Q198 656 224 682T287 708Z" horiz-adv-x="502" unicode="ċ"/>
			<glyph d="M216 867H321L385 794L446 867H551L463 723H307ZM385 678Q451 678 500 660T587 615T648 553T688 484L514 403Q508 422 495 440T466 471T428 492T385 500Q349 500 319 487T267 451T234 398T223 333Q223 298 234 267T267 214T319 179T385 166Q407 166 428 174T466 195T495 225T514 263L688 183Q673 150 648 115T587 52T501 6T385 -12Q307 -12 239 13T123 83T46 192T18 333Q18 410 46 473T123 582T239 653T385 678Z" horiz-adv-x="697" unicode="Č"/>
			<glyph d="M131 700H236L300 627L361 700H466L378 556H222ZM288 495Q329 495 362 486T421 465T465 435T493 404L377 295Q366 312 345 324T296 336Q258 336 229 312T201 242Q201 195 229 171T296 147Q325 147 345 159T377 189L493 79Q483 64 465 48T421 18T362 -3T288 -12Q231 -12 181 6T95 57T38 137T17 242Q17 299 38 346T95 426T181 477T288 495Z" horiz-adv-x="502" unicode="č"/>
			<glyph d="M206 867H311L375 794L436 867H541L453 723H297ZM54 667H352Q431 667 498 645T614 580T690 476T718 334Q718 254 690 192T614 87T498 22T353 0H54ZM256 491V176H352Q390 176 420 189T470 223T502 273T513 334Q513 368 503 396T473 446T423 479T353 491Z" horiz-adv-x="736" unicode="Ď"/>
			<glyph d="M655 679Q689 679 715 654T742 582Q742 532 717 490T648 417L593 461Q602 465 612 473T632 491T650 512T661 534Q656 531 642 531Q615 531 596 549T577 600Q577 633 600 656T655 679ZM366 667H546V0H366V51Q335 16 301 2T230 -12Q186 -12 147 4T80 53T34 132T17 242Q17 302 33 349T79 428T146 478T230 495Q267 495 302 481T366 432ZM291 336Q254 336 227 311T201 242Q201 197 227 172T291 147Q309 147 331 155T366 180V304Q353 320 331 328T291 336Z" horiz-adv-x="736" unicode="ď"/>
			<glyph d="M75 667H373Q452 667 519 645T635 580T711 476T739 334Q739 254 711 192T635 87T519 22T374 0H75V254H7V413H75ZM277 491V413H406V254H277V176H373Q411 176 441 189T491 223T523 273T534 334Q534 368 524 396T494 446T444 479T374 491Z" horiz-adv-x="757" unicode="Đ"/>
			<glyph d="M366 667H546V618H595V521H546V0H366V51Q335 16 301 2T230 -12Q186 -12 147 4T80 53T34 132T17 242Q17 302 33 349T79 428T146 478T230 495Q267 495 302 481T366 432V521H232V618H366ZM291 336Q254 336 227 311T201 242Q201 197 227 172T291 147Q309 147 331 155T366 180V304Q353 320 331 328T291 336Z" horiz-adv-x="602" unicode="đ"/>
			<glyph d="M54 667H560V491H256V425H553V249H256V176H560V0H54ZM122 815H485V718H122Z" horiz-adv-x="596" unicode="Ē"/>
			<glyph d="M280 495Q333 495 379 476T458 423T511 337T531 223V186H203Q211 163 236 144T307 125Q317 125 332 127T364 134T394 145T418 159L492 48Q474 33 449 21T398 2T342 -8T286 -12Q229 -12 180 5T95 55T38 135T17 242Q17 294 36 340T90 421T173 475T280 495ZM280 358Q259 358 245 352T222 337T208 318T201 300H360Q358 308 353 318T340 337T316 352T280 358ZM92 648H455V551H92Z" horiz-adv-x="543" unicode="ē"/>
			<glyph d="M54 667H560V491H256V425H553V249H256V176H560V0H54ZM203 841Q220 818 245 803T303 788Q366 788 403 841L478 779Q448 738 402 714T303 691Q249 691 203 714T127 779Z" horiz-adv-x="596" unicode="Ĕ"/>
			<glyph d="M280 495Q333 495 379 476T458 423T511 337T531 223V186H203Q211 163 236 144T307 125Q317 125 332 127T364 134T394 145T418 159L492 48Q474 33 449 21T398 2T342 -8T286 -12Q229 -12 180 5T95 55T38 135T17 242Q17 294 36 340T90 421T173 475T280 495ZM280 358Q259 358 245 352T222 337T208 318T201 300H360Q358 308 353 318T340 337T316 352T280 358ZM182 674Q199 651 224 636T282 621Q345 621 382 674L457 612Q427 571 381 547T282 524Q228 524 182 547T106 612Z" horiz-adv-x="543" unicode="ĕ"/>
			<glyph d="M54 667H560V491H256V425H553V249H256V176H560V0H54ZM306 875Q324 875 340 868T368 849T387 820T394 786Q394 768 387 751T368 723T340 704T306 697Q269 697 243 723T217 786Q217 823 243 849T306 875Z" horiz-adv-x="596" unicode="Ė"/>
			<glyph d="M280 495Q333 495 379 476T458 423T511 337T531 223V186H203Q211 163 236 144T307 125Q317 125 332 127T364 134T394 145T418 159L492 48Q474 33 449 21T398 2T342 -8T286 -12Q229 -12 180 5T95 55T38 135T17 242Q17 294 36 340T90 421T173 475T280 495ZM280 358Q259 358 245 352T222 337T208 318T201 300H360Q358 308 353 318T340 337T316 352T280 358ZM282 708Q300 708 316 701T344 682T363 653T370 619Q370 601 363 584T344 556T316 537T282 530Q245 530 219 556T193 619Q193 656 219 682T282 708Z" horiz-adv-x="543" unicode="ė"/>
			<glyph d="M54 667H560V491H256V425H553V249H256V176H560V0Q523 -19 509 -40T495 -84Q495 -104 505 -111T524 -118Q538 -118 546 -109T559 -90L625 -133Q608 -158 583 -172T524 -186Q503 -186 483 -180T447 -164T423 -135T414 -92Q414 -39 453 0H54Z" horiz-adv-x="596" unicode="Ę"/>
			<glyph d="M280 495Q333 495 379 476T458 423T511 337T531 223V186H203Q211 163 236 144T307 125Q317 125 332 127T364 134T394 145T418 159L492 48Q472 31 445 19T388 0Q351 -19 337 -40T323 -84Q323 -104 333 -111T352 -118Q366 -118 374 -109T387 -90L453 -133Q436 -158 411 -172T352 -186Q331 -186 311 -180T275 -164T251 -135T242 -92Q242 -48 270 -12Q216 -10 170 8T90 59T36 138T17 242Q17 294 36 340T90 421T173 475T280 495ZM280 358Q259 358 245 352T222 337T208 318T201 300H360Q358 308 353 318T340 337T316 352T280 358Z" horiz-adv-x="543" unicode="ę"/>
			<glyph d="M140 867H245L309 794L370 867H475L387 723H231ZM54 667H560V491H256V425H553V249H256V176H560V0H54Z" horiz-adv-x="596" unicode="Ě"/>
			<glyph d="M110 700H215L279 627L340 700H445L357 556H201ZM280 495Q333 495 379 476T458 423T511 337T531 223V186H203Q211 163 236 144T307 125Q317 125 332 127T364 134T394 145T418 159L492 48Q474 33 449 21T398 2T342 -8T286 -12Q229 -12 180 5T95 55T38 135T17 242Q17 294 36 340T90 421T173 475T280 495ZM280 358Q259 358 245 352T222 337T208 318T201 300H360Q358 308 353 318T340 337T316 352T280 358Z" horiz-adv-x="543" unicode="ě"/>
			<glyph d="M306 867H462L553 723H448L384 796L323 723H218ZM385 678Q445 678 492 663T575 623T636 567T678 504L508 417Q501 432 489 447T462 474T426 493T385 500Q349 500 319 487T267 451T234 398T223 333Q223 298 234 267T267 214T319 179T385 166Q414 166 443 175T489 196V220H365V396H690V123Q634 61 559 24T385 -12Q309 -12 242 12T126 80T47 189T18 333Q18 413 47 477T126 585T242 654T385 678Z" horiz-adv-x="726" unicode="Ĝ"/>
			<glyph d="M226 700H382L473 556H368L304 629L243 556H138ZM229 495Q267 495 301 481T365 432V483H545V52Q545 0 531 -39T496 -105T444 -150T382 -178T316 -192T253 -196Q190 -196 135 -179T33 -124L109 4Q137 -24 175 -36T253 -49Q269 -49 288 -45T325 -30T353 0T365 52V78Q334 43 300 28T229 13Q185 13 146 27T79 71T34 146T17 254Q17 314 33 359T78 435T145 480T229 495ZM291 336Q254 336 227 317T201 254Q201 210 227 191T291 172Q308 172 330 180T365 203V305Q352 320 330 328T291 336Z" horiz-adv-x="595" unicode="ĝ"/>
			<glyph d="M385 678Q445 678 492 663T575 623T636 567T678 504L508 417Q501 432 489 447T462 474T426 493T385 500Q349 500 319 487T267 451T234 398T223 333Q223 298 234 267T267 214T319 179T385 166Q414 166 443 175T489 196V220H365V396H690V123Q634 61 559 24T385 -12Q309 -12 242 12T126 80T47 189T18 333Q18 413 47 477T126 585T242 654T385 678ZM285 841Q302 818 327 803T385 788Q448 788 485 841L560 779Q530 738 484 714T385 691Q331 691 285 714T209 779Z" horiz-adv-x="726" unicode="Ğ"/>
			<glyph d="M229 495Q267 495 301 481T365 432V483H545V52Q545 0 531 -39T496 -105T444 -150T382 -178T316 -192T253 -196Q190 -196 135 -179T33 -124L109 4Q137 -24 175 -36T253 -49Q269 -49 288 -45T325 -30T353 0T365 52V78Q334 43 300 28T229 13Q185 13 146 27T79 71T34 146T17 254Q17 314 33 359T78 435T145 480T229 495ZM291 336Q254 336 227 317T201 254Q201 210 227 191T291 172Q308 172 330 180T365 203V305Q352 320 330 328T291 336ZM194 674Q211 651 236 636T294 621Q357 621 394 674L469 612Q439 571 393 547T294 524Q240 524 194 547T118 612Z" horiz-adv-x="595" unicode="ğ"/>
			<glyph d="M385 678Q445 678 492 663T575 623T636 567T678 504L508 417Q501 432 489 447T462 474T426 493T385 500Q349 500 319 487T267 451T234 398T223 333Q223 298 234 267T267 214T319 179T385 166Q414 166 443 175T489 196V220H365V396H690V123Q634 61 559 24T385 -12Q309 -12 242 12T126 80T47 189T18 333Q18 413 47 477T126 585T242 654T385 678ZM385 875Q403 875 419 868T447 849T466 820T473 786Q473 768 466 751T447 723T419 704T385 697Q348 697 322 723T296 786Q296 823 322 849T385 875Z" horiz-adv-x="726" unicode="Ġ"/>
			<glyph d="M229 495Q267 495 301 481T365 432V483H545V52Q545 0 531 -39T496 -105T444 -150T382 -178T316 -192T253 -196Q190 -196 135 -179T33 -124L109 4Q137 -24 175 -36T253 -49Q269 -49 288 -45T325 -30T353 0T365 52V78Q334 43 300 28T229 13Q185 13 146 27T79 71T34 146T17 254Q17 314 33 359T78 435T145 480T229 495ZM291 336Q254 336 227 317T201 254Q201 210 227 191T291 172Q308 172 330 180T365 203V305Q352 320 330 328T291 336ZM307 708Q325 708 341 701T369 682T388 653T395 619Q395 601 388 584T369 556T341 537T307 530Q270 530 244 556T218 619Q218 656 244 682T307 708Z" horiz-adv-x="595" unicode="ġ"/>
			<glyph d="M385 -42Q419 -42 445 -67T472 -139Q472 -189 447 -231T378 -304L323 -260Q332 -256 342 -248T362 -230T380 -209T391 -187Q386 -190 372 -190Q345 -190 326 -171T307 -121Q307 -88 330 -65T385 -42ZM385 678Q445 678 492 663T575 623T636 567T678 504L508 417Q501 432 489 447T462 474T426 493T385 500Q349 500 319 487T267 451T234 398T223 333Q223 298 234 267T267 214T319 179T385 166Q414 166 443 175T489 196V220H365V396H690V123Q634 61 559 24T385 -12Q309 -12 242 12T126 80T47 189T18 333Q18 413 47 477T126 585T242 654T385 678Z" horiz-adv-x="726" unicode="Ģ"/>
			<glyph d="M303 782L358 738Q350 735 339 728T319 713T301 693T291 673Q293 673 294 673T298 674Q312 674 325 668T349 653T366 629T373 600Q373 584 367 569T350 544T324 526T293 520Q282 520 268 524T242 538T221 566T213 612Q213 663 234 706T303 782ZM229 495Q267 495 301 481T365 432V483H545V52Q545 0 531 -39T496 -105T444 -150T382 -178T316 -192T253 -196Q190 -196 135 -179T33 -124L109 4Q137 -24 175 -36T253 -49Q269 -49 288 -45T325 -30T353 0T365 52V78Q334 43 300 28T229 13Q185 13 146 27T79 71T34 146T17 254Q17 314 33 359T78 435T145 480T229 495ZM291 336Q254 336 227 317T201 254Q201 210 227 191T291 172Q308 172 330 180T365 203V305Q352 320 330 328T291 336Z" horiz-adv-x="595" unicode="ģ"/>
			<glyph d="M296 867H452L543 723H438L374 796L313 723H208ZM54 667H256V431H495V667H697V0H495V255H256V0H54Z" horiz-adv-x="751" unicode="Ĥ"/>
			<glyph d="M225 867H381L472 723H367L303 796L242 723H137ZM51 667H231V428Q252 452 292 473T397 495Q439 495 469 483T519 451T548 403T558 345V0H378V269Q378 307 359 321T308 336Q277 336 259 323T231 298V0H51Z" horiz-adv-x="608" unicode="ĥ"/>
			<glyph d="M61 667H263V598H502V667H704V598H758V501H704V0H502V255H263V0H61V501H7V598H61ZM263 501V431H502V501Z" horiz-adv-x="765" unicode="Ħ"/>
			<glyph d="M56 667H236V618H370V521H236V428Q257 452 297 473T402 495Q444 495 474 483T524 451T553 403T563 345V0H383V269Q383 307 364 321T313 336Q282 336 264 323T236 298V0H56V521H7V618H56Z" horiz-adv-x="613" unicode="ħ"/>
			<glyph d="M54 667H256V0H54ZM105 861Q128 861 144 854T173 839T195 824T215 818Q225 818 232 827T239 855H328Q328 786 298 753T210 721Q187 721 170 727T142 742T120 757T100 764Q90 764 83 755T76 727H-13Q-13 796 17 828T105 861Z" horiz-adv-x="310" unicode="Ĩ"/>
			<glyph d="M50 483H230V0H50ZM90 694Q113 694 129 687T158 672T180 657T200 651Q210 651 217 660T224 688H313Q313 619 283 586T195 554Q172 554 155 560T127 575T105 590T85 597Q75 597 68 588T61 560H-28Q-28 629 2 661T90 694Z" horiz-adv-x="280" unicode="ĩ"/>
			<glyph d="M54 667H256V0H54ZM-25 815H338V718H-25Z" horiz-adv-x="310" unicode="Ī"/>
			<glyph d="M50 483H230V0H50ZM-40 648H323V551H-40Z" horiz-adv-x="280" unicode="ī"/>
			<glyph d="M54 667H256V0H54ZM61 841Q78 818 103 803T161 788Q224 788 261 841L336 779Q306 738 260 714T161 691Q107 691 61 714T-15 779Z" horiz-adv-x="310" unicode="Ĭ"/>
			<glyph d="M50 483H230V0H50ZM43 674Q60 651 85 636T143 621Q206 621 243 674L318 612Q288 571 242 547T143 524Q89 524 43 547T-33 612Z" horiz-adv-x="280" unicode="ĭ"/>
			<glyph d="M54 667H256V0H54ZM200 37L257 0Q220 -19 206 -40T192 -84Q192 -104 202 -111T221 -118Q235 -118 243 -109T256 -90L322 -133Q305 -158 280 -172T221 -186Q200 -186 180 -180T144 -164T120 -135T111 -92Q111 -51 133 -19T200 37Z" horiz-adv-x="310" unicode="Į"/>
			<glyph d="M50 483H230V0Q193 -19 179 -40T165 -84Q165 -104 175 -111T194 -118Q208 -118 216 -109T229 -90L295 -133Q278 -158 253 -172T194 -186Q173 -186 153 -180T117 -164T93 -135T84 -92Q84 -39 123 0H50ZM140 720Q161 720 179 712T211 690T233 658T241 619Q241 598 233 579T211 547T179 526T140 518Q119 518 100 526T68 547T47 579T39 619Q39 640 47 658T68 690T100 712T140 720Z" horiz-adv-x="280" unicode="į"/>
			<glyph d="M54 667H256V0H54ZM157 875Q175 875 191 868T219 849T238 820T245 786Q245 768 238 751T219 723T191 704T157 697Q120 697 94 723T68 786Q68 823 94 849T157 875Z" horiz-adv-x="310" unicode="İ"/>
			<glyph d="M50 483H230V0H50Z" horiz-adv-x="280" unicode="ı"/>
			<glyph d="M54 667H256V0H54ZM552 667H754V238Q754 174 735 127T683 49T601 3T496 -12Q447 -12 398 0T310 42L392 196Q409 185 430 175T478 166Q511 166 531 186T552 241Z" horiz-adv-x="808" unicode="Ĳ"/>
			<glyph d="M140 720Q161 720 179 712T211 690T233 658T241 619Q241 598 233 579T211 547T179 526T140 518Q119 518 100 526T68 547T47 579T39 619Q39 640 47 658T68 690T100 712T140 720ZM50 483H230V0H50ZM420 720Q441 720 459 712T491 690T513 658T521 619Q521 598 513 579T491 547T459 526T420 518Q399 518 380 526T348 547T327 579T319 619Q319 640 327 658T348 690T380 712T420 720ZM330 483H510V21Q510 -26 498 -65T462 -134T399 -179T309 -196Q282 -196 263 -194T229 -188T201 -178T174 -163L217 -30Q232 -41 244 -45T277 -49Q302 -49 316 -31T330 21Z" horiz-adv-x="560" unicode="ĳ"/>
			<glyph d="M265 867H421L512 723H407L343 796L282 723H177ZM242 667H444V238Q444 174 425 127T373 49T291 3T186 -12Q137 -12 88 0T0 42L82 196Q99 185 120 175T168 166Q201 166 221 186T242 241Z" horiz-adv-x="498" unicode="Ĵ"/>
			<glyph d="M65 700H221L312 556H207L143 629L82 556H-23ZM50 483H230V21Q230 -26 218 -65T182 -134T119 -179T29 -196Q2 -196 -17 -194T-51 -188T-78 -178T-106 -163L-63 -18Q-48 -29 -36 -33T-3 -37Q22 -37 36 -21T50 21Z" horiz-adv-x="280" unicode="ĵ"/>
			<glyph d="M343 -42Q377 -42 403 -67T430 -139Q430 -189 405 -231T336 -304L281 -260Q290 -256 300 -248T320 -230T338 -209T349 -187Q344 -190 330 -190Q303 -190 284 -171T265 -121Q265 -88 288 -65T343 -42ZM54 667H256V417L431 667H678L426 357L689 0H443L293 235L256 185V0H54Z" horiz-adv-x="689" unicode="Ķ"/>
			<glyph d="M277 -42Q311 -42 337 -67T364 -139Q364 -189 339 -231T270 -304L215 -260Q224 -256 234 -248T254 -230T272 -209T283 -187Q278 -190 264 -190Q237 -190 218 -171T199 -121Q199 -88 222 -65T277 -42ZM50 667H230V311L341 483H558L392 263L569 0H348L265 156L230 109V0H50Z" horiz-adv-x="557" unicode="ķ"/>
			<glyph d="M50 483H230V311L341 483H558L392 263L569 0H348L265 156L230 109V0H50Z" horiz-adv-x="557" unicode="ĸ"/>
			<glyph d="M331 867H486L331 723H211ZM54 667H256V176H509V0H54Z" horiz-adv-x="536" unicode="Ĺ"/>
			<glyph d="M191 867H346L191 723H71ZM50 667H230V0H50Z" horiz-adv-x="280" unicode="ĺ"/>
			<glyph d="M262 -42Q296 -42 322 -67T349 -139Q349 -189 324 -231T255 -304L200 -260Q209 -256 219 -248T239 -230T257 -209T268 -187Q263 -190 249 -190Q222 -190 203 -171T184 -121Q184 -88 207 -65T262 -42ZM54 667H256V176H509V0H54Z" horiz-adv-x="536" unicode="Ļ"/>
			<glyph d="M139 -42Q173 -42 199 -67T226 -139Q226 -189 201 -231T132 -304L77 -260Q86 -256 96 -248T116 -230T134 -209T145 -187Q140 -190 126 -190Q99 -190 80 -171T61 -121Q61 -88 84 -65T139 -42ZM50 667H230V0H50Z" horiz-adv-x="280" unicode="ļ"/>
			<glyph d="M399 681Q433 681 459 656T486 584Q486 534 461 492T392 419L337 463Q346 467 356 475T376 493T394 514T405 536Q400 533 386 533Q359 533 340 551T321 602Q321 635 344 658T399 681ZM54 667H256V176H509V0H54Z" horiz-adv-x="536" unicode="Ľ"/>
			<glyph d="M347 681Q381 681 407 656T434 584Q434 534 409 492T340 419L285 463Q294 467 304 475T324 493T342 514T353 536Q348 533 334 533Q307 533 288 551T269 602Q269 635 292 658T347 681ZM50 667H230V0H50Z" horiz-adv-x="418" unicode="ľ"/>
			<glyph d="M54 667H256V176H509V0H54ZM457 449Q479 449 498 440T531 417T554 383T563 342Q563 321 554 301T531 267T498 244T457 236Q435 236 416 244T382 267T359 301T351 342Q351 364 359 383T382 417T416 440T457 449Z" horiz-adv-x="599" unicode="Ŀ"/>
			<glyph d="M50 667H230V0H50ZM371 351Q393 351 412 342T445 319T468 285T477 244Q477 223 468 203T445 169T412 146T371 138Q349 138 330 146T296 169T273 203T265 244Q265 266 273 285T296 319T330 342T371 351Z" horiz-adv-x="462" unicode="ŀ"/>
			<glyph d="M63 667H265V472L321 504V343L265 311V176H518V0H63V195L7 163V323L63 355Z" horiz-adv-x="545" unicode="Ł"/>
			<glyph d="M75 667H255V449L323 488V363L255 323V0H75V219L7 180V306L75 345Z" horiz-adv-x="330" unicode="ł"/>
			<glyph d="M426 867H581L426 723H306ZM54 667H262L494 351V667H696V0H502L256 338V0H54Z" horiz-adv-x="750" unicode="Ń"/>
			<glyph d="M355 700H510L355 556H235ZM396 495Q438 495 468 483T518 450T547 402T557 343V0H377V267Q377 305 358 320T307 336Q276 336 258 323T230 298V0H50V483H230V428Q251 452 291 473T396 495Z" horiz-adv-x="607" unicode="ń"/>
			<glyph d="M373 -42Q407 -42 433 -67T460 -139Q460 -189 435 -231T366 -304L311 -260Q320 -256 330 -248T350 -230T368 -209T379 -187Q374 -190 360 -190Q333 -190 314 -171T295 -121Q295 -88 318 -65T373 -42ZM54 667H262L494 351V667H696V0H502L256 338V0H54Z" horiz-adv-x="750" unicode="Ņ"/>
			<glyph d="M302 -42Q336 -42 362 -67T389 -139Q389 -189 364 -231T295 -304L240 -260Q249 -256 259 -248T279 -230T297 -209T308 -187Q303 -190 289 -190Q262 -190 243 -171T224 -121Q224 -88 247 -65T302 -42ZM396 495Q438 495 468 483T518 450T547 402T557 343V0H377V267Q377 305 358 320T307 336Q276 336 258 323T230 298V0H50V483H230V428Q251 452 291 473T396 495Z" horiz-adv-x="607" unicode="ņ"/>
			<glyph d="M207 867H312L376 794L437 867H542L454 723H298ZM54 667H262L494 351V667H696V0H502L256 338V0H54Z" horiz-adv-x="750" unicode="Ň"/>
			<glyph d="M136 700H241L305 627L366 700H471L383 556H227ZM396 495Q438 495 468 483T518 450T547 402T557 343V0H377V267Q377 305 358 320T307 336Q276 336 258 323T230 298V0H50V483H230V428Q251 452 291 473T396 495Z" horiz-adv-x="607" unicode="ň"/>
			<glyph d="M104 785Q138 785 164 760T191 688Q191 638 166 596T97 523L42 567Q51 571 61 579T81 597T99 618T110 640Q105 637 91 637Q64 637 45 655T26 706Q26 739 49 762T104 785ZM396 495Q438 495 468 483T518 450T547 402T557 343V0H377V267Q377 305 358 320T307 336Q276 336 258 323T230 298V0H50V483H230V428Q251 452 291 473T396 495Z" horiz-adv-x="607" unicode="ŉ"/>
			<glyph d="M54 667H262L494 351V667H696V54Q696 -10 677 -57T625 -135T543 -181T438 -196Q389 -196 340 -184T252 -142L334 12Q351 1 372 -8T420 -18Q468 -18 487 21L256 338V0H54Z" horiz-adv-x="750" unicode="Ŋ"/>
			<glyph d="M396 495Q438 495 468 483T518 450T547 402T557 343V21Q557 -26 545 -65T509 -134T446 -179T356 -196Q329 -196 310 -194T276 -188T248 -178T221 -163L264 -18Q279 -29 291 -33T324 -37Q349 -37 363 -21T377 21V267Q377 305 358 320T307 336Q276 336 258 323T230 298V0H50V483H230V428Q251 452 291 473T396 495Z" horiz-adv-x="607" unicode="ŋ"/>
			<glyph d="M201 815H564V718H201ZM383 678Q460 678 527 653T643 582T720 473T748 333Q748 256 720 192T643 83T527 13T383 -12Q306 -12 239 13T123 83T46 192T18 333Q18 410 46 473T123 582T239 653T383 678ZM383 500Q347 500 317 487T267 451T234 398T223 333Q223 298 234 267T267 214T317 179T383 166Q419 166 448 179T499 214T531 267T543 333Q543 368 531 398T499 451T448 487T383 500Z" horiz-adv-x="766" unicode="Ō"/>
			<glyph d="M107 648H470V551H107ZM288 495Q352 495 403 474T488 419T541 338T560 242Q560 191 541 145T488 64T403 8T288 -12Q224 -12 173 8T88 64T35 145T17 242Q17 293 35 338T88 419T173 474T288 495ZM288 336Q246 336 224 309T202 242Q202 201 224 174T288 147Q330 147 352 174T375 242Q375 282 352 309T288 336Z" unicode="ō"/>
			<glyph d="M383 678Q460 678 527 653T643 582T720 473T748 333Q748 256 720 192T643 83T527 13T383 -12Q306 -12 239 13T123 83T46 192T18 333Q18 410 46 473T123 582T239 653T383 678ZM383 500Q347 500 317 487T267 451T234 398T223 333Q223 298 234 267T267 214T317 179T383 166Q419 166 448 179T499 214T531 267T543 333Q543 368 531 398T499 451T448 487T383 500ZM283 841Q300 818 325 803T383 788Q446 788 483 841L558 779Q528 738 482 714T383 691Q329 691 283 714T207 779Z" horiz-adv-x="766" unicode="Ŏ"/>
			<glyph d="M288 495Q352 495 403 474T488 419T541 338T560 242Q560 191 541 145T488 64T403 8T288 -12Q224 -12 173 8T88 64T35 145T17 242Q17 293 35 338T88 419T173 474T288 495ZM288 336Q246 336 224 309T202 242Q202 201 224 174T288 147Q330 147 352 174T375 242Q375 282 352 309T288 336ZM187 674Q204 651 229 636T287 621Q350 621 387 674L462 612Q432 571 386 547T287 524Q233 524 187 547T111 612Z" unicode="ŏ"/>
			<glyph d="M327 867H462L347 723H247ZM483 867H618L503 723H403ZM383 678Q460 678 527 653T643 582T720 473T748 333Q748 256 720 192T643 83T527 13T383 -12Q306 -12 239 13T123 83T46 192T18 333Q18 410 46 473T123 582T239 653T383 678ZM383 500Q347 500 317 487T267 451T234 398T223 333Q223 298 234 267T267 214T317 179T383 166Q419 166 448 179T499 214T531 267T543 333Q543 368 531 398T499 451T448 487T383 500Z" horiz-adv-x="766" unicode="Ő"/>
			<glyph d="M233 700H368L253 556H153ZM389 700H524L409 556H309ZM288 495Q352 495 403 474T488 419T541 338T560 242Q560 191 541 145T488 64T403 8T288 -12Q224 -12 173 8T88 64T35 145T17 242Q17 293 35 338T88 419T173 474T288 495ZM288 336Q246 336 224 309T202 242Q202 201 224 174T288 147Q330 147 352 174T375 242Q375 282 352 309T288 336Z" unicode="ő"/>
			<glyph d="M360 677Q401 677 447 666T526 631V667H1032V491H728V425H1025V249H728V176H1032V0H526V36Q494 11 447 0T360 -12Q287 -12 224 13T116 83T44 191T18 333Q18 411 44 474T116 583T224 652T360 677ZM391 499Q352 499 320 486T267 450T234 398T223 333Q223 298 234 267T267 214T320 179T391 166Q436 166 471 185T526 237V430Q507 462 471 480T391 499Z" horiz-adv-x="1062" unicode="Œ"/>
			<glyph d="M288 495Q349 495 391 471T466 418Q495 448 535 471T638 495Q691 495 737 476T816 423T869 337T889 223V186H561Q566 176 574 165T596 145T628 130T670 124Q698 124 726 133T772 158L850 48Q832 33 807 21T756 2T700 -8T644 -12Q611 -12 585 -5T537 11T498 35T465 64Q435 34 392 11T288 -12Q224 -12 173 8T88 64T35 145T17 242Q17 293 35 338T88 419T173 474T288 495ZM638 359Q617 359 603 353T580 338T566 319T559 300H718Q716 308 711 318T698 337T674 352T638 359ZM288 336Q252 336 227 313T202 242Q202 194 227 170T288 146Q325 146 350 170T375 242Q375 290 350 313T288 336Z" horiz-adv-x="901" unicode="œ"/>
			<glyph d="M401 867H556L401 723H281ZM54 667H410Q468 667 513 649T588 599T634 526T650 438Q650 395 638 361T609 303T571 262T530 236L651 0H421L329 210H256V0H54ZM256 491V386H379Q405 386 425 398T445 439Q445 466 425 478T379 491Z" horiz-adv-x="678" unicode="Ŕ"/>
			<glyph d="M263 700H418L263 556H143ZM378 497V325Q363 330 337 330Q308 330 276 322T230 296V0H50V483H230V430Q241 443 258 455T294 476T335 491T378 497Z" horiz-adv-x="390" unicode="ŕ"/>
			<glyph d="M341 -42Q375 -42 401 -67T428 -139Q428 -189 403 -231T334 -304L279 -260Q288 -256 298 -248T318 -230T336 -209T347 -187Q342 -190 328 -190Q301 -190 282 -171T263 -121Q263 -88 286 -65T341 -42ZM54 667H410Q468 667 513 649T588 599T634 526T650 438Q650 395 638 361T609 303T571 262T530 236L651 0H421L329 210H256V0H54ZM256 491V386H379Q405 386 425 398T445 439Q445 466 425 478T379 491Z" horiz-adv-x="678" unicode="Ŗ"/>
			<glyph d="M193 -42Q227 -42 253 -67T280 -139Q280 -189 255 -231T186 -304L131 -260Q140 -256 150 -248T170 -230T188 -209T199 -187Q194 -190 180 -190Q153 -190 134 -171T115 -121Q115 -88 138 -65T193 -42ZM378 497V325Q363 330 337 330Q308 330 276 322T230 296V0H50V483H230V430Q241 443 258 455T294 476T335 491T378 497Z" horiz-adv-x="390" unicode="ŗ"/>
			<glyph d="M175 867H280L344 794L405 867H510L422 723H266ZM54 667H410Q468 667 513 649T588 599T634 526T650 438Q650 395 638 361T609 303T571 262T530 236L651 0H421L329 210H256V0H54ZM256 491V386H379Q405 386 425 398T445 439Q445 466 425 478T379 491Z" horiz-adv-x="678" unicode="Ř"/>
			<glyph d="M46 700H151L215 627L276 700H381L293 556H137ZM378 497V325Q363 330 337 330Q308 330 276 322T230 296V0H50V483H230V430Q241 443 258 455T294 476T335 491T378 497Z" horiz-adv-x="390" unicode="ř"/>
			<glyph d="M358 867H513L358 723H238ZM302 677Q384 677 456 654T585 584L477 441Q433 474 381 490T281 507Q251 507 240 498T230 477Q230 461 257 453T326 437T415 418T505 383T573 321T601 220Q601 165 581 122T524 49T433 3T313 -12Q206 -12 131 17T3 94L108 244Q146 208 200 183T323 158Q352 158 374 166T397 194Q397 210 369 217T300 232T211 250T121 285T52 349T25 456Q25 498 42 538T95 609T181 658T302 677Z" horiz-adv-x="613" unicode="Ś"/>
			<glyph d="M296 700H451L296 556H176ZM245 495Q306 495 359 478T454 433L388 316Q365 335 326 350T246 366Q226 366 213 359T201 345Q201 335 221 331T272 322T338 310T404 284T454 235T475 154Q475 118 459 87T414 35T342 0T246 -12Q213 -12 179 -6T113 9T55 32T9 62L81 183Q95 172 116 161T162 141T210 127T255 122Q283 122 293 128T303 143Q303 154 282 158T232 167T166 179T100 203T49 250T29 330Q29 363 43 392T84 445T152 481T245 495Z" horiz-adv-x="490" unicode="ś"/>
			<glyph d="M220 867H376L467 723H362L298 796L237 723H132ZM302 677Q384 677 456 654T585 584L477 441Q433 474 381 490T281 507Q251 507 240 498T230 477Q230 461 257 453T326 437T415 418T505 383T573 321T601 220Q601 165 581 122T524 49T433 3T313 -12Q206 -12 131 17T3 94L108 244Q146 208 200 183T323 158Q352 158 374 166T397 194Q397 210 369 217T300 232T211 250T121 285T52 349T25 456Q25 498 42 538T95 609T181 658T302 677Z" horiz-adv-x="613" unicode="Ŝ"/>
			<glyph d="M166 700H322L413 556H308L244 629L183 556H78ZM245 495Q306 495 359 478T454 433L388 316Q365 335 326 350T246 366Q226 366 213 359T201 345Q201 335 221 331T272 322T338 310T404 284T454 235T475 154Q475 118 459 87T414 35T342 0T246 -12Q213 -12 179 -6T113 9T55 32T9 62L81 183Q95 172 116 161T162 141T210 127T255 122Q283 122 293 128T303 143Q303 154 282 158T232 167T166 179T100 203T49 250T29 330Q29 363 43 392T84 445T152 481T245 495Z" horiz-adv-x="490" unicode="ŝ"/>
			<glyph d="M302 677Q384 677 456 654T585 584L477 441Q433 474 381 490T281 507Q251 507 240 498T230 477Q230 461 257 453T326 437T415 418T505 383T573 321T601 220Q601 112 528 52T327 -12L312 -47Q327 -38 346 -38Q373 -38 393 -58T414 -111Q414 -154 379 -177T296 -200Q256 -200 225 -190T177 -166L208 -102Q228 -116 249 -124T291 -132Q307 -132 320 -126T333 -108Q333 -91 312 -91Q296 -91 286 -103L227 -69L249 -8Q168 0 108 26T3 94L108 244Q146 208 200 183T323 158Q352 158 374 166T397 194Q397 210 369 217T300 232T211 250T121 285T52 349T25 456Q25 498 42 538T95 609T181 658T302 677Z" horiz-adv-x="613" unicode="Ş"/>
			<glyph d="M245 495Q306 495 359 478T454 433L388 316Q365 335 326 350T246 366Q226 366 213 359T201 345Q201 335 221 331T272 322T338 310T404 284T454 235T475 154Q475 87 422 42T276 -11L261 -47Q276 -38 295 -38Q322 -38 342 -58T363 -111Q363 -154 328 -177T245 -200Q205 -200 174 -190T126 -166L157 -102Q177 -116 198 -124T240 -132Q256 -132 269 -126T282 -108Q282 -91 261 -91Q245 -91 235 -103L176 -69L198 -9Q142 -3 91 16T9 62L81 183Q95 172 116 161T162 141T210 127T255 122Q283 122 293 128T303 143Q303 154 282 158T232 167T166 179T100 203T49 250T29 330Q29 363 43 392T84 445T152 481T245 495Z" horiz-adv-x="490" unicode="ş"/>
			<glyph d="M132 867H237L301 794L362 867H467L379 723H223ZM302 677Q384 677 456 654T585 584L477 441Q433 474 381 490T281 507Q251 507 240 498T230 477Q230 461 257 453T326 437T415 418T505 383T573 321T601 220Q601 165 581 122T524 49T433 3T313 -12Q206 -12 131 17T3 94L108 244Q146 208 200 183T323 158Q352 158 374 166T397 194Q397 210 369 217T300 232T211 250T121 285T52 349T25 456Q25 498 42 538T95 609T181 658T302 677Z" horiz-adv-x="613" unicode="Š"/>
			<glyph d="M78 700H183L247 627L308 700H413L325 556H169ZM245 495Q306 495 359 478T454 433L388 316Q365 335 326 350T246 366Q226 366 213 359T201 345Q201 335 221 331T272 322T338 310T404 284T454 235T475 154Q475 118 459 87T414 35T342 0T246 -12Q213 -12 179 -6T113 9T55 32T9 62L81 183Q95 172 116 161T162 141T210 127T255 122Q283 122 293 128T303 143Q303 154 282 158T232 167T166 179T100 203T49 250T29 330Q29 363 43 392T84 445T152 481T245 495Z" horiz-adv-x="490" unicode="š"/>
			<glyph d="M296 -42Q330 -42 356 -67T383 -139Q383 -189 358 -231T289 -304L234 -260Q243 -256 253 -248T273 -230T291 -209T302 -187Q297 -190 283 -190Q256 -190 237 -171T218 -121Q218 -88 241 -65T296 -42ZM18 667H577V491H399V0H197V491H18Z" horiz-adv-x="595" unicode="Ţ"/>
			<glyph d="M189 -42Q223 -42 249 -67T276 -139Q276 -189 251 -231T182 -304L127 -260Q136 -256 146 -248T166 -230T184 -209T195 -187Q190 -190 176 -190Q149 -190 130 -171T111 -121Q111 -88 134 -65T189 -42ZM87 615H267V483H365V327H267V192Q267 173 278 160T307 147Q319 147 329 150T343 156L375 20Q361 7 330 -2T253 -12Q172 -12 129 26T87 140V327H7V483H87Z" horiz-adv-x="382" unicode="ţ"/>
			<glyph d="M130 867H235L299 794L360 867H465L377 723H221ZM18 667H577V491H399V0H197V491H18Z" horiz-adv-x="595" unicode="Ť"/>
			<glyph d="M391 785Q425 785 451 760T478 688Q478 638 453 596T384 523L329 567Q338 571 348 579T368 597T386 618T397 640Q392 637 378 637Q351 637 332 655T313 706Q313 739 336 762T391 785ZM87 615H267V483H365V327H267V192Q267 173 278 160T307 147Q319 147 329 150T343 156L375 20Q361 7 330 -2T253 -12Q172 -12 129 26T87 140V327H7V483H87Z" horiz-adv-x="447" unicode="ť"/>
			<glyph d="M18 667H577V491H399V328H517V231H399V0H197V231H81V328H197V491H18Z" horiz-adv-x="595" unicode="Ŧ"/>
			<glyph d="M87 615H267V483H365V327H267V288H334V191H267Q267 172 278 159T307 147Q319 147 329 150T343 156L375 20Q361 7 330 -2T253 -12Q172 -12 129 26T87 140V191H7V288H87V327H7V483H87Z" horiz-adv-x="382" unicode="ŧ"/>
			<glyph d="M54 667H259V281Q259 233 290 199T384 166Q446 166 477 199T508 281V667H713V275Q713 213 693 160T632 69T530 9T384 -12Q300 -12 237 9T134 69T74 159T54 274ZM333 861Q356 861 372 854T401 839T423 824T443 818Q453 818 460 827T467 855H556Q556 786 526 753T438 721Q415 721 398 727T370 742T348 757T328 764Q318 764 311 755T304 727H215Q215 796 245 828T333 861Z" horiz-adv-x="767" unicode="Ũ"/>
			<glyph d="M50 483H230V215Q230 178 248 162T300 147Q330 147 347 159T376 185V483H556V0H376V54Q365 42 350 30T314 9T268 -6T210 -12Q168 -12 137 0T87 32T59 79T50 138ZM251 694Q274 694 290 687T319 672T341 657T361 651Q371 651 378 660T385 688H474Q474 619 444 586T356 554Q333 554 316 560T288 575T266 590T246 597Q236 597 229 588T222 560H133Q133 629 163 661T251 694Z" horiz-adv-x="606" unicode="ũ"/>
			<glyph d="M54 667H259V281Q259 233 290 199T384 166Q446 166 477 199T508 281V667H713V275Q713 213 693 160T632 69T530 9T384 -12Q300 -12 237 9T134 69T74 159T54 274ZM205 815H568V718H205Z" horiz-adv-x="767" unicode="Ū"/>
			<glyph d="M50 483H230V215Q230 178 248 162T300 147Q330 147 347 159T376 185V483H556V0H376V54Q365 42 350 30T314 9T268 -6T210 -12Q168 -12 137 0T87 32T59 79T50 138ZM121 648H484V551H121Z" horiz-adv-x="606" unicode="ū"/>
			<glyph d="M54 667H259V281Q259 233 290 199T384 166Q446 166 477 199T508 281V667H713V275Q713 213 693 160T632 69T530 9T384 -12Q300 -12 237 9T134 69T74 159T54 274ZM286 841Q303 818 328 803T386 788Q449 788 486 841L561 779Q531 738 485 714T386 691Q332 691 286 714T210 779Z" horiz-adv-x="767" unicode="Ŭ"/>
			<glyph d="M50 483H230V215Q230 178 248 162T300 147Q330 147 347 159T376 185V483H556V0H376V54Q365 42 350 30T314 9T268 -6T210 -12Q168 -12 137 0T87 32T59 79T50 138ZM206 674Q223 651 248 636T306 621Q369 621 406 674L481 612Q451 571 405 547T306 524Q252 524 206 547T130 612Z" horiz-adv-x="606" unicode="ŭ"/>
			<glyph d="M387 910Q410 910 430 901T465 877T488 841T497 798Q497 775 488 754T465 719T430 695T387 686Q364 686 343 695T308 719T284 754T275 798Q275 821 284 841T308 877T343 901T387 910ZM387 833Q373 833 362 822T352 798Q352 784 362 773T387 763Q401 763 411 773T421 798Q421 812 411 822T387 833ZM54 667H259V281Q259 233 290 199T384 166Q446 166 477 199T508 281V667H713V275Q713 213 693 160T632 69T530 9T384 -12Q300 -12 237 9T134 69T74 159T54 274Z" horiz-adv-x="767" unicode="Ů"/>
			<glyph d="M304 743Q327 743 347 734T382 710T405 674T414 631Q414 608 405 587T382 552T347 528T304 519Q281 519 260 528T225 552T201 587T192 631Q192 654 201 674T225 710T260 734T304 743ZM304 666Q290 666 279 655T269 631Q269 617 279 606T304 596Q318 596 328 606T338 631Q338 645 328 655T304 666ZM50 483H230V215Q230 178 248 162T300 147Q330 147 347 159T376 185V483H556V0H376V54Q365 42 350 30T314 9T268 -6T210 -12Q168 -12 137 0T87 32T59 79T50 138Z" horiz-adv-x="606" unicode="ů"/>
			<glyph d="M54 667H259V281Q259 233 290 199T384 166Q446 166 477 199T508 281V667H713V275Q713 213 693 160T632 69T530 9T384 -12Q300 -12 237 9T134 69T74 159T54 274ZM331 867H466L351 723H251ZM487 867H622L507 723H407Z" horiz-adv-x="767" unicode="Ű"/>
			<glyph d="M50 483H230V215Q230 178 248 162T300 147Q330 147 347 159T376 185V483H556V0H376V54Q365 42 350 30T314 9T268 -6T210 -12Q168 -12 137 0T87 32T59 79T50 138ZM247 700H382L267 556H167ZM403 700H538L423 556H323Z" horiz-adv-x="606" unicode="ű"/>
			<glyph d="M54 667H259V281Q259 233 290 199T384 166Q446 166 477 199T508 281V667H713V275Q713 224 700 179T660 99T592 38T497 0Q460 -19 446 -40T432 -84Q432 -104 442 -111T461 -118Q475 -118 483 -109T496 -90L562 -133Q545 -158 520 -172T461 -186Q440 -186 420 -180T384 -164T360 -135T351 -92Q351 -48 379 -12Q296 -11 234 10T133 70T73 160T54 274Z" horiz-adv-x="767" unicode="Ų"/>
			<glyph d="M50 483H230V215Q230 178 248 162T300 147Q330 147 347 159T376 185V483H556V0Q519 -19 505 -40T491 -84Q491 -104 501 -111T520 -118Q534 -118 542 -109T555 -90L621 -133Q604 -158 579 -172T520 -186Q499 -186 479 -180T443 -164T419 -135T410 -92Q410 -39 449 0H376V54Q365 42 350 30T314 9T268 -6T210 -12Q168 -12 137 0T87 32T59 79T50 138Z" horiz-adv-x="606" unicode="ų"/>
			<glyph d="M398 867H554L645 723H540L476 796L415 723H310ZM-12 667H214L300 259L401 667H553L654 259L739 667H966L775 0H563L477 378L391 0H179Z" horiz-adv-x="954" unicode="Ŵ"/>
			<glyph d="M323 700H479L570 556H465L401 629L340 556H235ZM-12 483H173L237 217L322 483H483L567 217L631 483H817L677 0H481L402 270L324 0H128Z" horiz-adv-x="805" unicode="ŵ"/>
			<glyph d="M255 867H411L502 723H397L333 796L272 723H167ZM-18 667H209L333 442L455 667H682L434 265V0H232V265Z" horiz-adv-x="664" unicode="Ŷ"/>
			<glyph d="M-15 483H175L267 207L360 483H550L340 -60Q324 -102 301 -128T249 -169T187 -189T115 -196Q110 -196 101 -195T81 -194T61 -191T45 -188L70 -28Q78 -33 88 -35T108 -37Q162 -37 171 -18L175 -8ZM188 700H344L435 556H330L266 629L205 556H100Z" horiz-adv-x="535" unicode="ŷ"/>
			<glyph d="M441 874Q479 874 505 848T531 785Q531 747 505 721T441 696Q404 696 378 721T352 785Q352 823 378 848T441 874ZM225 874Q263 874 288 848T314 785Q314 747 288 721T225 696Q187 696 161 721T136 785Q136 823 161 848T225 874ZM-18 667H209L333 442L455 667H682L434 265V0H232V265Z" horiz-adv-x="664" unicode="Ÿ"/>
			<glyph d="M300 867H455L300 723H180ZM36 667H557V508L302 176H564V0H36V160L290 491H36Z" horiz-adv-x="600" unicode="Ź"/>
			<glyph d="M294 700H449L294 556H174ZM33 483H449V357L275 156H453V0H33V132L203 327H33Z" horiz-adv-x="486" unicode="ź"/>
			<glyph d="M36 667H557V508L302 176H564V0H36V160L290 491H36ZM292 875Q310 875 326 868T354 849T373 820T380 786Q380 768 373 751T354 723T326 704T292 697Q255 697 229 723T203 786Q203 823 229 849T292 875Z" horiz-adv-x="600" unicode="Ż"/>
			<glyph d="M33 483H449V357L275 156H453V0H33V132L203 327H33ZM241 708Q259 708 275 701T303 682T322 653T329 619Q329 601 322 584T303 556T275 537T241 530Q204 530 178 556T152 619Q152 656 178 682T241 708Z" horiz-adv-x="486" unicode="ż"/>
			<glyph d="M133 867H238L302 794L363 867H468L380 723H224ZM36 667H557V508L302 176H564V0H36V160L290 491H36Z" horiz-adv-x="600" unicode="Ž"/>
			<glyph d="M70 700H175L239 627L300 700H405L317 556H161ZM33 483H449V357L275 156H453V0H33V132L203 327H33Z" horiz-adv-x="486" unicode="ž"/>
			<glyph d="M271 677Q313 677 354 664T422 625L357 525Q341 544 310 544Q295 544 281 533T267 505V0H87V327H7V483H87V505Q87 543 100 574T138 629T197 664T271 677Z" horiz-adv-x="371" unicode="ſ"/>
			<glyph d="M359 677Q401 677 437 666T500 628L429 481Q414 501 386 501Q369 501 354 490T334 459L316 379H403V223H282L196 -161H-10L75 223H35V379H109L137 506Q145 543 166 574T216 629T282 664T359 677Z" horiz-adv-x="477" unicode="ƒ"/>
			<glyph d="M689 752Q719 752 742 730T765 667Q765 625 745 589T690 528Q718 487 733 438T748 333Q748 256 720 192T643 83T527 13T383 -12Q306 -12 239 13T123 83T46 192T18 333Q18 410 46 473T123 582T239 653T383 678Q464 678 533 650T653 572Q666 582 678 596T695 625Q690 622 678 622Q654 622 637 638T621 683Q621 712 641 732T689 752ZM383 500Q347 500 317 487T267 451T234 398T223 333Q223 298 234 267T267 214T317 179T383 166Q419 166 448 179T499 214T531 267T543 333Q543 368 531 398T499 451T448 487T383 500Z" horiz-adv-x="766" unicode="Ơ"/>
			<glyph d="M501 619Q531 619 554 597T577 534Q577 494 558 459T506 398Q560 330 560 242Q560 191 541 145T488 64T403 8T288 -12Q224 -12 173 8T88 64T35 145T17 242Q17 293 35 338T88 419T173 474T288 495Q342 495 386 480T465 440Q478 450 490 464T507 492Q502 489 490 489Q466 489 449 505T433 550Q433 579 453 599T501 619ZM288 336Q246 336 224 309T202 242Q202 201 224 174T288 147Q330 147 352 174T375 242Q375 282 352 309T288 336Z" unicode="ơ"/>
			<glyph d="M741 810Q771 810 794 788T817 725Q817 683 792 639T713 567V275Q713 213 693 160T632 69T530 9T384 -12Q300 -12 237 9T134 69T74 159T54 274V667H259V281Q259 233 290 199T384 166Q446 166 477 199T508 281V667H713V637Q724 647 733 659T747 683Q742 680 730 680Q706 680 689 696T673 741Q673 770 693 790T741 810Z" horiz-adv-x="767" unicode="Ư"/>
			<glyph d="M551 639Q581 639 604 617T627 554Q627 520 610 483T556 417V0H376V54Q365 42 350 30T314 9T268 -6T210 -12Q168 -12 137 0T87 32T59 79T50 138V483H230V215Q230 178 248 162T300 147Q330 147 347 159T376 185V483H539Q551 496 557 512Q552 509 540 509Q516 509 499 525T483 570Q483 599 503 619T551 639Z" horiz-adv-x="606" unicode="ư"/>
			<glyph d="M605 867H760L605 723H485ZM370 667H959V491H655V425H952V249H655V176H959V0H453V78H246L205 0H-25ZM453 469L340 254H453Z" horiz-adv-x="989" unicode="Ǽ"/>
			<glyph d="M473 700H628L473 556H353ZM272 495Q331 495 367 479T428 436Q455 460 495 477T598 495Q647 495 691 476T768 423T820 337T839 223V186H520Q530 166 554 147T624 129Q651 129 678 138T722 163L800 48Q782 33 758 21T707 2T654 -8T603 -12Q550 -12 507 3T428 53Q395 25 344 6T230 -12Q186 -12 147 -3T80 25T34 73T17 144Q17 184 30 214T67 263T121 291T186 301Q232 301 274 287T338 249V298Q338 323 314 340T244 357Q209 357 172 345T105 310L44 422Q93 461 155 478T272 495ZM592 358Q573 358 560 352T538 337T525 319T518 300H668Q666 308 661 318T648 337T626 352T592 358ZM262 184Q238 184 216 175T195 149Q195 140 200 133T214 123T232 117T251 115Q288 115 313 127T338 154V157Q328 170 306 177T262 184Z" horiz-adv-x="851" unicode="ǽ"/>
			<glyph d="M432 867H587L432 723H312ZM383 678Q432 678 476 667T561 638L586 667H724L648 577Q695 532 721 470T748 333Q748 256 720 192T643 83T527 13T383 -12Q273 -12 187 37L156 0H18L105 102Q63 147 40 205T18 333Q18 410 46 473T123 582T239 653T383 678ZM518 425L311 182Q345 166 383 166Q419 166 448 179T499 214T531 267T543 333Q543 384 518 425ZM383 500Q347 500 317 487T267 451T234 398T223 333Q223 291 238 258L436 491Q412 500 383 500Z" horiz-adv-x="766" unicode="Ǿ"/>
			<glyph d="M338 700H493L338 556H218ZM288 495Q331 495 367 486T434 460L455 483H560L495 412Q527 377 543 333T560 242Q560 191 541 145T488 64T403 8T288 -12Q244 -12 207 -2T141 24L119 0H17L81 71Q49 106 33 150T17 242Q17 293 35 338T88 419T173 474T288 495ZM370 275L257 152Q272 147 288 147Q330 147 352 174T375 242Q375 258 370 275ZM288 336Q246 336 224 309T202 242Q202 222 206 209L317 332Q305 336 288 336Z" unicode="ǿ"/>
			<glyph d="M302 -42Q336 -42 362 -67T389 -139Q389 -189 364 -231T295 -304L240 -260Q249 -256 259 -248T279 -230T297 -209T308 -187Q303 -190 289 -190Q262 -190 243 -171T224 -121Q224 -88 247 -65T302 -42ZM302 677Q384 677 456 654T585 584L477 441Q433 474 381 490T281 507Q251 507 240 498T230 477Q230 461 257 453T326 437T415 418T505 383T573 321T601 220Q601 165 581 122T524 49T433 3T313 -12Q206 -12 131 17T3 94L108 244Q146 208 200 183T323 158Q352 158 374 166T397 194Q397 210 369 217T300 232T211 250T121 285T52 349T25 456Q25 498 42 538T95 609T181 658T302 677Z" horiz-adv-x="613" unicode="Ș"/>
			<glyph d="M249 -42Q283 -42 309 -67T336 -139Q336 -189 311 -231T242 -304L187 -260Q196 -256 206 -248T226 -230T244 -209T255 -187Q250 -190 236 -190Q209 -190 190 -171T171 -121Q171 -88 194 -65T249 -42ZM245 495Q306 495 359 478T454 433L388 316Q365 335 326 350T246 366Q226 366 213 359T201 345Q201 335 221 331T272 322T338 310T404 284T454 235T475 154Q475 118 459 87T414 35T342 0T246 -12Q213 -12 179 -6T113 9T55 32T9 62L81 183Q95 172 116 161T162 141T210 127T255 122Q283 122 293 128T303 143Q303 154 282 158T232 167T166 179T100 203T49 250T29 330Q29 363 43 392T84 445T152 481T245 495Z" horiz-adv-x="490" unicode="ș"/>
			<glyph d="M296 -42Q330 -42 356 -67T383 -139Q383 -189 358 -231T289 -304L234 -260Q243 -256 253 -248T273 -230T291 -209T302 -187Q297 -190 283 -190Q256 -190 237 -171T218 -121Q218 -88 241 -65T296 -42ZM18 667H577V491H399V0H197V491H18Z" horiz-adv-x="595" unicode="Ț"/>
			<glyph d="M189 -42Q223 -42 249 -67T276 -139Q276 -189 251 -231T182 -304L127 -260Q136 -256 146 -248T166 -230T184 -209T195 -187Q190 -190 176 -190Q149 -190 130 -171T111 -121Q111 -88 134 -65T189 -42ZM87 615H267V483H365V327H267V192Q267 173 278 160T307 147Q319 147 329 150T343 156L375 20Q361 7 330 -2T253 -12Q172 -12 129 26T87 140V327H7V483H87Z" horiz-adv-x="382" unicode="ț"/>
			<glyph d="M50 483H230V21Q230 -26 218 -65T182 -134T119 -179T29 -196Q2 -196 -17 -194T-51 -188T-78 -178T-106 -163L-63 -18Q-48 -29 -36 -33T-3 -37Q22 -37 36 -21T50 21Z" horiz-adv-x="280" unicode="ȷ"/>
			<glyph d="M40 760H166V606Q180 621 205 634T276 648Q333 648 358 618T384 548V326H257V500Q257 523 245 532T212 541Q194 541 183 534T166 520V326H40Z" horiz-adv-x="424" unicode="ʰ"/>
			<glyph d="M138 677Q161 677 182 668T219 643T244 603T254 548Q254 482 221 426T129 328L56 387Q68 392 82 402T108 426T131 454T147 483Q137 479 121 479Q85 479 59 504T34 572Q34 594 42 613T65 646T98 668T138 677Z" horiz-adv-x="281" unicode="ʼ"/>
			<glyph d="M88 700H244L335 556H230L166 629L105 556H0Z" horiz-adv-x="335" unicode="ˆ"/>
			<glyph d="M0 700H105L169 627L230 700H335L247 556H91Z" horiz-adv-x="335" unicode="ˇ"/>
			<glyph d="M0 688H363V591H0Z" horiz-adv-x="363" unicode="ˉ"/>
			<glyph d="M0 700H155L275 556H155Z" horiz-adv-x="275" unicode="ˋ"/>
			<glyph d="M76 674Q93 651 118 636T176 621Q239 621 276 674L351 612Q321 571 275 547T176 524Q122 524 76 547T0 612Z" horiz-adv-x="351" unicode="˘"/>
			<glyph d="M119 708Q137 708 153 701T181 682T200 653T207 619Q207 601 200 584T181 556T153 537T119 530Q82 530 56 556T30 619Q30 656 56 682T119 708Z" horiz-adv-x="237" unicode="˙"/>
			<glyph d="M112 743Q135 743 155 734T190 710T213 674T222 631Q222 608 213 587T190 552T155 528T112 519Q89 519 68 528T33 552T9 587T0 631Q0 654 9 674T33 710T68 734T112 743ZM112 666Q98 666 87 655T77 631Q77 617 87 606T112 596Q126 596 136 606T146 631Q146 645 136 655T112 666Z" horiz-adv-x="222" unicode="˚"/>
			<glyph d="M89 37L146 0Q109 -19 95 -40T81 -84Q81 -104 91 -111T110 -118Q124 -118 132 -109T145 -90L211 -133Q194 -158 169 -172T110 -186Q89 -186 69 -180T33 -164T9 -135T0 -92Q0 -51 22 -19T89 37Z" horiz-adv-x="211" unicode="˛"/>
			<glyph d="M118 694Q141 694 157 687T186 672T208 657T228 651Q238 651 245 660T252 688H341Q341 619 311 586T223 554Q200 554 183 560T155 575T133 590T113 597Q103 597 96 588T89 560H0Q0 629 30 661T118 694Z" horiz-adv-x="341" unicode="˜"/>
			<glyph d="M80 700H215L100 556H0ZM236 700H371L256 556H156Z" horiz-adv-x="371" unicode="˝"/>
			<glyph d="M101 790Q136 790 162 772T189 715Q189 701 185 689T177 667H107Q124 685 124 711Q124 725 116 730T101 736Q90 736 83 729T73 713L15 732Q26 763 49 776T101 790Z" horiz-adv-x="211" unicode="̉"/>
			<glyph d="M141 490Q163 490 182 481T216 458T239 425T248 384Q248 362 239 342T216 308T182 284T141 276Q119 276 99 284T65 308T42 342T34 384Q34 406 42 425T65 458T99 481T141 490ZM138 203Q161 203 182 194T219 169T244 129T254 74Q254 8 221 -48T129 -146L56 -87Q68 -82 82 -71T108 -48T131 -20T147 9Q137 5 121 5Q85 5 59 30T34 98Q34 120 42 139T65 172T98 194T138 203Z" horiz-adv-x="281" unicode=";"/>
			<glyph d="M141 765H275L193 541H119Z" horiz-adv-x="252" unicode="΄"/>
			<glyph d="M266 765H401L319 541H244ZM468 707Q506 707 532 681T558 618Q558 580 532 554T468 529Q431 529 405 554T379 618Q379 656 405 681T468 707ZM137 707Q175 707 200 681T226 618Q226 580 200 554T137 529Q99 529 73 554T48 618Q48 656 73 681T137 707Z" horiz-adv-x="607" unicode="΅"/>
			<glyph d="M97 765H231L149 541H75ZM228 667H482L728 0H499L475 78H235L211 0H-18ZM355 469L289 254H421Z" horiz-adv-x="710" unicode="Ά"/>
			<glyph d="M1 765H135L53 541H-21ZM110 667H616V491H312V425H609V249H312V176H616V0H110Z" horiz-adv-x="652" unicode="Έ"/>
			<glyph d="M1 765H135L53 541H-21ZM110 667H312V431H551V667H753V0H551V255H312V0H110Z" horiz-adv-x="807" unicode="Ή"/>
			<glyph d="M1 765H135L53 541H-21ZM110 667H312V0H110Z" horiz-adv-x="366" unicode="Ί"/>
			<glyph d="M1 765H135L53 541H-21ZM383 678Q460 678 527 653T643 582T720 473T748 333Q748 256 720 192T643 83T527 13T383 -12Q306 -12 239 13T123 83T46 192T18 333Q18 410 46 473T123 582T239 653T383 678ZM383 500Q347 500 317 487T267 451T234 398T223 333Q223 298 234 267T267 214T317 179T383 166Q419 166 448 179T499 214T531 267T543 333Q543 368 531 398T499 451T448 487T383 500Z" horiz-adv-x="766" unicode="Ό"/>
			<glyph d="M1 765H135L53 541H-21ZM93 667H320L444 442L566 667H793L545 265V0H343V265Z" horiz-adv-x="775" unicode="Ύ"/>
			<glyph d="M1 765H135L53 541H-21ZM397 678Q474 678 541 658T657 601T734 509T762 383Q762 347 751 316T722 259T684 212T643 176H745V0H447V176Q477 185 498 202T532 242T551 288T557 335Q557 359 549 387T524 441T475 482T397 499Q350 499 319 482T270 441T244 387T237 335Q237 312 243 288T262 242T296 202T347 176V0H49V176H152Q132 192 110 212T71 259T43 316T32 383Q32 454 60 509T137 601T253 658T397 678Z" horiz-adv-x="780" unicode="Ώ"/>
			<glyph d="M111 765H246L164 541H89ZM313 707Q351 707 377 681T403 618Q403 580 377 554T313 529Q276 529 250 554T224 618Q224 656 250 681T313 707ZM-18 707Q20 707 45 681T71 618Q71 580 45 554T-18 529Q-56 529 -81 554T-107 618Q-107 656 -81 681T-18 707ZM50 483H230V178Q230 162 240 154T264 147Q274 147 283 150L294 -2Q279 -7 257 -9T216 -12Q135 -12 92 26T50 140Z" horiz-adv-x="294" unicode="ΐ"/>
			<glyph d="M228 667H482L728 0H499L475 78H235L211 0H-18ZM355 469L289 254H421Z" horiz-adv-x="710" unicode="Α"/>
			<glyph d="M54 667H459Q511 667 548 651T610 611T645 556T657 497Q657 434 624 394T543 344Q570 340 593 326T633 290T660 241T670 181Q670 146 658 113T621 55T560 15T473 0H54ZM256 499V421H412Q428 421 440 432T452 461Q452 478 440 488T412 499ZM256 253V168H418Q440 168 452 179T465 210Q465 228 452 240T418 253Z" horiz-adv-x="697" unicode="Β"/>
			<glyph d="M54 667H560V491H256V0H54Z" horiz-adv-x="592" unicode="Γ"/>
			<glyph d="M228 667H482L728 0H-18ZM355 469L265 176H445Z" horiz-adv-x="710" unicode="Δ"/>
			<glyph d="M54 667H560V491H256V425H553V249H256V176H560V0H54Z" horiz-adv-x="596" unicode="Ε"/>
			<glyph d="M36 667H557V508L302 176H564V0H36V160L290 491H36Z" horiz-adv-x="600" unicode="Ζ"/>
			<glyph d="M54 667H256V431H495V667H697V0H495V255H256V0H54Z" horiz-adv-x="751" unicode="Η"/>
			<glyph d="M263 425H503V249H263ZM383 678Q460 678 527 653T643 582T720 473T748 333Q748 256 720 192T643 83T527 13T383 -12Q306 -12 239 13T123 83T46 192T18 333Q18 410 46 473T123 582T239 653T383 678ZM383 500Q347 500 317 487T267 451T234 398T223 333Q223 298 234 267T267 214T317 179T383 166Q419 166 448 179T499 214T531 267T543 333Q543 368 531 398T499 451T448 487T383 500Z" horiz-adv-x="766" unicode="Θ"/>
			<glyph d="M54 667H256V0H54Z" horiz-adv-x="310" unicode="Ι"/>
			<glyph d="M54 667H256V417L431 667H678L426 357L689 0H443L293 235L256 185V0H54Z" horiz-adv-x="671" unicode="Κ"/>
			<glyph d="M228 667H482L728 0H499L355 469L211 0H-18Z" horiz-adv-x="710" unicode="Λ"/>
			<glyph d="M54 667H333L450 347L567 667H846V0H644V401L495 0H405L256 401V0H54Z" horiz-adv-x="900" unicode="Μ"/>
			<glyph d="M54 667H262L494 351V667H696V0H502L256 338V0H54Z" horiz-adv-x="750" unicode="Ν"/>
			<glyph d="M36 667H595V491H36ZM37 176H596V0H37ZM43 425H589V249H43Z" horiz-adv-x="632" unicode="Ξ"/>
			<glyph d="M383 678Q460 678 527 653T643 582T720 473T748 333Q748 256 720 192T643 83T527 13T383 -12Q306 -12 239 13T123 83T46 192T18 333Q18 410 46 473T123 582T239 653T383 678ZM383 500Q347 500 317 487T267 451T234 398T223 333Q223 298 234 267T267 214T317 179T383 166Q419 166 448 179T499 214T531 267T543 333Q543 368 531 398T499 451T448 487T383 500Z" horiz-adv-x="766" unicode="Ο"/>
			<glyph d="M54 667H697V0H495V491H256V0H54Z" horiz-adv-x="751" unicode="Π"/>
			<glyph d="M54 667H410Q468 667 513 649T588 599T634 526T650 438Q650 391 634 350T588 277T513 228T410 210H256V0H54ZM256 491V386H384Q410 386 427 399T445 438Q445 465 427 478T384 491Z" horiz-adv-x="662" unicode="Ρ"/>
			<glyph d="M37 667H560V491H290L460 340L281 176H560V0H36V176L211 339L37 492Z" horiz-adv-x="596" unicode="Σ"/>
			<glyph d="M18 667H577V491H399V0H197V491H18Z" horiz-adv-x="595" unicode="Τ"/>
			<glyph d="M-18 667H209L333 442L455 667H682L434 265V0H232V265Z" horiz-adv-x="664" unicode="Υ"/>
			<glyph d="M351 667H553V597Q711 582 798 517T886 333Q886 214 798 148T553 68V0H351V68Q192 83 105 148T18 333Q18 452 105 517T351 597ZM351 419Q223 403 223 333Q223 262 351 247ZM553 419V247Q681 262 681 333Q681 403 553 419Z" horiz-adv-x="904" unicode="Φ"/>
			<glyph d="M-3 667H234L342 477L448 667H687L479 343L702 0H464L342 204L220 0H-18L205 342Z" horiz-adv-x="684" unicode="Χ"/>
			<glyph d="M54 667H259V417Q259 337 368 311V667H570V312Q624 324 650 351T677 417V667H883V411Q883 357 864 310T806 226T709 164T570 130V0H368V130Q288 140 229 164T131 225T73 309T54 410Z" horiz-adv-x="937" unicode="Ψ"/>
			<glyph d="M383 678Q460 678 527 658T643 601T720 509T748 383Q748 347 737 316T708 259T670 212T629 176H731V0H433V176Q463 185 484 202T518 242T537 288T543 335Q543 359 535 387T510 441T461 482T383 499Q336 499 305 482T256 441T230 387T223 335Q223 312 229 288T248 242T282 202T333 176V0H35V176H138Q118 192 96 212T57 259T29 316T18 383Q18 454 46 509T123 601T239 658T383 678Z" horiz-adv-x="766" unicode="Ω"/>
			<glyph d="M54 667H256V0H54ZM264 891Q302 891 328 865T354 802Q354 764 328 738T264 713Q227 713 201 738T175 802Q175 840 201 865T264 891ZM48 891Q86 891 111 865T137 802Q137 764 111 738T48 713Q10 713 -15 738T-41 802Q-41 840 -15 865T48 891Z" horiz-adv-x="310" unicode="Ϊ"/>
			<glyph d="M-18 667H209L333 442L455 667H682L434 265V0H232V265ZM439 891Q477 891 503 865T529 802Q529 764 503 738T439 713Q402 713 376 738T350 802Q350 840 376 865T439 891ZM223 891Q261 891 286 865T312 802Q312 764 286 738T223 713Q185 713 159 738T134 802Q134 840 159 865T223 891Z" horiz-adv-x="664" unicode="Ϋ"/>
			<glyph d="M279 765H413L331 541H257ZM230 495Q267 495 301 481T365 432V483H546V178Q546 162 556 154T580 147Q590 147 599 150L610 -2Q595 -7 573 -9T532 -12Q475 -12 435 8T378 70Q354 30 315 9T230 -12Q186 -12 147 4T80 53T34 132T17 242Q17 302 33 349T79 428T146 478T230 495ZM291 335Q254 335 227 311T201 242Q201 197 227 172T291 147Q309 147 331 155T366 180V303Q353 319 331 327T291 335Z" horiz-adv-x="610" unicode="ά"/>
			<glyph d="M220 765H354L272 541H198ZM275 494Q342 494 396 471T488 412L403 311Q349 360 266 360Q240 360 226 353T212 336Q212 330 213 325T220 317T237 311T268 309H358V177H268Q232 177 217 168T203 147Q203 136 215 129T262 123Q278 123 297 125T337 134T376 148T413 169L493 64Q458 31 398 9T262 -12Q206 -12 160 -1T83 29T34 76T17 136Q17 161 29 181T59 216T101 239T148 249Q122 253 99 263T60 289T35 321T26 359Q26 389 41 414T87 457T164 484T275 494Z" horiz-adv-x="493" unicode="έ"/>
			<glyph d="M277 765H411L329 541H255ZM396 495Q438 495 468 483T518 450T547 402T557 343V-184H377V267Q377 305 358 320T307 336Q276 336 258 323T230 298V0H50V483H230V428Q251 452 291 473T396 495Z" horiz-adv-x="607" unicode="ή"/>
			<glyph d="M122 765H256L174 541H100ZM50 483H230V178Q230 162 240 154T264 147Q274 147 283 150L294 -2Q279 -7 257 -9T216 -12Q135 -12 92 26T50 140Z" horiz-adv-x="294" unicode="ί"/>
			<glyph d="M260 765H395L313 541H238ZM462 707Q500 707 526 681T552 618Q552 580 526 554T462 529Q425 529 399 554T373 618Q373 656 399 681T462 707ZM131 707Q169 707 194 681T220 618Q220 580 194 554T131 529Q93 529 67 554T42 618Q42 656 67 681T131 707ZM512 495Q546 441 560 380T575 269Q575 207 556 155T503 67T418 9T303 -12Q238 -12 190 5T112 54T65 129T50 224V483H230V227Q230 193 249 170T303 147Q345 147 367 177T390 269Q390 306 378 349T345 428Z" horiz-adv-x="592" unicode="ΰ"/>
			<glyph d="M230 495Q267 495 301 481T365 432V483H546V178Q546 162 556 154T580 147Q590 147 599 150L610 -2Q595 -7 573 -9T532 -12Q475 -12 435 8T378 70Q354 30 315 9T230 -12Q186 -12 147 4T80 53T34 132T17 242Q17 302 33 349T79 428T146 478T230 495ZM291 335Q254 335 227 311T201 242Q201 197 227 172T291 147Q309 147 331 155T366 180V303Q353 319 331 327T291 335Z" horiz-adv-x="610" unicode="α"/>
			<glyph d="M316 517Q274 517 252 495T230 441V179Q247 163 269 155T321 147Q357 147 376 163T395 202Q395 224 377 239T321 255H277V415H315Q350 415 364 430T379 466Q379 490 362 503T316 517ZM316 677Q379 677 426 663T503 625T549 567T564 492Q564 438 525 396T422 344Q450 341 478 329T528 295T565 240T579 165Q579 129 562 97T519 40T457 2T386 -12Q334 -12 297 2T230 51V-184H50V441Q50 507 75 552T139 624T225 664T316 677Z" horiz-adv-x="596" unicode="β"/>
			<glyph d="M-25 483H175Q195 455 214 418T248 343T273 268T288 201Q298 220 308 253T327 326T340 406T345 483H525Q525 423 511 356T475 226T421 105T357 5V-184H177V-105Q177 -20 161 64T119 224T55 366T-25 483Z" horiz-adv-x="535" unicode="γ"/>
			<glyph d="M288 679Q349 679 402 662T497 617L431 489Q408 508 369 523T289 539Q269 539 256 534T244 521Q244 512 267 505T326 489T402 462T478 416T536 342T560 230Q560 180 543 136T494 59T412 7T299 -12Q231 -12 178 7T90 59T35 136T17 232Q17 296 45 344T110 418Q93 435 82 458T72 514Q72 547 86 576T127 629T195 665T288 679ZM262 346Q231 326 216 294T202 239Q202 195 227 171T294 147Q339 147 363 169T387 230Q387 255 376 273T349 305T309 327T262 346Z" unicode="δ"/>
			<glyph d="M275 494Q342 494 396 471T488 412L403 311Q349 360 266 360Q240 360 226 353T212 336Q212 330 213 325T220 317T237 311T268 309H358V177H268Q232 177 217 168T203 147Q203 136 215 129T262 123Q278 123 297 125T337 134T376 148T413 169L493 64Q458 31 398 9T262 -12Q206 -12 160 -1T83 29T34 76T17 136Q17 161 29 181T59 216T101 239T148 249Q122 253 99 263T60 289T35 321T26 359Q26 389 41 414T87 457T164 484T275 494Z" horiz-adv-x="493" unicode="ε"/>
			<glyph d="M33 667H449V541Q408 520 364 486T284 410T224 320T201 226Q201 180 225 163T296 147Q390 147 427 115T465 25Q465 -13 448 -58T402 -157H214Q222 -147 233 -128T255 -90T273 -51T281 -21Q281 -12 272 -12Q213 -12 166 3T86 48T35 118T17 211Q17 257 31 300T71 383T134 454T218 511H33Z" horiz-adv-x="482" unicode="ζ"/>
			<glyph d="M396 495Q438 495 468 483T518 450T547 402T557 343V-184H377V267Q377 305 358 320T307 336Q276 336 258 323T230 298V0H50V483H230V428Q251 452 291 473T396 495Z" horiz-adv-x="607" unicode="η"/>
			<glyph d="M288 679Q352 679 403 651T488 576T541 466T560 334Q560 265 541 202T488 92T403 16T288 -12Q224 -12 173 16T88 92T35 202T17 334Q17 403 35 466T88 576T173 651T288 679ZM206 257Q213 197 233 172T288 147Q323 147 343 172T371 257ZM288 520Q253 520 233 495T206 413H371Q363 470 343 495T288 520Z" unicode="θ"/>
			<glyph d="M50 483H230V178Q230 162 240 154T264 147Q274 147 283 150L294 -2Q279 -7 257 -9T216 -12Q135 -12 92 26T50 140Z" horiz-adv-x="294" unicode="ι"/>
			<glyph d="M50 483H230V311L341 483H558L392 263L569 0H348L265 156L230 109V0H50Z" horiz-adv-x="557" unicode="κ"/>
			<glyph d="M115 679Q153 678 187 672T249 652T301 611T340 543L550 0H360L267 276L175 0H-15L175 491L171 501Q162 520 108 520Q99 520 88 518T70 511L45 671Q51 673 61 674T81 677T101 678T115 679Z" horiz-adv-x="535" unicode="λ"/>
			<glyph d="M50 483H230V215Q230 178 248 162T300 147Q330 147 347 159T376 185V483H556V178Q556 162 566 154T590 147Q600 147 609 150L620 -2Q605 -7 583 -9T542 -12Q482 -12 443 9T386 75Q370 37 340 12T269 -12Q257 -12 246 -9T230 -4V-184H50Z" horiz-adv-x="620" unicode="μ"/>
			<glyph d="M-15 483H175L276 179Q294 209 307 247T328 326T341 407T345 483H525Q525 422 511 354T473 222T419 100T353 0H172Z" horiz-adv-x="535" unicode="ν"/>
			<glyph d="M40 667H449V511H257Q237 505 225 492T213 459Q213 437 233 424T296 412H446V258H296Q202 258 202 200Q202 147 296 147Q390 147 427 115T465 25Q465 -13 448 -58T402 -157H214Q222 -147 233 -128T255 -90T273 -51T281 -21Q281 -12 272 -12Q208 -12 160 1T80 37T33 91T17 161Q17 217 45 251T121 303Q82 310 55 334T28 400Q28 436 51 466T112 511H40Z" horiz-adv-x="482" unicode="ξ"/>
			<glyph d="M288 495Q352 495 403 474T488 419T541 338T560 242Q560 191 541 145T488 64T403 8T288 -12Q224 -12 173 8T88 64T35 145T17 242Q17 293 35 338T88 419T173 474T288 495ZM288 336Q246 336 224 309T202 242Q202 201 224 174T288 147Q330 147 352 174T375 242Q375 282 352 309T288 336Z" unicode="ο"/>
			<glyph d="M7 483H674V327H594V0H414V327H267V0H87V327H7Z" horiz-adv-x="681" unicode="π"/>
			<glyph d="M314 495Q377 495 426 474T508 419T560 338T578 242Q578 180 561 132T516 53T449 4T366 -12Q328 -12 294 2T230 51V-184H50V242Q50 293 68 338T119 419T202 474T314 495ZM312 336Q272 336 251 309T230 242V180Q242 165 264 156T304 147Q340 147 367 171T394 242Q394 282 373 309T312 336Z" horiz-adv-x="595" unicode="ρ"/>
			<glyph d="M288 495Q329 495 362 486T421 465T465 435T493 404L377 295Q366 312 345 324T296 336Q258 336 229 312T201 242Q201 195 229 171T296 147Q391 147 434 115T478 25Q478 -13 461 -58T415 -157H227Q235 -147 246 -128T268 -90T286 -51T294 -21Q294 -12 288 -12Q231 -12 181 6T95 57T38 137T17 242Q17 299 38 346T95 426T181 477T288 495Z" horiz-adv-x="502" unicode="ς"/>
			<glyph d="M288 483H562V324H497Q526 297 535 267T545 205Q545 161 529 121T481 52T400 5T288 -12Q224 -12 173 8T88 64T35 145T17 242Q17 293 35 337T88 413T173 464T288 483ZM288 324Q246 324 224 299T202 242Q202 201 224 174T288 147Q330 147 352 174T375 242Q375 292 336 324Z" unicode="σ"/>
			<glyph d="M15 483H480V327H338V192Q338 173 349 160T378 147Q390 147 400 150T414 156L446 20Q432 7 401 -2T324 -12Q243 -12 200 26T158 140V327H15Z" horiz-adv-x="495" unicode="τ"/>
			<glyph d="M512 495Q546 441 560 380T575 269Q575 207 556 155T503 67T418 9T303 -12Q238 -12 190 5T112 54T65 129T50 224V483H230V227Q230 193 249 170T303 147Q345 147 367 177T390 269Q390 306 378 349T345 428Z" horiz-adv-x="592" unicode="υ"/>
			<glyph d="M210 495L284 355Q240 340 221 311T202 257Q202 210 233 184T333 151V495H422Q628 495 728 430T829 242Q829 133 750 69T513 -8V-184H333V-8Q17 19 17 257Q17 303 32 339T73 405T134 457T210 495ZM513 331V151Q582 159 613 181T644 242Q644 265 633 281T603 307T561 323T513 331Z" horiz-adv-x="846" unicode="φ"/>
			<glyph d="M-2 483H195L260 327L325 483H522L374 159L533 -184H336L261 -8L184 -184H-12L146 159Z" horiz-adv-x="521" unicode="χ"/>
			<glyph d="M333 667H513V156Q561 167 588 191T616 258V483H796V257Q796 149 727 79T513 -7V-184H333V-7Q261 1 207 23T119 80T67 158T50 257V483H230V258Q230 216 257 191T333 156Z" horiz-adv-x="846" unicode="ψ"/>
			<glyph d="M128 495L266 396Q232 357 217 318T202 242Q202 201 222 174T279 147Q317 147 337 174T358 242V363H538V242Q538 201 558 174T617 147Q654 147 674 174T694 242Q694 280 679 318T630 396L768 495Q813 453 846 390T879 242Q879 191 863 145T817 64T743 8T643 -12Q571 -12 524 20T448 115Q419 52 372 20T253 -12Q197 -12 153 8T79 64T33 145T17 242Q17 328 50 390T128 495Z" horiz-adv-x="897" unicode="ω"/>
			<glyph d="M256 707Q294 707 320 681T346 618Q346 580 320 554T256 529Q219 529 193 554T167 618Q167 656 193 681T256 707ZM40 707Q78 707 103 681T129 618Q129 580 103 554T40 529Q2 529 -23 554T-49 618Q-49 656 -23 681T40 707ZM50 483H230V178Q230 162 240 154T264 147Q274 147 283 150L294 -2Q279 -7 257 -9T216 -12Q135 -12 92 26T50 140Z" horiz-adv-x="294" unicode="ϊ"/>
			<glyph d="M403 707Q441 707 467 681T493 618Q493 580 467 554T403 529Q366 529 340 554T314 618Q314 656 340 681T403 707ZM187 707Q225 707 250 681T276 618Q276 580 250 554T187 529Q149 529 123 554T98 618Q98 656 123 681T187 707ZM512 495Q546 441 560 380T575 269Q575 207 556 155T503 67T418 9T303 -12Q238 -12 190 5T112 54T65 129T50 224V483H230V227Q230 193 249 170T303 147Q345 147 367 177T390 269Q390 306 378 349T345 428Z" horiz-adv-x="592" unicode="ϋ"/>
			<glyph d="M262 765H396L314 541H240ZM288 495Q352 495 403 474T488 419T541 338T560 242Q560 191 541 145T488 64T403 8T288 -12Q224 -12 173 8T88 64T35 145T17 242Q17 293 35 338T88 419T173 474T288 495ZM288 336Q246 336 224 309T202 242Q202 201 224 174T288 147Q330 147 352 174T375 242Q375 282 352 309T288 336Z" unicode="ό"/>
			<glyph d="M270 765H404L322 541H248ZM512 495Q546 441 560 380T575 269Q575 207 556 155T503 67T418 9T303 -12Q238 -12 190 5T112 54T65 129T50 224V483H230V227Q230 193 249 170T303 147Q345 147 367 177T390 269Q390 306 378 349T345 428Z" horiz-adv-x="592" unicode="ύ"/>
			<glyph d="M422 765H556L474 541H400ZM128 495L266 396Q232 357 217 318T202 242Q202 201 222 174T279 147Q317 147 337 174T358 242V363H538V242Q538 201 558 174T617 147Q654 147 674 174T694 242Q694 280 679 318T630 396L768 495Q813 453 846 390T879 242Q879 191 863 145T817 64T743 8T643 -12Q571 -12 524 20T448 115Q419 52 372 20T253 -12Q197 -12 153 8T79 64T33 145T17 242Q17 328 50 390T128 495Z" horiz-adv-x="897" unicode="ώ"/>
			<glyph d="M415 874Q453 874 479 848T505 785Q505 747 479 721T415 696Q378 696 352 721T326 785Q326 823 352 848T415 874ZM199 874Q237 874 262 848T288 785Q288 747 262 721T199 696Q161 696 135 721T110 785Q110 823 135 848T199 874ZM54 667H560V491H256V425H553V249H256V176H560V0H54Z" horiz-adv-x="596" unicode="Ё"/>
			<glyph d="M18 667H577V491H399V419Q437 427 465 430T526 434Q595 434 645 417T728 370T777 298T793 205V199Q793 154 775 115T723 48T642 4T537 -12V154Q563 154 575 167T588 200V203Q588 231 562 244T496 258Q439 258 399 243V0H197V491H18Z" horiz-adv-x="805" unicode="Ђ"/>
			<glyph d="M358 867H513L358 723H238ZM54 667H560V491H256V0H54Z" horiz-adv-x="592" unicode="Ѓ"/>
			<glyph d="M385 678Q451 678 500 660T587 615T648 553T688 484L514 403Q501 442 464 471T377 500Q327 500 294 479T243 425H468V249H239Q256 211 290 188T377 166Q428 166 464 195T514 263L688 183Q673 150 648 115T587 52T501 6T385 -12Q307 -12 239 13T123 83T46 192T18 333Q18 410 46 473T123 582T239 653T385 678Z" horiz-adv-x="697" unicode="Є"/>
			<glyph d="M302 677Q384 677 456 654T585 584L477 441Q433 474 381 490T281 507Q251 507 240 498T230 477Q230 461 257 453T326 437T415 418T505 383T573 321T601 220Q601 165 581 122T524 49T433 3T313 -12Q206 -12 131 17T3 94L108 244Q146 208 200 183T323 158Q352 158 374 166T397 194Q397 210 369 217T300 232T211 250T121 285T52 349T25 456Q25 498 42 538T95 609T181 658T302 677Z" horiz-adv-x="613" unicode="Ѕ"/>
			<glyph d="M54 667H256V0H54Z" horiz-adv-x="310" unicode="І"/>
			<glyph d="M54 667H256V0H54ZM264 874Q302 874 328 848T354 785Q354 747 328 721T264 696Q227 696 201 721T175 785Q175 823 201 848T264 874ZM48 874Q86 874 111 848T137 785Q137 747 111 721T48 696Q10 696 -15 721T-41 785Q-41 823 -15 848T48 874Z" horiz-adv-x="310" unicode="Ї"/>
			<glyph d="M242 667H444V238Q444 174 425 127T373 49T291 3T186 -12Q137 -12 88 0T0 42L82 196Q99 185 120 175T168 166Q201 166 221 186T242 241Z" horiz-adv-x="498" unicode="Ј"/>
			<glyph d="M176 667H697V457H851Q909 457 954 439T1029 389T1075 316T1091 229Q1091 182 1075 140T1029 67T954 18T851 0H495V491H358L336 316Q324 217 295 153T224 53T130 2T20 -12V166Q41 166 59 174T93 201T118 251T135 331ZM697 281V176H825Q851 176 868 189T886 229Q886 255 868 268T825 281Z" horiz-adv-x="1103" unicode="Љ"/>
			<glyph d="M54 667H256V431H495V667H697V431H864Q919 431 961 414T1033 367T1076 299T1091 216Q1091 172 1076 132T1033 63T961 17T864 0H495V255H256V0H54ZM697 255V176H840Q859 176 872 186T886 216Q886 236 872 245T840 255Z" horiz-adv-x="1103" unicode="Њ"/>
			<glyph d="M18 667H577V491H399V419Q437 427 465 430T526 434Q595 434 645 415T728 363T777 281T793 176V0H588V176Q588 200 581 216T562 241T533 254T496 258Q439 258 399 243V0H197V491H18Z" horiz-adv-x="847" unicode="Ћ"/>
			<glyph d="M404 867H559L404 723H284ZM54 667H256V417L431 667H678L426 357L689 0H443L293 235L256 185V0H54Z" horiz-adv-x="671" unicode="Ќ"/>
			<glyph d="M-17 667H209L332 396L456 667H682L415 134Q399 103 377 76T325 29T256 -1T169 -12Q120 -12 71 0T-17 42L65 196Q82 185 103 175T151 166Q177 166 192 174T218 198ZM232 841Q249 818 274 803T332 788Q395 788 432 841L507 779Q477 738 431 714T332 691Q278 691 232 714T156 779Z" horiz-adv-x="664" unicode="Ў"/>
			<glyph d="M54 667H256V176H495V667H697V0H477V-123H275V0H54Z" horiz-adv-x="751" unicode="Џ"/>
			<glyph d="M228 667H482L728 0H499L475 78H235L211 0H-18ZM355 469L289 254H421Z" horiz-adv-x="710" unicode="А"/>
			<glyph d="M54 667H610V491H256V438H420Q476 438 519 420T591 373T635 304T650 220Q650 175 635 135T591 65T519 17T420 0H54ZM256 262V176H395Q416 176 430 186T445 219Q445 241 430 251T395 262Z" horiz-adv-x="662" unicode="Б"/>
			<glyph d="M54 667H459Q511 667 548 651T610 611T645 556T657 497Q657 434 624 394T543 344Q570 340 593 326T633 290T660 241T670 181Q670 146 658 113T621 55T560 15T473 0H54ZM256 499V421H412Q428 421 440 432T452 461Q452 478 440 488T412 499ZM256 253V168H418Q440 168 452 179T465 210Q465 228 452 240T418 253Z" horiz-adv-x="697" unicode="В"/>
			<glyph d="M54 667H560V491H256V0H54Z" horiz-adv-x="592" unicode="Г"/>
			<glyph d="M176 667H697V176H755V-123H553V0H222V-123H20V166Q42 170 61 178T94 205T118 253T135 331ZM358 491L336 316Q331 271 314 236T271 176H495V491Z" horiz-adv-x="768" unicode="Д"/>
			<glyph d="M54 667H560V491H256V425H553V249H256V176H560V0H54Z" horiz-adv-x="596" unicode="Е"/>
			<glyph d="M-7 667H240L395 445V667H597V445L752 667H999L747 357L1010 0H764L614 235L597 212V0H395V212L378 235L228 0H-18L245 357Z" horiz-adv-x="992" unicode="Ж"/>
			<glyph d="M311 677Q450 677 524 626T599 492Q599 465 588 440T557 396T511 363T452 344Q480 341 508 329T558 297T595 250T610 188Q610 143 587 106T525 43T430 2T310 -12Q211 -12 132 17T12 92L111 230Q130 213 155 201T207 181T258 169T302 166Q356 166 382 179T409 211Q409 220 404 226T387 237T353 244T296 247H159V423H296Q344 423 371 431T398 456Q398 479 367 489T289 499Q246 499 198 484T116 441L21 567Q66 616 139 646T311 677Z" horiz-adv-x="637" unicode="З"/>
			<glyph d="M54 667H256V311L488 667H696V0H494V378L248 0H54Z" horiz-adv-x="750" unicode="И"/>
			<glyph d="M54 667H256V311L488 667H696V0H494V378L248 0H54ZM275 841Q292 818 317 803T375 788Q438 788 475 841L550 779Q520 738 474 714T375 691Q321 691 275 714T199 779Z" horiz-adv-x="750" unicode="Й"/>
			<glyph d="M54 667H256V417L431 667H678L426 357L689 0H443L293 235L256 185V0H54Z" horiz-adv-x="671" unicode="К"/>
			<glyph d="M176 667H697V0H495V491H358L336 316Q324 217 295 153T224 53T130 2T20 -12V166Q41 166 59 174T93 201T118 251T135 331Z" horiz-adv-x="751" unicode="Л"/>
			<glyph d="M54 667H333L450 347L567 667H846V0H644V401L495 0H405L256 401V0H54Z" horiz-adv-x="900" unicode="М"/>
			<glyph d="M54 667H256V431H495V667H697V0H495V255H256V0H54Z" horiz-adv-x="751" unicode="Н"/>
			<glyph d="M383 678Q460 678 527 653T643 582T720 473T748 333Q748 256 720 192T643 83T527 13T383 -12Q306 -12 239 13T123 83T46 192T18 333Q18 410 46 473T123 582T239 653T383 678ZM383 500Q347 500 317 487T267 451T234 398T223 333Q223 298 234 267T267 214T317 179T383 166Q419 166 448 179T499 214T531 267T543 333Q543 368 531 398T499 451T448 487T383 500Z" horiz-adv-x="766" unicode="О"/>
			<glyph d="M54 667H697V0H495V491H256V0H54Z" horiz-adv-x="751" unicode="П"/>
			<glyph d="M54 667H410Q468 667 513 649T588 599T634 526T650 438Q650 391 634 350T588 277T513 228T410 210H256V0H54ZM256 491V386H384Q410 386 427 399T445 438Q445 465 427 478T384 491Z" horiz-adv-x="662" unicode="Р"/>
			<glyph d="M385 678Q451 678 500 660T587 615T648 553T688 484L514 403Q508 422 495 440T466 471T428 492T385 500Q349 500 319 487T267 451T234 398T223 333Q223 298 234 267T267 214T319 179T385 166Q407 166 428 174T466 195T495 225T514 263L688 183Q673 150 648 115T587 52T501 6T385 -12Q307 -12 239 13T123 83T46 192T18 333Q18 410 46 473T123 582T239 653T385 678Z" horiz-adv-x="697" unicode="С"/>
			<glyph d="M18 667H577V491H399V0H197V491H18Z" horiz-adv-x="595" unicode="Т"/>
			<glyph d="M-17 667H209L332 396L456 667H682L415 134Q399 103 377 76T325 29T256 -1T169 -12Q120 -12 71 0T-17 42L65 196Q82 185 103 175T151 166Q177 166 192 174T218 198Z" horiz-adv-x="664" unicode="У"/>
			<glyph d="M351 667H553V597Q711 582 798 517T886 333Q886 214 798 148T553 68V0H351V68Q192 83 105 148T18 333Q18 452 105 517T351 597ZM351 419Q223 403 223 333Q223 262 351 247ZM553 419V247Q681 262 681 333Q681 403 553 419Z" horiz-adv-x="904" unicode="Ф"/>
			<glyph d="M-3 667H234L342 477L448 667H687L479 343L702 0H464L342 204L220 0H-18L205 342Z" horiz-adv-x="684" unicode="Х"/>
			<glyph d="M54 667H256V176H495V667H697V176H755V-123H553V0H54Z" horiz-adv-x="768" unicode="Ц"/>
			<glyph d="M41 667H246V456Q246 432 253 416T272 390T301 377T338 374Q394 374 435 389V667H637V0H435V213Q397 205 368 201T308 198Q239 198 189 216T106 269T57 350T41 456Z" horiz-adv-x="691" unicode="Ч"/>
			<glyph d="M54 667H256V176H425V667H627V176H796V667H998V0H54Z" horiz-adv-x="1052" unicode="Ш"/>
			<glyph d="M54 667H256V176H425V667H627V176H796V667H998V176H1056V-123H854V0H54Z" horiz-adv-x="1069" unicode="Щ"/>
			<glyph d="M18 667H399V457H553Q611 457 656 439T731 389T777 316T793 229Q793 182 777 140T731 67T656 18T553 0H197V491H18ZM399 281V176H527Q553 176 570 189T588 229Q588 255 570 268T527 281Z" horiz-adv-x="805" unicode="Ъ"/>
			<glyph d="M54 667H256V457H410Q468 457 513 439T588 389T634 316T650 229Q650 182 634 140T588 67T513 18T410 0H54ZM256 281V176H384Q410 176 427 189T445 229Q445 255 427 268T384 281ZM691 667H893V0H691Z" horiz-adv-x="947" unicode="Ы"/>
			<glyph d="M54 667H256V457H410Q468 457 513 439T588 389T634 316T650 229Q650 182 634 140T588 67T513 18T410 0H54ZM256 281V176H384Q410 176 427 189T445 229Q445 255 427 268T384 281Z" horiz-adv-x="662" unicode="Ь"/>
			<glyph d="M312 678Q390 678 457 653T574 582T651 473T679 333Q679 256 651 192T574 83T457 13T312 -12Q246 -12 196 6T109 52T48 115T9 183L183 263Q196 224 232 195T320 166Q372 166 406 188T457 249H229V425H453Q436 459 403 479T320 500Q269 500 232 471T183 403L9 484Q24 518 48 553T110 615T196 660T312 678Z" horiz-adv-x="697" unicode="Э"/>
			<glyph d="M725 678Q802 678 869 653T985 582T1062 473T1090 333Q1090 256 1062 192T985 83T869 13T725 -12Q658 -12 598 7T492 61T413 145T368 255H256V0H54V667H256V431H373Q389 487 422 532T501 610T604 660T725 678ZM725 500Q689 500 659 487T609 451T576 398T565 333Q565 298 576 267T609 214T659 179T725 166Q761 166 790 179T841 214T873 267T885 333Q885 368 873 398T841 451T790 487T725 500Z" horiz-adv-x="1108" unicode="Ю"/>
			<glyph d="M268 667H624V0H422V210H349L257 0H27L148 236Q128 246 107 262T68 303T39 361T28 438Q28 485 43 526T89 599T164 649T268 667ZM299 491Q273 491 253 478T233 439Q233 411 253 398T299 386H422V491Z" horiz-adv-x="678" unicode="Я"/>
			<glyph d="M272 495Q317 495 359 486T435 454T489 391T509 292V0H329V46Q309 20 268 4T183 -12Q156 -12 126 -2T73 26T33 76T17 147Q17 192 33 221T73 269T126 294T183 301Q231 301 270 287T329 248V298Q329 324 306 341T239 358Q205 358 169 345T105 311L44 422Q93 461 155 478T272 495ZM258 184Q235 184 215 175T195 144Q195 133 200 125T215 113T235 107T258 105Q279 105 299 111T329 131V158Q320 171 299 177T258 184Z" horiz-adv-x="559" unicode="а"/>
			<glyph d="M288 336Q246 336 224 309T202 243Q202 201 224 174T288 147Q330 147 352 174T375 243Q375 282 352 309T288 336ZM341 667H541Q541 632 522 608T474 568T411 544T350 532Q309 525 280 515T233 492T203 464T188 431Q217 466 251 480T334 495Q386 495 427 474T498 419T544 339T560 243Q560 192 541 146T488 64T403 8T288 -12Q224 -12 173 9T88 67T35 154T17 264Q17 440 85 528T284 636Q307 640 324 648T341 667Z" unicode="б"/>
			<glyph d="M50 483H398Q439 483 469 471T518 442T547 402T556 359Q556 316 532 288T472 249Q514 241 540 209T567 132Q567 106 557 82T528 40T479 11T409 0H50ZM230 178V133H360Q371 133 378 139T386 155Q386 166 378 172T360 178ZM230 350V310H353Q362 310 368 316T375 330Q375 338 369 344T353 350Z" horiz-adv-x="618" unicode="в"/>
			<glyph d="M50 483H442V327H230V0H50Z" horiz-adv-x="457" unicode="г"/>
			<glyph d="M123 483H557V156H610V-123H430V0H198V-123H18V150Q30 150 41 153T61 166T77 197T89 252ZM277 327L266 252Q257 191 228 156H377V327Z" horiz-adv-x="623" unicode="д"/>
			<glyph d="M280 495Q333 495 379 476T458 423T511 337T531 223V186H203Q211 163 236 144T307 125Q317 125 332 127T364 134T394 145T418 159L492 48Q474 33 449 21T398 2T342 -8T286 -12Q229 -12 180 5T95 55T38 135T17 242Q17 294 36 340T90 421T173 475T280 495ZM280 358Q259 358 245 352T222 337T208 318T201 300H360Q358 308 353 318T340 337T316 352T280 358Z" horiz-adv-x="543" unicode="е"/>
			<glyph d="M-1 483H216L307 342V483H487V342L578 483H795L629 263L806 0H585L502 156L487 136V0H307V136L292 156L209 0H-12L165 263Z" horiz-adv-x="794" unicode="ж"/>
			<glyph d="M218 494Q345 495 405 457T467 359Q467 339 458 321T432 289T393 263T345 249Q368 247 391 239T433 216T464 181T476 136Q476 103 459 76T410 29T332 -1T231 -12Q154 -12 94 9T0 64L80 169Q96 157 116 148T156 134T195 125T231 123Q265 123 277 129T290 147Q290 159 275 168T225 177H135V309H225Q244 309 255 311T272 317T279 325T281 336Q281 347 267 353T227 360Q144 360 90 311L5 412Q42 448 96 471T218 494Z" horiz-adv-x="493" unicode="з"/>
			<glyph d="M50 483H230V268L375 483H557V0H377V229L222 0H50Z" horiz-adv-x="607" unicode="и"/>
			<glyph d="M50 483H230V268L375 483H557V0H377V229L222 0H50ZM204 674Q221 651 246 636T304 621Q367 621 404 674L479 612Q449 571 403 547T304 524Q250 524 204 547T128 612Z" horiz-adv-x="607" unicode="й"/>
			<glyph d="M50 483H230V311L341 483H558L392 263L569 0H348L265 156L230 109V0H50Z" horiz-adv-x="557" unicode="к"/>
			<glyph d="M123 483H557V0H377V327H277L263 228Q255 172 238 128T193 52T121 4T18 -12V135Q30 135 41 140T61 158T77 194T89 252Z" horiz-adv-x="607" unicode="л"/>
			<glyph d="M50 483H288L371 250L455 483H693V0H514V263L421 0H323L230 263V0H50Z" horiz-adv-x="743" unicode="м"/>
			<glyph d="M50 483H230V330H377V483H557V0H377V174H230V0H50Z" horiz-adv-x="607" unicode="н"/>
			<glyph d="M288 495Q352 495 403 474T488 419T541 338T560 242Q560 191 541 145T488 64T403 8T288 -12Q224 -12 173 8T88 64T35 145T17 242Q17 293 35 338T88 419T173 474T288 495ZM288 336Q246 336 224 309T202 242Q202 201 224 174T288 147Q330 147 352 174T375 242Q375 282 352 309T288 336Z" unicode="о"/>
			<glyph d="M50 483H557V0H377V327H230V0H50Z" horiz-adv-x="607" unicode="п"/>
			<glyph d="M366 495Q411 495 449 478T516 430T561 351T578 242Q578 180 561 132T516 53T449 4T366 -12Q328 -12 294 2T230 51V-184H50V483H230V432Q259 467 293 481T366 495ZM304 336Q287 336 265 327T230 303V180Q242 165 264 156T304 147Q340 147 367 171T394 242Q394 287 367 311T304 336Z" horiz-adv-x="595" unicode="р"/>
			<glyph d="M288 495Q329 495 362 486T421 465T465 435T493 404L377 295Q366 312 345 324T296 336Q258 336 229 312T201 242Q201 195 229 171T296 147Q325 147 345 159T377 189L493 79Q483 64 465 48T421 18T362 -3T288 -12Q231 -12 181 6T95 57T38 137T17 242Q17 299 38 346T95 426T181 477T288 495Z" horiz-adv-x="502" unicode="с"/>
			<glyph d="M15 483H451V327H324V0H144V327H15Z" horiz-adv-x="466" unicode="т"/>
			<glyph d="M-15 483H175L267 207L360 483H550L340 -60Q324 -102 301 -128T249 -169T187 -189T115 -196Q110 -196 101 -195T81 -194T61 -191T45 -188L70 -28Q78 -33 88 -35T108 -37Q162 -37 171 -18L175 -8Z" horiz-adv-x="535" unicode="у"/>
			<glyph d="M339 667H519V432Q546 467 578 481T645 495Q687 495 722 478T784 430T826 351T841 242Q841 180 826 132T784 53T722 4T645 -12Q610 -12 578 2T519 51V-184H339V51Q312 16 280 2T213 -12Q171 -12 135 4T73 53T32 132T17 241Q17 303 32 350T73 430T135 478T213 495Q248 495 279 481T339 432ZM275 336Q244 336 221 311T198 241Q198 196 221 171T275 147Q290 147 309 155T339 180V303Q328 318 309 327T275 336ZM583 336Q568 336 549 327T519 303V180Q530 165 549 156T583 147Q614 147 637 171T660 242Q660 287 637 311T583 336Z" horiz-adv-x="858" unicode="ф"/>
			<glyph d="M-2 483H195L260 370L325 483H522L374 248L533 0H336L261 128L184 0H-12L146 248Z" horiz-adv-x="521" unicode="х"/>
			<glyph d="M50 483H230V156H377V483H557V156H610V-123H430V0H50Z" horiz-adv-x="623" unicode="ц"/>
			<glyph d="M40 483H220V348Q220 310 239 294T290 279Q321 279 338 285T367 300V483H547V0H367V158Q346 144 308 132T220 120Q171 120 136 132T80 166T49 221T40 292Z" horiz-adv-x="597" unicode="ч"/>
			<glyph d="M50 483H230V156H358V483H538V156H666V483H846V0H50Z" horiz-adv-x="896" unicode="ш"/>
			<glyph d="M50 483H230V156H358V483H538V156H666V483H846V156H899V-123H719V0H50Z" horiz-adv-x="912" unicode="щ"/>
			<glyph d="M15 483H324V339H476Q522 339 556 325T614 288T649 234T661 169Q661 135 648 104T612 50T553 13T476 0H144V327H15ZM324 198V141H442Q459 141 469 149T479 169Q479 182 469 190T442 198Z" horiz-adv-x="678" unicode="ъ"/>
			<glyph d="M50 483H230V339H382Q428 339 462 325T520 288T555 234T567 169Q567 135 554 104T518 50T459 13T382 0H50ZM230 198V141H348Q365 141 375 149T385 169Q385 182 375 190T348 198ZM608 483H788V0H608Z" horiz-adv-x="838" unicode="ы"/>
			<glyph d="M50 483H230V339H382Q428 339 462 325T520 288T555 234T567 169Q567 135 554 104T518 50T459 13T382 0H50ZM230 198V141H348Q365 141 375 149T385 169Q385 182 375 190T348 198Z" horiz-adv-x="584" unicode="ь"/>
			<glyph d="M214 495Q271 495 320 477T406 426T464 346T485 242Q485 184 464 137T406 57T320 6T214 -12Q173 -12 139 -3T80 18T37 48T9 79L118 170Q132 150 153 136T202 123Q231 123 255 139T291 186H152V300H290Q278 329 254 344T202 359Q174 359 153 346T118 314L9 404Q19 419 37 435T80 465T139 486T214 495Z" horiz-adv-x="502" unicode="э"/>
			<glyph d="M565 495Q629 495 680 474T765 419T818 338T837 242Q837 191 818 145T765 64T680 8T565 -12Q512 -12 468 2T390 42T334 101T302 174H230V0H50V483H230V330H309Q322 365 345 395T400 448T473 482T565 495ZM565 336Q523 336 501 309T479 242Q479 201 501 174T565 147Q607 147 629 174T652 242Q652 282 629 309T565 336Z" horiz-adv-x="854" unicode="ю"/>
			<glyph d="M225 483H557V0H377V144H306L239 0H39L134 162Q120 168 104 179T73 209T49 253T40 314Q40 348 52 378T89 432T147 469T225 483ZM259 342Q242 342 232 334T222 314Q222 301 232 293T259 285H377V342Z" horiz-adv-x="602" unicode="я"/>
			<glyph d="M391 707Q429 707 455 681T481 618Q481 580 455 554T391 529Q354 529 328 554T302 618Q302 656 328 681T391 707ZM175 707Q213 707 238 681T264 618Q264 580 238 554T175 529Q137 529 111 554T86 618Q86 656 111 681T175 707ZM280 495Q333 495 379 476T458 423T511 337T531 223V186H203Q211 163 236 144T307 125Q317 125 332 127T364 134T394 145T418 159L492 48Q474 33 449 21T398 2T342 -8T286 -12Q229 -12 180 5T95 55T38 135T17 242Q17 294 36 340T90 421T173 475T280 495ZM280 358Q259 358 245 352T222 337T208 318T201 300H360Q358 308 353 318T340 337T316 352T280 358Z" horiz-adv-x="543" unicode="ё"/>
			<glyph d="M56 667H236V618H370V521H236V428Q257 452 297 473T402 495Q444 495 474 483T524 451T553 403T563 345V21Q563 -26 551 -65T515 -134T452 -179T362 -196Q335 -196 316 -194T282 -188T254 -178T227 -163L270 -30Q285 -41 297 -45T330 -49Q355 -49 369 -31T383 21V269Q383 307 364 321T313 336Q282 336 264 323T236 298V0H56V521H7V618H56Z" horiz-adv-x="613" unicode="ђ"/>
			<glyph d="M298 700H453L298 556H178ZM50 483H442V327H230V0H50Z" horiz-adv-x="457" unicode="ѓ"/>
			<glyph d="M288 495Q329 495 362 486T421 465T465 435T493 404L384 314Q370 333 349 346T300 359Q271 359 247 344T211 300H350V186H210Q222 155 246 139T300 123Q328 123 349 136T384 170L493 79Q483 64 465 48T421 18T362 -3T288 -12Q231 -12 181 6T95 57T38 137T17 242Q17 299 38 346T95 426T181 477T288 495Z" horiz-adv-x="502" unicode="є"/>
			<glyph d="M245 495Q306 495 359 478T454 433L388 316Q365 335 326 350T246 366Q226 366 213 359T201 345Q201 335 221 331T272 322T338 310T404 284T454 235T475 154Q475 118 459 87T414 35T342 0T246 -12Q213 -12 179 -6T113 9T55 32T9 62L81 183Q95 172 116 161T162 141T210 127T255 122Q283 122 293 128T303 143Q303 154 282 158T232 167T166 179T100 203T49 250T29 330Q29 363 43 392T84 445T152 481T245 495Z" horiz-adv-x="490" unicode="ѕ"/>
			<glyph d="M140 720Q161 720 179 712T211 690T233 658T241 619Q241 598 233 579T211 547T179 526T140 518Q119 518 100 526T68 547T47 579T39 619Q39 640 47 658T68 690T100 712T140 720ZM50 483H230V0H50Z" horiz-adv-x="280" unicode="і"/>
			<glyph d="M249 707Q287 707 313 681T339 618Q339 580 313 554T249 529Q212 529 186 554T160 618Q160 656 186 681T249 707ZM33 707Q71 707 96 681T122 618Q122 580 96 554T33 529Q-5 529 -30 554T-56 618Q-56 656 -30 681T33 707ZM50 483H230V0H50Z" horiz-adv-x="280" unicode="ї"/>
			<glyph d="M140 720Q161 720 179 712T211 690T233 658T241 619Q241 598 233 579T211 547T179 526T140 518Q119 518 100 526T68 547T47 579T39 619Q39 640 47 658T68 690T100 712T140 720ZM50 483H230V21Q230 -26 218 -65T182 -134T119 -179T29 -196Q2 -196 -17 -194T-51 -188T-78 -178T-106 -163L-63 -30Q-48 -41 -36 -45T-3 -49Q22 -49 36 -31T50 21Z" horiz-adv-x="280" unicode="ј"/>
			<glyph d="M123 483H557V339H709Q755 339 789 325T847 288T882 234T894 169Q894 135 881 104T845 50T786 13T709 0H377V327H277L263 228Q255 172 238 128T193 52T121 4T18 -12V135Q30 135 41 140T61 158T77 194T89 252ZM557 198V141H675Q692 141 702 149T712 169Q712 182 702 190T675 198Z" horiz-adv-x="911" unicode="љ"/>
			<glyph d="M50 483H230V339H377V483H557V339H709Q755 339 789 325T847 288T882 234T894 169Q894 135 881 104T845 50T786 13T709 0H377V183H230V0H50ZM557 198V141H675Q692 141 702 149T712 169Q712 182 702 190T675 198Z" horiz-adv-x="911" unicode="њ"/>
			<glyph d="M56 667H236V618H370V521H236V428Q257 452 297 473T402 495Q444 495 474 483T524 451T553 403T563 345V0H383V269Q383 307 364 321T313 336Q282 336 264 323T236 298V0H56V521H7V618H56Z" horiz-adv-x="613" unicode="ћ"/>
			<glyph d="M331 700H486L331 556H211ZM50 483H230V311L341 483H558L392 263L569 0H348L265 156L230 109V0H50Z" horiz-adv-x="557" unicode="ќ"/>
			<glyph d="M-15 483H175L267 207L360 483H550L340 -60Q324 -102 301 -128T249 -169T187 -189T115 -196Q110 -196 101 -195T81 -194T61 -191T45 -188L70 -28Q78 -33 88 -35T108 -37Q162 -37 171 -18L175 -8ZM168 674Q185 651 210 636T268 621Q331 621 368 674L443 612Q413 571 367 547T268 524Q214 524 168 547T92 612Z" horiz-adv-x="535" unicode="ў"/>
			<glyph d="M50 483H230V156H377V483H557V0H393V-123H213V0H50Z" horiz-adv-x="607" unicode="џ"/>
			<glyph d="M358 790H560V491H256V0H54V667H358Z" horiz-adv-x="592" unicode="Ґ"/>
			<glyph d="M262 606H442V327H230V0H50V483H262Z" horiz-adv-x="457" unicode="ґ"/>
			<glyph d="M54 667H459Q511 667 548 651T610 611T645 556T657 497Q657 434 624 394T543 344Q570 340 593 326T633 290T660 241T670 181Q670 146 658 113T621 55T560 15T473 0H54ZM256 499V421H412Q428 421 440 432T452 461Q452 478 440 488T412 499ZM256 253V168H418Q440 168 452 179T465 210Q465 228 452 240T418 253ZM349 875Q367 875 383 868T411 849T430 820T437 786Q437 768 430 751T411 723T383 704T349 697Q312 697 286 723T260 786Q260 823 286 849T349 875Z" horiz-adv-x="697" unicode="Ḃ"/>
			<glyph d="M305 336Q287 336 265 327T230 303V179Q243 163 265 155T305 147Q342 147 368 171T395 242Q395 287 368 311T305 336ZM50 667H230V432Q259 467 294 481T366 495Q411 495 449 478T517 428T562 349T579 242Q579 180 562 132T516 53T448 4T366 -12Q329 -12 295 2T230 51V0H50ZM305 875Q323 875 339 868T367 849T386 820T393 786Q393 768 386 751T367 723T339 704T305 697Q268 697 242 723T216 786Q216 823 242 849T305 875Z" horiz-adv-x="596" unicode="ḃ"/>
			<glyph d="M54 667H352Q431 667 498 645T614 580T690 476T718 334Q718 254 690 192T614 87T498 22T353 0H54ZM256 491V176H352Q390 176 420 189T470 223T502 273T513 334Q513 368 503 396T473 446T423 479T353 491ZM368 875Q386 875 402 868T430 849T449 820T456 786Q456 768 449 751T430 723T402 704T368 697Q331 697 305 723T279 786Q279 823 305 849T368 875Z" horiz-adv-x="736" unicode="Ḋ"/>
			<glyph d="M366 667H546V0H366V51Q335 16 301 2T230 -12Q186 -12 147 4T80 53T34 132T17 242Q17 302 33 349T79 428T146 478T230 495Q267 495 302 481T366 432ZM291 336Q254 336 227 311T201 242Q201 197 227 172T291 147Q309 147 331 155T366 180V304Q353 320 331 328T291 336ZM293 875Q311 875 327 868T355 849T374 820T381 786Q381 768 374 751T355 723T327 704T293 697Q256 697 230 723T204 786Q204 823 230 849T293 875Z" horiz-adv-x="596" unicode="ḋ"/>
			<glyph d="M311 875Q329 875 345 868T373 849T392 820T399 786Q399 768 392 751T373 723T345 704T311 697Q274 697 248 723T222 786Q222 823 248 849T311 875ZM54 667H560V491H256V425H553V249H256V0H54Z" horiz-adv-x="592" unicode="Ḟ"/>
			<glyph d="M272 875Q290 875 306 868T334 849T353 820T360 786Q360 768 353 751T334 723T306 704T272 697Q235 697 209 723T183 786Q183 823 209 849T272 875ZM271 677Q313 677 354 664T422 625L357 525Q341 544 313 544Q296 544 281 533T267 505V483H365V327H267V0H87V327H7V483H87V505Q87 543 100 574T138 629T197 664T271 677Z" horiz-adv-x="371" unicode="ḟ"/>
			<glyph d="M54 667H256V431H495V667H697V0H495V255H256V0H54ZM376 875Q394 875 410 868T438 849T457 820T464 786Q464 768 457 751T438 723T410 704T376 697Q339 697 313 723T287 786Q287 823 313 849T376 875Z" horiz-adv-x="751" unicode="Ḣ"/>
			<glyph d="M51 667H231V428Q252 452 292 473T397 495Q439 495 469 483T519 451T548 403T558 345V0H378V269Q378 307 359 321T308 336Q277 336 259 323T231 298V0H51ZM304 875Q322 875 338 868T366 849T385 820T392 786Q392 768 385 751T366 723T338 704T304 697Q267 697 241 723T215 786Q215 823 241 849T304 875Z" horiz-adv-x="608" unicode="ḣ"/>
			<glyph d="M54 667H410Q468 667 513 649T588 599T634 526T650 438Q650 391 634 350T588 277T513 228T410 210H256V0H54ZM256 491V386H384Q410 386 427 399T445 438Q445 465 427 478T384 491ZM331 875Q349 875 365 868T393 849T412 820T419 786Q419 768 412 751T393 723T365 704T331 697Q294 697 268 723T242 786Q242 823 268 849T331 875Z" horiz-adv-x="662" unicode="Ṗ"/>
			<glyph d="M366 495Q411 495 449 478T516 430T561 351T578 242Q578 180 561 132T516 53T449 4T366 -12Q328 -12 294 2T230 51V-184H50V483H230V432Q259 467 293 481T366 495ZM304 336Q287 336 265 327T230 303V180Q242 165 264 156T304 147Q340 147 367 171T394 242Q394 287 367 311T304 336ZM305 708Q323 708 339 701T367 682T386 653T393 619Q393 601 386 584T367 556T339 537T305 530Q268 530 242 556T216 619Q216 656 242 682T305 708Z" horiz-adv-x="595" unicode="ṗ"/>
			<glyph d="M302 677Q384 677 456 654T585 584L477 441Q433 474 381 490T281 507Q251 507 240 498T230 477Q230 461 257 453T326 437T415 418T505 383T573 321T601 220Q601 165 581 122T524 49T433 3T313 -12Q206 -12 131 17T3 94L108 244Q146 208 200 183T323 158Q352 158 374 166T397 194Q397 210 369 217T300 232T211 250T121 285T52 349T25 456Q25 498 42 538T95 609T181 658T302 677ZM307 875Q325 875 341 868T369 849T388 820T395 786Q395 768 388 751T369 723T341 704T307 697Q270 697 244 723T218 786Q218 823 244 849T307 875Z" horiz-adv-x="613" unicode="Ṡ"/>
			<glyph d="M245 495Q306 495 359 478T454 433L388 316Q365 335 326 350T246 366Q226 366 213 359T201 345Q201 335 221 331T272 322T338 310T404 284T454 235T475 154Q475 118 459 87T414 35T342 0T246 -12Q213 -12 179 -6T113 9T55 32T9 62L81 183Q95 172 116 161T162 141T210 127T255 122Q283 122 293 128T303 143Q303 154 282 158T232 167T166 179T100 203T49 250T29 330Q29 363 43 392T84 445T152 481T245 495ZM245 708Q263 708 279 701T307 682T326 653T333 619Q333 601 326 584T307 556T279 537T245 530Q208 530 182 556T156 619Q156 656 182 682T245 708Z" horiz-adv-x="490" unicode="ṡ"/>
			<glyph d="M18 667H577V491H399V0H197V491H18ZM298 875Q316 875 332 868T360 849T379 820T386 786Q386 768 379 751T360 723T332 704T298 697Q261 697 235 723T209 786Q209 823 235 849T298 875Z" horiz-adv-x="595" unicode="Ṫ"/>
			<glyph d="M87 615H267V483H365V327H267V192Q267 173 278 160T307 147Q319 147 329 150T343 156L375 20Q361 7 330 -2T253 -12Q172 -12 129 26T87 140V327H7V483H87ZM179 875Q197 875 213 868T241 849T260 820T267 786Q267 768 260 751T241 723T213 704T179 697Q142 697 116 723T90 786Q90 823 116 849T179 875Z" horiz-adv-x="382" unicode="ṫ"/>
			<glyph d="M-12 667H214L300 259L401 667H553L654 259L739 667H966L775 0H563L477 378L391 0H179ZM272 867H427L547 723H427Z" horiz-adv-x="954" unicode="Ẁ"/>
			<glyph d="M-12 483H173L237 217L322 483H483L567 217L631 483H817L677 0H481L402 270L324 0H128ZM194 700H349L469 556H349Z" horiz-adv-x="805" unicode="ẁ"/>
			<glyph d="M529 867H684L529 723H409ZM-12 667H214L300 259L401 667H553L654 259L739 667H966L775 0H563L477 378L391 0H179Z" horiz-adv-x="954" unicode="Ẃ"/>
			<glyph d="M452 700H607L452 556H332ZM-12 483H173L237 217L322 483H483L567 217L631 483H817L677 0H481L402 270L324 0H128Z" horiz-adv-x="805" unicode="ẃ"/>
			<glyph d="M584 874Q622 874 648 848T674 785Q674 747 648 721T584 696Q547 696 521 721T495 785Q495 823 521 848T584 874ZM368 874Q406 874 431 848T457 785Q457 747 431 721T368 696Q330 696 304 721T279 785Q279 823 304 848T368 874ZM-12 667H214L300 259L401 667H553L654 259L739 667H966L775 0H563L477 378L391 0H179Z" horiz-adv-x="954" unicode="Ẅ"/>
			<glyph d="M510 707Q548 707 574 681T600 618Q600 580 574 554T510 529Q473 529 447 554T421 618Q421 656 447 681T510 707ZM294 707Q332 707 357 681T383 618Q383 580 357 554T294 529Q256 529 230 554T205 618Q205 656 230 681T294 707ZM-12 483H173L237 217L322 483H483L567 217L631 483H817L677 0H481L402 270L324 0H128Z" horiz-adv-x="805" unicode="ẅ"/>
			<glyph d="M228 667H482L728 0H499L475 78H235L211 0H-18ZM355 469L289 254H421ZM356 -30Q374 -30 390 -37T418 -56T437 -84T444 -119Q444 -137 437 -153T418 -182T390 -201T356 -208Q319 -208 293 -182T267 -119Q267 -82 293 -56T356 -30Z" horiz-adv-x="710" unicode="Ạ"/>
			<glyph d="M272 495Q317 495 359 486T435 454T489 391T509 292V0H329V46Q309 20 268 4T183 -12Q156 -12 126 -2T73 26T33 76T17 147Q17 192 33 221T73 269T126 294T183 301Q231 301 270 287T329 248V298Q329 324 306 341T239 358Q205 358 169 345T105 311L44 422Q93 461 155 478T272 495ZM258 184Q235 184 215 175T195 144Q195 133 200 125T215 113T235 107T258 105Q279 105 299 111T329 131V158Q320 171 299 177T258 184ZM280 -30Q298 -30 314 -37T342 -56T361 -84T368 -119Q368 -137 361 -153T342 -182T314 -201T280 -208Q243 -208 217 -182T191 -119Q191 -82 217 -56T280 -30Z" horiz-adv-x="559" unicode="ạ"/>
			<glyph d="M228 667H482L728 0H499L475 78H235L211 0H-18ZM355 469L289 254H421ZM354 820Q389 820 415 802T442 745Q442 731 438 719T430 697H360Q377 715 377 741Q377 755 369 760T354 766Q343 766 336 759T326 743L268 762Q279 793 302 806T354 820Z" horiz-adv-x="710" unicode="Ả"/>
			<glyph d="M272 495Q317 495 359 486T435 454T489 391T509 292V0H329V46Q309 20 268 4T183 -12Q156 -12 126 -2T73 26T33 76T17 147Q17 192 33 221T73 269T126 294T183 301Q231 301 270 287T329 248V298Q329 324 306 341T239 358Q205 358 169 345T105 311L44 422Q93 461 155 478T272 495ZM258 184Q235 184 215 175T195 144Q195 133 200 125T215 113T235 107T258 105Q279 105 299 111T329 131V158Q320 171 299 177T258 184ZM278 651Q313 651 339 633T366 576Q366 562 362 550T354 528H284Q301 546 301 572Q301 586 293 591T278 597Q267 597 260 590T250 574L192 593Q203 624 226 637T278 651Z" horiz-adv-x="559" unicode="ả"/>
			<glyph d="M277 790H433L524 682H419L355 737L294 682H189ZM228 667H482L728 0H499L475 78H235L211 0H-18ZM355 469L289 254H421ZM609 843H764L609 735H489Z" horiz-adv-x="710" unicode="Ấ"/>
			<glyph d="M272 495Q317 495 359 486T435 454T489 391T509 292V0H329V46Q309 20 268 4T183 -12Q156 -12 126 -2T73 26T33 76T17 147Q17 192 33 221T73 269T126 294T183 301Q231 301 270 287T329 248V298Q329 324 306 341T239 358Q205 358 169 345T105 311L44 422Q93 461 155 478T272 495ZM258 184Q235 184 215 175T195 144Q195 133 200 125T215 113T235 107T258 105Q279 105 299 111T329 131V158Q320 171 299 177T258 184ZM199 700H355L446 556H341L277 629L216 556H111ZM524 770H679L524 626H404Z" horiz-adv-x="559" unicode="ấ"/>
			<glyph d="M277 790H433L524 682H419L355 737L294 682H189ZM228 667H482L728 0H499L475 78H235L211 0H-18ZM355 469L289 254H421ZM-48 843H107L227 735H107Z" horiz-adv-x="710" unicode="Ầ"/>
			<glyph d="M272 495Q317 495 359 486T435 454T489 391T509 292V0H329V46Q309 20 268 4T183 -12Q156 -12 126 -2T73 26T33 76T17 147Q17 192 33 221T73 269T126 294T183 301Q231 301 270 287T329 248V298Q329 324 306 341T239 358Q205 358 169 345T105 311L44 422Q93 461 155 478T272 495ZM258 184Q235 184 215 175T195 144Q195 133 200 125T215 113T235 107T258 105Q279 105 299 111T329 131V158Q320 171 299 177T258 184ZM199 700H355L446 556H341L277 629L216 556H111ZM-127 770H28L148 626H28Z" horiz-adv-x="559" unicode="ầ"/>
			<glyph d="M277 790H433L524 682H419L355 737L294 682H189ZM228 667H482L728 0H499L475 78H235L211 0H-18ZM355 469L289 254H421ZM535 838Q570 838 596 824T623 781Q623 771 619 762T611 745H541Q558 759 558 778Q558 789 550 793T535 797Q524 797 517 792T507 780L449 794Q460 817 483 827T535 838Z" horiz-adv-x="710" unicode="Ẩ"/>
			<glyph d="M272 495Q317 495 359 486T435 454T489 391T509 292V0H329V46Q309 20 268 4T183 -12Q156 -12 126 -2T73 26T33 76T17 147Q17 192 33 221T73 269T126 294T183 301Q231 301 270 287T329 248V298Q329 324 306 341T239 358Q205 358 169 345T105 311L44 422Q93 461 155 478T272 495ZM258 184Q235 184 215 175T195 144Q195 133 200 125T215 113T235 107T258 105Q279 105 299 111T329 131V158Q320 171 299 177T258 184ZM199 700H355L446 556H341L277 629L216 556H111ZM396 790Q431 790 457 772T484 715Q484 701 480 689T472 667H402Q419 685 419 711Q419 725 411 730T396 736Q385 736 378 729T368 713L310 732Q321 763 344 776T396 790Z" horiz-adv-x="559" unicode="ẩ"/>
			<glyph d="M277 750H433L524 678H419L355 715L294 678H189ZM228 667H482L728 0H499L475 78H235L211 0H-18ZM355 469L289 254H421ZM302 827Q325 827 341 824T370 816T392 809T412 806Q422 806 429 810T436 824H525Q525 790 495 773T407 757Q384 757 367 760T339 768T317 775T297 779Q287 779 280 774T273 760H184Q184 795 214 811T302 827Z" horiz-adv-x="710" unicode="Ẫ"/>
			<glyph d="M272 495Q317 495 359 486T435 454T489 391T509 292V0H329V46Q309 20 268 4T183 -12Q156 -12 126 -2T73 26T33 76T17 147Q17 192 33 221T73 269T126 294T183 301Q231 301 270 287T329 248V298Q329 324 306 341T239 358Q205 358 169 345T105 311L44 422Q93 461 155 478T272 495ZM258 184Q235 184 215 175T195 144Q195 133 200 125T215 113T235 107T258 105Q279 105 299 111T329 131V158Q320 171 299 177T258 184ZM199 668H355L446 524H341L277 597L216 524H111ZM227 822Q250 822 266 815T295 800T317 785T337 779Q347 779 354 788T361 816H450Q450 747 420 714T332 682Q309 682 292 688T264 703T242 718T222 725Q212 725 205 716T198 688H109Q109 757 139 789T227 822Z" horiz-adv-x="559" unicode="ẫ"/>
			<glyph d="M228 667H482L728 0H499L475 78H235L211 0H-18ZM355 469L289 254H421ZM276 867H432L523 723H418L354 796L293 723H188ZM356 -30Q374 -30 390 -37T418 -56T437 -84T444 -119Q444 -137 437 -153T418 -182T390 -201T356 -208Q319 -208 293 -182T267 -119Q267 -82 293 -56T356 -30Z" horiz-adv-x="710" unicode="Ậ"/>
			<glyph d="M272 495Q317 495 359 486T435 454T489 391T509 292V0H329V46Q309 20 268 4T183 -12Q156 -12 126 -2T73 26T33 76T17 147Q17 192 33 221T73 269T126 294T183 301Q231 301 270 287T329 248V298Q329 324 306 341T239 358Q205 358 169 345T105 311L44 422Q93 461 155 478T272 495ZM258 184Q235 184 215 175T195 144Q195 133 200 125T215 113T235 107T258 105Q279 105 299 111T329 131V158Q320 171 299 177T258 184ZM200 700H356L447 556H342L278 629L217 556H112ZM280 -30Q298 -30 314 -37T342 -56T361 -84T368 -119Q368 -137 361 -153T342 -182T314 -201T280 -208Q243 -208 217 -182T191 -119Q191 -82 217 -56T280 -30Z" horiz-adv-x="559" unicode="ậ"/>
			<glyph d="M228 667H482L728 0H499L475 78H235L211 0H-18ZM355 469L289 254H421ZM409 825H564L409 753H289ZM255 760Q272 749 297 741T355 734Q418 734 455 760L530 729Q500 709 454 697T355 685Q301 685 255 697T179 729Z" horiz-adv-x="710" unicode="Ắ"/>
			<glyph d="M272 495Q317 495 359 486T435 454T489 391T509 292V0H329V46Q309 20 268 4T183 -12Q156 -12 126 -2T73 26T33 76T17 147Q17 192 33 221T73 269T126 294T183 301Q231 301 270 287T329 248V298Q329 324 306 341T239 358Q205 358 169 345T105 311L44 422Q93 461 155 478T272 495ZM258 184Q235 184 215 175T195 144Q195 133 200 125T215 113T235 107T258 105Q279 105 299 111T329 131V158Q320 171 299 177T258 184ZM332 790H487L332 646H212ZM176 662Q193 639 218 624T276 609Q339 609 376 662L451 600Q421 559 375 535T276 512Q222 512 176 535T100 600Z" horiz-adv-x="559" unicode="ắ"/>
			<glyph d="M228 667H482L728 0H499L475 78H235L211 0H-18ZM355 469L289 254H421ZM148 825H303L423 753H303ZM255 755Q272 744 297 736T355 729Q418 729 455 755L530 724Q500 704 454 692T355 680Q301 680 255 692T179 724Z" horiz-adv-x="710" unicode="Ằ"/>
			<glyph d="M272 495Q317 495 359 486T435 454T489 391T509 292V0H329V46Q309 20 268 4T183 -12Q156 -12 126 -2T73 26T33 76T17 147Q17 192 33 221T73 269T126 294T183 301Q231 301 270 287T329 248V298Q329 324 306 341T239 358Q205 358 169 345T105 311L44 422Q93 461 155 478T272 495ZM258 184Q235 184 215 175T195 144Q195 133 200 125T215 113T235 107T258 105Q279 105 299 111T329 131V158Q320 171 299 177T258 184ZM67 790H222L342 646H222ZM176 662Q193 639 218 624T276 609Q339 609 376 662L451 600Q421 559 375 535T276 512Q222 512 176 535T100 600Z" horiz-adv-x="559" unicode="ằ"/>
			<glyph d="M228 667H482L728 0H499L475 78H235L211 0H-18ZM355 469L289 254H421ZM354 815Q389 815 415 806T442 778Q442 771 438 765T430 754H360Q377 763 377 776Q377 783 369 785T354 788Q343 788 336 784T326 777L268 786Q279 802 302 808T354 815ZM255 755Q272 744 297 736T355 729Q418 729 455 755L530 724Q500 704 454 692T355 680Q301 680 255 692T179 724Z" horiz-adv-x="710" unicode="Ẳ"/>
			<glyph d="M272 495Q317 495 359 486T435 454T489 391T509 292V0H329V46Q309 20 268 4T183 -12Q156 -12 126 -2T73 26T33 76T17 147Q17 192 33 221T73 269T126 294T183 301Q231 301 270 287T329 248V298Q329 324 306 341T239 358Q205 358 169 345T105 311L44 422Q93 461 155 478T272 495ZM258 184Q235 184 215 175T195 144Q195 133 200 125T215 113T235 107T258 105Q279 105 299 111T329 131V158Q320 171 299 177T258 184ZM276 781Q311 781 337 763T364 706Q364 692 360 680T352 658H282Q299 676 299 702Q299 716 291 721T276 727Q265 727 258 720T248 704L190 723Q201 754 224 767T276 781ZM176 662Q193 639 218 624T276 609Q339 609 376 662L451 600Q421 559 375 535T276 512Q222 512 176 535T100 600Z" horiz-adv-x="559" unicode="ẳ"/>
			<glyph d="M228 667H482L728 0H499L475 78H235L211 0H-18ZM355 469L289 254H421ZM256 752Q273 741 298 733T356 726Q419 726 456 752L531 721Q501 701 455 689T356 677Q302 677 256 689T180 721ZM302 827Q325 827 341 824T370 816T392 809T412 806Q422 806 429 810T436 824H525Q525 790 495 773T407 757Q384 757 367 760T339 768T317 775T297 779Q287 779 280 774T273 760H184Q184 795 214 811T302 827Z" horiz-adv-x="710" unicode="Ẵ"/>
			<glyph d="M272 495Q317 495 359 486T435 454T489 391T509 292V0H329V46Q309 20 268 4T183 -12Q156 -12 126 -2T73 26T33 76T17 147Q17 192 33 221T73 269T126 294T183 301Q231 301 270 287T329 248V298Q329 324 306 341T239 358Q205 358 169 345T105 311L44 422Q93 461 155 478T272 495ZM258 184Q235 184 215 175T195 144Q195 133 200 125T215 113T235 107T258 105Q279 105 299 111T329 131V158Q320 171 299 177T258 184ZM176 662Q193 639 218 624T276 609Q339 609 376 662L451 600Q421 559 375 535T276 512Q222 512 176 535T100 600ZM218 800Q241 800 257 793T286 778T308 763T328 757Q338 757 345 766T352 794H441Q441 725 411 692T323 660Q300 660 283 666T255 681T233 696T213 703Q203 703 196 694T189 666H100Q100 735 130 767T218 800Z" horiz-adv-x="559" unicode="ẵ"/>
			<glyph d="M228 667H482L728 0H499L475 78H235L211 0H-18ZM355 469L289 254H421ZM356 -30Q374 -30 390 -37T418 -56T437 -84T444 -119Q444 -137 437 -153T418 -182T390 -201T356 -208Q319 -208 293 -182T267 -119Q267 -82 293 -56T356 -30ZM255 841Q272 818 297 803T355 788Q418 788 455 841L530 779Q500 738 454 714T355 691Q301 691 255 714T179 779Z" horiz-adv-x="710" unicode="Ặ"/>
			<glyph d="M272 495Q317 495 359 486T435 454T489 391T509 292V0H329V46Q309 20 268 4T183 -12Q156 -12 126 -2T73 26T33 76T17 147Q17 192 33 221T73 269T126 294T183 301Q231 301 270 287T329 248V298Q329 324 306 341T239 358Q205 358 169 345T105 311L44 422Q93 461 155 478T272 495ZM258 184Q235 184 215 175T195 144Q195 133 200 125T215 113T235 107T258 105Q279 105 299 111T329 131V158Q320 171 299 177T258 184ZM280 -30Q298 -30 314 -37T342 -56T361 -84T368 -119Q368 -137 361 -153T342 -182T314 -201T280 -208Q243 -208 217 -182T191 -119Q191 -82 217 -56T280 -30ZM176 674Q193 651 218 636T276 621Q339 621 376 674L451 612Q421 571 375 547T276 524Q222 524 176 547T100 612Z" horiz-adv-x="559" unicode="ặ"/>
			<glyph d="M54 667H560V491H256V425H553V249H256V176H560V0H54ZM306 -30Q324 -30 340 -37T368 -56T387 -84T394 -119Q394 -137 387 -153T368 -182T340 -201T306 -208Q269 -208 243 -182T217 -119Q217 -82 243 -56T306 -30Z" horiz-adv-x="596" unicode="Ẹ"/>
			<glyph d="M280 495Q333 495 379 476T458 423T511 337T531 223V186H203Q211 163 236 144T307 125Q317 125 332 127T364 134T394 145T418 159L492 48Q474 33 449 21T398 2T342 -8T286 -12Q229 -12 180 5T95 55T38 135T17 242Q17 294 36 340T90 421T173 475T280 495ZM280 358Q259 358 245 352T222 337T208 318T201 300H360Q358 308 353 318T340 337T316 352T280 358ZM282 -30Q300 -30 316 -37T344 -56T363 -84T370 -119Q370 -137 363 -153T344 -182T316 -201T282 -208Q245 -208 219 -182T193 -119Q193 -82 219 -56T282 -30Z" horiz-adv-x="543" unicode="ẹ"/>
			<glyph d="M54 667H560V491H256V425H553V249H256V176H560V0H54ZM297 820Q332 820 358 802T385 745Q385 731 381 719T373 697H303Q320 715 320 741Q320 755 312 760T297 766Q286 766 279 759T269 743L211 762Q222 793 245 806T297 820Z" horiz-adv-x="596" unicode="Ẻ"/>
			<glyph d="M280 495Q333 495 379 476T458 423T511 337T531 223V186H203Q211 163 236 144T307 125Q317 125 332 127T364 134T394 145T418 159L492 48Q474 33 449 21T398 2T342 -8T286 -12Q229 -12 180 5T95 55T38 135T17 242Q17 294 36 340T90 421T173 475T280 495ZM280 358Q259 358 245 352T222 337T208 318T201 300H360Q358 308 353 318T340 337T316 352T280 358ZM270 651Q305 651 331 633T358 576Q358 562 354 550T346 528H276Q293 546 293 572Q293 586 285 591T270 597Q259 597 252 590T242 574L184 593Q195 624 218 637T270 651Z" horiz-adv-x="543" unicode="ẻ"/>
			<glyph d="M54 667H560V491H256V425H553V249H256V176H560V0H54ZM270 861Q293 861 309 854T338 839T360 824T380 818Q390 818 397 827T404 855H493Q493 786 463 753T375 721Q352 721 335 727T307 742T285 757T265 764Q255 764 248 755T241 727H152Q152 796 182 828T270 861Z" horiz-adv-x="596" unicode="Ẽ"/>
			<glyph d="M280 495Q333 495 379 476T458 423T511 337T531 223V186H203Q211 163 236 144T307 125Q317 125 332 127T364 134T394 145T418 159L492 48Q474 33 449 21T398 2T342 -8T286 -12Q229 -12 180 5T95 55T38 135T17 242Q17 294 36 340T90 421T173 475T280 495ZM280 358Q259 358 245 352T222 337T208 318T201 300H360Q358 308 353 318T340 337T316 352T280 358ZM219 694Q242 694 258 687T287 672T309 657T329 651Q339 651 346 660T353 688H442Q442 619 412 586T324 554Q301 554 284 560T256 575T234 590T214 597Q204 597 197 588T190 560H101Q101 629 131 661T219 694Z" horiz-adv-x="543" unicode="ẽ"/>
			<glyph d="M234 790H390L481 682H376L312 737L251 682H146ZM566 843H721L566 735H446ZM54 667H560V491H256V425H553V249H256V176H560V0H54Z" horiz-adv-x="596" unicode="Ế"/>
			<glyph d="M199 700H355L446 556H341L277 629L216 556H111ZM524 770H679L524 626H404ZM280 495Q333 495 379 476T458 423T511 337T531 223V186H203Q211 163 236 144T307 125Q317 125 332 127T364 134T394 145T418 159L492 48Q474 33 449 21T398 2T342 -8T286 -12Q229 -12 180 5T95 55T38 135T17 242Q17 294 36 340T90 421T173 475T280 495ZM280 358Q259 358 245 352T222 337T208 318T201 300H360Q358 308 353 318T340 337T316 352T280 358Z" horiz-adv-x="543" unicode="ế"/>
			<glyph d="M237 790H393L484 682H379L315 737L254 682H149ZM54 667H560V491H256V425H553V249H256V176H560V0H54ZM-88 843H67L187 735H67Z" horiz-adv-x="596" unicode="Ề"/>
			<glyph d="M199 700H355L446 556H341L277 629L216 556H111ZM280 495Q333 495 379 476T458 423T511 337T531 223V186H203Q211 163 236 144T307 125Q317 125 332 127T364 134T394 145T418 159L492 48Q474 33 449 21T398 2T342 -8T286 -12Q229 -12 180 5T95 55T38 135T17 242Q17 294 36 340T90 421T173 475T280 495ZM280 358Q259 358 245 352T222 337T208 318T201 300H360Q358 308 353 318T340 337T316 352T280 358ZM-127 770H28L148 626H28Z" horiz-adv-x="543" unicode="ề"/>
			<glyph d="M232 790H388L479 682H374L310 737L249 682H144ZM54 667H560V491H256V425H553V249H256V176H560V0H54ZM490 838Q525 838 551 824T578 781Q578 771 574 762T566 745H496Q513 759 513 778Q513 789 505 793T490 797Q479 797 472 792T462 780L404 794Q415 817 438 827T490 838Z" horiz-adv-x="596" unicode="Ể"/>
			<glyph d="M199 700H355L446 556H341L277 629L216 556H111ZM280 495Q333 495 379 476T458 423T511 337T531 223V186H203Q211 163 236 144T307 125Q317 125 332 127T364 134T394 145T418 159L492 48Q474 33 449 21T398 2T342 -8T286 -12Q229 -12 180 5T95 55T38 135T17 242Q17 294 36 340T90 421T173 475T280 495ZM280 358Q259 358 245 352T222 337T208 318T201 300H360Q358 308 353 318T340 337T316 352T280 358ZM396 790Q431 790 457 772T484 715Q484 701 480 689T472 667H402Q419 685 419 711Q419 725 411 730T396 736Q385 736 378 729T368 713L310 732Q321 763 344 776T396 790Z" horiz-adv-x="543" unicode="ể"/>
			<glyph d="M233 750H389L480 678H375L311 715L250 678H145ZM54 667H560V491H256V425H553V249H256V176H560V0H54ZM258 827Q281 827 297 824T326 816T348 809T368 806Q378 806 385 810T392 824H481Q481 790 451 773T363 757Q340 757 323 760T295 768T273 775T253 779Q243 779 236 774T229 760H140Q140 795 170 811T258 827Z" horiz-adv-x="596" unicode="Ễ"/>
			<glyph d="M199 668H355L446 524H341L277 597L216 524H111ZM280 495Q333 495 379 476T458 423T511 337T531 223V186H203Q211 163 236 144T307 125Q317 125 332 127T364 134T394 145T418 159L492 48Q474 33 449 21T398 2T342 -8T286 -12Q229 -12 180 5T95 55T38 135T17 242Q17 294 36 340T90 421T173 475T280 495ZM280 358Q259 358 245 352T222 337T208 318T201 300H360Q358 308 353 318T340 337T316 352T280 358ZM227 822Q250 822 266 815T295 800T317 785T337 779Q347 779 354 788T361 816H450Q450 747 420 714T332 682Q309 682 292 688T264 703T242 718T222 725Q212 725 205 716T198 688H109Q109 757 139 789T227 822Z" horiz-adv-x="543" unicode="ễ"/>
			<glyph d="M228 867H384L475 723H370L306 796L245 723H140ZM54 667H560V491H256V425H553V249H256V176H560V0H54ZM306 -30Q324 -30 340 -37T368 -56T387 -84T394 -119Q394 -137 387 -153T368 -182T340 -201T306 -208Q269 -208 243 -182T217 -119Q217 -82 243 -56T306 -30Z" horiz-adv-x="596" unicode="Ệ"/>
			<glyph d="M202 700H358L449 556H344L280 629L219 556H114ZM280 495Q333 495 379 476T458 423T511 337T531 223V186H203Q211 163 236 144T307 125Q317 125 332 127T364 134T394 145T418 159L492 48Q474 33 449 21T398 2T342 -8T286 -12Q229 -12 180 5T95 55T38 135T17 242Q17 294 36 340T90 421T173 475T280 495ZM280 358Q259 358 245 352T222 337T208 318T201 300H360Q358 308 353 318T340 337T316 352T280 358ZM282 -30Q300 -30 316 -37T344 -56T363 -84T370 -119Q370 -137 363 -153T344 -182T316 -201T282 -208Q245 -208 219 -182T193 -119Q193 -82 219 -56T282 -30Z" horiz-adv-x="543" unicode="ệ"/>
			<glyph d="M54 667H256V0H54ZM154 820Q189 820 215 802T242 745Q242 731 238 719T230 697H160Q177 715 177 741Q177 755 169 760T154 766Q143 766 136 759T126 743L68 762Q79 793 102 806T154 820Z" horiz-adv-x="310" unicode="Ỉ"/>
			<glyph d="M50 483H230V0H50ZM139 651Q174 651 200 633T227 576Q227 562 223 550T215 528H145Q162 546 162 572Q162 586 154 591T139 597Q128 597 121 590T111 574L53 593Q64 624 87 637T139 651Z" horiz-adv-x="280" unicode="ỉ"/>
			<glyph d="M54 667H256V0H54ZM159 -30Q177 -30 193 -37T221 -56T240 -84T247 -119Q247 -137 240 -153T221 -182T193 -201T159 -208Q122 -208 96 -182T70 -119Q70 -82 96 -56T159 -30Z" horiz-adv-x="310" unicode="Ị"/>
			<glyph d="M140 720Q161 720 179 712T211 690T233 658T241 619Q241 598 233 579T211 547T179 526T140 518Q119 518 100 526T68 547T47 579T39 619Q39 640 47 658T68 690T100 712T140 720ZM50 483H230V0H50ZM143 -30Q161 -30 177 -37T205 -56T224 -84T231 -119Q231 -137 224 -153T205 -182T177 -201T143 -208Q106 -208 80 -182T54 -119Q54 -82 80 -56T143 -30Z" horiz-adv-x="280" unicode="ị"/>
			<glyph d="M383 678Q460 678 527 653T643 582T720 473T748 333Q748 256 720 192T643 83T527 13T383 -12Q306 -12 239 13T123 83T46 192T18 333Q18 410 46 473T123 582T239 653T383 678ZM383 500Q347 500 317 487T267 451T234 398T223 333Q223 298 234 267T267 214T317 179T383 166Q419 166 448 179T499 214T531 267T543 333Q543 368 531 398T499 451T448 487T383 500ZM385 -30Q403 -30 419 -37T447 -56T466 -84T473 -119Q473 -137 466 -153T447 -182T419 -201T385 -208Q348 -208 322 -182T296 -119Q296 -82 322 -56T385 -30Z" horiz-adv-x="766" unicode="Ọ"/>
			<glyph d="M288 495Q352 495 403 474T488 419T541 338T560 242Q560 191 541 145T488 64T403 8T288 -12Q224 -12 173 8T88 64T35 145T17 242Q17 293 35 338T88 419T173 474T288 495ZM288 336Q246 336 224 309T202 242Q202 201 224 174T288 147Q330 147 352 174T375 242Q375 282 352 309T288 336ZM290 -30Q308 -30 324 -37T352 -56T371 -84T378 -119Q378 -137 371 -153T352 -182T324 -201T290 -208Q253 -208 227 -182T201 -119Q201 -82 227 -56T290 -30Z" unicode="ọ"/>
			<glyph d="M383 678Q460 678 527 653T643 582T720 473T748 333Q748 256 720 192T643 83T527 13T383 -12Q306 -12 239 13T123 83T46 192T18 333Q18 410 46 473T123 582T239 653T383 678ZM383 500Q347 500 317 487T267 451T234 398T223 333Q223 298 234 267T267 214T317 179T383 166Q419 166 448 179T499 214T531 267T543 333Q543 368 531 398T499 451T448 487T383 500ZM379 820Q414 820 440 802T467 745Q467 731 463 719T455 697H385Q402 715 402 741Q402 755 394 760T379 766Q368 766 361 759T351 743L293 762Q304 793 327 806T379 820Z" horiz-adv-x="766" unicode="Ỏ"/>
			<glyph d="M288 495Q352 495 403 474T488 419T541 338T560 242Q560 191 541 145T488 64T403 8T288 -12Q224 -12 173 8T88 64T35 145T17 242Q17 293 35 338T88 419T173 474T288 495ZM288 336Q246 336 224 309T202 242Q202 201 224 174T288 147Q330 147 352 174T375 242Q375 282 352 309T288 336ZM288 651Q323 651 349 633T376 576Q376 562 372 550T364 528H294Q311 546 311 572Q311 586 303 591T288 597Q277 597 270 590T260 574L202 593Q213 624 236 637T288 651Z" unicode="ỏ"/>
			<glyph d="M299 790H455L546 682H441L377 737L316 682H211ZM631 843H786L631 735H511ZM383 678Q460 678 527 653T643 582T720 473T748 333Q748 256 720 192T643 83T527 13T383 -12Q306 -12 239 13T123 83T46 192T18 333Q18 410 46 473T123 582T239 653T383 678ZM383 500Q347 500 317 487T267 451T234 398T223 333Q223 298 234 267T267 214T317 179T383 166Q419 166 448 179T499 214T531 267T543 333Q543 368 531 398T499 451T448 487T383 500Z" horiz-adv-x="766" unicode="Ố"/>
			<glyph d="M209 700H365L456 556H351L287 629L226 556H121ZM534 770H689L534 626H414ZM288 495Q352 495 403 474T488 419T541 338T560 242Q560 191 541 145T488 64T403 8T288 -12Q224 -12 173 8T88 64T35 145T17 242Q17 293 35 338T88 419T173 474T288 495ZM288 336Q246 336 224 309T202 242Q202 201 224 174T288 147Q330 147 352 174T375 242Q375 282 352 309T288 336Z" unicode="ố"/>
			<glyph d="M298 790H454L545 682H440L376 737L315 682H210ZM383 678Q460 678 527 653T643 582T720 473T748 333Q748 256 720 192T643 83T527 13T383 -12Q306 -12 239 13T123 83T46 192T18 333Q18 410 46 473T123 582T239 653T383 678ZM383 500Q347 500 317 487T267 451T234 398T223 333Q223 298 234 267T267 214T317 179T383 166Q419 166 448 179T499 214T531 267T543 333Q543 368 531 398T499 451T448 487T383 500ZM-27 843H128L248 735H128Z" horiz-adv-x="766" unicode="Ồ"/>
			<glyph d="M209 700H365L456 556H351L287 629L226 556H121ZM288 495Q352 495 403 474T488 419T541 338T560 242Q560 191 541 145T488 64T403 8T288 -12Q224 -12 173 8T88 64T35 145T17 242Q17 293 35 338T88 419T173 474T288 495ZM288 336Q246 336 224 309T202 242Q202 201 224 174T288 147Q330 147 352 174T375 242Q375 282 352 309T288 336ZM-117 770H38L158 626H38Z" unicode="ồ"/>
			<glyph d="M302 790H458L549 682H444L380 737L319 682H214ZM383 678Q460 678 527 653T643 582T720 473T748 333Q748 256 720 192T643 83T527 13T383 -12Q306 -12 239 13T123 83T46 192T18 333Q18 410 46 473T123 582T239 653T383 678ZM383 500Q347 500 317 487T267 451T234 398T223 333Q223 298 234 267T267 214T317 179T383 166Q419 166 448 179T499 214T531 267T543 333Q543 368 531 398T499 451T448 487T383 500ZM560 838Q595 838 621 824T648 781Q648 771 644 762T636 745H566Q583 759 583 778Q583 789 575 793T560 797Q549 797 542 792T532 780L474 794Q485 817 508 827T560 838Z" horiz-adv-x="766" unicode="Ổ"/>
			<glyph d="M208 700H364L455 556H350L286 629L225 556H120ZM288 495Q352 495 403 474T488 419T541 338T560 242Q560 191 541 145T488 64T403 8T288 -12Q224 -12 173 8T88 64T35 145T17 242Q17 293 35 338T88 419T173 474T288 495ZM288 336Q246 336 224 309T202 242Q202 201 224 174T288 147Q330 147 352 174T375 242Q375 282 352 309T288 336ZM405 790Q440 790 466 772T493 715Q493 701 489 689T481 667H411Q428 685 428 711Q428 725 420 730T405 736Q394 736 387 729T377 713L319 732Q330 763 353 776T405 790Z" unicode="ổ"/>
			<glyph d="M301 750H457L548 678H443L379 715L318 678H213ZM383 678Q460 678 527 653T643 582T720 473T748 333Q748 256 720 192T643 83T527 13T383 -12Q306 -12 239 13T123 83T46 192T18 333Q18 410 46 473T123 582T239 653T383 678ZM383 500Q347 500 317 487T267 451T234 398T223 333Q223 298 234 267T267 214T317 179T383 166Q419 166 448 179T499 214T531 267T543 333Q543 368 531 398T499 451T448 487T383 500ZM326 827Q349 827 365 824T394 816T416 809T436 806Q446 806 453 810T460 824H549Q549 790 519 773T431 757Q408 757 391 760T363 768T341 775T321 779Q311 779 304 774T297 760H208Q208 795 238 811T326 827Z" horiz-adv-x="766" unicode="Ỗ"/>
			<glyph d="M208 668H364L455 524H350L286 597L225 524H120ZM288 495Q352 495 403 474T488 419T541 338T560 242Q560 191 541 145T488 64T403 8T288 -12Q224 -12 173 8T88 64T35 145T17 242Q17 293 35 338T88 419T173 474T288 495ZM288 336Q246 336 224 309T202 242Q202 201 224 174T288 147Q330 147 352 174T375 242Q375 282 352 309T288 336ZM236 822Q259 822 275 815T304 800T326 785T346 779Q356 779 363 788T370 816H459Q459 747 429 714T341 682Q318 682 301 688T273 703T251 718T231 725Q221 725 214 716T207 688H118Q118 757 148 789T236 822Z" unicode="ỗ"/>
			<glyph d="M307 867H463L554 723H449L385 796L324 723H219ZM383 678Q460 678 527 653T643 582T720 473T748 333Q748 256 720 192T643 83T527 13T383 -12Q306 -12 239 13T123 83T46 192T18 333Q18 410 46 473T123 582T239 653T383 678ZM383 500Q347 500 317 487T267 451T234 398T223 333Q223 298 234 267T267 214T317 179T383 166Q419 166 448 179T499 214T531 267T543 333Q543 368 531 398T499 451T448 487T383 500ZM385 -30Q403 -30 419 -37T447 -56T466 -84T473 -119Q473 -137 466 -153T447 -182T419 -201T385 -208Q348 -208 322 -182T296 -119Q296 -82 322 -56T385 -30Z" horiz-adv-x="766" unicode="Ộ"/>
			<glyph d="M209 700H365L456 556H351L287 629L226 556H121ZM288 495Q352 495 403 474T488 419T541 338T560 242Q560 191 541 145T488 64T403 8T288 -12Q224 -12 173 8T88 64T35 145T17 242Q17 293 35 338T88 419T173 474T288 495ZM288 336Q246 336 224 309T202 242Q202 201 224 174T288 147Q330 147 352 174T375 242Q375 282 352 309T288 336ZM290 -30Q308 -30 324 -37T352 -56T371 -84T378 -119Q378 -137 371 -153T352 -182T324 -201T290 -208Q253 -208 227 -182T201 -119Q201 -82 227 -56T290 -30Z" unicode="ộ"/>
			<glyph d="M432 867H587L432 723H312ZM689 752Q719 752 742 730T765 667Q765 625 745 589T690 528Q718 487 733 438T748 333Q748 256 720 192T643 83T527 13T383 -12Q306 -12 239 13T123 83T46 192T18 333Q18 410 46 473T123 582T239 653T383 678Q464 678 533 650T653 572Q666 582 678 596T695 625Q690 622 678 622Q654 622 637 638T621 683Q621 712 641 732T689 752ZM383 500Q347 500 317 487T267 451T234 398T223 333Q223 298 234 267T267 214T317 179T383 166Q419 166 448 179T499 214T531 267T543 333Q543 368 531 398T499 451T448 487T383 500Z" horiz-adv-x="766" unicode="Ớ"/>
			<glyph d="M338 700H493L338 556H218ZM501 619Q531 619 554 597T577 534Q577 494 558 459T506 398Q560 330 560 242Q560 191 541 145T488 64T403 8T288 -12Q224 -12 173 8T88 64T35 145T17 242Q17 293 35 338T88 419T173 474T288 495Q342 495 386 480T465 440Q478 450 490 464T507 492Q502 489 490 489Q466 489 449 505T433 550Q433 579 453 599T501 619ZM288 336Q246 336 224 309T202 242Q202 201 224 174T288 147Q330 147 352 174T375 242Q375 282 352 309T288 336Z" unicode="ớ"/>
			<glyph d="M689 752Q719 752 742 730T765 667Q765 625 745 589T690 528Q718 487 733 438T748 333Q748 256 720 192T643 83T527 13T383 -12Q306 -12 239 13T123 83T46 192T18 333Q18 410 46 473T123 582T239 653T383 678Q464 678 533 650T653 572Q666 582 678 596T695 625Q690 622 678 622Q654 622 637 638T621 683Q621 712 641 732T689 752ZM383 500Q347 500 317 487T267 451T234 398T223 333Q223 298 234 267T267 214T317 179T383 166Q419 166 448 179T499 214T531 267T543 333Q543 368 531 398T499 451T448 487T383 500ZM177 867H332L452 723H332Z" horiz-adv-x="766" unicode="Ờ"/>
			<glyph d="M501 619Q531 619 554 597T577 534Q577 494 558 459T506 398Q560 330 560 242Q560 191 541 145T488 64T403 8T288 -12Q224 -12 173 8T88 64T35 145T17 242Q17 293 35 338T88 419T173 474T288 495Q342 495 386 480T465 440Q478 450 490 464T507 492Q502 489 490 489Q466 489 449 505T433 550Q433 579 453 599T501 619ZM288 336Q246 336 224 309T202 242Q202 201 224 174T288 147Q330 147 352 174T375 242Q375 282 352 309T288 336ZM82 700H237L357 556H237Z" unicode="ờ"/>
			<glyph d="M689 752Q719 752 742 730T765 667Q765 625 745 589T690 528Q718 487 733 438T748 333Q748 256 720 192T643 83T527 13T383 -12Q306 -12 239 13T123 83T46 192T18 333Q18 410 46 473T123 582T239 653T383 678Q464 678 533 650T653 572Q666 582 678 596T695 625Q690 622 678 622Q654 622 637 638T621 683Q621 712 641 732T689 752ZM383 500Q347 500 317 487T267 451T234 398T223 333Q223 298 234 267T267 214T317 179T383 166Q419 166 448 179T499 214T531 267T543 333Q543 368 531 398T499 451T448 487T383 500ZM382 820Q417 820 443 802T470 745Q470 731 466 719T458 697H388Q405 715 405 741Q405 755 397 760T382 766Q371 766 364 759T354 743L296 762Q307 793 330 806T382 820Z" horiz-adv-x="766" unicode="Ở"/>
			<glyph d="M501 619Q531 619 554 597T577 534Q577 494 558 459T506 398Q560 330 560 242Q560 191 541 145T488 64T403 8T288 -12Q224 -12 173 8T88 64T35 145T17 242Q17 293 35 338T88 419T173 474T288 495Q342 495 386 480T465 440Q478 450 490 464T507 492Q502 489 490 489Q466 489 449 505T433 550Q433 579 453 599T501 619ZM288 336Q246 336 224 309T202 242Q202 201 224 174T288 147Q330 147 352 174T375 242Q375 282 352 309T288 336ZM287 651Q322 651 348 633T375 576Q375 562 371 550T363 528H293Q310 546 310 572Q310 586 302 591T287 597Q276 597 269 590T259 574L201 593Q212 624 235 637T287 651Z" unicode="ở"/>
			<glyph d="M689 752Q719 752 742 730T765 667Q765 625 745 589T690 528Q718 487 733 438T748 333Q748 256 720 192T643 83T527 13T383 -12Q306 -12 239 13T123 83T46 192T18 333Q18 410 46 473T123 582T239 653T383 678Q464 678 533 650T653 572Q666 582 678 596T695 625Q690 622 678 622Q654 622 637 638T621 683Q621 712 641 732T689 752ZM383 500Q347 500 317 487T267 451T234 398T223 333Q223 298 234 267T267 214T317 179T383 166Q419 166 448 179T499 214T531 267T543 333Q543 368 531 398T499 451T448 487T383 500ZM331 861Q354 861 370 854T399 839T421 824T441 818Q451 818 458 827T465 855H554Q554 786 524 753T436 721Q413 721 396 727T368 742T346 757T326 764Q316 764 309 755T302 727H213Q213 796 243 828T331 861Z" horiz-adv-x="766" unicode="Ỡ"/>
			<glyph d="M501 619Q531 619 554 597T577 534Q577 494 558 459T506 398Q560 330 560 242Q560 191 541 145T488 64T403 8T288 -12Q224 -12 173 8T88 64T35 145T17 242Q17 293 35 338T88 419T173 474T288 495Q342 495 386 480T465 440Q478 450 490 464T507 492Q502 489 490 489Q466 489 449 505T433 550Q433 579 453 599T501 619ZM288 336Q246 336 224 309T202 242Q202 201 224 174T288 147Q330 147 352 174T375 242Q375 282 352 309T288 336ZM216 694Q239 694 255 687T284 672T306 657T326 651Q336 651 343 660T350 688H439Q439 619 409 586T321 554Q298 554 281 560T253 575T231 590T211 597Q201 597 194 588T187 560H98Q98 629 128 661T216 694Z" unicode="ỡ"/>
			<glyph d="M689 752Q719 752 742 730T765 667Q765 625 745 589T690 528Q718 487 733 438T748 333Q748 256 720 192T643 83T527 13T383 -12Q306 -12 239 13T123 83T46 192T18 333Q18 410 46 473T123 582T239 653T383 678Q464 678 533 650T653 572Q666 582 678 596T695 625Q690 622 678 622Q654 622 637 638T621 683Q621 712 641 732T689 752ZM383 500Q347 500 317 487T267 451T234 398T223 333Q223 298 234 267T267 214T317 179T383 166Q419 166 448 179T499 214T531 267T543 333Q543 368 531 398T499 451T448 487T383 500ZM385 -30Q403 -30 419 -37T447 -56T466 -84T473 -119Q473 -137 466 -153T447 -182T419 -201T385 -208Q348 -208 322 -182T296 -119Q296 -82 322 -56T385 -30Z" horiz-adv-x="766" unicode="Ợ"/>
			<glyph d="M501 619Q531 619 554 597T577 534Q577 494 558 459T506 398Q560 330 560 242Q560 191 541 145T488 64T403 8T288 -12Q224 -12 173 8T88 64T35 145T17 242Q17 293 35 338T88 419T173 474T288 495Q342 495 386 480T465 440Q478 450 490 464T507 492Q502 489 490 489Q466 489 449 505T433 550Q433 579 453 599T501 619ZM288 336Q246 336 224 309T202 242Q202 201 224 174T288 147Q330 147 352 174T375 242Q375 282 352 309T288 336ZM290 -30Q308 -30 324 -37T352 -56T371 -84T378 -119Q378 -137 371 -153T352 -182T324 -201T290 -208Q253 -208 227 -182T201 -119Q201 -82 227 -56T290 -30Z" unicode="ợ"/>
			<glyph d="M54 667H259V281Q259 233 290 199T384 166Q446 166 477 199T508 281V667H713V275Q713 213 693 160T632 69T530 9T384 -12Q300 -12 237 9T134 69T74 159T54 274ZM387 -30Q405 -30 421 -37T449 -56T468 -84T475 -119Q475 -137 468 -153T449 -182T421 -201T387 -208Q350 -208 324 -182T298 -119Q298 -82 324 -56T387 -30Z" horiz-adv-x="767" unicode="Ụ"/>
			<glyph d="M50 483H230V215Q230 178 248 162T300 147Q330 147 347 159T376 185V483H556V0H376V54Q365 42 350 30T314 9T268 -6T210 -12Q168 -12 137 0T87 32T59 79T50 138ZM305 -30Q323 -30 339 -37T367 -56T386 -84T393 -119Q393 -137 386 -153T367 -182T339 -201T305 -208Q268 -208 242 -182T216 -119Q216 -82 242 -56T305 -30Z" horiz-adv-x="606" unicode="ụ"/>
			<glyph d="M54 667H259V281Q259 233 290 199T384 166Q446 166 477 199T508 281V667H713V275Q713 213 693 160T632 69T530 9T384 -12Q300 -12 237 9T134 69T74 159T54 274ZM382 820Q417 820 443 802T470 745Q470 731 466 719T458 697H388Q405 715 405 741Q405 755 397 760T382 766Q371 766 364 759T354 743L296 762Q307 793 330 806T382 820Z" horiz-adv-x="767" unicode="Ủ"/>
			<glyph d="M50 483H230V215Q230 178 248 162T300 147Q330 147 347 159T376 185V483H556V0H376V54Q365 42 350 30T314 9T268 -6T210 -12Q168 -12 137 0T87 32T59 79T50 138ZM302 651Q337 651 363 633T390 576Q390 562 386 550T378 528H308Q325 546 325 572Q325 586 317 591T302 597Q291 597 284 590T274 574L216 593Q227 624 250 637T302 651Z" horiz-adv-x="606" unicode="ủ"/>
			<glyph d="M435 867H590L435 723H315ZM741 810Q771 810 794 788T817 725Q817 683 792 639T713 567V275Q713 213 693 160T632 69T530 9T384 -12Q300 -12 237 9T134 69T74 159T54 274V667H259V281Q259 233 290 199T384 166Q446 166 477 199T508 281V667H713V637Q724 647 733 659T747 683Q742 680 730 680Q706 680 689 696T673 741Q673 770 693 790T741 810Z" horiz-adv-x="767" unicode="Ứ"/>
			<glyph d="M353 700H508L353 556H233ZM551 639Q581 639 604 617T627 554Q627 520 610 483T556 417V0H376V54Q365 42 350 30T314 9T268 -6T210 -12Q168 -12 137 0T87 32T59 79T50 138V483H230V215Q230 178 248 162T300 147Q330 147 347 159T376 185V483H539Q551 496 557 512Q552 509 540 509Q516 509 499 525T483 570Q483 599 503 619T551 639Z" horiz-adv-x="606" unicode="ứ"/>
			<glyph d="M177 867H332L452 723H332ZM741 810Q771 810 794 788T817 725Q817 683 792 639T713 567V275Q713 213 693 160T632 69T530 9T384 -12Q300 -12 237 9T134 69T74 159T54 274V667H259V281Q259 233 290 199T384 166Q446 166 477 199T508 281V667H713V637Q724 647 733 659T747 683Q742 680 730 680Q706 680 689 696T673 741Q673 770 693 790T741 810Z" horiz-adv-x="767" unicode="Ừ"/>
			<glyph d="M97 700H252L372 556H252ZM551 639Q581 639 604 617T627 554Q627 520 610 483T556 417V0H376V54Q365 42 350 30T314 9T268 -6T210 -12Q168 -12 137 0T87 32T59 79T50 138V483H230V215Q230 178 248 162T300 147Q330 147 347 159T376 185V483H539Q551 496 557 512Q552 509 540 509Q516 509 499 525T483 570Q483 599 503 619T551 639Z" horiz-adv-x="606" unicode="ừ"/>
			<glyph d="M382 820Q417 820 443 802T470 745Q470 731 466 719T458 697H388Q405 715 405 741Q405 755 397 760T382 766Q371 766 364 759T354 743L296 762Q307 793 330 806T382 820ZM741 810Q771 810 794 788T817 725Q817 683 792 639T713 567V275Q713 213 693 160T632 69T530 9T384 -12Q300 -12 237 9T134 69T74 159T54 274V667H259V281Q259 233 290 199T384 166Q446 166 477 199T508 281V667H713V637Q724 647 733 659T747 683Q742 680 730 680Q706 680 689 696T673 741Q673 770 693 790T741 810Z" horiz-adv-x="767" unicode="Ử"/>
			<glyph d="M302 651Q337 651 363 633T390 576Q390 562 386 550T378 528H308Q325 546 325 572Q325 586 317 591T302 597Q291 597 284 590T274 574L216 593Q227 624 250 637T302 651ZM551 639Q581 639 604 617T627 554Q627 520 610 483T556 417V0H376V54Q365 42 350 30T314 9T268 -6T210 -12Q168 -12 137 0T87 32T59 79T50 138V483H230V215Q230 178 248 162T300 147Q330 147 347 159T376 185V483H539Q551 496 557 512Q552 509 540 509Q516 509 499 525T483 570Q483 599 503 619T551 639Z" horiz-adv-x="606" unicode="ử"/>
			<glyph d="M741 810Q771 810 794 788T817 725Q817 683 792 639T713 567V275Q713 213 693 160T632 69T530 9T384 -12Q300 -12 237 9T134 69T74 159T54 274V667H259V281Q259 233 290 199T384 166Q446 166 477 199T508 281V667H713V637Q724 647 733 659T747 683Q742 680 730 680Q706 680 689 696T673 741Q673 770 693 790T741 810ZM331 861Q354 861 370 854T399 839T421 824T441 818Q451 818 458 827T465 855H554Q554 786 524 753T436 721Q413 721 396 727T368 742T346 757T326 764Q316 764 309 755T302 727H213Q213 796 243 828T331 861Z" horiz-adv-x="767" unicode="Ữ"/>
			<glyph d="M551 639Q581 639 604 617T627 554Q627 520 610 483T556 417V0H376V54Q365 42 350 30T314 9T268 -6T210 -12Q168 -12 137 0T87 32T59 79T50 138V483H230V215Q230 178 248 162T300 147Q330 147 347 159T376 185V483H539Q551 496 557 512Q552 509 540 509Q516 509 499 525T483 570Q483 599 503 619T551 639ZM250 694Q273 694 289 687T318 672T340 657T360 651Q370 651 377 660T384 688H473Q473 619 443 586T355 554Q332 554 315 560T287 575T265 590T245 597Q235 597 228 588T221 560H132Q132 629 162 661T250 694Z" horiz-adv-x="606" unicode="ữ"/>
			<glyph d="M387 -30Q405 -30 421 -37T449 -56T468 -84T475 -119Q475 -137 468 -153T449 -182T421 -201T387 -208Q350 -208 324 -182T298 -119Q298 -82 324 -56T387 -30ZM741 810Q771 810 794 788T817 725Q817 683 792 639T713 567V275Q713 213 693 160T632 69T530 9T384 -12Q300 -12 237 9T134 69T74 159T54 274V667H259V281Q259 233 290 199T384 166Q446 166 477 199T508 281V667H713V637Q724 647 733 659T747 683Q742 680 730 680Q706 680 689 696T673 741Q673 770 693 790T741 810Z" horiz-adv-x="767" unicode="Ự"/>
			<glyph d="M305 -30Q323 -30 339 -37T367 -56T386 -84T393 -119Q393 -137 386 -153T367 -182T339 -201T305 -208Q268 -208 242 -182T216 -119Q216 -82 242 -56T305 -30ZM551 639Q581 639 604 617T627 554Q627 520 610 483T556 417V0H376V54Q365 42 350 30T314 9T268 -6T210 -12Q168 -12 137 0T87 32T59 79T50 138V483H230V215Q230 178 248 162T300 147Q330 147 347 159T376 185V483H539Q551 496 557 512Q552 509 540 509Q516 509 499 525T483 570Q483 599 503 619T551 639Z" horiz-adv-x="606" unicode="ự"/>
			<glyph d="M-18 667H209L333 442L455 667H682L434 265V0H232V265ZM127 867H282L402 723H282Z" horiz-adv-x="664" unicode="Ỳ"/>
			<glyph d="M-15 483H175L267 207L360 483H550L340 -60Q324 -102 301 -128T249 -169T187 -189T115 -196Q110 -196 101 -195T81 -194T61 -191T45 -188L70 -28Q78 -33 88 -35T108 -37Q162 -37 171 -18L175 -8ZM59 700H214L334 556H214Z" horiz-adv-x="535" unicode="ỳ"/>
			<glyph d="" horiz-adv-x="51" unicode=" "/>
			<glyph d="M30 317H563V167H30Z" horiz-adv-x="593" unicode="–"/>
			<glyph d="M30 317H803V167H30Z" horiz-adv-x="833" unicode="—"/>
			<glyph d="M30 317H563V167H30Z" horiz-adv-x="593" unicode="―"/>
			<glyph d="M155 678L228 619Q216 614 202 603T175 580T152 552T137 523Q147 527 163 527Q199 527 224 501T250 434Q250 412 241 393T219 359T186 337T146 329Q123 329 102 337T65 362T39 403T30 458Q30 524 63 580T155 678Z" horiz-adv-x="281" unicode="‘"/>
			<glyph d="M138 677Q161 677 182 668T219 643T244 603T254 548Q254 482 221 426T129 328L56 387Q68 392 82 402T108 426T131 454T147 483Q137 479 121 479Q85 479 59 504T34 572Q34 594 42 613T65 646T98 668T138 677Z" horiz-adv-x="281" unicode="’"/>
			<glyph d="M138 202Q161 202 182 193T219 168T244 128T254 73Q254 7 221 -49T129 -147L56 -88Q68 -83 82 -72T108 -49T131 -21T147 8Q137 4 121 4Q85 4 59 29T34 97Q34 119 42 138T65 171T98 193T138 202Z" horiz-adv-x="281" unicode="‚"/>
			<glyph d="M143 677Q164 677 183 668T216 646T238 613T247 572Q247 530 221 504T160 479Q144 479 134 483Q139 469 149 454T172 426T199 402T225 387L152 328Q93 370 60 426T27 548Q27 579 36 603T62 643T99 668T143 677Z" horiz-adv-x="281" unicode="‛"/>
			<glyph d="M151 678L224 619Q212 614 198 603T171 580T148 552T133 523Q143 527 159 527Q195 527 220 501T246 434Q246 412 237 393T215 359T182 337T142 329Q119 329 98 337T61 362T35 403T26 458Q26 524 59 580T151 678ZM398 678L471 619Q459 614 445 603T418 580T395 552T380 523Q390 527 406 527Q442 527 467 501T493 434Q493 412 484 393T462 359T429 337T389 329Q366 329 345 337T308 362T282 403T273 458Q273 524 306 580T398 678Z" horiz-adv-x="528" unicode="“"/>
			<glyph d="M385 677Q408 677 429 668T466 643T491 603T501 548Q501 482 468 426T376 328L303 387Q315 392 329 402T355 426T378 454T394 483Q384 479 368 479Q332 479 306 504T281 572Q281 594 289 613T312 646T345 668T385 677ZM138 677Q161 677 182 668T219 643T244 603T254 548Q254 482 221 426T129 328L56 387Q68 392 82 402T108 426T131 454T147 483Q137 479 121 479Q85 479 59 504T34 572Q34 594 42 613T65 646T98 668T138 677Z" horiz-adv-x="528" unicode="”"/>
			<glyph d="M138 202Q161 202 182 193T219 168T244 128T254 73Q254 7 221 -49T129 -147L56 -88Q68 -83 82 -72T108 -49T131 -21T147 8Q137 4 121 4Q85 4 59 29T34 97Q34 119 42 138T65 171T98 193T138 202ZM385 202Q408 202 429 193T466 168T491 128T501 73Q501 7 468 -49T376 -147L303 -88Q315 -83 329 -72T355 -49T378 -21T394 8Q384 4 368 4Q332 4 306 29T281 97Q281 119 289 138T312 171T345 193T385 202Z" horiz-adv-x="528" unicode="„"/>
			<glyph d="M101 677H189L185 591L274 594V513L185 517L189 327H101L106 517L17 513V594L106 591Z" horiz-adv-x="291" unicode="†"/>
			<glyph d="M101 677H189L185 591L274 594V513L185 517V342L274 346V265L185 268L189 180H101L105 268L17 265V346L105 342V517L17 513V594L105 591Z" horiz-adv-x="291" unicode="‡"/>
			<glyph d="M180 372Q207 372 230 362T272 334T300 292T310 242Q310 215 300 191T272 150T230 123T180 113Q153 113 129 123T88 150T60 191T50 242Q50 269 60 292T88 334T129 362T180 372Z" horiz-adv-x="358" unicode="•"/>
			<glyph d="M141 202Q163 202 182 193T215 170T238 136T247 95Q247 74 238 54T215 20T182 -2T141 -11Q119 -11 100 -2T66 20T43 54T35 95Q35 117 43 136T66 170T100 193T141 202ZM423 202Q445 202 464 193T497 170T520 136T529 95Q529 74 520 54T497 20T464 -2T423 -11Q401 -11 382 -2T348 20T325 54T317 95Q317 117 325 136T348 170T382 193T423 202ZM705 202Q727 202 746 193T779 170T802 136T811 95Q811 74 802 54T779 20T746 -2T705 -11Q683 -11 664 -2T630 20T607 54T599 95Q599 117 607 136T630 170T664 193T705 202Z" horiz-adv-x="846" unicode="…"/>
			<glyph d="M198 677Q239 677 272 664T329 628T365 574T378 508Q378 473 365 442T329 389T272 354T198 341Q157 341 124 354T68 389T32 442T20 508Q20 543 32 574T68 628T124 664T198 677ZM557 667H655L228 0H131ZM585 324Q626 324 659 311T715 275T751 221T764 155Q764 120 751 89T715 36T659 1T585 -12Q544 -12 511 1T455 36T419 89T407 155Q407 190 419 221T455 275T511 311T585 324ZM198 583Q175 583 158 566T142 508Q142 469 158 452T198 435Q222 435 239 452T256 508Q256 549 239 566T198 583ZM585 230Q561 230 544 213T528 155Q528 116 544 99T585 82Q609 82 626 99T643 155Q643 196 626 213T585 230ZM961 324Q1002 324 1035 311T1091 275T1127 221T1140 155Q1140 120 1127 89T1091 36T1035 1T961 -12Q920 -12 887 1T831 36T795 89T783 155Q783 190 795 221T831 275T887 311T961 324ZM961 230Q937 230 920 213T904 155Q904 116 920 99T961 82Q985 82 1002 99T1019 155Q1019 196 1002 213T961 230Z" horiz-adv-x="1160" unicode="‰"/>
			<glyph d="M190 420H350L190 243L350 63H190L30 243Z" horiz-adv-x="380" unicode="‹"/>
			<glyph d="M30 420H190L350 243L190 63H30L190 243Z" horiz-adv-x="380" unicode="›"/>
			<glyph d="M0 648H363V551H0Z" horiz-adv-x="363" unicode="‾"/>
			<glyph d="M254 667H352L-75 0H-172Z" horiz-adv-x="180" unicode="⁄"/>
			<glyph d="M204 827Q250 827 284 810T341 764T375 699T387 621Q387 580 375 542T341 476T284 431T204 414Q157 414 122 431T65 476T31 542T20 621Q20 662 31 699T65 764T122 810T204 827ZM204 723Q178 723 165 700T152 621Q152 565 165 541T204 518Q230 518 242 541T255 621Q255 677 242 700T204 723Z" horiz-adv-x="407" unicode="⁰"/>
			<glyph d="M162 821H347V594H394V492H347V421H216V492H19V579ZM216 712L148 594H216Z" horiz-adv-x="407" unicode="⁴"/>
			<glyph d="M37 821H356V717H169V656Q183 670 205 678T253 686Q279 686 302 678T344 654T372 615T383 559Q383 528 371 501T335 455T277 425T198 414Q143 414 98 428T25 469L94 553Q115 534 143 526T198 518Q227 518 240 529T253 555Q253 570 241 581T202 592Q156 592 127 566L37 593Z" horiz-adv-x="407" unicode="⁵"/>
			<glyph d="M239 827Q273 827 307 818T368 794L314 701Q295 715 278 719T239 723Q204 723 177 706T151 658V656Q169 677 192 686T242 696Q270 696 296 686T343 659T376 617T389 560Q389 527 376 500T340 454T286 424T218 414Q167 414 129 429T67 472T31 538T19 620Q19 672 35 710T80 775T150 814T239 827ZM203 595Q189 595 176 592T151 579Q152 554 165 536T211 518Q230 518 243 528T257 554Q257 566 251 573T238 586T220 593T203 595Z" horiz-adv-x="407" unicode="⁶"/>
			<glyph d="M20 821H359V730L229 421H83L217 717H20Z" horiz-adv-x="379" unicode="⁷"/>
			<glyph d="M203 827Q235 827 267 821T325 803T367 769T383 719Q383 685 360 660T301 627Q340 617 364 588T389 528Q389 494 372 472T329 437T270 419T203 414Q170 414 137 419T77 437T33 472T17 528Q17 560 41 588T106 627Q69 636 46 660T24 719Q24 749 40 769T81 803T139 821T203 827ZM203 728Q155 728 155 699Q155 691 161 685T174 676T190 670T203 667Q208 668 216 670T232 676T245 685T251 699Q251 728 203 728ZM203 581Q198 581 189 578T171 571T155 559T148 542Q148 513 203 513Q229 513 244 520T259 542Q259 552 252 559T236 571T217 578T203 581Z" horiz-adv-x="407" unicode="⁸"/>
			<glyph d="M191 827Q242 827 279 811T341 768T377 703T389 621Q389 569 373 530T327 466T257 427T169 414Q135 414 100 422T41 447L95 540Q113 526 130 522T170 518Q186 518 201 521T229 533T249 553T257 583V585Q239 564 215 554T166 545Q138 545 111 554T64 581T31 624T19 681Q19 714 32 741T68 787T122 816T191 827ZM200 723Q179 723 165 712T152 687Q152 675 157 667T171 655T188 648T205 646Q219 646 232 649T257 663Q256 687 242 705T200 723Z" horiz-adv-x="407" unicode="⁹"/>
			<glyph d="M133 886L213 855Q180 796 167 741T155 621Q155 555 167 500T213 387L133 356Q108 375 87 405T52 471T29 546T21 621Q21 657 29 695T52 770T87 836T133 886Z" horiz-adv-x="223" unicode="⁽"/>
			<glyph d="M89 886Q114 866 134 836T170 770T193 695T202 621Q202 585 193 546T170 471T134 405T89 356L10 387Q42 446 55 500T68 621Q68 687 55 742T10 855Z" horiz-adv-x="223" unicode="⁾"/>
			<glyph d="M277 648Q305 648 325 640T359 618T378 585T385 547V326H258V498Q258 521 246 531T214 541Q195 541 184 534T167 520V326H40V640H167V606Q181 621 206 634T277 648Z" horiz-adv-x="425" unicode="ⁿ"/>
			<glyph d="M204 261Q250 261 284 244T341 198T375 133T387 55Q387 14 375 -23T341 -89T284 -135T204 -152Q157 -152 122 -135T65 -89T31 -23T20 55Q20 96 31 133T65 198T122 244T204 261ZM204 157Q178 157 165 134T152 55Q152 -1 165 -24T204 -48Q230 -48 242 -24T255 55Q255 111 242 134T204 157Z" horiz-adv-x="407" unicode="₀"/>
			<glyph d="M163 255H276V-145H144V88L74 19L0 97Z" horiz-adv-x="336" unicode="₁"/>
			<glyph d="M197 261Q281 261 328 225T376 130Q376 111 369 93T346 55T302 12T232 -41H380V-145H42V-50Q114 0 154 29T215 76T239 101T244 119Q244 136 231 146T194 157Q178 157 162 152T132 141T106 125T88 109L22 193Q59 231 107 246T197 261Z" horiz-adv-x="407" unicode="₂"/>
			<glyph d="M203 261Q292 261 334 229T376 150Q376 119 352 93T287 61Q304 59 321 52T352 34T374 5T383 -32Q383 -59 370 -81T333 -118T275 -143T202 -152Q140 -152 94 -134T23 -90L85 -3Q111 -28 143 -38T197 -48Q226 -48 239 -40T252 -22Q252 -2 232 2T179 6Q165 6 150 6Q135 6 130 5V107Q137 106 152 106Q167 106 178 106Q216 106 230 111T245 132Q245 146 229 151T188 157Q162 157 135 147T86 118L28 195Q56 224 98 242T203 261Z" horiz-adv-x="407" unicode="₃"/>
			<glyph d="M162 255H347V28H394V-74H347V-145H216V-74H19V13ZM216 146L148 28H216Z" horiz-adv-x="407" unicode="₄"/>
			<glyph d="M37 255H356V151H169V90Q183 104 205 112T253 120Q279 120 302 112T344 88T372 49T383 -7Q383 -38 371 -64T335 -110T277 -141T198 -152Q143 -152 98 -137T25 -97L94 -13Q115 -32 143 -40T198 -48Q227 -48 240 -36T253 -11Q253 4 241 15T202 26Q156 26 127 0L37 27Z" horiz-adv-x="407" unicode="₅"/>
			<glyph d="M239 261Q273 261 307 252T368 228L314 135Q295 149 278 153T239 157Q204 157 177 140T151 92V90Q169 111 192 120T242 130Q270 130 296 120T343 93T376 51T389 -6Q389 -39 376 -66T340 -112T286 -141T218 -152Q167 -152 129 -136T67 -93T31 -28T19 54Q19 106 35 144T80 209T150 248T239 261ZM203 29Q189 29 176 26T151 13Q152 -12 165 -30T211 -48Q230 -48 243 -37T257 -12Q257 0 251 7T238 20T220 27T203 29Z" horiz-adv-x="407" unicode="₆"/>
			<glyph d="M20 255H359V164L229 -145H83L217 151H20Z" horiz-adv-x="379" unicode="₇"/>
			<glyph d="M203 261Q235 261 267 255T325 237T367 203T383 153Q383 119 360 94T301 61Q340 51 364 22T389 -38Q389 -72 372 -94T329 -129T270 -147T203 -152Q170 -152 137 -147T77 -129T33 -94T17 -38Q17 -6 41 22T106 61Q69 70 46 94T24 153Q24 183 40 203T81 237T139 255T203 261ZM203 162Q155 162 155 133Q155 125 161 119T174 110T190 104T203 101Q208 102 216 104T232 110T245 119T251 133Q251 162 203 162ZM203 15Q198 15 189 12T171 5T155 -6T148 -24Q148 -53 203 -53Q229 -53 244 -46T259 -24Q259 -14 252 -6T236 5T217 12T203 15Z" horiz-adv-x="407" unicode="₈"/>
			<glyph d="M191 261Q242 261 279 245T341 202T377 137T389 55Q389 3 373 -35T327 -100T257 -139T169 -152Q135 -152 100 -143T41 -119L95 -26Q113 -40 130 -44T170 -48Q186 -48 201 -44T229 -33T249 -12T257 17V19Q239 -2 215 -11T166 -21Q138 -21 111 -11T64 15T31 58T19 115Q19 148 32 175T68 221T122 250T191 261ZM200 157Q179 157 165 146T152 121Q152 109 157 101T171 89T188 82T205 80Q219 80 232 83T257 97Q256 121 242 139T200 157Z" horiz-adv-x="407" unicode="₉"/>
			<glyph d="M133 319L213 288Q180 229 167 174T155 54Q155 -12 167 -66T213 -180L133 -211Q108 -192 87 -162T52 -96T29 -21T21 54Q21 90 29 128T52 203T87 269T133 319Z" horiz-adv-x="223" unicode="₍"/>
			<glyph d="M89 319Q114 299 134 269T170 203T193 128T202 54Q202 18 193 -21T170 -95T134 -161T89 -211L10 -180Q42 -121 55 -66T68 54Q68 120 55 175T10 288Z" horiz-adv-x="223" unicode="₎"/>
			<glyph d="M415 768H510L477 670Q490 667 501 664T524 656L561 768H656L604 611Q639 584 662 550T700 484L538 408L465 186Q510 214 526 263L700 183Q685 150 661 115T600 52T514 6T400 -12L371 -100H276L308 -3Q296 -1 284 2T261 10L225 -100H130L179 49Q110 94 70 166T30 333Q30 409 57 471T131 579T244 649T385 677ZM421 497L318 185Q338 174 364 169L466 479Q445 492 421 497ZM321 482Q281 462 258 422T235 333Q235 295 249 262Z" horiz-adv-x="712" unicode="₡"/>
			<glyph d="M61 667H567V491H263V425H560V249H263V178H370V81H263V0H61V81H7V178H61Z" horiz-adv-x="599" unicode="₣"/>
			<glyph d="M303 677Q402 677 466 646T566 547L406 455Q395 487 374 501T329 515Q299 515 281 497T263 456Q263 440 268 423H419V339H301Q305 325 308 304H419V220H292Q285 209 277 200T259 185Q270 189 282 190T302 191Q322 191 336 187T362 178T387 170T416 166Q446 166 464 175T492 199L569 40Q549 18 510 3T409 -12Q377 -12 351 -5T303 9T262 23T226 30Q200 30 170 20T112 -7L46 125Q61 133 76 143T103 165T123 190T131 220H26V304H106L87 339H26V423H47Q42 443 42 460Q42 514 66 554T129 622T214 663T303 677Z" horiz-adv-x="581" unicode="₤"/>
			<glyph d="M61 667H269L501 351V667H703V451H757V354H703V317H757V220H703V0H509L263 338V0H61V220H7V317H61V354H7V451H61Z" horiz-adv-x="764" unicode="₦"/>
			<glyph d="M61 667H417Q468 667 509 651T580 606T628 539T653 457H711V360H653Q647 316 628 277T580 210T509 166T417 150H263V0H61V360H7V457H61ZM263 360V326H391Q424 326 441 360ZM263 491V457H441Q433 473 420 482T391 491Z" horiz-adv-x="715" unicode="₧"/>
			<glyph d="M880 495Q941 495 994 478T1089 433L1023 316Q1000 335 961 350T881 366Q861 366 848 359T836 345Q836 335 856 331T907 322T973 310T1039 284T1089 235T1110 154Q1110 118 1094 87T1049 35T977 0T881 -12Q848 -12 814 -6T748 9T690 32T644 62L716 183Q730 172 751 161T797 141T845 127T890 122Q918 122 928 128T938 143Q938 154 917 158T867 167T801 179T735 203T684 250T664 330Q664 363 678 392T719 445T787 481T880 495ZM54 667H410Q468 667 513 649T588 599T634 526T650 438Q650 395 638 361T609 303T571 262T530 236L651 0H421L329 210H256V0H54ZM256 491V386H379Q405 386 425 398T445 439Q445 466 425 478T379 491Z" horiz-adv-x="1125" unicode="₨"/>
			<glyph d="M-12 667H214L259 451H347L401 667H553L606 451H694L739 667H966L904 451H949V354H876L866 317H949V220H838L775 0H563L513 220H441L391 0H179L116 220H5V317H88L77 354H5V451H50ZM280 354L288 317H314L323 354ZM630 354L639 317H666L673 354ZM471 354L463 317H491L482 354Z" horiz-adv-x="954" unicode="₩"/>
			<glyph d="M651 550H819V225Q819 174 808 132T769 61T695 16T575 0H250V359H418V153H575Q600 153 615 158T638 175T648 203T651 242ZM50 550H375Q448 550 495 534T569 489T608 418T619 325V190H451V308Q451 330 448 346T438 374T415 391T375 397H218V0H50Z" horiz-adv-x="869" unicode="₪"/>
			<glyph d="M127 -101H490V-198H127ZM366 667H546V618H595V521H546V0H366V51Q335 16 301 2T230 -12Q186 -12 147 4T80 53T34 132T17 242Q17 302 33 349T79 428T146 478T230 495Q267 495 302 481T366 432V521H232V618H366ZM291 336Q254 336 227 311T201 242Q201 197 227 172T291 147Q309 147 331 155T366 180V304Q353 320 331 328T291 336Z" horiz-adv-x="602" unicode="₫"/>
			<glyph d="M410 678Q476 678 525 660T612 615T673 553T713 484L539 403Q533 422 520 440T491 471T453 492T410 500Q373 500 343 487T292 451H470V356H249Q248 350 248 344Q248 339 248 333Q248 328 248 323Q248 318 249 313H470V218H289Q311 194 341 180T410 166Q432 166 453 174T491 195T520 225T539 263L713 183Q698 150 673 115T612 52T526 6T410 -12Q347 -12 291 4T190 50T112 122T61 218H12V313H43V356H12V451H62Q80 503 113 545T192 616T292 662T410 678Z" horiz-adv-x="722" unicode="€"/>
			<glyph d="M318 677Q364 677 408 665T485 632T539 581T560 514Q560 482 544 453T503 399T445 349T378 303L231 208V174Q231 155 241 142T271 129Q282 129 290 131T307 138L339 20Q320 3 287 -4T217 -12Q180 -12 149 -3T97 23T63 70T51 140V469Q51 514 70 552T125 618T210 661T318 677ZM314 555Q274 555 252 532T231 469V369L320 427Q358 452 374 468T390 504Q390 528 367 541T314 555Z" horiz-adv-x="576" unicode="ℓ"/>
			<glyph d="M952 680Q995 680 1029 666T1087 630T1122 577T1135 515Q1135 482 1122 452T1087 400T1029 363T952 350Q909 350 875 363T818 400T782 452T770 515Q770 548 782 577T818 630T875 666T952 680ZM952 578Q928 578 914 563T901 515Q901 481 914 465T952 450Q977 450 991 465T1005 515Q1005 549 991 563T952 578ZM54 667H262L494 351V667H696V0H502L256 338V0H54Z" horiz-adv-x="1155" unicode="№"/>
			<glyph d="M389 679Q460 679 523 652T633 578T707 468T734 334Q734 263 707 200T633 90T523 16T389 -11Q318 -11 255 16T145 90T71 200T44 334Q44 405 71 468T145 578T255 652T389 679ZM389 637Q327 637 271 613T175 547T110 451T86 334Q86 272 110 216T175 120T271 55T389 31Q451 31 506 55T602 120T668 216T692 334Q692 396 668 451T602 547T506 613T389 637ZM266 536H432Q457 536 480 527T521 502T549 463T560 413Q560 386 549 364T521 326T480 301T432 292H320V131H266ZM320 488V340H432Q445 340 458 345T481 360T497 383T503 413Q503 429 497 443T481 467T458 482T432 488Z" horiz-adv-x="778" unicode="℗"/>
			<glyph d="M225 667H268L332 507L396 667H439V447H411V629L336 447H328L253 629V447H225ZM99 673Q154 673 181 641L163 622Q140 649 100 649Q79 649 65 639T52 613Q52 600 62 592T87 580T120 571T153 559T178 539T188 506Q188 476 166 457T101 439Q72 439 50 449T15 475L33 496Q44 483 61 474T102 465Q129 465 142 475T155 503Q155 518 145 526T120 539T87 548T54 560T29 578T19 611Q19 638 41 655T99 673Z" horiz-adv-x="476" unicode="℠"/>
			<glyph d="M205 667H248L312 507L376 667H419V447H391V629L316 447H308L233 629V447H205ZM17 667H169V641H107V447H79V641H17Z" horiz-adv-x="454" unicode="™"/>
			<glyph d="M383 678Q460 678 527 658T643 601T720 509T748 383Q748 347 737 316T708 259T670 212T629 176H731V0H433V176Q463 185 484 202T518 242T537 288T543 335Q543 359 535 387T510 441T461 482T383 499Q336 499 305 482T256 441T230 387T223 335Q223 312 229 288T248 242T282 202T333 176V0H35V176H138Q118 192 96 212T57 259T29 316T18 383Q18 454 46 509T123 601T239 658T383 678Z" horiz-adv-x="766" unicode="Ω"/>
			<glyph d="M421 684Q502 684 573 656T697 581T780 470T811 333V324H179Q174 324 174 319V129Q174 115 183 106Q228 58 290 30T423 3Q499 3 563 33T673 118H730Q676 55 596 18T421 -18Q340 -18 269 9T145 84T61 196T31 333Q31 406 61 470T145 581T269 656T421 684ZM423 663Q352 663 290 635T184 561Q174 551 174 537V349Q174 343 179 343H664Q668 343 668 349V540Q668 554 658 564Q613 610 552 636T423 663Z" horiz-adv-x="842" unicode="℮"/>
			<glyph d="M163 667H276V267H144V500L74 431L0 509ZM594 667H692L265 0H168ZM723 406Q812 406 854 374T896 295Q896 264 872 238T807 206Q824 204 841 197T872 179T894 150T903 113Q903 86 890 64T853 26T795 2T722 -7Q660 -7 614 10T543 55L605 142Q631 117 663 107T717 97Q746 97 759 104T772 123Q772 143 752 147T699 151Q685 151 670 151Q655 151 650 150V252Q657 251 672 251Q687 251 698 251Q736 251 750 256T765 277Q765 291 749 296T708 302Q682 302 655 292T606 263L548 340Q576 369 618 387T723 406Z" horiz-adv-x="927" unicode="⅓"/>
			<glyph d="M197 673Q281 673 328 637T376 542Q376 523 369 505T346 467T302 424T232 371H380V267H42V362Q114 412 154 441T215 488T239 513T244 531Q244 548 231 558T194 569Q178 569 162 564T132 553T106 537T88 521L22 605Q59 643 107 658T197 673ZM661 667H759L332 0H235ZM790 406Q879 406 921 374T963 295Q963 264 939 238T874 206Q891 204 908 197T939 179T961 150T970 113Q970 86 957 64T920 26T862 2T789 -7Q727 -7 681 10T610 55L672 142Q698 117 730 107T784 97Q813 97 826 104T839 123Q839 143 819 147T766 151Q752 151 737 151Q722 151 717 150V252Q724 251 739 251Q754 251 765 251Q803 251 817 256T832 277Q832 291 816 296T775 302Q749 302 722 292T673 263L615 340Q643 369 685 387T790 406Z" horiz-adv-x="994" unicode="⅔"/>
			</font>
</defs>
</svg>
