<?xml version="1.0" encoding="UTF-8" standalone="no"?>
<svg
   xmlns:dc="http://purl.org/dc/elements/1.1/"
   xmlns:cc="http://creativecommons.org/ns#"
   xmlns:rdf="http://www.w3.org/1999/02/22-rdf-syntax-ns#"
   xmlns:svg="http://www.w3.org/2000/svg"
   xmlns="http://www.w3.org/2000/svg"
   viewBox="0 0 72 72"
   height="72"
   width="72"
   version="1.1"
   id="svg3390">
  <metadata
     id="metadata3396">
    <rdf:RDF>
      <cc:Work
         rdf:about="">
        <dc:format>image/svg+xml</dc:format>
        <dc:type
           rdf:resource="http://purl.org/dc/dcmitype/StillImage" />
        <dc:title></dc:title>
      </cc:Work>
    </rdf:RDF>
  </metadata>
  <defs
     id="defs3394" />
  <g
     transform="matrix(0.62778767,0,0,0.56214637,1.6921381,8.3359076)"
     id="g3410">
    <g
       id="g3414">
      <path
         id="path3408"
         d="m 2.6775178,95.820097 c 0,-0.2783 8.5021302,-17.86346 18.8936342,-39.078116 10.391501,-21.21466 20.440594,-41.743202 22.331317,-45.618984 l 3.437679,-7.0468753 6.32299,0 c 6.01734,0 6.38502,0.11355 7.60599,2.348959 4.13096,7.5631343 43.054222,87.7981863 43.054222,88.7504563 0,0.89035 -1.99406,1.15058 -8.816442,1.15058 l -8.81645,0 -16.14682,-34.600786 C 61.662878,42.694905 54.052508,27.239319 53.631698,27.37959 c -0.88842,0.296138 -19.350016,39.788421 -19.350016,41.392741 0,0.81956 3.313775,1.07462 13.961366,1.07462 12.2331,0 14.12188,0.18504 15.2581,1.4948 1.82537,2.104166 4.38848,9.294466 3.70651,10.397896 -0.37928,0.61369 -7.08668,0.9198 -20.15435,0.9198 l -19.585894,0 -3.435732,6.83334 -3.435733,6.83333 -8.959221,0 c -4.9275702,0 -8.9592102,-0.2277 -8.9592102,-0.50602 z"
         style="fill:#000000" />
    </g>
  </g>
</svg>
