<?xml version="1.0" encoding="UTF-8"?>
<svg height="100%" width="100%" xmlns="http://www.w3.org/2000/svg">
	<defs>
		<font horiz-adv-x="589" id="web">
			<font-face alphabetic="0" ascent="920" descent="-298" font-family="" panose-1="2 0 5 6 3 0 0 2 0 4"/>
			<missing-glyph d="M80 752H431V-90H80ZM111 722V-60H399V722Z" horiz-adv-x="471"/>
			<glyph d="" horiz-adv-x="256" unicode=" "/>
			<glyph d="M135 667H319L200 233H62ZM108 176Q126 176 141 169T168 150T186 123T193 89Q193 68 184 50T162 18T129 -4T90 -12Q54 -12 29 13T5 74Q5 95 13 113T35 146T68 168T108 176Z" horiz-adv-x="270" unicode="!"/>
			<glyph d="M207 677Q236 677 257 656T278 604Q278 594 275 585T270 571Q268 567 263 556T252 529T236 495T220 457Q200 412 176 357H111Q111 414 112 462Q112 482 112 502T113 539T114 568Q114 580 114 584Q114 604 121 621T141 650T171 670T207 677ZM407 677Q436 677 457 656T478 604Q478 594 475 585T470 571Q468 567 463 556T452 529T437 495T420 457Q400 412 376 357H312Q312 414 313 462Q313 482 313 502T314 539Q314 556 314 568T315 584Q315 604 322 621T341 650T371 670T407 677Z" horiz-adv-x="438" unicode="&quot;"/>
			<glyph d="M367 667H477L386 501H472L563 667H674L582 501H675L625 407H530L447 259H543L492 164H394L304 0H193L284 164H197L107 0H-3L88 164H-4L48 259H141L223 407H130L181 501H275ZM333 407L251 259H336L419 407Z" horiz-adv-x="632" unicode="#"/>
			<glyph d="M380 768H491L467 664Q518 651 562 626T641 567L536 447Q516 468 491 484T440 510T387 525T335 530Q306 530 288 516T270 483Q270 465 294 452T354 427T431 399T509 361T569 304T593 223Q593 174 574 131T520 56T434 6T320 -12H317L298 -100H187L209 0Q142 14 88 43T2 115L107 239Q142 193 203 164T334 136Q376 136 393 153T411 189Q411 208 387 220T327 246T250 274T172 312T113 367T89 449Q89 491 106 531T158 604T243 657T359 677Z" horiz-adv-x="625" unicode="$"/>
			<glyph d="M649 667H736L162 0H76ZM565 322Q598 322 628 312T681 285T717 241T731 182Q731 139 716 103T675 41T614 2T542 -12Q509 -12 479 -2T427 25T390 69T377 128Q377 171 392 207T433 268T493 308T565 322ZM562 230Q530 230 506 205T483 138Q483 113 500 96T546 80Q578 80 601 105T624 172Q624 197 607 213T562 230ZM267 677Q300 677 330 667T383 640T419 596T433 537Q433 493 418 457T377 396T316 357T244 343Q211 343 181 352T129 380T92 424T79 483Q79 526 94 562T135 623T195 663T267 677ZM264 585Q232 585 208 560T185 493Q185 467 202 451T248 435Q280 435 303 459T326 527Q326 552 309 568T264 585Z" horiz-adv-x="771" unicode="%"/>
			<glyph d="M386 677Q423 677 457 668T517 641T558 596T574 534Q574 490 556 459T510 408T444 372T369 345L399 289Q409 271 418 254T437 220Q463 246 483 274T519 330L627 262Q599 224 567 187T500 117Q519 88 538 59T581 0H402Q397 6 391 13T380 30Q343 10 304 -1T223 -12Q176 -12 135 -2T64 29T17 85T0 168Q0 216 15 251T57 312T118 356T189 387Q182 413 178 438T174 487Q174 528 190 562T234 622T302 662T386 677ZM226 287Q199 270 183 246T167 187Q167 147 191 127T249 107Q279 107 315 124Q301 147 288 167T268 202Q257 223 246 244T226 287ZM392 568Q368 568 347 548T327 488Q327 463 335 433Q380 448 409 467T439 519Q439 544 425 556T392 568Z" horiz-adv-x="649" unicode="&amp;"/>
			<glyph d="M207 677Q236 677 257 656T278 604Q278 594 275 585T270 571Q268 567 263 556T252 529T236 495T220 457Q200 412 176 357H111Q111 414 112 462Q112 482 112 502T113 539T114 568Q114 580 114 584Q114 604 121 621T141 650T171 670T207 677Z" horiz-adv-x="239" unicode="'"/>
			<glyph d="M304 685L385 603Q338 549 300 487T237 358T197 220T183 76Q183 21 194 -34T223 -135L110 -199Q66 -140 44 -56T23 115Q23 193 43 272T99 425T188 566T304 685Z" horiz-adv-x="322" unicode="("/>
			<glyph d="M210 685Q232 656 248 619T276 542T292 457T298 371Q298 292 278 213T221 60T132 -80T17 -199L-64 -117Q30 -8 83 127T137 409Q137 465 125 520T98 621Z" horiz-adv-x="322" unicode=")"/>
			<glyph d="M237 677H311L280 565L383 612L405 547L301 509L384 451L333 394L256 459L239 355H165L195 466L91 420L71 485L176 523L92 581L142 638L218 572Z" horiz-adv-x="357" unicode="*"/>
			<glyph d="M276 574H377L335 383H509L489 291H315L271 93H169L213 291H39L60 383H234Z" horiz-adv-x="507" unicode="+"/>
			<glyph d="M107 176Q125 176 141 170T169 152T189 123T197 83Q197 52 185 20T151 -41T99 -94T35 -136L-18 -81Q-5 -75 10 -66T40 -47T67 -23T87 3Q85 2 81 2Q77 2 75 2Q46 2 25 20T4 77Q4 97 13 115T36 146T68 168T107 176Z" horiz-adv-x="270" unicode=","/>
			<glyph d="M44 307H284L255 178H15Z" horiz-adv-x="300" unicode="-"/>
			<glyph d="M108 176Q126 176 141 169T168 150T186 123T193 89Q193 68 184 50T162 18T129 -4T90 -12Q54 -12 29 13T5 74Q5 95 13 113T35 146T68 168T108 176Z" horiz-adv-x="270" unicode="."/>
			<glyph d="M332 687H446L52 -20H-61Z" horiz-adv-x="346" unicode="/"/>
			<glyph d="M376 677Q431 677 477 659T556 607T607 522T626 405Q626 321 601 245T531 112T423 21T287 -12Q232 -12 186 5T106 57T54 143T36 261Q36 345 61 420T132 553T239 643T376 677ZM359 525Q322 525 294 499T247 433T218 345T208 254Q208 203 230 171T303 140Q340 140 368 166T415 232T443 321T453 413Q453 463 431 494T359 525Z" horiz-adv-x="624" unicode="0"/>
			<glyph d="M331 667H480L333 0H161L259 447L123 334L47 437Z" horiz-adv-x="447" unicode="1"/>
			<glyph d="M341 677Q396 677 445 663T532 624T592 560T615 473Q615 382 535 304T302 150H547L513 0H-10L24 157Q132 216 210 260T338 339T411 403T435 461Q435 492 405 509T327 527Q273 527 233 509T163 469L94 593Q141 633 206 655T341 677Z" horiz-adv-x="607" unicode="2"/>
			<glyph d="M332 677Q396 677 448 665T537 630T593 574T613 500Q613 468 597 440T555 392T498 356T433 338Q459 332 482 320T522 291T549 248T559 190Q559 145 537 108T479 44T394 3T292 -12Q244 -12 198 -3T111 23T37 66T-17 127L94 232Q112 208 136 191T186 162T240 145T291 140Q342 140 365 160T389 209Q389 219 384 228T368 245T335 256T280 261Q269 261 255 261Q241 261 228 261Q215 261 205 260T191 260L226 413Q230 413 241 412T267 412Q282 412 296 412Q311 412 320 412Q372 412 403 424T435 468Q435 496 403 511T315 526Q272 526 230 513T156 477L97 593Q139 631 199 654T332 677Z" horiz-adv-x="602" unicode="3"/>
			<glyph d="M359 667H607L519 273H600L567 122H486L460 0H287L314 122H-6L27 270ZM402 517L194 273H347Z" horiz-adv-x="616" unicode="4"/>
			<glyph d="M154 667H638L605 517H293L266 391Q293 413 322 423T395 433Q436 433 472 420T534 383T576 323T591 243Q591 191 570 144T512 63T422 8T304 -12Q203 -12 129 21T10 114L130 224Q157 186 202 163T306 140Q359 140 385 165T412 223Q412 257 380 275T298 294Q259 294 234 285T184 257L74 299Z" horiz-adv-x="617" unicode="5"/>
			<glyph d="M405 677Q480 677 538 654T639 591L536 469Q510 497 472 511T394 525Q364 525 337 515T289 488T252 450T227 405Q223 398 221 390T217 375Q243 402 287 420T381 438Q426 438 465 425T533 387T579 328T596 250Q596 196 573 148T511 64T420 8T310 -12Q245 -12 193 6T106 58T51 141T32 253Q32 339 57 416T131 551T248 643T405 677ZM298 301Q269 301 244 291T201 267Q200 262 199 253T199 239Q199 191 232 165T310 140Q355 140 385 165T416 229Q416 245 406 258T381 281T343 296T298 301Z" horiz-adv-x="617" unicode="6"/>
			<glyph d="M114 667H637L610 548L257 0H60L397 517H81Z" horiz-adv-x="560" unicode="7"/>
			<glyph d="M365 677Q414 677 463 667T552 636T616 582T641 503Q641 471 629 443T596 392T543 353T476 328Q525 301 552 263T580 180Q580 133 555 97T490 37T398 0T292 -12Q238 -12 186 -1T95 31T31 87T7 171Q7 231 51 283T183 361Q144 380 117 414T90 492Q90 541 114 576T178 634T267 666T365 677ZM355 534Q318 534 290 517T263 474Q263 462 270 452T290 433T316 419T346 410Q395 413 426 429T457 472Q457 499 428 516T355 534ZM313 268Q288 267 265 261T226 247T199 225T189 195Q189 164 218 147T298 131Q343 131 374 149T405 195Q405 222 378 240T313 268Z" horiz-adv-x="618" unicode="8"/>
			<glyph d="M345 678Q410 678 461 660T549 608T604 525T623 413Q623 327 597 250T524 115T407 23T250 -11Q174 -11 116 12T16 75L119 198Q145 169 182 155T261 141Q291 141 317 151T365 177T403 215T428 261Q431 268 433 276T437 290Q411 263 367 245T274 228Q229 228 190 241T121 278T75 337T58 416Q58 470 81 518T143 601T235 657T345 678ZM345 526Q299 526 268 501T238 437Q238 420 247 407T273 384T310 370T356 365Q385 365 409 374T454 399Q455 404 455 412Q455 421 455 427Q455 450 446 468T422 499T387 519T345 526Z" horiz-adv-x="617" unicode="9"/>
			<glyph d="M108 176Q126 176 141 169T168 150T186 123T193 89Q193 68 184 50T162 18T129 -4T90 -12Q54 -12 29 13T5 74Q5 95 13 113T35 146T68 168T108 176ZM176 491Q194 491 209 484T237 465T255 437T262 404Q262 383 253 364T231 332T198 310T159 302Q123 302 98 327T73 389Q73 410 81 428T104 461T136 483T176 491Z" horiz-adv-x="270" unicode=":"/>
			<glyph d="M107 176Q125 176 141 170T169 152T189 123T197 83Q197 52 185 20T151 -41T99 -94T35 -136L-18 -81Q-5 -75 10 -66T40 -47T67 -23T87 3Q85 2 81 2Q77 2 75 2Q46 2 25 20T4 77Q4 97 13 115T36 146T68 168T107 176ZM176 491Q194 491 209 484T237 465T255 437T262 404Q262 383 253 364T231 332T198 310T159 302Q123 302 98 327T73 389Q73 410 81 428T104 461T136 483T176 491Z" horiz-adv-x="270" unicode=";"/>
			<glyph d="M552 580L527 466L152 329L467 195L443 90L36 279L61 390Z" horiz-adv-x="507" unicode="&lt;"/>
			<glyph d="M79 473H528L508 381H59ZM38 287H487L467 195H18Z" horiz-adv-x="507" unicode="="/>
			<glyph d="M103 580L510 390L485 279L-6 90L20 204L395 338L80 475Z" horiz-adv-x="507" unicode="&gt;"/>
			<glyph d="M283 677Q326 677 365 667T435 638T482 592T500 529Q500 485 484 455T446 405T396 369T346 341T307 310T292 270Q292 267 293 260T300 248L159 214Q145 244 145 284Q145 321 158 346T190 390T231 420T273 443T305 464T318 490Q318 527 256 527Q230 527 202 517T151 487L79 606Q127 644 179 660T283 677ZM200 176Q218 176 233 169T260 150T278 123T285 89Q285 68 277 50T254 18T221 -4T182 -12Q164 -12 148 -5T121 13T103 40T97 74Q97 95 105 113T127 146T160 168T200 176Z" horiz-adv-x="453" unicode="?"/>
			<glyph d="M452 638Q524 638 582 614T682 548T745 452T767 337Q767 272 746 224T695 146T627 100T557 85Q509 85 486 106T456 155L455 162Q429 124 392 104T318 85Q281 85 252 98T203 134T172 188T162 256Q162 305 180 348T230 425T301 477T384 497Q428 497 459 480T507 436L517 484H653L604 254Q603 250 602 241T602 228Q602 206 611 196T634 187Q649 187 664 196T692 223T713 270T721 337Q721 395 702 443T647 525T561 577T448 596Q377 596 313 567T202 491T125 380T97 247Q97 188 118 137T176 50T265 -8T377 -29Q426 -29 471 -15T557 25L580 -7Q533 -37 480 -53T372 -70Q304 -70 246 -46T145 20T79 120T55 244Q55 323 88 394T175 520T302 606T452 638ZM419 391Q393 391 371 380T334 352T310 313T302 268Q302 233 321 212T375 192Q409 192 431 209T467 245L489 351Q481 365 464 378T419 391Z" horiz-adv-x="783" unicode="@"/>
			<glyph d="M333 667H549L654 0H467L455 96H192L139 0H-65ZM412 497L272 246H442Z" horiz-adv-x="697" unicode="A"/>
			<glyph d="M153 667H501Q548 667 583 653T641 616T676 564T688 504Q688 471 675 441T642 388T594 350T537 332Q585 319 608 280T632 199Q632 165 619 129T579 65T506 18T397 0H6ZM294 522L269 411H434Q454 411 467 416T489 431T500 451T504 474Q504 494 489 508T452 522ZM237 265L210 145H382Q419 145 439 164T460 213Q460 236 445 250T405 265Z" horiz-adv-x="680" unicode="B"/>
			<glyph d="M430 678Q497 678 549 660T639 614T701 549T739 473L573 419Q559 470 518 498T422 526Q378 526 340 508T275 460T231 389T215 302Q215 268 227 238T260 187T313 152T384 140Q425 140 465 161T529 217L663 129Q633 88 596 61T522 17T445 -5T374 -12Q303 -12 241 9T134 69T62 165T36 291Q36 378 67 449T153 572T278 650T430 678Z" horiz-adv-x="692" unicode="C"/>
			<glyph d="M153 667H428Q483 667 536 646T631 588T698 498T724 380Q724 315 701 248T626 125T491 35T285 0H6ZM292 517L211 150H312H317Q371 150 413 167T485 215T530 284T546 368Q546 399 535 426T504 473T457 505T397 517Z" horiz-adv-x="727" unicode="D"/>
			<glyph d="M153 667H642L608 517H292L269 413H579L546 263H236L211 150H528L495 0H6Z" unicode="E"/>
			<glyph d="M153 667H642L608 517H292L269 413H579L546 263H236L178 0H6Z" horiz-adv-x="582" unicode="F"/>
			<glyph d="M447 678Q504 678 549 662T630 622T689 566T728 503L570 437Q564 455 550 471T516 499T473 519T422 526Q380 526 342 508T276 461T231 390T215 302Q215 270 226 240T259 188T312 153T384 140Q418 140 445 151T496 180L507 233H357L391 383H712L653 117Q605 56 533 22T374 -12Q305 -12 244 8T136 68T63 163T36 291Q36 374 66 445T150 567T280 648T447 678Z" horiz-adv-x="723" unicode="G"/>
			<glyph d="M153 667H325L270 418H547L602 667H774L627 0H455L514 268H237L178 0H6Z" horiz-adv-x="741" unicode="H"/>
			<glyph d="M153 667H325L178 0H6Z" horiz-adv-x="292" unicode="I"/>
			<glyph d="M353 667H525L428 229Q401 105 339 46T168 -12Q140 -12 112 -8T57 5T8 27T-33 59L58 188Q73 168 99 154T155 140Q197 140 222 164T257 231Z" horiz-adv-x="492" unicode="J"/>
			<glyph d="M153 667H325L268 406L521 667H742L415 355L609 0H407L283 257L221 195L178 0H6Z" horiz-adv-x="654" unicode="K"/>
			<glyph d="M153 667H325L211 150H479L446 0H6Z" horiz-adv-x="529" unicode="L"/>
			<glyph d="M153 667H386L444 298L665 667H910L763 0H591L688 441L422 0H346L275 441L178 0H6Z" horiz-adv-x="877" unicode="M"/>
			<glyph d="M153 667H330L516 288L600 667H773L626 0H460L266 398L178 0H6Z" horiz-adv-x="740" unicode="N"/>
			<glyph d="M430 678Q502 678 563 656T670 595T742 500T768 377Q768 296 738 225T655 101T531 18T374 -12Q302 -12 240 9T133 71T62 166T36 291Q36 372 66 442T148 565T273 648T430 678ZM420 526Q376 526 338 508T273 460T230 389T215 302Q215 266 227 236T262 184T316 151T384 140Q428 140 465 157T530 205T573 277T589 364Q589 400 576 430T541 481T488 514T420 526Z" horiz-adv-x="766" unicode="O"/>
			<glyph d="M153 667H476Q520 667 556 652T618 611T658 550T672 476Q672 439 658 395T612 313T524 249T387 224H227L178 0H6ZM292 517L260 374H396Q438 374 466 397T494 457Q494 485 475 501T425 517Z" horiz-adv-x="643" unicode="P"/>
			<glyph d="M430 678Q502 678 563 656T670 595T742 500T768 377Q768 282 728 202T619 69L650 18L513 -45L484 2Q430 -12 374 -12Q302 -12 240 9T133 71T62 166T36 291Q36 372 66 442T148 565T273 648T430 678ZM420 526Q376 526 338 508T273 460T230 389T215 302Q215 266 227 236T262 184T316 151T384 140H401L354 218L492 282L534 210Q560 240 574 279T589 364Q589 400 576 430T541 481T488 514T420 526Z" horiz-adv-x="766" unicode="Q"/>
			<glyph d="M153 667H457Q500 667 539 653T608 614T655 553T673 472Q673 427 659 388T621 319T564 267T495 236L575 0H385L323 224H227L178 0H6ZM292 517L260 374H394H397Q441 374 467 395T494 454Q494 482 473 499T423 517Z" horiz-adv-x="661" unicode="R"/>
			<glyph d="M350 677Q431 677 504 649T629 567L524 447Q504 468 479 484T428 510T375 525T323 530Q294 530 276 516T258 483Q258 465 282 452T342 427T419 399T497 361T557 304T581 223Q581 174 562 131T508 56T422 6T308 -12Q257 -12 209 -3T121 23T46 63T-10 115L95 239Q130 193 191 164T322 136Q364 136 381 153T399 189Q399 208 375 220T315 246T238 274T160 312T101 367T77 449Q77 491 95 532T147 605T233 657T350 677Z" horiz-adv-x="606" unicode="S"/>
			<glyph d="M115 667H660L627 517H440L327 0H155L268 517H81Z" unicode="T"/>
			<glyph d="M153 667H328L241 274Q238 266 238 246Q238 225 246 205T270 171T310 147T366 138Q435 138 472 176T522 274L609 667H783L696 271Q682 210 658 158T595 69T499 9T366 -12Q289 -12 231 5T136 54T79 129T60 226Q60 234 61 248T65 270Z" horiz-adv-x="750" unicode="U"/>
			<glyph d="M82 667H268L327 186L597 667H801L402 0H186Z" horiz-adv-x="697" unicode="V"/>
			<glyph d="M87 667H276L279 222L491 667H622L638 222L837 667H1035L697 0H515L506 418L313 0H131Z" horiz-adv-x="936" unicode="W"/>
			<glyph d="M97 667H291L383 467L551 667H764L469 332L632 0H438L335 214L148 0H-65L250 352Z" horiz-adv-x="676" unicode="X"/>
			<glyph d="M82 667H267L358 421L555 667H759L419 269L360 0H188L247 269Z" horiz-adv-x="655" unicode="Y"/>
			<glyph d="M132 667H643L613 530L253 150H536L503 0H-15L15 137L374 517H99Z" horiz-adv-x="596" unicode="Z"/>
			<glyph d="M147 678H377L355 579H233L85 -91H206L184 -190H-47Z" horiz-adv-x="298" unicode="["/>
			<glyph d="M98 687H207L287 -20H178Z" horiz-adv-x="346" unicode="\"/>
			<glyph d="M114 678H344L151 -190H-78L-57 -91H65L214 579H92Z" horiz-adv-x="298" unicode="]"/>
			<glyph d="M261 667H372L445 333H341L298 564L154 333H38Z" horiz-adv-x="445" unicode="^"/>
			<glyph d="M-65 -40H504L481 -139H-88Z" horiz-adv-x="564" unicode="_"/>
			<glyph d="M101 700H237L332 556H228Z" horiz-adv-x="263" unicode="`"/>
			<glyph d="M274 495Q319 495 358 477T421 426L434 483H587L480 0H327L339 56Q308 21 275 4T201 -12Q120 -12 70 39T20 188Q20 240 36 295T84 394T163 466T274 495ZM301 359Q274 359 252 348T213 318T188 273T179 220Q179 176 206 150T273 124Q300 124 323 136T364 169L397 315Q382 335 357 347T301 359Z" horiz-adv-x="591" unicode="a"/>
			<glyph d="M149 667H303L250 427Q282 463 315 479T388 495Q470 495 520 443T570 294Q570 242 554 187T505 89T425 16T315 -12Q270 -12 231 5T168 57L156 0H2ZM317 359Q290 359 266 346T225 314L193 168Q208 148 233 136T289 124Q315 124 337 135T376 165T402 209T411 262Q411 307 383 333T317 359Z" horiz-adv-x="591" unicode="b"/>
			<glyph d="M307 495Q386 495 436 467T512 397L397 310Q384 331 361 345T306 359Q277 359 253 348T213 318T186 273T177 219Q177 174 207 149T282 124Q310 124 333 136T373 167L456 66Q443 52 424 38T382 13T329 -5T267 -12Q210 -12 164 4T87 50T38 120T21 210Q21 270 43 322T103 412T194 473T307 495Z" horiz-adv-x="500" unicode="c"/>
			<glyph d="M475 667H628L480 0H327L339 56Q308 21 275 4T201 -12Q120 -12 70 39T20 188Q20 240 36 295T84 394T163 466T274 495Q319 495 358 477T421 426ZM301 359Q274 359 252 348T213 318T188 273T179 220Q179 176 206 150T273 124Q300 124 323 136T364 169L397 315Q382 335 357 347T301 359Z" horiz-adv-x="591" unicode="d"/>
			<glyph d="M304 495Q350 495 390 481T461 439T508 370T526 277Q526 254 522 230T516 193H174V187Q174 178 181 164T202 138T238 116T290 107Q320 107 351 115T403 137L450 35Q415 11 369 0T278 -12Q220 -12 172 2T91 45T39 114T21 207Q21 265 42 317T100 409T190 472T304 495ZM297 376Q275 376 256 368T224 348T201 321T189 293H389Q390 294 390 296Q390 299 390 300Q390 312 385 325T368 349T339 368T297 376Z" horiz-adv-x="548" unicode="e"/>
			<glyph d="M345 677Q384 677 420 665T483 627L410 540Q390 560 358 560Q333 560 319 545T301 506L295 483H394L364 350H266L189 0H35L112 350H32L62 483H141L147 509Q155 543 170 574T210 627T268 663T345 677Z" horiz-adv-x="349" unicode="f"/>
			<glyph d="M271 495Q312 495 352 477T419 426L433 483H586L488 43Q472 -31 441 -77T373 -150T293 -186T212 -196Q139 -196 77 -176T-30 -111L57 -9Q69 -24 86 -35T123 -54T165 -66T209 -70Q229 -70 248 -65T284 -47T314 -13T335 43L343 78Q316 45 280 26T203 8Q167 8 134 18T75 52T35 113T20 203Q20 257 37 309T86 403T164 469T271 495ZM292 359Q244 359 211 324T179 233Q179 194 206 169T276 144Q302 144 326 156T367 189L394 310Q362 359 292 359Z" horiz-adv-x="590" unicode="g"/>
			<glyph d="M150 667H304L249 424Q263 437 279 449T314 472T356 488T406 495Q479 495 520 460T561 370Q561 362 559 350T556 330L484 0H330L389 274Q391 281 392 290T394 306Q394 335 373 347T321 359Q292 359 267 344T225 312L157 0H3Z" horiz-adv-x="594" unicode="h"/>
			<glyph d="M225 703Q260 703 282 681T304 628Q304 604 294 585T271 553T239 533T205 526Q170 526 147 548T125 602Q125 626 134 645T158 677T190 696T225 703ZM109 483H263L156 0H2Z" horiz-adv-x="266" unicode="i"/>
			<glyph d="M109 483H263L156 4Q147 -40 131 -76T91 -139T33 -181T-46 -196Q-144 -196 -190 -156L-128 -46Q-117 -59 -101 -64T-69 -70Q-15 -70 2 4ZM225 703Q260 703 282 681T304 628Q304 604 294 585T271 553T239 533T205 526Q170 526 147 548T125 602Q125 626 134 645T158 677T190 696T225 703Z" horiz-adv-x="266" unicode="j"/>
			<glyph d="M149 667H303L221 298L404 483H596L369 263L498 0H313L243 174L181 116L156 0H2Z" horiz-adv-x="546" unicode="k"/>
			<glyph d="M149 667H303L156 0H2Z" horiz-adv-x="266" unicode="l"/>
			<glyph d="M394 495Q431 495 458 483T501 456T526 426T534 405V404Q548 421 565 437T602 466T646 487T699 495Q727 495 753 487T799 463T831 423T843 370Q843 359 841 347T838 330L764 0H611L671 273Q672 279 674 289T676 307Q676 333 657 346T613 359Q587 359 565 344T529 312L460 0H306L366 273Q368 281 370 291T372 309Q372 332 355 345T309 359Q283 359 261 344T225 312L156 0H2L109 483H263L249 424Q259 434 273 446T305 470T345 488T394 495Z" horiz-adv-x="875" unicode="m"/>
			<glyph d="M406 495Q479 495 520 460T561 370Q561 363 559 350T556 330L483 0H329L389 271Q391 278 392 287T394 306Q394 335 374 347T328 359Q294 359 268 344T225 312L156 0H2L109 483H263L249 424Q263 437 279 449T314 472T356 488T406 495Z" horiz-adv-x="593" unicode="n"/>
			<glyph d="M304 495Q365 495 411 478T489 431T537 360T553 272Q553 216 532 164T473 74T384 11T269 -12Q208 -12 161 5T83 52T36 122T20 210Q20 266 41 317T99 408T189 471T304 495ZM299 359Q272 359 249 347T211 315T186 270T178 218Q178 173 204 148T275 124Q302 124 324 136T362 167T387 212T396 265Q396 310 370 334T299 359Z" horiz-adv-x="576" unicode="o"/>
			<glyph d="M388 495Q470 495 520 443T570 294Q570 242 554 187T505 89T425 16T315 -12Q270 -12 231 5T168 57L115 -184H-39L109 483H263L250 427Q282 463 315 479T388 495ZM317 359Q290 359 266 346T225 314L193 168Q208 148 233 136T289 124Q315 124 337 135T376 165T402 209T411 262Q411 307 383 333T317 359Z" unicode="p"/>
			<glyph d="M274 495Q319 495 358 477T421 426L434 483H587L439 -184H286L339 56Q308 21 275 4T201 -12Q120 -12 70 39T20 188Q20 240 36 295T84 394T163 466T274 495ZM301 359Q274 359 252 348T213 318T188 273T179 220Q179 176 206 150T273 124Q300 124 323 136T364 169L397 315Q382 335 357 347T301 359Z" unicode="q"/>
			<glyph d="M417 496L383 345Q377 347 363 349T333 352Q301 352 272 338T223 304L156 0H2L109 483H263L250 425Q279 457 320 476T417 496Z" horiz-adv-x="375" unicode="r"/>
			<glyph d="M257 495Q318 495 375 474T472 417L398 322Q389 332 374 342T340 362T300 376T257 382Q230 382 216 371T203 348Q203 335 221 327T265 310T323 292T381 265T426 224T444 162Q444 126 429 94T386 38T317 1T225 -12Q158 -12 94 10T-14 76L67 175Q78 163 97 150T139 125T187 107T239 100Q262 100 276 110T290 135Q290 151 272 160T227 178T170 196T112 222T68 262T50 325Q50 358 63 388T103 442T168 480T257 495Z" horiz-adv-x="484" unicode="s"/>
			<glyph d="M170 615H324L295 483H393L363 350H265L229 186Q226 174 226 164Q226 146 237 135T272 124Q280 124 289 126T302 132L304 9Q290 -2 267 -7T221 -12Q186 -12 156 -5T106 16T73 51T61 102Q61 107 61 117T64 137L111 350H31L61 483H141Z" horiz-adv-x="360" unicode="t"/>
			<glyph d="M109 483H262L201 204Q199 197 198 190T197 178Q197 149 218 136T268 124Q299 124 324 139T367 172L435 483H589L482 0H328L342 59Q328 46 312 33T276 11T234 -5T185 -12Q112 -12 71 23T30 113Q30 120 31 132T35 153Z" horiz-adv-x="592" unicode="u"/>
			<glyph d="M43 483H201L241 177L420 483H587L290 0H126Z" horiz-adv-x="524" unicode="v"/>
			<glyph d="M47 483H201L212 187L374 483H511L540 187L683 483H846L596 0H430L405 299L249 0H83Z" horiz-adv-x="787" unicode="w"/>
			<glyph d="M57 483H222L275 352L386 483H560L353 248L464 0H300L239 146L113 0H-60L159 248Z" horiz-adv-x="512" unicode="x"/>
			<glyph d="M43 483H201L241 177L420 483H587L246 -69Q224 -105 202 -129T155 -168T102 -189T41 -196Q18 -196 -5 -193T-48 -184L1 -52Q10 -56 23 -57T51 -59Q70 -59 83 -53T106 -33L125 -2Z" horiz-adv-x="524" unicode="y"/>
			<glyph d="M91 483H494L469 374L223 133H420L391 0H-16L8 113L250 349H61Z" horiz-adv-x="483" unicode="z"/>
			<glyph d="M321 678H381L359 579H299Q238 579 221 506L180 323Q173 291 157 266T115 233Q144 216 144 176Q144 168 143 159T140 142L104 -18Q103 -23 102 -27T102 -36Q102 -61 118 -76T157 -91H211L188 -190H144Q113 -190 85 -179T37 -150T4 -106T-8 -51Q-8 -34 -4 -19L31 137Q32 142 32 146T33 155Q33 176 22 189T-7 203L12 285Q41 285 56 304T78 351L113 506Q133 596 187 637T321 678Z" horiz-adv-x="302" unicode="{"/>
			<glyph d="M80 687H179V-20H80Z" horiz-adv-x="219" unicode="|"/>
			<glyph d="M113 678H157Q188 678 215 667T264 638T297 594T309 539Q309 521 305 506L270 351Q269 346 268 341T268 333Q268 311 278 298T308 285L289 203Q260 203 244 184T223 137L189 -18Q169 -108 114 -149T-20 -190H-80L-58 -91H2Q63 -91 80 -19L121 165Q128 197 143 222T186 255Q157 272 157 312Q157 320 158 328T161 346L197 506Q198 511 198 515T199 523Q199 549 183 564T144 579H90Z" horiz-adv-x="302" unicode="}"/>
			<glyph d="M258 667Q295 667 315 654T346 623T360 582T365 541T373 509T391 497Q404 497 418 512T444 553T466 608T481 667L579 655Q569 610 554 566T517 486T462 429T385 407Q348 407 327 419T296 451T283 491T277 532T270 563T252 576Q238 576 225 560T200 520T178 466T163 406L63 418Q72 464 87 508T125 588T181 645T258 667Z" horiz-adv-x="514" unicode="~"/>
			<glyph d="" horiz-adv-x="256" unicode=" "/>
			<glyph d="M66 250H204L131 -184H-53ZM176 495Q212 495 237 469T262 408Q262 387 253 369T231 337T198 315T159 307Q141 307 125 314T98 332T79 359T73 393Q73 414 81 432T104 465T136 487T176 495Z" horiz-adv-x="270" unicode="¡"/>
			<glyph d="M306 565H415L397 482Q438 470 466 447T512 397L397 310Q384 331 361 345T306 359Q277 359 253 348T213 318T186 273T177 219Q177 174 207 149T282 124Q310 124 333 136T373 167L456 66Q432 40 389 16T286 -11L267 -100H158L180 0Q105 21 63 76T21 210Q21 267 41 317T98 406T183 468T290 494Z" horiz-adv-x="500" unicode="¢"/>
			<glyph d="M361 677Q453 677 520 641T611 536L456 473Q450 505 426 521T369 538Q328 538 302 510T276 439Q276 417 282 400T294 365H433L411 269H299Q288 231 264 202T217 162Q242 169 260 169Q281 169 297 164T329 154T360 144T396 140Q422 140 440 150T472 175L508 39Q489 17 458 2T381 -12Q349 -12 317 -5T257 9T202 24T157 31Q107 31 47 -7L15 108Q69 132 104 173T140 263V269H29L51 365H112Q103 386 96 409T89 460Q89 506 111 545T170 614T256 660T361 677Z" horiz-adv-x="565" unicode="£"/>
			<glyph d="M182 638L242 559Q295 581 354 581Q398 581 434 571T499 545L593 621L671 526L583 454Q593 432 598 408T604 360Q604 309 585 262T535 179L590 111L489 30L429 105Q377 85 319 85Q280 85 244 93T177 118L79 39L0 137L88 209Q68 252 68 304Q68 355 86 401T136 485L81 557ZM344 445Q317 445 294 434T256 406T232 364T224 314Q224 273 251 246T327 220Q353 220 375 230T414 257T440 298T449 348Q449 388 423 416T344 445Z" horiz-adv-x="635" unicode="¤"/>
			<glyph d="M83 667H268L359 421L556 667H760L498 361H658L637 269H420L405 203H622L602 111H385L361 0H189L213 111H-6L14 203H233L248 269H29L50 361H210Z" horiz-adv-x="655" unicode="¥"/>
			<glyph d="M80 296H179V-20H80ZM80 687H179V371H80Z" horiz-adv-x="219" unicode="¦"/>
			<glyph d="M300 677Q378 677 432 657T521 604L444 520Q422 543 384 557T306 571Q273 571 258 559T244 530Q244 513 261 503T305 484T363 465T420 439T464 399T482 338Q482 313 473 289T450 246T414 212T370 189Q399 172 413 146T427 91Q427 54 411 22T366 -32T299 -68T213 -81Q137 -81 71 -59T-37 4L45 95Q60 79 79 66T120 43T166 29T213 24Q242 24 258 37T274 67Q274 85 256 96T213 117T156 137T99 163T55 203T38 266Q38 317 67 353T156 410Q126 425 109 452T92 514Q92 551 108 581T151 632T217 665T300 677ZM266 361Q228 355 210 337T192 296Q192 273 212 259T262 236Q294 244 308 263T323 303Q323 327 305 341T266 361Z" horiz-adv-x="492" unicode="§"/>
			<glyph d="M352 693Q381 693 401 673T421 623Q421 606 413 590T393 562T365 543T332 536Q303 536 283 556T263 606Q263 623 270 639T290 667T319 686T352 693ZM138 693Q168 693 188 673T208 623Q208 606 200 590T180 562T152 543T119 536Q89 536 69 556T49 606Q49 623 56 639T76 667T105 686T138 693Z" horiz-adv-x="306" unicode="¨"/>
			<glyph d="M408 679Q480 679 543 652T653 578T727 468T754 334Q754 263 727 200T653 90T543 16T408 -11Q337 -11 274 16T164 90T91 200T64 334Q64 406 91 468T164 578T274 652T408 679ZM408 640Q345 640 289 616T192 550T127 452T103 334Q103 271 127 215T192 118T289 52T408 28Q471 28 527 52T624 118T690 215T715 334Q715 397 690 452T624 550T527 616T408 640ZM435 544Q486 544 528 524T596 463L554 434Q517 501 432 501Q399 501 367 486T309 446T268 386T253 309Q253 281 262 255T290 209T334 178T395 167Q427 167 456 181T507 216L535 179Q508 156 471 140T394 124Q350 124 315 138T255 176T216 234T203 307Q203 358 222 401T273 476T348 526T435 544Z" horiz-adv-x="778" unicode="©"/>
			<glyph d="M270 562Q252 562 236 554T210 532T192 501T186 464Q186 433 203 419T245 405Q260 405 275 412T301 430L326 541Q316 552 300 557T270 562ZM240 648Q272 648 297 638T340 605L348 640H457L388 326H278L285 361Q265 338 243 328T196 318Q171 318 149 326T110 351T83 392T73 450Q73 492 86 528T122 591T175 633T240 648Z" horiz-adv-x="415" unicode="ª"/>
			<glyph d="M229 420H372L168 238L284 63H149L29 243ZM441 420H584L380 238L496 63H361L241 243Z" horiz-adv-x="571" unicode="«"/>
			<glyph d="M79 473H528L467 195H373L413 381H59Z" horiz-adv-x="521" unicode="¬"/>
			<glyph d="M44 307H284L255 178H15Z" horiz-adv-x="300" unicode="­"/>
			<glyph d="M296 677Q340 677 379 660T446 615T491 548T508 465Q508 421 491 382T446 315T378 269T295 253Q251 253 212 269T145 315T100 382T84 465Q84 509 100 548T146 615T213 660T296 677ZM295 643Q258 643 225 629T169 591T131 534T117 465Q117 428 131 395T169 338T225 300T295 286Q332 286 364 300T421 338T460 395T474 465Q474 502 460 534T421 591T364 629T295 643ZM240 586H334Q367 586 386 567T406 522Q406 505 399 490T381 464T355 446T326 440L370 343H328L286 439H244L223 343H187ZM270 556L251 470H314Q340 470 354 485T368 520Q368 535 358 545T326 556Z" horiz-adv-x="494" unicode="®"/>
			<glyph d="M88 641H450L431 556H69Z" horiz-adv-x="363" unicode="¯"/>
			<glyph d="M224 677Q254 677 280 666T325 635T356 590T367 535Q367 505 356 479T325 434T280 404T224 393Q195 393 169 404T124 434T94 479T83 535Q83 564 94 590T124 635T169 666T224 677ZM224 598Q198 598 180 579T163 535Q163 509 180 491T223 473Q249 473 268 491T287 535Q287 561 268 579T224 598Z" horiz-adv-x="321" unicode="°"/>
			<glyph d="M284 609H385L342 419H516L496 327H322L278 129H177L221 327H47L67 419H241ZM-5 92H444L424 0H-25Z" horiz-adv-x="507" unicode="±"/>
			<glyph d="M297 827Q335 827 366 818T421 794T456 756T469 707Q469 657 420 611T269 511H429L409 421H83L102 507Q181 552 230 582T306 632T342 667T351 696Q351 716 334 726T292 737Q259 737 228 724T180 694L134 770Q166 798 210 812T297 827Z" horiz-adv-x="402" unicode="²"/>
			<glyph d="M293 827Q375 827 422 798T470 718Q470 683 443 653T360 619Q393 611 415 589T438 532Q438 510 427 489T395 451T344 424T275 414Q212 414 161 434T87 488L156 558Q177 529 208 516T269 504Q299 504 312 516T325 545Q325 562 303 570T241 579Q233 579 222 579Q211 579 206 578L225 667Q229 667 237 666T256 666Q266 666 276 666Q286 666 292 666Q354 666 354 702Q354 720 332 728T281 737Q254 737 228 729T179 703L143 774Q172 799 212 813T293 827Z" horiz-adv-x="402" unicode="³"/>
			<glyph d="M226 700H364L173 556H67Z" horiz-adv-x="263" unicode="´"/>
			<glyph d="M111 483H265L202 203Q192 163 210 143T263 124Q296 124 322 139T366 171L435 483H588L518 162Q513 143 521 133T546 124Q558 124 566 127L547 -3Q533 -8 513 -10T476 -12Q363 -12 353 75Q326 37 288 12T207 -12Q190 -12 176 -7T156 5L113 -184H-40Z" horiz-adv-x="606" unicode="µ"/>
			<glyph d="M273 667H508L338 -100H267L421 596H348L193 -100H122L216 323Q188 323 163 334T119 367T90 416T79 479Q79 514 93 548T134 608T195 651T273 667Z" horiz-adv-x="449" unicode="¶"/>
			<glyph d="M143 340Q161 340 176 333T203 314T221 286T228 253Q228 232 220 213T198 181T165 159T126 151Q90 151 65 176T40 238Q40 259 48 277T71 310T103 332T143 340Z" horiz-adv-x="270" unicode="·"/>
			<glyph d="M29 11H100L61 -49Q69 -44 75 -41T91 -39Q117 -39 134 -56T151 -103Q151 -148 117 -173T35 -198Q-7 -198 -39 -185T-89 -155L-50 -101Q-32 -118 -10 -127T35 -137Q55 -137 67 -129T79 -107Q79 -99 72 -93T53 -87Q37 -87 26 -100L-20 -70Z" horiz-adv-x="229" unicode="¸"/>
			<glyph d="M280 821H378L290 421H176L231 672L149 606L98 675Z" horiz-adv-x="311" unicode="¹"/>
			<glyph d="M267 648Q306 648 337 637T390 606T423 559T435 500Q435 460 419 426T376 369T314 331T241 318Q202 318 171 329T118 360T84 406T73 465Q73 505 89 538T132 596T194 634T267 648ZM264 559Q243 559 228 550T204 527T190 495T186 462Q186 435 201 420T244 405Q265 405 279 414T303 437T317 468T322 502Q322 529 306 544T264 559Z" horiz-adv-x="405" unicode="º"/>
			<glyph d="M77 420H212L332 240L132 63H-11L193 245ZM289 420H424L544 240L344 63H201L405 245Z" horiz-adv-x="571" unicode="»"/>
			<glyph d="M246 667H344L256 267H142L197 518L115 452L64 521ZM671 400H831L779 167H829L809 78H759L743 0H630L646 78H450L467 155ZM696 301L582 167H666ZM672 667H760L185 0H99Z" horiz-adv-x="865" unicode="¼"/>
			<glyph d="M246 667H344L256 267H142L197 518L115 452L64 521ZM698 406Q736 406 767 397T822 373T857 335T870 286Q870 236 821 190T670 90H830L810 0H484L503 86Q582 131 631 161T707 211T743 246T752 275Q752 295 735 305T693 316Q660 316 629 303T581 273L535 349Q567 377 611 391T698 406ZM672 667H760L185 0H99Z" horiz-adv-x="897" unicode="½"/>
			<glyph d="M748 400H908L856 167H906L886 78H836L820 0H707L723 78H527L544 155ZM773 301L659 167H743ZM749 667H837L262 0H176ZM259 673Q341 673 388 644T436 564Q436 529 409 499T326 465Q359 457 381 435T404 378Q404 356 393 335T361 297T310 270T241 260Q178 260 127 280T53 334L122 404Q143 375 174 362T235 350Q265 350 278 362T291 391Q291 408 269 416T207 425Q199 425 188 425Q177 425 172 424L191 513Q195 513 203 512T222 512Q232 512 242 512Q252 512 258 512Q320 512 320 548Q320 566 298 574T247 583Q220 583 194 575T145 549L109 620Q138 645 178 659T259 673Z" horiz-adv-x="942" unicode="¾"/>
			<glyph d="M293 268Q306 241 306 198Q306 161 293 135T261 92T220 62T178 39T146 17T134 -8Q134 -45 196 -45Q222 -45 250 -35T301 -5L373 -124Q325 -162 272 -178T169 -195Q125 -195 86 -185T17 -156T-30 -110T-48 -47Q-48 -3 -32 26T6 77T56 112T106 141T144 171T160 212Q160 215 158 222T152 234ZM269 494Q287 494 302 487T330 468T348 441T355 408Q355 387 346 368T324 336T291 314T252 306Q216 306 191 331T167 393Q167 414 175 432T197 464T229 486T269 494Z" horiz-adv-x="399" unicode="¿"/>
			<glyph d="M333 667H549L654 0H467L455 96H192L139 0H-65ZM412 497L272 246H442ZM290 867H426L521 723H417Z" horiz-adv-x="697" unicode="À"/>
			<glyph d="M333 667H549L654 0H467L455 96H192L139 0H-65ZM412 497L272 246H442ZM545 867H683L492 723H386Z" horiz-adv-x="697" unicode="Á"/>
			<glyph d="M418 867H553L614 723H524L473 804L389 723H296ZM333 667H549L654 0H467L455 96H192L139 0H-65ZM412 497L272 246H442Z" horiz-adv-x="697" unicode="Â"/>
			<glyph d="M333 667H549L654 0H467L455 96H192L139 0H-65ZM412 497L272 246H442ZM412 861Q438 861 454 852T483 833T507 814T534 806Q559 806 571 855H650Q636 789 608 755T525 721Q499 721 482 729T453 748T430 767T403 776Q377 776 367 727H288Q301 794 328 827T412 861Z" horiz-adv-x="697" unicode="Ã"/>
			<glyph d="M584 860Q613 860 633 840T653 790Q653 773 645 757T625 729T597 710T564 703Q535 703 515 723T495 773Q495 790 502 806T522 834T551 853T584 860ZM370 860Q400 860 420 840T440 790Q440 773 432 757T412 729T384 710T351 703Q321 703 301 723T281 773Q281 790 288 806T308 834T337 853T370 860ZM333 667H549L654 0H467L455 96H192L139 0H-65ZM412 497L272 246H442Z" horiz-adv-x="697" unicode="Ä"/>
			<glyph d="M333 667H549L654 0H467L455 96H192L139 0H-65ZM412 497L272 246H442ZM479 904Q524 904 551 877T578 805Q578 781 568 759T542 722T504 696T459 687Q414 687 387 714T360 786Q360 810 369 831T395 869T433 894T479 904ZM472 836Q455 836 442 823T429 793Q429 776 439 766T466 756Q483 756 496 768T509 799Q509 816 499 826T472 836Z" horiz-adv-x="697" unicode="Å"/>
			<glyph d="M476 667H1036L1002 517H686L663 413H973L939 263H630L605 150H922L889 0H400L421 96H204L130 0H-71ZM507 489L318 246H454Z" horiz-adv-x="979" unicode="Æ"/>
			<glyph d="M430 678Q497 678 549 660T639 614T701 549T739 473L573 419Q559 470 518 498T422 526Q378 526 340 508T275 460T231 389T215 302Q215 268 227 238T260 187T313 152T384 140Q425 140 465 161T529 217L663 129Q633 88 596 61T522 17T445 -5T374 -12Q369 -12 363 -12Q357 -12 352 -11L328 -49Q336 -44 342 -41T358 -39Q384 -39 401 -56T418 -103Q418 -148 384 -173T302 -198Q260 -198 227 -185T178 -155L217 -101Q235 -118 257 -127T302 -137Q322 -137 334 -129T346 -107Q346 -99 339 -93T320 -87Q304 -87 293 -100L247 -70L287 -3Q233 8 187 33T107 96T55 183T36 291Q36 378 67 449T153 572T278 650T430 678Z" horiz-adv-x="692" unicode="Ç"/>
			<glyph d="M153 667H642L608 517H292L269 413H579L546 263H236L211 150H528L495 0H6ZM245 867H381L476 723H372Z" unicode="È"/>
			<glyph d="M500 867H638L447 723H341ZM153 667H642L608 517H292L269 413H579L546 263H236L211 150H528L495 0H6Z" unicode="É"/>
			<glyph d="M372 867H507L568 723H478L427 804L343 723H250ZM153 667H642L608 517H292L269 413H579L546 263H236L211 150H528L495 0H6Z" unicode="Ê"/>
			<glyph d="M540 860Q569 860 589 840T609 790Q609 773 601 757T581 729T553 710T520 703Q491 703 471 723T451 773Q451 790 458 806T478 834T507 853T540 860ZM326 860Q356 860 376 840T396 790Q396 773 388 757T368 729T340 710T307 703Q277 703 257 723T237 773Q237 790 244 806T264 834T293 853T326 860ZM153 667H642L608 517H292L269 413H579L546 263H236L211 150H528L495 0H6Z" unicode="Ë"/>
			<glyph d="M153 667H325L178 0H6ZM88 867H224L319 723H215Z" horiz-adv-x="292" unicode="Ì"/>
			<glyph d="M153 667H325L178 0H6ZM341 867H479L288 723H182Z" horiz-adv-x="292" unicode="Í"/>
			<glyph d="M214 867H349L410 723H320L269 804L185 723H92ZM153 667H325L178 0H6Z" horiz-adv-x="292" unicode="Î"/>
			<glyph d="M381 860Q410 860 430 840T450 790Q450 773 442 757T422 729T394 710T361 703Q332 703 312 723T292 773Q292 790 299 806T319 834T348 853T381 860ZM167 860Q197 860 217 840T237 790Q237 773 229 757T209 729T181 710T148 703Q118 703 98 723T78 773Q78 790 85 806T105 834T134 853T167 860ZM153 667H325L178 0H6Z" horiz-adv-x="292" unicode="Ï"/>
			<glyph d="M176 667H451Q506 667 559 646T654 588T721 498T747 380Q747 315 724 248T649 125T514 35T308 0H29L87 265H12L42 402H117ZM315 517L289 402H428L398 265H259L234 150H343Q396 150 438 168T509 215T553 284T569 368Q569 399 558 426T527 473T480 505T420 517Z" horiz-adv-x="750" unicode="Ð"/>
			<glyph d="M433 861Q459 861 475 852T504 833T528 814T555 806Q580 806 592 855H671Q657 789 629 755T546 721Q520 721 503 729T474 748T451 767T424 776Q398 776 388 727H309Q322 794 349 827T433 861ZM153 667H330L516 288L600 667H773L626 0H460L266 398L178 0H6Z" horiz-adv-x="740" unicode="Ñ"/>
			<glyph d="M325 867H461L556 723H452ZM430 678Q502 678 563 656T670 595T742 500T768 377Q768 296 738 225T655 101T531 18T374 -12Q302 -12 240 9T133 71T62 166T36 291Q36 372 66 442T148 565T273 648T430 678ZM420 526Q376 526 338 508T273 460T230 389T215 302Q215 266 227 236T262 184T316 151T384 140Q428 140 465 157T530 205T573 277T589 364Q589 400 576 430T541 481T488 514T420 526Z" horiz-adv-x="766" unicode="Ò"/>
			<glyph d="M578 867H716L525 723H419ZM430 678Q502 678 563 656T670 595T742 500T768 377Q768 296 738 225T655 101T531 18T374 -12Q302 -12 240 9T133 71T62 166T36 291Q36 372 66 442T148 565T273 648T430 678ZM420 526Q376 526 338 508T273 460T230 389T215 302Q215 266 227 236T262 184T316 151T384 140Q428 140 465 157T530 205T573 277T589 364Q589 400 576 430T541 481T488 514T420 526Z" horiz-adv-x="766" unicode="Ó"/>
			<glyph d="M452 867H587L648 723H558L507 804L423 723H330ZM430 678Q502 678 563 656T670 595T742 500T768 377Q768 296 738 225T655 101T531 18T374 -12Q302 -12 240 9T133 71T62 166T36 291Q36 372 66 442T148 565T273 648T430 678ZM420 526Q376 526 338 508T273 460T230 389T215 302Q215 266 227 236T262 184T316 151T384 140Q428 140 465 157T530 205T573 277T589 364Q589 400 576 430T541 481T488 514T420 526Z" horiz-adv-x="766" unicode="Ô"/>
			<glyph d="M430 678Q502 678 563 656T670 595T742 500T768 377Q768 296 738 225T655 101T531 18T374 -12Q302 -12 240 9T133 71T62 166T36 291Q36 372 66 442T148 565T273 648T430 678ZM420 526Q376 526 338 508T273 460T230 389T215 302Q215 266 227 236T262 184T316 151T384 140Q428 140 465 157T530 205T573 277T589 364Q589 400 576 430T541 481T488 514T420 526ZM447 861Q473 861 489 852T518 833T542 814T569 806Q594 806 606 855H685Q671 789 643 755T560 721Q534 721 517 729T488 748T465 767T438 776Q412 776 402 727H323Q336 794 363 827T447 861Z" horiz-adv-x="766" unicode="Õ"/>
			<glyph d="M618 860Q647 860 667 840T687 790Q687 773 679 757T659 729T631 710T598 703Q569 703 549 723T529 773Q529 790 536 806T556 834T585 853T618 860ZM404 860Q434 860 454 840T474 790Q474 773 466 757T446 729T418 710T385 703Q355 703 335 723T315 773Q315 790 322 806T342 834T371 853T404 860ZM430 678Q502 678 563 656T670 595T742 500T768 377Q768 296 738 225T655 101T531 18T374 -12Q302 -12 240 9T133 71T62 166T36 291Q36 372 66 442T148 565T273 648T430 678ZM420 526Q376 526 338 508T273 460T230 389T215 302Q215 266 227 236T262 184T316 151T384 140Q428 140 465 157T530 205T573 277T589 364Q589 400 576 430T541 481T488 514T420 526Z" horiz-adv-x="766" unicode="Ö"/>
			<glyph d="M452 539L509 469L338 328L442 194L369 134L265 268L94 129L37 199L210 340L105 474L178 534L281 400Z" horiz-adv-x="507" unicode="×"/>
			<glyph d="M430 678Q545 678 631 624L675 667H795L696 570Q730 532 749 483T768 377Q768 296 738 225T655 101T531 18T374 -12Q312 -12 258 4T161 49L110 0H-10L99 106Q69 143 52 189T36 291Q36 372 66 442T148 565T273 648T430 678ZM568 446L283 168Q325 140 384 140Q428 140 465 157T530 205T573 277T589 364Q589 387 583 408T568 446ZM420 526Q376 526 338 508T273 460T230 389T215 302Q215 264 229 233L508 505Q489 515 467 520T420 526Z" horiz-adv-x="766" unicode="Ø"/>
			<glyph d="M153 667H328L241 274Q238 266 238 246Q238 225 246 205T270 171T310 147T366 138Q435 138 472 176T522 274L609 667H783L696 271Q682 210 658 158T595 69T499 9T366 -12Q289 -12 231 5T136 54T79 129T60 226Q60 234 61 248T65 270ZM316 867H452L547 723H443Z" horiz-adv-x="750" unicode="Ù"/>
			<glyph d="M569 867H707L516 723H410ZM153 667H328L241 274Q238 266 238 246Q238 225 246 205T270 171T310 147T366 138Q435 138 472 176T522 274L609 667H783L696 271Q682 210 658 158T595 69T499 9T366 -12Q289 -12 231 5T136 54T79 129T60 226Q60 234 61 248T65 270Z" horiz-adv-x="750" unicode="Ú"/>
			<glyph d="M442 867H577L638 723H548L497 804L413 723H320ZM153 667H328L241 274Q238 266 238 246Q238 225 246 205T270 171T310 147T366 138Q435 138 472 176T522 274L609 667H783L696 271Q682 210 658 158T595 69T499 9T366 -12Q289 -12 231 5T136 54T79 129T60 226Q60 234 61 248T65 270Z" horiz-adv-x="750" unicode="Û"/>
			<glyph d="M610 860Q639 860 659 840T679 790Q679 773 671 757T651 729T623 710T590 703Q561 703 541 723T521 773Q521 790 528 806T548 834T577 853T610 860ZM396 860Q426 860 446 840T466 790Q466 773 458 757T438 729T410 710T377 703Q347 703 327 723T307 773Q307 790 314 806T334 834T363 853T396 860ZM153 667H328L241 274Q238 266 238 246Q238 225 246 205T270 171T310 147T366 138Q435 138 472 176T522 274L609 667H783L696 271Q682 210 658 158T595 69T499 9T366 -12Q289 -12 231 5T136 54T79 129T60 226Q60 234 61 248T65 270Z" horiz-adv-x="750" unicode="Ü"/>
			<glyph d="M82 667H267L358 421L555 667H759L419 269L360 0H188L247 269ZM523 867H661L470 723H364Z" horiz-adv-x="655" unicode="Ý"/>
			<glyph d="M153 667H325L303 565H459Q501 565 536 549T596 507T636 446T650 374Q650 332 634 287T585 206T498 145T366 122H205L178 0H6ZM269 415L238 273H374Q419 273 445 297T471 355Q471 383 452 399T402 415Z" horiz-adv-x="643" unicode="Þ"/>
			<glyph d="M373 677Q415 677 454 666T524 636T573 589T591 528Q591 495 579 471T548 429T509 399T469 376T439 355T427 332Q427 321 442 314T481 301T531 284T581 259T619 220T635 161Q635 126 619 94T575 39T508 2T424 -12Q355 -12 302 7T204 74L285 169Q311 140 345 122T427 104Q451 104 466 115T482 141Q482 155 466 163T428 178T378 194T329 217T290 252T275 308Q275 343 286 367T314 409T351 439T387 462T415 482T427 506Q427 526 407 538T358 551Q314 551 290 526T259 463L157 0H3L105 463Q115 506 135 545T187 613T266 659T373 677Z" horiz-adv-x="665" unicode="ß"/>
			<glyph d="M274 495Q319 495 358 477T421 426L434 483H587L480 0H327L339 56Q308 21 275 4T201 -12Q120 -12 70 39T20 188Q20 240 36 295T84 394T163 466T274 495ZM301 359Q274 359 252 348T213 318T188 273T179 220Q179 176 206 150T273 124Q300 124 323 136T364 169L397 315Q382 335 357 347T301 359ZM196 700H332L427 556H323Z" horiz-adv-x="591" unicode="à"/>
			<glyph d="M274 495Q319 495 358 477T421 426L434 483H587L480 0H327L339 56Q308 21 275 4T201 -12Q120 -12 70 39T20 188Q20 240 36 295T84 394T163 466T274 495ZM301 359Q274 359 252 348T213 318T188 273T179 220Q179 176 206 150T273 124Q300 124 323 136T364 169L397 315Q382 335 357 347T301 359ZM449 700H587L396 556H290Z" horiz-adv-x="591" unicode="á"/>
			<glyph d="M274 495Q319 495 358 477T421 426L434 483H587L480 0H327L339 56Q308 21 275 4T201 -12Q120 -12 70 39T20 188Q20 240 36 295T84 394T163 466T274 495ZM301 359Q274 359 252 348T213 318T188 273T179 220Q179 176 206 150T273 124Q300 124 323 136T364 169L397 315Q382 335 357 347T301 359ZM322 700H457L518 556H428L377 637L293 556H200Z" horiz-adv-x="591" unicode="â"/>
			<glyph d="M274 495Q319 495 358 477T421 426L434 483H587L480 0H327L339 56Q308 21 275 4T201 -12Q120 -12 70 39T20 188Q20 240 36 295T84 394T163 466T274 495ZM301 359Q274 359 252 348T213 318T188 273T179 220Q179 176 206 150T273 124Q300 124 323 136T364 169L397 315Q382 335 357 347T301 359ZM318 694Q344 694 360 685T389 666T413 647T440 639Q465 639 477 688H556Q542 622 514 588T431 554Q405 554 388 562T359 581T336 600T309 609Q283 609 273 560H194Q207 627 234 660T318 694Z" horiz-adv-x="591" unicode="ã"/>
			<glyph d="M274 495Q319 495 358 477T421 426L434 483H587L480 0H327L339 56Q308 21 275 4T201 -12Q120 -12 70 39T20 188Q20 240 36 295T84 394T163 466T274 495ZM301 359Q274 359 252 348T213 318T188 273T179 220Q179 176 206 150T273 124Q300 124 323 136T364 169L397 315Q382 335 357 347T301 359ZM488 693Q517 693 537 673T557 623Q557 606 549 590T529 562T501 543T468 536Q439 536 419 556T399 606Q399 623 406 639T426 667T455 686T488 693ZM274 693Q304 693 324 673T344 623Q344 606 336 590T316 562T288 543T255 536Q225 536 205 556T185 606Q185 623 192 639T212 667T241 686T274 693Z" horiz-adv-x="591" unicode="ä"/>
			<glyph d="M274 495Q319 495 358 477T421 426L434 483H587L480 0H327L339 56Q308 21 275 4T201 -12Q120 -12 70 39T20 188Q20 240 36 295T84 394T163 466T274 495ZM301 359Q274 359 252 348T213 318T188 273T179 220Q179 176 206 150T273 124Q300 124 323 136T364 169L397 315Q382 335 357 347T301 359ZM386 738Q431 738 458 711T485 639Q485 615 475 593T449 556T411 530T366 521Q321 521 294 548T267 620Q267 644 276 665T302 703T340 728T386 738ZM379 670Q362 670 349 657T336 627Q336 610 346 600T373 590Q390 590 403 602T416 633Q416 650 406 660T379 670Z" horiz-adv-x="591" unicode="å"/>
			<glyph d="M301 359Q274 359 252 348T213 318T188 273T179 220Q179 176 206 150T273 124Q300 124 323 136T364 169L397 315Q382 335 357 347T301 359ZM274 495Q319 495 358 477T421 426L434 483H587L577 436Q602 461 635 478T710 495Q791 495 836 445T881 289Q881 263 877 234T870 193H529V187Q529 178 536 165T559 139T597 118T652 110Q681 110 709 118T758 140L805 35Q769 12 728 0T655 -12Q592 -12 552 10T495 66L480 0H327L339 56Q308 21 275 4T201 -12Q120 -12 70 39T20 188Q20 240 36 295T84 394T163 466T274 495ZM653 376Q631 376 612 368T580 348T557 321T545 293H744V299Q744 311 739 325T723 350T695 368T653 376Z" horiz-adv-x="902" unicode="æ"/>
			<glyph d="M307 495Q386 495 436 467T512 397L397 310Q384 331 361 345T306 359Q277 359 253 348T213 318T186 273T177 219Q177 174 207 149T282 124Q310 124 333 136T373 167L456 66Q443 52 424 38T382 13T329 -5T267 -12H263L239 -49Q247 -44 253 -41T269 -39Q295 -39 312 -56T329 -103Q329 -148 295 -173T213 -198Q171 -198 138 -185T89 -155L128 -101Q146 -118 168 -127T213 -137Q233 -137 245 -129T257 -107Q257 -99 250 -93T231 -87Q215 -87 204 -100L158 -70L197 -5Q114 13 67 70T21 210Q21 270 43 322T103 412T194 473T307 495Z" horiz-adv-x="500" unicode="ç"/>
			<glyph d="M304 495Q350 495 390 481T461 439T508 370T526 277Q526 254 522 230T516 193H174V187Q174 178 181 164T202 138T238 116T290 107Q320 107 351 115T403 137L450 35Q415 11 369 0T278 -12Q220 -12 172 2T91 45T39 114T21 207Q21 265 42 317T100 409T190 472T304 495ZM297 376Q275 376 256 368T224 348T201 321T189 293H389Q390 294 390 296Q390 299 390 300Q390 312 385 325T368 349T339 368T297 376ZM194 700H330L425 556H321Z" horiz-adv-x="548" unicode="è"/>
			<glyph d="M447 700H585L394 556H288ZM304 495Q350 495 390 481T461 439T508 370T526 277Q526 254 522 230T516 193H174V187Q174 178 181 164T202 138T238 116T290 107Q320 107 351 115T403 137L450 35Q415 11 369 0T278 -12Q220 -12 172 2T91 45T39 114T21 207Q21 265 42 317T100 409T190 472T304 495ZM297 376Q275 376 256 368T224 348T201 321T189 293H389Q390 294 390 296Q390 299 390 300Q390 312 385 325T368 349T339 368T297 376Z" horiz-adv-x="548" unicode="é"/>
			<glyph d="M320 700H455L516 556H426L375 637L291 556H198ZM304 495Q350 495 390 481T461 439T508 370T526 277Q526 254 522 230T516 193H174V187Q174 178 181 164T202 138T238 116T290 107Q320 107 351 115T403 137L450 35Q415 11 369 0T278 -12Q220 -12 172 2T91 45T39 114T21 207Q21 265 42 317T100 409T190 472T304 495ZM297 376Q275 376 256 368T224 348T201 321T189 293H389Q390 294 390 296Q390 299 390 300Q390 312 385 325T368 349T339 368T297 376Z" horiz-adv-x="548" unicode="ê"/>
			<glyph d="M487 693Q516 693 536 673T556 623Q556 606 548 590T528 562T500 543T467 536Q438 536 418 556T398 606Q398 623 405 639T425 667T454 686T487 693ZM273 693Q303 693 323 673T343 623Q343 606 335 590T315 562T287 543T254 536Q224 536 204 556T184 606Q184 623 191 639T211 667T240 686T273 693ZM304 495Q350 495 390 481T461 439T508 370T526 277Q526 254 522 230T516 193H174V187Q174 178 181 164T202 138T238 116T290 107Q320 107 351 115T403 137L450 35Q415 11 369 0T278 -12Q220 -12 172 2T91 45T39 114T21 207Q21 265 42 317T100 409T190 472T304 495ZM297 376Q275 376 256 368T224 348T201 321T189 293H389Q390 294 390 296Q390 299 390 300Q390 312 385 325T368 349T339 368T297 376Z" horiz-adv-x="548" unicode="ë"/>
			<glyph d="M109 483H263L156 0H2ZM40 700H176L271 556H167Z" horiz-adv-x="266" unicode="ì"/>
			<glyph d="M291 700H429L238 556H132ZM109 483H263L156 0H2Z" horiz-adv-x="266" unicode="í"/>
			<glyph d="M166 700H301L362 556H272L221 637L137 556H44ZM109 483H263L156 0H2Z" horiz-adv-x="266" unicode="î"/>
			<glyph d="M333 693Q362 693 382 673T402 623Q402 606 394 590T374 562T346 543T313 536Q284 536 264 556T244 606Q244 623 251 639T271 667T300 686T333 693ZM119 693Q149 693 169 673T189 623Q189 606 181 590T161 562T133 543T100 536Q70 536 50 556T30 606Q30 623 37 639T57 667T86 686T119 693ZM109 483H263L156 0H2Z" horiz-adv-x="266" unicode="ï"/>
			<glyph d="M302 723Q366 673 413 624L520 656L537 589L463 567Q514 503 537 438T561 307Q561 243 541 185T485 83T394 14T272 -12Q215 -12 168 3T87 45T35 112T17 200Q17 252 35 298T86 377T162 430T257 450Q318 450 358 422T420 341Q413 383 380 429T303 519L141 471L125 540L242 574Q230 585 218 594T195 612ZM286 315Q261 315 240 306T205 283T183 248T175 206Q175 167 200 145T275 124Q326 124 357 155T389 234Q389 267 363 291T286 315Z" horiz-adv-x="576" unicode="ð"/>
			<glyph d="M406 495Q479 495 520 460T561 370Q561 363 559 350T556 330L483 0H329L389 271Q391 278 392 287T394 306Q394 335 374 347T328 359Q294 359 268 344T225 312L156 0H2L109 483H263L249 424Q263 437 279 449T314 472T356 488T406 495ZM323 694Q349 694 365 685T394 666T418 647T445 639Q470 639 482 688H561Q547 622 519 588T436 554Q410 554 393 562T364 581T341 600T314 609Q288 609 278 560H199Q212 627 239 660T323 694Z" horiz-adv-x="593" unicode="ñ"/>
			<glyph d="M304 495Q365 495 411 478T489 431T537 360T553 272Q553 216 532 164T473 74T384 11T269 -12Q208 -12 161 5T83 52T36 122T20 210Q20 266 41 317T99 408T189 471T304 495ZM299 359Q272 359 249 347T211 315T186 270T178 218Q178 173 204 148T275 124Q302 124 324 136T362 167T387 212T396 265Q396 310 370 334T299 359ZM195 700H331L426 556H322Z" horiz-adv-x="576" unicode="ò"/>
			<glyph d="M446 700H584L393 556H287ZM304 495Q365 495 411 478T489 431T537 360T553 272Q553 216 532 164T473 74T384 11T269 -12Q208 -12 161 5T83 52T36 122T20 210Q20 266 41 317T99 408T189 471T304 495ZM299 359Q272 359 249 347T211 315T186 270T178 218Q178 173 204 148T275 124Q302 124 324 136T362 167T387 212T396 265Q396 310 370 334T299 359Z" horiz-adv-x="576" unicode="ó"/>
			<glyph d="M320 700H455L516 556H426L375 637L291 556H198ZM304 495Q365 495 411 478T489 431T537 360T553 272Q553 216 532 164T473 74T384 11T269 -12Q208 -12 161 5T83 52T36 122T20 210Q20 266 41 317T99 408T189 471T304 495ZM299 359Q272 359 249 347T211 315T186 270T178 218Q178 173 204 148T275 124Q302 124 324 136T362 167T387 212T396 265Q396 310 370 334T299 359Z" horiz-adv-x="576" unicode="ô"/>
			<glyph d="M304 495Q365 495 411 478T489 431T537 360T553 272Q553 216 532 164T473 74T384 11T269 -12Q208 -12 161 5T83 52T36 122T20 210Q20 266 41 317T99 408T189 471T304 495ZM299 359Q272 359 249 347T211 315T186 270T178 218Q178 173 204 148T275 124Q302 124 324 136T362 167T387 212T396 265Q396 310 370 334T299 359ZM316 694Q342 694 358 685T387 666T411 647T438 639Q463 639 475 688H554Q540 622 512 588T429 554Q403 554 386 562T357 581T334 600T307 609Q281 609 271 560H192Q205 627 232 660T316 694Z" horiz-adv-x="576" unicode="õ"/>
			<glyph d="M486 693Q515 693 535 673T555 623Q555 606 547 590T527 562T499 543T466 536Q437 536 417 556T397 606Q397 623 404 639T424 667T453 686T486 693ZM272 693Q302 693 322 673T342 623Q342 606 334 590T314 562T286 543T253 536Q223 536 203 556T183 606Q183 623 190 639T210 667T239 686T272 693ZM304 495Q365 495 411 478T489 431T537 360T553 272Q553 216 532 164T473 74T384 11T269 -12Q208 -12 161 5T83 52T36 122T20 210Q20 266 41 317T99 408T189 471T304 495ZM299 359Q272 359 249 347T211 315T186 270T178 218Q178 173 204 148T275 124Q302 124 324 136T362 167T387 212T396 265Q396 310 370 334T299 359Z" horiz-adv-x="576" unicode="ö"/>
			<glyph d="M60 383H513L492 291H39ZM243 232Q269 232 287 213T305 169Q305 138 282 116T230 95Q204 95 186 113T168 158Q168 188 190 210T243 232ZM320 578Q346 578 364 559T382 515Q382 484 359 462T307 441Q281 441 263 459T245 504Q245 534 267 556T320 578Z" horiz-adv-x="511" unicode="÷"/>
			<glyph d="M304 495Q355 495 395 483T466 450L503 483H601L513 403Q533 376 543 342T553 272Q553 216 532 164T473 74T384 11T269 -12Q217 -12 176 0T105 34L67 0H-28L59 80Q20 134 20 210Q20 266 41 317T99 408T189 471T304 495ZM392 294L219 137Q241 124 275 124Q302 124 324 136T362 167T387 212T396 265Q396 282 392 294ZM299 359Q272 359 249 347T211 315T186 270T178 218Q178 203 181 190L353 346Q329 359 299 359Z" horiz-adv-x="576" unicode="ø"/>
			<glyph d="M109 483H262L201 204Q199 197 198 190T197 178Q197 149 218 136T268 124Q299 124 324 139T367 172L435 483H589L482 0H328L342 59Q328 46 312 33T276 11T234 -5T185 -12Q112 -12 71 23T30 113Q30 120 31 132T35 153ZM201 700H337L432 556H328Z" horiz-adv-x="592" unicode="ù"/>
			<glyph d="M455 700H593L402 556H296ZM109 483H262L201 204Q199 197 198 190T197 178Q197 149 218 136T268 124Q299 124 324 139T367 172L435 483H589L482 0H328L342 59Q328 46 312 33T276 11T234 -5T185 -12Q112 -12 71 23T30 113Q30 120 31 132T35 153Z" horiz-adv-x="592" unicode="ú"/>
			<glyph d="M327 700H462L523 556H433L382 637L298 556H205ZM109 483H262L201 204Q199 197 198 190T197 178Q197 149 218 136T268 124Q299 124 324 139T367 172L435 483H589L482 0H328L342 59Q328 46 312 33T276 11T234 -5T185 -12Q112 -12 71 23T30 113Q30 120 31 132T35 153Z" horiz-adv-x="592" unicode="û"/>
			<glyph d="M495 693Q524 693 544 673T564 623Q564 606 556 590T536 562T508 543T475 536Q446 536 426 556T406 606Q406 623 413 639T433 667T462 686T495 693ZM281 693Q311 693 331 673T351 623Q351 606 343 590T323 562T295 543T262 536Q232 536 212 556T192 606Q192 623 199 639T219 667T248 686T281 693ZM109 483H262L201 204Q199 197 198 190T197 178Q197 149 218 136T268 124Q299 124 324 139T367 172L435 483H589L482 0H328L342 59Q328 46 312 33T276 11T234 -5T185 -12Q112 -12 71 23T30 113Q30 120 31 132T35 153Z" horiz-adv-x="592" unicode="ü"/>
			<glyph d="M43 483H201L241 177L420 483H587L246 -69Q224 -105 202 -129T155 -168T102 -189T41 -196Q18 -196 -5 -193T-48 -184L1 -52Q10 -56 23 -57T51 -59Q70 -59 83 -53T106 -33L125 -2ZM415 700H553L362 556H256Z" horiz-adv-x="524" unicode="ý"/>
			<glyph d="M149 667H303L250 427Q282 463 315 479T388 495Q470 495 520 443T570 294Q570 242 554 187T505 89T425 16T315 -12Q270 -12 231 5T168 57L115 -184H-39ZM317 359Q290 359 266 346T225 314L193 168Q208 148 233 136T289 124Q315 124 337 135T376 165T402 209T411 262Q411 307 383 333T317 359Z" unicode="þ"/>
			<glyph d="M43 483H201L241 177L420 483H587L246 -69Q224 -105 202 -129T155 -168T102 -189T41 -196Q18 -196 -5 -193T-48 -184L1 -52Q10 -56 23 -57T51 -59Q70 -59 83 -53T106 -33L125 -2ZM456 693Q485 693 505 673T525 623Q525 606 517 590T497 562T469 543T436 536Q407 536 387 556T367 606Q367 623 374 639T394 667T423 686T456 693ZM242 693Q272 693 292 673T312 623Q312 606 304 590T284 562T256 543T223 536Q193 536 173 556T153 606Q153 623 160 639T180 667T209 686T242 693Z" horiz-adv-x="524" unicode="ÿ"/>
			<glyph d="M333 667H549L654 0H467L455 96H192L139 0H-65ZM412 497L272 246H442ZM295 808H657L638 723H276Z" horiz-adv-x="697" unicode="Ā"/>
			<glyph d="M274 495Q319 495 358 477T421 426L434 483H587L480 0H327L339 56Q308 21 275 4T201 -12Q120 -12 70 39T20 188Q20 240 36 295T84 394T163 466T274 495ZM301 359Q274 359 252 348T213 318T188 273T179 220Q179 176 206 150T273 124Q300 124 323 136T364 169L397 315Q382 335 357 347T301 359ZM198 641H560L541 556H179Z" horiz-adv-x="591" unicode="ā"/>
			<glyph d="M333 667H549L654 0H467L455 96H192L139 0H-65ZM412 497L272 246H442ZM364 837Q377 811 401 795T461 779Q495 779 526 794T583 837L640 783Q601 742 550 718T446 695Q392 695 351 718T289 783Z" horiz-adv-x="697" unicode="Ă"/>
			<glyph d="M274 495Q319 495 358 477T421 426L434 483H587L480 0H327L339 56Q308 21 275 4T201 -12Q120 -12 70 39T20 188Q20 240 36 295T84 394T163 466T274 495ZM301 359Q274 359 252 348T213 318T188 273T179 220Q179 176 206 150T273 124Q300 124 323 136T364 169L397 315Q382 335 357 347T301 359ZM269 670Q282 644 306 628T366 612Q400 612 431 627T488 670L545 616Q506 575 455 551T351 528Q297 528 256 551T194 616Z" horiz-adv-x="591" unicode="ă"/>
			<glyph d="M333 667H549L654 0Q564 -40 564 -96Q564 -110 572 -117T595 -125Q609 -125 619 -117T638 -95L687 -138Q669 -160 645 -173T591 -186Q552 -186 522 -166T492 -107Q492 -79 505 -51T546 0H467L455 96H192L139 0H-65ZM412 497L272 246H442Z" horiz-adv-x="697" unicode="Ą"/>
			<glyph d="M274 495Q319 495 358 477T421 426L434 483H587L480 0Q390 -40 390 -96Q390 -110 398 -117T421 -125Q435 -125 445 -117T464 -95L513 -138Q495 -160 471 -173T417 -186Q378 -186 348 -166T318 -107Q318 -79 331 -51T372 0H327L339 56Q308 21 275 4T201 -12Q120 -12 70 39T20 188Q20 240 36 295T84 394T163 466T274 495ZM301 359Q274 359 252 348T213 318T188 273T179 220Q179 176 206 150T273 124Q300 124 323 136T364 169L397 315Q382 335 357 347T301 359Z" horiz-adv-x="591" unicode="ą"/>
			<glyph d="M581 872H719L528 728H422ZM430 678Q497 678 549 660T639 614T701 549T739 473L573 419Q559 470 518 498T422 526Q378 526 340 508T275 460T231 389T215 302Q215 268 227 238T260 187T313 152T384 140Q425 140 465 161T529 217L663 129Q633 88 596 61T522 17T445 -5T374 -12Q303 -12 241 9T134 69T62 165T36 291Q36 378 67 449T153 572T278 650T430 678Z" horiz-adv-x="692" unicode="Ć"/>
			<glyph d="M452 700H590L399 556H293ZM307 495Q386 495 436 467T512 397L397 310Q384 331 361 345T306 359Q277 359 253 348T213 318T186 273T177 219Q177 174 207 149T282 124Q310 124 333 136T373 167L456 66Q443 52 424 38T382 13T329 -5T267 -12Q210 -12 164 4T87 50T38 120T21 210Q21 270 43 322T103 412T194 473T307 495Z" horiz-adv-x="500" unicode="ć"/>
			<glyph d="M452 867H587L648 723H558L507 804L423 723H330ZM430 678Q497 678 549 660T639 614T701 549T739 473L573 419Q559 470 518 498T422 526Q378 526 340 508T275 460T231 389T215 302Q215 268 227 238T260 187T313 152T384 140Q425 140 465 161T529 217L663 129Q633 88 596 61T522 17T445 -5T374 -12Q303 -12 241 9T134 69T62 165T36 291Q36 378 67 449T153 572T278 650T430 678Z" horiz-adv-x="692" unicode="Ĉ"/>
			<glyph d="M326 700H461L522 556H432L381 637L297 556H204ZM307 495Q386 495 436 467T512 397L397 310Q384 331 361 345T306 359Q277 359 253 348T213 318T186 273T177 219Q177 174 207 149T282 124Q310 124 333 136T373 167L456 66Q443 52 424 38T382 13T329 -5T267 -12Q210 -12 164 4T87 50T38 120T21 210Q21 270 43 322T103 412T194 473T307 495Z" horiz-adv-x="500" unicode="ĉ"/>
			<glyph d="M430 678Q497 678 549 660T639 614T701 549T739 473L573 419Q559 470 518 498T422 526Q378 526 340 508T275 460T231 389T215 302Q215 268 227 238T260 187T313 152T384 140Q425 140 465 161T529 217L663 129Q633 88 596 61T522 17T445 -5T374 -12Q303 -12 241 9T134 69T62 165T36 291Q36 378 67 449T153 572T278 650T430 678ZM512 860Q542 860 562 840T582 790Q582 773 574 757T554 729T526 710T493 703Q463 703 443 723T423 773Q423 790 430 806T450 834T479 853T512 860Z" horiz-adv-x="692" unicode="Ċ"/>
			<glyph d="M307 495Q386 495 436 467T512 397L397 310Q384 331 361 345T306 359Q277 359 253 348T213 318T186 273T177 219Q177 174 207 149T282 124Q310 124 333 136T373 167L456 66Q443 52 424 38T382 13T329 -5T267 -12Q210 -12 164 4T87 50T38 120T21 210Q21 270 43 322T103 412T194 473T307 495ZM386 693Q416 693 436 673T456 623Q456 606 448 590T428 562T400 543T367 536Q337 536 317 556T297 606Q297 623 304 639T324 667T353 686T386 693Z" horiz-adv-x="500" unicode="ċ"/>
			<glyph d="M363 867H452L503 786L587 867H681L559 723H424ZM430 678Q497 678 549 660T639 614T701 549T739 473L573 419Q559 470 518 498T422 526Q378 526 340 508T275 460T231 389T215 302Q215 268 227 238T260 187T313 152T384 140Q425 140 465 161T529 217L663 129Q633 88 596 61T522 17T445 -5T374 -12Q303 -12 241 9T134 69T62 165T36 291Q36 378 67 449T153 572T278 650T430 678Z" horiz-adv-x="692" unicode="Č"/>
			<glyph d="M237 700H326L377 619L461 700H555L433 556H298ZM307 495Q386 495 436 467T512 397L397 310Q384 331 361 345T306 359Q277 359 253 348T213 318T186 273T177 219Q177 174 207 149T282 124Q310 124 333 136T373 167L456 66Q443 52 424 38T382 13T329 -5T267 -12Q210 -12 164 4T87 50T38 120T21 210Q21 270 43 322T103 412T194 473T307 495Z" horiz-adv-x="500" unicode="č"/>
			<glyph d="M347 867H436L487 786L571 867H665L543 723H408ZM153 667H428Q483 667 536 646T631 588T698 498T724 380Q724 315 701 248T626 125T491 35T285 0H6ZM292 517L211 150H312H317Q371 150 413 167T485 215T530 284T546 368Q546 399 535 426T504 473T457 505T397 517Z" horiz-adv-x="727" unicode="Ď"/>
			<glyph d="M728 679Q754 679 775 661T796 608Q796 584 786 559T760 511T721 470T671 438L630 479Q651 489 676 507T712 546Q710 545 707 545Q705 545 703 545Q681 545 665 559T649 603Q649 618 655 632T673 656T699 673T728 679ZM475 667H628L480 0H327L339 56Q308 21 275 4T201 -12Q120 -12 70 39T20 188Q20 240 36 295T84 394T163 466T274 495Q319 495 358 477T421 426ZM301 359Q274 359 252 348T213 318T188 273T179 220Q179 176 206 150T273 124Q300 124 323 136T364 169L397 315Q382 335 357 347T301 359Z" horiz-adv-x="713" unicode="ď"/>
			<glyph d="M176 667H451Q506 667 559 646T654 588T721 498T747 380Q747 315 724 248T649 125T514 35T308 0H29L87 265H12L42 402H117ZM315 517L289 402H428L398 265H259L234 150H343Q396 150 438 168T509 215T553 284T569 368Q569 399 558 426T527 473T480 505T420 517Z" horiz-adv-x="750" unicode="Đ"/>
			<glyph d="M475 667H628L615 609H665L647 524H596L480 0H327L339 56Q308 21 275 4T201 -12Q120 -12 70 39T20 188Q20 240 36 295T84 394T163 466T274 495Q319 495 358 477T421 426L443 524H301L319 609H462ZM301 359Q274 359 252 348T213 318T188 273T179 220Q179 176 206 150T273 124Q300 124 323 136T364 169L397 315Q382 335 357 347T301 359Z" horiz-adv-x="596" unicode="đ"/>
			<glyph d="M153 667H642L608 517H292L269 413H579L546 263H236L211 150H528L495 0H6ZM248 808H610L591 723H229Z" unicode="Ē"/>
			<glyph d="M304 495Q350 495 390 481T461 439T508 370T526 277Q526 254 522 230T516 193H174V187Q174 178 181 164T202 138T238 116T290 107Q320 107 351 115T403 137L450 35Q415 11 369 0T278 -12Q220 -12 172 2T91 45T39 114T21 207Q21 265 42 317T100 409T190 472T304 495ZM297 376Q275 376 256 368T224 348T201 321T189 293H389Q390 294 390 296Q390 299 390 300Q390 312 385 325T368 349T339 368T297 376ZM195 641H557L538 556H176Z" horiz-adv-x="548" unicode="ē"/>
			<glyph d="M153 667H642L608 517H292L269 413H579L546 263H236L211 150H528L495 0H6ZM320 837Q333 811 357 795T417 779Q451 779 482 794T539 837L596 783Q557 742 506 718T402 695Q348 695 307 718T245 783Z" unicode="Ĕ"/>
			<glyph d="M304 495Q350 495 390 481T461 439T508 370T526 277Q526 254 522 230T516 193H174V187Q174 178 181 164T202 138T238 116T290 107Q320 107 351 115T403 137L450 35Q415 11 369 0T278 -12Q220 -12 172 2T91 45T39 114T21 207Q21 265 42 317T100 409T190 472T304 495ZM297 376Q275 376 256 368T224 348T201 321T189 293H389Q390 294 390 296Q390 299 390 300Q390 312 385 325T368 349T339 368T297 376ZM267 670Q280 644 304 628T364 612Q398 612 429 627T486 670L543 616Q504 575 453 551T349 528Q295 528 254 551T192 616Z" horiz-adv-x="548" unicode="ĕ"/>
			<glyph d="M153 667H642L608 517H292L269 413H579L546 263H236L211 150H528L495 0H6ZM434 867Q464 867 484 847T504 797Q504 780 496 764T476 736T448 717T415 710Q385 710 365 730T345 780Q345 797 352 813T372 841T401 860T434 867Z" unicode="Ė"/>
			<glyph d="M304 495Q350 495 390 481T461 439T508 370T526 277Q526 254 522 230T516 193H174V187Q174 178 181 164T202 138T238 116T290 107Q320 107 351 115T403 137L450 35Q415 11 369 0T278 -12Q220 -12 172 2T91 45T39 114T21 207Q21 265 42 317T100 409T190 472T304 495ZM297 376Q275 376 256 368T224 348T201 321T189 293H389Q390 294 390 296Q390 299 390 300Q390 312 385 325T368 349T339 368T297 376ZM381 693Q411 693 431 673T451 623Q451 606 443 590T423 562T395 543T362 536Q332 536 312 556T292 606Q292 623 299 639T319 667T348 686T381 693Z" horiz-adv-x="548" unicode="ė"/>
			<glyph d="M153 667H642L608 517H292L269 413H579L546 263H236L211 150H528L495 0Q405 -40 405 -96Q405 -110 413 -117T436 -125Q450 -125 460 -117T479 -95L528 -138Q510 -160 486 -173T432 -186Q393 -186 363 -166T333 -107Q333 -79 346 -51T387 0H6Z" unicode="Ę"/>
			<glyph d="M304 495Q350 495 390 481T461 439T508 370T526 277Q526 254 522 230T516 193H174V187Q174 178 181 164T202 138T238 116T290 107Q320 107 351 115T403 137L450 35Q433 23 412 14T370 0Q280 -40 280 -96Q280 -110 288 -117T311 -125Q325 -125 335 -117T354 -95L403 -138Q385 -160 361 -173T307 -186Q268 -186 238 -166T208 -107Q208 -55 250 -11Q198 -8 156 8T84 52T37 119T21 207Q21 265 42 317T100 409T190 472T304 495ZM297 376Q275 376 256 368T224 348T201 321T189 293H389Q390 294 390 296Q390 299 390 300Q390 312 385 325T368 349T339 368T297 376Z" horiz-adv-x="548" unicode="ę"/>
			<glyph d="M284 867H373L424 786L508 867H602L480 723H345ZM153 667H642L608 517H292L269 413H579L546 263H236L211 150H528L495 0H6Z" unicode="Ě"/>
			<glyph d="M230 700H319L370 619L454 700H548L426 556H291ZM304 495Q350 495 390 481T461 439T508 370T526 277Q526 254 522 230T516 193H174V187Q174 178 181 164T202 138T238 116T290 107Q320 107 351 115T403 137L450 35Q415 11 369 0T278 -12Q220 -12 172 2T91 45T39 114T21 207Q21 265 42 317T100 409T190 472T304 495ZM297 376Q275 376 256 368T224 348T201 321T189 293H389Q390 294 390 296Q390 299 390 300Q390 312 385 325T368 349T339 368T297 376Z" horiz-adv-x="548" unicode="ě"/>
			<glyph d="M461 867H596L657 723H567L516 804L432 723H339ZM447 678Q504 678 549 662T630 622T689 566T728 503L570 437Q564 455 550 471T516 499T473 519T422 526Q380 526 342 508T276 461T231 390T215 302Q215 270 226 240T259 188T312 153T384 140Q418 140 445 151T496 180L507 233H357L391 383H712L653 117Q605 56 533 22T374 -12Q305 -12 244 8T136 68T63 163T36 291Q36 374 66 445T150 567T280 648T447 678Z" horiz-adv-x="723" unicode="Ĝ"/>
			<glyph d="M317 692H452L513 548H423L372 629L288 548H195ZM271 495Q312 495 352 477T419 426L433 483H586L488 43Q472 -31 441 -77T373 -150T293 -186T212 -196Q139 -196 77 -176T-30 -111L57 -9Q69 -24 86 -35T123 -54T165 -66T209 -70Q229 -70 248 -65T284 -47T314 -13T335 43L343 78Q316 45 280 26T203 8Q167 8 134 18T75 52T35 113T20 203Q20 257 37 309T86 403T164 469T271 495ZM292 359Q244 359 211 324T179 233Q179 194 206 169T276 144Q302 144 326 156T367 189L394 310Q362 359 292 359Z" horiz-adv-x="590" unicode="ĝ"/>
			<glyph d="M447 678Q504 678 549 662T630 622T689 566T728 503L570 437Q564 455 550 471T516 499T473 519T422 526Q380 526 342 508T276 461T231 390T215 302Q215 270 226 240T259 188T312 153T384 140Q418 140 445 151T496 180L507 233H357L391 383H712L653 117Q605 56 533 22T374 -12Q305 -12 244 8T136 68T63 163T36 291Q36 374 66 445T150 567T280 648T447 678ZM408 837Q421 811 445 795T505 779Q539 779 570 794T627 837L684 783Q645 742 594 718T490 695Q436 695 395 718T333 783Z" horiz-adv-x="723" unicode="Ğ"/>
			<glyph d="M271 495Q312 495 352 477T419 426L433 483H586L488 43Q472 -31 441 -77T373 -150T293 -186T212 -196Q139 -196 77 -176T-30 -111L57 -9Q69 -24 86 -35T123 -54T165 -66T209 -70Q229 -70 248 -65T284 -47T314 -13T335 43L343 78Q316 45 280 26T203 8Q167 8 134 18T75 52T35 113T20 203Q20 257 37 309T86 403T164 469T271 495ZM292 359Q244 359 211 324T179 233Q179 194 206 169T276 144Q302 144 326 156T367 189L394 310Q362 359 292 359ZM265 670Q278 644 302 628T362 612Q396 612 427 627T484 670L541 616Q502 575 451 551T347 528Q293 528 252 551T190 616Z" horiz-adv-x="590" unicode="ğ"/>
			<glyph d="M447 678Q504 678 549 662T630 622T689 566T728 503L570 437Q564 455 550 471T516 499T473 519T422 526Q380 526 342 508T276 461T231 390T215 302Q215 270 226 240T259 188T312 153T384 140Q418 140 445 151T496 180L507 233H357L391 383H712L653 117Q605 56 533 22T374 -12Q305 -12 244 8T136 68T63 163T36 291Q36 374 66 445T150 567T280 648T447 678ZM520 860Q550 860 570 840T590 790Q590 773 582 757T562 729T534 710T501 703Q471 703 451 723T431 773Q431 790 438 806T458 834T487 853T520 860Z" horiz-adv-x="723" unicode="Ġ"/>
			<glyph d="M271 495Q312 495 352 477T419 426L433 483H586L488 43Q472 -31 441 -77T373 -150T293 -186T212 -196Q139 -196 77 -176T-30 -111L57 -9Q69 -24 86 -35T123 -54T165 -66T209 -70Q229 -70 248 -65T284 -47T314 -13T335 43L343 78Q316 45 280 26T203 8Q167 8 134 18T75 52T35 113T20 203Q20 257 37 309T86 403T164 469T271 495ZM292 359Q244 359 211 324T179 233Q179 194 206 169T276 144Q302 144 326 156T367 189L394 310Q362 359 292 359ZM378 693Q408 693 428 673T448 623Q448 606 440 590T420 562T392 543T359 536Q329 536 309 556T289 606Q289 623 296 639T316 667T345 686T378 693Z" horiz-adv-x="590" unicode="ġ"/>
			<glyph d="M313 -49Q339 -49 360 -67T381 -120Q381 -144 371 -169T345 -216T306 -258T256 -290L215 -249Q236 -239 261 -221T297 -182Q295 -183 292 -183Q290 -183 288 -183Q266 -183 250 -168T234 -125Q234 -110 240 -96T258 -71T284 -55T313 -49ZM447 678Q504 678 549 662T630 622T689 566T728 503L570 437Q564 455 550 471T516 499T473 519T422 526Q380 526 342 508T276 461T231 390T215 302Q215 270 226 240T259 188T312 153T384 140Q418 140 445 151T496 180L507 233H357L391 383H712L653 117Q605 56 533 22T374 -12Q305 -12 244 8T136 68T63 163T36 291Q36 374 66 445T150 567T280 648T447 678Z" horiz-adv-x="723" unicode="Ģ"/>
			<glyph d="M423 782L464 739Q442 730 416 712T380 672H389Q412 672 428 657T445 614Q445 598 438 583T420 558T394 542T365 536Q337 536 316 555T295 609Q295 634 304 659T331 707T372 749T423 782ZM271 495Q312 495 352 477T419 426L433 483H586L488 43Q472 -31 441 -77T373 -150T293 -186T212 -196Q139 -196 77 -176T-30 -111L57 -9Q69 -24 86 -35T123 -54T165 -66T209 -70Q229 -70 248 -65T284 -47T314 -13T335 43L343 78Q316 45 280 26T203 8Q167 8 134 18T75 52T35 113T20 203Q20 257 37 309T86 403T164 469T271 495ZM292 359Q244 359 211 324T179 233Q179 194 206 169T276 144Q302 144 326 156T367 189L394 310Q362 359 292 359Z" horiz-adv-x="590" unicode="ģ"/>
			<glyph d="M439 867H574L635 723H545L494 804L410 723H317ZM153 667H325L270 418H547L602 667H774L627 0H455L514 268H237L178 0H6Z" horiz-adv-x="741" unicode="Ĥ"/>
			<glyph d="M367 867H502L563 723H473L422 804L338 723H245ZM150 667H304L249 424Q263 437 279 449T314 472T356 488T406 495Q479 495 520 460T561 370Q561 362 559 350T556 330L484 0H330L389 274Q391 281 392 290T394 306Q394 335 373 347T321 359Q292 359 267 344T225 312L157 0H3Z" horiz-adv-x="594" unicode="ĥ"/>
			<glyph d="M156 667H328L310 586H587L605 667H777L759 586H818L799 501H740L630 0H458L517 268H240L181 0H9L119 501H60L79 586H138ZM291 501L273 418H550L568 501Z" horiz-adv-x="748" unicode="Ħ"/>
			<glyph d="M153 667H307L294 609H434L415 525H275L252 424Q266 437 282 449T317 472T359 488T409 495Q482 495 523 460T564 370Q564 362 562 350T559 330L487 0H333L392 274Q394 281 395 290T397 306Q397 335 376 347T324 359Q295 359 270 344T228 312L160 0H6L121 525H69L88 609H140Z" horiz-adv-x="597" unicode="ħ"/>
			<glyph d="M153 667H325L178 0H6ZM210 861Q236 861 252 852T281 833T305 814T332 806Q357 806 369 855H448Q434 789 406 755T323 721Q297 721 280 729T251 748T228 767T201 776Q175 776 165 727H86Q99 794 126 827T210 861Z" horiz-adv-x="292" unicode="Ĩ"/>
			<glyph d="M109 483H263L156 0H2ZM162 694Q188 694 204 685T233 666T257 647T284 639Q309 639 321 688H400Q386 622 358 588T275 554Q249 554 232 562T203 581T180 600T153 609Q127 609 117 560H38Q51 627 78 660T162 694Z" horiz-adv-x="266" unicode="ĩ"/>
			<glyph d="M153 667H325L178 0H6ZM90 808H452L433 723H71Z" horiz-adv-x="292" unicode="Ī"/>
			<glyph d="M109 483H263L156 0H2ZM41 641H403L384 556H22Z" horiz-adv-x="266" unicode="ī"/>
			<glyph d="M153 667H325L178 0H6ZM161 837Q174 811 198 795T258 779Q292 779 323 794T380 837L437 783Q398 742 347 718T243 695Q189 695 148 718T86 783Z" horiz-adv-x="292" unicode="Ĭ"/>
			<glyph d="M109 483H263L156 0H2ZM114 670Q127 644 151 628T211 612Q245 612 276 627T333 670L390 616Q351 575 300 551T196 528Q142 528 101 551T39 616Z" horiz-adv-x="266" unicode="ĭ"/>
			<glyph d="M153 667H325L178 0H6ZM128 34L179 0Q89 -40 89 -96Q89 -110 97 -117T120 -125Q134 -125 144 -117T163 -95L212 -138Q194 -160 170 -173T116 -186Q77 -186 47 -166T17 -107Q17 -67 44 -28T128 34Z" horiz-adv-x="292" unicode="Į"/>
			<glyph d="M109 483H263L156 0Q66 -40 66 -96Q66 -110 74 -117T97 -125Q111 -125 121 -117T140 -95L189 -138Q171 -160 147 -173T93 -186Q54 -186 24 -166T-6 -107Q-6 -79 7 -51T48 0H2ZM225 703Q260 703 282 681T304 628Q304 604 294 585T271 553T239 533T205 526Q170 526 147 548T125 602Q125 626 134 645T158 677T190 696T225 703Z" horiz-adv-x="266" unicode="į"/>
			<glyph d="M153 667H325L178 0H6ZM274 860Q304 860 324 840T344 790Q344 773 336 757T316 729T288 710T255 703Q225 703 205 723T185 773Q185 790 192 806T212 834T241 853T274 860Z" horiz-adv-x="292" unicode="İ"/>
			<glyph d="M109 483H263L156 0H2Z" horiz-adv-x="266" unicode="ı"/>
			<glyph d="M153 667H325L178 0H6ZM645 667H817L720 229Q693 105 631 46T460 -12Q432 -12 404 -8T349 5T300 27T259 59L350 188Q365 168 391 154T447 140Q489 140 514 164T549 231Z" horiz-adv-x="784" unicode="Ĳ"/>
			<glyph d="M225 703Q260 703 282 681T304 628Q304 604 294 585T271 553T239 533T205 526Q170 526 147 548T125 602Q125 626 134 645T158 677T190 696T225 703ZM109 483H263L156 0H2ZM375 483H529L422 4Q413 -40 397 -76T357 -139T299 -181T220 -196Q122 -196 76 -156L138 -46Q149 -59 164 -64T197 -70Q251 -70 268 4ZM491 703Q526 703 548 681T570 628Q570 604 560 585T537 553T505 533T471 526Q436 526 413 548T391 602Q391 626 400 645T424 677T456 696T491 703Z" horiz-adv-x="533" unicode="ĳ"/>
			<glyph d="M414 867H549L610 723H520L469 804L385 723H292ZM353 667H525L428 229Q401 105 339 46T168 -12Q140 -12 112 -8T57 5T8 27T-33 59L58 188Q73 168 99 154T155 140Q197 140 222 164T257 231Z" horiz-adv-x="492" unicode="Ĵ"/>
			<glyph d="M167 700H302L363 556H273L222 637L138 556H45ZM109 483H263L156 4Q147 -40 131 -76T91 -139T33 -181T-46 -196Q-144 -196 -190 -156L-128 -46Q-117 -59 -101 -64T-69 -70Q-15 -70 2 4Z" horiz-adv-x="266" unicode="ĵ"/>
			<glyph d="M262 -49Q288 -49 309 -67T330 -120Q330 -144 320 -169T294 -216T255 -258T205 -290L164 -249Q185 -239 210 -221T246 -182Q244 -183 241 -183Q239 -183 237 -183Q215 -183 199 -168T183 -125Q183 -110 189 -96T207 -71T233 -55T262 -49ZM153 667H325L268 406L521 667H742L415 355L609 0H407L283 257L221 195L178 0H6Z" horiz-adv-x="654" unicode="Ķ"/>
			<glyph d="M204 -49Q230 -49 251 -67T272 -120Q272 -144 262 -169T236 -216T197 -258T147 -290L106 -249Q127 -239 152 -221T188 -182Q186 -183 183 -183Q181 -183 179 -183Q157 -183 141 -168T125 -125Q125 -110 131 -96T149 -71T175 -55T204 -49ZM149 667H303L221 298L404 483H596L369 263L498 0H313L243 174L181 116L156 0H2Z" horiz-adv-x="546" unicode="ķ"/>
			<glyph d="M109 483H263L221 298L404 483H596L369 263L498 0H313L243 174L181 116L156 0H2Z" horiz-adv-x="546" unicode="ĸ"/>
			<glyph d="M475 867H613L422 723H316ZM153 667H325L211 150H479L446 0H6Z" horiz-adv-x="529" unicode="Ĺ"/>
			<glyph d="M329 867H467L276 723H170ZM149 667H303L156 0H2Z" horiz-adv-x="266" unicode="ĺ"/>
			<glyph d="M201 -49Q227 -49 248 -67T269 -120Q269 -144 259 -169T233 -216T194 -258T144 -290L103 -249Q124 -239 149 -221T185 -182Q183 -183 180 -183Q178 -183 176 -183Q154 -183 138 -168T122 -125Q122 -110 128 -96T146 -71T172 -55T201 -49ZM153 667H325L211 150H479L446 0H6Z" horiz-adv-x="529" unicode="Ļ"/>
			<glyph d="M57 -49Q83 -49 104 -67T125 -120Q125 -144 115 -169T89 -216T50 -258T0 -290L-41 -249Q-20 -239 5 -221T41 -182Q39 -183 36 -183Q34 -183 32 -183Q10 -183 -6 -168T-22 -125Q-22 -110 -15 -96T2 -71T28 -55T57 -49ZM149 667H303L156 0H2Z" horiz-adv-x="266" unicode="ļ"/>
			<glyph d="M463 681Q489 681 510 663T531 610Q531 586 521 561T495 513T456 472T406 440L365 481Q386 491 411 509T447 548Q445 547 442 547Q440 547 438 547Q416 547 400 561T384 605Q384 620 390 634T408 658T434 675T463 681ZM153 667H325L211 150H479L446 0H6Z" horiz-adv-x="529" unicode="Ľ"/>
			<glyph d="M413 681Q439 681 460 663T481 610Q481 586 471 561T445 513T406 472T356 440L315 481Q336 491 361 509T397 548Q395 547 392 547Q390 547 388 547Q366 547 350 561T334 605Q334 620 340 634T358 658T384 675T413 681ZM149 667H303L156 0H2Z" horiz-adv-x="386" unicode="ľ"/>
			<glyph d="M153 667H325L211 150H479L446 0H6ZM462 438Q480 438 495 431T522 412T540 384T547 351Q547 330 539 311T517 279T484 257T445 249Q409 249 384 274T359 336Q359 357 367 375T390 408T422 430T462 438Z" horiz-adv-x="570" unicode="Ŀ"/>
			<glyph d="M149 667H303L156 0H2ZM353 340Q371 340 386 333T413 314T431 286T438 253Q438 232 430 213T408 181T375 159T336 151Q300 151 275 176T250 238Q250 259 258 277T281 310T313 332T353 340Z" horiz-adv-x="423" unicode="ŀ"/>
			<glyph d="M167 667H339L291 452L366 490L336 351L261 312L225 150H493L460 0H20L67 213L-4 177L26 315L97 352Z" horiz-adv-x="544" unicode="Ł"/>
			<glyph d="M175 667H329L277 432L363 476L338 367L253 324L182 0H28L80 235L-5 192L20 301L104 344Z" horiz-adv-x="319" unicode="ł"/>
			<glyph d="M566 867H704L513 723H407ZM153 667H330L516 288L600 667H773L626 0H460L266 398L178 0H6Z" horiz-adv-x="740" unicode="Ń"/>
			<glyph d="M453 700H591L400 556H294ZM406 495Q479 495 520 460T561 370Q561 363 559 350T556 330L483 0H329L389 271Q391 278 392 287T394 306Q394 335 374 347T328 359Q294 359 268 344T225 312L156 0H2L109 483H263L249 424Q263 437 279 449T314 472T356 488T406 495Z" horiz-adv-x="593" unicode="ń"/>
			<glyph d="M294 -49Q320 -49 341 -67T362 -120Q362 -144 352 -169T326 -216T287 -258T237 -290L196 -249Q217 -239 242 -221T278 -182Q276 -183 273 -183Q271 -183 269 -183Q247 -183 231 -168T215 -125Q215 -110 221 -96T239 -71T265 -55T294 -49ZM153 667H330L516 288L600 667H773L626 0H460L266 398L178 0H6Z" horiz-adv-x="740" unicode="Ņ"/>
			<glyph d="M218 -49Q244 -49 265 -67T286 -120Q286 -144 276 -169T250 -216T211 -258T161 -290L120 -249Q141 -239 166 -221T202 -182Q200 -183 197 -183Q195 -183 193 -183Q171 -183 155 -168T139 -125Q139 -110 145 -96T163 -71T189 -55T218 -49ZM406 495Q479 495 520 460T561 370Q561 363 559 350T556 330L483 0H329L389 271Q391 278 392 287T394 306Q394 335 374 347T328 359Q294 359 268 344T225 312L156 0H2L109 483H263L249 424Q263 437 279 449T314 472T356 488T406 495Z" horiz-adv-x="593" unicode="ņ"/>
			<glyph d="M350 867H439L490 786L574 867H668L546 723H411ZM153 667H330L516 288L600 667H773L626 0H460L266 398L178 0H6Z" horiz-adv-x="740" unicode="Ň"/>
			<glyph d="M238 700H327L378 619L462 700H556L434 556H299ZM406 495Q479 495 520 460T561 370Q561 363 559 350T556 330L483 0H329L389 271Q391 278 392 287T394 306Q394 335 374 347T328 359Q294 359 268 344T225 312L156 0H2L109 483H263L249 424Q263 437 279 449T314 472T356 488T406 495Z" horiz-adv-x="593" unicode="ň"/>
			<glyph d="M213 775Q239 775 260 757T281 704Q281 680 271 655T245 607T206 566T156 534L115 575Q136 585 161 603T197 642Q195 641 192 641Q190 641 188 641Q166 641 150 655T134 699Q134 714 140 728T158 752T184 769T213 775ZM406 495Q479 495 520 460T561 370Q561 363 559 350T556 330L483 0H329L389 271Q391 278 392 287T394 306Q394 335 374 347T328 359Q294 359 268 344T225 312L156 0H2L109 483H263L249 424Q263 437 279 449T314 472T356 488T406 495Z" horiz-adv-x="593" unicode="ŉ"/>
			<glyph d="M153 667H330L516 288L600 667H773L634 44Q606 -82 542 -139T374 -196Q316 -196 262 -178T174 -125L261 -11Q275 -31 301 -45T358 -60Q393 -60 417 -41T454 11L266 398L178 0H6Z" horiz-adv-x="740" unicode="Ŋ"/>
			<glyph d="M406 495Q474 495 517 462T561 370Q561 353 556 330L483 4Q474 -40 458 -76T418 -139T360 -181T281 -196Q230 -196 195 -186T137 -156L201 -36Q213 -48 226 -54T260 -60Q287 -60 304 -43T329 4L391 280Q394 293 394 304Q394 334 376 346T336 359Q296 359 269 344T225 312L156 0H2L109 483H263L249 424Q263 437 279 449T314 472T356 488T406 495Z" horiz-adv-x="593" unicode="ŋ"/>
			<glyph d="M327 808H689L670 723H308ZM430 678Q502 678 563 656T670 595T742 500T768 377Q768 296 738 225T655 101T531 18T374 -12Q302 -12 240 9T133 71T62 166T36 291Q36 372 66 442T148 565T273 648T430 678ZM420 526Q376 526 338 508T273 460T230 389T215 302Q215 266 227 236T262 184T316 151T384 140Q428 140 465 157T530 205T573 277T589 364Q589 400 576 430T541 481T488 514T420 526Z" horiz-adv-x="766" unicode="Ō"/>
			<glyph d="M195 641H557L538 556H176ZM304 495Q365 495 411 478T489 431T537 360T553 272Q553 216 532 164T473 74T384 11T269 -12Q208 -12 161 5T83 52T36 122T20 210Q20 266 41 317T99 408T189 471T304 495ZM299 359Q272 359 249 347T211 315T186 270T178 218Q178 173 204 148T275 124Q302 124 324 136T362 167T387 212T396 265Q396 310 370 334T299 359Z" horiz-adv-x="576" unicode="ō"/>
			<glyph d="M430 678Q502 678 563 656T670 595T742 500T768 377Q768 296 738 225T655 101T531 18T374 -12Q302 -12 240 9T133 71T62 166T36 291Q36 372 66 442T148 565T273 648T430 678ZM420 526Q376 526 338 508T273 460T230 389T215 302Q215 266 227 236T262 184T316 151T384 140Q428 140 465 157T530 205T573 277T589 364Q589 400 576 430T541 481T488 514T420 526ZM398 837Q411 811 435 795T495 779Q529 779 560 794T617 837L674 783Q635 742 584 718T480 695Q426 695 385 718T323 783Z" horiz-adv-x="766" unicode="Ŏ"/>
			<glyph d="M304 495Q365 495 411 478T489 431T537 360T553 272Q553 216 532 164T473 74T384 11T269 -12Q208 -12 161 5T83 52T36 122T20 210Q20 266 41 317T99 408T189 471T304 495ZM299 359Q272 359 249 347T211 315T186 270T178 218Q178 173 204 148T275 124Q302 124 324 136T362 167T387 212T396 265Q396 310 370 334T299 359ZM266 670Q279 644 303 628T363 612Q397 612 428 627T485 670L542 616Q503 575 452 551T348 528Q294 528 253 551T191 616Z" horiz-adv-x="576" unicode="ŏ"/>
			<glyph d="M461 867H581L434 723H345ZM613 867H734L587 723H498ZM430 678Q502 678 563 656T670 595T742 500T768 377Q768 296 738 225T655 101T531 18T374 -12Q302 -12 240 9T133 71T62 166T36 291Q36 372 66 442T148 565T273 648T430 678ZM420 526Q376 526 338 508T273 460T230 389T215 302Q215 266 227 236T262 184T316 151T384 140Q428 140 465 157T530 205T573 277T589 364Q589 400 576 430T541 481T488 514T420 526Z" horiz-adv-x="766" unicode="Ő"/>
			<glyph d="M329 700H449L302 556H213ZM481 700H602L455 556H366ZM304 495Q365 495 411 478T489 431T537 360T553 272Q553 216 532 164T473 74T384 11T269 -12Q208 -12 161 5T83 52T36 122T20 210Q20 266 41 317T99 408T189 471T304 495ZM299 359Q272 359 249 347T211 315T186 270T178 218Q178 173 204 148T275 124Q302 124 324 136T362 167T387 212T396 265Q396 310 370 334T299 359Z" horiz-adv-x="576" unicode="ő"/>
			<glyph d="M415 677Q483 677 535 654T623 583L641 667H1130L1097 517H780L758 413H1067L1034 263H724L699 150H1016L983 0H494L507 62Q474 27 426 7T315 -12Q258 -12 207 10T118 73T58 168T36 291Q36 378 66 449T149 571T270 649T415 677ZM428 525Q380 525 340 507T273 458T230 387T215 302Q215 265 227 235T261 184T312 151T376 140Q427 140 471 163T544 228L586 418Q568 469 526 497T428 525Z" horiz-adv-x="1073" unicode="Œ"/>
			<glyph d="M302 495Q336 495 365 486T418 464T459 435T488 403Q504 419 523 435T564 465T615 486T677 495Q720 495 759 481T829 441T878 373T896 277Q896 254 892 231T886 193H548V187Q548 176 555 162T577 136T613 115T662 107Q692 107 723 115T774 137L820 35Q791 15 747 1T650 -12Q614 -12 583 -4T527 17T485 46T457 79Q440 63 421 46T379 17T329 -4T267 -12Q212 -12 166 3T88 46T38 116T20 210Q20 263 40 314T96 406T185 470T302 495ZM670 376Q648 376 629 368T597 348T574 321T563 293H759Q760 295 760 299Q760 312 755 325T739 350T711 368T670 376ZM297 359Q272 359 250 348T213 319T187 274T178 218Q178 173 203 148T273 124Q299 124 321 135T358 166T383 210T392 265Q392 314 364 336T297 359Z" horiz-adv-x="916" unicode="œ"/>
			<glyph d="M532 867H670L479 723H373ZM153 667H457Q500 667 539 653T608 614T655 553T673 472Q673 427 659 388T621 319T564 267T495 236L575 0H385L323 224H227L178 0H6ZM292 517L260 374H394H397Q441 374 467 395T494 454Q494 482 473 499T423 517Z" horiz-adv-x="661" unicode="Ŕ"/>
			<glyph d="M378 700H516L325 556H219ZM417 496L383 345Q377 347 363 349T333 352Q301 352 272 338T223 304L156 0H2L109 483H263L250 425Q279 457 320 476T417 496Z" horiz-adv-x="375" unicode="ŕ"/>
			<glyph d="M258 -49Q284 -49 305 -67T326 -120Q326 -144 316 -169T290 -216T251 -258T201 -290L160 -249Q181 -239 206 -221T242 -182Q240 -183 237 -183Q235 -183 233 -183Q211 -183 195 -168T179 -125Q179 -110 185 -96T203 -71T229 -55T258 -49ZM153 667H457Q500 667 539 653T608 614T655 553T673 472Q673 427 659 388T621 319T564 267T495 236L575 0H385L323 224H227L178 0H6ZM292 517L260 374H394H397Q441 374 467 395T494 454Q494 482 473 499T423 517Z" horiz-adv-x="661" unicode="Ŗ"/>
			<glyph d="M143 -49Q169 -49 190 -67T211 -120Q211 -144 201 -169T175 -216T136 -258T86 -290L45 -249Q66 -239 91 -221T127 -182Q125 -183 122 -183Q120 -183 118 -183Q96 -183 80 -168T64 -125Q64 -110 70 -96T88 -71T114 -55T143 -49ZM417 496L383 345Q377 347 363 349T333 352Q301 352 272 338T223 304L156 0H2L109 483H263L250 425Q279 457 320 476T417 496Z" horiz-adv-x="375" unicode="ŗ"/>
			<glyph d="M314 867H403L454 786L538 867H632L510 723H375ZM153 667H457Q500 667 539 653T608 614T655 553T673 472Q673 427 659 388T621 319T564 267T495 236L575 0H385L323 224H227L178 0H6ZM292 517L260 374H394H397Q441 374 467 395T494 454Q494 482 473 499T423 517Z" horiz-adv-x="661" unicode="Ř"/>
			<glyph d="M163 700H252L303 619L387 700H481L359 556H224ZM417 496L383 345Q377 347 363 349T333 352Q301 352 272 338T223 304L156 0H2L109 483H263L250 425Q279 457 320 476T417 496Z" horiz-adv-x="375" unicode="ř"/>
			<glyph d="M506 867H644L453 723H347ZM350 677Q431 677 504 649T629 567L524 447Q504 468 479 484T428 510T375 525T323 530Q294 530 276 516T258 483Q258 465 282 452T342 427T419 399T497 361T557 304T581 223Q581 174 562 131T508 56T422 6T308 -12Q257 -12 209 -3T121 23T46 63T-10 115L95 239Q130 193 191 164T322 136Q364 136 381 153T399 189Q399 208 375 220T315 246T238 274T160 312T101 367T77 449Q77 491 95 532T147 605T233 657T350 677Z" horiz-adv-x="606" unicode="Ś"/>
			<glyph d="M408 700H546L355 556H249ZM257 495Q318 495 375 474T472 417L398 322Q389 332 374 342T340 362T300 376T257 382Q230 382 216 371T203 348Q203 335 221 327T265 310T323 292T381 265T426 224T444 162Q444 126 429 94T386 38T317 1T225 -12Q158 -12 94 10T-14 76L67 175Q78 163 97 150T139 125T187 107T239 100Q262 100 276 110T290 135Q290 151 272 160T227 178T170 196T112 222T68 262T50 325Q50 358 63 388T103 442T168 480T257 495Z" horiz-adv-x="484" unicode="ś"/>
			<glyph d="M379 867H514L575 723H485L434 804L350 723H257ZM350 677Q431 677 504 649T629 567L524 447Q504 468 479 484T428 510T375 525T323 530Q294 530 276 516T258 483Q258 465 282 452T342 427T419 399T497 361T557 304T581 223Q581 174 562 131T508 56T422 6T308 -12Q257 -12 209 -3T121 23T46 63T-10 115L95 239Q130 193 191 164T322 136Q364 136 381 153T399 189Q399 208 375 220T315 246T238 274T160 312T101 367T77 449Q77 491 95 532T147 605T233 657T350 677Z" horiz-adv-x="606" unicode="Ŝ"/>
			<glyph d="M280 700H415L476 556H386L335 637L251 556H158ZM257 495Q318 495 375 474T472 417L398 322Q389 332 374 342T340 362T300 376T257 382Q230 382 216 371T203 348Q203 335 221 327T265 310T323 292T381 265T426 224T444 162Q444 126 429 94T386 38T317 1T225 -12Q158 -12 94 10T-14 76L67 175Q78 163 97 150T139 125T187 107T239 100Q262 100 276 110T290 135Q290 151 272 160T227 178T170 196T112 222T68 262T50 325Q50 358 63 388T103 442T168 480T257 495Z" horiz-adv-x="484" unicode="ŝ"/>
			<glyph d="M350 677Q431 677 504 649T629 567L524 447Q504 468 479 484T428 510T375 525T323 530Q294 530 276 516T258 483Q258 465 282 452T342 427T419 399T497 361T557 304T581 223Q581 174 562 131T508 56T422 6T308 -12Q302 -12 295 -12Q289 -12 283 -11L259 -49Q267 -44 273 -41T289 -39Q315 -39 332 -56T349 -103Q349 -148 315 -173T233 -198Q191 -198 158 -185T109 -155L148 -101Q166 -118 188 -127T233 -137Q253 -137 265 -129T277 -107Q277 -99 270 -93T251 -87Q235 -87 224 -100L178 -70L217 -4Q144 8 85 39T-10 115L95 239Q130 193 191 164T322 136Q364 136 381 153T399 189Q399 208 375 220T315 246T238 274T160 312T101 367T77 449Q77 491 95 532T147 605T233 657T350 677Z" horiz-adv-x="606" unicode="Ş"/>
			<glyph d="M257 495Q318 495 375 474T472 417L398 322Q389 332 374 342T340 362T300 376T257 382Q230 382 216 371T203 348Q203 335 221 327T265 310T323 292T381 265T426 224T444 162Q444 126 429 94T386 38T317 1T225 -12H219L195 -49Q203 -44 209 -41T225 -39Q251 -39 268 -56T285 -103Q285 -148 251 -173T169 -198Q127 -198 94 -185T45 -155L84 -101Q102 -118 124 -127T169 -137Q189 -137 201 -129T213 -107Q213 -99 206 -93T187 -87Q171 -87 160 -100L114 -70L153 -5Q105 3 61 23T-14 76L67 175Q78 163 97 150T139 125T187 107T239 100Q262 100 276 110T290 135Q290 151 272 160T227 178T170 196T112 222T68 262T50 325Q50 358 63 388T103 442T168 480T257 495Z" horiz-adv-x="484" unicode="ş"/>
			<glyph d="M289 867H378L429 786L513 867H607L485 723H350ZM350 677Q431 677 504 649T629 567L524 447Q504 468 479 484T428 510T375 525T323 530Q294 530 276 516T258 483Q258 465 282 452T342 427T419 399T497 361T557 304T581 223Q581 174 562 131T508 56T422 6T308 -12Q257 -12 209 -3T121 23T46 63T-10 115L95 239Q130 193 191 164T322 136Q364 136 381 153T399 189Q399 208 375 220T315 246T238 274T160 312T101 367T77 449Q77 491 95 532T147 605T233 657T350 677Z" horiz-adv-x="606" unicode="Š"/>
			<glyph d="M191 700H280L331 619L415 700H509L387 556H252ZM257 495Q318 495 375 474T472 417L398 322Q389 332 374 342T340 362T300 376T257 382Q230 382 216 371T203 348Q203 335 221 327T265 310T323 292T381 265T426 224T444 162Q444 126 429 94T386 38T317 1T225 -12Q158 -12 94 10T-14 76L67 175Q78 163 97 150T139 125T187 107T239 100Q262 100 276 110T290 135Q290 151 272 160T227 178T170 196T112 222T68 262T50 325Q50 358 63 388T103 442T168 480T257 495Z" horiz-adv-x="484" unicode="š"/>
			<glyph d="M220 -49Q246 -49 267 -67T288 -120Q288 -144 278 -169T252 -216T213 -258T163 -290L122 -249Q143 -239 168 -221T204 -182Q202 -183 199 -183Q197 -183 195 -183Q173 -183 157 -168T141 -125Q141 -110 147 -96T165 -71T191 -55T220 -49ZM115 667H660L627 517H440L327 0H155L268 517H81Z" unicode="Ţ"/>
			<glyph d="M93 -49Q119 -49 140 -67T161 -120Q161 -144 151 -169T125 -216T86 -258T36 -290L-5 -249Q16 -239 41 -221T77 -182Q75 -183 72 -183Q70 -183 68 -183Q46 -183 30 -168T14 -125Q14 -110 20 -96T38 -71T64 -55T93 -49ZM170 615H324L295 483H393L363 350H265L229 186Q226 174 226 164Q226 146 237 135T272 124Q280 124 289 126T302 132L304 9Q290 -2 267 -7T221 -12Q186 -12 156 -5T106 16T73 51T61 102Q61 107 61 117T64 137L111 350H31L61 483H141Z" horiz-adv-x="360" unicode="ţ"/>
			<glyph d="M269 867H358L409 786L493 867H587L465 723H330ZM115 667H660L627 517H440L327 0H155L268 517H81Z" unicode="Ť"/>
			<glyph d="M450 775Q476 775 497 757T518 704Q518 680 508 655T482 607T443 566T393 534L352 575Q373 585 398 603T434 642Q432 641 429 641Q427 641 425 641Q403 641 387 655T371 699Q371 714 377 728T395 752T421 769T450 775ZM170 615H324L295 483H393L363 350H265L229 186Q226 174 226 164Q226 146 237 135T272 124Q280 124 289 126T302 132L304 9Q290 -2 267 -7T221 -12Q186 -12 156 -5T106 16T73 51T61 102Q61 107 61 117T64 137L111 350H31L61 483H141Z" horiz-adv-x="391" unicode="ť"/>
			<glyph d="M115 667H660L627 517H440L399 332H524L506 247H381L327 0H155L209 247H84L103 332H227L268 517H81Z" unicode="Ŧ"/>
			<glyph d="M170 615H324L295 483H393L363 350H265L250 285H317L299 200H232L229 186Q226 174 226 164Q226 146 237 135T272 124Q280 124 289 126T302 132L304 9Q290 -2 267 -7T221 -12Q186 -12 156 -5T106 16T73 51T61 102Q61 107 61 117T64 137L78 200H-2L16 285H96L111 350H31L61 483H141Z" horiz-adv-x="360" unicode="ŧ"/>
			<glyph d="M153 667H328L241 274Q238 266 238 246Q238 225 246 205T270 171T310 147T366 138Q435 138 472 176T522 274L609 667H783L696 271Q682 210 658 158T595 69T499 9T366 -12Q289 -12 231 5T136 54T79 129T60 226Q60 234 61 248T65 270ZM439 861Q465 861 481 852T510 833T534 814T561 806Q586 806 598 855H677Q663 789 635 755T552 721Q526 721 509 729T480 748T457 767T430 776Q404 776 394 727H315Q328 794 355 827T439 861Z" horiz-adv-x="750" unicode="Ũ"/>
			<glyph d="M109 483H262L201 204Q199 197 198 190T197 178Q197 149 218 136T268 124Q299 124 324 139T367 172L435 483H589L482 0H328L342 59Q328 46 312 33T276 11T234 -5T185 -12Q112 -12 71 23T30 113Q30 120 31 132T35 153ZM323 694Q349 694 365 685T394 666T418 647T445 639Q470 639 482 688H561Q547 622 519 588T436 554Q410 554 393 562T364 581T341 600T314 609Q288 609 278 560H199Q212 627 239 660T323 694Z" horiz-adv-x="592" unicode="ũ"/>
			<glyph d="M153 667H328L241 274Q238 266 238 246Q238 225 246 205T270 171T310 147T366 138Q435 138 472 176T522 274L609 667H783L696 271Q682 210 658 158T595 69T499 9T366 -12Q289 -12 231 5T136 54T79 129T60 226Q60 234 61 248T65 270ZM319 808H681L662 723H300Z" horiz-adv-x="750" unicode="Ū"/>
			<glyph d="M109 483H262L201 204Q199 197 198 190T197 178Q197 149 218 136T268 124Q299 124 324 139T367 172L435 483H589L482 0H328L342 59Q328 46 312 33T276 11T234 -5T185 -12Q112 -12 71 23T30 113Q30 120 31 132T35 153ZM203 641H565L546 556H184Z" horiz-adv-x="592" unicode="ū"/>
			<glyph d="M153 667H328L241 274Q238 266 238 246Q238 225 246 205T270 171T310 147T366 138Q435 138 472 176T522 274L609 667H783L696 271Q682 210 658 158T595 69T499 9T366 -12Q289 -12 231 5T136 54T79 129T60 226Q60 234 61 248T65 270ZM390 837Q403 811 427 795T487 779Q521 779 552 794T609 837L666 783Q627 742 576 718T472 695Q418 695 377 718T315 783Z" horiz-adv-x="750" unicode="Ŭ"/>
			<glyph d="M109 483H262L201 204Q199 197 198 190T197 178Q197 149 218 136T268 124Q299 124 324 139T367 172L435 483H589L482 0H328L342 59Q328 46 312 33T276 11T234 -5T185 -12Q112 -12 71 23T30 113Q30 120 31 132T35 153ZM274 670Q287 644 311 628T371 612Q405 612 436 627T493 670L550 616Q511 575 460 551T356 528Q302 528 261 551T199 616Z" horiz-adv-x="592" unicode="ŭ"/>
			<glyph d="M506 904Q551 904 578 877T605 805Q605 781 595 759T569 722T531 696T486 687Q441 687 414 714T387 786Q387 810 396 831T422 869T460 894T506 904ZM499 836Q482 836 469 823T456 793Q456 776 466 766T493 756Q510 756 523 768T536 799Q536 816 526 826T499 836ZM153 667H328L241 274Q238 266 238 246Q238 225 246 205T270 171T310 147T366 138Q435 138 472 176T522 274L609 667H783L696 271Q682 210 658 158T595 69T499 9T366 -12Q289 -12 231 5T136 54T79 129T60 226Q60 234 61 248T65 270Z" horiz-adv-x="750" unicode="Ů"/>
			<glyph d="M392 742Q437 742 464 715T491 643Q491 619 481 597T455 560T417 534T372 525Q327 525 300 552T273 624Q273 648 282 669T308 707T346 732T392 742ZM385 674Q368 674 355 661T342 631Q342 614 352 604T379 594Q396 594 409 606T422 637Q422 654 412 664T385 674ZM109 483H262L201 204Q199 197 198 190T197 178Q197 149 218 136T268 124Q299 124 324 139T367 172L435 483H589L482 0H328L342 59Q328 46 312 33T276 11T234 -5T185 -12Q112 -12 71 23T30 113Q30 120 31 132T35 153Z" horiz-adv-x="592" unicode="ů"/>
			<glyph d="M153 667H328L241 274Q238 266 238 246Q238 225 246 205T270 171T310 147T366 138Q435 138 472 176T522 274L609 667H783L696 271Q682 210 658 158T595 69T499 9T366 -12Q289 -12 231 5T136 54T79 129T60 226Q60 234 61 248T65 270ZM454 867H574L427 723H338ZM606 867H727L580 723H491Z" horiz-adv-x="750" unicode="Ű"/>
			<glyph d="M109 483H262L201 204Q199 197 198 190T197 178Q197 149 218 136T268 124Q299 124 324 139T367 172L435 483H589L482 0H328L342 59Q328 46 312 33T276 11T234 -5T185 -12Q112 -12 71 23T30 113Q30 120 31 132T35 153ZM337 700H457L310 556H221ZM489 700H610L463 556H374Z" horiz-adv-x="592" unicode="ű"/>
			<glyph d="M153 667H328L241 274Q238 266 238 246Q238 225 246 205T270 171T310 147T366 138Q435 138 472 176T522 274L609 667H783L696 271Q685 221 666 177T620 98T555 37T466 0Q422 -20 400 -44T378 -96Q378 -110 386 -117T409 -125Q423 -125 433 -117T452 -95L501 -138Q483 -160 459 -173T405 -186Q366 -186 336 -166T306 -107Q306 -82 316 -57T347 -12Q275 -10 221 8T131 58T78 132T60 226Q60 234 61 248T65 270Z" horiz-adv-x="750" unicode="Ų"/>
			<glyph d="M109 483H262L201 204Q199 197 198 190T197 178Q197 149 218 136T268 124Q299 124 324 139T367 172L435 483H589L482 0Q392 -40 392 -96Q392 -110 400 -117T423 -125Q437 -125 447 -117T466 -95L515 -138Q497 -160 473 -173T419 -186Q380 -186 350 -166T320 -107Q320 -79 333 -51T374 0H328L342 59Q328 46 312 33T276 11T234 -5T185 -12Q112 -12 71 23T30 113Q30 120 31 132T35 153Z" horiz-adv-x="592" unicode="ų"/>
			<glyph d="M533 867H668L729 723H639L588 804L504 723H411ZM87 667H276L279 222L491 667H622L638 222L837 667H1035L697 0H515L506 418L313 0H131Z" horiz-adv-x="936" unicode="Ŵ"/>
			<glyph d="M422 700H557L618 556H528L477 637L393 556H300ZM47 483H201L212 187L374 483H511L540 187L683 483H846L596 0H430L405 299L249 0H83Z" horiz-adv-x="787" unicode="ŵ"/>
			<glyph d="M398 867H533L594 723H504L453 804L369 723H276ZM82 667H267L358 421L555 667H759L419 269L360 0H188L247 269Z" horiz-adv-x="655" unicode="Ŷ"/>
			<glyph d="M43 483H201L241 177L420 483H587L246 -69Q224 -105 202 -129T155 -168T102 -189T41 -196Q18 -196 -5 -193T-48 -184L1 -52Q10 -56 23 -57T51 -59Q70 -59 83 -53T106 -33L125 -2ZM290 700H425L486 556H396L345 637L261 556H168Z" horiz-adv-x="524" unicode="ŷ"/>
			<glyph d="M564 860Q593 860 613 840T633 790Q633 773 625 757T605 729T577 710T544 703Q515 703 495 723T475 773Q475 790 482 806T502 834T531 853T564 860ZM350 860Q380 860 400 840T420 790Q420 773 412 757T392 729T364 710T331 703Q301 703 281 723T261 773Q261 790 268 806T288 834T317 853T350 860ZM82 667H267L358 421L555 667H759L419 269L360 0H188L247 269Z" horiz-adv-x="655" unicode="Ÿ"/>
			<glyph d="M489 867H627L436 723H330ZM132 667H643L613 530L253 150H536L503 0H-15L15 137L374 517H99Z" horiz-adv-x="596" unicode="Ź"/>
			<glyph d="M396 700H534L343 556H237ZM91 483H494L469 374L223 133H420L391 0H-16L8 113L250 349H61Z" horiz-adv-x="483" unicode="ź"/>
			<glyph d="M132 667H643L613 530L253 150H536L503 0H-15L15 137L374 517H99ZM422 860Q452 860 472 840T492 790Q492 773 484 757T464 729T436 710T403 703Q373 703 353 723T333 773Q333 790 340 806T360 834T389 853T422 860Z" horiz-adv-x="596" unicode="Ż"/>
			<glyph d="M91 483H494L469 374L223 133H420L391 0H-16L8 113L250 349H61ZM330 693Q360 693 380 673T400 623Q400 606 392 590T372 562T344 543T311 536Q281 536 261 556T241 606Q241 623 248 639T268 667T297 686T330 693Z" horiz-adv-x="483" unicode="ż"/>
			<glyph d="M274 867H363L414 786L498 867H592L470 723H335ZM132 667H643L613 530L253 150H536L503 0H-15L15 137L374 517H99Z" horiz-adv-x="596" unicode="Ž"/>
			<glyph d="M180 700H269L320 619L404 700H498L376 556H241ZM91 483H494L469 374L223 133H420L391 0H-16L8 113L250 349H61Z" horiz-adv-x="483" unicode="ž"/>
			<glyph d="M345 677Q384 677 420 665T483 627L410 540Q390 560 358 560Q333 560 319 546T301 509L189 0H35L112 350H32L62 483H141L147 509Q155 543 171 574T211 627T268 663T345 677Z" horiz-adv-x="349" unicode="ſ"/>
			<glyph d="M282 677Q321 677 361 665T432 626L370 505Q362 516 349 521T322 527Q275 527 261 472L237 365H337V231H208L120 -161H-55L32 231H-16V365H61L93 511Q109 585 155 631T282 677Z" horiz-adv-x="465" unicode="ƒ"/>
			<glyph d="M767 746Q791 746 809 729T828 682Q828 640 798 599T723 534Q768 466 768 377Q768 296 738 225T655 101T531 18T374 -12Q302 -12 240 9T133 71T62 166T36 291Q36 372 66 442T148 565T273 648T430 678Q511 678 579 650T693 573Q710 582 728 596T754 628Q752 627 750 627Q748 627 746 627Q726 627 712 640T698 678Q698 692 704 704T719 726T741 740T767 746ZM420 526Q376 526 338 508T273 460T230 389T215 302Q215 266 227 236T262 184T316 151T384 140Q428 140 465 157T530 205T573 277T589 364Q589 400 576 430T541 481T488 514T420 526Z" horiz-adv-x="766" unicode="Ơ"/>
			<glyph d="M552 612Q576 612 594 596T613 549Q613 507 585 467T513 404Q553 347 553 272Q553 216 532 164T473 74T384 11T269 -12Q208 -12 161 5T83 52T36 122T20 210Q20 266 41 317T99 408T189 471T304 495Q360 495 403 481T478 441Q495 450 512 464T538 495Q537 494 535 494Q533 494 531 494Q511 494 497 506T483 545Q483 573 504 592T552 612ZM299 359Q272 359 249 347T211 315T186 270T178 218Q178 173 204 148T275 124Q302 124 324 136T362 167T387 212T396 265Q396 310 370 334T299 359Z" horiz-adv-x="576" unicode="ơ"/>
			<glyph d="M841 805Q865 805 883 789T902 742Q902 715 891 690T861 644T817 606T763 577L696 271Q682 210 658 158T595 69T499 9T366 -12Q289 -12 231 5T136 54T79 129T60 226Q60 234 61 248T65 270L153 667H328L241 274Q238 266 238 246Q238 225 246 205T270 171T310 147T366 138Q435 138 472 176T522 274L609 667H783L776 638Q793 648 807 661T827 688Q826 687 824 687Q822 687 820 687Q800 687 786 699T772 738Q772 752 778 764T793 785T815 799T841 805Z" horiz-adv-x="750" unicode="Ư"/>
			<glyph d="M620 629Q643 629 662 613T681 565Q681 518 650 480T574 416L482 0H328L342 59Q328 46 312 33T276 10T234 -6T185 -12Q112 -12 71 23T30 113Q30 119 31 132T35 153L108 483H262L200 203Q197 189 197 178Q197 149 218 136T271 124Q300 124 324 139T366 171L435 483H584Q597 494 606 511Q604 510 602 510Q600 510 598 510Q579 510 564 523T550 562Q550 590 571 609T620 629Z" horiz-adv-x="592" unicode="ư"/>
			<glyph d="M738 867H876L685 723H579ZM476 667H1036L1002 517H686L663 413H973L939 263H630L605 150H922L889 0H400L421 96H204L130 0H-71ZM507 489L318 246H454Z" horiz-adv-x="979" unicode="Ǽ"/>
			<glyph d="M620 700H758L567 556H461ZM301 359Q274 359 252 348T213 318T188 273T179 220Q179 176 206 150T273 124Q300 124 323 136T364 169L397 315Q382 335 357 347T301 359ZM274 495Q319 495 358 477T421 426L434 483H587L577 436Q602 461 635 478T710 495Q791 495 836 445T881 289Q881 263 877 234T870 193H529V187Q529 178 536 165T559 139T597 118T652 110Q681 110 709 118T758 140L805 35Q769 12 728 0T655 -12Q592 -12 552 10T495 66L480 0H327L339 56Q308 21 275 4T201 -12Q120 -12 70 39T20 188Q20 240 36 295T84 394T163 466T274 495ZM653 376Q631 376 612 368T580 348T557 321T545 293H744V299Q744 311 739 325T723 350T695 368T653 376Z" horiz-adv-x="902" unicode="ǽ"/>
			<glyph d="M579 867H717L526 723H420ZM430 678Q545 678 631 624L675 667H795L696 570Q730 532 749 483T768 377Q768 296 738 225T655 101T531 18T374 -12Q312 -12 258 4T161 49L110 0H-10L99 106Q69 143 52 189T36 291Q36 372 66 442T148 565T273 648T430 678ZM568 446L283 168Q325 140 384 140Q428 140 465 157T530 205T573 277T589 364Q589 387 583 408T568 446ZM420 526Q376 526 338 508T273 460T230 389T215 302Q215 264 229 233L508 505Q489 515 467 520T420 526Z" horiz-adv-x="766" unicode="Ǿ"/>
			<glyph d="M447 700H585L394 556H288ZM304 495Q355 495 395 483T466 450L503 483H601L513 403Q533 376 543 342T553 272Q553 216 532 164T473 74T384 11T269 -12Q217 -12 176 0T105 34L67 0H-28L59 80Q20 134 20 210Q20 266 41 317T99 408T189 471T304 495ZM392 294L219 137Q241 124 275 124Q302 124 324 136T362 167T387 212T396 265Q396 282 392 294ZM299 359Q272 359 249 347T211 315T186 270T178 218Q178 203 181 190L353 346Q329 359 299 359Z" horiz-adv-x="576" unicode="ǿ"/>
			<glyph d="M223 -49Q249 -49 270 -67T291 -120Q291 -144 281 -169T255 -216T216 -258T166 -290L125 -249Q146 -239 171 -221T207 -182Q205 -183 202 -183Q200 -183 198 -183Q176 -183 160 -168T144 -125Q144 -110 150 -96T168 -71T194 -55T223 -49ZM350 677Q431 677 504 649T629 567L524 447Q504 468 479 484T428 510T375 525T323 530Q294 530 276 516T258 483Q258 465 282 452T342 427T419 399T497 361T557 304T581 223Q581 174 562 131T508 56T422 6T308 -12Q257 -12 209 -3T121 23T46 63T-10 115L95 239Q130 193 191 164T322 136Q364 136 381 153T399 189Q399 208 375 220T315 246T238 274T160 312T101 367T77 449Q77 491 95 532T147 605T233 657T350 677Z" horiz-adv-x="606" unicode="Ș"/>
			<glyph d="M171 -49Q197 -49 218 -67T239 -120Q239 -144 229 -169T203 -216T164 -258T114 -290L73 -249Q94 -239 119 -221T155 -182Q153 -183 150 -183Q148 -183 146 -183Q124 -183 108 -168T92 -125Q92 -110 98 -96T116 -71T142 -55T171 -49ZM257 495Q318 495 375 474T472 417L398 322Q389 332 374 342T340 362T300 376T257 382Q230 382 216 371T203 348Q203 335 221 327T265 310T323 292T381 265T426 224T444 162Q444 126 429 94T386 38T317 1T225 -12Q158 -12 94 10T-14 76L67 175Q78 163 97 150T139 125T187 107T239 100Q262 100 276 110T290 135Q290 151 272 160T227 178T170 196T112 222T68 262T50 325Q50 358 63 388T103 442T168 480T257 495Z" horiz-adv-x="484" unicode="ș"/>
			<glyph d="M220 -49Q246 -49 267 -67T288 -120Q288 -144 278 -169T252 -216T213 -258T163 -290L122 -249Q143 -239 168 -221T204 -182Q202 -183 199 -183Q197 -183 195 -183Q173 -183 157 -168T141 -125Q141 -110 147 -96T165 -71T191 -55T220 -49ZM115 667H660L627 517H440L327 0H155L268 517H81Z" unicode="Ț"/>
			<glyph d="M92 -49Q118 -49 139 -67T160 -120Q160 -144 150 -169T124 -216T85 -258T35 -290L-6 -249Q15 -239 40 -221T76 -182Q74 -183 71 -183Q69 -183 67 -183Q45 -183 29 -168T13 -125Q13 -110 19 -96T37 -71T63 -55T92 -49ZM170 615H324L295 483H393L363 350H265L229 186Q226 174 226 164Q226 146 237 135T272 124Q280 124 289 126T302 132L304 9Q290 -2 267 -7T221 -12Q186 -12 156 -5T106 16T73 51T61 102Q61 107 61 117T64 137L111 350H31L61 483H141Z" horiz-adv-x="360" unicode="ț"/>
			<glyph d="M109 483H263L156 4Q147 -40 131 -76T91 -139T33 -181T-46 -196Q-144 -196 -190 -156L-128 -46Q-117 -59 -101 -64T-69 -70Q-15 -70 2 4Z" horiz-adv-x="266" unicode="ȷ"/>
			<glyph d="M157 760H267L232 603Q249 620 273 634T333 648Q383 648 411 626T439 563Q439 558 438 551T435 534L389 326H280L319 505Q320 510 320 514T321 522Q321 539 308 547T276 556Q256 556 240 545T214 524L171 326H61Z" horiz-adv-x="417" unicode="ʰ"/>
			<glyph d="M218 677Q235 677 251 671T280 653T300 624T308 584Q308 553 295 521T261 459T210 405T145 364L93 419Q106 425 121 433T151 453T178 476T198 503Q195 502 191 502Q188 502 186 502Q157 502 135 520T114 577Q114 598 123 616T146 647T179 669T218 677Z" horiz-adv-x="268" unicode="ʼ"/>
			<glyph d="M191 700H326L387 556H297L246 637L162 556H69Z" horiz-adv-x="318" unicode="ˆ"/>
			<glyph d="M101 700H190L241 619L325 700H419L297 556H162Z" horiz-adv-x="318" unicode="ˇ"/>
			<glyph d="M95 676H457L439 591H77Z" horiz-adv-x="363" unicode="ˉ"/>
			<glyph d="M101 700H237L332 556H228Z" horiz-adv-x="263" unicode="ˋ"/>
			<glyph d="M156 670Q169 644 193 628T253 612Q287 612 318 627T375 670L432 616Q393 575 342 551T238 528Q184 528 143 551T81 616Z" horiz-adv-x="351" unicode="˘"/>
			<glyph d="M195 693Q225 693 245 673T265 623Q265 606 257 590T237 562T209 543T176 536Q146 536 126 556T106 606Q106 623 113 639T133 667T162 686T195 693Z" horiz-adv-x="206" unicode="˙"/>
			<glyph d="M203 742Q248 742 275 715T302 643Q302 619 292 597T266 560T228 534T183 525Q138 525 111 552T84 624Q84 648 93 669T119 707T157 732T203 742ZM196 674Q179 674 166 661T153 631Q153 614 163 604T190 594Q207 594 220 606T233 637Q233 654 223 664T196 674Z" horiz-adv-x="215" unicode="˚"/>
			<glyph d="M35 34L86 0Q-4 -40 -4 -96Q-4 -110 4 -117T27 -125Q41 -125 51 -117T70 -95L119 -138Q101 -160 77 -173T23 -186Q-16 -186 -46 -166T-76 -107Q-76 -67 -49 -28T35 34Z" horiz-adv-x="203" unicode="˛"/>
			<glyph d="M194 694Q220 694 236 685T265 666T289 647T316 639Q341 639 353 688H432Q418 622 390 588T307 554Q281 554 264 562T235 581T212 600T185 609Q159 609 149 560H70Q83 627 110 660T194 694Z" horiz-adv-x="334" unicode="˜"/>
			<glyph d="M183 700H303L156 556H67ZM335 700H456L309 556H220Z" horiz-adv-x="355" unicode="˝"/>
			<glyph d="M268 790Q281 790 295 786T320 774T338 754T345 726Q345 711 338 695T323 667H259Q286 692 286 718Q286 729 279 735T261 742Q242 742 228 720L182 742Q210 790 268 790Z" horiz-adv-x="203" unicode="̉"/>
			<glyph d="M107 176Q125 176 141 170T169 152T189 123T197 83Q197 52 185 20T151 -41T99 -94T35 -136L-18 -81Q-5 -75 10 -66T40 -47T67 -23T87 3Q85 2 81 2Q77 2 75 2Q46 2 25 20T4 77Q4 97 13 115T36 146T68 168T107 176ZM176 491Q194 491 209 484T237 465T255 437T262 404Q262 383 253 364T231 332T198 310T159 302Q123 302 98 327T73 389Q73 410 81 428T104 461T136 483T176 491Z" horiz-adv-x="270" unicode=";"/>
			<glyph d="M254 765H374L248 547H184Z" horiz-adv-x="593" unicode="΄"/>
			<glyph d="M384 765H504L379 547H313ZM548 693Q578 693 598 673T618 623Q618 606 610 590T590 562T562 543T529 536Q499 536 479 556T459 606Q459 623 466 639T486 667T515 686T548 693ZM233 693Q262 693 282 673T303 623Q303 606 295 590T275 562T247 543T214 536Q184 536 164 556T144 606Q144 623 151 639T171 667T200 686T233 693Z" horiz-adv-x="593" unicode="΅"/>
			<glyph d="M189 765H309L183 547H119ZM333 667H549L654 0H467L455 96H192L139 0H-65ZM412 497L272 246H442Z" horiz-adv-x="697" unicode="Ά"/>
			<glyph d="M121 765H241L115 547H51ZM199 667H688L654 517H338L315 413H625L592 263H282L257 150H574L541 0H52Z" horiz-adv-x="636" unicode="Έ"/>
			<glyph d="M121 765H241L115 547H51ZM199 667H371L316 418H593L648 667H820L673 0H501L560 268H283L224 0H52Z" horiz-adv-x="787" unicode="Ή"/>
			<glyph d="M121 765H241L115 547H51ZM199 667H371L224 0H52Z" horiz-adv-x="338" unicode="Ί"/>
			<glyph d="M126 765H246L120 547H56ZM430 678Q502 678 563 656T670 595T742 500T768 377Q768 296 738 225T655 101T531 18T374 -12Q302 -12 240 9T133 71T62 166T36 291Q36 372 66 442T148 565T273 648T430 678ZM420 526Q376 526 338 508T273 460T230 389T215 302Q215 266 227 236T262 184T316 151T384 140Q428 140 465 157T530 205T573 277T589 364Q589 400 576 430T541 481T488 514T420 526Z" horiz-adv-x="766" unicode="Ό"/>
			<glyph d="M121 765H241L115 547H51ZM180 667H365L456 421L653 667H857L517 269L458 0H286L345 269Z" horiz-adv-x="752" unicode="Ύ"/>
			<glyph d="M126 765H246L120 547H56ZM441 678Q512 678 574 659T684 606T758 520T785 404Q785 355 768 314T727 242T673 187T618 150H713L680 0H397L430 150Q470 160 502 181T555 230T588 294T600 367Q600 437 557 481T433 525Q385 525 346 506T282 455T242 384T228 305Q228 199 318 150L285 0H1L35 150H164Q144 166 125 187T93 234T70 292T62 360Q62 414 85 470T156 573T274 648T441 678Z" horiz-adv-x="777" unicode="Ώ"/>
			<glyph d="M230 765H350L225 547H159ZM394 693Q424 693 444 673T464 623Q464 606 456 590T436 562T408 543T375 536Q345 536 325 556T305 606Q305 623 312 639T332 667T361 686T394 693ZM79 693Q108 693 128 673T149 623Q149 606 141 590T121 562T93 543T60 536Q30 536 10 556T-10 606Q-10 623 -2 639T17 667T46 686T79 693ZM112 483H265L192 162Q187 143 195 133T220 124Q232 124 240 127L221 -3Q207 -8 187 -10T150 -12Q76 -12 45 24T31 130Z" horiz-adv-x="280" unicode="ΐ"/>
			<glyph d="M333 667H549L654 0H467L455 96H192L139 0H-65ZM412 497L272 246H442Z" horiz-adv-x="697" unicode="Α"/>
			<glyph d="M153 667H501Q548 667 583 653T641 616T676 564T688 504Q688 471 675 441T642 388T594 350T537 332Q585 319 608 280T632 199Q632 165 619 129T579 65T506 18T397 0H6ZM294 522L269 411H434Q454 411 467 416T489 431T500 451T504 474Q504 494 489 508T452 522ZM237 265L210 145H382Q419 145 439 164T460 213Q460 236 445 250T405 265Z" horiz-adv-x="680" unicode="Β"/>
			<glyph d="M153 667H642L608 517H292L178 0H6Z" horiz-adv-x="582" unicode="Γ"/>
			<glyph d="M333 667H549L654 0H-65ZM412 497L219 150H454Z" horiz-adv-x="697" unicode="Δ"/>
			<glyph d="M153 667H642L608 517H292L269 413H579L546 263H236L211 150H528L495 0H6Z" unicode="Ε"/>
			<glyph d="M132 667H643L613 530L253 150H536L503 0H-15L15 137L374 517H99Z" horiz-adv-x="596" unicode="Ζ"/>
			<glyph d="M153 667H325L270 418H547L602 667H774L627 0H455L514 268H237L178 0H6Z" horiz-adv-x="741" unicode="Η"/>
			<glyph d="M283 413H551L518 263H249ZM430 678Q502 678 563 656T670 595T742 500T768 377Q768 296 738 225T655 101T531 18T374 -12Q302 -12 240 9T133 71T62 166T36 291Q36 372 66 442T148 565T273 648T430 678ZM420 526Q376 526 338 508T273 460T230 389T215 302Q215 266 227 236T262 184T316 151T384 140Q428 140 465 157T530 205T573 277T589 364Q589 400 576 430T541 481T488 514T420 526Z" horiz-adv-x="766" unicode="Θ"/>
			<glyph d="M153 667H325L178 0H6Z" horiz-adv-x="292" unicode="Ι"/>
			<glyph d="M153 667H325L268 406L521 667H742L415 355L609 0H407L283 257L221 195L178 0H6Z" horiz-adv-x="654" unicode="Κ"/>
			<glyph d="M333 667H549L654 0H467L412 497L139 0H-65Z" horiz-adv-x="697" unicode="Λ"/>
			<glyph d="M153 667H386L444 298L665 667H910L763 0H591L688 441L422 0H346L275 441L178 0H6Z" horiz-adv-x="877" unicode="Μ"/>
			<glyph d="M153 667H330L516 288L600 667H773L626 0H460L266 398L178 0H6Z" horiz-adv-x="740" unicode="Ν"/>
			<glyph d="M138 667H683L650 517H104ZM25 150H570L537 0H-9ZM88 413H621L587 263H55Z" horiz-adv-x="631" unicode="Ξ"/>
			<glyph d="M430 678Q502 678 563 656T670 595T742 500T768 377Q768 296 738 225T655 101T531 18T374 -12Q302 -12 240 9T133 71T62 166T36 291Q36 372 66 442T148 565T273 648T430 678ZM420 526Q376 526 338 508T273 460T230 389T215 302Q215 266 227 236T262 184T316 151T384 140Q428 140 465 157T530 205T573 277T589 364Q589 400 576 430T541 481T488 514T420 526Z" horiz-adv-x="766" unicode="Ο"/>
			<glyph d="M153 667H774L627 0H455L569 517H292L178 0H6Z" horiz-adv-x="741" unicode="Π"/>
			<glyph d="M153 667H476Q520 667 556 652T618 611T658 550T672 476Q672 439 658 395T612 313T524 249T387 224H227L178 0H6ZM292 517L260 374H396Q438 374 466 397T494 457Q494 485 475 501T425 517Z" horiz-adv-x="643" unicode="Ρ"/>
			<glyph d="M149 667H638L605 517H328L477 335L248 150H524L491 0H1L38 167L269 356L120 534Z" horiz-adv-x="584" unicode="Σ"/>
			<glyph d="M115 667H660L627 517H440L327 0H155L268 517H81Z" unicode="Τ"/>
			<glyph d="M82 667H267L358 421L555 667H759L419 269L360 0H188L247 269Z" horiz-adv-x="655" unicode="Υ"/>
			<glyph d="M451 667H624L608 595Q746 578 814 519T882 351Q882 290 853 240T772 152T647 92T487 65L472 0H299L315 70Q177 87 109 146T41 314Q41 375 70 425T151 512T275 572T436 600ZM573 445L522 220Q612 231 657 264T703 351Q703 427 573 445ZM400 445Q310 434 265 401T221 314Q221 237 349 221Z" horiz-adv-x="880" unicode="Φ"/>
			<glyph d="M97 667H291L383 467L551 667H764L469 332L632 0H438L335 214L148 0H-65L250 352Z" horiz-adv-x="676" unicode="Χ"/>
			<glyph d="M158 667H333L274 412Q272 405 271 396T270 380Q270 304 375 283L463 667H635L547 283Q681 309 706 412L764 667H940L875 380Q864 332 834 288T757 211T649 154T511 126L483 0H311L341 131Q212 149 153 205T95 353Q95 372 97 392T105 435Z" horiz-adv-x="902" unicode="Ψ"/>
			<glyph d="M429 678Q500 678 562 659T672 606T746 520T773 404Q773 355 756 314T715 242T661 187T606 150H701L668 0H385L418 150Q458 160 490 181T543 230T576 294T588 367Q588 437 545 481T421 525Q373 525 334 506T270 455T230 384T216 305Q216 199 306 150L273 0H-11L23 150H152Q132 166 113 187T81 234T58 292T50 360Q50 414 73 470T144 573T262 648T429 678Z" horiz-adv-x="766" unicode="Ω"/>
			<glyph d="M153 667H325L178 0H6ZM385 877Q414 877 434 857T454 807Q454 790 446 774T426 746T398 727T365 720Q336 720 316 740T296 790Q296 807 303 823T323 851T352 870T385 877ZM171 877Q201 877 221 857T241 807Q241 790 233 774T213 746T185 727T152 720Q122 720 102 740T82 790Q82 807 89 823T109 851T138 870T171 877Z" horiz-adv-x="292" unicode="Ϊ"/>
			<glyph d="M82 667H267L358 421L555 667H759L419 269L360 0H188L247 269ZM568 877Q597 877 617 857T637 807Q637 790 629 774T609 746T581 727T548 720Q519 720 499 740T479 790Q479 807 486 823T506 851T535 870T568 877ZM354 877Q384 877 404 857T424 807Q424 790 416 774T396 746T368 727T335 720Q305 720 285 740T265 790Q265 807 272 823T292 851T321 870T354 877Z" horiz-adv-x="655" unicode="Ϋ"/>
			<glyph d="M396 765H516L390 547H326ZM274 495Q319 495 358 477T421 426L434 483H587L517 162Q512 143 520 133T545 124Q557 124 565 127L546 -3Q532 -8 512 -10T475 -12Q421 -12 389 9T353 72Q312 25 276 6T201 -12Q120 -12 70 39T20 188Q20 240 36 295T84 394T163 466T274 495ZM301 359Q274 359 252 348T213 318T188 273T179 220Q179 176 206 150T273 124Q300 124 323 136T364 169L397 315Q382 335 357 347T301 359Z" horiz-adv-x="605" unicode="ά"/>
			<glyph d="M358 765H478L352 547H288ZM314 495Q388 495 440 471T526 413L435 329Q410 355 378 366T310 377Q266 377 240 365T215 335Q215 321 231 311T285 301H379L353 186H259Q211 186 186 173T162 140Q162 125 178 115T234 106Q272 106 318 118T404 156L455 61Q410 29 349 8T221 -12Q162 -12 119 -2T50 25T10 66T-2 118Q-2 148 14 171T56 211T109 237T160 248Q112 256 86 282T60 343Q60 376 78 403T130 451T210 483T314 495Z" horiz-adv-x="498" unicode="έ"/>
			<glyph d="M398 765H518L392 547H328ZM406 495Q479 495 520 460T561 370Q561 363 559 350T556 330L441 -184H287L391 280Q394 293 394 306Q394 335 373 347T321 359Q292 359 267 344T225 312L156 0H2L109 483H263L249 424Q263 437 279 449T314 472T356 488T406 495Z" horiz-adv-x="593" unicode="ή"/>
			<glyph d="M240 765H360L234 547H170ZM112 483H265L192 162Q187 143 195 133T220 124Q232 124 240 127L221 -3Q207 -8 187 -10T150 -12Q76 -12 45 24T31 130Z" horiz-adv-x="280" unicode="ί"/>
			<glyph d="M393 765H513L388 547H322ZM557 693Q587 693 607 673T627 623Q627 606 619 590T599 562T571 543T538 536Q508 536 488 556T468 606Q468 623 475 639T495 667T524 686T557 693ZM242 693Q271 693 291 673T312 623Q312 606 304 590T284 562T256 543T223 536Q193 536 173 556T153 606Q153 623 160 639T180 667T209 686T242 693ZM549 495Q556 480 561 461T570 422T575 382T577 344Q577 269 555 204T491 91T391 15T261 -12Q198 -12 153 6T82 56T49 131T54 226L112 483H266L207 224Q197 180 213 152T274 124Q307 124 333 139T379 182T408 245T418 325Q418 354 413 385T397 440Z" horiz-adv-x="584" unicode="ΰ"/>
			<glyph d="M274 495Q319 495 358 477T421 426L434 483H587L517 162Q512 143 520 133T545 124Q557 124 565 127L546 -3Q532 -8 512 -10T475 -12Q421 -12 389 9T353 72Q312 25 276 6T201 -12Q120 -12 70 39T20 188Q20 240 36 295T84 394T163 466T274 495ZM301 359Q274 359 252 348T213 318T188 273T179 220Q179 176 206 150T273 124Q300 124 323 136T364 169L397 315Q382 335 357 347T301 359Z" horiz-adv-x="605" unicode="α"/>
			<glyph d="M401 677Q504 677 559 635T614 519Q614 486 599 456T559 404T501 365T434 344Q457 339 479 329T518 302T545 261T555 204Q555 156 534 116T480 47T406 3T325 -12Q271 -12 233 4T168 54L114 -184H-40L103 445Q118 509 150 553T223 625T311 665T401 677ZM374 540Q332 540 299 514T257 445L193 166Q207 147 231 135T291 124Q342 124 371 149T401 210Q401 237 380 252T321 268H279L310 405H347Q396 405 422 428T448 485Q448 540 374 540Z" horiz-adv-x="591" unicode="β"/>
			<glyph d="M36 483H208Q224 454 237 415T258 334T268 250T267 174Q286 198 308 234T350 313T386 399T412 483H565Q551 423 523 357T457 228T375 107T285 5L242 -184H89L110 -91Q129 -7 132 74T124 230T91 369T36 483Z" horiz-adv-x="524" unicode="γ"/>
			<glyph d="M384 679Q447 679 494 661T574 615L492 508Q473 528 438 543T361 559Q332 559 312 548T292 523Q292 510 311 501T360 482T424 459T488 421T537 359T557 266Q557 216 535 166T474 76T380 12T259 -12Q196 -12 150 4T75 49T32 116T18 198Q18 238 31 273T66 336T116 387T176 424Q159 440 150 461T141 511Q141 544 158 574T207 628T283 665T384 679ZM293 362Q238 339 208 299T179 219Q179 177 204 150T278 124Q305 124 328 134T368 162T395 202T405 248Q405 272 396 290T371 321T335 343T293 362Z" horiz-adv-x="576" unicode="δ"/>
			<glyph d="M314 495Q388 495 440 471T526 413L435 329Q410 355 378 366T310 377Q266 377 240 365T215 335Q215 321 231 311T285 301H379L353 186H259Q211 186 186 173T162 140Q162 125 178 115T234 106Q272 106 318 118T404 156L455 61Q410 29 349 8T221 -12Q162 -12 119 -2T50 25T10 66T-2 118Q-2 148 14 171T56 211T109 237T160 248Q112 256 86 282T60 343Q60 376 78 403T130 451T210 483T314 495Z" horiz-adv-x="498" unicode="ε"/>
			<glyph d="M138 667H546L521 558Q459 529 397 488T286 400T206 301T175 199Q175 159 201 141T276 124Q351 124 382 102T413 38Q413 -4 387 -50T313 -157H147Q162 -143 179 -124T210 -86T234 -50T244 -23Q244 -12 226 -12Q123 -12 67 35T12 166Q12 220 34 272T97 372T193 460T317 533H108Z" horiz-adv-x="484" unicode="ζ"/>
			<glyph d="M406 495Q479 495 520 460T561 370Q561 363 559 350T556 330L441 -184H287L391 280Q394 293 394 306Q394 335 373 347T321 359Q292 359 267 344T225 312L156 0H2L109 483H263L249 424Q263 437 279 449T314 472T356 488T406 495Z" horiz-adv-x="593" unicode="η"/>
			<glyph d="M353 679Q405 679 447 661T521 608T569 523T586 405Q586 321 562 245T497 112T396 21T269 -12Q217 -12 174 5T100 57T51 143T34 261Q34 345 58 421T124 554T225 645T353 679ZM189 268Q188 260 188 252Q188 245 188 238Q188 187 209 155T278 124Q298 124 316 135T350 166T379 212T402 268ZM342 543Q322 543 304 531T270 501T241 456T218 402H430Q430 410 430 416T431 430Q431 481 410 512T342 543Z" horiz-adv-x="576" unicode="θ"/>
			<glyph d="M112 483H265L192 162Q187 143 195 133T220 124Q232 124 240 127L221 -3Q207 -8 187 -10T150 -12Q76 -12 45 24T31 130Z" horiz-adv-x="280" unicode="ι"/>
			<glyph d="M109 483H263L221 298L404 483H596L369 263L498 0H313L243 174L181 116L156 0H2Z" horiz-adv-x="546" unicode="κ"/>
			<glyph d="M212 679Q246 678 275 672T328 653T366 614T387 552L480 0H322L281 306L103 0H-64L240 490L235 516Q231 531 216 537T176 543Q167 543 155 541T135 534L144 671Q158 675 179 677T212 679Z" horiz-adv-x="524" unicode="λ"/>
			<glyph d="M111 483H265L202 203Q192 163 210 143T263 124Q296 124 322 139T366 171L435 483H588L518 162Q513 143 521 133T546 124Q558 124 566 127L547 -3Q533 -8 513 -10T476 -12Q363 -12 353 75Q326 37 288 12T207 -12Q190 -12 176 -7T156 5L113 -184H-40Z" horiz-adv-x="606" unicode="μ"/>
			<glyph d="M46 483H208L250 153Q279 187 304 228T350 312T387 400T412 483H565Q551 422 522 356T456 225T372 103T280 0H126Z" horiz-adv-x="524" unicode="ν"/>
			<glyph d="M144 667H544L513 533H322Q289 525 266 504T243 454Q243 429 266 416T332 403H480L450 271H303Q240 271 205 248T171 183Q171 154 198 139T276 124Q351 124 382 102T413 38Q413 -4 387 -50T313 -157H152Q163 -145 179 -126T209 -88T234 -51T244 -23Q244 -12 227 -12Q113 -12 58 29T3 141Q3 174 15 201T47 250T95 286T154 310Q121 316 97 338T73 403Q73 422 82 442T108 479T145 510T192 533H113Z" horiz-adv-x="484" unicode="ξ"/>
			<glyph d="M304 495Q365 495 411 478T489 431T537 360T553 272Q553 216 532 164T473 74T384 11T269 -12Q208 -12 161 5T83 52T36 122T20 210Q20 266 41 317T99 408T189 471T304 495ZM299 359Q272 359 249 347T211 315T186 270T178 218Q178 173 204 148T275 124Q302 124 324 136T362 167T387 212T396 265Q396 310 370 334T299 359Z" horiz-adv-x="576" unicode="ο"/>
			<glyph d="M64 483H704L674 349H594L514 0H361L440 349H267L187 0H34L113 349H33Z" horiz-adv-x="656" unicode="π"/>
			<glyph d="M350 495Q402 495 443 479T512 434T555 365T570 278Q570 232 554 181T505 87T425 16T315 -12Q274 -12 233 5T169 57L114 -184H-40L56 242Q69 299 94 345T157 425T242 477T350 495ZM326 359Q278 359 249 325T209 242L193 168Q208 148 233 136T289 124Q315 124 337 135T376 165T402 209T411 262Q411 304 387 331T326 359Z" unicode="ρ"/>
			<glyph d="M307 495Q386 495 436 467T512 397L397 310Q384 331 361 345T306 359Q277 359 253 348T213 318T186 273T177 219Q177 174 206 149T308 124Q360 124 391 101T423 33Q423 -5 397 -51T323 -157H158Q172 -144 189 -125T220 -87T245 -51T255 -24Q255 -12 238 -12Q197 -12 158 3T88 48T39 118T21 210Q21 270 43 322T103 412T194 473T307 495Z" horiz-adv-x="497" unicode="ς"/>
			<glyph d="M330 483H614L583 347H506Q523 328 530 303T538 251Q538 201 518 153T463 69T378 10T269 -12Q208 -12 162 5T84 52T37 122T21 210Q21 268 44 317T108 404T206 462T330 483ZM315 347Q283 347 257 337T214 309T187 268T178 218Q178 173 204 148T275 124Q302 124 324 135T362 166T387 211T396 263Q396 289 388 311T364 347Z" horiz-adv-x="576" unicode="σ"/>
			<glyph d="M74 483H527L496 349H346L307 171Q302 149 312 136T343 124Q354 124 365 127T381 134L385 17Q370 5 341 -3T274 -12Q237 -12 209 -3T164 23T141 68T144 132L193 349H43Z" horiz-adv-x="488" unicode="τ"/>
			<glyph d="M549 495Q556 480 561 461T570 422T575 382T577 344Q577 269 555 204T491 91T391 15T261 -12Q198 -12 153 6T82 56T49 131T54 226L112 483H266L207 224Q197 180 213 152T274 124Q307 124 333 139T379 182T408 245T418 325Q418 354 413 385T397 440Z" horiz-adv-x="584" unicode="υ"/>
			<glyph d="M272 495L309 375Q247 354 215 315T183 236Q183 190 212 163T308 128L391 495H467Q635 495 719 438T804 269Q804 212 779 163T707 77T590 17T430 -10L391 -184H237L277 -6Q146 9 83 65T20 222Q20 270 38 310T89 385T168 446T272 495ZM513 355L461 127Q559 138 600 173T641 256Q641 304 605 328T513 355Z" horiz-adv-x="820" unicode="φ"/>
			<glyph d="M60 483H224L266 303L390 483H563L335 159L422 -184H258L211 16L70 -184H-102L141 159Z" horiz-adv-x="512" unicode="χ"/>
			<glyph d="M431 667H585L462 130Q522 141 562 170T613 249L666 483H820L762 229Q751 181 724 139T655 65T557 14T430 -10L391 -184H237L277 -5Q160 11 107 63T54 196Q54 230 63 266L112 483H266L213 249Q211 242 210 234T209 221Q209 185 234 162T308 130Z" horiz-adv-x="820" unicode="ψ"/>
			<glyph d="M190 495L290 408Q230 357 203 306T177 209Q177 173 194 148T246 124Q290 124 320 158T361 242L388 363H542L515 242Q504 193 519 158T579 124Q607 124 629 137T668 174T692 228T701 292Q701 323 693 354T666 413L800 495Q826 465 843 417T860 311Q860 248 839 189T782 86T695 14T584 -12Q508 -12 466 23T413 120Q393 89 372 64T327 23T273 -3T208 -12Q164 -12 128 3T68 46T30 110T17 189Q17 234 30 277T67 360T122 434T190 495Z" horiz-adv-x="875" unicode="ω"/>
			<glyph d="M336 693Q365 693 385 673T405 623Q405 606 397 590T377 562T349 543T316 536Q287 536 267 556T247 606Q247 623 254 639T274 667T303 686T336 693ZM122 693Q152 693 172 673T192 623Q192 606 184 590T164 562T136 543T103 536Q73 536 53 556T33 606Q33 623 40 639T60 667T89 686T122 693ZM112 483H265L192 162Q187 143 195 133T220 124Q232 124 240 127L221 -3Q207 -8 187 -10T150 -12Q76 -12 45 24T31 130Z" horiz-adv-x="280" unicode="ϊ"/>
			<glyph d="M499 693Q528 693 548 673T568 623Q568 606 560 590T540 562T512 543T479 536Q450 536 430 556T410 606Q410 623 417 639T437 667T466 686T499 693ZM285 693Q315 693 335 673T355 623Q355 606 347 590T327 562T299 543T266 536Q236 536 216 556T196 606Q196 623 203 639T223 667T252 686T285 693ZM549 495Q556 480 561 461T570 422T575 382T577 344Q577 269 555 204T491 91T391 15T261 -12Q198 -12 153 6T82 56T49 131T54 226L112 483H266L207 224Q197 180 213 152T274 124Q307 124 333 139T379 182T408 245T418 325Q418 354 413 385T397 440Z" horiz-adv-x="584" unicode="ϋ"/>
			<glyph d="M389 765H509L383 547H319ZM304 495Q365 495 411 478T489 431T537 360T553 272Q553 216 532 164T473 74T384 11T269 -12Q208 -12 161 5T83 52T36 122T20 210Q20 266 41 317T99 408T189 471T304 495ZM299 359Q272 359 249 347T211 315T186 270T178 218Q178 173 204 148T275 124Q302 124 324 136T362 167T387 212T396 265Q396 310 370 334T299 359Z" horiz-adv-x="576" unicode="ό"/>
			<glyph d="M401 765H521L395 547H331ZM549 495Q556 480 561 461T570 422T575 382T577 344Q577 269 555 204T491 91T391 15T261 -12Q198 -12 153 6T82 56T49 131T54 226L112 483H266L207 224Q197 180 213 152T274 124Q307 124 333 139T379 182T408 245T418 325Q418 354 413 385T397 440Z" horiz-adv-x="584" unicode="ύ"/>
			<glyph d="M540 765H660L534 547H470ZM190 495L290 408Q230 357 203 306T177 209Q177 173 194 148T246 124Q290 124 320 158T361 242L388 363H542L515 242Q504 193 519 158T579 124Q607 124 629 137T668 174T692 228T701 292Q701 323 693 354T666 413L800 495Q826 465 843 417T860 311Q860 248 839 189T782 86T695 14T584 -12Q508 -12 466 23T413 120Q393 89 372 64T327 23T273 -3T208 -12Q164 -12 128 3T68 46T30 110T17 189Q17 234 30 277T67 360T122 434T190 495Z" horiz-adv-x="875" unicode="ώ"/>
			<glyph d="M543 860Q572 860 592 840T612 790Q612 773 604 757T584 729T556 710T523 703Q494 703 474 723T454 773Q454 790 461 806T481 834T510 853T543 860ZM329 860Q359 860 379 840T399 790Q399 773 391 757T371 729T343 710T310 703Q280 703 260 723T240 773Q240 790 247 806T267 834T296 853T329 860ZM153 667H642L608 517H292L269 413H579L546 263H236L211 150H528L495 0H6Z" unicode="Ё"/>
			<glyph d="M114 667H659L626 517H440L417 410Q454 418 487 423T556 428Q622 428 666 411T736 364T767 293T764 204L762 197Q752 149 725 110T660 45T572 3T468 -12L500 132Q536 132 559 150T589 197L590 204Q598 241 573 259T499 278Q467 278 438 273T383 259L327 0H155L268 517H80Z" horiz-adv-x="791" unicode="Ђ"/>
			<glyph d="M507 867H645L454 723H348ZM153 667H642L608 517H292L178 0H6Z" horiz-adv-x="582" unicode="Ѓ"/>
			<glyph d="M430 678Q497 678 549 660T639 614T701 549T739 473L573 419Q559 470 518 498T422 526Q363 526 315 495T242 413H521L487 263H219Q231 209 274 174T384 140Q425 140 465 161T529 217L663 129Q633 88 596 61T522 17T445 -5T374 -12Q303 -12 241 9T134 69T62 165T36 291Q36 378 67 449T153 572T278 650T430 678Z" horiz-adv-x="692" unicode="Є"/>
			<glyph d="M350 677Q431 677 504 649T629 567L524 447Q504 468 479 484T428 510T375 525T323 530Q294 530 276 516T258 483Q258 465 282 452T342 427T419 399T497 361T557 304T581 223Q581 174 562 131T508 56T422 6T308 -12Q257 -12 209 -3T121 23T46 63T-10 115L95 239Q130 193 191 164T322 136Q364 136 381 153T399 189Q399 208 375 220T315 246T238 274T160 312T101 367T77 449Q77 491 95 532T147 605T233 657T350 677Z" horiz-adv-x="606" unicode="Ѕ"/>
			<glyph d="M153 667H325L178 0H6Z" horiz-adv-x="292" unicode="І"/>
			<glyph d="M381 860Q410 860 430 840T450 790Q450 773 442 757T422 729T394 710T361 703Q332 703 312 723T292 773Q292 790 299 806T319 834T348 853T381 860ZM167 860Q197 860 217 840T237 790Q237 773 229 757T209 729T181 710T148 703Q118 703 98 723T78 773Q78 790 85 806T105 834T134 853T167 860ZM153 667H325L178 0H6Z" horiz-adv-x="292" unicode="Ї"/>
			<glyph d="M353 667H525L428 229Q401 105 339 46T168 -12Q140 -12 112 -8T57 5T8 27T-33 59L58 188Q73 168 99 154T155 140Q197 140 222 164T257 231Z" horiz-adv-x="492" unicode="Ј"/>
			<glyph d="M276 667H773L724 443H875Q919 443 955 428T1017 387T1057 326T1072 252Q1072 215 1058 171T1011 89T923 25T786 0H455L568 517H398L330 316Q296 215 255 151T169 51T72 1T-34 -12L-1 140Q22 140 43 148T83 177T122 235T161 329ZM691 293L660 150H795Q837 150 865 173T893 234Q893 261 874 277T824 293Z" horiz-adv-x="1092" unicode="Љ"/>
			<glyph d="M152 667H324L273 435H549L601 667H773L722 435H878Q921 435 956 420T1017 379T1056 320T1070 247Q1070 211 1057 168T1011 87T925 25T791 0H455L517 285H240L178 0H6ZM689 285L660 150H800Q839 150 866 172T893 229Q893 255 875 270T827 285Z" horiz-adv-x="1092" unicode="Њ"/>
			<glyph d="M114 667H659L626 517H440L417 410Q454 418 487 423T556 428Q622 428 666 410T735 359T765 279T758 176L720 0H546L584 176Q596 233 572 255T499 278Q467 278 438 273T383 259L327 0H155L268 517H80Z" horiz-adv-x="827" unicode="Ћ"/>
			<glyph d="M534 867H672L481 723H375ZM153 667H325L268 406L521 667H742L415 355L609 0H407L283 257L221 195L178 0H6Z" horiz-adv-x="654" unicode="Ќ"/>
			<glyph d="M81 667H272L348 354L562 667H758L369 131Q346 100 319 74T261 29T190 -1T106 -12Q58 -12 16 1T-51 39L46 173Q60 160 79 150T125 140Q156 140 176 153T216 192ZM340 837Q353 811 377 795T437 779Q471 779 502 794T559 837L616 783Q577 742 526 718T422 695Q368 695 327 718T265 783Z" horiz-adv-x="655" unicode="Ў"/>
			<glyph d="M152 667H324L211 150H487L601 667H773L627 0H402L375 -125H202L229 0H6Z" horiz-adv-x="741" unicode="Џ"/>
			<glyph d="M333 667H549L654 0H467L455 96H192L139 0H-65ZM412 497L272 246H442Z" horiz-adv-x="697" unicode="А"/>
			<glyph d="M152 667H673L640 517H291L272 431H401Q456 431 497 416T566 376T608 317T622 245Q622 209 608 166T562 87T474 25T338 0H6ZM239 281L211 150H352Q395 150 419 172T444 226Q444 251 427 266T384 281Z" horiz-adv-x="643" unicode="Б"/>
			<glyph d="M153 667H501Q548 667 583 653T641 616T676 564T688 504Q688 471 675 441T642 388T594 350T537 332Q585 319 608 280T632 199Q632 165 619 129T579 65T506 18T397 0H6ZM294 522L269 411H434Q454 411 467 416T489 431T500 451T504 474Q504 494 489 508T452 522ZM237 265L210 145H382Q419 145 439 164T460 213Q460 236 445 250T405 265Z" horiz-adv-x="680" unicode="В"/>
			<glyph d="M153 667H642L608 517H292L178 0H6Z" horiz-adv-x="582" unicode="Г"/>
			<glyph d="M276 667H773L660 150H719L659 -123H486L513 0H140L113 -123H-58L-1 140Q24 144 45 152T85 181T123 237T161 329ZM398 517L330 316Q311 259 283 219T221 150H487L568 517Z" horiz-adv-x="755" unicode="Д"/>
			<glyph d="M153 667H642L608 517H292L269 413H579L546 263H236L211 150H528L495 0H6Z" unicode="Е"/>
			<glyph d="M97 667H298L435 407L492 667H664L613 436L837 667H1058L731 355L927 0H726L602 258L567 223L518 0H346L394 221L381 244L157 0H-63L287 355Z" horiz-adv-x="971" unicode="Ж"/>
			<glyph d="M345 677Q409 677 462 665T554 630T614 574T635 500Q635 468 619 440T577 392T520 356T455 338Q481 332 504 320T544 291T570 248T580 190Q580 145 557 108T497 44T409 3T306 -12Q258 -12 210 -3T119 23T43 66T-12 127L100 232Q117 208 142 191T195 162T251 145T304 140Q358 140 384 160T411 209Q411 219 406 228T387 245T351 256T294 261H158L192 412H334Q388 412 422 424T457 468Q457 496 422 511T328 526Q285 526 239 513T161 477L102 593Q144 631 209 654T345 677Z" horiz-adv-x="624" unicode="З"/>
			<glyph d="M153 667H325L242 288L595 667H773L626 0H453L541 398L172 0H6Z" horiz-adv-x="740" unicode="И"/>
			<glyph d="M153 667H325L242 288L595 667H773L626 0H453L541 398L172 0H6ZM385 837Q398 811 422 795T482 779Q516 779 547 794T604 837L661 783Q622 742 571 718T467 695Q413 695 372 718T310 783Z" horiz-adv-x="740" unicode="Й"/>
			<glyph d="M153 667H325L268 406L521 667H742L415 355L609 0H407L283 257L221 195L178 0H6Z" horiz-adv-x="654" unicode="К"/>
			<glyph d="M276 667H773L627 0H455L568 517H398L330 316Q296 215 255 151T169 51T72 1T-34 -12L-1 140Q22 140 43 148T83 177T122 235T161 329Z" horiz-adv-x="741" unicode="Л"/>
			<glyph d="M153 667H386L444 298L665 667H910L763 0H591L688 441L422 0H346L275 441L178 0H6Z" horiz-adv-x="877" unicode="М"/>
			<glyph d="M153 667H325L270 418H547L602 667H774L627 0H455L514 268H237L178 0H6Z" horiz-adv-x="741" unicode="Н"/>
			<glyph d="M430 678Q502 678 563 656T670 595T742 500T768 377Q768 296 738 225T655 101T531 18T374 -12Q302 -12 240 9T133 71T62 166T36 291Q36 372 66 442T148 565T273 648T430 678ZM420 526Q376 526 338 508T273 460T230 389T215 302Q215 266 227 236T262 184T316 151T384 140Q428 140 465 157T530 205T573 277T589 364Q589 400 576 430T541 481T488 514T420 526Z" horiz-adv-x="766" unicode="О"/>
			<glyph d="M153 667H774L627 0H455L569 517H292L178 0H6Z" horiz-adv-x="741" unicode="П"/>
			<glyph d="M153 667H476Q520 667 556 652T618 611T658 550T672 476Q672 439 658 395T612 313T524 249T387 224H227L178 0H6ZM292 517L260 374H396Q438 374 466 397T494 457Q494 485 475 501T425 517Z" horiz-adv-x="643" unicode="Р"/>
			<glyph d="M430 678Q497 678 549 660T639 614T701 549T739 473L573 419Q559 470 518 498T422 526Q378 526 340 508T275 460T231 389T215 302Q215 268 227 238T260 187T313 152T384 140Q425 140 465 161T529 217L663 129Q633 88 596 61T522 17T445 -5T374 -12Q303 -12 241 9T134 69T62 165T36 291Q36 378 67 449T153 572T278 650T430 678Z" horiz-adv-x="692" unicode="С"/>
			<glyph d="M115 667H660L627 517H440L327 0H155L268 517H81Z" unicode="Т"/>
			<glyph d="M81 667H272L348 354L562 667H758L369 131Q346 100 319 74T261 29T190 -1T106 -12Q58 -12 16 1T-51 39L46 173Q60 160 79 150T125 140Q156 140 176 153T216 192Z" horiz-adv-x="655" unicode="У"/>
			<glyph d="M451 667H624L608 595Q746 578 814 519T882 351Q882 290 853 240T772 152T647 92T487 65L472 0H299L315 70Q177 87 109 146T41 314Q41 375 70 425T151 512T275 572T436 600ZM573 445L522 220Q612 231 657 264T703 351Q703 427 573 445ZM400 445Q310 434 265 401T221 314Q221 237 349 221Z" horiz-adv-x="880" unicode="Ф"/>
			<glyph d="M97 667H291L383 467L551 667H764L469 332L632 0H438L335 214L148 0H-65L250 352Z" horiz-adv-x="676" unicode="Х"/>
			<glyph d="M152 667H324L211 150H487L601 667H773L660 150H719L659 -123H486L513 0H6Z" horiz-adv-x="755" unicode="Ц"/>
			<glyph d="M137 667H311L268 468Q261 439 264 419T279 388T309 371T352 366Q416 366 468 385L530 667H702L556 0H384L435 234Q398 226 364 221T295 216Q229 216 184 234T115 285T86 364T93 468Z" horiz-adv-x="670" unicode="Ч"/>
			<glyph d="M152 667H324L211 150H401L515 667H687L573 150H764L877 667H1049L903 0H6Z" horiz-adv-x="1017" unicode="Ш"/>
			<glyph d="M152 667H324L211 150H401L515 667H687L573 150H764L877 667H1049L936 150H995L935 -123H763L790 0H6Z" horiz-adv-x="1032" unicode="Щ"/>
			<glyph d="M114 667H473L424 443H574Q618 443 654 428T717 387T757 326T771 252Q771 215 757 171T711 89T623 25T486 0H155L268 517H80ZM391 293L359 150H494Q536 150 564 173T593 234Q593 261 574 277T524 293Z" horiz-adv-x="792" unicode="Ъ"/>
			<glyph d="M767 667H939L793 0H621ZM152 667H324L275 443H426Q470 443 506 428T568 387T608 326T622 252Q622 215 608 171T562 89T474 25T337 0H6ZM242 293L211 150H346Q388 150 416 173T444 234Q444 261 425 277T375 293Z" horiz-adv-x="907" unicode="Ы"/>
			<glyph d="M152 667H324L275 443H426Q470 443 506 428T568 387T608 326T622 252Q622 215 608 171T562 89T474 25T337 0H6ZM242 293L211 150H346Q388 150 416 173T444 234Q444 261 425 277T375 293Z" horiz-adv-x="643" unicode="Ь"/>
			<glyph d="M356 678Q426 678 487 657T595 596T667 501T694 376Q694 288 662 216T577 94T451 15T299 -12Q232 -12 180 5T91 51T28 117T-9 193L157 247Q171 196 211 168T307 140Q369 140 417 174T492 263H212L245 413H508Q494 463 451 494T346 526Q326 526 305 520T264 504T228 480T200 449L67 537Q97 578 133 605T207 648T284 671T356 678Z" horiz-adv-x="692" unicode="Э"/>
			<glyph d="M740 678Q812 678 873 656T980 595T1051 500T1077 377Q1077 296 1047 225T964 101T840 18T683 -12Q614 -12 554 8T450 64T378 152T347 268H237L178 0H6L152 667H324L269 418H367Q386 475 421 522T505 604T613 658T740 678ZM730 526Q686 526 648 508T582 460T539 389T524 302Q524 266 536 236T571 184T625 151T693 140Q737 140 774 157T840 205T883 277T899 364Q899 400 886 430T851 481T798 514T730 526Z" horiz-adv-x="1075" unicode="Ю"/>
			<glyph d="M362 667H694L547 0H374L424 224H352L190 0H-22L173 250Q155 259 137 274T106 311T85 358T77 415Q77 452 90 496T137 578T224 641T362 667ZM353 517Q312 517 284 494T256 434Q256 406 274 390T325 374H458L489 517Z" horiz-adv-x="661" unicode="Я"/>
			<glyph d="M274 495Q319 495 358 477T421 426L434 483H587L480 0H327L339 56Q308 21 275 4T201 -12Q120 -12 70 39T20 188Q20 240 36 295T84 394T163 466T274 495ZM301 359Q274 359 252 348T213 318T188 273T179 220Q179 176 206 150T273 124Q300 124 323 136T364 169L397 315Q382 335 357 347T301 359Z" horiz-adv-x="591" unicode="а"/>
			<glyph d="M299 359Q272 359 249 347T211 315T186 270T178 218Q178 173 204 148T275 124Q302 124 324 136T362 167T387 212T396 265Q396 310 370 334T299 359ZM459 667H625Q617 632 592 608T534 569T465 546T399 534Q356 528 324 517T269 492T231 460T207 424Q239 456 279 473T368 490Q411 490 445 473T504 428T540 359T553 272Q553 216 532 164T473 74T384 11T269 -12Q208 -12 162 5T86 54T41 131T26 230Q26 248 29 271T39 320T54 371T75 417Q99 460 127 495T192 557T274 603T376 632Q453 646 459 667Z" horiz-adv-x="577" unicode="б"/>
			<glyph d="M108 483H415Q485 483 523 452T561 373Q561 326 530 290T451 244Q485 232 503 207T522 150Q522 120 510 92T478 44T426 12T356 0H2ZM197 186L182 119H331Q349 119 360 129T371 157Q371 170 362 178T337 186ZM235 364L223 304H362Q379 304 389 314T400 339Q400 364 370 364Z" horiz-adv-x="602" unicode="в"/>
			<glyph d="M108 483H491L461 349H232L156 0H2Z" horiz-adv-x="455" unicode="г"/>
			<glyph d="M176 483H589L512 134H565L508 -123H355L382 0H117L90 -123H-63L-9 128Q4 131 16 135T41 152T66 188T93 251ZM279 349L244 246Q219 173 172 134H358L405 349Z" horiz-adv-x="605" unicode="д"/>
			<glyph d="M304 495Q350 495 390 481T461 439T508 370T526 277Q526 254 522 230T516 193H174V187Q174 178 181 164T202 138T238 116T290 107Q320 107 351 115T403 137L450 35Q415 11 369 0T278 -12Q220 -12 172 2T91 45T39 114T21 207Q21 265 42 317T100 409T190 472T304 495ZM297 376Q275 376 256 368T224 348T201 321T189 293H389Q390 294 390 296Q390 299 390 300Q390 312 385 325T368 349T339 368T297 376Z" horiz-adv-x="548" unicode="е"/>
			<glyph d="M55 483H232L323 313L361 483H515L483 338L626 483H821L594 263L724 0H543L472 178L442 149L409 0H255L287 147L277 164L139 0H-60L184 263Z" horiz-adv-x="772" unicode="ж"/>
			<glyph d="M283 495Q342 495 383 485T451 459T489 419T501 368Q501 338 485 314T445 273T393 247T343 237Q391 229 420 203T449 143Q449 110 430 82T379 33T300 0T199 -12Q124 -12 67 11T-22 70L69 155Q96 129 128 117T195 106Q240 106 265 119T291 152Q291 165 276 175T224 186H125L151 301H245Q340 301 340 344Q340 358 323 367T269 377Q231 377 186 365T101 327L49 422Q94 454 154 474T283 495Z" horiz-adv-x="498" unicode="з"/>
			<glyph d="M108 483H262L206 230L434 483H589L483 0H329L387 266L149 0H2Z" horiz-adv-x="593" unicode="и"/>
			<glyph d="M108 483H262L206 230L434 483H589L483 0H329L387 266L149 0H2ZM276 670Q289 644 313 628T373 612Q407 612 438 627T495 670L552 616Q513 575 462 551T358 528Q304 528 263 551T201 616Z" horiz-adv-x="593" unicode="й"/>
			<glyph d="M109 483H263L221 298L404 483H596L369 263L498 0H313L243 174L181 116L156 0H2Z" horiz-adv-x="546" unicode="к"/>
			<glyph d="M176 483H589L483 0H329L405 349H279L238 231Q217 172 191 126T132 50T57 3T-38 -12L-11 114Q2 114 14 120T40 143T66 185T93 251Z" horiz-adv-x="593" unicode="л"/>
			<glyph d="M108 483H306L349 222L508 483H716L610 0H457L519 289L346 0H267L219 289L156 0H2Z" horiz-adv-x="720" unicode="м"/>
			<glyph d="M112 483H266L229 319H402L439 483H593L483 0H329L371 185H198L156 0H2Z" horiz-adv-x="593" unicode="н"/>
			<glyph d="M304 495Q365 495 411 478T489 431T537 360T553 272Q553 216 532 164T473 74T384 11T269 -12Q208 -12 161 5T83 52T36 122T20 210Q20 266 41 317T99 408T189 471T304 495ZM299 359Q272 359 249 347T211 315T186 270T178 218Q178 173 204 148T275 124Q302 124 324 136T362 167T387 212T396 265Q396 310 370 334T299 359Z" horiz-adv-x="576" unicode="о"/>
			<glyph d="M112 483H593L483 0H329L409 349H235L156 0H2Z" horiz-adv-x="593" unicode="п"/>
			<glyph d="M388 495Q470 495 520 443T570 294Q570 242 554 187T505 89T425 16T315 -12Q270 -12 231 5T168 57L115 -184H-39L109 483H263L250 427Q282 463 315 479T388 495ZM317 359Q290 359 266 346T225 314L193 168Q208 148 233 136T289 124Q315 124 337 135T376 165T402 209T411 262Q411 307 383 333T317 359Z" unicode="р"/>
			<glyph d="M307 495Q386 495 436 467T512 397L397 310Q384 331 361 345T306 359Q277 359 253 348T213 318T186 273T177 219Q177 174 207 149T282 124Q310 124 333 136T373 167L456 66Q443 52 424 38T382 13T329 -5T267 -12Q210 -12 164 4T87 50T38 120T21 210Q21 270 43 322T103 412T194 473T307 495Z" horiz-adv-x="500" unicode="с"/>
			<glyph d="M68 483H485L455 349H324L248 0H94L170 349H38Z" horiz-adv-x="449" unicode="т"/>
			<glyph d="M43 483H201L241 177L420 483H587L246 -69Q224 -105 202 -129T155 -168T102 -189T41 -196Q18 -196 -5 -193T-48 -184L1 -52Q10 -56 23 -57T51 -59Q70 -59 83 -53T106 -33L125 -2Z" horiz-adv-x="524" unicode="у"/>
			<glyph d="M440 667H594L540 427Q570 465 602 480T671 495Q711 495 741 478T790 435T819 375T829 306Q829 249 813 192T766 90T693 16T596 -12Q577 -12 557 -8T519 4T485 26T460 57L406 -184H253L306 56Q276 17 244 2T176 -12Q135 -12 105 4T56 47T27 108T18 177Q18 234 34 290T80 392T153 466T250 495Q288 495 327 478T387 426ZM284 359Q261 359 241 346T207 311T185 263T177 210Q177 173 195 148T247 124Q271 124 292 136T330 168L363 315Q354 334 333 346T284 359ZM599 359Q575 359 554 347T516 315L484 168Q492 149 513 136T562 124Q585 124 604 137T638 171T661 219T669 273Q669 310 651 334T599 359Z" horiz-adv-x="849" unicode="ф"/>
			<glyph d="M57 483H222L275 352L386 483H560L353 248L464 0H300L239 146L113 0H-60L159 248Z" horiz-adv-x="512" unicode="х"/>
			<glyph d="M108 483H262L185 134H358L435 483H589L512 134H565L508 -123H355L382 0H2Z" horiz-adv-x="605" unicode="ц"/>
			<glyph d="M96 483H250L220 350Q210 305 228 288T289 271Q321 271 342 277T380 291L423 483H576L470 0H317L353 169Q328 155 288 145T201 135Q102 135 70 179T56 300Z" horiz-adv-x="581" unicode="ч"/>
			<glyph d="M108 483H262L185 134H328L405 483H559L482 134H624L701 483H855L749 0H2Z" horiz-adv-x="859" unicode="ш"/>
			<glyph d="M108 483H262L185 134H328L405 483H559L482 134H624L701 483H855L778 134H831L774 -123H621L648 0H2Z" horiz-adv-x="874" unicode="щ"/>
			<glyph d="M68 483H354L320 328H445Q527 328 573 288T620 183Q620 148 607 115T569 57T508 15T428 0H94L170 349H38ZM292 204L275 124H412Q435 124 449 137T463 170Q463 186 452 195T421 204Z" horiz-adv-x="661" unicode="ъ"/>
			<glyph d="M649 483H803L697 0H543ZM108 483H262L228 328H353Q435 328 481 288T528 183Q528 148 515 115T477 57T416 15T336 0H2ZM200 204L183 124H321Q343 124 357 137T371 170Q371 186 360 195T329 204Z" horiz-adv-x="807" unicode="ы"/>
			<glyph d="M108 483H262L228 328H353Q435 328 481 288T528 183Q528 148 515 115T477 57T416 15T336 0H2ZM200 204L183 124H321Q343 124 357 137T371 170Q371 186 360 195T329 204Z" horiz-adv-x="569" unicode="ь"/>
			<glyph d="M233 495Q290 495 335 478T412 432T461 362T478 273Q478 213 456 161T395 70T304 10T192 -12Q113 -12 63 16T-12 86L97 169Q111 148 136 134T192 121Q230 121 259 139T305 190H134L157 296H316Q305 327 278 344T218 361Q190 361 165 350T123 321L44 417Q57 431 75 445T117 470T170 488T233 495Z" horiz-adv-x="500" unicode="э"/>
			<glyph d="M560 495Q621 495 667 478T745 431T793 360T809 272Q809 216 788 164T729 74T640 11T525 -12Q468 -12 424 2T349 43T299 105T277 183H196L156 0H2L108 483H262L225 317H297Q312 355 337 387T396 444T471 481T560 495ZM554 359Q527 359 505 347T467 315T442 270T434 218Q434 173 459 148T530 124Q557 124 579 136T618 167T642 212T651 265Q651 310 625 334T554 359Z" horiz-adv-x="831" unicode="ю"/>
			<glyph d="M253 483H587L481 0H327L360 155H280L166 0H-11L136 177Q107 190 83 221T60 300Q60 335 73 368T111 426T172 467T253 483ZM268 359Q245 359 231 346T217 313Q217 297 228 288T260 279H387L405 359Z" horiz-adv-x="588" unicode="я"/>
			<glyph d="M484 693Q513 693 533 673T553 623Q553 606 545 590T525 562T497 543T464 536Q435 536 415 556T395 606Q395 623 402 639T422 667T451 686T484 693ZM270 693Q300 693 320 673T340 623Q340 606 332 590T312 562T284 543T251 536Q221 536 201 556T181 606Q181 623 188 639T208 667T237 686T270 693ZM304 495Q350 495 390 481T461 439T508 370T526 277Q526 254 522 230T516 193H174V187Q174 178 181 164T202 138T238 116T290 107Q320 107 351 115T403 137L450 35Q415 11 369 0T278 -12Q220 -12 172 2T91 45T39 114T21 207Q21 265 42 317T100 409T190 472T304 495ZM297 376Q275 376 256 368T224 348T201 321T189 293H389Q390 294 390 296Q390 299 390 300Q390 312 385 325T368 349T339 368T297 376Z" horiz-adv-x="548" unicode="ё"/>
			<glyph d="M153 667H307L294 609H433L415 525H276L254 424Q282 450 328 472T437 495Q519 495 548 453T563 344L488 4Q479 -40 459 -76T411 -139T343 -181T257 -196Q232 -196 214 -194T184 -188T160 -177T138 -162L201 -49Q214 -60 225 -65T259 -70Q286 -70 306 -52T334 4L396 281Q406 325 387 342T333 359Q299 359 273 344T229 312L161 0H7L122 525H69L87 609H140Z" horiz-adv-x="598" unicode="ђ"/>
			<glyph d="M416 700H554L363 556H257ZM108 483H491L461 349H232L156 0H2Z" horiz-adv-x="455" unicode="ѓ"/>
			<glyph d="M307 495Q386 495 436 467T512 397L402 314Q388 335 363 348T307 362Q269 362 240 343T195 296H367L343 190H181Q191 158 218 140T281 122Q310 122 334 133T377 162L456 66Q443 52 424 38T382 13T329 -5T267 -12Q210 -12 164 4T87 50T38 120T21 210Q21 270 43 322T103 412T194 473T307 495Z" horiz-adv-x="500" unicode="є"/>
			<glyph d="M257 495Q318 495 375 474T472 417L398 322Q389 332 374 342T340 362T300 376T257 382Q230 382 216 371T203 348Q203 335 221 327T265 310T323 292T381 265T426 224T444 162Q444 126 429 94T386 38T317 1T225 -12Q158 -12 94 10T-14 76L67 175Q78 163 97 150T139 125T187 107T239 100Q262 100 276 110T290 135Q290 151 272 160T227 178T170 196T112 222T68 262T50 325Q50 358 63 388T103 442T168 480T257 495Z" horiz-adv-x="484" unicode="ѕ"/>
			<glyph d="M225 703Q260 703 282 681T304 628Q304 604 294 585T271 553T239 533T205 526Q170 526 147 548T125 602Q125 626 134 645T158 677T190 696T225 703ZM109 483H263L156 0H2Z" horiz-adv-x="266" unicode="і"/>
			<glyph d="M333 693Q362 693 382 673T402 623Q402 606 394 590T374 562T346 543T313 536Q284 536 264 556T244 606Q244 623 251 639T271 667T300 686T333 693ZM119 693Q149 693 169 673T189 623Q189 606 181 590T161 562T133 543T100 536Q70 536 50 556T30 606Q30 623 37 639T57 667T86 686T119 693ZM109 483H263L156 0H2Z" horiz-adv-x="266" unicode="ї"/>
			<glyph d="M109 483H263L156 4Q147 -40 131 -76T91 -139T33 -181T-46 -196Q-144 -196 -190 -156L-128 -46Q-117 -59 -101 -64T-69 -70Q-15 -70 2 4ZM225 703Q260 703 282 681T304 628Q304 604 294 585T271 553T239 533T205 526Q170 526 147 548T125 602Q125 626 134 645T158 677T190 696T225 703Z" horiz-adv-x="266" unicode="ј"/>
			<glyph d="M176 483H589L555 328H680Q762 328 808 288T855 183Q855 148 842 115T804 57T743 15T663 0H329L405 349H279L238 231Q197 112 132 50T-39 -12L-12 114Q1 114 14 120T39 143T65 185T93 251ZM527 204L510 124H648Q670 124 684 138T698 170Q698 186 687 195T656 204Z" horiz-adv-x="896" unicode="љ"/>
			<glyph d="M108 483H262L227 323H400L435 483H589L554 323H683Q764 323 809 283T855 180Q855 146 842 113T804 56T745 15T666 0H329L371 189H197L156 0H2ZM526 199L510 124H650Q671 124 684 136T697 168Q697 182 686 190T658 199Z" horiz-adv-x="896" unicode="њ"/>
			<glyph d="M153 667H307L294 609H434L415 525H275L252 424Q266 437 282 449T317 472T359 488T409 495Q482 495 523 460T564 370Q564 362 562 350T559 330L487 0H333L392 274Q394 281 395 290T397 306Q397 335 376 347T324 359Q295 359 270 344T228 312L160 0H6L121 525H69L88 609H140Z" horiz-adv-x="597" unicode="ћ"/>
			<glyph d="M443 700H581L390 556H284ZM109 483H263L221 298L404 483H596L369 263L498 0H313L243 174L181 116L156 0H2Z" horiz-adv-x="546" unicode="ќ"/>
			<glyph d="M43 483H201L241 177L420 483H587L246 -69Q224 -105 202 -129T155 -168T102 -189T41 -196Q18 -196 -5 -193T-48 -184L1 -52Q10 -56 23 -57T51 -59Q70 -59 83 -53T106 -33L125 -2ZM238 670Q251 644 275 628T335 612Q369 612 400 627T457 670L514 616Q475 575 424 551T320 528Q266 528 225 551T163 616Z" horiz-adv-x="524" unicode="ў"/>
			<glyph d="M108 483H262L185 134H358L435 483H589L483 0H319L291 -124H138L165 0H2Z" horiz-adv-x="593" unicode="џ"/>
			<glyph d="M496 790H668L608 517H291L178 0H6L152 667H469Z" horiz-adv-x="582" unicode="Ґ"/>
			<glyph d="M365 607H519L461 349H232L156 0H2L108 483H337Z" horiz-adv-x="455" unicode="ґ"/>
			<glyph d="M153 667H501Q548 667 583 653T641 616T676 564T688 504Q688 471 675 441T642 388T594 350T537 332Q585 319 608 280T632 199Q632 165 619 129T579 65T506 18T397 0H6ZM294 522L269 411H434Q454 411 467 416T489 431T500 451T504 474Q504 494 489 508T452 522ZM237 265L210 145H382Q419 145 439 164T460 213Q460 236 445 250T405 265ZM467 860Q497 860 517 840T537 790Q537 773 529 757T509 729T481 710T448 703Q418 703 398 723T378 773Q378 790 385 806T405 834T434 853T467 860Z" horiz-adv-x="680" unicode="Ḃ"/>
			<glyph d="M149 667H303L250 427Q282 463 315 479T388 495Q470 495 520 443T570 294Q570 242 554 187T505 89T425 16T315 -12Q270 -12 231 5T168 57L156 0H2ZM317 359Q290 359 266 346T225 314L193 168Q208 148 233 136T289 124Q315 124 337 135T376 165T402 209T411 262Q411 307 383 333T317 359ZM433 860Q463 860 483 840T503 790Q503 773 495 757T475 729T447 710T414 703Q384 703 364 723T344 773Q344 790 351 806T371 834T400 853T433 860Z" horiz-adv-x="591" unicode="ḃ"/>
			<glyph d="M153 667H428Q483 667 536 646T631 588T698 498T724 380Q724 315 701 248T626 125T491 35T285 0H6ZM292 517L211 150H312H317Q371 150 413 167T485 215T530 284T546 368Q546 399 535 426T504 473T457 505T397 517ZM496 860Q526 860 546 840T566 790Q566 773 558 757T538 729T510 710T477 703Q447 703 427 723T407 773Q407 790 414 806T434 834T463 853T496 860Z" horiz-adv-x="727" unicode="Ḋ"/>
			<glyph d="M475 667H628L480 0H327L339 56Q308 21 275 4T201 -12Q120 -12 70 39T20 188Q20 240 36 295T84 394T163 466T274 495Q319 495 358 477T421 426ZM301 359Q274 359 252 348T213 318T188 273T179 220Q179 176 206 150T273 124Q300 124 323 136T364 169L397 315Q382 335 357 347T301 359ZM418 860Q448 860 468 840T488 790Q488 773 480 757T460 729T432 710T399 703Q369 703 349 723T329 773Q329 790 336 806T356 834T385 853T418 860Z" horiz-adv-x="591" unicode="ḋ"/>
			<glyph d="M432 860Q462 860 482 840T502 790Q502 773 494 757T474 729T446 710T413 703Q383 703 363 723T343 773Q343 790 350 806T370 834T399 853T432 860ZM153 667H642L608 517H292L269 413H579L546 263H236L178 0H6Z" horiz-adv-x="582" unicode="Ḟ"/>
			<glyph d="M374 860Q404 860 424 840T444 790Q444 773 436 757T416 729T388 710T355 703Q325 703 305 723T285 773Q285 790 292 806T312 834T341 853T374 860ZM345 677Q384 677 420 665T483 627L410 540Q390 560 358 560Q333 560 319 545T301 506L295 483H394L364 350H266L189 0H35L112 350H32L62 483H141L147 509Q155 543 170 574T210 627T268 663T345 677Z" horiz-adv-x="349" unicode="ḟ"/>
			<glyph d="M153 667H325L270 418H547L602 667H774L627 0H455L514 268H237L178 0H6ZM499 860Q529 860 549 840T569 790Q569 773 561 757T541 729T513 710T480 703Q450 703 430 723T410 773Q410 790 417 806T437 834T466 853T499 860Z" horiz-adv-x="741" unicode="Ḣ"/>
			<glyph d="M150 667H304L249 424Q263 437 279 449T314 472T356 488T406 495Q479 495 520 460T561 370Q561 362 559 350T556 330L484 0H330L389 274Q391 281 392 290T394 306Q394 335 373 347T321 359Q292 359 267 344T225 312L157 0H3ZM427 860Q457 860 477 840T497 790Q497 773 489 757T469 729T441 710T408 703Q378 703 358 723T338 773Q338 790 345 806T365 834T394 853T427 860Z" horiz-adv-x="594" unicode="ḣ"/>
			<glyph d="M153 667H476Q520 667 556 652T618 611T658 550T672 476Q672 439 658 395T612 313T524 249T387 224H227L178 0H6ZM292 517L260 374H396Q438 374 466 397T494 457Q494 485 475 501T425 517ZM465 860Q495 860 515 840T535 790Q535 773 527 757T507 729T479 710T446 703Q416 703 396 723T376 773Q376 790 383 806T403 834T432 853T465 860Z" horiz-adv-x="643" unicode="Ṗ"/>
			<glyph d="M388 495Q470 495 520 443T570 294Q570 242 554 187T505 89T425 16T315 -12Q270 -12 231 5T168 57L115 -184H-39L109 483H263L250 427Q282 463 315 479T388 495ZM317 359Q290 359 266 346T225 314L193 168Q208 148 233 136T289 124Q315 124 337 135T376 165T402 209T411 262Q411 307 383 333T317 359ZM396 693Q426 693 446 673T466 623Q466 606 458 590T438 562T410 543T377 536Q347 536 327 556T307 606Q307 623 314 639T334 667T363 686T396 693Z" unicode="ṗ"/>
			<glyph d="M350 677Q431 677 504 649T629 567L524 447Q504 468 479 484T428 510T375 525T323 530Q294 530 276 516T258 483Q258 465 282 452T342 427T419 399T497 361T557 304T581 223Q581 174 562 131T508 56T422 6T308 -12Q257 -12 209 -3T121 23T46 63T-10 115L95 239Q130 193 191 164T322 136Q364 136 381 153T399 189Q399 208 375 220T315 246T238 274T160 312T101 367T77 449Q77 491 95 532T147 605T233 657T350 677ZM440 860Q470 860 490 840T510 790Q510 773 502 757T482 729T454 710T421 703Q391 703 371 723T351 773Q351 790 358 806T378 834T407 853T440 860Z" horiz-adv-x="606" unicode="Ṡ"/>
			<glyph d="M257 495Q318 495 375 474T472 417L398 322Q389 332 374 342T340 362T300 376T257 382Q230 382 216 371T203 348Q203 335 221 327T265 310T323 292T381 265T426 224T444 162Q444 126 429 94T386 38T317 1T225 -12Q158 -12 94 10T-14 76L67 175Q78 163 97 150T139 125T187 107T239 100Q262 100 276 110T290 135Q290 151 272 160T227 178T170 196T112 222T68 262T50 325Q50 358 63 388T103 442T168 480T257 495ZM340 693Q370 693 390 673T410 623Q410 606 402 590T382 562T354 543T321 536Q291 536 271 556T251 606Q251 623 258 639T278 667T307 686T340 693Z" horiz-adv-x="484" unicode="ṡ"/>
			<glyph d="M115 667H660L627 517H440L327 0H155L268 517H81ZM424 860Q454 860 474 840T494 790Q494 773 486 757T466 729T438 710T405 703Q375 703 355 723T335 773Q335 790 342 806T362 834T391 853T424 860Z" unicode="Ṫ"/>
			<glyph d="M170 615H324L295 483H393L363 350H265L229 186Q226 174 226 164Q226 146 237 135T272 124Q280 124 289 126T302 132L304 9Q290 -2 267 -7T221 -12Q186 -12 156 -5T106 16T73 51T61 102Q61 107 61 117T64 137L111 350H31L61 483H141ZM295 860Q325 860 345 840T365 790Q365 773 357 757T337 729T309 710T276 703Q246 703 226 723T206 773Q206 790 213 806T233 834T262 853T295 860Z" horiz-adv-x="360" unicode="ṫ"/>
			<glyph d="M87 667H276L279 222L491 667H622L638 222L837 667H1035L697 0H515L506 418L313 0H131ZM404 867H540L635 723H531Z" horiz-adv-x="936" unicode="Ẁ"/>
			<glyph d="M47 483H201L212 187L374 483H511L540 187L683 483H846L596 0H430L405 299L249 0H83ZM295 700H431L526 556H422Z" horiz-adv-x="787" unicode="ẁ"/>
			<glyph d="M657 867H795L604 723H498ZM87 667H276L279 222L491 667H622L638 222L837 667H1035L697 0H515L506 418L313 0H131Z" horiz-adv-x="936" unicode="Ẃ"/>
			<glyph d="M548 700H686L495 556H389ZM47 483H201L212 187L374 483H511L540 187L683 483H846L596 0H430L405 299L249 0H83Z" horiz-adv-x="787" unicode="ẃ"/>
			<glyph d="M697 860Q726 860 746 840T766 790Q766 773 758 757T738 729T710 710T677 703Q648 703 628 723T608 773Q608 790 615 806T635 834T664 853T697 860ZM483 860Q513 860 533 840T553 790Q553 773 545 757T525 729T497 710T464 703Q434 703 414 723T394 773Q394 790 401 806T421 834T450 853T483 860ZM87 667H276L279 222L491 667H622L638 222L837 667H1035L697 0H515L506 418L313 0H131Z" horiz-adv-x="936" unicode="Ẅ"/>
			<glyph d="M588 693Q617 693 637 673T657 623Q657 606 649 590T629 562T601 543T568 536Q539 536 519 556T499 606Q499 623 506 639T526 667T555 686T588 693ZM374 693Q404 693 424 673T444 623Q444 606 436 590T416 562T388 543T355 536Q325 536 305 556T285 606Q285 623 292 639T312 667T341 686T374 693ZM47 483H201L212 187L374 483H511L540 187L683 483H846L596 0H430L405 299L249 0H83Z" horiz-adv-x="787" unicode="ẅ"/>
			<glyph d="M333 667H549L654 0H467L455 96H192L139 0H-65ZM412 497L272 246H442ZM281 -45Q311 -45 331 -65T351 -115Q351 -132 343 -148T323 -176T295 -195T262 -202Q232 -202 212 -182T192 -132Q192 -115 199 -99T219 -71T248 -52T281 -45Z" horiz-adv-x="697" unicode="Ạ"/>
			<glyph d="M274 495Q319 495 358 477T421 426L434 483H587L480 0H327L339 56Q308 21 275 4T201 -12Q120 -12 70 39T20 188Q20 240 36 295T84 394T163 466T274 495ZM301 359Q274 359 252 348T213 318T188 273T179 220Q179 176 206 150T273 124Q300 124 323 136T364 169L397 315Q382 335 357 347T301 359ZM218 -45Q248 -45 268 -65T288 -115Q288 -132 280 -148T260 -176T232 -195T199 -202Q169 -202 149 -182T129 -132Q129 -115 136 -99T156 -71T185 -52T218 -45Z" horiz-adv-x="591" unicode="ạ"/>
			<glyph d="M333 667H549L654 0H467L455 96H192L139 0H-65ZM412 497L272 246H442ZM468 820Q481 820 495 816T520 804T538 784T545 756Q545 741 538 725T523 697H459Q486 722 486 748Q486 759 479 765T461 772Q442 772 428 750L382 772Q410 820 468 820Z" horiz-adv-x="697" unicode="Ả"/>
			<glyph d="M274 495Q319 495 358 477T421 426L434 483H587L480 0H327L339 56Q308 21 275 4T201 -12Q120 -12 70 39T20 188Q20 240 36 295T84 394T163 466T274 495ZM301 359Q274 359 252 348T213 318T188 273T179 220Q179 176 206 150T273 124Q300 124 323 136T364 169L397 315Q382 335 357 347T301 359ZM371 651Q384 651 398 647T423 635T441 615T448 587Q448 572 441 556T426 528H362Q389 553 389 579Q389 590 382 596T364 603Q345 603 331 581L285 603Q313 651 371 651Z" horiz-adv-x="591" unicode="ả"/>
			<glyph d="M404 790H539L600 682H510L459 743L375 682H282ZM333 667H549L654 0H467L455 96H192L139 0H-65ZM412 497L272 246H442ZM736 843H874L683 735H577Z" horiz-adv-x="697" unicode="Ấ"/>
			<glyph d="M274 495Q319 495 358 477T421 426L434 483H587L480 0H327L339 56Q308 21 275 4T201 -12Q120 -12 70 39T20 188Q20 240 36 295T84 394T163 466T274 495ZM301 359Q274 359 252 348T213 318T188 273T179 220Q179 176 206 150T273 124Q300 124 323 136T364 169L397 315Q382 335 357 347T301 359ZM323 700H458L519 556H429L378 637L294 556H201ZM653 770H791L600 626H494Z" horiz-adv-x="591" unicode="ấ"/>
			<glyph d="M405 790H540L601 682H511L460 743L376 682H283ZM333 667H549L654 0H467L455 96H192L139 0H-65ZM412 497L272 246H442ZM104 843H240L335 735H231Z" horiz-adv-x="697" unicode="Ầ"/>
			<glyph d="M274 495Q319 495 358 477T421 426L434 483H587L480 0H327L339 56Q308 21 275 4T201 -12Q120 -12 70 39T20 188Q20 240 36 295T84 394T163 466T274 495ZM301 359Q274 359 252 348T213 318T188 273T179 220Q179 176 206 150T273 124Q300 124 323 136T364 169L397 315Q382 335 357 347T301 359ZM323 700H458L519 556H429L378 637L294 556H201ZM24 770H160L255 626H151Z" horiz-adv-x="591" unicode="ầ"/>
			<glyph d="M405 790H540L601 682H511L460 743L376 682H283ZM333 667H549L654 0H467L455 96H192L139 0H-65ZM412 497L272 246H442ZM594 849Q607 849 621 846T646 837T664 822T671 801Q671 789 664 777T649 756H585Q612 775 612 795Q612 803 605 808T587 813Q568 813 554 796L508 813Q536 849 594 849Z" horiz-adv-x="697" unicode="Ẩ"/>
			<glyph d="M274 495Q319 495 358 477T421 426L434 483H587L480 0H327L339 56Q308 21 275 4T201 -12Q120 -12 70 39T20 188Q20 240 36 295T84 394T163 466T274 495ZM301 359Q274 359 252 348T213 318T188 273T179 220Q179 176 206 150T273 124Q300 124 323 136T364 169L397 315Q382 335 357 347T301 359ZM323 700H458L519 556H429L378 637L294 556H201ZM499 790Q512 790 526 786T551 774T569 754T576 726Q576 711 569 695T554 667H490Q517 692 517 718Q517 729 510 735T492 742Q473 742 459 720L413 742Q441 790 499 790Z" horiz-adv-x="591" unicode="ẩ"/>
			<glyph d="M404 751H539L600 679H510L459 720L375 679H282ZM333 667H549L654 0H467L455 96H192L139 0H-65ZM412 497L272 246H442ZM418 828Q444 828 460 824T489 814T513 805T540 801Q565 801 577 825H656Q642 792 614 775T531 758Q505 758 488 762T459 772T436 781T409 786Q383 786 373 761H294Q307 795 334 811T418 828Z" horiz-adv-x="697" unicode="Ẫ"/>
			<glyph d="M274 495Q319 495 358 477T421 426L434 483H587L480 0H327L339 56Q308 21 275 4T201 -12Q120 -12 70 39T20 188Q20 240 36 295T84 394T163 466T274 495ZM301 359Q274 359 252 348T213 318T188 273T179 220Q179 176 206 150T273 124Q300 124 323 136T364 169L397 315Q382 335 357 347T301 359ZM315 668H450L511 524H421L370 605L286 524H193ZM346 822Q372 822 388 813T417 794T441 775T468 767Q493 767 505 816H584Q570 750 542 716T459 682Q433 682 416 690T387 709T364 728T337 737Q311 737 301 688H222Q235 755 262 788T346 822Z" horiz-adv-x="591" unicode="ẫ"/>
			<glyph d="M333 667H549L654 0H467L455 96H192L139 0H-65ZM412 497L272 246H442ZM418 867H553L614 723H524L473 804L389 723H296ZM277 -45Q307 -45 327 -65T347 -115Q347 -132 339 -148T319 -176T291 -195T258 -202Q228 -202 208 -182T188 -132Q188 -115 195 -99T215 -71T244 -52T277 -45Z" horiz-adv-x="697" unicode="Ậ"/>
			<glyph d="M274 495Q319 495 358 477T421 426L434 483H587L480 0H327L339 56Q308 21 275 4T201 -12Q120 -12 70 39T20 188Q20 240 36 295T84 394T163 466T274 495ZM301 359Q274 359 252 348T213 318T188 273T179 220Q179 176 206 150T273 124Q300 124 323 136T364 169L397 315Q382 335 357 347T301 359ZM323 700H458L519 556H429L378 637L294 556H201ZM218 -45Q248 -45 268 -65T288 -115Q288 -132 280 -148T260 -176T232 -195T199 -202Q169 -202 149 -182T129 -132Q129 -115 136 -99T156 -71T185 -52T218 -45Z" horiz-adv-x="591" unicode="ậ"/>
			<glyph d="M333 667H549L654 0H467L455 96H192L139 0H-65ZM412 497L272 246H442ZM540 830H678L487 751H381ZM352 763Q365 747 389 738T449 729Q483 729 514 737T571 763L628 731Q589 707 538 693T434 679Q380 679 339 693T277 731Z" horiz-adv-x="697" unicode="Ắ"/>
			<glyph d="M274 495Q319 495 358 477T421 426L434 483H587L480 0H327L339 56Q308 21 275 4T201 -12Q120 -12 70 39T20 188Q20 240 36 295T84 394T163 466T274 495ZM301 359Q274 359 252 348T213 318T188 273T179 220Q179 176 206 150T273 124Q300 124 323 136T364 169L397 315Q382 335 357 347T301 359ZM460 784H598L407 640H301ZM266 656Q279 630 303 614T363 598Q397 598 428 613T485 656L542 602Q503 561 452 537T348 514Q294 514 253 537T191 602Z" horiz-adv-x="591" unicode="ắ"/>
			<glyph d="M333 667H549L654 0H467L455 96H192L139 0H-65ZM412 497L272 246H442ZM312 832H448L543 753H439ZM361 763Q374 747 398 738T458 729Q492 729 523 737T580 763L637 731Q598 707 547 693T443 679Q389 679 348 693T286 731Z" horiz-adv-x="697" unicode="Ằ"/>
			<glyph d="M274 495Q319 495 358 477T421 426L434 483H587L480 0H327L339 56Q308 21 275 4T201 -12Q120 -12 70 39T20 188Q20 240 36 295T84 394T163 466T274 495ZM301 359Q274 359 252 348T213 318T188 273T179 220Q179 176 206 150T273 124Q300 124 323 136T364 169L397 315Q382 335 357 347T301 359ZM217 787H353L448 643H344ZM266 658Q279 632 303 616T363 600Q397 600 428 615T485 658L542 604Q503 563 452 539T348 516Q294 516 253 539T191 604Z" horiz-adv-x="591" unicode="ằ"/>
			<glyph d="M333 667H549L654 0H467L455 96H192L139 0H-65ZM412 497L272 246H442ZM477 818Q490 818 504 816T529 810T547 799T554 784Q554 776 547 767T532 752H468Q495 765 495 779Q495 785 488 788T470 792Q451 792 437 780L391 792Q419 818 477 818ZM360 763Q373 747 397 738T457 729Q491 729 522 737T579 763L636 731Q597 707 546 693T442 679Q388 679 347 693T285 731Z" horiz-adv-x="697" unicode="Ẳ"/>
			<glyph d="M274 495Q319 495 358 477T421 426L434 483H587L480 0H327L339 56Q308 21 275 4T201 -12Q120 -12 70 39T20 188Q20 240 36 295T84 394T163 466T274 495ZM301 359Q274 359 252 348T213 318T188 273T179 220Q179 176 206 150T273 124Q300 124 323 136T364 169L397 315Q382 335 357 347T301 359ZM388 777Q401 777 415 773T440 761T458 741T465 713Q465 698 458 682T443 654H379Q406 679 406 705Q406 716 399 722T381 729Q362 729 348 707L302 729Q330 777 388 777ZM266 658Q279 632 303 616T363 600Q397 600 428 615T485 658L542 604Q503 563 452 539T348 516Q294 516 253 539T191 604Z" horiz-adv-x="591" unicode="ẳ"/>
			<glyph d="M333 667H549L654 0H467L455 96H192L139 0H-65ZM412 497L272 246H442ZM357 755Q370 741 394 732T454 724Q488 724 519 732T576 755L633 726Q594 705 543 692T439 680Q385 680 344 692T282 726ZM417 831Q443 831 459 827T488 817T512 808T539 804Q564 804 576 828H655Q641 795 613 778T530 761Q504 761 487 765T458 775T435 784T408 789Q382 789 372 764H293Q306 798 333 814T417 831Z" horiz-adv-x="697" unicode="Ẵ"/>
			<glyph d="M274 495Q319 495 358 477T421 426L434 483H587L480 0H327L339 56Q308 21 275 4T201 -12Q120 -12 70 39T20 188Q20 240 36 295T84 394T163 466T274 495ZM301 359Q274 359 252 348T213 318T188 273T179 220Q179 176 206 150T273 124Q300 124 323 136T364 169L397 315Q382 335 357 347T301 359ZM266 658Q279 632 303 616T363 600Q397 600 428 615T485 658L542 604Q503 563 452 539T348 516Q294 516 253 539T191 604ZM345 817Q371 817 387 808T416 789T440 770T467 762Q492 762 504 811H583Q569 745 541 711T458 677Q432 677 415 685T386 704T363 723T336 732Q310 732 300 683H221Q234 750 261 783T345 817Z" horiz-adv-x="591" unicode="ẵ"/>
			<glyph d="M333 667H549L654 0H467L455 96H192L139 0H-65ZM412 497L272 246H442ZM281 -45Q311 -45 331 -65T351 -115Q351 -132 343 -148T323 -176T295 -195T262 -202Q232 -202 212 -182T192 -132Q192 -115 199 -99T219 -71T248 -52T281 -45ZM362 837Q375 811 399 795T459 779Q493 779 524 794T581 837L638 783Q599 742 548 718T444 695Q390 695 349 718T287 783Z" horiz-adv-x="697" unicode="Ặ"/>
			<glyph d="M274 495Q319 495 358 477T421 426L434 483H587L480 0H327L339 56Q308 21 275 4T201 -12Q120 -12 70 39T20 188Q20 240 36 295T84 394T163 466T274 495ZM301 359Q274 359 252 348T213 318T188 273T179 220Q179 176 206 150T273 124Q300 124 323 136T364 169L397 315Q382 335 357 347T301 359ZM218 -45Q248 -45 268 -65T288 -115Q288 -132 280 -148T260 -176T232 -195T199 -202Q169 -202 149 -182T129 -132Q129 -115 136 -99T156 -71T185 -52T218 -45ZM269 670Q282 644 306 628T366 612Q400 612 431 627T488 670L545 616Q506 575 455 551T351 528Q297 528 256 551T194 616Z" horiz-adv-x="591" unicode="ặ"/>
			<glyph d="M153 667H642L608 517H292L269 413H579L546 263H236L211 150H528L495 0H6ZM231 -45Q261 -45 281 -65T301 -115Q301 -132 293 -148T273 -176T245 -195T212 -202Q182 -202 162 -182T142 -132Q142 -115 149 -99T169 -71T198 -52T231 -45Z" unicode="Ẹ"/>
			<glyph d="M304 495Q350 495 390 481T461 439T508 370T526 277Q526 254 522 230T516 193H174V187Q174 178 181 164T202 138T238 116T290 107Q320 107 351 115T403 137L450 35Q415 11 369 0T278 -12Q220 -12 172 2T91 45T39 114T21 207Q21 265 42 317T100 409T190 472T304 495ZM297 376Q275 376 256 368T224 348T201 321T189 293H389Q390 294 390 296Q390 299 390 300Q390 312 385 325T368 349T339 368T297 376ZM215 -45Q245 -45 265 -65T285 -115Q285 -132 277 -148T257 -176T229 -195T196 -202Q166 -202 146 -182T126 -132Q126 -115 133 -99T153 -71T182 -52T215 -45Z" horiz-adv-x="548" unicode="ẹ"/>
			<glyph d="M153 667H642L608 517H292L269 413H579L546 263H236L211 150H528L495 0H6ZM422 820Q435 820 449 816T474 804T492 784T499 756Q499 741 492 725T477 697H413Q440 722 440 748Q440 759 433 765T415 772Q396 772 382 750L336 772Q364 820 422 820Z" unicode="Ẻ"/>
			<glyph d="M304 495Q350 495 390 481T461 439T508 370T526 277Q526 254 522 230T516 193H174V187Q174 178 181 164T202 138T238 116T290 107Q320 107 351 115T403 137L450 35Q415 11 369 0T278 -12Q220 -12 172 2T91 45T39 114T21 207Q21 265 42 317T100 409T190 472T304 495ZM297 376Q275 376 256 368T224 348T201 321T189 293H389Q390 294 390 296Q390 299 390 300Q390 312 385 325T368 349T339 368T297 376ZM369 651Q382 651 396 647T421 635T439 615T446 587Q446 572 439 556T424 528H360Q387 553 387 579Q387 590 380 596T362 603Q343 603 329 581L283 603Q311 651 369 651Z" horiz-adv-x="548" unicode="ẻ"/>
			<glyph d="M153 667H642L608 517H292L269 413H579L546 263H236L211 150H528L495 0H6ZM369 861Q395 861 411 852T440 833T464 814T491 806Q516 806 528 855H607Q593 789 565 755T482 721Q456 721 439 729T410 748T387 767T360 776Q334 776 324 727H245Q258 794 285 827T369 861Z" unicode="Ẽ"/>
			<glyph d="M304 495Q350 495 390 481T461 439T508 370T526 277Q526 254 522 230T516 193H174V187Q174 178 181 164T202 138T238 116T290 107Q320 107 351 115T403 137L450 35Q415 11 369 0T278 -12Q220 -12 172 2T91 45T39 114T21 207Q21 265 42 317T100 409T190 472T304 495ZM297 376Q275 376 256 368T224 348T201 321T189 293H389Q390 294 390 296Q390 299 390 300Q390 312 385 325T368 349T339 368T297 376ZM316 694Q342 694 358 685T387 666T411 647T438 639Q463 639 475 688H554Q540 622 512 588T429 554Q403 554 386 562T357 581T334 600T307 609Q281 609 271 560H192Q205 627 232 660T316 694Z" horiz-adv-x="548" unicode="ẽ"/>
			<glyph d="M360 790H495L556 682H466L415 743L331 682H238ZM691 843H829L638 735H532ZM153 667H642L608 517H292L269 413H579L546 263H236L211 150H528L495 0H6Z" unicode="Ế"/>
			<glyph d="M319 700H454L515 556H425L374 637L290 556H197ZM649 770H787L596 626H490ZM304 495Q350 495 390 481T461 439T508 370T526 277Q526 254 522 230T516 193H174V187Q174 178 181 164T202 138T238 116T290 107Q320 107 351 115T403 137L450 35Q415 11 369 0T278 -12Q220 -12 172 2T91 45T39 114T21 207Q21 265 42 317T100 409T190 472T304 495ZM297 376Q275 376 256 368T224 348T201 321T189 293H389Q390 294 390 296Q390 299 390 300Q390 312 385 325T368 349T339 368T297 376Z" horiz-adv-x="548" unicode="ế"/>
			<glyph d="M360 790H495L556 682H466L415 743L331 682H238ZM153 667H642L608 517H292L269 413H579L546 263H236L211 150H528L495 0H6ZM59 843H195L290 735H186Z" unicode="Ề"/>
			<glyph d="M320 700H455L516 556H426L375 637L291 556H198ZM304 495Q350 495 390 481T461 439T508 370T526 277Q526 254 522 230T516 193H174V187Q174 178 181 164T202 138T238 116T290 107Q320 107 351 115T403 137L450 35Q415 11 369 0T278 -12Q220 -12 172 2T91 45T39 114T21 207Q21 265 42 317T100 409T190 472T304 495ZM297 376Q275 376 256 368T224 348T201 321T189 293H389Q390 294 390 296Q390 299 390 300Q390 312 385 325T368 349T339 368T297 376ZM22 770H158L253 626H149Z" horiz-adv-x="548" unicode="ề"/>
			<glyph d="M359 790H494L555 682H465L414 743L330 682H237ZM153 667H642L608 517H292L269 413H579L546 263H236L211 150H528L495 0H6ZM547 849Q560 849 574 846T599 837T617 822T624 801Q624 789 617 777T602 756H538Q565 775 565 795Q565 803 558 808T540 813Q521 813 507 796L461 813Q489 849 547 849Z" unicode="Ể"/>
			<glyph d="M320 700H455L516 556H426L375 637L291 556H198ZM304 495Q350 495 390 481T461 439T508 370T526 277Q526 254 522 230T516 193H174V187Q174 178 181 164T202 138T238 116T290 107Q320 107 351 115T403 137L450 35Q415 11 369 0T278 -12Q220 -12 172 2T91 45T39 114T21 207Q21 265 42 317T100 409T190 472T304 495ZM297 376Q275 376 256 368T224 348T201 321T189 293H389Q390 294 390 296Q390 299 390 300Q390 312 385 325T368 349T339 368T297 376ZM497 790Q510 790 524 786T549 774T567 754T574 726Q574 711 567 695T552 667H488Q515 692 515 718Q515 729 508 735T490 742Q471 742 457 720L411 742Q439 790 497 790Z" horiz-adv-x="548" unicode="ể"/>
			<glyph d="M358 750H493L554 678H464L413 719L329 678H236ZM153 667H642L608 517H292L269 413H579L546 263H236L211 150H528L495 0H6ZM369 827Q395 827 411 823T440 813T464 804T491 800Q516 800 528 824H607Q593 791 565 774T482 757Q456 757 439 761T410 771T387 780T360 785Q334 785 324 760H245Q258 794 285 810T369 827Z" unicode="Ễ"/>
			<glyph d="M314 668H449L510 524H420L369 605L285 524H192ZM304 495Q350 495 390 481T461 439T508 370T526 277Q526 254 522 230T516 193H174V187Q174 178 181 164T202 138T238 116T290 107Q320 107 351 115T403 137L450 35Q415 11 369 0T278 -12Q220 -12 172 2T91 45T39 114T21 207Q21 265 42 317T100 409T190 472T304 495ZM297 376Q275 376 256 368T224 348T201 321T189 293H389Q390 294 390 296Q390 299 390 300Q390 312 385 325T368 349T339 368T297 376ZM344 822Q370 822 386 813T415 794T439 775T466 767Q491 767 503 816H582Q568 750 540 716T457 682Q431 682 414 690T385 709T362 728T335 737Q309 737 299 688H220Q233 755 260 788T344 822Z" horiz-adv-x="548" unicode="ễ"/>
			<glyph d="M372 867H507L568 723H478L427 804L343 723H250ZM153 667H642L608 517H292L269 413H579L546 263H236L211 150H528L495 0H6ZM231 -45Q261 -45 281 -65T301 -115Q301 -132 293 -148T273 -176T245 -195T212 -202Q182 -202 162 -182T142 -132Q142 -115 149 -99T169 -71T198 -52T231 -45Z" unicode="Ệ"/>
			<glyph d="M320 700H455L516 556H426L375 637L291 556H198ZM304 495Q350 495 390 481T461 439T508 370T526 277Q526 254 522 230T516 193H174V187Q174 178 181 164T202 138T238 116T290 107Q320 107 351 115T403 137L450 35Q415 11 369 0T278 -12Q220 -12 172 2T91 45T39 114T21 207Q21 265 42 317T100 409T190 472T304 495ZM297 376Q275 376 256 368T224 348T201 321T189 293H389Q390 294 390 296Q390 299 390 300Q390 312 385 325T368 349T339 368T297 376ZM215 -45Q245 -45 265 -65T285 -115Q285 -132 277 -148T257 -176T229 -195T196 -202Q166 -202 146 -182T126 -132Q126 -115 133 -99T153 -71T182 -52T215 -45Z" horiz-adv-x="548" unicode="ệ"/>
			<glyph d="M153 667H325L178 0H6ZM264 820Q277 820 291 816T316 804T334 784T341 756Q341 741 334 725T319 697H255Q282 722 282 748Q282 759 275 765T257 772Q238 772 224 750L178 772Q206 820 264 820Z" horiz-adv-x="292" unicode="Ỉ"/>
			<glyph d="M109 483H263L156 0H2ZM215 651Q228 651 242 647T267 635T285 615T292 587Q292 572 285 556T270 528H206Q233 553 233 579Q233 590 226 596T208 603Q189 603 175 581L129 603Q157 651 215 651Z" horiz-adv-x="266" unicode="ỉ"/>
			<glyph d="M153 667H325L178 0H6ZM74 -45Q104 -45 124 -65T144 -115Q144 -132 136 -148T116 -176T88 -195T55 -202Q25 -202 5 -182T-15 -132Q-15 -115 -7 -99T12 -71T41 -52T74 -45Z" horiz-adv-x="292" unicode="Ị"/>
			<glyph d="M225 703Q260 703 282 681T304 628Q304 604 294 585T271 553T239 533T205 526Q170 526 147 548T125 602Q125 626 134 645T158 677T190 696T225 703ZM109 483H263L156 0H2ZM62 -45Q92 -45 112 -65T132 -115Q132 -132 124 -148T104 -176T76 -195T43 -202Q13 -202 -7 -182T-27 -132Q-27 -115 -19 -99T0 -71T29 -52T62 -45Z" horiz-adv-x="266" unicode="ị"/>
			<glyph d="M430 678Q502 678 563 656T670 595T742 500T768 377Q768 296 738 225T655 101T531 18T374 -12Q302 -12 240 9T133 71T62 166T36 291Q36 372 66 442T148 565T273 648T430 678ZM420 526Q376 526 338 508T273 460T230 389T215 302Q215 266 227 236T262 184T316 151T384 140Q428 140 465 157T530 205T573 277T589 364Q589 400 576 430T541 481T488 514T420 526ZM310 -45Q340 -45 360 -65T380 -115Q380 -132 372 -148T352 -176T324 -195T291 -202Q261 -202 241 -182T221 -132Q221 -115 228 -99T248 -71T277 -52T310 -45Z" horiz-adv-x="766" unicode="Ọ"/>
			<glyph d="M304 495Q365 495 411 478T489 431T537 360T553 272Q553 216 532 164T473 74T384 11T269 -12Q208 -12 161 5T83 52T36 122T20 210Q20 266 41 317T99 408T189 471T304 495ZM299 359Q272 359 249 347T211 315T186 270T178 218Q178 173 204 148T275 124Q302 124 324 136T362 167T387 212T396 265Q396 310 370 334T299 359ZM216 -45Q246 -45 266 -65T286 -115Q286 -132 278 -148T258 -176T230 -195T197 -202Q167 -202 147 -182T127 -132Q127 -115 134 -99T154 -71T183 -52T216 -45Z" horiz-adv-x="576" unicode="ọ"/>
			<glyph d="M430 678Q502 678 563 656T670 595T742 500T768 377Q768 296 738 225T655 101T531 18T374 -12Q302 -12 240 9T133 71T62 166T36 291Q36 372 66 442T148 565T273 648T430 678ZM420 526Q376 526 338 508T273 460T230 389T215 302Q215 266 227 236T262 184T316 151T384 140Q428 140 465 157T530 205T573 277T589 364Q589 400 576 430T541 481T488 514T420 526ZM502 820Q515 820 529 816T554 804T572 784T579 756Q579 741 572 725T557 697H493Q520 722 520 748Q520 759 513 765T495 772Q476 772 462 750L416 772Q444 820 502 820Z" horiz-adv-x="766" unicode="Ỏ"/>
			<glyph d="M304 495Q365 495 411 478T489 431T537 360T553 272Q553 216 532 164T473 74T384 11T269 -12Q208 -12 161 5T83 52T36 122T20 210Q20 266 41 317T99 408T189 471T304 495ZM299 359Q272 359 249 347T211 315T186 270T178 218Q178 173 204 148T275 124Q302 124 324 136T362 167T387 212T396 265Q396 310 370 334T299 359ZM369 651Q382 651 396 647T421 635T439 615T446 587Q446 572 439 556T424 528H360Q387 553 387 579Q387 590 380 596T362 603Q343 603 329 581L283 603Q311 651 369 651Z" horiz-adv-x="576" unicode="ỏ"/>
			<glyph d="M438 790H573L634 682H544L493 743L409 682H316ZM770 843H908L717 735H611ZM430 678Q502 678 563 656T670 595T742 500T768 377Q768 296 738 225T655 101T531 18T374 -12Q302 -12 240 9T133 71T62 166T36 291Q36 372 66 442T148 565T273 648T430 678ZM420 526Q376 526 338 508T273 460T230 389T215 302Q215 266 227 236T262 184T316 151T384 140Q428 140 465 157T530 205T573 277T589 364Q589 400 576 430T541 481T488 514T420 526Z" horiz-adv-x="766" unicode="Ố"/>
			<glyph d="M320 700H455L516 556H426L375 637L291 556H198ZM650 770H788L597 626H491ZM304 495Q365 495 411 478T489 431T537 360T553 272Q553 216 532 164T473 74T384 11T269 -12Q208 -12 161 5T83 52T36 122T20 210Q20 266 41 317T99 408T189 471T304 495ZM299 359Q272 359 249 347T211 315T186 270T178 218Q178 173 204 148T275 124Q302 124 324 136T362 167T387 212T396 265Q396 310 370 334T299 359Z" horiz-adv-x="576" unicode="ố"/>
			<glyph d="M438 790H573L634 682H544L493 743L409 682H316ZM430 678Q502 678 563 656T670 595T742 500T768 377Q768 296 738 225T655 101T531 18T374 -12Q302 -12 240 9T133 71T62 166T36 291Q36 372 66 442T148 565T273 648T430 678ZM420 526Q376 526 338 508T273 460T230 389T215 302Q215 266 227 236T262 184T316 151T384 140Q428 140 465 157T530 205T573 277T589 364Q589 400 576 430T541 481T488 514T420 526ZM137 843H273L368 735H264Z" horiz-adv-x="766" unicode="Ồ"/>
			<glyph d="M320 700H455L516 556H426L375 637L291 556H198ZM304 495Q365 495 411 478T489 431T537 360T553 272Q553 216 532 164T473 74T384 11T269 -12Q208 -12 161 5T83 52T36 122T20 210Q20 266 41 317T99 408T189 471T304 495ZM299 359Q272 359 249 347T211 315T186 270T178 218Q178 173 204 148T275 124Q302 124 324 136T362 167T387 212T396 265Q396 310 370 334T299 359ZM22 770H158L253 626H149Z" horiz-adv-x="576" unicode="ồ"/>
			<glyph d="M438 790H573L634 682H544L493 743L409 682H316ZM430 678Q502 678 563 656T670 595T742 500T768 377Q768 296 738 225T655 101T531 18T374 -12Q302 -12 240 9T133 71T62 166T36 291Q36 372 66 442T148 565T273 648T430 678ZM420 526Q376 526 338 508T273 460T230 389T215 302Q215 266 227 236T262 184T316 151T384 140Q428 140 465 157T530 205T573 277T589 364Q589 400 576 430T541 481T488 514T420 526ZM627 849Q640 849 654 846T679 837T697 822T704 801Q704 789 697 777T682 756H618Q645 775 645 795Q645 803 638 808T620 813Q601 813 587 796L541 813Q569 849 627 849Z" horiz-adv-x="766" unicode="Ổ"/>
			<glyph d="M320 700H455L516 556H426L375 637L291 556H198ZM304 495Q365 495 411 478T489 431T537 360T553 272Q553 216 532 164T473 74T384 11T269 -12Q208 -12 161 5T83 52T36 122T20 210Q20 266 41 317T99 408T189 471T304 495ZM299 359Q272 359 249 347T211 315T186 270T178 218Q178 173 204 148T275 124Q302 124 324 136T362 167T387 212T396 265Q396 310 370 334T299 359ZM496 790Q509 790 523 786T548 774T566 754T573 726Q573 711 566 695T551 667H487Q514 692 514 718Q514 729 507 735T489 742Q470 742 456 720L410 742Q438 790 496 790Z" horiz-adv-x="576" unicode="ổ"/>
			<glyph d="M431 750H566L627 678H537L486 719L402 678H309ZM430 678Q502 678 563 656T670 595T742 500T768 377Q768 296 738 225T655 101T531 18T374 -12Q302 -12 240 9T133 71T62 166T36 291Q36 372 66 442T148 565T273 648T430 678ZM420 526Q376 526 338 508T273 460T230 389T215 302Q215 266 227 236T262 184T316 151T384 140Q428 140 465 157T530 205T573 277T589 364Q589 400 576 430T541 481T488 514T420 526ZM445 827Q471 827 487 823T516 813T540 804T567 800Q592 800 604 824H683Q669 791 641 774T558 757Q532 757 515 761T486 771T463 780T436 785Q410 785 400 760H321Q334 794 361 810T445 827Z" horiz-adv-x="766" unicode="Ỗ"/>
			<glyph d="M314 668H449L510 524H420L369 605L285 524H192ZM304 495Q365 495 411 478T489 431T537 360T553 272Q553 216 532 164T473 74T384 11T269 -12Q208 -12 161 5T83 52T36 122T20 210Q20 266 41 317T99 408T189 471T304 495ZM299 359Q272 359 249 347T211 315T186 270T178 218Q178 173 204 148T275 124Q302 124 324 136T362 167T387 212T396 265Q396 310 370 334T299 359ZM344 822Q370 822 386 813T415 794T439 775T466 767Q491 767 503 816H582Q568 750 540 716T457 682Q431 682 414 690T385 709T362 728T335 737Q309 737 299 688H220Q233 755 260 788T344 822Z" horiz-adv-x="576" unicode="ỗ"/>
			<glyph d="M451 867H586L647 723H557L506 804L422 723H329ZM430 678Q502 678 563 656T670 595T742 500T768 377Q768 296 738 225T655 101T531 18T374 -12Q302 -12 240 9T133 71T62 166T36 291Q36 372 66 442T148 565T273 648T430 678ZM420 526Q376 526 338 508T273 460T230 389T215 302Q215 266 227 236T262 184T316 151T384 140Q428 140 465 157T530 205T573 277T589 364Q589 400 576 430T541 481T488 514T420 526ZM311 -45Q341 -45 361 -65T381 -115Q381 -132 373 -148T353 -176T325 -195T292 -202Q262 -202 242 -182T222 -132Q222 -115 229 -99T249 -71T278 -52T311 -45Z" horiz-adv-x="766" unicode="Ộ"/>
			<glyph d="M320 700H455L516 556H426L375 637L291 556H198ZM304 495Q365 495 411 478T489 431T537 360T553 272Q553 216 532 164T473 74T384 11T269 -12Q208 -12 161 5T83 52T36 122T20 210Q20 266 41 317T99 408T189 471T304 495ZM299 359Q272 359 249 347T211 315T186 270T178 218Q178 173 204 148T275 124Q302 124 324 136T362 167T387 212T396 265Q396 310 370 334T299 359ZM216 -45Q246 -45 266 -65T286 -115Q286 -132 278 -148T258 -176T230 -195T197 -202Q167 -202 147 -182T127 -132Q127 -115 134 -99T154 -71T183 -52T216 -45Z" horiz-adv-x="576" unicode="ộ"/>
			<glyph d="M578 867H716L525 723H419ZM767 746Q791 746 809 729T828 682Q828 640 798 599T723 534Q768 466 768 377Q768 296 738 225T655 101T531 18T374 -12Q302 -12 240 9T133 71T62 166T36 291Q36 372 66 442T148 565T273 648T430 678Q511 678 579 650T693 573Q710 582 728 596T754 628Q752 627 750 627Q748 627 746 627Q726 627 712 640T698 678Q698 692 704 704T719 726T741 740T767 746ZM420 526Q376 526 338 508T273 460T230 389T215 302Q215 266 227 236T262 184T316 151T384 140Q428 140 465 157T530 205T573 277T589 364Q589 400 576 430T541 481T488 514T420 526Z" horiz-adv-x="766" unicode="Ớ"/>
			<glyph d="M446 700H584L393 556H287ZM552 612Q576 612 594 596T613 549Q613 507 585 467T513 404Q553 347 553 272Q553 216 532 164T473 74T384 11T269 -12Q208 -12 161 5T83 52T36 122T20 210Q20 266 41 317T99 408T189 471T304 495Q360 495 403 481T478 441Q495 450 512 464T538 495Q537 494 535 494Q533 494 531 494Q511 494 497 506T483 545Q483 573 504 592T552 612ZM299 359Q272 359 249 347T211 315T186 270T178 218Q178 173 204 148T275 124Q302 124 324 136T362 167T387 212T396 265Q396 310 370 334T299 359Z" horiz-adv-x="576" unicode="ớ"/>
			<glyph d="M767 746Q791 746 809 729T828 682Q828 640 798 599T723 534Q768 466 768 377Q768 296 738 225T655 101T531 18T374 -12Q302 -12 240 9T133 71T62 166T36 291Q36 372 66 442T148 565T273 648T430 678Q511 678 579 650T693 573Q710 582 728 596T754 628Q752 627 750 627Q748 627 746 627Q726 627 712 640T698 678Q698 692 704 704T719 726T741 740T767 746ZM420 526Q376 526 338 508T273 460T230 389T215 302Q215 266 227 236T262 184T316 151T384 140Q428 140 465 157T530 205T573 277T589 364Q589 400 576 430T541 481T488 514T420 526ZM325 867H461L556 723H452Z" horiz-adv-x="766" unicode="Ờ"/>
			<glyph d="M552 612Q576 612 594 596T613 549Q613 507 585 467T513 404Q553 347 553 272Q553 216 532 164T473 74T384 11T269 -12Q208 -12 161 5T83 52T36 122T20 210Q20 266 41 317T99 408T189 471T304 495Q360 495 403 481T478 441Q495 450 512 464T538 495Q537 494 535 494Q533 494 531 494Q511 494 497 506T483 545Q483 573 504 592T552 612ZM299 359Q272 359 249 347T211 315T186 270T178 218Q178 173 204 148T275 124Q302 124 324 136T362 167T387 212T396 265Q396 310 370 334T299 359ZM195 700H331L426 556H322Z" horiz-adv-x="576" unicode="ờ"/>
			<glyph d="M767 746Q791 746 809 729T828 682Q828 640 798 599T723 534Q768 466 768 377Q768 296 738 225T655 101T531 18T374 -12Q302 -12 240 9T133 71T62 166T36 291Q36 372 66 442T148 565T273 648T430 678Q511 678 579 650T693 573Q710 582 728 596T754 628Q752 627 750 627Q748 627 746 627Q726 627 712 640T698 678Q698 692 704 704T719 726T741 740T767 746ZM420 526Q376 526 338 508T273 460T230 389T215 302Q215 266 227 236T262 184T316 151T384 140Q428 140 465 157T530 205T573 277T589 364Q589 400 576 430T541 481T488 514T420 526ZM502 820Q515 820 529 816T554 804T572 784T579 756Q579 741 572 725T557 697H493Q520 722 520 748Q520 759 513 765T495 772Q476 772 462 750L416 772Q444 820 502 820Z" horiz-adv-x="766" unicode="Ở"/>
			<glyph d="M552 612Q576 612 594 596T613 549Q613 507 585 467T513 404Q553 347 553 272Q553 216 532 164T473 74T384 11T269 -12Q208 -12 161 5T83 52T36 122T20 210Q20 266 41 317T99 408T189 471T304 495Q360 495 403 481T478 441Q495 450 512 464T538 495Q537 494 535 494Q533 494 531 494Q511 494 497 506T483 545Q483 573 504 592T552 612ZM299 359Q272 359 249 347T211 315T186 270T178 218Q178 173 204 148T275 124Q302 124 324 136T362 167T387 212T396 265Q396 310 370 334T299 359ZM369 651Q382 651 396 647T421 635T439 615T446 587Q446 572 439 556T424 528H360Q387 553 387 579Q387 590 380 596T362 603Q343 603 329 581L283 603Q311 651 369 651Z" horiz-adv-x="576" unicode="ở"/>
			<glyph d="M767 746Q791 746 809 729T828 682Q828 640 798 599T723 534Q768 466 768 377Q768 296 738 225T655 101T531 18T374 -12Q302 -12 240 9T133 71T62 166T36 291Q36 372 66 442T148 565T273 648T430 678Q511 678 579 650T693 573Q710 582 728 596T754 628Q752 627 750 627Q748 627 746 627Q726 627 712 640T698 678Q698 692 704 704T719 726T741 740T767 746ZM420 526Q376 526 338 508T273 460T230 389T215 302Q215 266 227 236T262 184T316 151T384 140Q428 140 465 157T530 205T573 277T589 364Q589 400 576 430T541 481T488 514T420 526ZM448 861Q474 861 490 852T519 833T543 814T570 806Q595 806 607 855H686Q672 789 644 755T561 721Q535 721 518 729T489 748T466 767T439 776Q413 776 403 727H324Q337 794 364 827T448 861Z" horiz-adv-x="766" unicode="Ỡ"/>
			<glyph d="M552 612Q576 612 594 596T613 549Q613 507 585 467T513 404Q553 347 553 272Q553 216 532 164T473 74T384 11T269 -12Q208 -12 161 5T83 52T36 122T20 210Q20 266 41 317T99 408T189 471T304 495Q360 495 403 481T478 441Q495 450 512 464T538 495Q537 494 535 494Q533 494 531 494Q511 494 497 506T483 545Q483 573 504 592T552 612ZM299 359Q272 359 249 347T211 315T186 270T178 218Q178 173 204 148T275 124Q302 124 324 136T362 167T387 212T396 265Q396 310 370 334T299 359ZM281 694Q307 694 323 685T352 666T376 647T403 639Q428 639 440 688H519Q505 622 477 588T394 554Q368 554 351 562T322 581T299 600T272 609Q246 609 236 560H157Q170 627 197 660T281 694Z" horiz-adv-x="576" unicode="ỡ"/>
			<glyph d="M767 746Q791 746 809 729T828 682Q828 640 798 599T723 534Q768 466 768 377Q768 296 738 225T655 101T531 18T374 -12Q302 -12 240 9T133 71T62 166T36 291Q36 372 66 442T148 565T273 648T430 678Q511 678 579 650T693 573Q710 582 728 596T754 628Q752 627 750 627Q748 627 746 627Q726 627 712 640T698 678Q698 692 704 704T719 726T741 740T767 746ZM420 526Q376 526 338 508T273 460T230 389T215 302Q215 266 227 236T262 184T316 151T384 140Q428 140 465 157T530 205T573 277T589 364Q589 400 576 430T541 481T488 514T420 526ZM310 -45Q340 -45 360 -65T380 -115Q380 -132 372 -148T352 -176T324 -195T291 -202Q261 -202 241 -182T221 -132Q221 -115 228 -99T248 -71T277 -52T310 -45Z" horiz-adv-x="766" unicode="Ợ"/>
			<glyph d="M552 612Q576 612 594 596T613 549Q613 507 585 467T513 404Q553 347 553 272Q553 216 532 164T473 74T384 11T269 -12Q208 -12 161 5T83 52T36 122T20 210Q20 266 41 317T99 408T189 471T304 495Q360 495 403 481T478 441Q495 450 512 464T538 495Q537 494 535 494Q533 494 531 494Q511 494 497 506T483 545Q483 573 504 592T552 612ZM299 359Q272 359 249 347T211 315T186 270T178 218Q178 173 204 148T275 124Q302 124 324 136T362 167T387 212T396 265Q396 310 370 334T299 359ZM216 -45Q246 -45 266 -65T286 -115Q286 -132 278 -148T258 -176T230 -195T197 -202Q167 -202 147 -182T127 -132Q127 -115 134 -99T154 -71T183 -52T216 -45Z" horiz-adv-x="576" unicode="ợ"/>
			<glyph d="M153 667H328L241 274Q238 266 238 246Q238 225 246 205T270 171T310 147T366 138Q435 138 472 176T522 274L609 667H783L696 271Q682 210 658 158T595 69T499 9T366 -12Q289 -12 231 5T136 54T79 129T60 226Q60 234 61 248T65 270ZM301 -45Q331 -45 351 -65T371 -115Q371 -132 363 -148T343 -176T315 -195T282 -202Q252 -202 232 -182T212 -132Q212 -115 219 -99T239 -71T268 -52T301 -45Z" horiz-adv-x="750" unicode="Ụ"/>
			<glyph d="M109 483H262L201 204Q199 197 198 190T197 178Q197 149 218 136T268 124Q299 124 324 139T367 172L435 483H589L482 0H328L342 59Q328 46 312 33T276 11T234 -5T185 -12Q112 -12 71 23T30 113Q30 120 31 132T35 153ZM223 -45Q253 -45 273 -65T293 -115Q293 -132 285 -148T265 -176T237 -195T204 -202Q174 -202 154 -182T134 -132Q134 -115 141 -99T161 -71T190 -52T223 -45Z" horiz-adv-x="592" unicode="ụ"/>
			<glyph d="M153 667H328L241 274Q238 266 238 246Q238 225 246 205T270 171T310 147T366 138Q435 138 472 176T522 274L609 667H783L696 271Q682 210 658 158T595 69T499 9T366 -12Q289 -12 231 5T136 54T79 129T60 226Q60 234 61 248T65 270ZM493 820Q506 820 520 816T545 804T563 784T570 756Q570 741 563 725T548 697H484Q511 722 511 748Q511 759 504 765T486 772Q467 772 453 750L407 772Q435 820 493 820Z" horiz-adv-x="750" unicode="Ủ"/>
			<glyph d="M109 483H262L201 204Q199 197 198 190T197 178Q197 149 218 136T268 124Q299 124 324 139T367 172L435 483H589L482 0H328L342 59Q328 46 312 33T276 11T234 -5T185 -12Q112 -12 71 23T30 113Q30 120 31 132T35 153ZM376 651Q389 651 403 647T428 635T446 615T453 587Q453 572 446 556T431 528H367Q394 553 394 579Q394 590 387 596T369 603Q350 603 336 581L290 603Q318 651 376 651Z" horiz-adv-x="592" unicode="ủ"/>
			<glyph d="M569 867H707L516 723H410ZM841 805Q865 805 883 789T902 742Q902 715 891 690T861 644T817 606T763 577L696 271Q682 210 658 158T595 69T499 9T366 -12Q289 -12 231 5T136 54T79 129T60 226Q60 234 61 248T65 270L153 667H328L241 274Q238 266 238 246Q238 225 246 205T270 171T310 147T366 138Q435 138 472 176T522 274L609 667H783L776 638Q793 648 807 661T827 688Q826 687 824 687Q822 687 820 687Q800 687 786 699T772 738Q772 752 778 764T793 785T815 799T841 805Z" horiz-adv-x="750" unicode="Ứ"/>
			<glyph d="M455 700H593L402 556H296ZM620 629Q643 629 662 613T681 565Q681 518 650 480T574 416L482 0H328L342 59Q328 46 312 33T276 10T234 -6T185 -12Q112 -12 71 23T30 113Q30 119 31 132T35 153L108 483H262L200 203Q197 189 197 178Q197 149 218 136T271 124Q300 124 324 139T366 171L435 483H584Q597 494 606 511Q604 510 602 510Q600 510 598 510Q579 510 564 523T550 562Q550 590 571 609T620 629Z" horiz-adv-x="592" unicode="ứ"/>
			<glyph d="M316 867H452L547 723H443ZM841 805Q865 805 883 789T902 742Q902 715 891 690T861 644T817 606T763 577L696 271Q682 210 658 158T595 69T499 9T366 -12Q289 -12 231 5T136 54T79 129T60 226Q60 234 61 248T65 270L153 667H328L241 274Q238 266 238 246Q238 225 246 205T270 171T310 147T366 138Q435 138 472 176T522 274L609 667H783L776 638Q793 648 807 661T827 688Q826 687 824 687Q822 687 820 687Q800 687 786 699T772 738Q772 752 778 764T793 785T815 799T841 805Z" horiz-adv-x="750" unicode="Ừ"/>
			<glyph d="M201 700H337L432 556H328ZM620 629Q643 629 662 613T681 565Q681 518 650 480T574 416L482 0H328L342 59Q328 46 312 33T276 10T234 -6T185 -12Q112 -12 71 23T30 113Q30 119 31 132T35 153L108 483H262L200 203Q197 189 197 178Q197 149 218 136T271 124Q300 124 324 139T366 171L435 483H584Q597 494 606 511Q604 510 602 510Q600 510 598 510Q579 510 564 523T550 562Q550 590 571 609T620 629Z" horiz-adv-x="592" unicode="ừ"/>
			<glyph d="M493 820Q506 820 520 816T545 804T563 784T570 756Q570 741 563 725T548 697H484Q511 722 511 748Q511 759 504 765T486 772Q467 772 453 750L407 772Q435 820 493 820ZM841 805Q865 805 883 789T902 742Q902 715 891 690T861 644T817 606T763 577L696 271Q682 210 658 158T595 69T499 9T366 -12Q289 -12 231 5T136 54T79 129T60 226Q60 234 61 248T65 270L153 667H328L241 274Q238 266 238 246Q238 225 246 205T270 171T310 147T366 138Q435 138 472 176T522 274L609 667H783L776 638Q793 648 807 661T827 688Q826 687 824 687Q822 687 820 687Q800 687 786 699T772 738Q772 752 778 764T793 785T815 799T841 805Z" horiz-adv-x="750" unicode="Ử"/>
			<glyph d="M376 651Q389 651 403 647T428 635T446 615T453 587Q453 572 446 556T431 528H367Q394 553 394 579Q394 590 387 596T369 603Q350 603 336 581L290 603Q318 651 376 651ZM620 629Q643 629 662 613T681 565Q681 518 650 480T574 416L482 0H328L342 59Q328 46 312 33T276 10T234 -6T185 -12Q112 -12 71 23T30 113Q30 119 31 132T35 153L108 483H262L200 203Q197 189 197 178Q197 149 218 136T271 124Q300 124 324 139T366 171L435 483H584Q597 494 606 511Q604 510 602 510Q600 510 598 510Q579 510 564 523T550 562Q550 590 571 609T620 629Z" horiz-adv-x="592" unicode="ử"/>
			<glyph d="M841 805Q865 805 883 789T902 742Q902 715 891 690T861 644T817 606T763 577L696 271Q682 210 658 158T595 69T499 9T366 -12Q289 -12 231 5T136 54T79 129T60 226Q60 234 61 248T65 270L153 667H328L241 274Q238 266 238 246Q238 225 246 205T270 171T310 147T366 138Q435 138 472 176T522 274L609 667H783L776 638Q793 648 807 661T827 688Q826 687 824 687Q822 687 820 687Q800 687 786 699T772 738Q772 752 778 764T793 785T815 799T841 805ZM439 861Q465 861 481 852T510 833T534 814T561 806Q586 806 598 855H677Q663 789 635 755T552 721Q526 721 509 729T480 748T457 767T430 776Q404 776 394 727H315Q328 794 355 827T439 861Z" horiz-adv-x="750" unicode="Ữ"/>
			<glyph d="M620 629Q643 629 662 613T681 565Q681 518 650 480T574 416L482 0H328L342 59Q328 46 312 33T276 10T234 -6T185 -12Q112 -12 71 23T30 113Q30 119 31 132T35 153L108 483H262L200 203Q197 189 197 178Q197 149 218 136T271 124Q300 124 324 139T366 171L435 483H584Q597 494 606 511Q604 510 602 510Q600 510 598 510Q579 510 564 523T550 562Q550 590 571 609T620 629ZM323 694Q349 694 365 685T394 666T418 647T445 639Q470 639 482 688H561Q547 622 519 588T436 554Q410 554 393 562T364 581T341 600T314 609Q288 609 278 560H199Q212 627 239 660T323 694Z" horiz-adv-x="592" unicode="ữ"/>
			<glyph d="M301 -45Q331 -45 351 -65T371 -115Q371 -132 363 -148T343 -176T315 -195T282 -202Q252 -202 232 -182T212 -132Q212 -115 219 -99T239 -71T268 -52T301 -45ZM841 805Q865 805 883 789T902 742Q902 715 891 690T861 644T817 606T763 577L696 271Q682 210 658 158T595 69T499 9T366 -12Q289 -12 231 5T136 54T79 129T60 226Q60 234 61 248T65 270L153 667H328L241 274Q238 266 238 246Q238 225 246 205T270 171T310 147T366 138Q435 138 472 176T522 274L609 667H783L776 638Q793 648 807 661T827 688Q826 687 824 687Q822 687 820 687Q800 687 786 699T772 738Q772 752 778 764T793 785T815 799T841 805Z" horiz-adv-x="750" unicode="Ự"/>
			<glyph d="M223 -45Q253 -45 273 -65T293 -115Q293 -132 285 -148T265 -176T237 -195T204 -202Q174 -202 154 -182T134 -132Q134 -115 141 -99T161 -71T190 -52T223 -45ZM620 629Q643 629 662 613T681 565Q681 518 650 480T574 416L482 0H328L342 59Q328 46 312 33T276 10T234 -6T185 -12Q112 -12 71 23T30 113Q30 119 31 132T35 153L108 483H262L200 203Q197 189 197 178Q197 149 218 136T271 124Q300 124 324 139T366 171L435 483H584Q597 494 606 511Q604 510 602 510Q600 510 598 510Q579 510 564 523T550 562Q550 590 571 609T620 629Z" horiz-adv-x="592" unicode="ự"/>
			<glyph d="M82 667H267L358 421L555 667H759L419 269L360 0H188L247 269ZM270 867H406L501 723H397Z" horiz-adv-x="655" unicode="Ỳ"/>
			<glyph d="M43 483H201L241 177L420 483H587L246 -69Q224 -105 202 -129T155 -168T102 -189T41 -196Q18 -196 -5 -193T-48 -184L1 -52Q10 -56 23 -57T51 -59Q70 -59 83 -53T106 -33L125 -2ZM164 700H300L395 556H291Z" horiz-adv-x="524" unicode="ỳ"/>
			<glyph d="" horiz-adv-x="51" unicode=" "/>
			<glyph d="M44 307H577L548 178H15Z" horiz-adv-x="593" unicode="–"/>
			<glyph d="M44 307H817L788 178H15Z" horiz-adv-x="833" unicode="—"/>
			<glyph d="M44 307H577L548 178H15Z" horiz-adv-x="593" unicode="―"/>
			<glyph d="M244 678L297 623Q284 617 268 608T238 589T211 565T192 539Q194 540 198 540Q202 540 204 540Q233 540 254 521T275 465Q275 444 266 426T243 394T210 373T172 365Q154 365 138 371T109 389T89 418T82 459Q82 490 94 522T128 583T179 636T244 678Z" horiz-adv-x="268" unicode="‘"/>
			<glyph d="M218 677Q235 677 251 671T280 653T300 624T308 584Q308 553 295 521T261 459T210 405T145 364L93 419Q106 425 121 433T151 453T178 476T198 503Q195 502 191 502Q188 502 186 502Q157 502 135 520T114 577Q114 598 123 616T146 647T179 669T218 677Z" horiz-adv-x="268" unicode="’"/>
			<glyph d="M107 176Q125 176 141 170T169 152T189 123T197 83Q197 52 185 20T151 -41T99 -94T35 -136L-18 -81Q-5 -75 10 -66T40 -47T67 -23T87 3Q85 2 81 2Q77 2 75 2Q46 2 25 20T4 77Q4 97 13 115T36 146T68 168T107 176Z" horiz-adv-x="268" unicode="‚"/>
			<glyph d="M231 677Q268 677 291 652T315 592Q315 550 286 526T220 502Q197 502 187 509Q189 481 207 449T250 398L186 359Q147 400 128 438T110 529Q110 567 121 595T150 641T189 668T231 677Z" horiz-adv-x="268" unicode="‛"/>
			<glyph d="M468 678L521 623Q507 617 491 608T461 589T435 565T416 539Q418 540 422 540Q426 540 428 540Q456 540 477 521T499 465Q499 444 490 426T467 394T434 373T396 365Q378 365 362 371T333 389T313 418T306 459Q306 490 318 522T352 583T403 636T468 678ZM243 678L296 623Q282 617 266 608T236 589T210 565T191 539Q193 540 196 540Q200 540 202 540Q231 540 252 521T274 465Q274 444 265 426T241 394T208 373T170 365Q135 365 108 388T81 459Q81 490 93 522T127 583T178 636T243 678Z" horiz-adv-x="493" unicode="“"/>
			<glyph d="M218 677Q235 677 251 671T280 653T300 624T308 584Q308 553 295 521T261 459T210 405T145 364L93 419Q106 425 121 433T151 453T178 476T198 503Q195 502 191 502Q188 502 186 502Q157 502 135 520T114 577Q114 598 123 616T146 647T179 669T218 677ZM443 677Q460 677 476 671T505 653T525 624T533 584Q533 553 521 521T487 459T435 405T371 364L318 419Q331 425 346 433T376 453T403 476T423 503Q421 502 417 502Q413 502 411 502Q382 502 361 520T340 577Q340 598 349 616T372 647T404 669T443 677Z" horiz-adv-x="493" unicode="”"/>
			<glyph d="M107 176Q125 176 141 170T169 152T189 123T197 83Q197 52 185 20T151 -41T99 -94T35 -136L-18 -81Q-5 -75 10 -66T40 -47T67 -23T87 3Q85 2 81 2Q77 2 75 2Q46 2 25 20T4 77Q4 97 13 115T36 146T68 168T107 176ZM332 176Q350 176 366 170T394 152T414 123T422 83Q422 52 410 20T376 -41T324 -94T260 -136L207 -81Q220 -75 235 -66T265 -47T292 -23T312 3Q310 2 306 2Q302 2 300 2Q271 2 250 20T229 77Q229 97 238 115T261 146T293 168T332 176Z" horiz-adv-x="493" unicode="„"/>
			<glyph d="M198 677H277L252 586L342 589L326 518L238 522L199 327H120L168 522L78 518L94 589L183 586Z" horiz-adv-x="284" unicode="†"/>
			<glyph d="M198 677H277L252 586L342 589L326 518L238 522L197 337L287 341L271 270L183 273L166 180H87L112 273L23 270L39 341L126 337L167 522L78 518L94 589L182 586Z" horiz-adv-x="284" unicode="‡"/>
			<glyph d="M192 366Q241 366 272 334T304 254Q304 226 293 201T263 158T218 129T165 119Q117 119 85 150T54 230Q54 258 65 283T95 326T139 355T192 366Z" horiz-adv-x="358" unicode="•"/>
			<glyph d="M108 176Q126 176 141 169T168 150T186 123T193 89Q193 68 184 50T162 18T129 -4T90 -12Q54 -12 29 13T5 74Q5 95 13 113T35 146T68 168T108 176ZM377 176Q395 176 410 169T437 150T455 123T462 89Q462 68 453 50T431 18T398 -4T359 -12Q323 -12 298 13T274 74Q274 95 282 113T304 146T337 168T377 176ZM646 176Q664 176 679 169T706 150T724 123T731 89Q731 68 722 50T700 18T667 -4T628 -12Q592 -12 567 13T543 74Q543 95 551 113T573 146T606 168T646 176Z" horiz-adv-x="807" unicode="…"/>
			<glyph d="M649 667H736L162 0H76ZM565 322Q598 322 628 312T681 285T717 241T731 182Q731 139 716 103T675 41T614 2T542 -12Q509 -12 479 -2T427 25T390 69T377 128Q377 171 392 207T433 268T493 308T565 322ZM562 230Q530 230 506 205T483 138Q483 113 500 96T546 80Q578 80 601 105T624 172Q624 197 607 213T562 230ZM267 677Q300 677 330 667T383 640T419 596T433 537Q433 493 418 457T377 396T316 357T244 343Q211 343 181 352T129 380T92 424T79 483Q79 526 94 562T135 623T195 663T267 677ZM264 585Q232 585 208 560T185 493Q185 467 202 451T248 435Q280 435 303 459T326 527Q326 552 309 568T264 585ZM935 322Q968 322 998 312T1051 285T1087 241T1101 182Q1101 139 1086 103T1045 41T984 2T912 -12Q879 -12 849 -2T797 25T760 69T747 128Q747 171 762 207T803 268T863 308T935 322ZM932 230Q900 230 876 205T853 138Q853 113 870 96T916 80Q948 80 971 105T994 172Q994 197 977 213T932 230Z" horiz-adv-x="1141" unicode="‰"/>
			<glyph d="M229 420H372L168 238L284 63H149L29 243Z" horiz-adv-x="359" unicode="‹"/>
			<glyph d="M77 420H212L332 240L132 63H-11L193 245Z" horiz-adv-x="359" unicode="›"/>
			<glyph d="M88 641H450L431 556H69Z" horiz-adv-x="363" unicode="‾"/>
			<glyph d="M347 667H435L-140 0H-226Z" horiz-adv-x="170" unicode="⁄"/>
			<glyph d="M297 827Q336 827 366 814T417 780T448 729T459 666Q459 630 447 586T411 504T346 440T252 414Q213 414 183 426T132 460T100 511T90 575Q90 611 101 655T138 737T202 801T297 827ZM293 737Q269 737 252 718T225 674T209 619T204 570Q204 535 217 519T256 504Q280 504 296 522T324 567T340 621T345 671Q345 706 331 721T293 737Z" horiz-adv-x="402" unicode="⁰"/>
			<glyph d="M292 821H452L400 588H450L430 499H380L364 421H251L267 499H71L88 576ZM317 722L203 588H287Z" horiz-adv-x="402" unicode="⁴"/>
			<glyph d="M160 821H464L444 731H254L238 655Q272 683 315 683Q340 683 362 675T401 653T426 618T436 574Q436 542 424 513T388 462T330 427T252 414Q203 414 157 429T76 479L145 546Q167 524 194 514T251 504Q286 504 303 520T320 556Q320 579 302 590T256 601Q213 601 182 572L110 596Z" horiz-adv-x="402" unicode="⁵"/>
			<glyph d="M320 827Q355 827 393 817T464 781L401 706Q386 720 366 728T317 737Q291 737 271 727T237 702T216 672T209 645V642Q228 663 254 677T309 691Q336 691 360 682T402 658T430 620T441 570Q441 538 428 509T393 460T338 426T265 414Q183 414 136 456T90 573Q90 626 108 672T157 752T231 807T320 827ZM258 603Q226 603 203 577Q201 574 201 569Q201 564 201 561Q201 537 217 520T264 504Q290 504 307 519T324 556Q324 579 305 591T258 603Z" horiz-adv-x="402" unicode="⁶"/>
			<glyph d="M141 821H468L451 742L241 421H114L324 731H121Z" horiz-adv-x="375" unicode="⁷"/>
			<glyph d="M285 827Q316 827 348 821T408 802T452 768T469 719Q469 683 442 653T361 617Q388 607 410 582T432 525Q432 502 422 482T392 447T340 423T263 414Q225 414 191 420T131 439T89 473T74 524Q74 564 105 596T190 636Q164 646 144 665T125 719Q125 747 138 767T174 800T226 820T285 827ZM289 741Q266 741 250 731T234 702Q234 692 240 685T254 672T270 664T284 661Q295 662 307 665T328 673T344 685T350 704Q350 721 332 731T289 741ZM267 587Q239 585 214 573T190 540Q190 522 209 511T257 500Q288 500 304 512T321 541Q321 550 315 557T302 571T284 581T267 587Z" horiz-adv-x="402" unicode="⁸"/>
			<glyph d="M286 828Q369 828 415 786T462 669Q462 616 444 570T394 489T321 435T232 415Q197 415 158 425T88 461L150 537Q165 522 185 513T235 505Q261 505 281 515T315 539T336 569T343 597V600Q324 579 298 565T243 551Q216 551 192 559T150 583T121 621T111 672Q111 704 123 732T158 782T213 815T286 828ZM288 738Q262 738 245 722T228 686Q228 663 246 651T293 639Q325 639 349 664Q351 668 351 673Q351 678 351 681Q351 705 334 721T288 738Z" horiz-adv-x="402" unicode="⁹"/>
			<glyph d="M270 886L332 859Q267 775 236 683T206 506Q206 477 211 443T228 383L153 356Q123 394 109 447T96 552Q96 600 109 648T146 740T202 821T270 886Z" horiz-adv-x="208" unicode="⁽"/>
			<glyph d="M223 886Q252 848 266 794T280 690Q280 642 266 594T229 502T173 420T106 356L43 383Q108 467 139 558T170 736Q170 765 164 799T148 859Z" horiz-adv-x="208" unicode="⁾"/>
			<glyph d="M333 648Q383 648 411 626T439 563Q439 558 438 551T435 534L389 326H280L319 505Q320 510 320 514T321 522Q321 539 308 547T276 556Q256 556 240 545T214 524L171 326H61L130 640H240L232 603Q249 620 273 634T333 648Z" horiz-adv-x="418" unicode="ⁿ"/>
			<glyph d="M182 261Q221 261 251 248T302 214T333 163T344 100Q344 64 332 20T296 -62T231 -126T137 -152Q98 -152 68 -139T17 -105T-14 -54T-25 9Q-25 45 -13 89T23 171T87 235T182 261ZM178 171Q154 171 137 152T110 108T94 53T89 4Q89 -31 102 -46T141 -62Q165 -62 181 -43T209 1T225 55T230 105Q230 140 216 155T178 171Z" horiz-adv-x="402" unicode="₀"/>
			<glyph d="M156 255H254L166 -145H52L107 106L25 40L-26 109Z" horiz-adv-x="311" unicode="₁"/>
			<glyph d="M173 261Q211 261 242 252T297 228T332 190T345 141Q345 91 296 45T145 -55H305L285 -145H-41L-22 -59Q57 -14 106 16T182 66T218 101T227 130Q227 150 210 160T168 171Q135 171 104 158T56 128L10 204Q42 232 86 246T173 261Z" horiz-adv-x="402" unicode="₂"/>
			<glyph d="M169 261Q251 261 298 232T346 152Q346 117 319 87T236 53Q269 45 291 23T314 -34Q314 -56 303 -77T271 -114T220 -141T151 -152Q88 -152 37 -132T-37 -78L32 -8Q53 -37 84 -49T145 -62Q175 -62 188 -49T201 -21Q201 -4 179 4T117 13Q109 13 98 13Q87 13 82 12L101 101Q105 101 113 100T132 100Q142 100 152 100Q162 100 168 100Q230 100 230 136Q230 154 208 162T157 171Q130 171 104 163T55 137L19 208Q48 233 88 247T169 261Z" horiz-adv-x="402" unicode="₃"/>
			<glyph d="M177 255H337L285 22H335L315 -67H265L249 -145H136L152 -67H-44L-27 10ZM202 156L88 22H172Z" horiz-adv-x="402" unicode="₄"/>
			</font>
</defs>
</svg>
