<?xml version="1.0" encoding="UTF-8"?>
<svg height="100%" width="100%" xmlns="http://www.w3.org/2000/svg">
	<defs>
		<font horiz-adv-x="572" id="web">
			<font-face alphabetic="0" ascent="920" descent="-298" font-family="" panose-1="2 0 5 6 3 0 0 2 0 4"/>
			<missing-glyph d="M78 752H429V-90H78ZM109 722V-60H397V722Z" horiz-adv-x="507"/>
			<glyph d="" horiz-adv-x="258" unicode=" "/>
			<glyph d="M68 667H162L146 187H84ZM115 100Q138 100 154 84T170 45Q170 23 154 6T115 -10Q92 -10 76 6T60 45Q60 68 76 84T115 100Z" horiz-adv-x="230" unicode="!"/>
			<glyph d="M99 677Q119 677 132 663T145 631Q145 628 144 617T141 591T136 555T131 516Q125 469 118 412H81Q73 469 67 516Q64 536 62 555T58 591T55 617T54 631Q54 650 67 663T99 677ZM245 677Q264 677 277 663T290 631Q290 628 289 617T286 591T281 555T276 516Q270 469 263 412H226Q218 469 212 516Q209 536 207 555T203 591T200 617T199 631Q199 650 212 663T245 677Z" horiz-adv-x="343" unicode="&quot;"/>
			<glyph d="M290 667H352L292 485H402L462 667H523L462 485H569L554 433H445L378 234H489L473 181H360L300 0H239L300 181H189L129 0H67L128 181H22L39 234H146L212 433H104L120 485H230ZM273 433L207 234H317L383 433Z" horiz-adv-x="590" unicode="#"/>
			<glyph d="M271 768H332V675Q395 669 443 645T529 584L479 523Q449 555 411 574T332 599V382Q371 371 409 357T477 321T525 266T544 184Q544 150 532 117T495 57T430 11T332 -11V-100H271V-11Q194 -6 137 22T42 94L91 157Q120 124 165 97T271 63V307Q233 317 195 330T128 363T81 415T63 492Q63 531 78 563T121 620T187 658T271 676ZM332 290V63Q368 67 392 78T430 106T451 140T458 177Q458 201 448 219T421 250T381 272T332 290ZM271 602Q217 598 183 570T149 497Q149 476 158 460T184 434T223 414T271 398Z" horiz-adv-x="593" unicode="$"/>
			<glyph d="M191 677Q227 677 257 664T308 629T341 576T353 511Q353 476 341 446T308 394T257 360T191 348Q155 348 125 360T75 394T42 446T31 511Q31 546 42 576T75 629T125 664T191 677ZM554 667H609L182 0H128ZM539 317Q575 317 604 304T655 269T688 216T700 151Q700 116 688 86T655 34T604 0T539 -12Q503 -12 473 0T423 34T390 86T379 151Q379 186 390 216T423 269T473 304T539 317ZM191 626Q146 626 118 593T91 511Q91 463 118 430T191 398Q213 398 232 407T264 431T285 466T293 511Q293 561 264 593T191 626ZM539 266Q494 266 466 233T438 151Q438 127 445 106T466 71T497 47T539 38Q561 38 580 47T612 71T633 106T641 151Q641 201 612 233T539 266Z" horiz-adv-x="731" unicode="%"/>
			<glyph d="M300 677Q333 677 360 668T408 643T439 601T451 546Q451 508 436 480T398 431T343 391T281 358Q301 330 321 306T358 263Q378 239 397 217T437 174Q465 216 482 257T509 326L574 298Q557 258 535 213T483 126Q512 95 544 64T613 0H509Q494 13 475 31T436 70Q399 33 352 10T244 -12Q201 -12 163 0T97 34T52 92T36 174Q36 213 48 243T80 296T127 338T183 372Q160 410 146 448T132 522Q132 555 145 583T180 633T234 665T300 677ZM215 323Q173 297 145 264T117 179Q117 148 128 124T157 83T200 58T251 50Q293 50 327 68T391 116Q362 146 337 173T299 217Q278 241 256 267T215 323ZM303 618Q284 618 267 611T237 591T217 560T210 521Q210 495 221 465T250 406Q277 419 301 433T343 463T371 498T382 543Q382 580 359 599T303 618Z" horiz-adv-x="641" unicode="&amp;"/>
			<glyph d="M99 677Q119 677 132 663T145 631Q145 628 144 617T141 591T136 555T131 516Q125 469 118 412H81Q73 469 67 516Q64 536 62 555T58 591T55 617T54 631Q54 650 67 663T99 677Z" horiz-adv-x="199" unicode="'"/>
			<glyph d="M185 685L230 651Q206 603 186 557T153 462T133 359T126 243Q126 181 133 127T153 24T186 -70T230 -164L185 -199Q117 -106 80 8T44 243Q44 364 80 477T185 685Z" horiz-adv-x="248" unicode="("/>
			<glyph d="M62 685Q131 591 167 477T204 243Q204 122 167 8T62 -199L17 -164Q41 -117 60 -70T93 24T114 127T122 243Q122 306 114 359T93 462T60 557T17 651Z" horiz-adv-x="248" unicode=")"/>
			<glyph d="M147 677H193L187 562L283 624L306 585L204 533L306 481L283 441L187 504L193 389H147L152 504L56 441L34 481L136 533L34 585L56 624L152 562Z" horiz-adv-x="340" unicode="*"/>
			<glyph d="M221 570H278V363H470V311H278V98H221V311H29V363H221Z" horiz-adv-x="499" unicode="+"/>
			<glyph d="M113 100Q138 100 157 80T176 24Q176 -22 152 -62T94 -127L57 -96Q81 -80 100 -54T122 -3Q118 -5 108 -5Q87 -5 73 9T60 46Q60 68 75 84T113 100Z" horiz-adv-x="230" unicode=","/>
			<glyph d="M30 275H270V209H30Z" horiz-adv-x="300" unicode="-"/>
			<glyph d="M115 100Q138 100 154 84T170 45Q170 22 154 6T115 -10Q92 -10 76 6T60 45Q60 68 76 84T115 100Z" horiz-adv-x="230" unicode="."/>
			<glyph d="M237 687H296L59 -20H0Z" horiz-adv-x="296" unicode="/"/>
			<glyph d="M306 677Q374 677 422 646T501 566T546 455T561 333Q561 272 546 210T501 99T422 19T306 -12Q237 -12 189 19T110 99T65 210T51 333Q51 394 65 455T110 566T189 646T306 677ZM306 603Q258 603 225 579T173 518T144 431T136 333Q136 283 144 234T173 147T225 85T306 62Q354 62 386 85T439 147T467 234T476 333Q476 383 467 431T439 518T386 579T306 603Z" horiz-adv-x="612" unicode="0"/>
			<glyph d="M188 667H261V0H178V557L71 444L21 495Z" horiz-adv-x="339" unicode="1"/>
			<glyph d="M285 677Q327 677 367 665T438 629T489 568T509 481Q509 430 484 380T416 281T314 180T185 74H512V0H54V66Q144 137 213 194T329 301T400 394T424 481Q424 513 412 536T380 574T336 596T285 603Q225 603 179 580T104 519L53 572Q91 623 152 650T285 677Z" horiz-adv-x="588" unicode="2"/>
			<glyph d="M266 677Q314 677 355 665T427 630T474 574T492 499Q492 463 478 436T444 390T397 359T348 344Q371 342 398 331T448 300T486 250T502 180Q502 138 486 103T439 42T365 2T266 -12Q181 -12 120 20T29 98L78 150Q107 111 155 86T264 62Q337 62 378 95T420 187Q420 218 408 240T374 277T321 298T254 305Q233 305 213 305Q193 305 185 304V380Q193 379 213 379Q234 379 254 379Q285 379 313 385T363 405T396 439T409 489Q409 517 397 538T365 573T317 595T260 603Q205 603 163 582T84 522L38 574Q74 618 131 647T266 677Z" horiz-adv-x="557" unicode="3"/>
			<glyph d="M318 667H432V242H526V169H432V0H349V169H32V238ZM349 590L115 242H349Z" horiz-adv-x="558" unicode="4"/>
			<glyph d="M87 667H495V593H170V361Q194 385 234 403T326 421Q368 421 406 407T473 366T520 299T538 208Q538 157 520 116T470 46T394 3T301 -12Q216 -12 160 16T66 95L117 150Q150 108 194 85T301 62Q335 62 363 73T412 103T443 148T455 205Q455 238 443 264T412 310T364 339T302 349Q257 349 219 334T148 286L87 307Z" horiz-adv-x="590" unicode="5"/>
			<glyph d="M322 677Q387 677 431 654T507 597L465 535Q439 565 407 584T322 603Q274 603 238 580T179 521T145 437T134 341Q134 334 134 328Q134 322 135 315Q146 332 164 350T208 384T262 409T324 419Q369 419 408 405T478 365T525 299T542 206Q542 162 526 122T480 53T406 5T308 -12Q238 -12 189 16T109 92T65 202T51 332Q51 400 67 462T116 572T201 648T322 677ZM304 347Q254 347 209 319T137 247Q140 216 150 183T180 123T230 79T305 62Q344 62 372 75T420 108T448 154T458 203Q458 240 446 267T413 312T364 338T304 347Z" horiz-adv-x="591" unicode="6"/>
			<glyph d="M31 667H486V610L213 0H121L390 593H31Z" horiz-adv-x="515" unicode="7"/>
			<glyph d="M291 677Q332 677 373 667T446 635T499 581T520 504Q520 471 507 445T474 399T427 366T371 344Q402 335 431 319T482 280T517 230T530 169Q530 127 511 93T459 36T383 0T291 -12Q241 -12 197 0T122 35T71 92T52 169Q52 202 65 230T100 280T151 319T211 344Q182 352 155 366T108 399T75 445T63 504Q63 549 83 581T135 635T208 667T291 677ZM291 603Q261 603 234 595T188 574T157 539T146 493Q146 463 163 442T203 407T251 387T291 378Q306 381 331 387T379 407T419 442T436 493Q436 519 424 539T393 574T347 595T291 603ZM291 307Q276 305 249 297T197 273T153 234T135 178Q135 151 147 129T181 93T231 70T291 62Q322 62 350 70T399 93T433 129T446 178Q446 211 427 234T384 273T332 297T291 307Z" horiz-adv-x="581" unicode="8"/>
			<glyph d="M282 678Q352 678 401 649T481 573T526 463T540 333Q540 265 524 203T474 93T390 17T269 -11Q205 -11 160 11T84 69L126 131Q152 101 184 82T269 63Q320 63 355 86T413 146T446 230T457 324Q457 331 457 337Q457 344 456 351Q445 334 426 315T383 282T329 257T268 247Q223 247 183 260T113 300T66 367T49 460Q49 503 65 542T111 612T184 660T282 678ZM286 604Q248 604 219 591T171 557T142 512T133 463Q133 426 145 399T178 354T227 327T287 319Q337 319 382 346T453 418Q450 449 440 482T410 542T360 586T286 604Z" horiz-adv-x="591" unicode="9"/>
			<glyph d="M115 490Q138 490 154 474T170 435Q170 412 154 396T115 380Q92 380 76 396T60 435Q60 458 76 474T115 490ZM115 100Q138 100 154 84T170 45Q170 22 154 6T115 -10Q92 -10 76 6T60 45Q60 68 76 84T115 100Z" horiz-adv-x="230" unicode=":"/>
			<glyph d="M115 490Q138 490 154 474T170 435Q170 413 154 396T115 380Q92 380 76 396T60 435Q60 458 76 474T115 490ZM113 102Q138 102 157 82T176 26Q176 -21 152 -61T94 -125L57 -95Q81 -79 100 -52T122 -1Q120 -2 116 -3T108 -4Q87 -4 73 10T60 47Q60 70 75 86T113 102Z" horiz-adv-x="230" unicode=";"/>
			<glyph d="M470 580V517L93 334L470 152V90L29 308V361Z" horiz-adv-x="499" unicode="&lt;"/>
			<glyph d="M29 457H470V404H29ZM29 263H470V211H29Z" horiz-adv-x="499" unicode="="/>
			<glyph d="M29 580L470 361V308L29 90V152L405 334L29 517Z" horiz-adv-x="499" unicode="&gt;"/>
			<glyph d="M235 677Q281 677 317 665T378 632T417 582T431 522Q431 484 416 457T380 409T334 371T287 337T251 302T237 260Q237 248 244 234T264 211L203 185Q183 202 173 222T164 266Q164 298 177 321T211 362T254 395T298 427T331 463T345 510Q345 548 316 575T227 603Q170 603 133 580T68 521L18 575Q54 622 108 649T235 677ZM224 100Q247 100 263 84T279 45Q279 22 263 6T224 -10Q201 -10 185 6T169 45Q169 68 185 84T224 100Z" horiz-adv-x="462" unicode="?"/>
			<glyph d="M432 638Q503 638 561 613T660 545T724 444T747 321Q747 262 732 218T692 144T636 100T574 85Q532 85 508 109T483 166L482 172Q456 135 414 110T324 85Q254 85 212 130T171 248Q171 300 191 346T244 426T319 479T406 499Q455 499 487 476T534 421L547 483H615L558 212Q557 207 556 201T556 191Q556 165 569 152T603 139Q618 139 636 148T671 178T699 234T711 321Q711 382 690 434T633 524T544 583T428 604Q356 604 290 574T176 495T98 381T69 246Q69 186 90 134T150 44T241 -15T356 -37Q410 -37 455 -22T542 19L560 -7Q513 -37 460 -53T352 -70Q284 -70 226 -46T125 20T59 120T35 244Q35 325 68 396T155 522T282 607T432 638ZM419 443Q381 443 349 426T293 383T255 322T242 252Q242 204 269 172T344 141Q370 141 392 149T433 170T467 199T493 231L522 369Q518 381 509 394T488 418T458 436T419 443Z" horiz-adv-x="783" unicode="@"/>
			<glyph d="M277 667H380L649 0H554L495 148H163L104 0H9ZM329 581L187 222H470Z" horiz-adv-x="658" unicode="A"/>
			<glyph d="M78 667H375Q418 667 453 654T512 619T549 565T562 497Q562 465 552 439T526 393T489 361T445 344Q472 340 495 325T536 288T564 238T575 180Q575 140 562 107T524 50T463 13T382 0H78ZM161 593V378H361Q418 378 447 408T476 485Q476 530 447 561T361 593ZM161 304V74H365Q424 74 456 104T489 189Q489 212 481 233T457 269T419 294T365 304Z" horiz-adv-x="629" unicode="B"/>
			<glyph d="M394 678Q438 678 475 668T544 640T601 598T647 546L577 507Q548 549 499 576T394 604Q339 604 292 584T210 528T156 442T137 333Q137 274 156 224T210 138T292 82T394 62Q451 62 499 89T577 159L648 120Q606 63 544 25T394 -12Q322 -12 259 13T150 83T77 192T51 333Q51 410 77 473T150 582T259 653T394 678Z" horiz-adv-x="676" unicode="C"/>
			<glyph d="M78 667H306Q384 667 447 641T554 571T623 465T648 333Q648 262 623 201T554 95T447 25T306 0H78ZM161 593V74H306Q367 74 414 94T495 150T545 232T562 333Q562 387 545 434T495 517T415 572T306 593Z" horiz-adv-x="700" unicode="D"/>
			<glyph d="M78 667H515V593H161V378H508V304H161V74H515V0H78Z" horiz-adv-x="569" unicode="E"/>
			<glyph d="M78 667H515V593H161V378H508V304H161V0H78Z" horiz-adv-x="550" unicode="F"/>
			<glyph d="M394 678Q483 678 545 643T653 553L587 512Q555 553 504 578T394 604Q339 604 292 584T210 528T156 442T137 333Q137 274 156 224T210 138T292 81T394 61Q424 61 451 67T501 84T542 108T573 133V269H344V343H656V102Q609 50 542 18T394 -13Q323 -13 260 12T151 82T78 191T51 333Q51 411 78 474T151 583T260 653T394 678Z" horiz-adv-x="713" unicode="G"/>
			<glyph d="M78 667H161V380H551V667H634V0H551V306H161V0H78Z" horiz-adv-x="712" unicode="H"/>
			<glyph d="M78 667H161V0H78Z" horiz-adv-x="239" unicode="I"/>
			<glyph d="M314 667H397V201Q397 147 380 106T335 40T268 1T185 -12Q131 -12 88 6T11 65L54 128Q76 102 106 82T180 62Q242 62 278 100T314 202Z" horiz-adv-x="475" unicode="J"/>
			<glyph d="M78 667H161V322L456 667H560L282 350L584 0H481L228 300L161 224V0H78Z" horiz-adv-x="601" unicode="K"/>
			<glyph d="M78 667H161V74H471V0H78Z" horiz-adv-x="510" unicode="L"/>
			<glyph d="M78 667H197L404 165L612 667H731V0H648V549L421 0H387L161 549V0H78Z" horiz-adv-x="809" unicode="M"/>
			<glyph d="M78 667H163L547 146V667H630V0H550L161 532V0H78Z" horiz-adv-x="708" unicode="N"/>
			<glyph d="M382 678Q456 678 517 652T621 579T689 470T713 333Q713 259 689 196T621 86T517 14T382 -12Q308 -12 247 14T142 86T75 196T51 333Q51 407 75 470T142 579T247 652T382 678ZM382 604Q326 604 280 583T203 527T154 441T137 333Q137 275 154 225T203 139T280 82T382 62Q438 62 483 82T560 139T609 225T627 333Q627 391 609 441T560 527T483 583T382 604Z" horiz-adv-x="765" unicode="O"/>
			<glyph d="M78 667H346Q396 667 435 651T500 607T541 543T555 466Q555 425 541 388T500 324T434 281T346 265H161V0H78ZM161 593V339H336Q396 339 432 374T469 466Q469 523 432 558T336 593Z" horiz-adv-x="587" unicode="P"/>
			<glyph d="M382 678Q456 678 517 652T621 579T689 470T713 333Q713 258 689 195T621 87L685 19L627 -31L562 38Q524 14 479 1T382 -12Q308 -12 247 14T142 86T75 196T51 333Q51 407 75 470T142 579T247 652T382 678ZM382 604Q326 604 280 583T203 527T154 441T137 333Q137 275 154 225T203 139T280 82T382 62Q453 62 509 96L414 199L472 248L566 146Q595 182 611 229T627 333Q627 391 609 441T560 527T483 583T382 604Z" horiz-adv-x="765" unicode="Q"/>
			<glyph d="M78 667H346Q392 667 430 653T496 612T539 549T555 466Q555 421 541 386T503 327T447 289T382 272L562 0H464L294 265H161V0H78ZM161 593V338H336Q396 338 432 373T469 466Q469 523 432 558T336 593Z" horiz-adv-x="608" unicode="R"/>
			<glyph d="M288 677Q365 677 424 653T525 584L475 523Q437 565 387 584T282 603Q222 603 183 574T145 497Q145 469 162 451T206 420T269 397T342 377T415 353T478 317T523 263T540 184Q540 148 527 112T484 49T408 5T294 -12Q206 -12 143 17T38 94L87 157Q103 139 125 121T173 91T231 70T297 62Q342 62 372 73T420 100T446 137T454 177Q454 209 437 230T392 265T329 289T256 309T183 333T120 366T76 417T59 492Q59 533 76 567T124 625T197 663T288 677Z" horiz-adv-x="586" unicode="S"/>
			<glyph d="M32 667H538V593H326V0H243V593H32Z" horiz-adv-x="570" unicode="T"/>
			<glyph d="M78 667H161V261Q161 169 209 115T350 62Q443 62 491 115T539 261V667H622V260Q622 198 605 147T554 61T469 7T350 -12Q282 -12 231 7T146 62T95 147T78 259Z" horiz-adv-x="700" unicode="U"/>
			<glyph d="M9 667H104L329 91L554 667H649L380 0H277Z" horiz-adv-x="658" unicode="V"/>
			<glyph d="M14 667H106L254 111L407 667H476L629 111L776 667H868L678 0H588L441 538L294 0H204Z" horiz-adv-x="883" unicode="W"/>
			<glyph d="M27 667H128L326 400L523 667H624L380 343L639 0H539L326 284L113 0H12L272 342Z" horiz-adv-x="652" unicode="X"/>
			<glyph d="M9 667H106L313 357L520 667H617L355 282V0H272V282Z" horiz-adv-x="626" unicode="Y"/>
			<glyph d="M48 667H529V598L154 74H536V0H48V69L423 593H48Z" horiz-adv-x="585" unicode="Z"/>
			<glyph d="M40 678H226V623H98V-135H226V-190H40Z" horiz-adv-x="243" unicode="["/>
			<glyph d="M0 687H59L296 -20H237Z" horiz-adv-x="296" unicode="\"/>
			<glyph d="M17 678H203V-190H17V-135H145V623H17Z" horiz-adv-x="243" unicode="]"/>
			<glyph d="M188 667H245L413 333H351L216 612L81 333H19Z" horiz-adv-x="432" unicode="^"/>
			<glyph d="M-3 -40H567V-95H-3Z" horiz-adv-x="564" unicode="_"/>
			<glyph d="M0 700H78L226 556H169Z" horiz-adv-x="226" unicode="`"/>
			<glyph d="M265 495Q303 495 337 486T396 457T437 407T452 332V0H377V55Q316 -12 217 -12Q186 -12 156 -2T102 28T63 79T48 148Q48 188 63 218T102 268T156 297T217 307Q267 307 307 291T377 241V328Q377 377 342 403T255 430Q170 430 107 363L72 415Q149 495 265 495ZM244 253Q191 253 158 223T125 147Q125 101 158 71T244 42Q284 42 319 57T377 102V193Q355 223 319 238T244 253Z" horiz-adv-x="527" unicode="a"/>
			<glyph d="M294 428Q249 428 209 405T150 350V131Q170 99 209 77T294 55Q331 55 360 69T409 108T439 167T450 241Q450 281 439 315T409 375T360 414T294 428ZM75 667H150V410Q179 450 221 472T313 495Q360 495 399 477T467 426T512 346T528 241Q528 182 512 135T467 55T399 5T313 -12Q262 -12 219 11T150 72V0H75Z" horiz-adv-x="575" unicode="b"/>
			<glyph d="M288 495Q354 495 395 471T465 411L415 365Q391 398 360 413T292 428Q253 428 222 414T170 375T136 316T125 242Q125 202 136 167T170 108T222 69T292 55Q368 55 415 118L465 72Q437 36 395 12T288 -12Q234 -12 189 7T113 61T64 141T47 242Q47 296 64 342T113 422T189 475T288 495Z" horiz-adv-x="495" unicode="c"/>
			<glyph d="M425 667H500V0H425V72Q398 35 355 11T262 -12Q215 -12 175 5T107 55T63 135T47 241Q47 299 62 346T106 426T174 477T262 495Q311 495 353 472T425 410ZM280 428Q244 428 215 414T166 375T135 315T125 241Q125 201 135 167T166 108T215 69T280 55Q325 55 365 77T425 131V350Q405 382 365 405T280 428Z" horiz-adv-x="575" unicode="d"/>
			<glyph d="M285 495Q340 495 383 475T456 420T501 337T517 236V217H126Q128 183 141 152T176 99T230 63T300 50Q342 50 381 66T449 111L485 62Q449 26 401 7T293 -12Q239 -12 194 6T116 58T65 138T47 242Q47 294 65 340T114 421T189 475T285 495ZM284 433Q245 433 216 418T167 380T137 328T126 272H443Q443 299 433 327T404 379T355 418T284 433Z" horiz-adv-x="563" unicode="e"/>
			<glyph d="M236 677Q265 677 290 669T338 640L307 591Q295 602 280 608T247 615Q210 615 190 590T171 520V483H269V417H171V0H96V417H16V483H96V520Q96 595 133 636T236 677Z" horiz-adv-x="283" unicode="f"/>
			<glyph d="M262 495Q311 495 353 472T424 410V483H499V14Q499 -46 479 -86T428 -151T354 -185T269 -196Q207 -196 162 -181T74 -124L112 -68Q142 -104 179 -119T269 -134Q299 -134 327 -126T376 -101T411 -56T424 11V80Q398 43 355 18T262 -6Q215 -6 175 11T107 60T63 139T47 244Q47 302 62 348T106 427T174 477T262 495ZM280 428Q244 428 215 414T166 376T135 318T125 244Q125 204 135 170T166 112T215 74T280 60Q302 60 324 66T365 84T399 109T424 139V350Q414 366 399 380T365 404T324 421T280 428Z" horiz-adv-x="574" unicode="g"/>
			<glyph d="M75 667H150V413Q163 428 181 442T221 469T270 488T323 495Q399 495 438 457T477 341V0H402V318Q402 350 394 371T372 405T337 423T293 428Q271 428 250 422T210 405T176 381T150 353V0H75Z" horiz-adv-x="552" unicode="h"/>
			<glyph d="M112 653Q133 653 148 638T163 602Q163 581 148 566T112 552Q92 552 77 566T62 602Q62 623 77 638T112 653ZM75 483H150V0H75Z" horiz-adv-x="225" unicode="i"/>
			<glyph d="M112 653Q133 653 148 638T163 602Q163 581 148 566T112 552Q92 552 77 566T62 602Q62 623 77 638T112 653ZM75 483H150V-47Q150 -119 113 -157T7 -196Q-30 -196 -53 -187T-99 -160L-72 -103Q-59 -116 -42 -125T-3 -134Q31 -134 53 -113T75 -47Z" horiz-adv-x="225" unicode="j"/>
			<glyph d="M75 667H150V226L404 483H499L285 264L500 0H404L230 217L150 138V0H75Z" horiz-adv-x="514" unicode="k"/>
			<glyph d="M75 667H150V0H75Z" horiz-adv-x="225" unicode="l"/>
			<glyph d="M306 495Q362 495 393 469T436 405Q446 421 463 437T501 466T547 487T598 495Q664 495 698 458T733 349V0H658V328Q658 374 637 401T569 428Q531 428 495 405T441 354V0H366V328Q366 374 345 401T277 428Q240 428 205 405T150 353V0H75V483H150V413Q157 425 172 439T209 465T254 486T306 495Z" horiz-adv-x="808" unicode="m"/>
			<glyph d="M322 495Q476 495 476 339V0H401V316Q401 380 371 404T293 428Q271 428 250 422T210 405T175 381T150 353V0H75V483H150V413Q163 428 181 442T221 469T269 488T322 495Z" horiz-adv-x="551" unicode="n"/>
			<glyph d="M286 495Q341 495 385 475T461 421T508 340T525 242Q525 189 508 143T461 62T385 8T286 -12Q231 -12 186 8T111 62T63 143T47 242Q47 294 63 340T111 421T186 475T286 495ZM286 428Q247 428 217 412T166 371T135 312T125 242Q125 205 135 171T166 111T217 70T286 55Q325 55 354 70T404 111T435 171T446 242Q446 279 435 312T404 371T354 412T286 428Z" unicode="o"/>
			<glyph d="M313 495Q361 495 400 477T468 427T512 348T528 242Q528 183 512 136T468 56T400 5T313 -12Q263 -12 221 10T150 73V-184H75V483H150V411Q176 448 219 471T313 495ZM294 428Q249 428 209 405T150 351V133Q170 101 209 78T294 55Q330 55 359 69T408 108T438 167T449 242Q449 282 438 316T408 375T359 414T294 428Z" unicode="p"/>
			<glyph d="M277 428Q241 428 212 414T163 375T133 316T123 242Q123 202 133 167T163 108T212 69T277 55Q299 55 321 61T362 78T396 103T421 133V351Q412 367 396 381T362 405T321 422T277 428ZM259 495Q310 495 352 471T421 411V483H496V-184H421V73Q392 32 350 10T259 -12Q211 -12 171 5T103 56T59 136T44 242Q44 301 59 348T103 427T171 477T259 495Z" unicode="q"/>
			<glyph d="M311 493V416Q297 419 281 419Q264 419 244 412T206 395T173 370T150 342V0H75V483H150V405Q179 443 220 468T311 493Z" horiz-adv-x="330" unicode="r"/>
			<glyph d="M226 495Q288 495 332 474T405 425L370 373Q348 399 310 416T226 434Q176 434 147 412T119 358Q119 332 141 318T196 294T268 276T340 252T396 208T418 134Q418 104 406 77T370 30T310 0T228 -12Q168 -12 119 6T33 64L72 118Q96 90 138 69T231 49Q287 49 316 72T345 132Q345 161 323 176T267 202T195 220T123 244T68 285T46 356Q46 384 58 409T93 454T149 484T226 495Z" horiz-adv-x="465" unicode="s"/>
			<glyph d="M90 615H165V483H263V417H165V117Q165 90 177 72T214 55Q230 55 243 61T265 75L287 19Q273 5 251 -3T197 -12Q143 -12 116 17T90 101V417H10V483H90Z" horiz-adv-x="294" unicode="t"/>
			<glyph d="M75 483H150V165Q150 133 157 112T179 78T214 60T258 55Q302 55 341 77T401 128V483H476V0H401V68Q373 36 328 12T229 -12Q153 -12 114 25T75 142Z" horiz-adv-x="551" unicode="u"/>
			<glyph d="M3 483H84L245 87L405 483H487L286 0H204Z" horiz-adv-x="490" unicode="v"/>
			<glyph d="M12 483H90L208 98L335 483H399L526 98L644 483H722L568 0H493L367 388L241 0H166Z" horiz-adv-x="734" unicode="w"/>
			<glyph d="M22 483H109L243 299L377 483H464L289 248L475 0H388L243 198L98 0H12L197 248Z" horiz-adv-x="486" unicode="x"/>
			<glyph d="M3 483H84L245 87L405 483H487L245 -98Q223 -151 187 -173T103 -196Q91 -196 75 -194T48 -189L60 -121Q68 -125 80 -127T101 -129Q126 -129 143 -118T173 -78L205 -5Z" horiz-adv-x="490" unicode="y"/>
			<glyph d="M52 483H416V426L148 65H420V0H52V58L318 417H52Z" horiz-adv-x="472" unicode="z"/>
			<glyph d="M182 678H243V623H182Q155 623 135 600T116 543V332Q116 300 105 277T70 244Q95 233 105 210T116 156V-55Q116 -90 135 -112T182 -135H243V-190H182Q158 -190 135 -180T95 -153T67 -111T57 -56V150Q57 178 44 198T5 219V269Q31 269 44 289T57 338V543Q57 574 67 599T95 641T135 668T182 678Z" horiz-adv-x="260" unicode="{"/>
			<glyph d="M78 687H133V-20H78Z" horiz-adv-x="211" unicode="|"/>
			<glyph d="M17 678H78Q102 678 124 668T164 641T192 599T203 543V338Q203 310 216 289T255 269V219Q229 219 216 198T203 150V-56Q203 -87 192 -111T164 -153T124 -180T78 -190H17V-135H78Q105 -135 124 -112T144 -55V156Q144 188 154 210T190 244Q165 255 154 277T144 332V543Q144 578 124 600T78 623H17Z" horiz-adv-x="260" unicode="}"/>
			<glyph d="M419 667L475 660Q471 615 463 572T439 496T399 443T337 423Q306 423 286 437T254 472T233 518T216 564T195 599T165 613Q147 613 133 599T109 559T93 499T83 422L27 429Q31 474 39 517T63 593T103 646T165 666Q196 666 216 652T248 616T269 570T286 524T306 489T337 475Q355 475 369 489T392 528T408 589T419 667Z" horiz-adv-x="503" unicode="~"/>
			<glyph d="" horiz-adv-x="258" unicode=" "/>
			<glyph d="M84 296H146L162 -184H69ZM115 493Q138 493 154 476T170 438Q170 415 154 399T115 383Q92 383 76 399T60 438Q60 460 76 476T115 493Z" horiz-adv-x="230" unicode="¡"/>
			<glyph d="M252 565H311V494Q367 489 403 466T465 411L415 365Q394 394 368 408T311 427V56Q374 62 415 118L465 72Q439 39 403 16T311 -11V-100H252V-9Q205 -3 167 18T103 73T61 149T47 242Q47 291 61 333T103 409T167 464T252 492ZM252 423Q192 409 158 360T125 242Q125 172 158 122T252 59Z" horiz-adv-x="495" unicode="¢"/>
			<glyph d="M272 677Q341 677 393 648T474 565L407 525Q394 557 360 582T280 607Q251 607 225 598T180 572T148 532T137 479Q137 452 145 430T165 390T191 355T218 322H368V268H246Q249 258 251 247T253 225Q253 179 230 147T177 93Q188 97 201 99T229 102Q253 102 271 95T305 81T339 67T377 61Q410 61 435 74T472 101L508 34Q487 14 454 0T373 -13Q339 -13 317 -6T278 10T241 26T194 33Q168 33 138 21T76 -7L46 55Q110 84 144 123T179 208Q179 225 175 239T164 268H19V322H125Q111 338 97 354T73 389T55 430T48 480Q48 521 66 557T114 619T185 661T272 677Z" horiz-adv-x="518" unicode="£"/>
			<glyph d="M74 605L152 526Q181 548 217 560T299 572Q343 572 379 560T445 526L523 604L569 558L491 480Q514 450 526 412T538 333Q538 291 526 253T492 185L569 109L523 64L446 139Q417 117 380 105T299 93Q254 93 216 105T150 140L75 64L28 109L105 186Q83 217 71 254T60 333Q60 375 71 412T106 480L27 559ZM299 503Q260 503 230 489T179 451T147 397T137 333Q137 299 147 268T179 213T230 175T299 161Q338 161 368 175T419 213T450 268T461 333Q461 366 450 397T419 451T368 489T299 503Z" horiz-adv-x="598" unicode="¤"/>
			<glyph d="M9 667H106L313 357L520 667H617L390 334H605V282H355V175H605V122H355V0H272V122H22V175H272V282H22V334H236Z" horiz-adv-x="626" unicode="¥"/>
			<glyph d="M78 296H133V-20H78ZM78 687H133V371H78Z" horiz-adv-x="211" unicode="¦"/>
			<glyph d="M226 677Q294 677 337 655T404 606L370 561Q344 592 305 606T228 621Q180 621 149 599T119 541Q119 513 141 498T196 474T268 456T340 432T396 389T418 315Q418 273 395 240T326 187Q368 171 393 143T418 66Q418 31 404 3T365 -42T305 -71T228 -81Q191 -81 162 -74T110 -57T68 -32T34 -3L72 46Q95 19 134 -3T228 -26Q280 -26 312 -3T345 61Q345 92 323 108T267 135T195 155T123 179T68 220T46 290Q46 317 55 338T81 374T117 401T161 418Q108 435 77 463T46 541Q46 569 58 593T93 636T149 666T226 677ZM231 397Q166 380 142 355T119 298Q119 276 131 261T163 237T208 220T261 207Q301 224 322 247T344 305Q344 327 334 342T308 367T272 385T231 397Z" horiz-adv-x="468" unicode="§"/>
			<glyph d="M239 650Q258 650 272 636T286 604Q286 584 272 570T239 557Q220 557 206 570T192 604Q192 623 206 636T239 650ZM33 650Q52 650 65 636T79 604Q79 584 65 570T33 557Q13 557 0 570T-14 604Q-14 623 0 636T33 650Z" horiz-adv-x="272" unicode="¨"/>
			<glyph d="M389 679Q461 679 523 652T633 578T707 468T734 334Q734 263 707 200T633 90T523 16T389 -11Q318 -11 255 16T145 90T71 200T44 334Q44 406 71 468T145 578T255 652T389 679ZM389 648Q324 648 267 623T167 556T99 456T75 334Q75 269 99 212T167 112T267 44T389 20Q454 20 511 44T611 112T678 212T703 334Q703 399 678 456T611 556T511 623T389 648ZM391 548Q438 548 474 530T537 482L512 458Q492 484 459 499T391 515Q357 515 326 502T271 465T234 408T220 335Q220 296 234 262T271 205T326 167T391 154Q427 154 459 170T512 212L538 187Q511 155 474 138T391 121Q348 121 310 137T244 182T199 250T183 335Q183 381 199 420T244 487T310 532T391 548Z" horiz-adv-x="778" unicode="©"/>
			<glyph d="M188 648Q214 648 237 642T278 623T306 588T317 537V326H260V361Q242 341 215 329T153 318Q132 318 112 325T76 345T51 377T41 422Q41 448 51 467T76 499T112 518T153 525Q189 525 215 513T260 483V538Q260 569 236 586T181 603Q155 603 129 592T82 557L57 594Q109 648 188 648ZM175 488Q142 488 120 469T99 422Q99 392 120 374T175 356Q201 356 223 366T260 394V450Q246 468 223 478T175 488Z" horiz-adv-x="378" unicode="ª"/>
			<glyph d="M334 420H409L249 243L409 63H334L174 243ZM190 420H265L105 243L265 63H190L30 243Z" horiz-adv-x="439" unicode="«"/>
			<glyph d="M29 457H470V211H415V404H29Z" horiz-adv-x="504" unicode="¬"/>
			<glyph d="M30 275H270V209H30Z" horiz-adv-x="300" unicode="­"/>
			<glyph d="M247 677Q291 677 330 660T397 615T442 548T459 465Q459 421 442 382T397 315T330 269T247 253Q203 253 164 269T97 315T51 382T35 465Q35 509 51 548T97 615T164 660T247 677ZM247 648Q209 648 175 633T117 594T77 536T63 465Q63 427 77 393T117 335T175 295T247 281Q285 281 318 295T376 335T415 393T430 465Q430 503 415 536T376 594T318 633T247 648ZM166 586H265Q296 586 319 566T342 512Q342 492 334 478T316 455T295 443T280 440L345 343H305L242 439H198V343H166ZM198 558V468H265Q281 468 295 480T309 512Q309 532 295 545T265 558Z" horiz-adv-x="494" unicode="®"/>
			<glyph d="M0 620H363V572H0Z" horiz-adv-x="363" unicode="¯"/>
			<glyph d="M144 677Q169 677 191 667T231 641T257 602T267 555Q267 529 257 507T231 468T191 442T144 433Q119 433 97 442T58 468T32 507T23 555Q23 580 32 602T58 641T97 667T144 677ZM144 629Q114 629 93 607T72 555Q72 524 93 502T144 481Q175 481 197 502T219 555Q219 585 197 607T144 629Z" horiz-adv-x="290" unicode="°"/>
			<glyph d="M221 583H278V376H470V324H278V110H221V324H29V376H221ZM29 52H470V0H29Z" horiz-adv-x="499" unicode="±"/>
			<glyph d="M196 827Q223 827 249 820T295 798T327 761T339 709Q339 679 324 649T282 591T219 532T138 470H341V421H50V466Q107 507 150 540T221 601T264 655T279 705Q279 724 272 738T253 761T225 774T194 778Q156 778 127 762T82 726L49 764Q74 796 113 811T196 827Z" horiz-adv-x="388" unicode="²"/>
			<glyph d="M192 827Q256 827 296 798T336 720Q336 698 327 682T306 654T277 636T247 627Q261 626 278 619T309 601T333 571T343 530Q343 479 302 446T192 414Q138 414 100 433T42 479L74 517Q94 492 124 477T190 463Q234 463 258 482T283 533Q283 571 253 586T179 602Q165 602 154 602Q144 602 139 601V651Q144 650 155 650Q166 650 178 650Q220 650 248 664T276 714Q276 745 250 761T187 778Q123 778 78 729L47 765Q70 791 106 809T192 827Z" horiz-adv-x="388" unicode="³"/>
			<glyph d="M148 700H226L57 556H0Z" horiz-adv-x="226" unicode="´"/>
			<glyph d="M75 483H150V165Q150 105 179 79T260 53Q281 53 302 59T341 75T375 99T401 128V483H476V113Q476 87 488 71T523 55Q534 55 542 57L548 -8Q540 -10 529 -11T508 -12Q460 -12 436 11T404 74Q378 39 338 13T251 -12Q208 -12 184 2T150 36V-184H75Z" horiz-adv-x="565" unicode="µ"/>
			<glyph d="M199 667H378V-100H333V622H244V-100H199V323Q163 323 132 336T77 373T40 428T27 495Q27 531 40 562T77 616T132 653T199 667Z" horiz-adv-x="449" unicode="¶"/>
			<glyph d="M115 299Q138 299 154 283T170 244Q170 222 154 206T115 190Q92 190 76 206T60 244Q60 267 76 283T115 299Z" horiz-adv-x="230" unicode="·"/>
			<glyph d="M83 11H128L102 -55Q118 -44 139 -44Q168 -44 186 -62T205 -111Q205 -148 174 -169T101 -191Q69 -191 42 -182T0 -161L19 -123Q37 -138 58 -145T99 -152Q123 -152 141 -141T160 -110Q160 -94 151 -84T123 -75Q100 -75 85 -92L52 -73Z" horiz-adv-x="205" unicode="¸"/>
			<glyph d="M122 821H175V421H115V743L49 674L14 711Z" horiz-adv-x="235" unicode="¹"/>
			<glyph d="M202 648Q240 648 270 635T321 599T353 547T365 483Q365 449 353 419T321 366T270 331T202 318Q165 318 135 331T84 366T51 419T40 483Q40 517 51 547T84 599T135 635T202 648ZM202 598Q153 598 126 565T100 483Q100 433 126 399T202 366Q252 366 279 399T306 483Q306 532 279 565T202 598Z" horiz-adv-x="405" unicode="º"/>
			<glyph d="M30 420H105L265 243L105 63H30L190 243ZM174 420H249L409 243L249 63H174L334 243Z" horiz-adv-x="439" unicode="»"/>
			<glyph d="M122 667H175V267H115V589L49 520L14 557ZM592 400H675V149H733V100H675V0H616V100H420V144ZM616 347L480 149H616ZM534 667H590L163 0H108Z" horiz-adv-x="770" unicode="¼"/>
			<glyph d="M122 667H175V267H115V589L49 520L14 557ZM614 406Q641 406 667 399T713 377T745 340T757 288Q757 258 742 228T700 170T637 111T556 49H759V0H468V45Q525 86 568 119T639 180T682 234T697 284Q697 303 690 317T671 340T643 353T612 357Q574 357 545 341T500 305L467 343Q492 375 531 390T614 406ZM534 667H590L163 0H108Z" horiz-adv-x="807" unicode="½"/>
			<glyph d="M701 400H784V149H842V100H784V0H725V100H529V144ZM725 347L589 149H725ZM642 667H698L271 0H216ZM192 673Q256 673 296 644T336 566Q336 544 327 528T306 500T277 482T247 473Q261 472 278 465T309 447T333 417T343 376Q343 325 302 292T192 260Q138 260 100 279T42 325L74 363Q94 338 124 323T190 309Q234 309 258 328T283 379Q283 417 253 432T179 448Q165 448 154 448Q144 448 139 447V497Q144 496 155 496Q166 496 178 496Q220 496 248 510T276 560Q276 591 250 607T187 624Q123 624 78 575L47 611Q70 637 106 655T192 673Z" horiz-adv-x="878" unicode="¾"/>
			<glyph d="M258 296Q297 261 297 214Q297 182 283 159T250 118T207 84T164 52T130 16T117 -30Q117 -67 146 -94T234 -122Q291 -122 328 -100T394 -41L443 -94Q407 -142 353 -169T227 -196Q181 -196 145 -184T83 -151T44 -101T31 -41Q31 -3 45 24T81 72T127 110T174 143T209 178T224 221Q224 233 217 246T198 269ZM238 493Q261 493 277 476T293 437Q293 415 277 399T238 383Q215 383 199 399T183 437Q183 460 199 476T238 493Z" horiz-adv-x="394" unicode="¿"/>
			<glyph d="M277 667H380L649 0H554L495 148H163L104 0H9ZM329 581L187 222H470ZM160 867H238L386 723H329Z" horiz-adv-x="658" unicode="À"/>
			<glyph d="M277 667H380L649 0H554L495 148H163L104 0H9ZM329 581L187 222H470ZM420 867H498L329 723H272Z" horiz-adv-x="658" unicode="Á"/>
			<glyph d="M293 867H365L463 723H412L329 829L249 723H198ZM277 667H380L649 0H554L495 148H163L104 0H9ZM329 581L187 222H470Z" horiz-adv-x="658" unicode="Â"/>
			<glyph d="M277 667H380L649 0H554L495 148H163L104 0H9ZM329 581L187 222H470ZM270 861Q297 861 313 846T340 815T363 783T393 769Q413 769 427 789T441 855H486Q486 796 461 758T389 721Q362 721 346 735T318 767T295 798T266 813Q246 813 232 792T218 727H173Q173 786 197 823T270 861Z" horiz-adv-x="658" unicode="Ã"/>
			<glyph d="M433 817Q452 817 466 803T480 771Q480 751 466 737T433 724Q414 724 400 737T386 771Q386 790 400 803T433 817ZM227 817Q246 817 259 803T273 771Q273 751 259 737T227 724Q207 724 193 737T180 771Q180 790 193 803T227 817ZM277 667H380L649 0H554L495 148H163L104 0H9ZM329 581L187 222H470Z" horiz-adv-x="658" unicode="Ä"/>
			<glyph d="M277 667H380L649 0H554L495 148H163L104 0H9ZM329 581L187 222H470ZM329 887Q349 887 367 879T398 857T419 826T427 788Q427 747 398 718T329 690Q288 690 259 718T231 788Q231 808 238 826T259 857T291 879T329 887ZM329 847Q305 847 288 830T271 788Q271 764 288 746T329 729Q354 729 370 746T387 788Q387 813 370 830T329 847Z" horiz-adv-x="658" unicode="Å"/>
			<glyph d="M423 667H893V593H539V378H886V304H539V74H893V0H456V148H193L102 0H7ZM456 581L234 222H456Z" horiz-adv-x="947" unicode="Æ"/>
			<glyph d="M394 678Q438 678 475 668T544 640T601 598T647 546L577 507Q548 549 499 576T394 604Q339 604 292 584T210 528T156 442T137 333Q137 274 156 224T210 138T292 82T394 62Q451 62 499 89T577 159L648 120Q627 92 602 68T548 27T482 0T404 -12L389 -51Q405 -40 426 -40Q455 -40 473 -58T492 -107Q492 -144 461 -165T388 -187Q356 -187 329 -178T287 -157L306 -119Q324 -134 345 -141T386 -148Q410 -148 428 -137T447 -106Q447 -90 438 -80T410 -71Q387 -71 372 -88L339 -69L360 -10Q294 -4 237 23T139 95T74 200T51 333Q51 410 77 473T150 582T259 653T394 678Z" horiz-adv-x="676" unicode="Ç"/>
			<glyph d="M78 667H515V593H161V378H508V304H161V74H515V0H78ZM127 867H205L353 723H296Z" horiz-adv-x="569" unicode="È"/>
			<glyph d="M387 867H465L296 723H239ZM78 667H515V593H161V378H508V304H161V74H515V0H78Z" horiz-adv-x="569" unicode="É"/>
			<glyph d="M258 867H330L428 723H377L294 829L214 723H163ZM78 667H515V593H161V378H508V304H161V74H515V0H78Z" horiz-adv-x="569" unicode="Ê"/>
			<glyph d="M399 817Q418 817 432 803T446 771Q446 751 432 737T399 724Q380 724 366 737T352 771Q352 790 366 803T399 817ZM193 817Q212 817 225 803T239 771Q239 751 225 737T193 724Q173 724 159 737T146 771Q146 790 159 803T193 817ZM78 667H515V593H161V378H508V304H161V74H515V0H78Z" horiz-adv-x="569" unicode="Ë"/>
			<glyph d="M78 667H161V0H78ZM-49 867H29L177 723H120Z" horiz-adv-x="239" unicode="Ì"/>
			<glyph d="M78 667H161V0H78ZM211 867H289L120 723H63Z" horiz-adv-x="239" unicode="Í"/>
			<glyph d="M84 867H156L254 723H203L120 829L40 723H-11ZM78 667H161V0H78Z" horiz-adv-x="239" unicode="Î"/>
			<glyph d="M224 817Q243 817 257 803T271 771Q271 751 257 737T224 724Q205 724 191 737T177 771Q177 790 191 803T224 817ZM18 817Q37 817 50 803T64 771Q64 751 50 737T18 724Q-2 724 -15 737T-29 771Q-29 790 -15 803T18 817ZM78 667H161V0H78Z" horiz-adv-x="239" unicode="Ï"/>
			<glyph d="M106 667H334Q412 667 475 641T582 571T651 465T676 333Q676 262 651 201T582 95T475 25T334 0H106V299H10V360H106ZM189 593V360H358V299H189V74H334Q395 74 442 94T523 150T573 232T590 333Q590 387 573 434T523 517T443 572T334 593Z" horiz-adv-x="728" unicode="Ð"/>
			<glyph d="M293 861Q320 861 336 846T363 815T386 783T416 769Q436 769 450 789T464 855H509Q509 796 484 758T412 721Q385 721 369 735T341 767T318 798T289 813Q269 813 255 792T241 727H196Q196 786 220 823T293 861ZM78 667H163L547 146V667H630V0H550L161 532V0H78Z" horiz-adv-x="708" unicode="Ñ"/>
			<glyph d="M214 867H292L440 723H383ZM382 678Q456 678 517 652T621 579T689 470T713 333Q713 259 689 196T621 86T517 14T382 -12Q308 -12 247 14T142 86T75 196T51 333Q51 407 75 470T142 579T247 652T382 678ZM382 604Q326 604 280 583T203 527T154 441T137 333Q137 275 154 225T203 139T280 82T382 62Q438 62 483 82T560 139T609 225T627 333Q627 391 609 441T560 527T483 583T382 604Z" horiz-adv-x="765" unicode="Ò"/>
			<glyph d="M474 867H552L383 723H326ZM382 678Q456 678 517 652T621 579T689 470T713 333Q713 259 689 196T621 86T517 14T382 -12Q308 -12 247 14T142 86T75 196T51 333Q51 407 75 470T142 579T247 652T382 678ZM382 604Q326 604 280 583T203 527T154 441T137 333Q137 275 154 225T203 139T280 82T382 62Q438 62 483 82T560 139T609 225T627 333Q627 391 609 441T560 527T483 583T382 604Z" horiz-adv-x="765" unicode="Ó"/>
			<glyph d="M347 867H419L517 723H466L383 829L303 723H252ZM382 678Q456 678 517 652T621 579T689 470T713 333Q713 259 689 196T621 86T517 14T382 -12Q308 -12 247 14T142 86T75 196T51 333Q51 407 75 470T142 579T247 652T382 678ZM382 604Q326 604 280 583T203 527T154 441T137 333Q137 275 154 225T203 139T280 82T382 62Q438 62 483 82T560 139T609 225T627 333Q627 391 609 441T560 527T483 583T382 604Z" horiz-adv-x="765" unicode="Ô"/>
			<glyph d="M382 678Q456 678 517 652T621 579T689 470T713 333Q713 259 689 196T621 86T517 14T382 -12Q308 -12 247 14T142 86T75 196T51 333Q51 407 75 470T142 579T247 652T382 678ZM382 604Q326 604 280 583T203 527T154 441T137 333Q137 275 154 225T203 139T280 82T382 62Q438 62 483 82T560 139T609 225T627 333Q627 391 609 441T560 527T483 583T382 604ZM323 861Q350 861 366 846T393 815T416 783T446 769Q466 769 480 789T494 855H539Q539 796 514 758T442 721Q415 721 399 735T371 767T348 798T319 813Q299 813 285 792T271 727H226Q226 786 250 823T323 861Z" horiz-adv-x="765" unicode="Õ"/>
			<glyph d="M485 817Q504 817 518 803T532 771Q532 751 518 737T485 724Q466 724 452 737T438 771Q438 790 452 803T485 817ZM279 817Q298 817 311 803T325 771Q325 751 311 737T279 724Q259 724 245 737T232 771Q232 790 245 803T279 817ZM382 678Q456 678 517 652T621 579T689 470T713 333Q713 259 689 196T621 86T517 14T382 -12Q308 -12 247 14T142 86T75 196T51 333Q51 407 75 470T142 579T247 652T382 678ZM382 604Q326 604 280 583T203 527T154 441T137 333Q137 275 154 225T203 139T280 82T382 62Q438 62 483 82T560 139T609 225T627 333Q627 391 609 441T560 527T483 583T382 604Z" horiz-adv-x="765" unicode="Ö"/>
			<glyph d="M101 520L249 371L398 520L435 482L287 334L435 185L398 148L249 297L101 148L64 185L212 334L64 482Z" horiz-adv-x="499" unicode="×"/>
			<glyph d="M382 678Q430 678 471 667T549 636L570 667H636L594 605Q651 558 682 488T713 333Q713 259 689 196T621 86T517 14T382 -12Q332 -12 289 0T209 33L187 0H121L165 65Q111 112 81 180T51 333Q51 407 75 470T142 579T247 652T382 678ZM549 538L252 97Q307 62 382 62Q438 62 483 82T560 139T609 225T627 333Q627 396 607 449T549 538ZM382 604Q326 604 280 583T203 527T154 441T137 333Q137 271 156 219T210 132L506 572Q480 587 448 595T382 604Z" horiz-adv-x="765" unicode="Ø"/>
			<glyph d="M78 667H161V261Q161 169 209 115T350 62Q443 62 491 115T539 261V667H622V260Q622 198 605 147T554 61T469 7T350 -12Q282 -12 231 7T146 62T95 147T78 259ZM181 867H259L407 723H350Z" horiz-adv-x="700" unicode="Ù"/>
			<glyph d="M441 867H519L350 723H293ZM78 667H161V261Q161 169 209 115T350 62Q443 62 491 115T539 261V667H622V260Q622 198 605 147T554 61T469 7T350 -12Q282 -12 231 7T146 62T95 147T78 259Z" horiz-adv-x="700" unicode="Ú"/>
			<glyph d="M315 867H387L485 723H434L351 829L271 723H220ZM78 667H161V261Q161 169 209 115T350 62Q443 62 491 115T539 261V667H622V260Q622 198 605 147T554 61T469 7T350 -12Q282 -12 231 7T146 62T95 147T78 259Z" horiz-adv-x="700" unicode="Û"/>
			<glyph d="M454 817Q473 817 487 803T501 771Q501 751 487 737T454 724Q435 724 421 737T407 771Q407 790 421 803T454 817ZM248 817Q267 817 280 803T294 771Q294 751 280 737T248 724Q228 724 214 737T201 771Q201 790 214 803T248 817ZM78 667H161V261Q161 169 209 115T350 62Q443 62 491 115T539 261V667H622V260Q622 198 605 147T554 61T469 7T350 -12Q282 -12 231 7T146 62T95 147T78 259Z" horiz-adv-x="700" unicode="Ü"/>
			<glyph d="M9 667H106L313 357L520 667H617L355 282V0H272V282ZM404 867H482L313 723H256Z" horiz-adv-x="626" unicode="Ý"/>
			<glyph d="M78 667H161V548H346Q396 548 435 532T500 488T541 423T555 346Q555 305 541 268T500 205T434 162T346 146H161V0H78ZM161 474V220H336Q396 220 432 254T469 346Q469 403 432 438T336 474Z" horiz-adv-x="587" unicode="Þ"/>
			<glyph d="M266 677Q300 677 332 668T388 643T426 603T441 551Q441 523 430 504T402 470T366 443T330 419T302 392T291 357Q291 331 312 317T365 295T434 277T503 253T556 209T578 135Q578 106 566 79T531 32T473 0T392 -12Q356 -12 328 -6T278 10T239 35T206 66L244 118Q265 90 303 69T392 49Q449 49 477 75T505 133Q505 162 483 177T430 203T361 222T292 246T239 286T218 356Q218 383 229 403T256 438T291 466T326 489T353 513T364 542Q364 559 355 571T332 592T300 605T265 610Q241 610 220 602T184 580T159 545T150 499V0H75V499Q75 536 88 568T126 625T186 663T266 677Z" horiz-adv-x="597" unicode="ß"/>
			<glyph d="M265 495Q303 495 337 486T396 457T437 407T452 332V0H377V55Q316 -12 217 -12Q186 -12 156 -2T102 28T63 79T48 148Q48 188 63 218T102 268T156 297T217 307Q267 307 307 291T377 241V328Q377 377 342 403T255 430Q170 430 107 363L72 415Q149 495 265 495ZM244 253Q191 253 158 223T125 147Q125 101 158 71T244 42Q284 42 319 57T377 102V193Q355 223 319 238T244 253ZM96 700H174L322 556H265Z" horiz-adv-x="527" unicode="à"/>
			<glyph d="M265 495Q303 495 337 486T396 457T437 407T452 332V0H377V55Q316 -12 217 -12Q186 -12 156 -2T102 28T63 79T48 148Q48 188 63 218T102 268T156 297T217 307Q267 307 307 291T377 241V328Q377 377 342 403T255 430Q170 430 107 363L72 415Q149 495 265 495ZM244 253Q191 253 158 223T125 147Q125 101 158 71T244 42Q284 42 319 57T377 102V193Q355 223 319 238T244 253ZM356 700H434L265 556H208Z" horiz-adv-x="527" unicode="á"/>
			<glyph d="M265 495Q303 495 337 486T396 457T437 407T452 332V0H377V55Q316 -12 217 -12Q186 -12 156 -2T102 28T63 79T48 148Q48 188 63 218T102 268T156 297T217 307Q267 307 307 291T377 241V328Q377 377 342 403T255 430Q170 430 107 363L72 415Q149 495 265 495ZM244 253Q191 253 158 223T125 147Q125 101 158 71T244 42Q284 42 319 57T377 102V193Q355 223 319 238T244 253ZM228 700H300L398 556H347L264 662L184 556H133Z" horiz-adv-x="527" unicode="â"/>
			<glyph d="M265 495Q303 495 337 486T396 457T437 407T452 332V0H377V55Q316 -12 217 -12Q186 -12 156 -2T102 28T63 79T48 148Q48 188 63 218T102 268T156 297T217 307Q267 307 307 291T377 241V328Q377 377 342 403T255 430Q170 430 107 363L72 415Q149 495 265 495ZM244 253Q191 253 158 223T125 147Q125 101 158 71T244 42Q284 42 319 57T377 102V193Q355 223 319 238T244 253ZM206 694Q233 694 249 679T276 648T299 616T329 602Q349 602 363 622T377 688H422Q422 629 397 591T325 554Q298 554 282 568T254 600T231 631T202 646Q182 646 168 625T154 560H109Q109 619 133 656T206 694Z" horiz-adv-x="527" unicode="ã"/>
			<glyph d="M265 495Q303 495 337 486T396 457T437 407T452 332V0H377V55Q316 -12 217 -12Q186 -12 156 -2T102 28T63 79T48 148Q48 188 63 218T102 268T156 297T217 307Q267 307 307 291T377 241V328Q377 377 342 403T255 430Q170 430 107 363L72 415Q149 495 265 495ZM244 253Q191 253 158 223T125 147Q125 101 158 71T244 42Q284 42 319 57T377 102V193Q355 223 319 238T244 253ZM368 650Q387 650 401 636T415 604Q415 584 401 570T368 557Q349 557 335 570T321 604Q321 623 335 636T368 650ZM162 650Q181 650 194 636T208 604Q208 584 194 570T162 557Q142 557 128 570T115 604Q115 623 128 636T162 650Z" horiz-adv-x="527" unicode="ä"/>
			<glyph d="M265 495Q303 495 337 486T396 457T437 407T452 332V0H377V55Q316 -12 217 -12Q186 -12 156 -2T102 28T63 79T48 148Q48 188 63 218T102 268T156 297T217 307Q267 307 307 291T377 241V328Q377 377 342 403T255 430Q170 430 107 363L72 415Q149 495 265 495ZM244 253Q191 253 158 223T125 147Q125 101 158 71T244 42Q284 42 319 57T377 102V193Q355 223 319 238T244 253ZM265 740Q285 740 303 732T334 710T355 679T363 641Q363 600 334 571T265 543Q224 543 195 571T167 641Q167 661 174 679T195 710T227 732T265 740ZM265 700Q241 700 224 683T207 641Q207 617 224 599T265 582Q290 582 306 599T323 641Q323 666 306 683T265 700Z" horiz-adv-x="527" unicode="å"/>
			<glyph d="M277 495Q307 495 334 489T385 470T424 437T448 390Q473 434 517 464T627 495Q679 495 719 475T786 420T828 337T843 236V217H476Q479 183 491 153T523 100T572 65T637 52Q676 52 712 67T776 113L812 62Q777 26 731 7T634 -12Q570 -12 520 16T441 104Q415 52 362 20T242 -12Q203 -12 168 -2T106 28T63 79T48 148Q48 187 62 216T101 266T158 297T226 307Q280 307 324 291T401 243V329Q401 377 364 403T268 430Q220 430 181 414T107 363L72 415Q151 495 277 495ZM622 433Q586 433 559 418T514 380T486 328T476 272H769Q769 299 760 327T734 379T688 418T622 433ZM256 253Q197 253 161 225T125 152Q125 106 161 79T256 52Q288 52 314 63T360 92T390 133T401 180V192Q376 221 337 237T256 253Z" horiz-adv-x="889" unicode="æ"/>
			<glyph d="M288 495Q354 495 395 471T465 411L415 365Q391 398 360 413T292 428Q253 428 222 414T170 375T136 316T125 242Q125 202 136 167T170 108T222 69T292 55Q368 55 415 118L465 72Q439 38 401 15T306 -11L290 -53Q306 -42 327 -42Q356 -42 374 -60T393 -109Q393 -146 362 -167T289 -189Q257 -189 230 -180T188 -159L207 -121Q225 -136 246 -143T287 -150Q311 -150 329 -139T348 -108Q348 -92 339 -82T311 -73Q288 -73 273 -90L240 -71L262 -10Q214 -6 174 15T106 69T62 147T47 242Q47 296 64 342T113 422T189 475T288 495Z" horiz-adv-x="495" unicode="ç"/>
			<glyph d="M285 495Q340 495 383 475T456 420T501 337T517 236V217H126Q128 183 141 152T176 99T230 63T300 50Q342 50 381 66T449 111L485 62Q449 26 401 7T293 -12Q239 -12 194 6T116 58T65 138T47 242Q47 294 65 340T114 421T189 475T285 495ZM284 433Q245 433 216 418T167 380T137 328T126 272H443Q443 299 433 327T404 379T355 418T284 433ZM116 700H194L342 556H285Z" horiz-adv-x="563" unicode="è"/>
			<glyph d="M376 700H454L285 556H228ZM285 495Q340 495 383 475T456 420T501 337T517 236V217H126Q128 183 141 152T176 99T230 63T300 50Q342 50 381 66T449 111L485 62Q449 26 401 7T293 -12Q239 -12 194 6T116 58T65 138T47 242Q47 294 65 340T114 421T189 475T285 495ZM284 433Q245 433 216 418T167 380T137 328T126 272H443Q443 299 433 327T404 379T355 418T284 433Z" horiz-adv-x="563" unicode="é"/>
			<glyph d="M249 700H321L419 556H368L285 662L205 556H154ZM285 495Q340 495 383 475T456 420T501 337T517 236V217H126Q128 183 141 152T176 99T230 63T300 50Q342 50 381 66T449 111L485 62Q449 26 401 7T293 -12Q239 -12 194 6T116 58T65 138T47 242Q47 294 65 340T114 421T189 475T285 495ZM284 433Q245 433 216 418T167 380T137 328T126 272H443Q443 299 433 327T404 379T355 418T284 433Z" horiz-adv-x="563" unicode="ê"/>
			<glyph d="M389 650Q408 650 422 636T436 604Q436 584 422 570T389 557Q370 557 356 570T342 604Q342 623 356 636T389 650ZM183 650Q202 650 215 636T229 604Q229 584 215 570T183 557Q163 557 149 570T136 604Q136 623 149 636T183 650ZM285 495Q340 495 383 475T456 420T501 337T517 236V217H126Q128 183 141 152T176 99T230 63T300 50Q342 50 381 66T449 111L485 62Q449 26 401 7T293 -12Q239 -12 194 6T116 58T65 138T47 242Q47 294 65 340T114 421T189 475T285 495ZM284 433Q245 433 216 418T167 380T137 328T126 272H443Q443 299 433 327T404 379T355 418T284 433Z" horiz-adv-x="563" unicode="ë"/>
			<glyph d="M75 483H150V0H75ZM-56 700H22L170 556H113Z" horiz-adv-x="225" unicode="ì"/>
			<glyph d="M204 700H282L113 556H56ZM75 483H150V0H75Z" horiz-adv-x="225" unicode="í"/>
			<glyph d="M76 700H148L246 556H195L112 662L32 556H-19ZM75 483H150V0H75Z" horiz-adv-x="225" unicode="î"/>
			<glyph d="M217 650Q236 650 250 636T264 604Q264 584 250 570T217 557Q198 557 184 570T170 604Q170 623 184 636T217 650ZM11 650Q30 650 43 636T57 604Q57 584 43 570T11 557Q-9 557 -22 570T-36 604Q-36 623 -22 636T11 650ZM75 483H150V0H75Z" horiz-adv-x="225" unicode="ï"/>
			<glyph d="M188 701Q217 683 245 664T300 625L408 673L425 632L339 594Q379 559 413 520T472 439T511 348T525 247Q525 191 508 143T461 61T385 7T286 -12Q232 -12 188 6T112 58T64 136T47 234Q47 286 63 331T108 409T178 460T267 479Q314 479 353 458T425 390Q397 440 356 481T265 560L122 497L104 539L222 591Q204 603 185 615T147 639ZM286 412Q247 412 217 397T166 358T135 301T125 234Q125 198 135 166T166 109T217 69T286 55Q325 55 354 69T404 109T435 166T446 234Q446 269 435 301T404 358T354 397T286 412Z" unicode="ð"/>
			<glyph d="M322 495Q476 495 476 339V0H401V316Q401 380 371 404T293 428Q271 428 250 422T210 405T175 381T150 353V0H75V483H150V413Q163 428 181 442T221 469T269 488T322 495ZM217 694Q244 694 260 679T287 648T310 616T340 602Q360 602 374 622T388 688H433Q433 629 408 591T336 554Q309 554 293 568T265 600T242 631T213 646Q193 646 179 625T165 560H120Q120 619 144 656T217 694Z" horiz-adv-x="551" unicode="ñ"/>
			<glyph d="M286 495Q341 495 385 475T461 421T508 340T525 242Q525 189 508 143T461 62T385 8T286 -12Q231 -12 186 8T111 62T63 143T47 242Q47 294 63 340T111 421T186 475T286 495ZM286 428Q247 428 217 412T166 371T135 312T125 242Q125 205 135 171T166 111T217 70T286 55Q325 55 354 70T404 111T435 171T446 242Q446 279 435 312T404 371T354 412T286 428ZM117 700H195L343 556H286Z" unicode="ò"/>
			<glyph d="M377 700H455L286 556H229ZM286 495Q341 495 385 475T461 421T508 340T525 242Q525 189 508 143T461 62T385 8T286 -12Q231 -12 186 8T111 62T63 143T47 242Q47 294 63 340T111 421T186 475T286 495ZM286 428Q247 428 217 412T166 371T135 312T125 242Q125 205 135 171T166 111T217 70T286 55Q325 55 354 70T404 111T435 171T446 242Q446 279 435 312T404 371T354 412T286 428Z" unicode="ó"/>
			<glyph d="M249 700H321L419 556H368L285 662L205 556H154ZM286 495Q341 495 385 475T461 421T508 340T525 242Q525 189 508 143T461 62T385 8T286 -12Q231 -12 186 8T111 62T63 143T47 242Q47 294 63 340T111 421T186 475T286 495ZM286 428Q247 428 217 412T166 371T135 312T125 242Q125 205 135 171T166 111T217 70T286 55Q325 55 354 70T404 111T435 171T446 242Q446 279 435 312T404 371T354 412T286 428Z" unicode="ô"/>
			<glyph d="M286 495Q341 495 385 475T461 421T508 340T525 242Q525 189 508 143T461 62T385 8T286 -12Q231 -12 186 8T111 62T63 143T47 242Q47 294 63 340T111 421T186 475T286 495ZM286 428Q247 428 217 412T166 371T135 312T125 242Q125 205 135 171T166 111T217 70T286 55Q325 55 354 70T404 111T435 171T446 242Q446 279 435 312T404 371T354 412T286 428ZM227 694Q254 694 270 679T297 648T320 616T350 602Q370 602 384 622T398 688H443Q443 629 418 591T346 554Q319 554 303 568T275 600T252 631T223 646Q203 646 189 625T175 560H130Q130 619 154 656T227 694Z" unicode="õ"/>
			<glyph d="M389 650Q408 650 422 636T436 604Q436 584 422 570T389 557Q370 557 356 570T342 604Q342 623 356 636T389 650ZM183 650Q202 650 215 636T229 604Q229 584 215 570T183 557Q163 557 149 570T136 604Q136 623 149 636T183 650ZM286 495Q341 495 385 475T461 421T508 340T525 242Q525 189 508 143T461 62T385 8T286 -12Q231 -12 186 8T111 62T63 143T47 242Q47 294 63 340T111 421T186 475T286 495ZM286 428Q247 428 217 412T166 371T135 312T125 242Q125 205 135 171T166 111T217 70T286 55Q325 55 354 70T404 111T435 171T446 242Q446 279 435 312T404 371T354 412T286 428Z" unicode="ö"/>
			<glyph d="M255 572Q275 572 288 559T302 526Q302 507 288 493T255 480Q236 480 223 493T210 526Q210 546 223 559T255 572ZM29 363H482V311H29ZM255 190Q275 190 288 176T302 144Q302 125 288 111T255 98Q236 98 223 111T210 144Q210 163 223 176T255 190Z" horiz-adv-x="511" unicode="÷"/>
			<glyph d="M286 495Q326 495 360 484T423 454L446 483H500L455 426Q489 391 507 344T525 242Q525 189 508 143T461 62T385 8T286 -12Q203 -12 144 33L118 0H64L112 61Q80 96 63 142T47 242Q47 294 63 340T111 421T186 475T286 495ZM408 367L188 89Q208 73 232 64T286 55Q325 55 354 70T404 111T435 171T446 242Q446 315 408 367ZM286 428Q247 428 217 412T166 371T135 312T125 242Q125 172 159 121L378 398Q340 428 286 428Z" unicode="ø"/>
			<glyph d="M75 483H150V165Q150 133 157 112T179 78T214 60T258 55Q302 55 341 77T401 128V483H476V0H401V68Q373 36 328 12T229 -12Q153 -12 114 25T75 142ZM106 700H184L332 556H275Z" horiz-adv-x="551" unicode="ù"/>
			<glyph d="M366 700H444L275 556H218ZM75 483H150V165Q150 133 157 112T179 78T214 60T258 55Q302 55 341 77T401 128V483H476V0H401V68Q373 36 328 12T229 -12Q153 -12 114 25T75 142Z" horiz-adv-x="551" unicode="ú"/>
			<glyph d="M238 700H310L408 556H357L274 662L194 556H143ZM75 483H150V165Q150 133 157 112T179 78T214 60T258 55Q302 55 341 77T401 128V483H476V0H401V68Q373 36 328 12T229 -12Q153 -12 114 25T75 142Z" horiz-adv-x="551" unicode="û"/>
			<glyph d="M380 650Q399 650 413 636T427 604Q427 584 413 570T380 557Q361 557 347 570T333 604Q333 623 347 636T380 650ZM174 650Q193 650 206 636T220 604Q220 584 206 570T174 557Q154 557 140 570T127 604Q127 623 140 636T174 650ZM75 483H150V165Q150 133 157 112T179 78T214 60T258 55Q302 55 341 77T401 128V483H476V0H401V68Q373 36 328 12T229 -12Q153 -12 114 25T75 142Z" horiz-adv-x="551" unicode="ü"/>
			<glyph d="M3 483H84L245 87L405 483H487L245 -98Q223 -151 187 -173T103 -196Q91 -196 75 -194T48 -189L60 -121Q68 -125 80 -127T101 -129Q126 -129 143 -118T173 -78L205 -5ZM336 700H414L245 556H188Z" horiz-adv-x="490" unicode="ý"/>
			<glyph d="M75 667H150V411Q176 448 219 471T313 495Q361 495 400 477T468 427T512 348T528 242Q528 183 512 136T468 56T400 5T313 -12Q263 -12 221 10T150 73V-184H75ZM294 428Q249 428 209 405T150 351V133Q170 101 209 78T294 55Q330 55 359 69T408 108T438 167T449 242Q449 282 438 316T408 375T359 414T294 428Z" unicode="þ"/>
			<glyph d="M3 483H84L245 87L405 483H487L245 -98Q223 -151 187 -173T103 -196Q91 -196 75 -194T48 -189L60 -121Q68 -125 80 -127T101 -129Q126 -129 143 -118T173 -78L205 -5ZM348 650Q367 650 381 636T395 604Q395 584 381 570T348 557Q329 557 315 570T301 604Q301 623 315 636T348 650ZM142 650Q161 650 174 636T188 604Q188 584 174 570T142 557Q122 557 108 570T95 604Q95 623 108 636T142 650Z" horiz-adv-x="490" unicode="ÿ"/>
			<glyph d="M277 667H380L649 0H554L495 148H163L104 0H9ZM329 581L187 222H470ZM147 787H510V739H147Z" horiz-adv-x="658" unicode="Ā"/>
			<glyph d="M265 495Q303 495 337 486T396 457T437 407T452 332V0H377V55Q316 -12 217 -12Q186 -12 156 -2T102 28T63 79T48 148Q48 188 63 218T102 268T156 297T217 307Q267 307 307 291T377 241V328Q377 377 342 403T255 430Q170 430 107 363L72 415Q149 495 265 495ZM244 253Q191 253 158 223T125 147Q125 101 158 71T244 42Q284 42 319 57T377 102V193Q355 223 319 238T244 253ZM82 620H445V572H82Z" horiz-adv-x="527" unicode="ā"/>
			<glyph d="M277 667H380L649 0H554L495 148H163L104 0H9ZM329 581L187 222H470ZM190 825Q214 792 249 772T329 753Q373 753 408 772T467 825L504 793Q474 752 428 728T329 705Q275 705 229 728T153 793Z" horiz-adv-x="658" unicode="Ă"/>
			<glyph d="M265 495Q303 495 337 486T396 457T437 407T452 332V0H377V55Q316 -12 217 -12Q186 -12 156 -2T102 28T63 79T48 148Q48 188 63 218T102 268T156 297T217 307Q267 307 307 291T377 241V328Q377 377 342 403T255 430Q170 430 107 363L72 415Q149 495 265 495ZM244 253Q191 253 158 223T125 147Q125 101 158 71T244 42Q284 42 319 57T377 102V193Q355 223 319 238T244 253ZM125 658Q149 625 184 605T264 586Q308 586 343 605T402 658L439 626Q409 585 363 561T264 538Q210 538 164 561T88 626Z" horiz-adv-x="527" unicode="ă"/>
			<glyph d="M277 667H380L649 0Q613 -18 593 -41T573 -97Q573 -123 585 -135T617 -147Q638 -147 650 -136T669 -105L706 -126Q695 -150 674 -168T617 -186Q582 -186 555 -165T528 -99Q528 -70 542 -45T581 0H554L495 148H163L104 0H9ZM329 581L187 222H470Z" horiz-adv-x="658" unicode="Ą"/>
			<glyph d="M265 495Q303 495 337 486T396 457T437 407T452 332V0Q416 -18 396 -41T376 -97Q376 -123 388 -135T420 -147Q441 -147 453 -136T472 -105L509 -126Q498 -150 477 -168T420 -186Q385 -186 358 -165T331 -99Q331 -70 345 -45T384 0H377V55Q316 -12 217 -12Q186 -12 156 -2T102 28T63 79T48 148Q48 188 63 218T102 268T156 297T217 307Q267 307 307 291T377 241V328Q377 377 342 403T255 430Q170 430 107 363L72 415Q149 495 265 495ZM244 253Q191 253 158 223T125 147Q125 101 158 71T244 42Q284 42 319 57T377 102V193Q355 223 319 238T244 253Z" horiz-adv-x="527" unicode="ą"/>
			<glyph d="M485 867H563L394 723H337ZM394 678Q438 678 475 668T544 640T601 598T647 546L577 507Q548 549 499 576T394 604Q339 604 292 584T210 528T156 442T137 333Q137 274 156 224T210 138T292 82T394 62Q451 62 499 89T577 159L648 120Q606 63 544 25T394 -12Q322 -12 259 13T150 83T77 192T51 333Q51 410 77 473T150 582T259 653T394 678Z" horiz-adv-x="676" unicode="Ć"/>
			<glyph d="M378 700H456L287 556H230ZM288 495Q354 495 395 471T465 411L415 365Q391 398 360 413T292 428Q253 428 222 414T170 375T136 316T125 242Q125 202 136 167T170 108T222 69T292 55Q368 55 415 118L465 72Q437 36 395 12T288 -12Q234 -12 189 7T113 61T64 141T47 242Q47 296 64 342T113 422T189 475T288 495Z" horiz-adv-x="495" unicode="ć"/>
			<glyph d="M356 867H428L526 723H475L392 829L312 723H261ZM394 678Q438 678 475 668T544 640T601 598T647 546L577 507Q548 549 499 576T394 604Q339 604 292 584T210 528T156 442T137 333Q137 274 156 224T210 138T292 82T394 62Q451 62 499 89T577 159L648 120Q606 63 544 25T394 -12Q322 -12 259 13T150 83T77 192T51 333Q51 410 77 473T150 582T259 653T394 678Z" horiz-adv-x="676" unicode="Ĉ"/>
			<glyph d="M251 700H323L421 556H370L287 662L207 556H156ZM288 495Q354 495 395 471T465 411L415 365Q391 398 360 413T292 428Q253 428 222 414T170 375T136 316T125 242Q125 202 136 167T170 108T222 69T292 55Q368 55 415 118L465 72Q437 36 395 12T288 -12Q234 -12 189 7T113 61T64 141T47 242Q47 296 64 342T113 422T189 475T288 495Z" horiz-adv-x="495" unicode="ĉ"/>
			<glyph d="M394 678Q438 678 475 668T544 640T601 598T647 546L577 507Q548 549 499 576T394 604Q339 604 292 584T210 528T156 442T137 333Q137 274 156 224T210 138T292 82T394 62Q451 62 499 89T577 159L648 120Q606 63 544 25T394 -12Q322 -12 259 13T150 83T77 192T51 333Q51 410 77 473T150 582T259 653T394 678ZM396 816Q416 816 429 802T442 769Q442 749 429 735T396 722Q377 722 363 735T349 769Q349 789 363 802T396 816Z" horiz-adv-x="676" unicode="Ċ"/>
			<glyph d="M288 495Q354 495 395 471T465 411L415 365Q391 398 360 413T292 428Q253 428 222 414T170 375T136 316T125 242Q125 202 136 167T170 108T222 69T292 55Q368 55 415 118L465 72Q437 36 395 12T288 -12Q234 -12 189 7T113 61T64 141T47 242Q47 296 64 342T113 422T189 475T288 495ZM290 649Q310 649 323 635T336 602Q336 582 323 568T290 555Q271 555 257 568T243 602Q243 622 257 635T290 649Z" horiz-adv-x="495" unicode="ċ"/>
			<glyph d="M261 867H312L395 761L475 867H526L431 723H359ZM394 678Q438 678 475 668T544 640T601 598T647 546L577 507Q548 549 499 576T394 604Q339 604 292 584T210 528T156 442T137 333Q137 274 156 224T210 138T292 82T394 62Q451 62 499 89T577 159L648 120Q606 63 544 25T394 -12Q322 -12 259 13T150 83T77 192T51 333Q51 410 77 473T150 582T259 653T394 678Z" horiz-adv-x="676" unicode="Č"/>
			<glyph d="M156 700H207L290 594L370 700H421L326 556H254ZM288 495Q354 495 395 471T465 411L415 365Q391 398 360 413T292 428Q253 428 222 414T170 375T136 316T125 242Q125 202 136 167T170 108T222 69T292 55Q368 55 415 118L465 72Q437 36 395 12T288 -12Q234 -12 189 7T113 61T64 141T47 242Q47 296 64 342T113 422T189 475T288 495Z" horiz-adv-x="495" unicode="č"/>
			<glyph d="M219 867H270L353 761L433 867H484L389 723H317ZM78 667H306Q384 667 447 641T554 571T623 465T648 333Q648 262 623 201T554 95T447 25T306 0H78ZM161 593V74H306Q367 74 414 94T495 150T545 232T562 333Q562 387 545 434T495 517T415 572T306 593Z" horiz-adv-x="700" unicode="Ď"/>
			<glyph d="M595 680Q616 680 632 662T648 613Q648 572 627 536T577 479L544 505Q567 520 583 544T602 591Q601 590 597 589T591 589Q573 589 561 601T549 633Q549 653 562 666T595 680ZM425 667H500V0H425V72Q398 35 355 11T262 -12Q215 -12 175 5T107 55T63 135T47 241Q47 299 62 346T106 426T174 477T262 495Q311 495 353 472T425 410ZM280 428Q244 428 215 414T166 375T135 315T125 241Q125 201 135 167T166 108T215 69T280 55Q325 55 365 77T425 131V350Q405 382 365 405T280 428Z" horiz-adv-x="644" unicode="ď"/>
			<glyph d="M106 667H334Q412 667 475 641T582 571T651 465T676 333Q676 262 651 201T582 95T475 25T334 0H106V299H10V360H106ZM189 593V360H358V299H189V74H334Q395 74 442 94T523 150T573 232T590 333Q590 387 573 434T523 517T443 572T334 593Z" horiz-adv-x="728" unicode="Đ"/>
			<glyph d="M425 667H500V583H568V535H500V0H425V72Q398 35 355 11T262 -12Q215 -12 175 5T107 55T63 135T47 241Q47 299 62 346T106 426T174 477T262 495Q311 495 353 472T425 410V535H268V583H425ZM280 428Q244 428 215 414T166 375T135 315T125 241Q125 201 135 167T166 108T215 69T280 55Q325 55 365 77T425 131V350Q405 382 365 405T280 428Z" horiz-adv-x="577" unicode="đ"/>
			<glyph d="M78 667H515V593H161V378H508V304H161V74H515V0H78ZM114 787H477V739H114Z" horiz-adv-x="569" unicode="Ē"/>
			<glyph d="M285 495Q340 495 383 475T456 420T501 337T517 236V217H126Q128 183 141 152T176 99T230 63T300 50Q342 50 381 66T449 111L485 62Q449 26 401 7T293 -12Q239 -12 194 6T116 58T65 138T47 242Q47 294 65 340T114 421T189 475T285 495ZM284 433Q245 433 216 418T167 380T137 328T126 272H443Q443 299 433 327T404 379T355 418T284 433ZM103 620H466V572H103Z" horiz-adv-x="563" unicode="ē"/>
			<glyph d="M78 667H515V593H161V378H508V304H161V74H515V0H78ZM159 825Q183 792 218 772T298 753Q342 753 377 772T436 825L473 793Q443 752 397 728T298 705Q244 705 198 728T122 793Z" horiz-adv-x="569" unicode="Ĕ"/>
			<glyph d="M285 495Q340 495 383 475T456 420T501 337T517 236V217H126Q128 183 141 152T176 99T230 63T300 50Q342 50 381 66T449 111L485 62Q449 26 401 7T293 -12Q239 -12 194 6T116 58T65 138T47 242Q47 294 65 340T114 421T189 475T285 495ZM284 433Q245 433 216 418T167 380T137 328T126 272H443Q443 299 433 327T404 379T355 418T284 433ZM148 658Q172 625 207 605T287 586Q331 586 366 605T425 658L462 626Q432 585 386 561T287 538Q233 538 187 561T111 626Z" horiz-adv-x="563" unicode="ĕ"/>
			<glyph d="M78 667H515V593H161V378H508V304H161V74H515V0H78ZM300 816Q320 816 333 802T346 769Q346 749 333 735T300 722Q281 722 267 735T253 769Q253 789 267 802T300 816Z" horiz-adv-x="569" unicode="Ė"/>
			<glyph d="M285 495Q340 495 383 475T456 420T501 337T517 236V217H126Q128 183 141 152T176 99T230 63T300 50Q342 50 381 66T449 111L485 62Q449 26 401 7T293 -12Q239 -12 194 6T116 58T65 138T47 242Q47 294 65 340T114 421T189 475T285 495ZM284 433Q245 433 216 418T167 380T137 328T126 272H443Q443 299 433 327T404 379T355 418T284 433ZM286 649Q306 649 319 635T332 602Q332 582 319 568T286 555Q267 555 253 568T239 602Q239 622 253 635T286 649Z" horiz-adv-x="563" unicode="ė"/>
			<glyph d="M78 667H515V593H161V378H508V304H161V74H515V0Q479 -18 459 -41T439 -97Q439 -123 451 -135T483 -147Q504 -147 516 -136T535 -105L572 -126Q561 -150 540 -168T483 -186Q448 -186 421 -165T394 -99Q394 -70 408 -45T447 0H78Z" horiz-adv-x="569" unicode="Ę"/>
			<glyph d="M285 495Q340 495 383 475T456 420T501 337T517 236V217H126Q128 183 141 152T176 99T230 63T300 50Q342 50 381 66T449 111L485 62Q439 16 379 0Q343 -18 323 -41T304 -97Q304 -123 316 -135T348 -147Q369 -147 381 -136T400 -105L437 -126Q426 -150 405 -168T348 -186Q313 -186 286 -165T259 -99Q259 -74 269 -52T298 -12H293Q239 -12 194 6T116 58T65 138T47 242Q47 294 65 340T114 421T189 475T285 495ZM284 433Q245 433 216 418T167 380T137 328T126 272H443Q443 299 433 327T404 379T355 418T284 433Z" horiz-adv-x="563" unicode="ę"/>
			<glyph d="M165 867H216L299 761L379 867H430L335 723H263ZM78 667H515V593H161V378H508V304H161V74H515V0H78Z" horiz-adv-x="569" unicode="Ě"/>
			<glyph d="M153 700H204L287 594L367 700H418L323 556H251ZM285 495Q340 495 383 475T456 420T501 337T517 236V217H126Q128 183 141 152T176 99T230 63T300 50Q342 50 381 66T449 111L485 62Q449 26 401 7T293 -12Q239 -12 194 6T116 58T65 138T47 242Q47 294 65 340T114 421T189 475T285 495ZM284 433Q245 433 216 418T167 380T137 328T126 272H443Q443 299 433 327T404 379T355 418T284 433Z" horiz-adv-x="563" unicode="ě"/>
			<glyph d="M361 867H433L531 723H480L397 829L317 723H266ZM394 678Q483 678 545 643T653 553L587 512Q555 553 504 578T394 604Q339 604 292 584T210 528T156 442T137 333Q137 274 156 224T210 138T292 81T394 61Q424 61 451 67T501 84T542 108T573 133V269H344V343H656V102Q609 50 542 18T394 -13Q323 -13 260 12T151 82T78 191T51 333Q51 411 78 474T151 583T260 653T394 678Z" horiz-adv-x="713" unicode="Ĝ"/>
			<glyph d="M253 700H325L423 556H372L289 662L209 556H158ZM262 495Q311 495 353 472T424 410V483H499V14Q499 -46 479 -86T428 -151T354 -185T269 -196Q207 -196 162 -181T74 -124L112 -68Q142 -104 179 -119T269 -134Q299 -134 327 -126T376 -101T411 -56T424 11V80Q398 43 355 18T262 -6Q215 -6 175 11T107 60T63 139T47 244Q47 302 62 348T106 427T174 477T262 495ZM280 428Q244 428 215 414T166 376T135 318T125 244Q125 204 135 170T166 112T215 74T280 60Q302 60 324 66T365 84T399 109T424 139V350Q414 366 399 380T365 404T324 421T280 428Z" horiz-adv-x="574" unicode="ĝ"/>
			<glyph d="M394 678Q483 678 545 643T653 553L587 512Q555 553 504 578T394 604Q339 604 292 584T210 528T156 442T137 333Q137 274 156 224T210 138T292 81T394 61Q424 61 451 67T501 84T542 108T573 133V269H344V343H656V102Q609 50 542 18T394 -13Q323 -13 260 12T151 82T78 191T51 333Q51 411 78 474T151 583T260 653T394 678ZM258 825Q282 792 317 772T397 753Q441 753 476 772T535 825L572 793Q542 752 496 728T397 705Q343 705 297 728T221 793Z" horiz-adv-x="713" unicode="Ğ"/>
			<glyph d="M262 495Q311 495 353 472T424 410V483H499V14Q499 -46 479 -86T428 -151T354 -185T269 -196Q207 -196 162 -181T74 -124L112 -68Q142 -104 179 -119T269 -134Q299 -134 327 -126T376 -101T411 -56T424 11V80Q398 43 355 18T262 -6Q215 -6 175 11T107 60T63 139T47 244Q47 302 62 348T106 427T174 477T262 495ZM280 428Q244 428 215 414T166 376T135 318T125 244Q125 204 135 170T166 112T215 74T280 60Q302 60 324 66T365 84T399 109T424 139V350Q414 366 399 380T365 404T324 421T280 428ZM151 658Q175 625 210 605T290 586Q334 586 369 605T428 658L465 626Q435 585 389 561T290 538Q236 538 190 561T114 626Z" horiz-adv-x="574" unicode="ğ"/>
			<glyph d="M394 678Q483 678 545 643T653 553L587 512Q555 553 504 578T394 604Q339 604 292 584T210 528T156 442T137 333Q137 274 156 224T210 138T292 81T394 61Q424 61 451 67T501 84T542 108T573 133V269H344V343H656V102Q609 50 542 18T394 -13Q323 -13 260 12T151 82T78 191T51 333Q51 411 78 474T151 583T260 653T394 678ZM396 816Q416 816 429 802T442 769Q442 749 429 735T396 722Q377 722 363 735T349 769Q349 789 363 802T396 816Z" horiz-adv-x="713" unicode="Ġ"/>
			<glyph d="M262 495Q311 495 353 472T424 410V483H499V14Q499 -46 479 -86T428 -151T354 -185T269 -196Q207 -196 162 -181T74 -124L112 -68Q142 -104 179 -119T269 -134Q299 -134 327 -126T376 -101T411 -56T424 11V80Q398 43 355 18T262 -6Q215 -6 175 11T107 60T63 139T47 244Q47 302 62 348T106 427T174 477T262 495ZM280 428Q244 428 215 414T166 376T135 318T125 244Q125 204 135 170T166 112T215 74T280 60Q302 60 324 66T365 84T399 109T424 139V350Q414 366 399 380T365 404T324 421T280 428ZM289 649Q309 649 322 635T335 602Q335 582 322 568T289 555Q270 555 256 568T242 602Q242 622 256 635T289 649Z" horiz-adv-x="574" unicode="ġ"/>
			<glyph d="M395 -71Q416 -71 432 -88T448 -138Q448 -179 427 -214T377 -272L344 -246Q367 -231 383 -206T402 -160Q401 -161 397 -161T391 -162Q373 -162 361 -149T349 -118Q349 -98 362 -84T395 -71ZM394 678Q483 678 545 643T653 553L587 512Q555 553 504 578T394 604Q339 604 292 584T210 528T156 442T137 333Q137 274 156 224T210 138T292 81T394 61Q424 61 451 67T501 84T542 108T573 133V269H344V343H656V102Q609 50 542 18T394 -13Q323 -13 260 12T151 82T78 191T51 333Q51 411 78 474T151 583T260 653T394 678Z" horiz-adv-x="713" unicode="Ģ"/>
			<glyph d="M307 752L340 725Q319 711 302 687T283 641H284Q285 641 285 641T288 642Q305 642 319 629T334 597Q334 579 320 565T286 551Q269 551 253 565T238 611Q238 656 258 694T307 752ZM262 495Q311 495 353 472T424 410V483H499V14Q499 -46 479 -86T428 -151T354 -185T269 -196Q207 -196 162 -181T74 -124L112 -68Q142 -104 179 -119T269 -134Q299 -134 327 -126T376 -101T411 -56T424 11V80Q398 43 355 18T262 -6Q215 -6 175 11T107 60T63 139T47 244Q47 302 62 348T106 427T174 477T262 495ZM280 428Q244 428 215 414T166 376T135 318T125 244Q125 204 135 170T166 112T215 74T280 60Q302 60 324 66T365 84T399 109T424 139V350Q414 366 399 380T365 404T324 421T280 428Z" horiz-adv-x="574" unicode="ģ"/>
			<glyph d="M316 867H388L486 723H435L352 829L272 723H221ZM78 667H161V380H551V667H634V0H551V306H161V0H78Z" horiz-adv-x="712" unicode="Ĥ"/>
			<glyph d="M240 867H312L410 723H359L276 829L196 723H145ZM75 667H150V413Q163 428 181 442T221 469T270 488T323 495Q399 495 438 457T477 341V0H402V318Q402 350 394 371T372 405T337 423T293 428Q271 428 250 422T210 405T176 381T150 353V0H75Z" horiz-adv-x="552" unicode="ĥ"/>
			<glyph d="M88 667H171V546H561V667H644V546H721V498H644V0H561V306H171V0H88V498H10V546H88ZM171 498V380H561V498Z" horiz-adv-x="731" unicode="Ħ"/>
			<glyph d="M77 667H152V583H308V535H152V413Q165 428 183 442T223 469T272 488T325 495Q401 495 440 457T479 341V0H404V318Q404 350 396 371T374 405T339 423T295 428Q273 428 252 422T212 405T178 381T152 353V0H77V535H9V583H77Z" horiz-adv-x="554" unicode="ħ"/>
			<glyph d="M78 667H161V0H78ZM61 861Q88 861 104 846T131 815T154 783T184 769Q204 769 218 789T232 855H277Q277 796 252 758T180 721Q153 721 137 735T109 767T86 798T57 813Q37 813 23 792T9 727H-36Q-36 786 -11 823T61 861Z" horiz-adv-x="239" unicode="Ĩ"/>
			<glyph d="M75 483H150V0H75ZM54 694Q81 694 97 679T124 648T147 616T177 602Q197 602 211 622T225 688H270Q270 629 245 591T173 554Q146 554 130 568T102 600T79 631T50 646Q30 646 16 625T2 560H-43Q-43 619 -18 656T54 694Z" horiz-adv-x="225" unicode="ĩ"/>
			<glyph d="M78 667H161V0H78ZM-60 787H303V739H-60Z" horiz-adv-x="239" unicode="Ī"/>
			<glyph d="M75 483H150V0H75ZM-68 620H295V572H-68Z" horiz-adv-x="225" unicode="ī"/>
			<glyph d="M78 667H161V0H78ZM-17 825Q7 792 42 772T122 753Q166 753 201 772T260 825L297 793Q267 752 221 728T122 705Q68 705 22 728T-54 793Z" horiz-adv-x="239" unicode="Ĭ"/>
			<glyph d="M75 483H150V0H75ZM-25 658Q-1 625 34 605T114 586Q158 586 193 605T252 658L289 626Q259 585 213 561T114 538Q60 538 14 561T-62 626Z" horiz-adv-x="225" unicode="ĭ"/>
			<glyph d="M78 667H161V0H78ZM128 23L161 0Q125 -18 105 -41T85 -97Q85 -123 97 -135T129 -147Q150 -147 162 -136T181 -105L218 -126Q207 -150 186 -168T129 -186Q94 -186 67 -165T40 -99Q40 -61 64 -29T128 23Z" horiz-adv-x="239" unicode="Į"/>
			<glyph d="M75 483H150V0Q114 -18 94 -41T74 -97Q74 -123 86 -135T118 -147Q139 -147 151 -136T170 -105L207 -126Q196 -150 175 -168T118 -186Q83 -186 56 -165T29 -99Q29 -70 43 -45T82 0H75ZM112 653Q133 653 148 638T163 602Q163 581 148 566T112 552Q92 552 77 566T62 602Q62 623 77 638T112 653Z" horiz-adv-x="225" unicode="į"/>
			<glyph d="M78 667H161V0H78ZM120 816Q140 816 153 802T166 769Q166 749 153 735T120 722Q101 722 87 735T73 769Q73 789 87 802T120 816Z" horiz-adv-x="239" unicode="İ"/>
			<glyph d="M75 483H150V0H75Z" horiz-adv-x="225" unicode="ı"/>
			<glyph d="M78 667H161V0H78ZM553 667H636V201Q636 147 619 106T574 40T507 1T424 -12Q370 -12 327 6T250 65L293 128Q315 102 345 82T419 62Q481 62 517 100T553 202Z" horiz-adv-x="713" unicode="Ĳ"/>
			<glyph d="M112 653Q133 653 148 638T163 602Q163 581 148 566T112 552Q92 552 77 566T62 602Q62 623 77 638T112 653ZM75 483H150V0H75ZM337 653Q358 653 373 638T388 602Q388 581 373 566T337 552Q317 552 302 566T287 602Q287 623 302 638T337 653ZM300 483H375V-47Q375 -119 338 -157T232 -196Q195 -196 172 -187T126 -160L153 -103Q166 -116 182 -125T222 -134Q256 -134 278 -113T300 -47Z" horiz-adv-x="451" unicode="ĳ"/>
			<glyph d="M318 867H390L488 723H437L354 829L274 723H223ZM314 667H397V201Q397 147 380 106T335 40T268 1T185 -12Q131 -12 88 6T11 65L54 128Q76 102 106 82T180 62Q242 62 278 100T314 202Z" horiz-adv-x="475" unicode="Ĵ"/>
			<glyph d="M78 700H150L248 556H197L114 662L34 556H-17ZM75 483H150V-47Q150 -119 113 -157T7 -196Q-30 -196 -53 -187T-99 -160L-72 -103Q-59 -116 -42 -125T-3 -134Q31 -134 53 -113T75 -47Z" horiz-adv-x="225" unicode="ĵ"/>
			<glyph d="M307 -71Q328 -71 344 -88T360 -138Q360 -179 339 -214T289 -272L256 -246Q279 -231 295 -206T314 -160Q313 -161 309 -161T303 -162Q285 -162 273 -149T261 -118Q261 -98 274 -84T307 -71ZM78 667H161V322L456 667H560L282 350L584 0H481L228 300L161 224V0H78Z" horiz-adv-x="606" unicode="Ķ"/>
			<glyph d="M261 -71Q282 -71 298 -88T314 -138Q314 -179 293 -214T243 -272L210 -246Q233 -231 249 -206T268 -160Q267 -161 263 -161T257 -162Q239 -162 227 -149T215 -118Q215 -98 228 -84T261 -71ZM75 667H150V226L404 483H499L285 264L500 0H404L230 217L150 138V0H75Z" horiz-adv-x="514" unicode="ķ"/>
			<glyph d="M75 483H150V226L404 483H499L285 264L500 0H404L230 217L150 138V0H75Z" horiz-adv-x="514" unicode="ĸ"/>
			<glyph d="M365 867H443L274 723H217ZM78 667H161V74H471V0H78Z" horiz-adv-x="510" unicode="Ĺ"/>
			<glyph d="M204 867H282L113 723H56ZM75 667H150V0H75Z" horiz-adv-x="225" unicode="ĺ"/>
			<glyph d="M266 -71Q287 -71 303 -88T319 -138Q319 -179 298 -214T248 -272L215 -246Q238 -231 254 -206T273 -160Q272 -161 268 -161T262 -162Q244 -162 232 -149T220 -118Q220 -98 233 -84T266 -71ZM78 667H161V74H471V0H78Z" horiz-adv-x="510" unicode="Ļ"/>
			<glyph d="M117 -71Q138 -71 154 -88T170 -138Q170 -179 149 -214T99 -272L66 -246Q89 -231 105 -206T124 -160Q123 -161 119 -161T113 -162Q95 -162 83 -149T71 -118Q71 -98 84 -84T117 -71ZM75 667H150V0H75Z" horiz-adv-x="225" unicode="ļ"/>
			<glyph d="M301 680Q322 680 338 662T354 613Q354 572 333 536T283 479L250 505Q273 520 289 544T308 591Q307 590 303 589T297 589Q279 589 267 601T255 633Q255 653 268 666T301 680ZM78 667H161V74H471V0H78Z" horiz-adv-x="510" unicode="Ľ"/>
			<glyph d="M258 680Q279 680 295 662T311 613Q311 572 290 536T240 479L207 505Q230 520 246 544T265 591Q264 590 260 589T254 589Q236 589 224 601T212 633Q212 653 225 666T258 680ZM75 667H150V0H75Z" horiz-adv-x="291" unicode="ľ"/>
			<glyph d="M78 667H161V74H471V0H78ZM369 396Q392 396 408 380T424 341Q424 319 408 303T369 287Q346 287 330 303T314 341Q314 364 330 380T369 396Z" horiz-adv-x="510" unicode="Ŀ"/>
			<glyph d="M75 667H150V0H75ZM266 299Q289 299 305 283T321 244Q321 222 305 206T266 190Q243 190 227 206T211 244Q211 267 227 283T266 299Z" horiz-adv-x="307" unicode="ŀ"/>
			<glyph d="M97 667H180V391L277 447V375L180 319V74H490V0H97V271L10 221V293L97 343Z" horiz-adv-x="529" unicode="Ł"/>
			<glyph d="M106 667H181V386L276 440V380L181 326V0H106V283L10 228V288L106 343Z" horiz-adv-x="287" unicode="ł"/>
			<glyph d="M453 867H531L362 723H305ZM78 667H163L547 146V667H630V0H550L161 532V0H78Z" horiz-adv-x="708" unicode="Ń"/>
			<glyph d="M366 700H444L275 556H218ZM322 495Q476 495 476 339V0H401V316Q401 380 371 404T293 428Q271 428 250 422T210 405T175 381T150 353V0H75V483H150V413Q163 428 181 442T221 469T269 488T322 495Z" horiz-adv-x="551" unicode="ń"/>
			<glyph d="M358 -71Q379 -71 395 -88T411 -138Q411 -179 390 -214T340 -272L307 -246Q330 -231 346 -206T365 -160Q364 -161 360 -161T354 -162Q336 -162 324 -149T312 -118Q312 -98 325 -84T358 -71ZM78 667H163L547 146V667H630V0H550L161 532V0H78Z" horiz-adv-x="708" unicode="Ņ"/>
			<glyph d="M277 -71Q298 -71 314 -88T330 -138Q330 -179 309 -214T259 -272L226 -246Q249 -231 265 -206T284 -160Q283 -161 279 -161T273 -162Q255 -162 243 -149T231 -118Q231 -98 244 -84T277 -71ZM322 495Q476 495 476 339V0H401V316Q401 380 371 404T293 428Q271 428 250 422T210 405T175 381T150 353V0H75V483H150V413Q163 428 181 442T221 469T269 488T322 495Z" horiz-adv-x="551" unicode="ņ"/>
			<glyph d="M220 867H271L354 761L434 867H485L390 723H318ZM78 667H163L547 146V667H630V0H550L161 532V0H78Z" horiz-adv-x="708" unicode="Ň"/>
			<glyph d="M144 700H195L278 594L358 700H409L314 556H242ZM322 495Q476 495 476 339V0H401V316Q401 380 371 404T293 428Q271 428 250 422T210 405T175 381T150 353V0H75V483H150V413Q163 428 181 442T221 469T269 488T322 495Z" horiz-adv-x="551" unicode="ň"/>
			<glyph d="M109 743Q130 743 146 725T162 676Q162 635 141 599T91 542L58 568Q81 583 97 607T116 654Q115 653 111 652T105 652Q87 652 75 664T63 696Q63 716 76 729T109 743ZM322 495Q476 495 476 339V0H401V316Q401 380 371 404T293 428Q271 428 250 422T210 405T175 381T150 353V0H75V483H150V413Q163 428 181 442T221 469T269 488T322 495Z" horiz-adv-x="551" unicode="ŉ"/>
			<glyph d="M78 667H163L547 146V667H630V15Q630 -39 613 -79T568 -145T501 -183T418 -196Q365 -196 322 -178T244 -119L288 -56Q309 -82 339 -102T413 -122Q472 -122 507 -87T546 4L161 532V0H78Z" horiz-adv-x="708" unicode="Ŋ"/>
			<glyph d="M322 495Q476 495 476 339V-47Q476 -119 439 -157T333 -196Q296 -196 273 -187T228 -160L254 -99Q267 -112 283 -120T323 -129Q357 -129 379 -109T401 -47V316Q401 380 371 404T293 428Q271 428 250 422T210 405T175 381T150 353V0H75V483H150V413Q163 428 181 442T221 469T269 488T322 495Z" horiz-adv-x="551" unicode="ŋ"/>
			<glyph d="M200 787H563V739H200ZM382 678Q456 678 517 652T621 579T689 470T713 333Q713 259 689 196T621 86T517 14T382 -12Q308 -12 247 14T142 86T75 196T51 333Q51 407 75 470T142 579T247 652T382 678ZM382 604Q326 604 280 583T203 527T154 441T137 333Q137 275 154 225T203 139T280 82T382 62Q438 62 483 82T560 139T609 225T627 333Q627 391 609 441T560 527T483 583T382 604Z" horiz-adv-x="765" unicode="Ō"/>
			<glyph d="M104 620H467V572H104ZM286 495Q341 495 385 475T461 421T508 340T525 242Q525 189 508 143T461 62T385 8T286 -12Q231 -12 186 8T111 62T63 143T47 242Q47 294 63 340T111 421T186 475T286 495ZM286 428Q247 428 217 412T166 371T135 312T125 242Q125 205 135 171T166 111T217 70T286 55Q325 55 354 70T404 111T435 171T446 242Q446 279 435 312T404 371T354 412T286 428Z" unicode="ō"/>
			<glyph d="M382 678Q456 678 517 652T621 579T689 470T713 333Q713 259 689 196T621 86T517 14T382 -12Q308 -12 247 14T142 86T75 196T51 333Q51 407 75 470T142 579T247 652T382 678ZM382 604Q326 604 280 583T203 527T154 441T137 333Q137 275 154 225T203 139T280 82T382 62Q438 62 483 82T560 139T609 225T627 333Q627 391 609 441T560 527T483 583T382 604ZM243 825Q267 792 302 772T382 753Q426 753 461 772T520 825L557 793Q527 752 481 728T382 705Q328 705 282 728T206 793Z" horiz-adv-x="765" unicode="Ŏ"/>
			<glyph d="M286 495Q341 495 385 475T461 421T508 340T525 242Q525 189 508 143T461 62T385 8T286 -12Q231 -12 186 8T111 62T63 143T47 242Q47 294 63 340T111 421T186 475T286 495ZM286 428Q247 428 217 412T166 371T135 312T125 242Q125 205 135 171T166 111T217 70T286 55Q325 55 354 70T404 111T435 171T446 242Q446 279 435 312T404 371T354 412T286 428ZM148 658Q172 625 207 605T287 586Q331 586 366 605T425 658L462 626Q432 585 386 561T287 538Q233 538 187 561T111 626Z" unicode="ŏ"/>
			<glyph d="M366 867H435L320 723H272ZM508 867H577L462 723H414ZM382 678Q456 678 517 652T621 579T689 470T713 333Q713 259 689 196T621 86T517 14T382 -12Q308 -12 247 14T142 86T75 196T51 333Q51 407 75 470T142 579T247 652T382 678ZM382 604Q326 604 280 583T203 527T154 441T137 333Q137 275 154 225T203 139T280 82T382 62Q438 62 483 82T560 139T609 225T627 333Q627 391 609 441T560 527T483 583T382 604Z" horiz-adv-x="765" unicode="Ő"/>
			<glyph d="M270 700H339L224 556H176ZM412 700H481L366 556H318ZM286 495Q341 495 385 475T461 421T508 340T525 242Q525 189 508 143T461 62T385 8T286 -12Q231 -12 186 8T111 62T63 143T47 242Q47 294 63 340T111 421T186 475T286 495ZM286 428Q247 428 217 412T166 371T135 312T125 242Q125 205 135 171T166 111T217 70T286 55Q325 55 354 70T404 111T435 171T446 242Q446 279 435 312T404 371T354 412T286 428Z" unicode="ő"/>
			<glyph d="M375 677Q410 677 445 669T511 644T568 603T613 546V667H1051V593H696V378H1044V304H696V74H1051V0H613V120Q595 87 568 62T511 21T445 -3T375 -12Q302 -12 242 14T140 86T74 196T51 333Q51 407 74 470T140 579T242 651T375 677ZM384 603Q327 603 281 582T203 526T154 440T137 333Q137 274 154 224T203 139T281 82T384 62Q462 62 523 102T613 223V443Q584 523 522 563T384 603Z" horiz-adv-x="1105" unicode="Œ"/>
			<glyph d="M286 495Q331 495 365 480T423 445T462 400T486 357Q494 376 510 400T550 445T607 480T684 495Q739 495 782 475T855 420T900 337T916 236V217H526Q528 183 541 152T576 99T629 63T699 50Q741 50 780 66T849 111L885 62Q848 26 800 7T693 -12Q646 -12 611 1T552 36T510 81T485 126Q476 106 460 82T421 37T364 2T286 -12Q231 -12 186 8T111 62T63 143T47 242Q47 294 63 340T111 421T186 475T286 495ZM683 433Q644 433 615 418T566 380T536 328T525 272H843Q842 299 832 327T803 379T754 418T683 433ZM286 428Q248 428 218 413T167 372T136 313T125 242Q125 204 136 169T167 109T218 69T286 54Q324 54 353 69T403 109T435 169T446 242Q446 280 435 313T403 372T353 413T286 428Z" horiz-adv-x="962" unicode="œ"/>
			<glyph d="M402 867H480L311 723H254ZM78 667H346Q392 667 430 653T496 612T539 549T555 466Q555 421 541 386T503 327T447 289T382 272L562 0H464L294 265H161V0H78ZM161 593V338H336Q396 338 432 373T469 466Q469 523 432 558T336 593Z" horiz-adv-x="608" unicode="Ŕ"/>
			<glyph d="M284 700H362L193 556H136ZM311 493V416Q297 419 281 419Q264 419 244 412T206 395T173 370T150 342V0H75V483H150V405Q179 443 220 468T311 493Z" horiz-adv-x="330" unicode="ŕ"/>
			<glyph d="M309 -71Q330 -71 346 -88T362 -138Q362 -179 341 -214T291 -272L258 -246Q281 -231 297 -206T316 -160Q315 -161 311 -161T305 -162Q287 -162 275 -149T263 -118Q263 -98 276 -84T309 -71ZM78 667H346Q392 667 430 653T496 612T539 549T555 466Q555 421 541 386T503 327T447 289T382 272L562 0H464L294 265H161V0H78ZM161 593V338H336Q396 338 432 373T469 466Q469 523 432 558T336 593Z" horiz-adv-x="608" unicode="Ŗ"/>
			<glyph d="M168 -71Q189 -71 205 -88T221 -138Q221 -179 200 -214T150 -272L117 -246Q140 -231 156 -206T175 -160Q174 -161 170 -161T164 -162Q146 -162 134 -149T122 -118Q122 -98 135 -84T168 -71ZM311 493V416Q297 419 281 419Q264 419 244 412T206 395T173 370T150 342V0H75V483H150V405Q179 443 220 468T311 493Z" horiz-adv-x="330" unicode="ŗ"/>
			<glyph d="M173 867H224L307 761L387 867H438L343 723H271ZM78 667H346Q392 667 430 653T496 612T539 549T555 466Q555 421 541 386T503 327T447 289T382 272L562 0H464L294 265H161V0H78ZM161 593V338H336Q396 338 432 373T469 466Q469 523 432 558T336 593Z" horiz-adv-x="608" unicode="Ř"/>
			<glyph d="M59 700H110L193 594L273 700H324L229 556H157ZM311 493V416Q297 419 281 419Q264 419 244 412T206 395T173 370T150 342V0H75V483H150V405Q179 443 220 468T311 493Z" horiz-adv-x="330" unicode="ř"/>
			<glyph d="M382 867H460L291 723H234ZM288 677Q365 677 424 653T525 584L475 523Q437 565 387 584T282 603Q222 603 183 574T145 497Q145 469 162 451T206 420T269 397T342 377T415 353T478 317T523 263T540 184Q540 148 527 112T484 49T408 5T294 -12Q206 -12 143 17T38 94L87 157Q103 139 125 121T173 91T231 70T297 62Q342 62 372 73T420 100T446 137T454 177Q454 209 437 230T392 265T329 289T256 309T183 333T120 366T76 417T59 492Q59 533 76 567T124 625T197 663T288 677Z" horiz-adv-x="586" unicode="Ś"/>
			<glyph d="M319 700H397L228 556H171ZM226 495Q288 495 332 474T405 425L370 373Q348 399 310 416T226 434Q176 434 147 412T119 358Q119 332 141 318T196 294T268 276T340 252T396 208T418 134Q418 104 406 77T370 30T310 0T228 -12Q168 -12 119 6T33 64L72 118Q96 90 138 69T231 49Q287 49 316 72T345 132Q345 161 323 176T267 202T195 220T123 244T68 285T46 356Q46 384 58 409T93 454T149 484T226 495Z" horiz-adv-x="465" unicode="ś"/>
			<glyph d="M248 867H320L418 723H367L284 829L204 723H153ZM288 677Q365 677 424 653T525 584L475 523Q437 565 387 584T282 603Q222 603 183 574T145 497Q145 469 162 451T206 420T269 397T342 377T415 353T478 317T523 263T540 184Q540 148 527 112T484 49T408 5T294 -12Q206 -12 143 17T38 94L87 157Q103 139 125 121T173 91T231 70T297 62Q342 62 372 73T420 100T446 137T454 177Q454 209 437 230T392 265T329 289T256 309T183 333T120 366T76 417T59 492Q59 533 76 567T124 625T197 663T288 677Z" horiz-adv-x="586" unicode="Ŝ"/>
			<glyph d="M191 700H263L361 556H310L227 662L147 556H96ZM226 495Q288 495 332 474T405 425L370 373Q348 399 310 416T226 434Q176 434 147 412T119 358Q119 332 141 318T196 294T268 276T340 252T396 208T418 134Q418 104 406 77T370 30T310 0T228 -12Q168 -12 119 6T33 64L72 118Q96 90 138 69T231 49Q287 49 316 72T345 132Q345 161 323 176T267 202T195 220T123 244T68 285T46 356Q46 384 58 409T93 454T149 484T226 495Z" horiz-adv-x="465" unicode="ŝ"/>
			<glyph d="M288 677Q365 677 424 653T525 584L475 523Q437 565 387 584T282 603Q222 603 183 574T145 497Q145 469 162 451T206 420T269 397T342 377T415 353T478 317T523 263T540 184Q540 148 527 114T487 52T414 7T306 -12L289 -55Q305 -44 326 -44Q355 -44 373 -62T392 -111Q392 -148 361 -169T288 -191Q256 -191 229 -182T187 -161L206 -123Q224 -138 245 -145T286 -152Q310 -152 328 -141T347 -110Q347 -94 338 -84T310 -75Q287 -75 272 -92L239 -73L262 -11Q187 -5 131 23T38 94L87 157Q103 139 125 121T173 91T231 70T297 62Q342 62 372 73T420 100T446 137T454 177Q454 209 437 230T392 265T329 289T256 309T183 333T120 366T76 417T59 492Q59 533 76 567T124 625T197 663T288 677Z" horiz-adv-x="586" unicode="Ş"/>
			<glyph d="M226 495Q288 495 332 474T405 425L370 373Q348 399 310 416T226 434Q176 434 147 412T119 358Q119 332 141 318T196 294T268 276T340 252T396 208T418 134Q418 75 374 34T245 -11L228 -55Q244 -44 265 -44Q294 -44 312 -62T331 -111Q331 -148 300 -169T227 -191Q195 -191 168 -182T126 -161L145 -123Q163 -138 184 -145T225 -152Q249 -152 267 -141T286 -110Q286 -94 277 -84T249 -75Q226 -75 211 -92L178 -73L201 -11Q150 -7 107 11T33 64L72 118Q96 90 138 69T231 49Q287 49 316 72T345 132Q345 161 323 176T267 202T195 220T123 244T68 285T46 356Q46 384 58 409T93 454T149 484T226 495Z" horiz-adv-x="465" unicode="ş"/>
			<glyph d="M153 867H204L287 761L367 867H418L323 723H251ZM288 677Q365 677 424 653T525 584L475 523Q437 565 387 584T282 603Q222 603 183 574T145 497Q145 469 162 451T206 420T269 397T342 377T415 353T478 317T523 263T540 184Q540 148 527 112T484 49T408 5T294 -12Q206 -12 143 17T38 94L87 157Q103 139 125 121T173 91T231 70T297 62Q342 62 372 73T420 100T446 137T454 177Q454 209 437 230T392 265T329 289T256 309T183 333T120 366T76 417T59 492Q59 533 76 567T124 625T197 663T288 677Z" horiz-adv-x="586" unicode="Š"/>
			<glyph d="M96 700H147L230 594L310 700H361L266 556H194ZM226 495Q288 495 332 474T405 425L370 373Q348 399 310 416T226 434Q176 434 147 412T119 358Q119 332 141 318T196 294T268 276T340 252T396 208T418 134Q418 104 406 77T370 30T310 0T228 -12Q168 -12 119 6T33 64L72 118Q96 90 138 69T231 49Q287 49 316 72T345 132Q345 161 323 176T267 202T195 220T123 244T68 285T46 356Q46 384 58 409T93 454T149 484T226 495Z" horiz-adv-x="465" unicode="š"/>
			<glyph d="M288 -71Q309 -71 325 -88T341 -138Q341 -179 320 -214T270 -272L237 -246Q260 -231 276 -206T295 -160Q294 -161 290 -161T284 -162Q266 -162 254 -149T242 -118Q242 -98 255 -84T288 -71ZM32 667H538V593H326V0H243V593H32Z" horiz-adv-x="570" unicode="Ţ"/>
			<glyph d="M150 -71Q171 -71 187 -88T203 -138Q203 -179 182 -214T132 -272L99 -246Q122 -231 138 -206T157 -160Q156 -161 152 -161T146 -162Q128 -162 116 -149T104 -118Q104 -98 117 -84T150 -71ZM90 615H165V483H263V417H165V117Q165 90 177 72T214 55Q230 55 243 61T265 75L287 19Q273 5 251 -3T197 -12Q143 -12 116 17T90 101V417H10V483H90Z" horiz-adv-x="294" unicode="ţ"/>
			<glyph d="M152 867H203L286 761L366 867H417L322 723H250ZM32 667H538V593H326V0H243V593H32Z" horiz-adv-x="570" unicode="Ť"/>
			<glyph d="M272 743Q293 743 309 725T325 676Q325 635 304 599T254 542L221 568Q244 583 260 607T279 654Q278 653 274 652T268 652Q250 652 238 664T226 696Q226 716 239 729T272 743ZM90 615H165V483H263V417H165V117Q165 90 177 72T214 55Q230 55 243 61T265 75L287 19Q273 5 251 -3T197 -12Q143 -12 116 17T90 101V417H10V483H90Z" horiz-adv-x="313" unicode="ť"/>
			<glyph d="M32 667H538V593H326V342H478V294H326V0H243V294H93V342H243V593H32Z" horiz-adv-x="570" unicode="Ŧ"/>
			<glyph d="M90 615H165V483H263V417H165V274H235V226H165V117Q165 90 177 72T214 55Q230 55 243 61T265 75L287 19Q273 5 251 -3T197 -12Q143 -12 116 17T90 101V226H10V274H90V417H10V483H90Z" horiz-adv-x="294" unicode="ŧ"/>
			<glyph d="M78 667H161V261Q161 169 209 115T350 62Q443 62 491 115T539 261V667H622V260Q622 198 605 147T554 61T469 7T350 -12Q282 -12 231 7T146 62T95 147T78 259ZM293 861Q320 861 336 846T363 815T386 783T416 769Q436 769 450 789T464 855H509Q509 796 484 758T412 721Q385 721 369 735T341 767T318 798T289 813Q269 813 255 792T241 727H196Q196 786 220 823T293 861Z" horiz-adv-x="700" unicode="Ũ"/>
			<glyph d="M75 483H150V165Q150 133 157 112T179 78T214 60T258 55Q302 55 341 77T401 128V483H476V0H401V68Q373 36 328 12T229 -12Q153 -12 114 25T75 142ZM216 694Q243 694 259 679T286 648T309 616T339 602Q359 602 373 622T387 688H432Q432 629 407 591T335 554Q308 554 292 568T264 600T241 631T212 646Q192 646 178 625T164 560H119Q119 619 143 656T216 694Z" horiz-adv-x="551" unicode="ũ"/>
			<glyph d="M78 667H161V261Q161 169 209 115T350 62Q443 62 491 115T539 261V667H622V260Q622 198 605 147T554 61T469 7T350 -12Q282 -12 231 7T146 62T95 147T78 259ZM169 787H532V739H169Z" horiz-adv-x="700" unicode="Ū"/>
			<glyph d="M75 483H150V165Q150 133 157 112T179 78T214 60T258 55Q302 55 341 77T401 128V483H476V0H401V68Q373 36 328 12T229 -12Q153 -12 114 25T75 142ZM93 620H456V572H93Z" horiz-adv-x="551" unicode="ū"/>
			<glyph d="M78 667H161V261Q161 169 209 115T350 62Q443 62 491 115T539 261V667H622V260Q622 198 605 147T554 61T469 7T350 -12Q282 -12 231 7T146 62T95 147T78 259ZM214 825Q238 792 273 772T353 753Q397 753 432 772T491 825L528 793Q498 752 452 728T353 705Q299 705 253 728T177 793Z" horiz-adv-x="700" unicode="Ŭ"/>
			<glyph d="M75 483H150V165Q150 133 157 112T179 78T214 60T258 55Q302 55 341 77T401 128V483H476V0H401V68Q373 36 328 12T229 -12Q153 -12 114 25T75 142ZM138 658Q162 625 197 605T277 586Q321 586 356 605T415 658L452 626Q422 585 376 561T277 538Q223 538 177 561T101 626Z" horiz-adv-x="551" unicode="ŭ"/>
			<glyph d="M351 907Q371 907 389 899T420 877T441 846T449 808Q449 767 420 738T351 710Q310 710 281 738T253 808Q253 828 260 846T281 877T313 899T351 907ZM351 867Q327 867 310 850T293 808Q293 784 310 766T351 749Q376 749 392 766T409 808Q409 833 392 850T351 867ZM78 667H161V261Q161 169 209 115T350 62Q443 62 491 115T539 261V667H622V260Q622 198 605 147T554 61T469 7T350 -12Q282 -12 231 7T146 62T95 147T78 259Z" horiz-adv-x="700" unicode="Ů"/>
			<glyph d="M276 740Q296 740 314 732T345 710T366 679T374 641Q374 600 345 571T276 543Q235 543 206 571T178 641Q178 661 185 679T206 710T238 732T276 740ZM276 700Q252 700 235 683T218 641Q218 617 235 599T276 582Q301 582 317 599T334 641Q334 666 317 683T276 700ZM75 483H150V165Q150 133 157 112T179 78T214 60T258 55Q302 55 341 77T401 128V483H476V0H401V68Q373 36 328 12T229 -12Q153 -12 114 25T75 142Z" horiz-adv-x="551" unicode="ů"/>
			<glyph d="M78 667H161V261Q161 169 209 115T350 62Q443 62 491 115T539 261V667H622V260Q622 198 605 147T554 61T469 7T350 -12Q282 -12 231 7T146 62T95 147T78 259ZM335 867H404L289 723H241ZM477 867H546L431 723H383Z" horiz-adv-x="700" unicode="Ű"/>
			<glyph d="M75 483H150V165Q150 133 157 112T179 78T214 60T258 55Q302 55 341 77T401 128V483H476V0H401V68Q373 36 328 12T229 -12Q153 -12 114 25T75 142ZM260 700H329L214 556H166ZM402 700H471L356 556H308Z" horiz-adv-x="551" unicode="ű"/>
			<glyph d="M78 667H161V261Q161 169 209 115T350 62Q443 62 491 115T539 261V667H622V260Q622 160 578 92T447 0Q411 -18 391 -41T371 -97Q371 -123 383 -135T415 -147Q436 -147 448 -136T467 -105L504 -126Q493 -150 472 -168T415 -186Q380 -186 353 -165T326 -99Q326 -74 336 -52T365 -12H350Q282 -12 231 7T146 62T95 147T78 259Z" horiz-adv-x="700" unicode="Ų"/>
			<glyph d="M75 483H150V165Q150 133 157 112T179 78T214 60T258 55Q302 55 341 77T401 128V483H476V0Q440 -18 420 -41T400 -97Q400 -123 412 -135T444 -147Q465 -147 477 -136T496 -105L533 -126Q522 -150 501 -168T444 -186Q409 -186 382 -165T355 -99Q355 -70 369 -45T408 0H401V68Q373 36 328 12T229 -12Q153 -12 114 25T75 142Z" horiz-adv-x="551" unicode="ų"/>
			<glyph d="M404 867H476L574 723H523L440 829L360 723H309ZM14 667H106L254 111L407 667H476L629 111L776 667H868L678 0H588L441 538L294 0H204Z" horiz-adv-x="883" unicode="Ŵ"/>
			<glyph d="M330 700H402L500 556H449L366 662L286 556H235ZM12 483H90L208 98L335 483H399L526 98L644 483H722L568 0H493L367 388L241 0H166Z" horiz-adv-x="734" unicode="ŵ"/>
			<glyph d="M277 867H349L447 723H396L313 829L233 723H182ZM9 667H106L313 357L520 667H617L355 282V0H272V282Z" horiz-adv-x="626" unicode="Ŷ"/>
			<glyph d="M3 483H84L245 87L405 483H487L245 -98Q223 -151 187 -173T103 -196Q91 -196 75 -194T48 -189L60 -121Q68 -125 80 -127T101 -129Q126 -129 143 -118T173 -78L205 -5ZM208 700H280L378 556H327L244 662L164 556H113Z" horiz-adv-x="490" unicode="ŷ"/>
			<glyph d="M418 817Q437 817 451 803T465 771Q465 751 451 737T418 724Q399 724 385 737T371 771Q371 790 385 803T418 817ZM212 817Q231 817 244 803T258 771Q258 751 244 737T212 724Q192 724 178 737T165 771Q165 790 178 803T212 817ZM9 667H106L313 357L520 667H617L355 282V0H272V282Z" horiz-adv-x="626" unicode="Ÿ"/>
			<glyph d="M383 867H461L292 723H235ZM48 667H529V598L154 74H536V0H48V69L423 593H48Z" horiz-adv-x="585" unicode="Ź"/>
			<glyph d="M326 700H404L235 556H178ZM52 483H416V426L148 65H420V0H52V58L318 417H52Z" horiz-adv-x="472" unicode="ź"/>
			<glyph d="M48 667H529V598L154 74H536V0H48V69L423 593H48ZM290 816Q310 816 323 802T336 769Q336 749 323 735T290 722Q271 722 257 735T243 769Q243 789 257 802T290 816Z" horiz-adv-x="585" unicode="Ż"/>
			<glyph d="M52 483H416V426L148 65H420V0H52V58L318 417H52ZM235 649Q255 649 268 635T281 602Q281 582 268 568T235 555Q216 555 202 568T188 602Q188 622 202 635T235 649Z" horiz-adv-x="472" unicode="ż"/>
			<glyph d="M157 867H208L291 761L371 867H422L327 723H255ZM48 667H529V598L154 74H536V0H48V69L423 593H48Z" horiz-adv-x="585" unicode="Ž"/>
			<glyph d="M98 700H149L232 594L312 700H363L268 556H196ZM52 483H416V426L148 65H420V0H52V58L318 417H52Z" horiz-adv-x="472" unicode="ž"/>
			<glyph d="M236 677Q265 677 290 669T338 640L307 587Q295 598 280 604T247 610Q210 610 190 586T171 520V0H96V417H16V483H96V520Q96 595 133 636T236 677Z" horiz-adv-x="283" unicode="ſ"/>
			<glyph d="M351 677Q380 677 402 669T445 641L408 580Q390 603 358 603Q322 603 295 579T258 511L216 322H355V254H201L109 -161H25L117 254H49V322H131L177 526Q192 596 239 636T351 677Z" horiz-adv-x="431" unicode="ƒ"/>
			<glyph d="M669 727Q689 727 704 710T719 664Q719 626 700 592T654 538Q682 495 697 443T713 333Q713 259 689 196T621 86T517 14T382 -12Q308 -12 247 14T142 86T75 196T51 333Q51 407 75 470T142 579T247 652T382 678Q460 678 523 648T631 568Q649 583 662 603T677 644Q676 643 672 642T666 642Q649 642 638 654T627 683Q627 701 639 714T669 727ZM382 604Q326 604 280 583T203 527T154 441T137 333Q137 275 154 225T203 139T280 82T382 62Q438 62 483 82T560 139T609 225T627 333Q627 391 609 441T560 527T483 583T382 604Z" horiz-adv-x="765" unicode="Ơ"/>
			<glyph d="M477 593Q497 593 512 576T527 530Q527 495 510 463T469 410Q496 377 510 333T525 242Q525 189 508 143T461 62T385 8T286 -12Q231 -12 186 8T111 62T63 143T47 242Q47 294 63 340T111 421T186 475T286 495Q334 495 373 479T443 438Q460 452 471 472T485 510Q483 510 479 509T474 509Q457 509 445 520T434 550Q434 567 446 580T477 593ZM286 428Q247 428 217 412T166 371T135 312T125 242Q125 205 135 171T166 111T217 70T286 55Q325 55 354 70T404 111T435 171T446 242Q446 279 435 312T404 371T354 412T286 428Z" unicode="ơ"/>
			<glyph d="M688 791Q708 791 723 774T738 728Q738 680 707 638T622 574V260Q622 198 605 147T554 61T469 7T350 -12Q282 -12 231 7T146 62T95 147T78 259V667H161V261Q161 169 209 115T350 62Q443 62 491 115T539 261V667H622V613Q651 627 672 653T695 708Q694 708 690 707T684 707Q667 707 656 718T645 748Q645 765 657 778T688 791Z" horiz-adv-x="700" unicode="Ư"/>
			<glyph d="M519 599Q539 599 554 582T570 536Q570 493 545 454T476 392V0H401V68Q373 36 328 12T229 -12Q153 -12 114 25T75 142V483H150V165Q150 133 157 112T179 78T214 60T258 55Q302 55 341 77T401 128V483H476V435Q497 451 511 472T527 516Q526 516 522 515T516 515Q499 515 487 526T476 556Q476 573 488 586T519 599Z" horiz-adv-x="551" unicode="ư"/>
			<glyph d="M590 867H668L499 723H442ZM423 667H893V593H539V378H886V304H539V74H893V0H456V148H193L102 0H7ZM456 581L234 222H456Z" horiz-adv-x="947" unicode="Ǽ"/>
			<glyph d="M508 700H586L417 556H360ZM277 495Q307 495 334 489T385 470T424 437T448 390Q473 434 517 464T627 495Q679 495 719 475T786 420T828 337T843 236V217H476Q479 183 491 153T523 100T572 65T637 52Q676 52 712 67T776 113L812 62Q777 26 731 7T634 -12Q570 -12 520 16T441 104Q415 52 362 20T242 -12Q203 -12 168 -2T106 28T63 79T48 148Q48 187 62 216T101 266T158 297T226 307Q280 307 324 291T401 243V329Q401 377 364 403T268 430Q220 430 181 414T107 363L72 415Q151 495 277 495ZM622 433Q586 433 559 418T514 380T486 328T476 272H769Q769 299 760 327T734 379T688 418T622 433ZM256 253Q197 253 161 225T125 152Q125 106 161 79T256 52Q288 52 314 63T360 92T390 133T401 180V192Q376 221 337 237T256 253Z" horiz-adv-x="889" unicode="ǽ"/>
			<glyph d="M474 867H552L383 723H326ZM382 678Q430 678 471 667T549 636L570 667H636L594 605Q651 558 682 488T713 333Q713 259 689 196T621 86T517 14T382 -12Q332 -12 289 0T209 33L187 0H121L165 65Q111 112 81 180T51 333Q51 407 75 470T142 579T247 652T382 678ZM549 538L252 97Q307 62 382 62Q438 62 483 82T560 139T609 225T627 333Q627 396 607 449T549 538ZM382 604Q326 604 280 583T203 527T154 441T137 333Q137 271 156 219T210 132L506 572Q480 587 448 595T382 604Z" horiz-adv-x="765" unicode="Ǿ"/>
			<glyph d="M377 700H455L286 556H229ZM286 495Q326 495 360 484T423 454L446 483H500L455 426Q489 391 507 344T525 242Q525 189 508 143T461 62T385 8T286 -12Q203 -12 144 33L118 0H64L112 61Q80 96 63 142T47 242Q47 294 63 340T111 421T186 475T286 495ZM408 367L188 89Q208 73 232 64T286 55Q325 55 354 70T404 111T435 171T446 242Q446 315 408 367ZM286 428Q247 428 217 412T166 371T135 312T125 242Q125 172 159 121L378 398Q340 428 286 428Z" unicode="ǿ"/>
			<glyph d="M292 -71Q313 -71 329 -88T345 -138Q345 -179 324 -214T274 -272L241 -246Q264 -231 280 -206T299 -160Q298 -161 294 -161T288 -162Q270 -162 258 -149T246 -118Q246 -98 259 -84T292 -71ZM288 677Q365 677 424 653T525 584L475 523Q437 565 387 584T282 603Q222 603 183 574T145 497Q145 469 162 451T206 420T269 397T342 377T415 353T478 317T523 263T540 184Q540 148 527 112T484 49T408 5T294 -12Q206 -12 143 17T38 94L87 157Q103 139 125 121T173 91T231 70T297 62Q342 62 372 73T420 100T446 137T454 177Q454 209 437 230T392 265T329 289T256 309T183 333T120 366T76 417T59 492Q59 533 76 567T124 625T197 663T288 677Z" horiz-adv-x="586" unicode="Ș"/>
			<glyph d="M238 -71Q259 -71 275 -88T291 -138Q291 -179 270 -214T220 -272L187 -246Q210 -231 226 -206T245 -160Q244 -161 240 -161T234 -162Q216 -162 204 -149T192 -118Q192 -98 205 -84T238 -71ZM226 495Q288 495 332 474T405 425L370 373Q348 399 310 416T226 434Q176 434 147 412T119 358Q119 332 141 318T196 294T268 276T340 252T396 208T418 134Q418 104 406 77T370 30T310 0T228 -12Q168 -12 119 6T33 64L72 118Q96 90 138 69T231 49Q287 49 316 72T345 132Q345 161 323 176T267 202T195 220T123 244T68 285T46 356Q46 384 58 409T93 454T149 484T226 495Z" horiz-adv-x="465" unicode="ș"/>
			<glyph d="M288 -71Q309 -71 325 -88T341 -138Q341 -179 320 -214T270 -272L237 -246Q260 -231 276 -206T295 -160Q294 -161 290 -161T284 -162Q266 -162 254 -149T242 -118Q242 -98 255 -84T288 -71ZM32 667H538V593H326V0H243V593H32Z" horiz-adv-x="570" unicode="Ț"/>
			<glyph d="M150 -71Q171 -71 187 -88T203 -138Q203 -179 182 -214T132 -272L99 -246Q122 -231 138 -206T157 -160Q156 -161 152 -161T146 -162Q128 -162 116 -149T104 -118Q104 -98 117 -84T150 -71ZM90 615H165V483H263V417H165V117Q165 90 177 72T214 55Q230 55 243 61T265 75L287 19Q273 5 251 -3T197 -12Q143 -12 116 17T90 101V417H10V483H90Z" horiz-adv-x="294" unicode="ț"/>
			<glyph d="M75 483H150V-47Q150 -119 113 -157T7 -196Q-30 -196 -53 -187T-99 -160L-72 -103Q-59 -116 -42 -125T-3 -134Q31 -134 53 -113T75 -47Z" horiz-adv-x="225" unicode="ȷ"/>
			<glyph d="M60 760H117V595Q134 615 164 631T233 648Q338 648 338 541V326H280V528Q280 570 260 585T209 600Q180 600 155 585T117 554V326H60Z" horiz-adv-x="398" unicode="ʰ"/>
			<glyph d="M113 677Q138 677 157 657T176 601Q176 555 152 515T94 450L57 481Q81 497 100 523T122 574Q118 572 108 572Q87 572 73 586T60 623Q60 645 75 661T113 677Z" horiz-adv-x="230" unicode="ʼ"/>
			<glyph d="M95 700H167L265 556H214L131 662L51 556H0Z" horiz-adv-x="265" unicode="ˆ"/>
			<glyph d="M0 700H51L134 594L214 700H265L170 556H98Z" horiz-adv-x="265" unicode="ˇ"/>
			<glyph d="M0 639H363V591H0Z" horiz-adv-x="363" unicode="ˉ"/>
			<glyph d="M0 700H78L226 556H169Z" horiz-adv-x="226" unicode="ˋ"/>
			<glyph d="M37 658Q61 625 96 605T176 586Q220 586 255 605T314 658L351 626Q321 585 275 561T176 538Q122 538 76 561T0 626Z" horiz-adv-x="351" unicode="˘"/>
			<glyph d="M56 649Q76 649 89 635T102 602Q102 582 89 568T56 555Q37 555 23 568T9 602Q9 622 23 635T56 649Z" horiz-adv-x="111" unicode="˙"/>
			<glyph d="M98 740Q118 740 136 732T167 710T188 679T196 641Q196 600 167 571T98 543Q57 543 28 571T0 641Q0 661 7 679T28 710T60 732T98 740ZM98 700Q74 700 57 683T40 641Q40 617 57 599T98 582Q123 582 139 599T156 641Q156 666 139 683T98 700Z" horiz-adv-x="196" unicode="˚"/>
			<glyph d="M88 23L121 0Q85 -18 65 -41T45 -97Q45 -123 57 -135T89 -147Q110 -147 122 -136T141 -105L178 -126Q167 -150 146 -168T89 -186Q54 -186 27 -165T0 -99Q0 -61 24 -29T88 23Z" horiz-adv-x="178" unicode="˛"/>
			<glyph d="M97 694Q124 694 140 679T167 648T190 616T220 602Q240 602 254 622T268 688H313Q313 629 288 591T216 554Q189 554 173 568T145 600T122 631T93 646Q73 646 59 625T45 560H0Q0 619 24 656T97 694Z" horiz-adv-x="313" unicode="˜"/>
			<glyph d="M94 700H163L48 556H0ZM236 700H305L190 556H142Z" horiz-adv-x="305" unicode="˝"/>
			<glyph d="M88 790Q117 790 138 773T160 721Q160 704 155 692T141 667H101Q114 680 119 693T124 719Q124 739 114 748T88 758Q59 758 48 726L15 735Q23 758 41 774T88 790Z" horiz-adv-x="178" unicode="̉"/>
			<glyph d="M115 490Q138 490 154 474T170 435Q170 413 154 396T115 380Q92 380 76 396T60 435Q60 458 76 474T115 490ZM113 102Q138 102 157 82T176 26Q176 -21 152 -61T94 -125L57 -95Q81 -79 100 -52T122 -1Q120 -2 116 -3T108 -4Q87 -4 73 10T60 47Q60 70 75 86T113 102Z" horiz-adv-x="230" unicode=";"/>
			<glyph d="M119 765H195L137 565H100Z" horiz-adv-x="199" unicode="΄"/>
			<glyph d="M262 765H338L281 565H243ZM410 650Q429 650 442 636T456 604Q456 584 442 570T410 557Q390 557 377 570T364 604Q364 623 377 636T410 650ZM141 650Q160 650 173 636T187 604Q187 584 173 570T141 557Q121 557 108 570T95 604Q95 623 108 636T141 650Z" horiz-adv-x="551" unicode="΅"/>
			<glyph d="M164 765H240L182 565H145ZM277 667H380L649 0H554L495 148H163L104 0H9ZM329 581L187 222H470Z" horiz-adv-x="658" unicode="Ά"/>
			<glyph d="M7 765H83L25 565H-12ZM95 667H532V593H178V378H525V304H178V74H532V0H95Z" horiz-adv-x="586" unicode="Έ"/>
			<glyph d="M7 765H83L25 565H-12ZM95 667H178V380H568V667H651V0H568V306H178V0H95Z" horiz-adv-x="729" unicode="Ή"/>
			<glyph d="M7 765H83L25 565H-12ZM95 667H178V0H95Z" horiz-adv-x="255" unicode="Ί"/>
			<glyph d="M42 765H118L60 565H23ZM382 678Q456 678 517 652T621 579T689 470T713 333Q713 259 689 196T621 86T517 14T382 -12Q308 -12 247 14T142 86T75 196T51 333Q51 407 75 470T142 579T247 652T382 678ZM382 604Q326 604 280 583T203 527T154 441T137 333Q137 275 154 225T203 139T280 82T382 62Q438 62 483 82T560 139T609 225T627 333Q627 391 609 441T560 527T483 583T382 604Z" horiz-adv-x="765" unicode="Ό"/>
			<glyph d="M7 765H83L25 565H-12ZM67 667H164L371 357L578 667H675L413 282V0H330V282Z" horiz-adv-x="684" unicode="Ύ"/>
			<glyph d="M42 765H118L60 565H23ZM386 678Q460 678 521 653T625 585T693 480T717 348Q717 299 705 257T674 182T626 121T566 74H700V0H460V74Q493 82 523 103T578 157T616 234T631 334Q631 389 615 438T568 523T491 581T386 603Q326 603 280 581T204 523T157 438T141 334Q141 279 155 234T194 157T249 103T313 74V0H73V74H208Q142 114 98 182T55 348Q55 420 79 480T146 585T251 653T386 678Z" horiz-adv-x="769" unicode="Ώ"/>
			<glyph d="M107 765H183L126 565H88ZM255 650Q274 650 287 636T301 604Q301 584 287 570T255 557Q235 557 222 570T209 604Q209 623 222 636T255 650ZM-14 650Q5 650 18 636T32 604Q32 584 18 570T-14 557Q-34 557 -47 570T-60 604Q-60 623 -47 636T-14 650ZM75 483H150V113Q150 87 162 71T197 55Q208 55 216 57L222 -8Q214 -10 203 -11T182 -12Q128 -12 101 17T75 101Z" horiz-adv-x="239" unicode="ΐ"/>
			<glyph d="M277 667H380L649 0H554L495 148H163L104 0H9ZM329 581L187 222H470Z" horiz-adv-x="658" unicode="Α"/>
			<glyph d="M78 667H375Q418 667 453 654T512 619T549 565T562 497Q562 465 552 439T526 393T489 361T445 344Q472 340 495 325T536 288T564 238T575 180Q575 140 562 107T524 50T463 13T382 0H78ZM161 593V378H361Q418 378 447 408T476 485Q476 530 447 561T361 593ZM161 304V74H365Q424 74 456 104T489 189Q489 212 481 233T457 269T419 294T365 304Z" horiz-adv-x="629" unicode="Β"/>
			<glyph d="M78 667H515V593H161V0H78Z" horiz-adv-x="550" unicode="Γ"/>
			<glyph d="M277 667H380L649 0H9ZM329 581L128 74H530Z" horiz-adv-x="658" unicode="Δ"/>
			<glyph d="M78 667H515V593H161V378H508V304H161V74H515V0H78Z" horiz-adv-x="569" unicode="Ε"/>
			<glyph d="M48 667H529V598L154 74H536V0H48V69L423 593H48Z" horiz-adv-x="585" unicode="Ζ"/>
			<glyph d="M78 667H161V380H551V667H634V0H551V306H161V0H78Z" horiz-adv-x="712" unicode="Η"/>
			<glyph d="M196 378H569V304H196ZM382 678Q456 678 517 652T621 579T689 470T713 333Q713 259 689 196T621 86T517 14T382 -12Q308 -12 247 14T142 86T75 196T51 333Q51 407 75 470T142 579T247 652T382 678ZM382 604Q326 604 280 583T203 527T154 441T137 333Q137 275 154 225T203 139T280 82T382 62Q438 62 483 82T560 139T609 225T627 333Q627 391 609 441T560 527T483 583T382 604Z" horiz-adv-x="765" unicode="Θ"/>
			<glyph d="M78 667H161V0H78Z" horiz-adv-x="239" unicode="Ι"/>
			<glyph d="M78 667H161V322L456 667H560L282 350L584 0H481L228 300L161 224V0H78Z" horiz-adv-x="601" unicode="Κ"/>
			<glyph d="M277 667H380L649 0H554L329 581L104 0H9Z" horiz-adv-x="658" unicode="Λ"/>
			<glyph d="M78 667H197L404 165L612 667H731V0H648V549L421 0H387L161 549V0H78Z" horiz-adv-x="809" unicode="Μ"/>
			<glyph d="M78 667H163L547 146V667H630V0H550L161 532V0H78Z" horiz-adv-x="708" unicode="Ν"/>
			<glyph d="M55 667H560V593H55ZM54 74H560V0H54ZM62 378H554V304H62Z" horiz-adv-x="615" unicode="Ξ"/>
			<glyph d="M382 678Q456 678 517 652T621 579T689 470T713 333Q713 259 689 196T621 86T517 14T382 -12Q308 -12 247 14T142 86T75 196T51 333Q51 407 75 470T142 579T247 652T382 678ZM382 604Q326 604 280 583T203 527T154 441T137 333Q137 275 154 225T203 139T280 82T382 62Q438 62 483 82T560 139T609 225T627 333Q627 391 609 441T560 527T483 583T382 604Z" horiz-adv-x="765" unicode="Ο"/>
			<glyph d="M78 667H634V0H551V593H161V0H78Z" horiz-adv-x="712" unicode="Π"/>
			<glyph d="M78 667H346Q396 667 435 651T500 607T541 543T555 466Q555 425 541 388T500 324T434 281T346 265H161V0H78ZM161 593V339H336Q396 339 432 374T469 466Q469 523 432 558T336 593Z" horiz-adv-x="587" unicode="Ρ"/>
			<glyph d="M55 667H521V593H157L386 343L154 74H521V0H54V74L285 342L55 593Z" horiz-adv-x="575" unicode="Σ"/>
			<glyph d="M32 667H538V593H326V0H243V593H32Z" horiz-adv-x="570" unicode="Τ"/>
			<glyph d="M9 667H106L313 357L520 667H617L355 282V0H272V282Z" horiz-adv-x="626" unicode="Υ"/>
			<glyph d="M361 667H444V600Q516 595 573 573T671 517T733 436T755 333Q755 276 733 229T671 147T573 91T444 65V0H361V65Q289 70 231 91T134 147T72 229T51 333Q51 389 72 436T134 517T231 573T361 600ZM444 526V140Q550 149 609 201T669 333Q669 413 609 465T444 526ZM361 526Q254 517 195 465T137 333Q137 253 195 201T361 140Z" horiz-adv-x="806" unicode="Φ"/>
			<glyph d="M27 667H128L326 400L523 667H624L380 343L639 0H539L326 284L113 0H12L272 342Z" horiz-adv-x="652" unicode="Χ"/>
			<glyph d="M78 667H161V397Q161 311 210 260T357 199V667H440V200Q536 209 585 260T634 397V667H718V396Q718 279 649 207T440 125V0H357V125Q217 135 147 207T78 395Z" horiz-adv-x="796" unicode="Ψ"/>
			<glyph d="M382 678Q456 678 517 653T621 585T689 480T713 348Q713 299 701 257T670 182T622 121T562 74H696V0H456V74Q489 82 519 103T574 157T612 234T627 334Q627 389 611 438T564 523T487 581T382 603Q322 603 276 581T200 523T153 438T137 334Q137 279 151 234T190 157T245 103T309 74V0H69V74H204Q138 114 94 182T51 348Q51 420 75 480T142 585T247 653T382 678Z" horiz-adv-x="765" unicode="Ω"/>
			<glyph d="M78 667H161V0H78ZM223 834Q242 834 256 820T270 788Q270 768 256 754T223 741Q204 741 190 754T176 788Q176 807 190 820T223 834ZM17 834Q36 834 49 820T63 788Q63 768 49 754T17 741Q-3 741 -16 754T-30 788Q-30 807 -16 820T17 834Z" horiz-adv-x="239" unicode="Ϊ"/>
			<glyph d="M9 667H106L313 357L520 667H617L355 282V0H272V282ZM416 834Q435 834 449 820T463 788Q463 768 449 754T416 741Q397 741 383 754T369 788Q369 807 383 820T416 834ZM210 834Q229 834 242 820T256 788Q256 768 242 754T210 741Q190 741 176 754T163 788Q163 807 176 820T210 834Z" horiz-adv-x="626" unicode="Ϋ"/>
			<glyph d="M285 765H361L303 565H266ZM262 495Q311 495 353 472T424 410V483H500V113Q500 87 511 71T546 55Q556 55 566 57L571 -8Q563 -10 553 -11T532 -12Q485 -12 459 11T428 77Q403 39 359 13T262 -12Q215 -12 175 5T107 55T63 135T47 241Q47 299 62 346T106 426T174 477T262 495ZM280 428Q244 428 215 414T166 375T135 315T125 241Q125 201 135 167T166 108T215 69T280 55Q325 55 365 77T425 131V350Q405 382 365 405T280 428Z" horiz-adv-x="589" unicode="ά"/>
			<glyph d="M247 765H323L265 565H228ZM279 494Q345 494 394 473T477 417L438 371Q377 433 276 433Q246 433 220 427T175 412T146 387T135 356Q135 335 146 320T176 295T222 280T278 275H386V214H278Q246 214 218 210T170 196T138 171T126 134Q126 96 164 73T268 50Q322 50 368 66T449 115L486 67Q450 31 395 9T268 -12Q216 -12 175 -1T105 28T62 73T47 129Q47 159 61 180T96 216T141 238T187 247Q166 250 143 258T101 281T69 317T57 365Q57 396 73 420T119 460T189 485T279 494Z" horiz-adv-x="514" unicode="έ"/>
			<glyph d="M266 765H342L284 565H247ZM322 495Q476 495 476 339V-184H401V316Q401 380 371 404T293 428Q271 428 250 422T210 405T175 381T150 353V0H75V483H150V413Q163 428 181 442T221 469T269 488T322 495Z" horiz-adv-x="551" unicode="ή"/>
			<glyph d="M112 765H188L130 565H93ZM75 483H150V113Q150 87 162 71T197 55Q208 55 216 57L222 -8Q214 -10 203 -11T182 -12Q128 -12 101 17T75 101Z" horiz-adv-x="239" unicode="ί"/>
			<glyph d="M267 765H343L286 565H248ZM415 650Q434 650 447 636T461 604Q461 584 447 570T415 557Q395 557 382 570T369 604Q369 623 382 636T415 650ZM146 650Q165 650 178 636T192 604Q192 584 178 570T146 557Q126 557 113 570T100 604Q100 623 113 636T146 650ZM430 495Q471 444 493 381T515 250Q515 194 498 146T450 63T374 8T275 -12Q225 -12 187 4T125 49T87 120T75 212V483H150V213Q150 140 182 97T275 55Q314 55 344 70T394 112T425 174T436 250Q436 310 418 363T363 461Z" horiz-adv-x="562" unicode="ΰ"/>
			<glyph d="M262 495Q311 495 353 472T424 410V483H500V113Q500 87 511 71T546 55Q556 55 566 57L571 -8Q563 -10 553 -11T532 -12Q485 -12 459 11T428 77Q403 39 359 13T262 -12Q215 -12 175 5T107 55T63 135T47 241Q47 299 62 346T106 426T174 477T262 495ZM280 428Q244 428 215 414T166 375T135 315T125 241Q125 201 135 167T166 108T215 69T280 55Q325 55 365 77T425 131V350Q405 382 365 405T280 428Z" horiz-adv-x="589" unicode="α"/>
			<glyph d="M303 610Q272 610 244 600T196 571T162 523T150 455V131Q171 99 211 77T299 55Q372 55 411 90T450 184Q450 216 437 239T403 278T353 300T293 308H258V375H291Q321 375 347 382T392 403T423 440T434 492Q434 520 423 542T395 579T354 602T303 610ZM303 677Q348 677 386 665T453 630T497 574T513 499Q513 463 500 436T466 390T421 359T374 344Q397 342 424 331T474 299T512 247T528 173Q528 132 512 98T468 39T403 1T321 -12Q264 -12 220 11T150 72V-184H75V455Q75 513 94 555T146 624T220 664T303 677Z" horiz-adv-x="575" unicode="β"/>
			<glyph d="M-7 483H81Q114 450 144 403T198 303T238 196T260 93Q286 130 309 176T349 273T377 378T387 483H462Q462 424 449 361T412 236T356 115T283 5V-184H208V-49Q208 29 191 105T145 250T77 378T-7 483Z" horiz-adv-x="490" unicode="γ"/>
			<glyph d="M285 679Q348 679 391 658T464 609L429 557Q407 583 370 600T285 618Q235 618 206 596T178 542Q178 521 193 508T232 485T288 466T351 445T415 416T470 373T510 310T525 220Q525 176 509 134T462 59T388 7T289 -12Q233 -12 188 7T111 60T63 135T47 223Q47 300 86 353T188 432Q152 448 129 472T106 540Q106 568 118 593T152 638T208 668T285 679ZM270 402Q198 380 161 333T125 223Q125 193 136 163T167 109T218 70T287 55Q326 55 357 70T409 108T441 161T452 220Q452 265 436 295T394 345T336 378T270 402Z" unicode="δ"/>
			<glyph d="M279 494Q345 494 394 473T477 417L438 371Q377 433 276 433Q246 433 220 427T175 412T146 387T135 356Q135 335 146 320T176 295T222 280T278 275H386V214H278Q246 214 218 210T170 196T138 171T126 134Q126 96 164 73T268 50Q322 50 368 66T449 115L486 67Q450 31 395 9T268 -12Q216 -12 175 -1T105 28T62 73T47 129Q47 159 61 180T96 216T141 238T187 247Q166 250 143 258T101 281T69 317T57 365Q57 396 73 420T119 460T189 485T279 494Z" horiz-adv-x="514" unicode="ε"/>
			<glyph d="M63 667H445V610Q373 568 314 523T213 429T148 327T125 216Q125 177 139 147T179 96T241 65T323 55Q390 55 420 34T450 -34Q450 -60 438 -90T406 -157H325Q342 -131 356 -101T371 -48Q371 -27 357 -19T314 -12Q254 -12 205 3T121 48T66 118T47 211Q47 271 68 325T129 429T223 521T347 601H63Z" horiz-adv-x="489" unicode="ζ"/>
			<glyph d="M322 495Q476 495 476 339V-184H401V316Q401 380 371 404T293 428Q271 428 250 422T210 405T175 381T150 353V0H75V483H150V413Q163 428 181 442T221 469T269 488T322 495Z" horiz-adv-x="551" unicode="η"/>
			<glyph d="M286 679Q346 679 391 652T466 578T510 468T525 334Q525 262 510 199T466 89T391 15T286 -12Q226 -12 181 15T106 89T61 199T47 334Q47 406 61 468T106 578T181 652T286 679ZM126 302Q128 249 138 203T167 125T216 73T286 55Q327 55 356 74T405 126T433 204T445 302ZM286 612Q245 612 216 593T167 542T138 464T126 368H445Q443 420 433 464T404 542T356 593T286 612Z" unicode="θ"/>
			<glyph d="M75 483H150V113Q150 87 162 71T197 55Q208 55 216 57L222 -8Q214 -10 203 -11T182 -12Q128 -12 101 17T75 101Z" horiz-adv-x="239" unicode="ι"/>
			<glyph d="M75 483H150V226L404 483H499L285 264L500 0H404L230 217L150 138V0H75Z" horiz-adv-x="514" unicode="κ"/>
			<glyph d="M103 679Q151 678 187 656T245 581L487 0H405L245 396L84 0H3L205 487L173 560Q160 591 143 601T101 612Q92 612 80 610T60 604L48 671Q59 675 75 677T103 679Z" horiz-adv-x="490" unicode="λ"/>
			<glyph d="M75 483H150V165Q150 105 179 79T260 53Q281 53 302 59T341 75T375 99T401 128V483H476V113Q476 87 488 71T523 55Q534 55 542 57L548 -8Q540 -10 529 -11T508 -12Q460 -12 436 11T404 74Q378 39 338 13T251 -12Q208 -12 184 2T150 36V-184H75Z" horiz-adv-x="565" unicode="μ"/>
			<glyph d="M3 483H84L248 76Q280 120 305 169T349 271T377 378T387 483H462Q462 424 448 360T411 234T353 111T279 0H204Z" horiz-adv-x="490" unicode="ν"/>
			<glyph d="M65 667H436V601H249Q225 595 204 583T168 555T144 520T136 481Q136 454 148 434T181 401T229 381T288 375H431V310H288Q254 310 224 302T172 280T137 241T125 184Q125 122 176 88T323 55Q390 55 420 34T450 -34Q450 -60 438 -90T406 -157H325Q342 -131 356 -101T371 -48Q371 -27 357 -19T314 -12Q184 -12 115 36T47 172Q47 210 60 238T94 286T139 317T184 333Q164 336 142 345T101 370T69 409T57 463Q57 508 88 546T165 601H65Z" horiz-adv-x="489" unicode="ξ"/>
			<glyph d="M286 495Q341 495 385 475T461 421T508 340T525 242Q525 189 508 143T461 62T385 8T286 -12Q231 -12 186 8T111 62T63 143T47 242Q47 294 63 340T111 421T186 475T286 495ZM286 428Q247 428 217 412T166 371T135 312T125 242Q125 205 135 171T166 111T217 70T286 55Q325 55 354 70T404 111T435 171T446 242Q446 279 435 312T404 371T354 412T286 428Z" unicode="ο"/>
			<glyph d="M10 483H572V417H492V0H417V417H165V0H90V417H10Z" horiz-adv-x="582" unicode="π"/>
			<glyph d="M300 495Q353 495 395 475T466 421T512 340T528 242Q528 183 512 136T468 56T400 5T313 -12Q263 -12 221 10T150 73V-184H75V242Q75 294 90 340T135 421T206 475T300 495ZM299 428Q263 428 235 412T188 371T160 312T150 242V133Q170 101 209 78T294 55Q330 55 359 69T408 108T438 167T449 242Q449 279 439 312T410 371T363 412T299 428Z" unicode="ρ"/>
			<glyph d="M288 495Q354 495 395 471T465 411L415 365Q391 398 360 413T292 428Q253 428 222 414T170 375T136 316T125 242Q125 195 139 160T180 101T241 66T320 55Q386 55 418 34T450 -34Q450 -60 438 -90T407 -157H329Q346 -131 360 -101T375 -48Q375 -27 360 -19T316 -12Q255 -12 205 5T120 56T66 136T47 242Q47 296 64 342T113 422T189 475T288 495Z" horiz-adv-x="483" unicode="ς"/>
			<glyph d="M299 483H547V416H432Q471 385 495 339T520 225Q520 177 504 133T458 58T384 7T286 -12Q231 -12 186 8T111 62T63 143T47 242Q47 292 64 336T113 412T192 464T299 483ZM299 416Q255 416 222 401T168 362T136 306T125 242Q125 205 135 171T166 111T217 70T286 55Q325 55 354 70T404 110T435 168T446 236Q446 301 418 347T346 416Z" unicode="σ"/>
			<glyph d="M26 483H442V417H271V117Q271 90 283 72T320 55Q336 55 349 61T371 75L393 19Q379 5 357 -3T303 -12Q249 -12 222 17T196 101V417H26Z" horiz-adv-x="468" unicode="τ"/>
			<glyph d="M430 495Q471 444 493 381T515 250Q515 194 498 146T450 63T374 8T275 -12Q225 -12 187 4T125 49T87 120T75 212V483H150V213Q150 140 182 97T275 55Q314 55 344 70T394 112T425 174T436 250Q436 310 418 363T363 461Z" horiz-adv-x="562" unicode="υ"/>
			<glyph d="M226 495L258 437Q196 407 160 361T125 254Q125 214 136 180T173 120T238 77T334 56V495H372Q454 495 515 476T616 424T676 343T696 242Q696 189 678 144T625 67T536 13T409 -11V-184H334V-10Q261 -6 207 14T117 69T64 150T47 254Q47 298 61 335T100 402T157 455T226 495ZM409 427V56Q466 60 505 76T570 117T606 174T618 242Q618 279 605 312T567 369T501 409T409 427Z" horiz-adv-x="744" unicode="φ"/>
			<glyph d="M22 483H106L243 229L380 483H464L289 159L475 -184H391L243 89L95 -184H12L197 159Z" horiz-adv-x="486" unicode="χ"/>
			<glyph d="M334 667H409V56Q497 64 545 107T594 222V483H669V222Q669 120 604 58T409 -11V-184H334V-11Q204 -3 139 59T75 222V483H150V222Q150 150 198 107T334 57Z" horiz-adv-x="744" unicode="ψ"/>
			<glyph d="M145 495L199 449Q156 409 140 355T125 242Q125 205 133 171T156 111T194 70T246 55Q275 55 297 70T335 111T358 171T366 242V365H441V242Q441 205 449 171T472 111T509 70T561 55Q590 55 612 70T650 111T674 171T682 242Q682 302 667 355T608 449L663 495Q711 455 735 389T760 242Q760 189 747 143T709 62T649 8T571 -12Q535 -12 507 1T459 35T425 82T404 135Q396 108 382 82T348 35T300 1T237 -12Q193 -12 158 8T98 62T60 143T47 242Q47 323 72 389T145 495Z" horiz-adv-x="808" unicode="ω"/>
			<glyph d="M224 650Q243 650 257 636T271 604Q271 584 257 570T224 557Q205 557 191 570T177 604Q177 623 191 636T224 650ZM18 650Q37 650 50 636T64 604Q64 584 50 570T18 557Q-2 557 -15 570T-29 604Q-29 623 -15 636T18 650ZM75 483H150V113Q150 87 162 71T197 55Q208 55 216 57L222 -8Q214 -10 203 -11T182 -12Q128 -12 101 17T75 101Z" horiz-adv-x="239" unicode="ϊ"/>
			<glyph d="M383 650Q402 650 416 636T430 604Q430 584 416 570T383 557Q364 557 350 570T336 604Q336 623 350 636T383 650ZM177 650Q196 650 209 636T223 604Q223 584 209 570T177 557Q157 557 143 570T130 604Q130 623 143 636T177 650ZM430 495Q471 444 493 381T515 250Q515 194 498 146T450 63T374 8T275 -12Q225 -12 187 4T125 49T87 120T75 212V483H150V213Q150 140 182 97T275 55Q314 55 344 70T394 112T425 174T436 250Q436 310 418 363T363 461Z" horiz-adv-x="562" unicode="ϋ"/>
			<glyph d="M276 765H352L294 565H257ZM286 495Q341 495 385 475T461 421T508 340T525 242Q525 189 508 143T461 62T385 8T286 -12Q231 -12 186 8T111 62T63 143T47 242Q47 294 63 340T111 421T186 475T286 495ZM286 428Q247 428 217 412T166 371T135 312T125 242Q125 205 135 171T166 111T217 70T286 55Q325 55 354 70T404 111T435 171T446 242Q446 279 435 312T404 371T354 412T286 428Z" unicode="ό"/>
			<glyph d="M272 765H348L290 565H253ZM430 495Q471 444 493 381T515 250Q515 194 498 146T450 63T374 8T275 -12Q225 -12 187 4T125 49T87 120T75 212V483H150V213Q150 140 182 97T275 55Q314 55 344 70T394 112T425 174T436 250Q436 310 418 363T363 461Z" horiz-adv-x="562" unicode="ύ"/>
			<glyph d="M394 765H470L412 565H375ZM145 495L199 449Q156 409 140 355T125 242Q125 205 133 171T156 111T194 70T246 55Q275 55 297 70T335 111T358 171T366 242V365H441V242Q441 205 449 171T472 111T509 70T561 55Q590 55 612 70T650 111T674 171T682 242Q682 302 667 355T608 449L663 495Q711 455 735 389T760 242Q760 189 747 143T709 62T649 8T571 -12Q535 -12 507 1T459 35T425 82T404 135Q396 108 382 82T348 35T300 1T237 -12Q193 -12 158 8T98 62T60 143T47 242Q47 323 72 389T145 495Z" horiz-adv-x="808" unicode="ώ"/>
			<glyph d="M399 817Q418 817 432 803T446 771Q446 751 432 737T399 724Q380 724 366 737T352 771Q352 790 366 803T399 817ZM193 817Q212 817 225 803T239 771Q239 751 225 737T193 724Q173 724 159 737T146 771Q146 790 159 803T193 817ZM78 667H515V593H161V378H508V304H161V74H515V0H78Z" horiz-adv-x="569" unicode="Ё"/>
			<glyph d="M32 667H538V593H326V406Q359 415 399 422T487 429Q546 429 589 412T661 365T704 295T718 208V200Q718 146 701 106T654 39T585 0T501 -12V62Q564 62 599 99T635 200V208Q635 280 595 317T480 355Q438 355 398 349T326 332V0H243V593H32Z" horiz-adv-x="769" unicode="Ђ"/>
			<glyph d="M376 867H454L285 723H228ZM78 667H515V593H161V0H78Z" horiz-adv-x="550" unicode="Ѓ"/>
			<glyph d="M394 678Q438 678 475 668T544 640T601 598T647 546L577 507Q548 549 499 576T394 604Q344 604 301 587T224 541T169 469T140 378H505V304H138Q143 250 164 205T219 129T298 79T394 62Q451 62 499 89T577 159L648 120Q606 63 544 25T394 -12Q322 -12 259 13T150 83T77 192T51 333Q51 410 77 473T150 582T259 653T394 678Z" horiz-adv-x="676" unicode="Є"/>
			<glyph d="M288 677Q365 677 424 653T525 584L475 523Q437 565 387 584T282 603Q222 603 183 574T145 497Q145 469 162 451T206 420T269 397T342 377T415 353T478 317T523 263T540 184Q540 148 527 112T484 49T408 5T294 -12Q206 -12 143 17T38 94L87 157Q103 139 125 121T173 91T231 70T297 62Q342 62 372 73T420 100T446 137T454 177Q454 209 437 230T392 265T329 289T256 309T183 333T120 366T76 417T59 492Q59 533 76 567T124 625T197 663T288 677Z" horiz-adv-x="586" unicode="Ѕ"/>
			<glyph d="M78 667H161V0H78Z" horiz-adv-x="239" unicode="І"/>
			<glyph d="M78 667H161V0H78ZM223 817Q242 817 256 803T270 771Q270 751 256 737T223 724Q204 724 190 737T176 771Q176 790 190 803T223 817ZM17 817Q36 817 49 803T63 771Q63 751 49 737T17 724Q-3 724 -16 737T-30 771Q-30 790 -16 803T17 817Z" horiz-adv-x="239" unicode="Ї"/>
			<glyph d="M314 667H397V201Q397 147 380 106T335 40T268 1T185 -12Q131 -12 88 6T11 65L54 128Q76 102 106 82T180 62Q242 62 278 100T314 202Z" horiz-adv-x="475" unicode="Ј"/>
			<glyph d="M226 667H634V402H819Q868 402 907 386T973 342T1014 278T1028 201Q1028 160 1014 123T973 59T908 16T819 0H551V593H300L267 326Q253 216 231 149T180 47T114 0T32 -12V62Q62 62 85 72T128 112T160 194T185 332ZM634 328V74H809Q869 74 905 109T942 201Q942 258 905 293T809 328Z" horiz-adv-x="1060" unicode="Љ"/>
			<glyph d="M78 667H161V380H551V667H634V380H831Q878 380 914 365T976 324T1015 263T1028 190Q1028 151 1015 116T977 56T915 15T831 0H551V306H161V0H78ZM634 306V74H821Q875 74 908 106T942 190Q942 241 908 273T821 306Z" horiz-adv-x="1060" unicode="Њ"/>
			<glyph d="M32 667H538V593H326V406Q359 415 399 422T487 429Q546 429 589 412T661 365T704 293T718 200V0H635V201Q635 278 595 316T480 355Q438 355 398 349T326 332V0H243V593H32Z" horiz-adv-x="785" unicode="Ћ"/>
			<glyph d="M395 867H473L304 723H247ZM78 667H161V322L456 667H560L282 350L584 0H481L228 300L161 224V0H78Z" horiz-adv-x="601" unicode="Ќ"/>
			<glyph d="M9 667H104L313 254L522 667H617L326 118Q310 88 293 64T255 23T207 -3T145 -12Q103 -12 68 3T15 41L50 107Q68 88 90 75T141 62Q161 62 175 67T203 83T227 113T253 157L265 180ZM175 825Q199 792 234 772T314 753Q358 753 393 772T452 825L489 793Q459 752 413 728T314 705Q260 705 214 728T138 793Z" horiz-adv-x="626" unicode="Ў"/>
			<glyph d="M78 667H161V74H551V667H634V0H398V-127H315V0H78Z" horiz-adv-x="712" unicode="Џ"/>
			<glyph d="M277 667H380L649 0H554L495 148H163L104 0H9ZM329 581L187 222H470Z" horiz-adv-x="658" unicode="А"/>
			<glyph d="M78 667H511V593H161V402H346Q395 402 434 386T500 342T541 278T555 201Q555 160 541 123T500 59T435 16T346 0H78ZM161 328V74H336Q396 74 432 109T469 201Q469 258 432 293T336 328Z" horiz-adv-x="587" unicode="Б"/>
			<glyph d="M78 667H375Q418 667 453 654T512 619T549 565T562 497Q562 465 552 439T526 393T489 361T445 344Q472 340 495 325T536 288T564 238T575 180Q575 140 562 107T524 50T463 13T382 0H78ZM161 593V378H361Q418 378 447 408T476 485Q476 530 447 561T361 593ZM161 304V74H365Q424 74 456 104T489 189Q489 212 481 233T457 269T419 294T365 304Z" horiz-adv-x="629" unicode="В"/>
			<glyph d="M78 667H515V593H161V0H78Z" horiz-adv-x="550" unicode="Г"/>
			<glyph d="M226 667H634V74H695V-123H612V0H115V-123H32V67Q62 69 85 79T128 117T160 196T185 332ZM300 593L267 326Q254 220 228 161T165 74H551V593Z" horiz-adv-x="723" unicode="Д"/>
			<glyph d="M78 667H515V593H161V378H508V304H161V74H515V0H78Z" horiz-adv-x="569" unicode="Е"/>
			<glyph d="M41 667H145L413 353V667H496V353L765 667H869L590 350L893 0H789L536 300L496 254V0H413V254L373 300L120 0H17L319 350Z" horiz-adv-x="909" unicode="Ж"/>
			<glyph d="M281 677Q330 677 373 665T449 630T501 574T520 499Q520 463 506 436T471 390T424 359T376 344Q399 342 426 331T476 300T514 250T530 180Q530 138 512 103T461 42T382 2T280 -12Q236 -12 197 -3T126 20T69 55T29 98L78 151Q108 112 162 87T278 62Q357 62 401 95T446 187Q446 218 433 240T398 277T343 298T273 305H137V379H273Q306 379 335 385T387 405T422 439T435 489Q435 517 422 538T388 573T337 595T275 603Q162 603 86 522L40 574Q78 618 139 647T281 677Z" horiz-adv-x="584" unicode="З"/>
			<glyph d="M78 667H161V146L545 667H630V0H547V532L158 0H78Z" horiz-adv-x="708" unicode="И"/>
			<glyph d="M78 667H161V146L545 667H630V0H547V532L158 0H78ZM215 825Q239 792 274 772T354 753Q398 753 433 772T492 825L529 793Q499 752 453 728T354 705Q300 705 254 728T178 793Z" horiz-adv-x="708" unicode="Й"/>
			<glyph d="M78 667H161V322L456 667H560L282 350L584 0H481L228 300L161 224V0H78Z" horiz-adv-x="601" unicode="К"/>
			<glyph d="M226 667H634V0H551V593H300L267 326Q253 216 231 149T180 47T114 0T32 -12V62Q62 62 85 72T128 112T160 194T185 332Z" horiz-adv-x="712" unicode="Л"/>
			<glyph d="M78 667H197L404 165L612 667H731V0H648V549L421 0H387L161 549V0H78Z" horiz-adv-x="809" unicode="М"/>
			<glyph d="M78 667H161V380H551V667H634V0H551V306H161V0H78Z" horiz-adv-x="712" unicode="Н"/>
			<glyph d="M382 678Q456 678 517 652T621 579T689 470T713 333Q713 259 689 196T621 86T517 14T382 -12Q308 -12 247 14T142 86T75 196T51 333Q51 407 75 470T142 579T247 652T382 678ZM382 604Q326 604 280 583T203 527T154 441T137 333Q137 275 154 225T203 139T280 82T382 62Q438 62 483 82T560 139T609 225T627 333Q627 391 609 441T560 527T483 583T382 604Z" horiz-adv-x="765" unicode="О"/>
			<glyph d="M78 667H634V0H551V593H161V0H78Z" horiz-adv-x="712" unicode="П"/>
			<glyph d="M78 667H346Q396 667 435 651T500 607T541 543T555 466Q555 425 541 388T500 324T434 281T346 265H161V0H78ZM161 593V339H336Q396 339 432 374T469 466Q469 523 432 558T336 593Z" horiz-adv-x="587" unicode="Р"/>
			<glyph d="M394 678Q438 678 475 668T544 640T601 598T647 546L577 507Q548 549 499 576T394 604Q339 604 292 584T210 528T156 442T137 333Q137 274 156 224T210 138T292 82T394 62Q451 62 499 89T577 159L648 120Q606 63 544 25T394 -12Q322 -12 259 13T150 83T77 192T51 333Q51 410 77 473T150 582T259 653T394 678Z" horiz-adv-x="676" unicode="С"/>
			<glyph d="M32 667H538V593H326V0H243V593H32Z" horiz-adv-x="570" unicode="Т"/>
			<glyph d="M9 667H104L313 254L522 667H617L326 118Q310 88 293 64T255 23T207 -3T145 -12Q103 -12 68 3T15 41L50 107Q68 88 90 75T141 62Q161 62 175 67T203 83T227 113T253 157L265 180Z" horiz-adv-x="626" unicode="У"/>
			<glyph d="M361 667H444V600Q516 595 573 573T671 517T733 436T755 333Q755 276 733 229T671 147T573 91T444 65V0H361V65Q289 70 231 91T134 147T72 229T51 333Q51 389 72 436T134 517T231 573T361 600ZM444 526V140Q550 149 609 201T669 333Q669 413 609 465T444 526ZM361 526Q254 517 195 465T137 333Q137 253 195 201T361 140Z" horiz-adv-x="806" unicode="Ф"/>
			<glyph d="M27 667H128L326 400L523 667H624L380 343L639 0H539L326 284L113 0H12L272 342Z" horiz-adv-x="652" unicode="Х"/>
			<glyph d="M78 667H161V74H551V667H634V74H695V-123H612V0H78Z" horiz-adv-x="723" unicode="Ц"/>
			<glyph d="M58 667H141V493Q141 416 180 377T296 339Q338 339 378 345T450 362V667H533V0H450V288Q417 279 377 272T289 265Q230 265 186 281T114 328T72 400T58 494Z" horiz-adv-x="611" unicode="Ч"/>
			<glyph d="M78 667H161V74H438V667H521V74H797V667H880V0H78Z" horiz-adv-x="958" unicode="Ш"/>
			<glyph d="M83 667H166V74H443V667H526V74H803V667H886V74H946V-123H863V0H83Z" horiz-adv-x="975" unicode="Щ"/>
			<glyph d="M32 667H326V402H511Q561 402 600 386T665 342T706 278T720 201Q720 160 706 123T665 59T600 16T511 0H243V593H32ZM326 328V74H501Q561 74 597 109T634 201Q634 258 597 293T501 328Z" horiz-adv-x="752" unicode="Ъ"/>
			<glyph d="M78 667H161V402H346Q395 402 434 386T500 342T541 278T555 201Q555 160 541 123T500 59T435 16T346 0H78ZM161 328V74H336Q396 74 432 109T469 201Q469 258 432 293T336 328ZM627 667H710V0H627Z" horiz-adv-x="788" unicode="Ы"/>
			<glyph d="M78 667H161V402H346Q395 402 434 386T500 342T541 278T555 201Q555 160 541 123T500 59T435 16T346 0H78ZM161 328V74H336Q396 74 432 109T469 201Q469 258 432 293T336 328Z" horiz-adv-x="587" unicode="Ь"/>
			<glyph d="M282 678Q354 678 416 653T525 582T598 473T625 333Q625 256 598 192T525 83T416 13T282 -12Q193 -12 131 25T28 120L99 159Q128 116 176 89T282 62Q333 62 378 79T456 129T511 205T537 304H171V378H535Q528 428 506 469T451 541T374 587T282 604Q225 604 176 576T99 507L29 546Q49 574 74 598T131 640T200 668T282 678Z" horiz-adv-x="676" unicode="Э"/>
			<glyph d="M609 678Q683 678 744 652T849 579T917 470T941 333Q941 259 917 196T849 86T744 14T609 -12Q538 -12 479 12T377 78T308 178T279 306H161V0H78V667H161V380H280Q287 445 314 499T384 594T484 656T609 678ZM609 604Q553 604 507 583T430 527T381 441T364 333Q364 275 381 225T430 139T507 82T609 62Q665 62 710 82T788 139T837 225T855 333Q855 391 837 441T788 527T710 583T609 604Z" horiz-adv-x="992" unicode="Ю"/>
			<glyph d="M263 667H531V0H448V265H314L144 0H47L227 272Q193 275 161 289T106 327T67 386T53 466Q53 512 68 549T112 612T178 653T263 667ZM272 593Q213 593 176 558T139 466Q139 409 176 373T272 338H448V593Z" horiz-adv-x="608" unicode="Я"/>
			<glyph d="M265 495Q303 495 337 486T396 457T437 407T452 332V0H377V55Q316 -12 217 -12Q186 -12 156 -2T102 28T63 79T48 148Q48 188 63 218T102 268T156 297T217 307Q267 307 307 291T377 241V328Q377 377 342 403T255 430Q170 430 107 363L72 415Q149 495 265 495ZM244 253Q191 253 158 223T125 147Q125 101 158 71T244 42Q284 42 319 57T377 102V193Q355 223 319 238T244 253Z" horiz-adv-x="527" unicode="а"/>
			<glyph d="M286 428Q247 428 217 412T166 371T135 312T125 243Q125 205 135 171T166 111T217 70T286 55Q325 55 354 70T404 111T435 171T446 243Q446 279 435 312T404 371T354 412T286 428ZM436 667H509Q509 637 491 617T445 586T383 567T319 556Q265 548 229 533T170 497T134 449T116 392Q129 413 147 431T188 464T238 486T298 495Q349 495 391 475T462 420T508 340T524 243Q524 191 508 144T461 63T386 8T286 -12Q230 -12 186 8T111 66T63 153T47 264Q47 352 63 415T110 521T189 586T300 618Q340 624 366 629T407 641T429 653T436 667Z" horiz-adv-x="577" unicode="б"/>
			<glyph d="M75 483H341Q405 483 441 448T477 359Q477 315 453 287T399 249Q417 244 433 233T461 206T480 171T487 131Q487 72 450 36T346 0H75ZM150 215V66H331Q367 66 388 85T409 140Q409 169 389 192T331 215ZM150 417V281H328Q363 281 381 300T400 348Q400 380 381 398T328 417Z" horiz-adv-x="554" unicode="в"/>
			<glyph d="M75 483H413V417H150V0H75Z" horiz-adv-x="436" unicode="г"/>
			<glyph d="M141 483H477V66H533V-123H458V0H93V-123H18V62Q35 65 48 74T73 103T94 157T110 245ZM207 417L185 236Q176 167 158 127T115 66H402V417Z" horiz-adv-x="561" unicode="д"/>
			<glyph d="M285 495Q340 495 383 475T456 420T501 337T517 236V217H126Q128 183 141 152T176 99T230 63T300 50Q342 50 381 66T449 111L485 62Q449 26 401 7T293 -12Q239 -12 194 6T116 58T65 138T47 242Q47 294 65 340T114 421T189 475T285 495ZM284 433Q245 433 216 418T167 380T137 328T126 272H443Q443 299 433 327T404 379T355 418T284 433Z" horiz-adv-x="563" unicode="е"/>
			<glyph d="M15 483H110L318 270V483H393V271L601 483H696L481 264L697 0H601L427 217L393 183V0H318V183L284 217L110 0H14L229 264Z" horiz-adv-x="711" unicode="ж"/>
			<glyph d="M235 494Q284 494 324 485T394 460T440 420T457 365Q457 338 444 317T413 281T371 258T327 247Q348 245 372 238T418 216T453 180T467 129Q467 99 452 73T408 28T339 -1T246 -12Q173 -12 118 9T28 67L65 115Q99 83 145 66T246 50Q311 50 349 73T388 134Q388 156 376 171T343 196T295 210T236 214H128V275H236Q266 275 292 280T337 295T368 320T379 356Q379 373 368 387T338 412T294 427T238 433Q137 433 76 371L37 417Q71 452 120 473T235 494Z" horiz-adv-x="514" unicode="з"/>
			<glyph d="M75 483H150V114L403 483H477V0H402V376L147 0H75Z" horiz-adv-x="552" unicode="и"/>
			<glyph d="M75 483H150V114L403 483H477V0H402V376L147 0H75ZM137 658Q161 625 196 605T276 586Q320 586 355 605T414 658L451 626Q421 585 375 561T276 538Q222 538 176 561T100 626Z" horiz-adv-x="552" unicode="й"/>
			<glyph d="M75 483H150V226L404 483H499L285 264L500 0H404L230 217L150 138V0H75Z" horiz-adv-x="514" unicode="к"/>
			<glyph d="M141 483H477V0H402V417H207L185 236Q177 168 163 121T128 44T80 1T18 -12V50Q52 50 74 94T110 245Z" horiz-adv-x="552" unicode="л"/>
			<glyph d="M75 483H174L322 125L468 483H568V0H493V379L336 0H308L150 379V0H75Z" horiz-adv-x="643" unicode="м"/>
			<glyph d="M75 483H150V282H402V483H477V0H402V216H150V0H75Z" horiz-adv-x="552" unicode="н"/>
			<glyph d="M286 495Q341 495 385 475T461 421T508 340T525 242Q525 189 508 143T461 62T385 8T286 -12Q231 -12 186 8T111 62T63 143T47 242Q47 294 63 340T111 421T186 475T286 495ZM286 428Q247 428 217 412T166 371T135 312T125 242Q125 205 135 171T166 111T217 70T286 55Q325 55 354 70T404 111T435 171T446 242Q446 279 435 312T404 371T354 412T286 428Z" unicode="о"/>
			<glyph d="M75 483H477V0H402V417H150V0H75Z" horiz-adv-x="552" unicode="п"/>
			<glyph d="M313 495Q361 495 400 477T468 427T512 348T528 242Q528 183 512 136T468 56T400 5T313 -12Q263 -12 221 10T150 73V-184H75V483H150V411Q176 448 219 471T313 495ZM294 428Q249 428 209 405T150 351V133Q170 101 209 78T294 55Q330 55 359 69T408 108T438 167T449 242Q449 282 438 316T408 375T359 414T294 428Z" unicode="р"/>
			<glyph d="M288 495Q354 495 395 471T465 411L415 365Q391 398 360 413T292 428Q253 428 222 414T170 375T136 316T125 242Q125 202 136 167T170 108T222 69T292 55Q368 55 415 118L465 72Q437 36 395 12T288 -12Q234 -12 189 7T113 61T64 141T47 242Q47 296 64 342T113 422T189 475T288 495Z" horiz-adv-x="495" unicode="с"/>
			<glyph d="M23 483H379V417H238V0H163V417H23Z" horiz-adv-x="402" unicode="т"/>
			<glyph d="M3 483H84L245 87L405 483H487L245 -98Q223 -151 187 -173T103 -196Q91 -196 75 -194T48 -189L60 -121Q68 -125 80 -127T101 -129Q126 -129 143 -118T173 -78L205 -5Z" horiz-adv-x="490" unicode="у"/>
			<glyph d="M362 667H437V411Q458 448 492 471T568 495Q606 495 638 477T693 427T729 348T742 242Q742 183 729 136T693 56T638 5T568 -12Q528 -12 494 10T437 73V-184H362V72Q341 35 306 11T230 -12Q192 -12 160 5T105 55T69 135T56 241Q56 299 69 346T105 426T160 477T230 495Q270 495 304 473T362 410ZM251 428Q223 428 201 414T163 375T140 315T132 241Q132 201 140 167T163 108T201 69T251 55Q286 55 316 77T362 132V350Q347 382 316 405T251 428ZM547 428Q513 428 482 405T437 351V133Q452 101 482 78T547 55Q575 55 597 69T634 108T658 167T666 242Q666 282 658 316T634 375T597 414T547 428Z" horiz-adv-x="798" unicode="ф"/>
			<glyph d="M22 483H109L243 299L377 483H464L289 248L475 0H388L243 198L98 0H12L197 248Z" horiz-adv-x="486" unicode="х"/>
			<glyph d="M75 483H150V66H402V483H477V66H533V-123H458V0H75Z" horiz-adv-x="561" unicode="ц"/>
			<glyph d="M65 483H140V347Q140 313 148 291T171 256T210 237T263 232Q301 232 335 239T391 258V483H466V0H391V197Q364 183 325 174T244 165Q149 165 107 203T65 324Z" horiz-adv-x="541" unicode="ч"/>
			<glyph d="M75 483H150V66H354V483H429V66H633V483H708V0H75Z" horiz-adv-x="783" unicode="ш"/>
			<glyph d="M75 483H150V66H354V483H429V66H633V483H708V66H770V-123H695V0H75Z" horiz-adv-x="798" unicode="щ"/>
			<glyph d="M23 483H238V296H419Q456 296 484 284T532 251T561 204T571 148Q571 118 561 91T532 44T484 12T419 0H163V417H23ZM238 230V66H411Q452 66 473 89T494 148Q494 183 473 206T411 230Z" horiz-adv-x="610" unicode="ъ"/>
			<glyph d="M75 483H150V296H331Q368 296 396 284T444 251T473 204T483 148Q483 118 473 91T444 44T396 12T331 0H75ZM150 230V66H323Q364 66 385 89T406 148Q406 183 385 206T323 230ZM562 483H637V0H562Z" horiz-adv-x="712" unicode="ы"/>
			<glyph d="M75 483H150V296H331Q368 296 396 284T444 251T473 204T483 148Q483 118 473 91T444 44T396 12T331 0H75ZM150 230V66H323Q364 66 385 89T406 148Q406 183 385 206T323 230Z" horiz-adv-x="522" unicode="ь"/>
			<glyph d="M207 495Q261 495 306 475T382 422T431 342T449 242Q449 188 431 141T382 61T306 7T207 -12Q141 -12 99 12T30 72L78 116Q127 50 204 50Q274 50 317 94T368 212H125V277H367Q358 348 315 390T204 433Q126 433 78 367L30 411Q58 447 99 471T207 495Z" horiz-adv-x="495" unicode="э"/>
			<glyph d="M480 495Q535 495 579 475T655 421T703 340T720 242Q720 189 703 143T655 62T579 8T480 -12Q429 -12 387 5T314 54T265 126T243 216H150V0H75V483H150V282H244Q250 327 269 366T318 433T389 478T480 495ZM480 428Q442 428 412 412T361 371T330 312T320 242Q320 205 330 171T361 111T412 70T480 55Q519 55 549 70T599 111T630 171T641 242Q641 279 630 312T599 371T549 412T480 428Z" horiz-adv-x="767" unicode="ю"/>
			<glyph d="M217 483H472V0H397V187H265L147 0H59L188 190Q134 197 99 235T64 335Q64 366 74 393T103 440T151 471T217 483ZM225 417Q185 417 163 394T141 335Q141 299 162 276T225 253H397V417Z" horiz-adv-x="547" unicode="я"/>
			<glyph d="M388 650Q407 650 421 636T435 604Q435 584 421 570T388 557Q369 557 355 570T341 604Q341 623 355 636T388 650ZM182 650Q201 650 214 636T228 604Q228 584 214 570T182 557Q162 557 148 570T135 604Q135 623 148 636T182 650ZM285 495Q340 495 383 475T456 420T501 337T517 236V217H126Q128 183 141 152T176 99T230 63T300 50Q342 50 381 66T449 111L485 62Q449 26 401 7T293 -12Q239 -12 194 6T116 58T65 138T47 242Q47 294 65 340T114 421T189 475T285 495ZM284 433Q245 433 216 418T167 380T137 328T126 272H443Q443 299 433 327T404 379T355 418T284 433Z" horiz-adv-x="563" unicode="ё"/>
			<glyph d="M77 667H152V583H309V535H152V413Q165 428 183 442T223 469T272 488T325 495Q400 495 439 457T479 341V-47Q479 -119 442 -157T335 -196Q298 -196 275 -187T230 -160L256 -103Q269 -116 285 -125T325 -134Q359 -134 381 -113T404 -47V318Q404 350 396 371T374 405T339 423T295 428Q273 428 252 422T212 405T178 381T152 353V0H77V535H9V583H77Z" horiz-adv-x="554" unicode="ђ"/>
			<glyph d="M336 700H414L245 556H188ZM75 483H413V417H150V0H75Z" horiz-adv-x="436" unicode="ѓ"/>
			<glyph d="M288 495Q354 495 395 471T465 411L417 367Q369 433 292 433Q223 433 179 390T127 277H370V212H126Q134 139 177 94T292 50Q368 50 417 116L465 72Q437 36 395 12T288 -12Q234 -12 189 7T113 61T64 141T47 242Q47 296 64 342T113 422T189 475T288 495Z" horiz-adv-x="495" unicode="є"/>
			<glyph d="M226 495Q288 495 332 474T405 425L370 373Q348 399 310 416T226 434Q176 434 147 412T119 358Q119 332 141 318T196 294T268 276T340 252T396 208T418 134Q418 104 406 77T370 30T310 0T228 -12Q168 -12 119 6T33 64L72 118Q96 90 138 69T231 49Q287 49 316 72T345 132Q345 161 323 176T267 202T195 220T123 244T68 285T46 356Q46 384 58 409T93 454T149 484T226 495Z" horiz-adv-x="465" unicode="ѕ"/>
			<glyph d="M112 653Q133 653 148 638T163 602Q163 581 148 566T112 552Q92 552 77 566T62 602Q62 623 77 638T112 653ZM75 483H150V0H75Z" horiz-adv-x="225" unicode="і"/>
			<glyph d="M217 650Q236 650 250 636T264 604Q264 584 250 570T217 557Q198 557 184 570T170 604Q170 623 184 636T217 650ZM11 650Q30 650 43 636T57 604Q57 584 43 570T11 557Q-9 557 -22 570T-36 604Q-36 623 -22 636T11 650ZM75 483H150V0H75Z" horiz-adv-x="225" unicode="ї"/>
			<glyph d="M112 653Q133 653 148 638T163 602Q163 581 148 566T112 552Q92 552 77 566T62 602Q62 623 77 638T112 653ZM75 483H150V-47Q150 -119 113 -157T7 -196Q-30 -196 -53 -187T-99 -160L-72 -103Q-59 -116 -42 -125T-3 -134Q31 -134 53 -113T75 -47Z" horiz-adv-x="225" unicode="ј"/>
			<glyph d="M141 483H477V296H657Q695 296 723 284T771 251T800 204T810 148Q810 118 800 91T771 44T723 12T657 0H402V417H207L185 236Q177 168 163 121T128 44T80 1T18 -12V50Q52 50 74 94T110 245ZM477 230V66H650Q691 66 712 89T733 148Q733 183 712 206T650 230Z" horiz-adv-x="849" unicode="љ"/>
			<glyph d="M75 483H150V282H402V483H477V282H665Q701 282 728 270T773 239T800 194T810 140Q810 112 800 86T773 42T728 11T665 0H402V216H150V0H75ZM477 216V66H657Q694 66 713 87T733 140Q733 173 714 194T657 216Z" horiz-adv-x="849" unicode="њ"/>
			<glyph d="M77 667H152V583H308V535H152V413Q165 428 183 442T223 469T272 488T325 495Q401 495 440 457T479 341V0H404V318Q404 350 396 371T374 405T339 423T295 428Q273 428 252 422T212 405T178 381T152 353V0H77V535H9V583H77Z" horiz-adv-x="554" unicode="ћ"/>
			<glyph d="M350 700H428L259 556H202ZM75 483H150V226L404 483H499L285 264L500 0H404L230 217L150 138V0H75Z" horiz-adv-x="514" unicode="ќ"/>
			<glyph d="M3 483H84L245 87L405 483H487L245 -98Q223 -151 187 -173T103 -196Q91 -196 75 -194T48 -189L60 -121Q68 -125 80 -127T101 -129Q126 -129 143 -118T173 -78L205 -5ZM107 658Q131 625 166 605T246 586Q290 586 325 605T384 658L421 626Q391 585 345 561T246 538Q192 538 146 561T70 626Z" horiz-adv-x="490" unicode="ў"/>
			<glyph d="M75 483H150V66H402V483H477V0H314V-126H239V0H75Z" horiz-adv-x="552" unicode="џ"/>
			<glyph d="M432 790H515V593H161V0H78V667H432Z" horiz-adv-x="550" unicode="Ґ"/>
			<glyph d="M338 609H413V417H150V0H75V483H338Z" horiz-adv-x="436" unicode="ґ"/>
			<glyph d="M78 667H375Q418 667 453 654T512 619T549 565T562 497Q562 465 552 439T526 393T489 361T445 344Q472 340 495 325T536 288T564 238T575 180Q575 140 562 107T524 50T463 13T382 0H78ZM161 593V378H361Q418 378 447 408T476 485Q476 530 447 561T361 593ZM161 304V74H365Q424 74 456 104T489 189Q489 212 481 233T457 269T419 294T365 304ZM314 816Q334 816 347 802T360 769Q360 749 347 735T314 722Q295 722 281 735T267 769Q267 789 281 802T314 816Z" horiz-adv-x="629" unicode="Ḃ"/>
			<glyph d="M294 428Q249 428 209 405T150 350V131Q170 99 209 77T294 55Q331 55 360 69T409 108T439 167T450 241Q450 281 439 315T409 375T360 414T294 428ZM75 667H150V410Q179 450 221 472T313 495Q360 495 399 477T467 426T512 346T528 241Q528 182 512 135T467 55T399 5T313 -12Q262 -12 219 11T150 72V0H75ZM294 816Q314 816 327 802T340 769Q340 749 327 735T294 722Q275 722 261 735T247 769Q247 789 261 802T294 816Z" horiz-adv-x="575" unicode="ḃ"/>
			<glyph d="M78 667H306Q384 667 447 641T554 571T623 465T648 333Q648 262 623 201T554 95T447 25T306 0H78ZM161 593V74H306Q367 74 414 94T495 150T545 232T562 333Q562 387 545 434T495 517T415 572T306 593ZM350 816Q370 816 383 802T396 769Q396 749 383 735T350 722Q331 722 317 735T303 769Q303 789 317 802T350 816Z" horiz-adv-x="700" unicode="Ḋ"/>
			<glyph d="M425 667H500V0H425V72Q398 35 355 11T262 -12Q215 -12 175 5T107 55T63 135T47 241Q47 299 62 346T106 426T174 477T262 495Q311 495 353 472T425 410ZM280 428Q244 428 215 414T166 375T135 315T125 241Q125 201 135 167T166 108T215 69T280 55Q325 55 365 77T425 131V350Q405 382 365 405T280 428ZM282 816Q302 816 315 802T328 769Q328 749 315 735T282 722Q263 722 249 735T235 769Q235 789 249 802T282 816Z" horiz-adv-x="575" unicode="ḋ"/>
			<glyph d="M297 816Q317 816 330 802T343 769Q343 749 330 735T297 722Q278 722 264 735T250 769Q250 789 264 802T297 816ZM78 667H515V593H161V378H508V304H161V0H78Z" horiz-adv-x="550" unicode="Ḟ"/>
			<glyph d="M237 816Q257 816 270 802T283 769Q283 749 270 735T237 722Q218 722 204 735T190 769Q190 789 204 802T237 816ZM236 677Q265 677 290 669T338 640L307 591Q295 602 280 608T247 615Q210 615 190 590T171 520V483H269V417H171V0H96V417H16V483H96V520Q96 595 133 636T236 677Z" horiz-adv-x="283" unicode="ḟ"/>
			<glyph d="M78 667H161V380H551V667H634V0H551V306H161V0H78ZM355 816Q375 816 388 802T401 769Q401 749 388 735T355 722Q336 722 322 735T308 769Q308 789 322 802T355 816Z" horiz-adv-x="712" unicode="Ḣ"/>
			<glyph d="M75 667H150V413Q163 428 181 442T221 469T270 488T323 495Q399 495 438 457T477 341V0H402V318Q402 350 394 371T372 405T337 423T293 428Q271 428 250 422T210 405T176 381T150 353V0H75ZM276 816Q296 816 309 802T322 769Q322 749 309 735T276 722Q257 722 243 735T229 769Q229 789 243 802T276 816Z" horiz-adv-x="552" unicode="ḣ"/>
			<glyph d="M78 667H346Q396 667 435 651T500 607T541 543T555 466Q555 425 541 388T500 324T434 281T346 265H161V0H78ZM161 593V339H336Q396 339 432 374T469 466Q469 523 432 558T336 593ZM293 816Q313 816 326 802T339 769Q339 749 326 735T293 722Q274 722 260 735T246 769Q246 789 260 802T293 816Z" horiz-adv-x="587" unicode="Ṗ"/>
			<glyph d="M313 495Q361 495 400 477T468 427T512 348T528 242Q528 183 512 136T468 56T400 5T313 -12Q263 -12 221 10T150 73V-184H75V483H150V411Q176 448 219 471T313 495ZM294 428Q249 428 209 405T150 351V133Q170 101 209 78T294 55Q330 55 359 69T408 108T438 167T449 242Q449 282 438 316T408 375T359 414T294 428ZM293 649Q313 649 326 635T339 602Q339 582 326 568T293 555Q274 555 260 568T246 602Q246 622 260 635T293 649Z" unicode="ṗ"/>
			<glyph d="M288 677Q365 677 424 653T525 584L475 523Q437 565 387 584T282 603Q222 603 183 574T145 497Q145 469 162 451T206 420T269 397T342 377T415 353T478 317T523 263T540 184Q540 148 527 112T484 49T408 5T294 -12Q206 -12 143 17T38 94L87 157Q103 139 125 121T173 91T231 70T297 62Q342 62 372 73T420 100T446 137T454 177Q454 209 437 230T392 265T329 289T256 309T183 333T120 366T76 417T59 492Q59 533 76 567T124 625T197 663T288 677ZM293 816Q313 816 326 802T339 769Q339 749 326 735T293 722Q274 722 260 735T246 769Q246 789 260 802T293 816Z" horiz-adv-x="586" unicode="Ṡ"/>
			<glyph d="M226 495Q288 495 332 474T405 425L370 373Q348 399 310 416T226 434Q176 434 147 412T119 358Q119 332 141 318T196 294T268 276T340 252T396 208T418 134Q418 104 406 77T370 30T310 0T228 -12Q168 -12 119 6T33 64L72 118Q96 90 138 69T231 49Q287 49 316 72T345 132Q345 161 323 176T267 202T195 220T123 244T68 285T46 356Q46 384 58 409T93 454T149 484T226 495ZM232 649Q252 649 265 635T278 602Q278 582 265 568T232 555Q213 555 199 568T185 602Q185 622 199 635T232 649Z" horiz-adv-x="465" unicode="ṡ"/>
			<glyph d="M32 667H538V593H326V0H243V593H32ZM284 816Q304 816 317 802T330 769Q330 749 317 735T284 722Q265 722 251 735T237 769Q237 789 251 802T284 816Z" horiz-adv-x="570" unicode="Ṫ"/>
			<glyph d="M90 615H165V483H263V417H165V117Q165 90 177 72T214 55Q230 55 243 61T265 75L287 19Q273 5 251 -3T197 -12Q143 -12 116 17T90 101V417H10V483H90ZM134 816Q154 816 167 802T180 769Q180 749 167 735T134 722Q115 722 101 735T87 769Q87 789 101 802T134 816Z" horiz-adv-x="294" unicode="ṫ"/>
			<glyph d="M14 667H106L254 111L407 667H476L629 111L776 667H868L678 0H588L441 538L294 0H204ZM272 867H350L498 723H441Z" horiz-adv-x="883" unicode="Ẁ"/>
			<glyph d="M12 483H90L208 98L335 483H399L526 98L644 483H722L568 0H493L367 388L241 0H166ZM198 700H276L424 556H367Z" horiz-adv-x="734" unicode="ẁ"/>
			<glyph d="M532 867H610L441 723H384ZM14 667H106L254 111L407 667H476L629 111L776 667H868L678 0H588L441 538L294 0H204Z" horiz-adv-x="883" unicode="Ẃ"/>
			<glyph d="M458 700H536L367 556H310ZM12 483H90L208 98L335 483H399L526 98L644 483H722L568 0H493L367 388L241 0H166Z" horiz-adv-x="734" unicode="ẃ"/>
			<glyph d="M544 817Q563 817 577 803T591 771Q591 751 577 737T544 724Q525 724 511 737T497 771Q497 790 511 803T544 817ZM338 817Q357 817 370 803T384 771Q384 751 370 737T338 724Q318 724 304 737T291 771Q291 790 304 803T338 817ZM14 667H106L254 111L407 667H476L629 111L776 667H868L678 0H588L441 538L294 0H204Z" horiz-adv-x="883" unicode="Ẅ"/>
			<glyph d="M470 650Q489 650 503 636T517 604Q517 584 503 570T470 557Q451 557 437 570T423 604Q423 623 437 636T470 650ZM264 650Q283 650 296 636T310 604Q310 584 296 570T264 557Q244 557 230 570T217 604Q217 623 230 636T264 650ZM12 483H90L208 98L335 483H399L526 98L644 483H722L568 0H493L367 388L241 0H166Z" horiz-adv-x="734" unicode="ẅ"/>
			<glyph d="M277 667H380L649 0H554L495 148H163L104 0H9ZM329 581L187 222H470ZM329 -89Q349 -89 362 -102T375 -136Q375 -156 362 -169T329 -183Q310 -183 296 -169T282 -136Q282 -116 296 -102T329 -89Z" horiz-adv-x="658" unicode="Ạ"/>
			<glyph d="M265 495Q303 495 337 486T396 457T437 407T452 332V0H377V55Q316 -12 217 -12Q186 -12 156 -2T102 28T63 79T48 148Q48 188 63 218T102 268T156 297T217 307Q267 307 307 291T377 241V328Q377 377 342 403T255 430Q170 430 107 363L72 415Q149 495 265 495ZM244 253Q191 253 158 223T125 147Q125 101 158 71T244 42Q284 42 319 57T377 102V193Q355 223 319 238T244 253ZM264 -89Q284 -89 297 -102T310 -136Q310 -156 297 -169T264 -183Q245 -183 231 -169T217 -136Q217 -116 231 -102T264 -89Z" horiz-adv-x="527" unicode="ạ"/>
			<glyph d="M277 667H380L649 0H554L495 148H163L104 0H9ZM329 581L187 222H470ZM329 820Q358 820 379 803T401 751Q401 734 396 722T382 697H342Q355 710 360 723T365 749Q365 769 355 778T329 788Q300 788 289 756L256 765Q264 788 282 804T329 820Z" horiz-adv-x="658" unicode="Ả"/>
			<glyph d="M265 495Q303 495 337 486T396 457T437 407T452 332V0H377V55Q316 -12 217 -12Q186 -12 156 -2T102 28T63 79T48 148Q48 188 63 218T102 268T156 297T217 307Q267 307 307 291T377 241V328Q377 377 342 403T255 430Q170 430 107 363L72 415Q149 495 265 495ZM244 253Q191 253 158 223T125 147Q125 101 158 71T244 42Q284 42 319 57T377 102V193Q355 223 319 238T244 253ZM264 651Q293 651 314 634T336 582Q336 565 331 553T317 528H277Q290 541 295 554T300 580Q300 600 290 609T264 619Q235 619 224 587L191 596Q199 619 217 635T264 651Z" horiz-adv-x="527" unicode="ả"/>
			<glyph d="M293 790H365L463 682H412L329 762L249 682H198ZM277 667H380L649 0H554L495 148H163L104 0H9ZM329 581L187 222H470ZM579 844H657L488 736H431Z" horiz-adv-x="658" unicode="Ấ"/>
			<glyph d="M265 495Q303 495 337 486T396 457T437 407T452 332V0H377V55Q316 -12 217 -12Q186 -12 156 -2T102 28T63 79T48 148Q48 188 63 218T102 268T156 297T217 307Q267 307 307 291T377 241V328Q377 377 342 403T255 430Q170 430 107 363L72 415Q149 495 265 495ZM244 253Q191 253 158 223T125 147Q125 101 158 71T244 42Q284 42 319 57T377 102V193Q355 223 319 238T244 253ZM228 700H300L398 556H347L264 662L184 556H133ZM509 770H587L418 626H361Z" horiz-adv-x="527" unicode="ấ"/>
			<glyph d="M293 790H365L463 682H412L329 762L249 682H198ZM277 667H380L649 0H554L495 148H163L104 0H9ZM329 581L187 222H470ZM3 844H81L229 736H172Z" horiz-adv-x="658" unicode="Ầ"/>
			<glyph d="M265 495Q303 495 337 486T396 457T437 407T452 332V0H377V55Q316 -12 217 -12Q186 -12 156 -2T102 28T63 79T48 148Q48 188 63 218T102 268T156 297T217 307Q267 307 307 291T377 241V328Q377 377 342 403T255 430Q170 430 107 363L72 415Q149 495 265 495ZM244 253Q191 253 158 223T125 147Q125 101 158 71T244 42Q284 42 319 57T377 102V193Q355 223 319 238T244 253ZM228 700H300L398 556H347L264 662L184 556H133ZM-56 770H22L170 626H113Z" horiz-adv-x="527" unicode="ầ"/>
			<glyph d="M293 790H365L463 682H412L329 762L249 682H198ZM277 667H380L649 0H554L495 148H163L104 0H9ZM329 581L187 222H470ZM468 837Q497 837 518 824T540 785Q540 772 535 763T521 744H481Q494 754 499 764T504 783Q504 798 494 805T468 813Q439 813 428 789L395 795Q403 813 421 825T468 837Z" horiz-adv-x="658" unicode="Ẩ"/>
			<glyph d="M265 495Q303 495 337 486T396 457T437 407T452 332V0H377V55Q316 -12 217 -12Q186 -12 156 -2T102 28T63 79T48 148Q48 188 63 218T102 268T156 297T217 307Q267 307 307 291T377 241V328Q377 377 342 403T255 430Q170 430 107 363L72 415Q149 495 265 495ZM244 253Q191 253 158 223T125 147Q125 101 158 71T244 42Q284 42 319 57T377 102V193Q355 223 319 238T244 253ZM228 700H300L398 556H347L264 662L184 556H133ZM355 790Q384 790 405 773T427 721Q427 704 422 692T408 667H368Q381 680 386 693T391 719Q391 739 381 748T355 758Q326 758 315 726L282 735Q290 758 308 774T355 790Z" horiz-adv-x="527" unicode="ẩ"/>
			<glyph d="M293 750H365L463 678H412L329 731L249 678H198ZM277 667H380L649 0H554L495 148H163L104 0H9ZM329 581L187 222H470ZM269 827Q296 827 312 820T339 804T362 788T392 781Q412 781 426 791T440 824H485Q485 795 460 776T388 757Q361 757 345 764T317 780T294 796T265 803Q245 803 231 793T217 760H172Q172 790 196 808T269 827Z" horiz-adv-x="658" unicode="Ẫ"/>
			<glyph d="M265 495Q303 495 337 486T396 457T437 407T452 332V0H377V55Q316 -12 217 -12Q186 -12 156 -2T102 28T63 79T48 148Q48 188 63 218T102 268T156 297T217 307Q267 307 307 291T377 241V328Q377 377 342 403T255 430Q170 430 107 363L72 415Q149 495 265 495ZM244 253Q191 253 158 223T125 147Q125 101 158 71T244 42Q284 42 319 57T377 102V193Q355 223 319 238T244 253ZM228 668H300L398 524H347L264 630L184 524H133ZM204 822Q231 822 247 807T274 776T297 744T327 730Q347 730 361 750T375 816H420Q420 757 395 719T323 682Q296 682 280 696T252 728T229 759T200 774Q180 774 166 753T152 688H107Q107 747 131 784T204 822Z" horiz-adv-x="527" unicode="ẫ"/>
			<glyph d="M277 667H380L649 0H554L495 148H163L104 0H9ZM329 581L187 222H470ZM292 867H364L462 723H411L328 829L248 723H197ZM329 -89Q349 -89 362 -102T375 -136Q375 -156 362 -169T329 -183Q310 -183 296 -169T282 -136Q282 -116 296 -102T329 -89Z" horiz-adv-x="658" unicode="Ậ"/>
			<glyph d="M265 495Q303 495 337 486T396 457T437 407T452 332V0H377V55Q316 -12 217 -12Q186 -12 156 -2T102 28T63 79T48 148Q48 188 63 218T102 268T156 297T217 307Q267 307 307 291T377 241V328Q377 377 342 403T255 430Q170 430 107 363L72 415Q149 495 265 495ZM244 253Q191 253 158 223T125 147Q125 101 158 71T244 42Q284 42 319 57T377 102V193Q355 223 319 238T244 253ZM226 700H298L396 556H345L262 662L182 556H131ZM264 -89Q284 -89 297 -102T310 -136Q310 -156 297 -169T264 -183Q245 -183 231 -169T217 -136Q217 -116 231 -102T264 -89Z" horiz-adv-x="527" unicode="ậ"/>
			<glyph d="M277 667H380L649 0H554L495 148H163L104 0H9ZM329 581L187 222H470ZM419 838H497L328 741H271ZM190 787Q214 759 249 742T329 726Q373 726 408 742T467 787L504 760Q474 725 428 705T329 685Q275 685 229 705T153 760Z" horiz-adv-x="658" unicode="Ắ"/>
			<glyph d="M265 495Q303 495 337 486T396 457T437 407T452 332V0H377V55Q316 -12 217 -12Q186 -12 156 -2T102 28T63 79T48 148Q48 188 63 218T102 268T156 297T217 307Q267 307 307 291T377 241V328Q377 377 342 403T255 430Q170 430 107 363L72 415Q149 495 265 495ZM244 253Q191 253 158 223T125 147Q125 101 158 71T244 42Q284 42 319 57T377 102V193Q355 223 319 238T244 253ZM357 766H435L266 622H209ZM126 642Q150 609 185 589T265 570Q309 570 344 589T403 642L440 610Q410 569 364 545T265 522Q211 522 165 545T89 610Z" horiz-adv-x="527" unicode="ắ"/>
			<glyph d="M277 667H380L649 0H554L495 148H163L104 0H9ZM329 581L187 222H470ZM162 838H240L388 741H331ZM190 784Q214 756 249 739T329 723Q373 723 408 739T467 784L504 757Q474 722 428 702T329 682Q275 682 229 702T153 757Z" horiz-adv-x="658" unicode="Ằ"/>
			<glyph d="M265 495Q303 495 337 486T396 457T437 407T452 332V0H377V55Q316 -12 217 -12Q186 -12 156 -2T102 28T63 79T48 148Q48 188 63 218T102 268T156 297T217 307Q267 307 307 291T377 241V328Q377 377 342 403T255 430Q170 430 107 363L72 415Q149 495 265 495ZM244 253Q191 253 158 223T125 147Q125 101 158 71T244 42Q284 42 319 57T377 102V193Q355 223 319 238T244 253ZM93 766H171L319 622H262ZM126 646Q150 613 185 593T265 574Q309 574 344 593T403 646L440 614Q410 573 364 549T265 526Q211 526 165 549T89 614Z" horiz-adv-x="527" unicode="ằ"/>
			<glyph d="M277 667H380L649 0H554L495 148H163L104 0H9ZM329 581L187 222H470ZM329 827Q358 827 379 816T401 781Q401 769 396 761T382 744H342Q355 753 360 761T365 779Q365 793 355 799T329 806Q300 806 289 784L256 790Q264 806 282 816T329 827ZM190 786Q214 758 249 741T329 725Q373 725 408 741T467 786L504 759Q474 724 428 704T329 684Q275 684 229 704T153 759Z" horiz-adv-x="658" unicode="Ẳ"/>
			<glyph d="M265 495Q303 495 337 486T396 457T437 407T452 332V0H377V55Q316 -12 217 -12Q186 -12 156 -2T102 28T63 79T48 148Q48 188 63 218T102 268T156 297T217 307Q267 307 307 291T377 241V328Q377 377 342 403T255 430Q170 430 107 363L72 415Q149 495 265 495ZM244 253Q191 253 158 223T125 147Q125 101 158 71T244 42Q284 42 319 57T377 102V193Q355 223 319 238T244 253ZM264 746Q293 746 314 729T336 677Q336 660 331 648T317 623H277Q290 636 295 649T300 675Q300 695 290 704T264 714Q235 714 224 682L191 691Q199 714 217 730T264 746ZM126 646Q150 613 185 593T265 574Q309 574 344 593T403 646L440 614Q410 573 364 549T265 526Q211 526 165 549T89 614Z" horiz-adv-x="527" unicode="ẳ"/>
			<glyph d="M277 667H380L649 0H554L495 148H163L104 0H9ZM329 581L187 222H470ZM191 753Q215 732 250 720T330 709Q374 709 409 720T468 753L505 733Q475 708 429 693T330 679Q276 679 230 693T154 733ZM269 827Q296 827 312 820T339 804T362 788T392 781Q412 781 426 791T440 824H485Q485 795 460 776T388 757Q361 757 345 764T317 780T294 796T265 803Q245 803 231 793T217 760H172Q172 790 196 808T269 827Z" horiz-adv-x="658" unicode="Ẵ"/>
			<glyph d="M265 495Q303 495 337 486T396 457T437 407T452 332V0H377V55Q316 -12 217 -12Q186 -12 156 -2T102 28T63 79T48 148Q48 188 63 218T102 268T156 297T217 307Q267 307 307 291T377 241V328Q377 377 342 403T255 430Q170 430 107 363L72 415Q149 495 265 495ZM244 253Q191 253 158 223T125 147Q125 101 158 71T244 42Q284 42 319 57T377 102V193Q355 223 319 238T244 253ZM126 646Q150 613 185 593T265 574Q309 574 344 593T403 646L440 614Q410 573 364 549T265 526Q211 526 165 549T89 614ZM204 797Q231 797 247 782T274 751T297 719T327 705Q347 705 361 725T375 791H420Q420 732 395 694T323 657Q296 657 280 671T252 703T229 734T200 749Q180 749 166 728T152 663H107Q107 722 131 759T204 797Z" horiz-adv-x="527" unicode="ẵ"/>
			<glyph d="M277 667H380L649 0H554L495 148H163L104 0H9ZM329 581L187 222H470ZM329 -89Q349 -89 362 -102T375 -136Q375 -156 362 -169T329 -183Q310 -183 296 -169T282 -136Q282 -116 296 -102T329 -89ZM190 825Q214 792 249 772T329 753Q373 753 408 772T467 825L504 793Q474 752 428 728T329 705Q275 705 229 728T153 793Z" horiz-adv-x="658" unicode="Ặ"/>
			<glyph d="M265 495Q303 495 337 486T396 457T437 407T452 332V0H377V55Q316 -12 217 -12Q186 -12 156 -2T102 28T63 79T48 148Q48 188 63 218T102 268T156 297T217 307Q267 307 307 291T377 241V328Q377 377 342 403T255 430Q170 430 107 363L72 415Q149 495 265 495ZM244 253Q191 253 158 223T125 147Q125 101 158 71T244 42Q284 42 319 57T377 102V193Q355 223 319 238T244 253ZM264 -89Q284 -89 297 -102T310 -136Q310 -156 297 -169T264 -183Q245 -183 231 -169T217 -136Q217 -116 231 -102T264 -89ZM123 658Q147 625 182 605T262 586Q306 586 341 605T400 658L437 626Q407 585 361 561T262 538Q208 538 162 561T86 626Z" horiz-adv-x="527" unicode="ặ"/>
			<glyph d="M78 667H515V593H161V378H508V304H161V74H515V0H78ZM300 -89Q320 -89 333 -102T346 -136Q346 -156 333 -169T300 -183Q281 -183 267 -169T253 -136Q253 -116 267 -102T300 -89Z" horiz-adv-x="569" unicode="Ẹ"/>
			<glyph d="M285 495Q340 495 383 475T456 420T501 337T517 236V217H126Q128 183 141 152T176 99T230 63T300 50Q342 50 381 66T449 111L485 62Q449 26 401 7T293 -12Q239 -12 194 6T116 58T65 138T47 242Q47 294 65 340T114 421T189 475T285 495ZM284 433Q245 433 216 418T167 380T137 328T126 272H443Q443 299 433 327T404 379T355 418T284 433ZM286 -89Q306 -89 319 -102T332 -136Q332 -156 319 -169T286 -183Q267 -183 253 -169T239 -136Q239 -116 253 -102T286 -89Z" horiz-adv-x="563" unicode="ẹ"/>
			<glyph d="M78 667H515V593H161V378H508V304H161V74H515V0H78ZM292 820Q321 820 342 803T364 751Q364 734 359 722T345 697H305Q318 710 323 723T328 749Q328 769 318 778T292 788Q263 788 252 756L219 765Q227 788 245 804T292 820Z" horiz-adv-x="569" unicode="Ẻ"/>
			<glyph d="M285 495Q340 495 383 475T456 420T501 337T517 236V217H126Q128 183 141 152T176 99T230 63T300 50Q342 50 381 66T449 111L485 62Q449 26 401 7T293 -12Q239 -12 194 6T116 58T65 138T47 242Q47 294 65 340T114 421T189 475T285 495ZM284 433Q245 433 216 418T167 380T137 328T126 272H443Q443 299 433 327T404 379T355 418T284 433ZM284 651Q313 651 334 634T356 582Q356 565 351 553T337 528H297Q310 541 315 554T320 580Q320 600 310 609T284 619Q255 619 244 587L211 596Q219 619 237 635T284 651Z" horiz-adv-x="563" unicode="ẻ"/>
			<glyph d="M78 667H515V593H161V378H508V304H161V74H515V0H78ZM238 861Q265 861 281 846T308 815T331 783T361 769Q381 769 395 789T409 855H454Q454 796 429 758T357 721Q330 721 314 735T286 767T263 798T234 813Q214 813 200 792T186 727H141Q141 786 165 823T238 861Z" horiz-adv-x="569" unicode="Ẽ"/>
			<glyph d="M285 495Q340 495 383 475T456 420T501 337T517 236V217H126Q128 183 141 152T176 99T230 63T300 50Q342 50 381 66T449 111L485 62Q449 26 401 7T293 -12Q239 -12 194 6T116 58T65 138T47 242Q47 294 65 340T114 421T189 475T285 495ZM284 433Q245 433 216 418T167 380T137 328T126 272H443Q443 299 433 327T404 379T355 418T284 433ZM225 694Q252 694 268 679T295 648T318 616T348 602Q368 602 382 622T396 688H441Q441 629 416 591T344 554Q317 554 301 568T273 600T250 631T221 646Q201 646 187 625T173 560H128Q128 619 152 656T225 694Z" horiz-adv-x="563" unicode="ẽ"/>
			<glyph d="M264 790H336L434 682H383L300 762L220 682H169ZM550 844H628L459 736H402ZM78 667H515V593H161V378H508V304H161V74H515V0H78Z" horiz-adv-x="569" unicode="Ế"/>
			<glyph d="M248 700H320L418 556H367L284 662L204 556H153ZM526 770H604L435 626H378ZM285 495Q340 495 383 475T456 420T501 337T517 236V217H126Q128 183 141 152T176 99T230 63T300 50Q342 50 381 66T449 111L485 62Q449 26 401 7T293 -12Q239 -12 194 6T116 58T65 138T47 242Q47 294 65 340T114 421T189 475T285 495ZM284 433Q245 433 216 418T167 380T137 328T126 272H443Q443 299 433 327T404 379T355 418T284 433Z" horiz-adv-x="563" unicode="ế"/>
			<glyph d="M263 790H335L433 682H382L299 762L219 682H168ZM78 667H515V593H161V378H508V304H161V74H515V0H78ZM-26 844H52L200 736H143Z" horiz-adv-x="569" unicode="Ề"/>
			<glyph d="M247 700H319L417 556H366L283 662L203 556H152ZM285 495Q340 495 383 475T456 420T501 337T517 236V217H126Q128 183 141 152T176 99T230 63T300 50Q342 50 381 66T449 111L485 62Q449 26 401 7T293 -12Q239 -12 194 6T116 58T65 138T47 242Q47 294 65 340T114 421T189 475T285 495ZM284 433Q245 433 216 418T167 380T137 328T126 272H443Q443 299 433 327T404 379T355 418T284 433ZM-37 770H41L189 626H132Z" horiz-adv-x="563" unicode="ề"/>
			<glyph d="M264 790H336L434 682H383L300 762L220 682H169ZM78 667H515V593H161V378H508V304H161V74H515V0H78ZM439 837Q468 837 489 824T511 785Q511 772 506 763T492 744H452Q465 754 470 764T475 783Q475 798 465 805T439 813Q410 813 399 789L366 795Q374 813 392 825T439 837Z" horiz-adv-x="569" unicode="Ể"/>
			<glyph d="M246 700H318L416 556H365L282 662L202 556H151ZM285 495Q340 495 383 475T456 420T501 337T517 236V217H126Q128 183 141 152T176 99T230 63T300 50Q342 50 381 66T449 111L485 62Q449 26 401 7T293 -12Q239 -12 194 6T116 58T65 138T47 242Q47 294 65 340T114 421T189 475T285 495ZM284 433Q245 433 216 418T167 380T137 328T126 272H443Q443 299 433 327T404 379T355 418T284 433ZM373 790Q402 790 423 773T445 721Q445 704 440 692T426 667H386Q399 680 404 693T409 719Q409 739 399 748T373 758Q344 758 333 726L300 735Q308 758 326 774T373 790Z" horiz-adv-x="563" unicode="ể"/>
			<glyph d="M264 750H336L434 678H383L300 731L220 678H169ZM78 667H515V593H161V378H508V304H161V74H515V0H78ZM240 827Q267 827 283 820T310 804T333 788T363 781Q383 781 397 791T411 824H456Q456 795 431 776T359 757Q332 757 316 764T288 780T265 796T236 803Q216 803 202 793T188 760H143Q143 790 167 808T240 827Z" horiz-adv-x="569" unicode="Ễ"/>
			<glyph d="M246 668H318L416 524H365L282 630L202 524H151ZM285 495Q340 495 383 475T456 420T501 337T517 236V217H126Q128 183 141 152T176 99T230 63T300 50Q342 50 381 66T449 111L485 62Q449 26 401 7T293 -12Q239 -12 194 6T116 58T65 138T47 242Q47 294 65 340T114 421T189 475T285 495ZM284 433Q245 433 216 418T167 380T137 328T126 272H443Q443 299 433 327T404 379T355 418T284 433ZM221 822Q248 822 264 807T291 776T314 744T344 730Q364 730 378 750T392 816H437Q437 757 412 719T340 682Q313 682 297 696T269 728T246 759T217 774Q197 774 183 753T169 688H124Q124 747 148 784T221 822Z" horiz-adv-x="563" unicode="ễ"/>
			<glyph d="M258 867H330L428 723H377L294 829L214 723H163ZM78 667H515V593H161V378H508V304H161V74H515V0H78ZM300 -89Q320 -89 333 -102T346 -136Q346 -156 333 -169T300 -183Q281 -183 267 -169T253 -136Q253 -116 267 -102T300 -89Z" horiz-adv-x="569" unicode="Ệ"/>
			<glyph d="M249 700H321L419 556H368L285 662L205 556H154ZM285 495Q340 495 383 475T456 420T501 337T517 236V217H126Q128 183 141 152T176 99T230 63T300 50Q342 50 381 66T449 111L485 62Q449 26 401 7T293 -12Q239 -12 194 6T116 58T65 138T47 242Q47 294 65 340T114 421T189 475T285 495ZM284 433Q245 433 216 418T167 380T137 328T126 272H443Q443 299 433 327T404 379T355 418T284 433ZM286 -89Q306 -89 319 -102T332 -136Q332 -156 319 -169T286 -183Q267 -183 253 -169T239 -136Q239 -116 253 -102T286 -89Z" horiz-adv-x="563" unicode="ệ"/>
			<glyph d="M78 667H161V0H78ZM120 820Q149 820 170 803T192 751Q192 734 187 722T173 697H133Q146 710 151 723T156 749Q156 769 146 778T120 788Q91 788 80 756L47 765Q55 788 73 804T120 820Z" horiz-adv-x="239" unicode="Ỉ"/>
			<glyph d="M75 483H150V0H75ZM113 651Q142 651 163 634T185 582Q185 565 180 553T166 528H126Q139 541 144 554T149 580Q149 600 139 609T113 619Q84 619 73 587L40 596Q48 619 66 635T113 651Z" horiz-adv-x="225" unicode="ỉ"/>
			<glyph d="M78 667H161V0H78ZM120 -89Q140 -89 153 -102T166 -136Q166 -156 153 -169T120 -183Q101 -183 87 -169T73 -136Q73 -116 87 -102T120 -89Z" horiz-adv-x="239" unicode="Ị"/>
			<glyph d="M112 653Q133 653 148 638T163 602Q163 581 148 566T112 552Q92 552 77 566T62 602Q62 623 77 638T112 653ZM75 483H150V0H75ZM113 -89Q133 -89 146 -102T159 -136Q159 -156 146 -169T113 -183Q94 -183 80 -169T66 -136Q66 -116 80 -102T113 -89Z" horiz-adv-x="225" unicode="ị"/>
			<glyph d="M382 678Q456 678 517 652T621 579T689 470T713 333Q713 259 689 196T621 86T517 14T382 -12Q308 -12 247 14T142 86T75 196T51 333Q51 407 75 470T142 579T247 652T382 678ZM382 604Q326 604 280 583T203 527T154 441T137 333Q137 275 154 225T203 139T280 82T382 62Q438 62 483 82T560 139T609 225T627 333Q627 391 609 441T560 527T483 583T382 604ZM384 -89Q404 -89 417 -102T430 -136Q430 -156 417 -169T384 -183Q365 -183 351 -169T337 -136Q337 -116 351 -102T384 -89Z" horiz-adv-x="765" unicode="Ọ"/>
			<glyph d="M286 495Q341 495 385 475T461 421T508 340T525 242Q525 189 508 143T461 62T385 8T286 -12Q231 -12 186 8T111 62T63 143T47 242Q47 294 63 340T111 421T186 475T286 495ZM286 428Q247 428 217 412T166 371T135 312T125 242Q125 205 135 171T166 111T217 70T286 55Q325 55 354 70T404 111T435 171T446 242Q446 279 435 312T404 371T354 412T286 428ZM286 -89Q306 -89 319 -102T332 -136Q332 -156 319 -169T286 -183Q267 -183 253 -169T239 -136Q239 -116 253 -102T286 -89Z" unicode="ọ"/>
			<glyph d="M382 678Q456 678 517 652T621 579T689 470T713 333Q713 259 689 196T621 86T517 14T382 -12Q308 -12 247 14T142 86T75 196T51 333Q51 407 75 470T142 579T247 652T382 678ZM382 604Q326 604 280 583T203 527T154 441T137 333Q137 275 154 225T203 139T280 82T382 62Q438 62 483 82T560 139T609 225T627 333Q627 391 609 441T560 527T483 583T382 604ZM381 820Q410 820 431 803T453 751Q453 734 448 722T434 697H394Q407 710 412 723T417 749Q417 769 407 778T381 788Q352 788 341 756L308 765Q316 788 334 804T381 820Z" horiz-adv-x="765" unicode="Ỏ"/>
			<glyph d="M286 495Q341 495 385 475T461 421T508 340T525 242Q525 189 508 143T461 62T385 8T286 -12Q231 -12 186 8T111 62T63 143T47 242Q47 294 63 340T111 421T186 475T286 495ZM286 428Q247 428 217 412T166 371T135 312T125 242Q125 205 135 171T166 111T217 70T286 55Q325 55 354 70T404 111T435 171T446 242Q446 279 435 312T404 371T354 412T286 428ZM286 651Q315 651 336 634T358 582Q358 565 353 553T339 528H299Q312 541 317 554T322 580Q322 600 312 609T286 619Q257 619 246 587L213 596Q221 619 239 635T286 651Z" unicode="ỏ"/>
			<glyph d="M343 790H415L513 682H462L379 762L299 682H248ZM629 844H707L538 736H481ZM382 678Q456 678 517 652T621 579T689 470T713 333Q713 259 689 196T621 86T517 14T382 -12Q308 -12 247 14T142 86T75 196T51 333Q51 407 75 470T142 579T247 652T382 678ZM382 604Q326 604 280 583T203 527T154 441T137 333Q137 275 154 225T203 139T280 82T382 62Q438 62 483 82T560 139T609 225T627 333Q627 391 609 441T560 527T483 583T382 604Z" horiz-adv-x="765" unicode="Ố"/>
			<glyph d="M249 700H321L419 556H368L285 662L205 556H154ZM528 770H606L437 626H380ZM286 495Q341 495 385 475T461 421T508 340T525 242Q525 189 508 143T461 62T385 8T286 -12Q231 -12 186 8T111 62T63 143T47 242Q47 294 63 340T111 421T186 475T286 495ZM286 428Q247 428 217 412T166 371T135 312T125 242Q125 205 135 171T166 111T217 70T286 55Q325 55 354 70T404 111T435 171T446 242Q446 279 435 312T404 371T354 412T286 428Z" unicode="ố"/>
			<glyph d="M342 790H414L512 682H461L378 762L298 682H247ZM382 678Q456 678 517 652T621 579T689 470T713 333Q713 259 689 196T621 86T517 14T382 -12Q308 -12 247 14T142 86T75 196T51 333Q51 407 75 470T142 579T247 652T382 678ZM382 604Q326 604 280 583T203 527T154 441T137 333Q137 275 154 225T203 139T280 82T382 62Q438 62 483 82T560 139T609 225T627 333Q627 391 609 441T560 527T483 583T382 604ZM52 844H130L278 736H221Z" horiz-adv-x="765" unicode="Ồ"/>
			<glyph d="M249 700H321L419 556H368L285 662L205 556H154ZM286 495Q341 495 385 475T461 421T508 340T525 242Q525 189 508 143T461 62T385 8T286 -12Q231 -12 186 8T111 62T63 143T47 242Q47 294 63 340T111 421T186 475T286 495ZM286 428Q247 428 217 412T166 371T135 312T125 242Q125 205 135 171T166 111T217 70T286 55Q325 55 354 70T404 111T435 171T446 242Q446 279 435 312T404 371T354 412T286 428ZM-35 770H43L191 626H134Z" unicode="ồ"/>
			<glyph d="M342 790H414L512 682H461L378 762L298 682H247ZM382 678Q456 678 517 652T621 579T689 470T713 333Q713 259 689 196T621 86T517 14T382 -12Q308 -12 247 14T142 86T75 196T51 333Q51 407 75 470T142 579T247 652T382 678ZM382 604Q326 604 280 583T203 527T154 441T137 333Q137 275 154 225T203 139T280 82T382 62Q438 62 483 82T560 139T609 225T627 333Q627 391 609 441T560 527T483 583T382 604ZM517 837Q546 837 567 824T589 785Q589 772 584 763T570 744H530Q543 754 548 764T553 783Q553 798 543 805T517 813Q488 813 477 789L444 795Q452 813 470 825T517 837Z" horiz-adv-x="765" unicode="Ổ"/>
			<glyph d="M249 700H321L419 556H368L285 662L205 556H154ZM286 495Q341 495 385 475T461 421T508 340T525 242Q525 189 508 143T461 62T385 8T286 -12Q231 -12 186 8T111 62T63 143T47 242Q47 294 63 340T111 421T186 475T286 495ZM286 428Q247 428 217 412T166 371T135 312T125 242Q125 205 135 171T166 111T217 70T286 55Q325 55 354 70T404 111T435 171T446 242Q446 279 435 312T404 371T354 412T286 428ZM375 790Q404 790 425 773T447 721Q447 704 442 692T428 667H388Q401 680 406 693T411 719Q411 739 401 748T375 758Q346 758 335 726L302 735Q310 758 328 774T375 790Z" unicode="ổ"/>
			<glyph d="M344 750H416L514 678H463L380 731L300 678H249ZM382 678Q456 678 517 652T621 579T689 470T713 333Q713 259 689 196T621 86T517 14T382 -12Q308 -12 247 14T142 86T75 196T51 333Q51 407 75 470T142 579T247 652T382 678ZM382 604Q326 604 280 583T203 527T154 441T137 333Q137 275 154 225T203 139T280 82T382 62Q438 62 483 82T560 139T609 225T627 333Q627 391 609 441T560 527T483 583T382 604ZM320 827Q347 827 363 820T390 804T413 788T443 781Q463 781 477 791T491 824H536Q536 795 511 776T439 757Q412 757 396 764T368 780T345 796T316 803Q296 803 282 793T268 760H223Q223 790 247 808T320 827Z" horiz-adv-x="765" unicode="Ỗ"/>
			<glyph d="M247 668H319L417 524H366L283 630L203 524H152ZM286 495Q341 495 385 475T461 421T508 340T525 242Q525 189 508 143T461 62T385 8T286 -12Q231 -12 186 8T111 62T63 143T47 242Q47 294 63 340T111 421T186 475T286 495ZM286 428Q247 428 217 412T166 371T135 312T125 242Q125 205 135 171T166 111T217 70T286 55Q325 55 354 70T404 111T435 171T446 242Q446 279 435 312T404 371T354 412T286 428ZM223 822Q250 822 266 807T293 776T316 744T346 730Q366 730 380 750T394 816H439Q439 757 414 719T342 682Q315 682 299 696T271 728T248 759T219 774Q199 774 185 753T171 688H126Q126 747 150 784T223 822Z" unicode="ỗ"/>
			<glyph d="M347 867H419L517 723H466L383 829L303 723H252ZM382 678Q456 678 517 652T621 579T689 470T713 333Q713 259 689 196T621 86T517 14T382 -12Q308 -12 247 14T142 86T75 196T51 333Q51 407 75 470T142 579T247 652T382 678ZM382 604Q326 604 280 583T203 527T154 441T137 333Q137 275 154 225T203 139T280 82T382 62Q438 62 483 82T560 139T609 225T627 333Q627 391 609 441T560 527T483 583T382 604ZM385 -89Q405 -89 418 -102T431 -136Q431 -156 418 -169T385 -183Q366 -183 352 -169T338 -136Q338 -116 352 -102T385 -89Z" horiz-adv-x="765" unicode="Ộ"/>
			<glyph d="M248 700H320L418 556H367L284 662L204 556H153ZM286 495Q341 495 385 475T461 421T508 340T525 242Q525 189 508 143T461 62T385 8T286 -12Q231 -12 186 8T111 62T63 143T47 242Q47 294 63 340T111 421T186 475T286 495ZM286 428Q247 428 217 412T166 371T135 312T125 242Q125 205 135 171T166 111T217 70T286 55Q325 55 354 70T404 111T435 171T446 242Q446 279 435 312T404 371T354 412T286 428ZM286 -89Q306 -89 319 -102T332 -136Q332 -156 319 -169T286 -183Q267 -183 253 -169T239 -136Q239 -116 253 -102T286 -89Z" unicode="ộ"/>
			<glyph d="M474 867H552L383 723H326ZM669 727Q689 727 704 710T719 664Q719 626 700 592T654 538Q682 495 697 443T713 333Q713 259 689 196T621 86T517 14T382 -12Q308 -12 247 14T142 86T75 196T51 333Q51 407 75 470T142 579T247 652T382 678Q460 678 523 648T631 568Q649 583 662 603T677 644Q676 643 672 642T666 642Q649 642 638 654T627 683Q627 701 639 714T669 727ZM382 604Q326 604 280 583T203 527T154 441T137 333Q137 275 154 225T203 139T280 82T382 62Q438 62 483 82T560 139T609 225T627 333Q627 391 609 441T560 527T483 583T382 604Z" horiz-adv-x="765" unicode="Ớ"/>
			<glyph d="M377 700H455L286 556H229ZM477 593Q497 593 512 576T527 530Q527 495 510 463T469 410Q496 377 510 333T525 242Q525 189 508 143T461 62T385 8T286 -12Q231 -12 186 8T111 62T63 143T47 242Q47 294 63 340T111 421T186 475T286 495Q334 495 373 479T443 438Q460 452 471 472T485 510Q483 510 479 509T474 509Q457 509 445 520T434 550Q434 567 446 580T477 593ZM286 428Q247 428 217 412T166 371T135 312T125 242Q125 205 135 171T166 111T217 70T286 55Q325 55 354 70T404 111T435 171T446 242Q446 279 435 312T404 371T354 412T286 428Z" unicode="ớ"/>
			<glyph d="M669 727Q689 727 704 710T719 664Q719 626 700 592T654 538Q682 495 697 443T713 333Q713 259 689 196T621 86T517 14T382 -12Q308 -12 247 14T142 86T75 196T51 333Q51 407 75 470T142 579T247 652T382 678Q460 678 523 648T631 568Q649 583 662 603T677 644Q676 643 672 642T666 642Q649 642 638 654T627 683Q627 701 639 714T669 727ZM382 604Q326 604 280 583T203 527T154 441T137 333Q137 275 154 225T203 139T280 82T382 62Q438 62 483 82T560 139T609 225T627 333Q627 391 609 441T560 527T483 583T382 604ZM214 867H292L440 723H383Z" horiz-adv-x="765" unicode="Ờ"/>
			<glyph d="M477 593Q497 593 512 576T527 530Q527 495 510 463T469 410Q496 377 510 333T525 242Q525 189 508 143T461 62T385 8T286 -12Q231 -12 186 8T111 62T63 143T47 242Q47 294 63 340T111 421T186 475T286 495Q334 495 373 479T443 438Q460 452 471 472T485 510Q483 510 479 509T474 509Q457 509 445 520T434 550Q434 567 446 580T477 593ZM286 428Q247 428 217 412T166 371T135 312T125 242Q125 205 135 171T166 111T217 70T286 55Q325 55 354 70T404 111T435 171T446 242Q446 279 435 312T404 371T354 412T286 428ZM117 700H195L343 556H286Z" unicode="ờ"/>
			<glyph d="M669 727Q689 727 704 710T719 664Q719 626 700 592T654 538Q682 495 697 443T713 333Q713 259 689 196T621 86T517 14T382 -12Q308 -12 247 14T142 86T75 196T51 333Q51 407 75 470T142 579T247 652T382 678Q460 678 523 648T631 568Q649 583 662 603T677 644Q676 643 672 642T666 642Q649 642 638 654T627 683Q627 701 639 714T669 727ZM382 604Q326 604 280 583T203 527T154 441T137 333Q137 275 154 225T203 139T280 82T382 62Q438 62 483 82T560 139T609 225T627 333Q627 391 609 441T560 527T483 583T382 604ZM382 820Q411 820 432 803T454 751Q454 734 449 722T435 697H395Q408 710 413 723T418 749Q418 769 408 778T382 788Q353 788 342 756L309 765Q317 788 335 804T382 820Z" horiz-adv-x="765" unicode="Ở"/>
			<glyph d="M477 593Q497 593 512 576T527 530Q527 495 510 463T469 410Q496 377 510 333T525 242Q525 189 508 143T461 62T385 8T286 -12Q231 -12 186 8T111 62T63 143T47 242Q47 294 63 340T111 421T186 475T286 495Q334 495 373 479T443 438Q460 452 471 472T485 510Q483 510 479 509T474 509Q457 509 445 520T434 550Q434 567 446 580T477 593ZM286 428Q247 428 217 412T166 371T135 312T125 242Q125 205 135 171T166 111T217 70T286 55Q325 55 354 70T404 111T435 171T446 242Q446 279 435 312T404 371T354 412T286 428ZM286 651Q315 651 336 634T358 582Q358 565 353 553T339 528H299Q312 541 317 554T322 580Q322 600 312 609T286 619Q257 619 246 587L213 596Q221 619 239 635T286 651Z" unicode="ở"/>
			<glyph d="M669 727Q689 727 704 710T719 664Q719 626 700 592T654 538Q682 495 697 443T713 333Q713 259 689 196T621 86T517 14T382 -12Q308 -12 247 14T142 86T75 196T51 333Q51 407 75 470T142 579T247 652T382 678Q460 678 523 648T631 568Q649 583 662 603T677 644Q676 643 672 642T666 642Q649 642 638 654T627 683Q627 701 639 714T669 727ZM382 604Q326 604 280 583T203 527T154 441T137 333Q137 275 154 225T203 139T280 82T382 62Q438 62 483 82T560 139T609 225T627 333Q627 391 609 441T560 527T483 583T382 604ZM323 861Q350 861 366 846T393 815T416 783T446 769Q466 769 480 789T494 855H539Q539 796 514 758T442 721Q415 721 399 735T371 767T348 798T319 813Q299 813 285 792T271 727H226Q226 786 250 823T323 861Z" horiz-adv-x="765" unicode="Ỡ"/>
			<glyph d="M477 593Q497 593 512 576T527 530Q527 495 510 463T469 410Q496 377 510 333T525 242Q525 189 508 143T461 62T385 8T286 -12Q231 -12 186 8T111 62T63 143T47 242Q47 294 63 340T111 421T186 475T286 495Q334 495 373 479T443 438Q460 452 471 472T485 510Q483 510 479 509T474 509Q457 509 445 520T434 550Q434 567 446 580T477 593ZM286 428Q247 428 217 412T166 371T135 312T125 242Q125 205 135 171T166 111T217 70T286 55Q325 55 354 70T404 111T435 171T446 242Q446 279 435 312T404 371T354 412T286 428ZM226 694Q253 694 269 679T296 648T319 616T349 602Q369 602 383 622T397 688H442Q442 629 417 591T345 554Q318 554 302 568T274 600T251 631T222 646Q202 646 188 625T174 560H129Q129 619 153 656T226 694Z" unicode="ỡ"/>
			<glyph d="M669 727Q689 727 704 710T719 664Q719 626 700 592T654 538Q682 495 697 443T713 333Q713 259 689 196T621 86T517 14T382 -12Q308 -12 247 14T142 86T75 196T51 333Q51 407 75 470T142 579T247 652T382 678Q460 678 523 648T631 568Q649 583 662 603T677 644Q676 643 672 642T666 642Q649 642 638 654T627 683Q627 701 639 714T669 727ZM382 604Q326 604 280 583T203 527T154 441T137 333Q137 275 154 225T203 139T280 82T382 62Q438 62 483 82T560 139T609 225T627 333Q627 391 609 441T560 527T483 583T382 604ZM384 -89Q404 -89 417 -102T430 -136Q430 -156 417 -169T384 -183Q365 -183 351 -169T337 -136Q337 -116 351 -102T384 -89Z" horiz-adv-x="765" unicode="Ợ"/>
			<glyph d="M477 593Q497 593 512 576T527 530Q527 495 510 463T469 410Q496 377 510 333T525 242Q525 189 508 143T461 62T385 8T286 -12Q231 -12 186 8T111 62T63 143T47 242Q47 294 63 340T111 421T186 475T286 495Q334 495 373 479T443 438Q460 452 471 472T485 510Q483 510 479 509T474 509Q457 509 445 520T434 550Q434 567 446 580T477 593ZM286 428Q247 428 217 412T166 371T135 312T125 242Q125 205 135 171T166 111T217 70T286 55Q325 55 354 70T404 111T435 171T446 242Q446 279 435 312T404 371T354 412T286 428ZM286 -89Q306 -89 319 -102T332 -136Q332 -156 319 -169T286 -183Q267 -183 253 -169T239 -136Q239 -116 253 -102T286 -89Z" unicode="ợ"/>
			<glyph d="M78 667H161V261Q161 169 209 115T350 62Q443 62 491 115T539 261V667H622V260Q622 198 605 147T554 61T469 7T350 -12Q282 -12 231 7T146 62T95 147T78 259ZM354 -89Q374 -89 387 -102T400 -136Q400 -156 387 -169T354 -183Q335 -183 321 -169T307 -136Q307 -116 321 -102T354 -89Z" horiz-adv-x="700" unicode="Ụ"/>
			<glyph d="M75 483H150V165Q150 133 157 112T179 78T214 60T258 55Q302 55 341 77T401 128V483H476V0H401V68Q373 36 328 12T229 -12Q153 -12 114 25T75 142ZM278 -89Q298 -89 311 -102T324 -136Q324 -156 311 -169T278 -183Q259 -183 245 -169T231 -136Q231 -116 245 -102T278 -89Z" horiz-adv-x="551" unicode="ụ"/>
			<glyph d="M78 667H161V261Q161 169 209 115T350 62Q443 62 491 115T539 261V667H622V260Q622 198 605 147T554 61T469 7T350 -12Q282 -12 231 7T146 62T95 147T78 259ZM351 820Q380 820 401 803T423 751Q423 734 418 722T404 697H364Q377 710 382 723T387 749Q387 769 377 778T351 788Q322 788 311 756L278 765Q286 788 304 804T351 820Z" horiz-adv-x="700" unicode="Ủ"/>
			<glyph d="M75 483H150V165Q150 133 157 112T179 78T214 60T258 55Q302 55 341 77T401 128V483H476V0H401V68Q373 36 328 12T229 -12Q153 -12 114 25T75 142ZM276 651Q305 651 326 634T348 582Q348 565 343 553T329 528H289Q302 541 307 554T312 580Q312 600 302 609T276 619Q247 619 236 587L203 596Q211 619 229 635T276 651Z" horiz-adv-x="551" unicode="ủ"/>
			<glyph d="M441 867H519L350 723H293ZM688 791Q708 791 723 774T738 728Q738 680 707 638T622 574V260Q622 198 605 147T554 61T469 7T350 -12Q282 -12 231 7T146 62T95 147T78 259V667H161V261Q161 169 209 115T350 62Q443 62 491 115T539 261V667H622V613Q651 627 672 653T695 708Q694 708 690 707T684 707Q667 707 656 718T645 748Q645 765 657 778T688 791Z" horiz-adv-x="700" unicode="Ứ"/>
			<glyph d="M366 700H444L275 556H218ZM519 599Q539 599 554 582T570 536Q570 493 545 454T476 392V0H401V68Q373 36 328 12T229 -12Q153 -12 114 25T75 142V483H150V165Q150 133 157 112T179 78T214 60T258 55Q302 55 341 77T401 128V483H476V435Q497 451 511 472T527 516Q526 516 522 515T516 515Q499 515 487 526T476 556Q476 573 488 586T519 599Z" horiz-adv-x="551" unicode="ứ"/>
			<glyph d="M181 867H259L407 723H350ZM688 791Q708 791 723 774T738 728Q738 680 707 638T622 574V260Q622 198 605 147T554 61T469 7T350 -12Q282 -12 231 7T146 62T95 147T78 259V667H161V261Q161 169 209 115T350 62Q443 62 491 115T539 261V667H622V613Q651 627 672 653T695 708Q694 708 690 707T684 707Q667 707 656 718T645 748Q645 765 657 778T688 791Z" horiz-adv-x="700" unicode="Ừ"/>
			<glyph d="M106 700H184L332 556H275ZM519 599Q539 599 554 582T570 536Q570 493 545 454T476 392V0H401V68Q373 36 328 12T229 -12Q153 -12 114 25T75 142V483H150V165Q150 133 157 112T179 78T214 60T258 55Q302 55 341 77T401 128V483H476V435Q497 451 511 472T527 516Q526 516 522 515T516 515Q499 515 487 526T476 556Q476 573 488 586T519 599Z" horiz-adv-x="551" unicode="ừ"/>
			<glyph d="M351 820Q380 820 401 803T423 751Q423 734 418 722T404 697H364Q377 710 382 723T387 749Q387 769 377 778T351 788Q322 788 311 756L278 765Q286 788 304 804T351 820ZM688 791Q708 791 723 774T738 728Q738 680 707 638T622 574V260Q622 198 605 147T554 61T469 7T350 -12Q282 -12 231 7T146 62T95 147T78 259V667H161V261Q161 169 209 115T350 62Q443 62 491 115T539 261V667H622V613Q651 627 672 653T695 708Q694 708 690 707T684 707Q667 707 656 718T645 748Q645 765 657 778T688 791Z" horiz-adv-x="700" unicode="Ử"/>
			<glyph d="M276 651Q305 651 326 634T348 582Q348 565 343 553T329 528H289Q302 541 307 554T312 580Q312 600 302 609T276 619Q247 619 236 587L203 596Q211 619 229 635T276 651ZM519 599Q539 599 554 582T570 536Q570 493 545 454T476 392V0H401V68Q373 36 328 12T229 -12Q153 -12 114 25T75 142V483H150V165Q150 133 157 112T179 78T214 60T258 55Q302 55 341 77T401 128V483H476V435Q497 451 511 472T527 516Q526 516 522 515T516 515Q499 515 487 526T476 556Q476 573 488 586T519 599Z" horiz-adv-x="551" unicode="ử"/>
			<glyph d="M688 791Q708 791 723 774T738 728Q738 680 707 638T622 574V260Q622 198 605 147T554 61T469 7T350 -12Q282 -12 231 7T146 62T95 147T78 259V667H161V261Q161 169 209 115T350 62Q443 62 491 115T539 261V667H622V613Q651 627 672 653T695 708Q694 708 690 707T684 707Q667 707 656 718T645 748Q645 765 657 778T688 791ZM291 861Q318 861 334 846T361 815T384 783T414 769Q434 769 448 789T462 855H507Q507 796 482 758T410 721Q383 721 367 735T339 767T316 798T287 813Q267 813 253 792T239 727H194Q194 786 218 823T291 861Z" horiz-adv-x="700" unicode="Ữ"/>
			<glyph d="M519 599Q539 599 554 582T570 536Q570 493 545 454T476 392V0H401V68Q373 36 328 12T229 -12Q153 -12 114 25T75 142V483H150V165Q150 133 157 112T179 78T214 60T258 55Q302 55 341 77T401 128V483H476V435Q497 451 511 472T527 516Q526 516 522 515T516 515Q499 515 487 526T476 556Q476 573 488 586T519 599ZM216 694Q243 694 259 679T286 648T309 616T339 602Q359 602 373 622T387 688H432Q432 629 407 591T335 554Q308 554 292 568T264 600T241 631T212 646Q192 646 178 625T164 560H119Q119 619 143 656T216 694Z" horiz-adv-x="551" unicode="ữ"/>
			<glyph d="M354 -89Q374 -89 387 -102T400 -136Q400 -156 387 -169T354 -183Q335 -183 321 -169T307 -136Q307 -116 321 -102T354 -89ZM688 791Q708 791 723 774T738 728Q738 680 707 638T622 574V260Q622 198 605 147T554 61T469 7T350 -12Q282 -12 231 7T146 62T95 147T78 259V667H161V261Q161 169 209 115T350 62Q443 62 491 115T539 261V667H622V613Q651 627 672 653T695 708Q694 708 690 707T684 707Q667 707 656 718T645 748Q645 765 657 778T688 791Z" horiz-adv-x="700" unicode="Ự"/>
			<glyph d="M278 -89Q298 -89 311 -102T324 -136Q324 -156 311 -169T278 -183Q259 -183 245 -169T231 -136Q231 -116 245 -102T278 -89ZM519 599Q539 599 554 582T570 536Q570 493 545 454T476 392V0H401V68Q373 36 328 12T229 -12Q153 -12 114 25T75 142V483H150V165Q150 133 157 112T179 78T214 60T258 55Q302 55 341 77T401 128V483H476V435Q497 451 511 472T527 516Q526 516 522 515T516 515Q499 515 487 526T476 556Q476 573 488 586T519 599Z" horiz-adv-x="551" unicode="ự"/>
			<glyph d="M9 667H106L313 357L520 667H617L355 282V0H272V282ZM144 867H222L370 723H313Z" horiz-adv-x="626" unicode="Ỳ"/>
			<glyph d="M3 483H84L245 87L405 483H487L245 -98Q223 -151 187 -173T103 -196Q91 -196 75 -194T48 -189L60 -121Q68 -125 80 -127T101 -129Q126 -129 143 -118T173 -78L205 -5ZM76 700H154L302 556H245Z" horiz-adv-x="490" unicode="ỳ"/>
			<glyph d="" horiz-adv-x="51" unicode=" "/>
			<glyph d="M30 275H563V209H30Z" horiz-adv-x="593" unicode="–"/>
			<glyph d="M30 275H803V209H30Z" horiz-adv-x="833" unicode="—"/>
			<glyph d="M30 275H563V209H30Z" horiz-adv-x="593" unicode="―"/>
			<glyph d="M128 677L165 647Q141 631 122 604T101 554Q103 554 107 554T114 555Q135 555 149 541T163 504Q163 482 147 466T110 451Q85 451 66 470T47 527Q47 573 70 612T128 677Z" horiz-adv-x="230" unicode="‘"/>
			<glyph d="M113 677Q138 677 157 657T176 601Q176 555 152 515T94 450L57 481Q81 497 100 523T122 574Q118 572 108 572Q87 572 73 586T60 623Q60 645 75 661T113 677Z" horiz-adv-x="230" unicode="’"/>
			<glyph d="M113 100Q138 100 157 80T176 24Q176 -22 152 -62T94 -127L57 -96Q81 -80 100 -54T122 -3Q118 -5 108 -5Q87 -5 73 9T60 46Q60 68 75 84T113 100Z" horiz-adv-x="230" unicode="‚"/>
			<glyph d="M116 677Q139 677 154 661T170 623Q170 600 156 586T121 572Q118 572 114 572T108 574Q111 550 129 523T172 481L135 450Q100 475 77 515T54 601Q54 638 72 657T116 677Z" horiz-adv-x="230" unicode="‛"/>
			<glyph d="M135 677L172 647Q148 631 129 604T108 554Q109 554 113 554T121 555Q142 555 155 541T169 504Q169 482 154 466T116 451Q91 451 72 470T54 527Q54 573 77 612T135 677ZM295 677L332 647Q308 631 289 604T268 554Q269 554 273 554T281 555Q302 555 316 541T330 504Q330 482 314 466T276 451Q251 451 232 470T214 527Q214 573 237 612T295 677Z" horiz-adv-x="390" unicode="“"/>
			<glyph d="M273 677Q298 677 317 657T336 601Q336 555 312 515T255 450L218 481Q242 497 260 523T282 574Q280 573 276 572T269 572Q248 572 234 586T220 623Q220 645 235 661T273 677ZM113 677Q138 677 157 657T176 601Q176 555 152 515T94 450L57 481Q81 497 100 523T122 574Q118 572 108 572Q87 572 73 586T60 623Q60 645 75 661T113 677Z" horiz-adv-x="390" unicode="”"/>
			<glyph d="M113 100Q138 100 157 80T176 24Q176 -22 152 -62T94 -127L57 -96Q81 -80 100 -54T122 -3Q118 -5 108 -5Q87 -5 73 9T60 46Q60 68 75 84T113 100ZM273 100Q298 100 317 80T336 24Q336 -22 312 -62T255 -127L218 -96Q242 -80 260 -54T282 -3Q280 -4 276 -4T269 -5Q248 -5 234 9T220 46Q220 68 235 84T273 100Z" horiz-adv-x="390" unicode="„"/>
			<glyph d="M107 677H155L151 571L240 574V531L151 535L155 327H107L112 535L23 531V574L112 571Z" horiz-adv-x="263" unicode="†"/>
			<glyph d="M107 677H155L151 571L240 574V531L151 535V322L240 326V283L151 286L155 180H107L111 286L23 283V326L111 322V535L23 531V574L111 571Z" horiz-adv-x="263" unicode="‡"/>
			<glyph d="M180 350Q202 350 221 341T256 318T279 283T288 242Q288 220 279 200T256 166T221 143T180 135Q158 135 138 143T104 166T80 200T72 242Q72 264 80 283T104 318T138 341T180 350Z" horiz-adv-x="358" unicode="•"/>
			<glyph d="M114 100Q137 100 153 84T169 45Q169 23 153 6T114 -10Q91 -10 75 6T60 45Q60 68 75 84T114 100ZM344 100Q367 100 383 84T400 45Q400 23 383 6T344 -10Q321 -10 305 6T290 45Q290 68 305 84T344 100ZM575 100Q598 100 614 84T630 45Q630 23 614 6T575 -10Q552 -10 536 6T520 45Q520 68 536 84T575 100Z" horiz-adv-x="690" unicode="…"/>
			<glyph d="M191 677Q227 677 257 664T308 629T341 576T353 511Q353 476 341 446T308 394T257 360T191 348Q155 348 125 360T75 394T42 446T31 511Q31 546 42 576T75 629T125 664T191 677ZM554 667H609L182 0H128ZM539 317Q575 317 604 304T655 269T688 216T700 151Q700 116 688 86T655 34T604 0T539 -12Q503 -12 473 0T423 34T390 86T379 151Q379 186 390 216T423 269T473 304T539 317ZM191 630Q146 630 118 596T91 511Q91 461 118 428T191 395Q236 395 264 428T293 511Q293 562 264 596T191 630ZM539 270Q494 270 466 236T438 151Q438 101 466 68T539 35Q584 35 612 68T641 151Q641 202 612 236T539 270ZM891 317Q927 317 956 304T1007 269T1040 216T1052 151Q1052 116 1040 86T1007 34T956 0T891 -12Q855 -12 825 0T775 34T742 86T731 151Q731 186 742 216T775 269T825 304T891 317ZM891 270Q846 270 818 236T791 151Q791 101 818 68T891 35Q936 35 964 68T993 151Q993 202 964 236T891 270Z" horiz-adv-x="1083" unicode="‰"/>
			<glyph d="M190 420H265L105 243L265 63H190L30 243Z" horiz-adv-x="295" unicode="‹"/>
			<glyph d="M30 420H105L265 243L105 63H30L190 243Z" horiz-adv-x="295" unicode="›"/>
			<glyph d="M0 620H363V572H0Z" horiz-adv-x="363" unicode="‾"/>
			<glyph d="M254 667H310L-117 0H-172Z" horiz-adv-x="138" unicode="⁄"/>
			<glyph d="M194 827Q237 827 267 808T317 761T346 695T355 621Q355 584 346 547T317 480T267 432T194 414Q151 414 120 432T70 480T42 547T33 621Q33 658 42 695T70 761T120 808T194 827ZM194 778Q166 778 147 765T116 730T99 679T94 621Q94 590 99 561T116 511T147 476T194 463Q221 463 240 476T271 511T288 561T293 621Q293 651 288 679T271 730T240 765T194 778Z" horiz-adv-x="388" unicode="⁰"/>
			<glyph d="M211 821H294V570H352V521H294V421H235V521H39V565ZM235 768L99 570H235Z" horiz-adv-x="388" unicode="⁴"/>
			<glyph d="M56 821H317V772H116V638Q131 652 155 663T212 674Q238 674 262 666T304 642T333 602T344 547Q344 517 332 492T300 450T252 423T192 414Q139 414 103 431T44 479L79 518Q99 492 127 477T192 463Q234 463 259 486T284 545Q284 583 259 605T194 628Q138 628 99 589L56 604Z" horiz-adv-x="388" unicode="⁵"/>
			<glyph d="M212 827Q251 827 279 814T329 781L300 739Q283 757 263 767T212 778Q182 778 160 765T125 732T104 685T98 632V615Q105 625 117 636T144 656T176 670T213 676Q241 676 266 667T309 642T339 602T350 546Q350 519 339 495T310 453T264 424T203 414Q158 414 127 430T76 475T47 541T38 620Q38 662 48 700T81 766T135 810T212 827ZM198 628Q169 628 143 613T100 572Q101 553 107 533T126 498T156 473T200 463Q222 463 239 470T267 489T284 515T290 544Q290 587 263 607T198 628Z" horiz-adv-x="388" unicode="⁶"/>
			<glyph d="M33 821H323V779L157 421H90L256 772H33Z" horiz-adv-x="362" unicode="⁷"/>
			<glyph d="M194 827Q220 827 246 821T293 802T327 769T340 722Q340 683 312 659T246 627Q287 617 317 590T347 523Q347 496 334 475T301 441T252 421T194 414Q163 414 135 421T87 441T53 475T41 523Q41 563 71 590T142 627Q104 636 76 659T48 722Q48 750 61 769T95 802T142 821T194 827ZM194 779Q157 779 132 762T107 715Q107 697 117 684T142 664T171 652T194 647Q202 648 216 652T245 664T269 684T280 715Q280 746 255 762T194 779ZM194 605Q186 604 170 599T138 586T111 562T100 528Q100 496 128 478T194 461Q232 461 259 478T287 528Q287 548 275 562T248 586T217 599T194 605Z" horiz-adv-x="388" unicode="⁸"/>
			<glyph d="M186 827Q230 827 261 810T312 765T341 699T350 620Q350 578 339 540T307 475T252 430T176 414Q137 414 108 426T60 460L88 502Q105 484 124 473T176 463Q205 463 226 475T261 508T283 554T290 610V626Q275 605 244 585T176 565Q148 565 123 573T79 597T49 638T38 695Q38 722 48 746T78 788T124 816T186 827ZM189 778Q166 778 149 770T121 751T104 725T98 697Q98 654 125 633T190 613Q219 613 245 628T288 669Q286 688 280 707T262 742T232 768T189 778Z" horiz-adv-x="388" unicode="⁹"/>
			<glyph d="M116 886L151 870Q136 840 124 812T104 754T92 691T88 621Q88 583 92 550T104 488T124 429T151 372L116 356Q73 409 49 478T26 621Q26 693 49 762T116 886Z" horiz-adv-x="161" unicode="⁽"/>
			<glyph d="M57 886Q100 832 124 762T148 621Q148 548 124 479T57 356L23 372Q38 401 49 429T69 488T82 550T86 621Q86 659 82 691T69 754T49 812T23 870Z" horiz-adv-x="161" unicode="⁾"/>
			<glyph d="M233 648Q293 648 315 618T338 541V326H280V526Q280 568 261 584T210 600Q181 600 156 585T118 554V326H60V640H118V595Q135 615 165 631T233 648Z" horiz-adv-x="398" unicode="ⁿ"/>
			<glyph d="M194 261Q237 261 267 242T317 195T346 129T355 55Q355 18 346 -19T317 -85T267 -133T194 -152Q151 -152 120 -133T70 -85T42 -19T33 55Q33 92 42 129T70 195T120 242T194 261ZM194 212Q166 212 147 199T116 164T99 113T94 55Q94 24 99 -4T116 -55T147 -90T194 -103Q221 -103 240 -90T271 -55T288 -4T293 55Q293 85 288 113T271 164T240 199T194 212Z" horiz-adv-x="388" unicode="₀"/>
			<glyph d="M122 255H175V-145H115V177L49 108L14 145Z" horiz-adv-x="235" unicode="₁"/>
			<glyph d="M196 261Q223 261 249 254T295 232T327 195T339 143Q339 113 324 83T282 25T219 -34T138 -96H341V-145H50V-100Q107 -59 150 -26T221 35T264 89T279 139Q279 158 272 172T253 195T225 208T194 212Q156 212 127 196T82 160L49 198Q74 230 113 245T196 261Z" horiz-adv-x="388" unicode="₂"/>
			<glyph d="M192 261Q256 261 296 232T336 154Q336 132 327 116T306 88T277 70T247 61Q261 60 278 53T309 35T333 5T343 -36Q343 -87 302 -119T192 -152Q138 -152 100 -133T42 -87L74 -49Q94 -74 124 -88T190 -103Q234 -103 258 -84T283 -33Q283 5 253 20T179 36Q165 36 154 36Q144 36 139 35V85Q144 84 155 84Q166 84 178 84Q220 84 248 98T276 148Q276 179 250 195T187 212Q123 212 78 163L47 199Q70 225 106 243T192 261Z" horiz-adv-x="388" unicode="₃"/>
			<glyph d="M211 255H294V4H352V-45H294V-145H235V-45H39V-1ZM235 202L99 4H235Z" horiz-adv-x="388" unicode="₄"/>
			<glyph d="M56 255H317V206H116V72Q131 86 155 97T212 108Q238 108 262 100T304 76T333 36T344 -19Q344 -49 332 -74T300 -116T252 -142T192 -152Q139 -152 103 -134T44 -87L79 -48Q99 -74 127 -88T192 -103Q234 -103 259 -79T284 -21Q284 17 259 39T194 62Q138 62 99 23L56 38Z" horiz-adv-x="388" unicode="₅"/>
			<glyph d="M212 261Q251 261 279 248T329 215L300 173Q283 191 263 201T212 212Q182 212 160 199T125 166T104 119T98 66V49Q105 59 117 70T144 90T176 104T213 110Q241 110 266 101T309 76T339 36T350 -20Q350 -47 339 -71T310 -113T264 -141T203 -152Q158 -152 127 -135T76 -90T47 -25T38 54Q38 96 48 134T81 200T135 244T212 261ZM198 62Q169 62 143 47T100 6Q101 -13 107 -32T126 -67T156 -93T200 -103Q222 -103 239 -95T267 -76T284 -50T290 -22Q290 21 263 41T198 62Z" horiz-adv-x="388" unicode="₆"/>
			<glyph d="M33 255H323V213L157 -145H90L256 206H33Z" horiz-adv-x="362" unicode="₇"/>
			<glyph d="M194 261Q220 261 246 255T293 236T327 203T340 156Q340 117 312 93T246 61Q287 51 317 24T347 -43Q347 -70 334 -90T301 -124T252 -145T194 -152Q163 -152 135 -145T87 -124T53 -90T41 -43Q41 -3 71 24T142 61Q104 70 76 93T48 156Q48 184 61 203T95 236T142 255T194 261ZM194 213Q157 213 132 196T107 149Q107 131 117 118T142 98T171 86T194 81Q202 82 216 86T245 98T269 118T280 149Q280 180 255 196T194 213ZM194 39Q186 38 170 33T138 20T111 -3T100 -38Q100 -70 128 -87T194 -105Q232 -105 259 -87T287 -38Q287 -18 275 -3T248 20T217 33T194 39Z" horiz-adv-x="388" unicode="₈"/>
			<glyph d="M186 261Q230 261 261 244T312 199T341 133T350 54Q350 12 339 -25T307 -91T252 -135T176 -152Q137 -152 108 -139T60 -106L88 -64Q105 -82 124 -92T176 -103Q205 -103 226 -90T261 -58T283 -11T290 44V60Q275 39 244 19T176 -1Q148 -1 123 7T79 31T49 72T38 129Q38 156 48 180T78 222T124 250T186 261ZM189 212Q166 212 149 204T121 185T104 159T98 131Q98 88 125 67T190 47Q219 47 245 62T288 103Q286 122 280 141T262 176T232 202T189 212Z" horiz-adv-x="388" unicode="₉"/>
			<glyph d="M116 319L151 303Q136 273 124 245T104 187T92 124T88 54Q88 16 92 -16T104 -79T124 -137T151 -195L116 -211Q73 -158 49 -88T26 54Q26 126 49 195T116 319Z" horiz-adv-x="161" unicode="₍"/>
			<glyph d="M57 319Q100 265 124 195T148 54Q148 -19 124 -88T57 -211L23 -195Q38 -166 49 -137T69 -79T82 -16T86 54Q86 92 82 124T69 187T49 245T23 303Z" horiz-adv-x="161" unicode="₎"/>
			<glyph d="M450 768H500L468 671Q508 662 544 642L586 768H636L585 616Q605 601 621 583T651 546L581 507Q576 515 570 521T558 535L401 62Q458 63 505 90T581 159L652 120Q610 63 548 25T398 -12Q392 -12 386 -11T376 -11L346 -100H296L328 -5Q307 -1 287 4T249 18L210 -100H160L207 41Q137 86 96 161T55 333Q55 410 81 473T154 582T263 653T398 678Q403 678 409 677T420 677ZM395 604Q341 603 294 583T214 527T160 441T141 333Q141 265 165 210T234 120ZM444 599L275 92Q310 74 351 66L519 567Q483 590 444 599Z" horiz-adv-x="680" unicode="₡"/>
			<glyph d="M88 667H525V593H171V378H518V304H171V185H373V137H171V0H88V137H10V185H88Z" horiz-adv-x="561" unicode="₣"/>
			<glyph d="M272 677Q341 677 393 648T474 565L407 525Q394 557 360 582T280 607Q251 607 225 598T180 572T148 532T137 479Q137 445 148 420T176 374H368V328H213Q225 312 234 295T249 258H368V212H252Q249 171 227 142T177 93Q188 97 201 99T229 102Q253 102 271 95T305 81T339 67T377 61Q410 61 435 74T472 101L508 34Q487 14 454 0T373 -13Q339 -13 317 -6T278 10T241 26T194 33Q168 33 138 21T76 -7L46 55Q110 84 144 123T179 208V212H19V258H169Q161 278 147 294T120 328H19V374H83Q68 395 58 420T48 480Q48 521 66 557T114 619T185 661T272 677Z" horiz-adv-x="518" unicode="₤"/>
			<glyph d="M88 667H173L346 432H557V667H640V432H718V384H640V289H718V241H640V0H560L383 241H171V0H88V241H10V289H88V384H10V432H88ZM171 384V289H348L279 384ZM381 384L451 289H557V384ZM171 532V432H244ZM487 241L557 146V241Z" horiz-adv-x="729" unicode="₦"/>
			<glyph d="M88 667H356Q402 667 439 653T502 615T543 559T563 491H635V439H563Q558 403 542 371T500 315T437 278T356 265H171V0H88V439H10V491H88ZM171 593V491H477Q469 537 434 565T346 593ZM171 439V339H346Q398 339 433 366T476 439Z" horiz-adv-x="640" unicode="₧"/>
			<glyph d="M780 495Q842 495 886 474T959 425L924 373Q902 399 864 416T780 434Q730 434 701 412T673 358Q673 332 695 318T750 294T822 276T894 252T950 208T972 134Q972 104 960 77T924 30T864 0T782 -12Q722 -12 673 6T587 64L626 118Q650 90 692 69T785 49Q841 49 870 72T899 132Q899 161 877 176T821 202T749 220T677 244T622 285T600 356Q600 384 612 409T647 454T703 484T780 495ZM78 667H346Q392 667 430 653T496 612T539 549T555 466Q555 421 541 386T503 327T447 289T382 272L562 0H464L294 265H161V0H78ZM161 593V338H336Q396 338 432 373T469 466Q469 523 432 558T336 593Z" horiz-adv-x="1019" unicode="₨"/>
			<glyph d="M14 667H106L168 432H342L407 667H476L540 432H713L776 667H868L800 432H863V384H787L760 289H863V241H746L678 0H588L522 241H360L294 0H204L135 241H20V289H122L95 384H20V432H81ZM181 384L206 289H303L329 384ZM553 384L580 289H676L701 384ZM399 384L373 289H509L483 384ZM593 241L629 111L663 241ZM219 241L254 111L290 241ZM441 538L412 432H470Z" horiz-adv-x="883" unicode="₩"/>
			<glyph d="M672 550H745V212Q745 109 692 54T521 0H273V387H346V66H521Q599 66 635 104T672 217ZM75 550H323Q441 550 494 495T548 338V162H475V332Q475 408 438 446T323 484H148V0H75Z" horiz-adv-x="820" unicode="₪"/>
			<glyph d="M120 -94H483V-142H120ZM425 667H500V583H568V535H500V0H425V72Q398 35 355 11T262 -12Q215 -12 175 5T107 55T63 135T47 241Q47 299 62 346T106 426T174 477T262 495Q311 495 353 472T425 410V535H268V583H425ZM280 428Q244 428 215 414T166 375T135 315T125 241Q125 201 135 167T166 108T215 69T280 55Q325 55 365 77T425 131V350Q405 382 365 405T280 428Z" horiz-adv-x="579" unicode="₫"/>
			<glyph d="M415 678Q459 678 496 668T565 640T622 598T668 546L598 507Q569 549 520 576T415 604Q372 604 334 591T264 556T209 502T173 431H476V379H161Q158 356 158 333Q158 310 161 289H476V237H173Q186 197 209 165T264 110T334 74T415 62Q472 62 520 89T598 159L669 120Q627 63 565 25T415 -12Q355 -12 301 5T203 55T129 134T84 237H31V289H74Q73 300 72 311T72 333Q72 344 72 356T74 379H31V431H84Q99 487 130 532T204 610T301 660T415 678Z" horiz-adv-x="695" unicode="€"/>
			<glyph d="M266 677Q303 677 335 667T391 641T428 601T442 551Q442 526 432 504T405 464T366 428T321 395L150 281V111Q150 84 162 66T199 49Q227 49 250 70L272 19Q255 2 232 -5T182 -12Q135 -12 105 14T75 101V505Q75 541 89 572T128 627T188 663T266 677ZM265 621Q217 621 183 590T150 504V355L292 451Q329 476 349 497T370 548Q370 565 361 578T337 601T304 616T265 621Z" horiz-adv-x="475" unicode="ℓ"/>
			<glyph d="M910 680Q948 680 978 667T1029 631T1061 579T1073 515Q1073 481 1061 451T1029 398T978 363T910 350Q873 350 843 363T792 398T759 451T748 515Q748 549 759 579T792 631T843 667T910 680ZM910 630Q861 630 834 597T808 515Q808 465 834 431T910 398Q960 398 987 431T1014 515Q1014 564 987 597T910 630ZM78 667H163L547 146V667H630V0H550L161 532V0H78Z" horiz-adv-x="1113" unicode="№"/>
			<glyph d="M389 679Q460 679 523 652T633 578T707 468T734 334Q734 263 707 200T633 90T523 16T389 -11Q318 -11 255 16T145 90T71 200T44 334Q44 405 71 468T145 578T255 652T389 679ZM389 648Q324 648 267 623T167 555T99 455T75 334Q75 269 99 212T167 112T267 44T389 20Q453 20 510 44T610 112T678 212T703 334Q703 398 678 455T610 555T510 623T389 648ZM275 536H424Q449 536 471 528T511 505T539 468T549 419Q549 392 539 371T512 335T472 313T424 305H312V131H275ZM312 501V339H424Q462 339 487 360T512 419Q512 457 487 479T424 501Z" horiz-adv-x="778" unicode="℗"/>
			<glyph d="M225 667H268L332 507L396 667H439V447H411V629L336 447H328L253 629V447H225ZM99 673Q154 673 181 641L163 622Q140 649 100 649Q79 649 65 639T52 613Q52 600 62 592T87 580T120 571T153 559T178 539T188 506Q188 475 166 457T101 439Q72 439 50 449T15 475L33 496Q44 483 61 473T100 464Q129 464 142 475T155 503Q155 518 145 526T120 539T87 548T54 559T29 578T19 610Q19 638 41 655T99 673Z" horiz-adv-x="476" unicode="℠"/>
			<glyph d="M205 667H248L312 507L376 667H419V447H391V629L316 447H308L233 629V447H205ZM17 667H169V641H107V447H79V641H17Z" horiz-adv-x="454" unicode="™"/>
			<glyph d="M382 678Q456 678 517 653T621 585T689 480T713 348Q713 299 701 257T670 182T622 121T562 74H696V0H456V74Q489 82 519 103T574 157T612 234T627 334Q627 389 611 438T564 523T487 581T382 603Q322 603 276 581T200 523T153 438T137 334Q137 279 151 234T190 157T245 103T309 74V0H69V74H204Q138 114 94 182T51 348Q51 420 75 480T142 585T247 653T382 678Z" horiz-adv-x="765" unicode="Ω"/>
			<glyph d="M421 684Q502 684 573 656T697 581T780 470T811 333V324H179Q174 324 174 319V129Q174 115 183 106Q228 58 290 30T423 3Q499 3 563 33T673 118H730Q676 55 596 18T421 -18Q340 -18 269 9T145 84T61 196T31 333Q31 406 61 470T145 581T269 656T421 684ZM423 663Q352 663 290 635T184 561Q174 551 174 537V349Q174 343 179 343H664Q668 343 668 349V540Q668 554 658 564Q613 610 552 636T423 663Z" horiz-adv-x="842" unicode="℮"/>
			<glyph d="M122 667H175V267H115V589L49 520L14 557ZM534 667H590L163 0H108ZM610 406Q674 406 714 377T754 299Q754 277 745 261T724 233T695 215T665 206Q679 205 696 198T727 180T751 150T761 109Q761 58 720 25T610 -7Q556 -7 518 12T460 58L492 96Q512 71 542 56T608 42Q652 42 676 61T701 112Q701 150 671 165T597 181Q583 181 572 181Q562 181 557 180V230Q562 229 573 229Q584 229 596 229Q638 229 666 243T694 293Q694 324 668 340T605 357Q541 357 496 308L465 344Q488 370 524 388T610 406Z" horiz-adv-x="807" unicode="⅓"/>
			<glyph d="M196 673Q223 673 249 666T295 644T327 607T339 555Q339 525 324 495T282 437T219 378T138 316H341V267H50V312Q107 353 150 386T221 447T264 501T279 551Q279 570 272 584T253 607T225 620T194 624Q156 624 127 608T82 572L49 610Q74 642 113 657T196 673ZM642 667H698L271 0H216ZM719 406Q783 406 823 377T863 299Q863 277 854 261T833 233T804 215T774 206Q788 205 805 198T836 180T860 150T870 109Q870 58 829 25T719 -7Q665 -7 627 12T569 58L601 96Q621 71 651 56T717 42Q761 42 785 61T810 112Q810 150 780 165T706 181Q692 181 681 181Q671 181 666 180V230Q671 229 682 229Q693 229 705 229Q747 229 775 243T803 293Q803 324 777 340T714 357Q650 357 605 308L574 344Q597 370 633 388T719 406Z" horiz-adv-x="915" unicode="⅔"/>
			<glyph d="M122 667H175V267H115V589L49 520L14 557ZM612 406Q638 406 664 400T711 381T745 348T758 301Q758 262 730 238T664 206Q705 196 735 169T765 102Q765 75 752 54T719 20T670 0T612 -7Q581 -7 553 0T505 20T471 54T459 102Q459 142 489 169T560 206Q522 215 494 238T466 301Q466 329 479 348T513 381T560 400T612 406ZM612 358Q575 358 550 341T525 294Q525 276 535 263T560 243T589 231T612 226Q620 227 634 231T663 243T687 263T698 294Q698 325 673 341T612 358ZM612 184Q604 183 588 178T556 165T529 141T518 107Q518 75 546 57T612 40Q650 40 677 57T705 107Q705 127 693 141T666 165T635 178T612 184ZM534 667H590L163 0H108Z" horiz-adv-x="807" unicode="⅛"/>
			</font>
</defs>
</svg>
