<?xml version="1.0" encoding="UTF-8" standalone="no"?>
<!DOCTYPE svg PUBLIC "-//W3C//DTD SVG 1.1//EN" "http://www.w3.org/Graphics/SVG/1.1/DTD/svg11.dtd">
<svg version="1.1" xmlns="http://www.w3.org/2000/svg" xmlns:xlink="http://www.w3.org/1999/xlink" preserveAspectRatio="xMidYMid meet" viewBox="0 0 640 640" width="640" height="640"><defs><path d="M8.91 0.09C8.59 0.12 8.27 0.18 7.95 0.24C7.89 0.25 7.82 0.27 7.76 0.28C5.89 0.71 4.17 1.67 2.83 3.04C2.7 3.17 2.58 3.3 2.46 3.44C-1.17 7.61 -0.73 13.93 3.44 17.57C7.43 21.04 13.44 20.81 17.15 17.04C17.27 16.91 17.4 16.78 17.52 16.64C19.12 14.82 20 12.47 20 10.04C20 4.51 15.52 0.03 9.99 0.03C9.63 0.03 9.27 0.05 8.91 0.09ZM3.44 3.39C3.5 3.32 3.56 3.26 3.62 3.2C3.68 3.15 3.74 3.1 3.79 3.05C3.86 2.99 3.92 2.94 3.99 2.88C4.05 2.83 4.1 2.79 4.16 2.74C4.23 2.68 4.3 2.63 4.37 2.58C4.43 2.53 4.49 2.49 4.55 2.45C4.62 2.4 4.69 2.35 4.76 2.3C4.82 2.26 4.89 2.22 4.95 2.17C5.02 2.13 5.09 2.08 5.17 2.04C5.23 2 5.3 1.96 5.36 1.93C5.44 1.88 5.51 1.84 5.59 1.8C5.65 1.77 5.72 1.73 5.79 1.7C5.86 1.66 5.94 1.62 6.02 1.59C6.08 1.56 6.15 1.52 6.22 1.49C6.3 1.46 6.38 1.43 6.46 1.39C6.53 1.37 6.6 1.34 6.67 1.31C6.75 1.28 6.83 1.25 6.91 1.22C6.98 1.2 7.05 1.17 7.12 1.15C7.2 1.12 7.29 1.1 7.37 1.08C7.44 1.05 7.51 1.03 7.58 1.01C7.61 1.01 7.64 1 7.66 1C6.68 1.95 5.94 3.14 5.53 4.46C4.74 4.25 3.97 3.95 3.24 3.58C3.25 3.57 3.26 3.56 3.27 3.55C3.33 3.49 3.38 3.44 3.44 3.39ZM5.33 5.09C4.89 6.59 4.67 8.15 4.65 9.71C4.25 9.71 1.05 9.71 0.65 9.71C0.72 7.65 1.48 5.67 2.79 4.08C3.6 4.52 4.45 4.86 5.33 5.09ZM0.65 10.38C1.05 10.38 4.25 10.38 4.65 10.38C4.67 11.94 4.89 13.49 5.33 14.99C4.45 15.23 3.6 15.57 2.79 16C1.48 14.41 0.72 12.44 0.65 10.38ZM7.37 19.01C7.29 18.99 7.2 18.96 7.12 18.93C7.05 18.91 6.98 18.89 6.91 18.86C6.83 18.83 6.75 18.81 6.67 18.77C6.6 18.75 6.53 18.72 6.46 18.69C6.38 18.66 6.3 18.63 6.22 18.59C6.15 18.56 6.09 18.53 6.02 18.5C5.94 18.46 5.86 18.43 5.78 18.39C5.72 18.35 5.65 18.32 5.58 18.28C5.51 18.24 5.43 18.2 5.36 18.16C5.29 18.12 5.23 18.08 5.16 18.05C5.09 18 5.02 17.96 4.95 17.91C4.88 17.87 4.82 17.83 4.76 17.79C4.69 17.74 4.62 17.69 4.55 17.64C4.49 17.59 4.42 17.55 4.36 17.5C4.3 17.45 4.23 17.4 4.16 17.34C4.1 17.3 4.04 17.25 3.98 17.2C3.92 17.15 3.85 17.09 3.79 17.03C3.73 16.98 3.68 16.93 3.62 16.88C3.56 16.82 3.49 16.76 3.43 16.7C3.38 16.64 3.32 16.59 3.27 16.54C3.26 16.53 3.25 16.52 3.24 16.51C3.97 16.13 4.74 15.84 5.53 15.63C5.94 16.94 6.67 18.13 7.66 19.09C7.63 19.08 7.61 19.08 7.58 19.07C7.51 19.05 7.44 19.03 7.37 19.01ZM6.19 15.47C7.33 15.21 8.49 15.07 9.65 15.06C9.65 15.34 9.65 16.78 9.65 19.36C7.87 18.23 6.71 16.93 6.19 15.47ZM5.98 14.83C5.56 13.38 5.34 11.88 5.32 10.38C5.61 10.38 7.05 10.38 9.65 10.38L9.65 14.39C8.01 14.5 6.78 14.65 5.98 14.83ZM5.32 9.71C5.34 8.2 5.56 6.7 5.98 5.25C7.18 5.53 8.42 5.68 9.65 5.69C9.65 5.96 9.65 7.3 9.65 9.71C7.05 9.71 5.61 9.71 5.32 9.71ZM6.19 4.62C6.97 2.42 8.23 0.93 9.65 0.72C9.65 1.01 9.65 2.44 9.65 5.03C8.1 4.92 6.95 4.79 6.19 4.62ZM19.32 9.71C18.92 9.71 15.72 9.71 15.32 9.71C15.31 8.15 15.08 6.59 14.65 5.09C15.53 4.86 16.38 4.52 17.18 4.08C18.5 5.67 19.25 7.65 19.32 9.71ZM12.6 1.07C12.69 1.1 12.77 1.12 12.85 1.15C12.93 1.17 12.99 1.2 13.06 1.22C13.15 1.25 13.23 1.28 13.31 1.31C13.38 1.34 13.45 1.36 13.52 1.39C13.6 1.42 13.68 1.46 13.75 1.49C13.82 1.52 13.89 1.55 13.96 1.58C14.04 1.62 14.11 1.66 14.19 1.7C14.26 1.73 14.32 1.76 14.39 1.8C14.47 1.84 14.54 1.88 14.62 1.92C14.68 1.96 14.75 2 14.81 2.04C14.88 2.08 14.96 2.13 15.03 2.17C15.09 2.21 15.16 2.26 15.22 2.3C15.29 2.35 15.36 2.4 15.43 2.45C15.49 2.49 15.55 2.53 15.61 2.58C15.68 2.63 15.75 2.68 15.82 2.74C15.87 2.79 15.93 2.83 15.99 2.88C16.06 2.94 16.12 2.99 16.19 3.05C16.24 3.1 16.3 3.15 16.36 3.2C16.42 3.26 16.48 3.32 16.54 3.39C16.6 3.44 16.65 3.49 16.71 3.55C16.71 3.56 16.72 3.57 16.73 3.58C16.01 3.95 15.24 4.25 14.45 4.46C14.03 3.14 13.3 1.95 12.31 0.99C12.34 1 12.37 1.01 12.39 1.01C12.46 1.03 12.53 1.05 12.6 1.07ZM13.79 4.62C12.65 4.87 11.49 5.01 10.32 5.03C10.32 4.74 10.32 3.3 10.32 0.72C12.11 1.85 13.26 3.15 13.79 4.62ZM14 5.25C14.42 6.7 14.64 8.2 14.66 9.71C14.37 9.71 12.92 9.71 10.32 9.71L10.32 5.69C11.97 5.58 13.19 5.44 14 5.25ZM14.66 10.38C14.64 11.88 14.42 13.38 14 14.83C14 14.83 14 14.83 14 14.83C12.79 14.55 11.56 14.41 10.32 14.39C10.32 14.12 10.32 12.78 10.32 10.38C12.92 10.38 14.37 10.38 14.66 10.38ZM10.32 15.06C11.49 15.07 12.65 15.21 13.79 15.47C13 17.67 11.75 19.16 10.32 19.36C10.32 18.5 10.32 15.49 10.32 15.06ZM16.54 16.7C16.48 16.76 16.42 16.82 16.35 16.88C16.3 16.93 16.24 16.98 16.18 17.03C16.12 17.09 16.05 17.15 15.99 17.2C15.93 17.25 15.87 17.3 15.81 17.35C15.74 17.4 15.68 17.45 15.61 17.5C15.55 17.55 15.49 17.59 15.42 17.64C15.36 17.69 15.29 17.74 15.22 17.78C15.15 17.83 15.09 17.87 15.03 17.91C14.95 17.95 14.88 18 14.81 18.04C14.74 18.08 14.68 18.12 14.61 18.16C14.54 18.2 14.46 18.24 14.39 18.28C14.32 18.32 14.26 18.35 14.19 18.38C14.11 18.42 14.04 18.46 13.96 18.5C13.89 18.53 13.82 18.56 13.76 18.59C13.68 18.62 13.6 18.66 13.52 18.69C13.45 18.72 13.38 18.75 13.31 18.77C13.23 18.8 13.15 18.83 13.07 18.86C13 18.88 12.93 18.91 12.86 18.93C12.77 18.96 12.69 18.98 12.6 19.01C12.53 19.03 12.46 19.05 12.39 19.07C12.37 19.08 12.34 19.08 12.31 19.09C13.3 18.13 14.03 16.94 14.45 15.62C15.24 15.83 16 16.13 16.73 16.5C16.72 16.52 16.71 16.53 16.7 16.54C16.65 16.59 16.59 16.64 16.54 16.7ZM14.65 14.99C15.08 13.49 15.31 11.94 15.32 10.38C15.72 10.38 18.92 10.38 19.32 10.38C19.25 12.44 18.5 14.41 17.18 16C16.38 15.57 15.53 15.23 14.65 14.99Z" id="d5dIpFxqGS"></path></defs><g><g><g><use xlink:href="#d5dIpFxqGS" opacity="1" fill="#000000" fill-opacity="1"></use><g><use xlink:href="#d5dIpFxqGS" opacity="1" fill-opacity="0" stroke="#000000" stroke-width="1" stroke-opacity="0"></use></g></g></g></g></svg>